<svg width="32" height="32" viewBox="0 0 32 32" fill="none" xmlns="http://www.w3.org/2000/svg">
<g id="recycle-sign" clip-path="url(#clip0_507_13841)">
<g id="Group">
<path id="Vector" d="M11.4999 0.66245C10.7062 0.87495 9.94994 1.37495 9.48744 1.97495C9.24994 2.2937 7.77494 4.6437 7.56869 5.0437C7.46869 5.2437 7.48119 5.5312 7.61244 5.67495C7.73744 5.8187 13.4562 9.46245 13.7062 9.5562C13.8999 9.6312 14.1062 9.5687 14.2562 9.39995C14.3124 9.3312 14.8437 8.4062 15.4374 7.3437C16.0312 6.27495 16.5312 5.3812 16.5437 5.3562C16.5749 5.3062 18.9999 9.8312 18.9999 9.92495C18.9999 9.94995 18.4749 10.275 17.8374 10.6562C17.1999 11.0312 16.6499 11.3937 16.6187 11.4562C16.5812 11.5187 16.5624 11.6687 16.5749 11.7937C16.6124 12.2312 16.4812 12.2 20.9937 12.7187C24.6124 13.1312 25.0999 13.175 25.2437 13.0937C25.3812 13.025 25.7687 12.275 27.3624 8.98745C28.6062 6.4187 29.3124 4.8937 29.3124 4.77495C29.3124 4.5187 29.0624 4.28745 28.7937 4.2937C28.6687 4.29995 28.1499 4.52495 27.4249 4.89995L26.2624 5.49995L25.2437 3.7437C24.1312 1.8312 23.8312 1.44995 23.1562 1.0562C22.3124 0.56245 22.7687 0.5937 16.9999 0.581201C12.5999 0.5687 11.7937 0.581201 11.4999 0.66245ZM15.2812 2.93745L15.9374 4.24995L14.8062 6.2812C13.7062 8.26245 13.6687 8.31245 13.5374 8.2312C13.4687 8.1812 12.3812 7.48745 11.1249 6.6937C9.86869 5.8937 8.81869 5.2187 8.79369 5.1937C8.74369 5.1437 9.86244 3.26245 10.2937 2.67495C10.5749 2.28745 11.0624 1.93745 11.5624 1.7687C11.9312 1.6437 12.0874 1.62495 13.2937 1.62495H14.6249L15.2812 2.93745ZM22.3749 1.84995C23.0312 2.16245 23.2374 2.4187 24.4562 4.51245C25.0687 5.56245 25.5999 6.4687 25.6437 6.52495C25.6874 6.5812 25.8124 6.64995 25.9249 6.6812C26.0999 6.73745 26.2062 6.69995 26.8749 6.3687C27.3812 6.12495 27.6124 6.03745 27.5687 6.11245C27.5374 6.1687 26.8874 7.51245 26.1249 9.0937C25.3624 10.675 24.7187 11.9875 24.6937 12.0125C24.6499 12.0625 18.8437 11.425 18.7874 11.3687C18.7687 11.35 19.0499 11.1625 19.4062 10.95C20.0937 10.5375 20.2499 10.3875 20.2499 10.1312C20.2499 10.0437 19.2687 8.11245 18.0624 5.83745C16.8624 3.56245 15.8749 1.6812 15.8749 1.6562C15.8749 1.63745 17.2437 1.6312 18.9249 1.63745L21.9687 1.6562L22.3749 1.84995Z" fill="#303033"/>
<path id="Vector_2" d="M4.53122 9.34375C2.26247 9.49375 0.356215 9.63125 0.299965 9.65625C0.112465 9.73125 -0.0125352 9.99375 0.0312148 10.225C0.0749648 10.4813 0.137465 10.525 1.62496 11.4375C2.26246 11.825 2.80621 12.1688 2.83121 12.1875C2.86246 12.2125 2.44996 13.1 1.91871 14.1625C1.38746 15.225 0.906215 16.2438 0.849965 16.425C0.612465 17.15 0.631215 18.1625 0.893715 18.8875C0.974965 19.1125 2.13747 21.1875 3.47496 23.5063C5.73122 27.4125 5.93747 27.75 6.34372 28.1563C6.64996 28.4625 6.93121 28.675 7.28747 28.8625C8.05622 29.2563 8.36872 29.3125 10.0062 29.3125H11.4187L11.5687 29.15L11.7187 28.9875V25.05V21.1125L11.5437 20.9625L11.3687 20.8125H9.30622C8.17496 20.8125 7.24997 20.7938 7.24997 20.775C7.24997 20.7313 9.71871 16.4375 9.82497 16.3C9.89997 16.2063 10.0062 16.2313 11.0312 16.6313C11.65 16.8688 12.2187 17.0625 12.2937 17.0625C12.525 17.0625 12.775 16.8 12.775 16.5563C12.7687 16.3 9.60622 9.41875 9.39371 9.2C9.21871 9.025 9.59997 9.01875 4.53122 9.34375ZM9.97497 12.8438C10.6437 14.2875 11.1875 15.4875 11.1875 15.5063C11.1875 15.5313 10.8687 15.425 10.4875 15.275C9.71247 14.975 9.51871 14.9438 9.32497 15.1063C9.24996 15.1688 8.16247 17.0125 6.89996 19.2C5.63747 21.3938 4.58746 23.1875 4.56872 23.1875C4.47497 23.1875 1.97496 18.7813 1.86871 18.425C1.70621 17.9188 1.71246 17.2313 1.87496 16.7438C1.94996 16.5375 2.48121 15.4125 3.06246 14.2438C3.64996 13.0813 4.12497 12.075 4.12497 12.0063C4.12497 11.7938 3.87496 11.575 3.08746 11.0875C2.65621 10.825 2.31871 10.5938 2.33746 10.5813C2.38121 10.5313 7.72497 10.2 8.27497 10.2125L8.76247 10.2188L9.97497 12.8438ZM10.6875 25.0688V28.2625L9.54996 28.2375L8.40621 28.2188L7.93121 27.9938C7.39996 27.7375 7.07497 27.4813 6.80621 27.0875C6.65622 26.8688 5.46872 24.85 5.24997 24.4375C5.19372 24.3313 5.34372 24.0625 6.41872 22.325L6.69372 21.875H8.69372H10.6875V25.0688Z" fill="#303033"/>
<path id="Vector_3" d="M25.9438 13.625C24.175 14.6562 22.6625 15.5562 22.5813 15.625C22.45 15.7375 22.4063 15.8875 22.4375 16.125C22.4438 16.2062 24.2188 19.4562 24.575 20.0437L24.7 20.25H22.225H19.7563L19.7375 19.1C19.7188 17.9812 19.7125 17.9437 19.5688 17.7875C19.4563 17.6687 19.35 17.625 19.175 17.625C18.9438 17.625 18.9 17.6687 16.2063 20.6312C14.7 22.2812 13.4313 23.7187 13.3938 23.8125C13.3375 23.9437 13.3313 24.0437 13.375 24.1562C13.4313 24.3125 18.4688 30.9062 18.8 31.2625C19.0188 31.5 19.3563 31.5062 19.5688 31.275C19.7125 31.125 19.7188 31.0687 19.7375 30.2125L19.7563 29.3125H21.9C24.2563 29.3125 24.45 29.2875 25.15 28.9187C25.3625 28.8125 25.7125 28.5375 25.9375 28.3125C26.2938 27.9562 26.5688 27.525 28.2125 24.6875C29.2438 22.9187 30.425 20.9187 30.8313 20.25C31.6813 18.8625 31.7875 18.6437 31.9125 18.0125C32.1313 16.8687 32.0125 16.4437 30.8063 14C30.2875 12.95 29.7938 12.0187 29.7 11.9187C29.5938 11.8062 29.475 11.75 29.3438 11.75C29.2063 11.75 28.2688 12.2625 25.9438 13.625ZM30.8875 16.8625C30.9438 17.1687 30.9438 17.3625 30.8875 17.7062C30.8 18.2125 30.6313 18.5625 30.0188 19.5312L29.5875 20.2187L27.7438 20.2375L25.9063 20.25L24.7938 18.2437C24.0313 16.875 23.6938 16.2187 23.7375 16.175C23.775 16.1375 24.9938 15.4125 26.45 14.5625L29.0938 13.0187L29.9563 14.7437C30.6 16.0312 30.8375 16.5687 30.8875 16.8625ZM18.6875 20.275C18.6875 20.8812 18.7063 21.0062 18.8063 21.1312L18.925 21.2812L23.9313 21.3125L28.9313 21.3437L27.2188 24.2812C25.3625 27.475 25.1688 27.7437 24.5188 28.05L24.1563 28.2187L21.5813 28.25L19.0125 28.2812L18.85 28.4312C18.7125 28.5625 18.6875 28.6375 18.6875 28.9625C18.6875 29.2937 18.675 29.325 18.5938 29.25C18.5438 29.2 17.6188 28.0062 16.5375 26.6L14.5688 24.0375L14.8 23.7687C15.4 23.075 18.6 19.5687 18.6438 19.5687C18.6688 19.5625 18.6875 19.8812 18.6875 20.275Z" fill="#303033"/>
</g>
</g>
<defs>
<clipPath id="clip0_507_13841">
<rect width="32" height="32" fill="white"/>
</clipPath>
</defs>
</svg>
