<svg width="48" height="48" viewBox="0 0 48 48" fill="none" xmlns="http://www.w3.org/2000/svg">
<g id="noto:meat-on-bone">
<path id="Vector" d="M5.03274 10.0162L5.42996 9.71258C5.13574 9.32771 4.89691 8.78267 4.75971 8.20757C4.62183 7.62957 4.59927 7.07475 4.68829 6.67491C4.78579 6.23697 4.95749 5.86258 5.14684 5.59526C5.34616 5.31387 5.51661 5.21588 5.58756 5.19892C5.58877 5.19893 5.60797 5.19683 5.65138 5.20129C5.70227 5.20652 5.76837 5.21883 5.84898 5.23965C6.01074 5.28142 6.19783 5.34868 6.38249 5.42437C6.56511 5.49922 6.7348 5.57792 6.85948 5.6383C6.92154 5.66836 6.97177 5.69355 7.00608 5.71101L7.04495 5.73097L7.05437 5.73588L7.0564 5.73695L7.05658 5.73705L7.05666 5.73709L7.05671 5.73712L7.05673 5.73712L7.81874 6.1399L7.78996 5.27834L7.78996 5.27834L7.78996 5.2783L7.78995 5.27821L7.78993 5.27752L7.78983 5.27434L7.78942 5.26106L7.78798 5.2086C7.7868 5.16277 7.78528 5.09625 7.78396 5.01437C7.78132 4.85036 7.77949 4.626 7.78269 4.38379C7.78943 3.87347 7.81859 3.36646 7.88151 3.1348C7.93351 2.94334 8.0869 2.70323 8.30447 2.46429C8.51685 2.23104 8.74454 2.04875 8.87778 1.966L8.87849 1.96556C9.36733 1.66083 9.68746 1.65561 9.8493 1.68215C9.85018 1.6823 9.85106 1.68245 9.85194 1.68259C9.84584 1.76952 9.83964 1.87023 9.83414 1.98263C9.81448 2.38442 9.80361 2.9397 9.83937 3.55226C9.90885 4.74248 10.16 6.28451 10.9911 7.27408C11.3329 7.68096 11.9066 8.31639 12.5616 9.04188C12.6089 9.09428 12.6566 9.14715 12.7048 9.20044C13.4231 9.99622 14.2306 10.893 14.958 11.7372C15.6891 12.5856 16.3248 13.3643 16.7075 13.9272C16.7649 14.0116 16.8138 14.0873 16.8552 14.1546C16.2208 14.1863 15.3078 14.2334 14.4746 14.2766C13.9238 14.3052 13.4074 14.3322 13.0287 14.352L12.6864 14.3699C12.6288 14.2887 12.5572 14.189 12.4736 14.075C12.2411 13.7579 11.9146 13.3282 11.5396 12.8797C11.1656 12.4325 10.7371 11.9592 10.3006 11.5585C9.87334 11.1665 9.39939 10.8072 8.93386 10.6349L8.93347 10.6347C8.27141 10.3902 7.58798 10.3077 7.02631 10.2399C6.89811 10.2245 6.77625 10.2098 6.66244 10.1941C5.99411 10.1019 5.63568 9.98125 5.42973 9.71228L5.03274 10.0162ZM5.03274 10.0162C5.44256 10.5515 6.15997 10.6387 6.98931 10.7395C7.54871 10.8075 8.15904 10.8817 8.76024 11.1037L7.28114 4.73142C7.28595 4.73374 7.29069 4.73603 7.29537 4.7383C7.36409 4.77158 7.42026 4.79974 7.45966 4.81979L7.5058 4.8435L7.51854 4.85014L7.52216 4.85204L7.52327 4.85262L7.52364 4.85282L7.52378 4.85289C7.52384 4.85292 7.52389 4.85295 7.29024 5.295L6.79051 5.31162L6.79051 5.31151L6.7905 5.31117L6.79046 5.31004L6.79033 5.30596L6.78987 5.29083L6.78831 5.23433C6.78716 5.18993 6.78574 5.1279 6.78445 5.05239C6.35989 4.8642 5.77693 4.64537 5.48274 4.71C4.98774 4.81875 4.42149 5.5725 4.20024 6.56625C3.97899 7.56 4.33899 9.10875 5.03274 10.0162ZM17.0379 14.5209C17.0377 14.5208 17.0368 14.5174 17.036 14.5111C17.0378 14.518 17.0382 14.5211 17.0379 14.5209Z" fill="#DDBCA8" stroke="black"/>
<path id="Vector_2" d="M12.5399 12.3487C12.5399 12.3487 10.0987 10.0575 9.32993 9.65625C8.56118 9.255 6.96368 9.46125 6.40493 9.16875C5.65118 8.775 4.83368 7.93125 4.76618 6.5625C4.69868 5.19375 5.08118 4.5225 6.43493 4.45875C7.53743 4.40625 8.20493 4.82625 8.50493 4.52625C8.80493 4.22625 8.53868 2.22 8.70368 1.88625C8.87243 1.5525 9.33743 0.918749 10.5749 1.1175C11.8124 1.31625 12.3449 2.46 12.4124 2.75625C12.6899 3.96 12.4874 6.22125 12.7912 6.7575C13.2712 7.60125 16.5187 11.2087 16.5187 11.2087C16.5187 11.2087 12.5699 12.2812 12.5399 12.3487Z" fill="#FFEBCA"/>
<path id="Vector_3" d="M27.7409 10.422L27.7408 10.4219C24.6604 7.90035 19.1015 7.43856 12.7307 11.9285L27.7409 10.422ZM27.7409 10.422C29.0945 11.5295 29.5879 12.2648 29.9577 12.9648C30.0374 13.1156 30.1137 13.2705 30.1929 13.4313C30.4919 14.0379 30.832 14.7281 31.549 15.599C32.3272 16.5456 33.4449 17.0948 34.6482 17.6861C34.7401 17.7312 34.8326 17.7766 34.9254 17.8225C36.2603 18.4821 37.7905 19.2768 39.4291 20.7629C41.0788 22.2589 42.6205 25.0509 42.6034 28.4956C42.5864 31.9219 41.0255 36.0515 36.3712 40.2252C31.8654 44.2651 27.7288 45.0993 24.4471 44.684C21.1401 44.2654 18.6388 42.569 17.4579 41.4561C16.2967 40.3618 15.4323 38.7476 14.7494 37.2225C14.5121 36.6926 14.3022 36.1864 14.1088 35.7202C14.0244 35.5167 13.9431 35.3208 13.8641 35.1338C13.6155 34.5454 13.3743 34.0066 13.1329 33.681C12.6826 33.0736 12.1246 32.6555 11.4831 32.2101C11.3756 32.1354 11.2652 32.0597 11.1514 31.9816C10.5796 31.5892 9.92448 31.1396 9.14255 30.4923C8.21707 29.7262 7.49665 28.9355 6.98468 27.9589C6.47302 26.983 6.15349 25.7905 6.07562 24.2005C5.89639 20.5407 7.59979 15.5488 12.7305 11.9287L27.7409 10.422Z" fill="#CF701E" stroke="black"/>
<path id="Vector_4" d="M22.9498 23.8275C17.3923 28.29 13.5673 37.5037 20.2423 41.8088C25.2411 45.03 32.3736 42.6 36.4348 38.8388C39.6111 35.8988 43.6198 28.1025 39.8098 23.475C36.4198 19.3575 28.8823 19.065 22.9498 23.8275Z" fill="#FBD5B2"/>
<path id="Vector_5" d="M22.0387 12.2325C21.6825 11.8763 21.1162 11.9063 20.655 12.45C20.1937 12.9938 20.13 13.6838 20.52 13.995C21.09 14.4563 21.6862 13.8788 21.9862 13.4813C22.3087 13.0463 22.4437 12.6375 22.0387 12.2325ZM11.7862 16.6538C11.0812 16.545 10.8637 17.2238 10.8375 17.7938C10.8112 18.3638 10.7287 19.0163 11.49 19.0688C12.2512 19.1213 12.4125 18.3375 12.4125 17.82C12.4087 17.3025 12.4837 16.7588 11.7862 16.6538ZM12 23.2725C11.3212 23.2425 11.1037 23.8163 11.1337 24.6563C11.1637 25.4963 11.4337 26.0138 11.895 25.9838C12.3562 25.9575 12.6075 25.44 12.6562 24.735C12.7087 23.9213 12.6525 23.2988 12 23.2725ZM14.415 25.9838C14.0062 25.6913 13.41 25.9013 13.1925 26.745C12.96 27.645 13.3125 27.93 13.6012 28.0463C14.0625 28.2375 14.415 27.7463 14.5762 27.2063C14.7412 26.6625 14.7975 26.2538 14.415 25.9838Z" fill="#AB5931"/>
<path id="Vector_6" d="M30.3751 22.695C29.9289 22.3912 26.6551 23.0812 23.5126 26.0662C20.3701 29.0512 19.3276 31.5337 19.6388 32.385C19.9501 33.2362 22.0801 33.1987 22.9351 33.1987C23.7901 33.1987 25.9914 33.18 26.6964 33.1612C28.0914 33.1237 28.0913 34.4775 26.6588 34.6725C25.5001 34.83 22.3163 34.9425 21.0376 35.4075C19.9126 35.8162 18.9076 36.1425 18.8288 37.035C18.7501 37.9275 20.1451 40.1362 22.4739 40.95C24.8026 41.7637 27.5513 41.5312 28.0538 41.145C28.5563 40.7587 28.9051 38.0062 28.9839 36.7275C29.0626 35.4487 29.0214 33.6262 29.9926 33.6262C30.9639 33.6262 30.6901 35.9137 30.7276 36.8437C30.7651 37.7737 30.6901 39.4012 31.1926 39.7912C31.6951 40.1775 33.7014 39.18 35.4564 37.425C37.0464 35.835 38.3251 34.1287 37.8601 33.5475C37.3951 32.9662 33.5589 32.8875 32.6289 32.9287C31.6989 32.9662 31.5451 31.38 32.8613 31.3387C34.1776 31.3012 37.3576 31.5712 38.3663 31.0275C39.3751 30.4837 40.6126 28.005 38.9101 25.215C37.2076 22.425 35.2276 22.3462 34.3763 22.425C33.5251 22.5037 33.1351 24.75 32.8276 25.8375C32.5163 26.9212 32.2088 28.9387 32.0926 29.4037C31.9764 29.8687 30.9676 30.255 30.8926 29.25C30.8138 28.2412 30.9714 26.46 31.0089 25.4512C31.0464 24.4425 31.1101 23.2012 30.3751 22.695Z" fill="#FF605E"/>
<path id="Vector_7" d="M32.3053 34.7439L32.2576 34.7029L32.2576 34.7029L32.2575 34.7028L32.2572 34.7025L32.2557 34.7012L32.2495 34.6959L32.2248 34.6748L32.1299 34.5941C32.0478 34.5245 31.93 34.4252 31.7879 34.3069C31.5032 34.0701 31.1227 33.7587 30.7362 33.4578C30.3467 33.1547 29.9627 32.8713 29.668 32.685C29.6168 32.6526 29.5709 32.6248 29.5303 32.6013C29.3184 32.8953 29.0982 33.2672 29.0502 33.7884L29.0502 33.7886C29.0164 34.1538 29.0636 34.3589 29.0971 34.4532C29.109 34.4866 29.1197 34.5079 29.126 34.519L29.1315 34.5241L29.1575 34.5586L28.7586 34.86L29.1575 34.5586L29.1576 34.5587L29.158 34.5592L29.1595 34.5612L29.1655 34.5692L29.1891 34.6004L29.2794 34.7197C29.3575 34.8228 29.4698 34.9709 29.6065 35.1509C29.8799 35.5109 30.2507 35.998 30.6408 36.5067C31.4285 37.5339 32.2733 38.6214 32.5676 38.9532C32.8965 39.3239 33.2867 39.8429 33.6067 40.3513C33.7671 40.606 33.9144 40.8655 34.0287 41.1081C34.1389 41.3423 34.2349 41.5953 34.2646 41.8281C34.2906 42.0325 34.2832 42.3207 34.2705 42.6043C34.2638 42.7529 34.2549 42.9125 34.2459 43.0744L34.2458 43.0754C34.2367 43.238 34.2275 43.4037 34.2198 43.5692C34.2042 43.9029 34.1956 44.2231 34.2065 44.4942C34.2181 44.7834 34.2505 44.9508 34.28 45.0189L34.2807 45.0205C34.555 45.6607 35.0931 46.1066 35.9994 46.2788L36.0001 46.2789C36.1839 46.3141 36.7279 46.3164 37.317 46.2361C37.6024 46.1973 37.8746 46.142 38.0968 46.0718C38.3346 45.9966 38.4534 45.9231 38.4925 45.8839C38.6694 45.707 38.8185 45.4279 38.9232 45.1122C39.0272 44.7987 39.0698 44.5024 39.0698 44.3325C39.0698 44.2519 39.0605 44.1734 39.0475 44.0691C39.047 44.0647 39.0464 44.0602 39.0458 44.0556C39.0345 43.9654 39.0181 43.8339 39.0245 43.7033C39.0319 43.5521 39.07 43.3742 39.1891 43.2046C39.3049 43.0397 39.4668 42.9261 39.6449 42.8437C39.8546 42.7467 40.1182 42.7095 40.3403 42.6876C40.5146 42.6704 40.7116 42.6591 40.9036 42.6481C40.969 42.6444 41.0339 42.6406 41.0971 42.6367C41.3562 42.6207 41.602 42.6009 41.8206 42.5644C42.0442 42.5271 42.2035 42.4776 42.3051 42.4213C42.845 42.1223 43.2813 41.4622 43.2515 40.6881L32.3053 34.7439ZM32.3053 34.7439L32.3617 34.7718M32.3053 34.7439L32.3617 34.7718M32.3617 34.7718L32.5836 34.3237M32.3617 34.7718L32.5836 34.3237M32.5836 34.3237C32.3617 34.7718 32.3617 34.7718 32.3618 34.7719L32.3621 34.772L32.3634 34.7727L32.3686 34.7752L32.3891 34.7854L32.4688 34.8249L32.7717 34.9747C33.0326 35.1039 33.4055 35.2883 33.8533 35.5097C34.7489 35.9524 35.9444 36.5426 37.1435 37.133C38.3425 37.7232 39.5459 38.3138 40.457 38.7569C40.9123 38.9784 41.2959 39.1637 41.5698 39.2938C41.7064 39.3587 41.8179 39.4109 41.8982 39.4473C41.9378 39.4652 41.9734 39.4811 42.0022 39.493C42.0159 39.4987 42.0335 39.5059 42.0516 39.5123C42.0602 39.5154 42.0753 39.5207 42.0935 39.5257L42.094 39.5259C42.0973 39.5268 42.1118 39.5311 42.1339 39.5354C42.1358 39.5361 42.1379 39.537 42.1402 39.5379C42.1706 39.5503 42.2185 39.5723 42.2796 39.6046C42.4017 39.6692 42.5582 39.7653 42.7111 39.8863C43.0417 40.1476 43.2415 40.4316 43.2515 40.688L32.5836 34.3237ZM29.3335 32.5039C29.3335 32.5039 29.3341 32.504 29.3352 32.5044L29.3335 32.5039Z" fill="#DFBBAA" stroke="black"/>
<path id="Vector_8" d="M32.9702 30.6938C32.8015 30.5775 32.704 30.5363 32.5765 30.525C32.0215 30.48 31.3015 30.5288 30.484 31.0425C29.6252 31.5788 29.0327 32.4263 29.0327 32.4263C29.0327 32.4263 33.784 38.2763 34.2115 38.8988C34.639 39.5175 35.4115 40.5263 35.4115 41.0288C35.4115 41.5313 35.119 43.5938 35.2952 44.0513C35.5652 44.7488 36.574 45.7163 37.504 45.7163C38.824 45.7163 39.3377 44.9963 39.5327 44.49C39.7277 43.9838 39.7165 42.4575 40.024 41.685C40.4102 40.7175 43.5452 41.55 43.7402 40.9313C43.9352 40.3125 44.2165 38.6363 42.8552 37.8488C41.8465 37.2675 39.3265 37.5788 39.3265 37.5788C39.3265 37.5788 33.4652 31.0275 32.9702 30.6938Z" fill="#FFEBCA"/>
</g>
</svg>
