<svg width="42" height="53" viewBox="0 0 42 53" fill="none" xmlns="http://www.w3.org/2000/svg">
<path d="M1.52051 5.06665L4.24761 51.9981C4.27834 52.527 4.71618 52.9401 5.24593 52.9401H35.7357C36.2674 52.9401 36.7061 52.5241 36.7343 51.9932L39.2125 5.32034L1.52051 5.06665Z" fill="#C93F3F"/>
<path d="M40.0459 0H1C0.447715 0 0 0.447716 0 1V4.4451C0 4.99739 0.447716 5.4451 1 5.4451H40.0459C40.5982 5.4451 41.0459 4.99739 41.0459 4.4451V1C41.0459 0.447715 40.5982 0 40.0459 0Z" fill="#E04C4C"/>
<path d="M19.3969 21.625C19.2907 21.7094 19.2907 21.7719 19.3875 22.1562C19.5532 22.8125 19.575 23.7188 19.4407 24.225C19.2938 24.7844 19.1188 25.1 18.7532 25.45C17.8657 26.3062 17.7438 26.4531 17.475 26.9875C17.2219 27.4906 17.0094 28.2469 16.95 28.875L16.925 29.1094L16.85 28.875C16.7875 28.6844 16.7688 28.5563 16.7563 28.2031C16.75 27.9625 16.7313 27.7406 16.7125 27.7094C16.6657 27.6187 16.5438 27.5875 16.4219 27.6375C16.2813 27.6969 15.7907 28.1719 15.5813 28.4531C14.4907 29.9 14.0625 31.8688 14.5188 33.3187C15.1563 35.3406 17.4063 36.4375 20.9063 36.4375C23.8313 36.4375 25.8907 35.7125 26.9125 34.3219C27.9032 32.9719 27.9188 30.9187 26.9532 28.9531C26.6813 28.3969 26.5125 28.1344 26.1157 27.6625C25.45 26.8719 25.1719 26.2969 25.1344 25.6469C25.1188 25.3656 25.1094 25.3344 25.0407 25.2906C24.8688 25.1781 24.3532 25.3562 24.0375 25.6406C23.95 25.7188 23.8219 25.8687 23.7532 25.9719L23.6282 26.1594L23.5938 26.025C23.5094 25.6781 23.2969 25.0844 23.1438 24.7688C22.5157 23.4781 21.4375 22.4281 20.05 21.7625C19.6157 21.5531 19.5157 21.5312 19.3969 21.625ZM20.4157 22.4812C21.9782 23.4031 23.0594 25.0469 23.25 26.7812C23.2688 26.9625 23.2907 27.1687 23.3 27.2437C23.3188 27.4 23.4094 27.5 23.5344 27.5C23.6875 27.5 23.7469 27.4156 23.8094 27.1094C23.9032 26.6625 24.0563 26.3344 24.3 26.0625C24.4063 25.9469 24.6188 25.7906 24.6375 25.8156C24.6407 25.8219 24.6813 25.9781 24.725 26.1594C24.8657 26.7437 25.2 27.3344 25.7313 27.9531C26.0844 28.3594 26.3094 28.7031 26.5344 29.1687C27.1782 30.5125 27.3594 31.9719 27.0125 33.0625C26.6532 34.2062 25.7438 35.0312 24.325 35.4969C24.0032 35.6031 23.5125 35.7188 23.0813 35.7969L22.9594 35.8156L23.1532 35.6375C23.8094 35.0312 24.0813 34.0125 23.8469 33.0469C23.7407 32.6094 23.5032 32.1156 23.2719 31.8531C23.0938 31.6531 22.8938 31.7375 22.8188 32.0469C22.7532 32.3125 22.5969 32.5875 22.4032 32.7875C22.3 32.8906 22.2125 32.9719 22.2032 32.9656C22.1969 32.9562 22.2063 32.8875 22.225 32.8125C22.2469 32.7344 22.2625 32.4437 22.2625 32.1562C22.2594 31.7031 22.25 31.6031 22.1782 31.3375C22.0844 30.9844 21.9094 30.5906 21.7188 30.3125C21.4063 29.85 20.7219 29.25 20.5125 29.25C20.3875 29.25 20.2813 29.3406 20.2813 29.4437C20.2813 29.4844 20.3032 29.5844 20.3282 29.6687C20.5219 30.3125 20.0938 31.0469 19.2344 31.55C18.8438 31.7781 18.6844 31.8844 18.5063 32.0469C18.1594 32.3594 17.8782 32.8156 17.7313 33.2969C17.6563 33.5438 17.6438 33.6312 17.6438 34C17.6438 34.375 17.6532 34.45 17.7282 34.6719C17.8344 34.9875 17.9969 35.2656 18.2282 35.5188C18.3282 35.6281 18.4 35.7188 18.3844 35.7188C18.3063 35.7188 17.6219 35.5188 17.3563 35.4219C16.025 34.9219 15.2219 34.1219 14.9157 32.9844C14.8407 32.6969 14.8313 32.6219 14.8313 32.0625C14.8282 31.5375 14.8375 31.4062 14.9032 31.1125C15.0938 30.2125 15.55 29.2469 16.0938 28.5812C16.1719 28.4875 16.2438 28.4094 16.2532 28.4062C16.2625 28.4062 16.2813 28.5 16.2938 28.6156C16.3407 29.0563 16.55 29.5125 16.8344 29.7844C17.0782 30.0219 17.1969 30.0563 17.3282 29.9219C17.4032 29.85 17.4063 29.8281 17.4063 29.4938C17.4063 28.4938 17.6782 27.4937 18.1313 26.8125C18.3125 26.5406 18.525 26.3094 18.8282 26.0469C19.475 25.4875 19.775 24.9906 19.9407 24.2125C20.0313 23.7969 20.0375 22.9812 19.9594 22.5375C19.9313 22.3812 19.9063 22.2437 19.9063 22.2344C19.9063 22.2031 20.1282 22.3125 20.4157 22.4812ZM21.0907 30.2937C21.6625 30.9125 21.9125 31.7875 21.7657 32.6562C21.7375 32.8344 21.6782 33.0781 21.6344 33.1937C21.5407 33.4594 21.5469 33.5812 21.6657 33.6688C21.75 33.7313 21.7532 33.7313 21.9157 33.675C22.3157 33.5375 22.875 33.0656 23.0625 32.7062C23.1063 32.6281 23.15 32.5625 23.1594 32.5625C23.1813 32.5625 23.3563 33.0031 23.3875 33.1375C23.5282 33.7344 23.425 34.4438 23.125 34.9187C22.6532 35.6656 21.7688 36.0156 20.55 35.9344C19.65 35.875 18.975 35.6156 18.5563 35.1625C18.2438 34.8219 18.1219 34.4937 18.1219 34C18.1219 33.6344 18.175 33.4156 18.3625 33.0344C18.5594 32.6312 18.8782 32.3094 19.3438 32.0406C19.775 31.7906 20.0125 31.6125 20.2782 31.325C20.5563 31.0281 20.7594 30.6406 20.8157 30.3C20.8594 30.0312 20.85 30.0344 21.0907 30.2937Z" fill="white"/>
</svg>
