<svg width="42" height="53" viewBox="0 0 42 53" fill="none" xmlns="http://www.w3.org/2000/svg">
<path d="M1.52051 5.06665L4.24761 51.9981C4.27834 52.527 4.71618 52.9401 5.24593 52.9401H35.7357C36.2674 52.9401 36.7061 52.5241 36.7343 51.9932L39.2125 5.32034L1.52051 5.06665Z" fill="#653410"/>
<path d="M40.0459 0H1C0.447715 0 0 0.447716 0 1V4.4451C0 4.99739 0.447716 5.4451 1 5.4451H40.0459C40.5982 5.4451 41.0459 4.99739 41.0459 4.4451V1C41.0459 0.447715 40.5982 0 40.0459 0Z" fill="#713F1B"/>
<g clip-path="url(#clip0_934_5604)">
<path d="M15.3198 21.0454C15.1448 21.111 14.9855 21.2516 14.8948 21.4266C14.8198 21.5735 14.8167 21.5954 14.8167 22.2516V22.9235L14.9136 23.1266C14.9823 23.2672 15.1761 23.5204 15.548 23.9547L16.0823 24.5797V26.8797C16.0823 28.1454 16.0917 29.3672 16.1011 29.5985L16.123 30.0172L15.2667 30.1485C14.3042 30.2985 14.2355 30.3235 14.0823 30.5954C14.0073 30.7297 14.0042 30.761 14.0042 31.2391C14.0042 31.6922 13.9829 33.4261 14.0361 33.4855C14.0767 33.5293 14.4676 33.0766 14.4676 33.0766C14.4676 33.0766 14.4573 31.811 14.4573 31.3235C14.4573 30.8985 14.4792 30.7735 14.5636 30.7422C14.648 30.7079 16.1167 30.4922 16.1323 30.511C16.1417 30.5204 16.1698 30.8704 16.1917 31.2891C16.2386 32.111 16.3292 32.7172 16.4855 33.2985C16.6011 33.7204 16.6792 33.8141 16.923 33.8141C17.2198 33.8141 17.2948 33.686 17.4698 32.9079C17.5792 32.4047 17.6355 31.9329 17.6792 31.1735C17.698 30.811 17.7198 30.511 17.7261 30.5047C17.7448 30.4829 19.2417 30.7204 19.3042 30.7547C19.3386 30.7704 19.3698 30.8172 19.3823 30.8579C19.3917 30.8985 19.3948 31.5204 19.3886 32.2391C19.3761 33.5391 19.3761 33.5516 19.2917 33.8547C19.0917 34.5954 18.6886 35.2547 18.1792 35.6766C17.7355 36.0391 17.0167 36.5329 16.9292 36.5329C16.798 36.5329 15.7542 35.7641 15.4417 35.436C14.8136 34.7797 14.5198 34.061 14.4667 33.061C14.4511 32.7204 14.4386 32.6391 14.3886 32.5891C14.3105 32.511 14.1386 32.5141 14.0636 32.5985C14.0105 32.6579 14.0042 32.711 14.0105 33.0766C14.0261 34.1485 14.4386 35.1204 15.1917 35.861C15.4073 36.0735 16.3948 36.811 16.6073 36.9204C16.7636 37.0016 16.9917 37.0172 17.1573 36.961C17.2355 36.9329 17.498 36.7672 17.7448 36.5922C18.5042 36.0454 18.698 35.8766 19.0011 35.486C19.4698 34.8891 19.7386 34.2422 19.8292 33.5016C19.873 33.1516 19.873 30.8672 19.8292 30.711C19.7886 30.5579 19.6292 30.3797 19.473 30.3141C19.4042 30.2829 18.9886 30.2047 18.5511 30.1391L17.7542 30.0204L17.7636 27.3016L17.773 24.586L18.2042 24.0829C19.0917 23.0454 19.0355 23.1704 19.0355 22.236C19.0355 21.6266 19.0292 21.536 18.9761 21.4391C18.8948 21.286 18.7761 21.1641 18.6292 21.086C18.5073 21.0172 18.4761 21.0172 16.973 21.011C15.7261 21.0047 15.4198 21.011 15.3198 21.0454ZM18.4948 21.5579C18.5636 21.6266 18.5667 21.6516 18.5761 22.2047C18.5855 22.7172 18.5792 22.7954 18.5261 22.9141C18.4948 22.9891 18.2323 23.3266 17.9448 23.6672L17.4198 24.2829H16.9292H16.4417L15.9105 23.661C15.5261 23.2079 15.3636 22.9954 15.3261 22.886C15.2636 22.7079 15.248 21.8266 15.3042 21.661C15.373 21.4704 15.3542 21.4704 16.9636 21.4797L18.423 21.486L18.4948 21.5579ZM17.3011 26.9235L17.2823 29.5641H16.5823L16.5511 29.0954V26.9235V24.7516H16.9261H17.3011V26.9235ZM17.2823 29.711C17.2761 29.7954 17.248 30.2954 17.223 30.8297C17.1667 31.9891 17.123 32.336 16.9605 33.0329L16.9355 33.1422L16.898 33.0016C16.8323 32.7704 16.7448 32.286 16.7105 31.9547C16.6792 31.661 16.5823 29.9547 16.5823 29.686V29.5641H16.9417H17.2823V29.711Z" fill="white"/>
<path d="M16.0198 22.1578C15.9416 22.236 15.9385 22.3797 16.0166 22.4735L16.076 22.5485H16.9229C17.751 22.5485 17.7698 22.5485 17.8354 22.4797C17.9198 22.3953 17.926 22.2453 17.8479 22.1578C17.7948 22.0985 17.7541 22.0953 16.9354 22.0953C16.1229 22.0953 16.0791 22.0985 16.0198 22.1578Z" fill="white"/>
<path d="M22.5761 21.0453C22.4105 21.1047 22.3198 21.1703 22.2198 21.2984C22.073 21.4922 22.0542 21.5953 22.0511 22.2266C22.0511 23.1016 22.0448 23.0891 22.8448 24.0172L23.3323 24.5797L23.323 27.4453C23.3198 29.0203 23.3073 30.3172 23.2948 30.3297C23.2823 30.3422 23.0573 30.3859 22.7948 30.4266C22.5323 30.4672 22.2542 30.5141 22.1792 30.5328C21.7198 30.6453 21.3573 31.0297 21.2698 31.4984C21.2292 31.7203 21.2292 34.8203 21.2698 35.2641C21.3417 36.0078 21.523 36.6984 21.6886 36.8641C21.8698 37.0453 22.1636 37.0453 22.3417 36.8641C22.5167 36.6922 22.7011 35.9672 22.7667 35.2047C22.7855 34.9984 22.8011 34.2109 22.8011 33.4516C22.8011 32.1797 22.8042 32.0703 22.8573 32.0234C22.9136 31.9703 23.2948 31.8922 23.3292 31.9234C23.3386 31.9359 23.3511 32.1641 23.3573 32.4328C23.3948 34.5766 23.4261 35.4016 23.4886 35.7516C23.5698 36.2109 23.698 36.6672 23.7823 36.7891C23.9698 37.0641 24.3823 37.0641 24.5698 36.7891C24.648 36.6734 24.8105 36.0734 24.8792 35.6422C24.9136 35.4141 24.9386 34.8703 24.9636 33.6172L25.0011 31.9047L25.1261 31.9234C25.4261 31.9703 25.4636 31.9797 25.5042 32.0453C25.5386 32.0984 25.548 32.4359 25.5605 33.7516C25.573 35.2578 25.5792 35.4203 25.6417 35.7516C25.7292 36.2234 25.8573 36.6703 25.9386 36.7891C26.1292 37.0672 26.5417 37.0641 26.723 36.7859C26.8105 36.6547 26.9386 36.1891 27.0261 35.7047C27.0823 35.3953 27.0917 35.1734 27.1042 33.5547C27.1198 31.6078 27.1136 31.4672 26.9667 31.1672C26.8636 30.9609 26.6042 30.7109 26.3855 30.6109C26.2417 30.5453 25.3917 30.3766 25.1917 30.3766C25.0292 30.3734 25.0355 30.4547 25.0198 28.5047L25.0042 26.6922L24.9355 26.6234C24.8417 26.5297 24.6855 26.5297 24.6073 26.6234C24.5542 26.6922 24.5511 26.7797 24.5511 27.9734L24.5417 29.7203H24.1761H23.8105L23.8011 27.0016V24.7516H24.1761H24.5511V25.2672C24.5511 25.7422 24.551 27.0016 24.551 27.0016L25.0054 26.8297C25.0054 26.8297 25.0073 25.7109 25.0198 25.1734L25.0355 24.5703L25.5636 23.9484C25.9261 23.5234 26.1198 23.2672 26.1886 23.1266L26.2855 22.9234V22.2516C26.2855 21.5922 26.2855 21.5766 26.2042 21.4234C26.1167 21.2484 25.9198 21.0828 25.7448 21.0328C25.5605 20.9828 22.723 20.9922 22.5761 21.0453ZM25.673 21.5172C25.8198 21.5922 25.8386 21.6891 25.8261 22.3047C25.8198 22.7422 25.8073 22.8797 25.7667 22.9516C25.7386 23.0016 25.4792 23.3203 25.1917 23.6609L24.6636 24.2828H24.1761H23.6886L23.1792 23.6891C22.9011 23.3609 22.6417 23.0422 22.6042 22.9766C22.5417 22.8703 22.5355 22.8109 22.5261 22.3047C22.5136 21.6953 22.5323 21.5922 22.673 21.5172C22.7948 21.4516 25.5448 21.4484 25.673 21.5172ZM24.5605 30.0766C24.5792 30.4672 24.6136 30.5672 24.7698 30.7016C24.8886 30.7984 24.8667 30.7953 25.5761 30.9047C26.2136 31.0047 26.3167 31.0484 26.4886 31.2859C26.6448 31.5047 26.6511 31.6016 26.6355 33.5266C26.6261 35.0141 26.6136 35.3453 26.5698 35.5953C26.5136 35.9172 26.4136 36.3234 26.3605 36.4609C26.3261 36.5453 26.323 36.5391 26.2511 36.2984C26.2073 36.1609 26.1448 35.8859 26.1073 35.6891C26.048 35.3609 26.0386 35.1828 26.023 33.6422C26.0073 32.2984 25.9948 31.9391 25.9605 31.8766C25.898 31.7609 25.7667 31.6266 25.6667 31.5734C25.5636 31.5203 25.1573 31.4391 24.9917 31.4391C24.8386 31.4391 24.673 31.5328 24.598 31.6609C24.5417 31.7578 24.5355 31.8672 24.498 33.5328C24.4698 34.8703 24.448 35.3703 24.4105 35.5953C24.3573 35.9078 24.2605 36.3141 24.2042 36.4609C24.1698 36.5453 24.1698 36.5453 24.1105 36.3609C23.9136 35.7328 23.873 35.2703 23.8355 33.2297C23.8105 31.8016 23.8073 31.7547 23.7417 31.6484C23.6636 31.5234 23.5105 31.4391 23.3542 31.4391C23.1917 31.4391 22.7886 31.5203 22.6823 31.5766C22.5511 31.6453 22.4042 31.8266 22.3667 31.9609C22.3448 32.0328 22.3292 32.7234 22.3198 33.7047C22.3105 35.1609 22.3011 35.3641 22.2448 35.6578C22.173 36.0391 22.0542 36.4953 22.0198 36.5172C21.9886 36.5359 21.848 36.0078 21.7792 35.6109C21.7323 35.3359 21.723 35.0734 21.723 33.4078V31.5172L21.7917 31.3891C21.873 31.2359 22.0823 31.0484 22.2198 31.0047C22.273 30.9859 22.5511 30.9391 22.8386 30.8922C23.4073 30.8078 23.498 30.7828 23.6105 30.6797C23.7292 30.5703 23.7667 30.4391 23.7886 30.0672L23.8105 29.7203H24.1761H24.5417L24.5605 30.0766Z" fill="white"/>
<path d="M23.2542 22.1578C23.1761 22.2453 23.1824 22.3953 23.2667 22.4797C23.3324 22.5485 23.3511 22.5485 24.173 22.5485C24.9542 22.5485 25.0167 22.5453 25.0792 22.4891C25.1636 22.411 25.1699 22.2203 25.0886 22.1485C25.0386 22.1016 24.9261 22.0953 24.1699 22.0953C23.348 22.0953 23.3074 22.0985 23.2542 22.1578Z" fill="white"/>
</g>
<defs>
<clipPath id="clip0_934_5604">
<rect width="16" height="16" fill="white" transform="translate(13 21)"/>
</clipPath>
</defs>
</svg>
