<svg width="48" height="48" viewBox="0 0 48 48" fill="none" xmlns="http://www.w3.org/2000/svg">
<g id="champain bottle">
<path id="Vector" d="M21.6646 21.4416L22.0537 21.1275L21.6646 21.4416L21.6645 21.4414L21.664 21.4409L21.6622 21.4386L21.6551 21.4298L21.6272 21.3952L21.5211 21.2639L21.1418 20.7941L19.9819 19.3581C19.1302 18.3038 18.2686 17.2378 18.2075 17.1642C18.1426 17.0859 18.097 16.986 18.0752 16.938C18.0446 16.8706 18.0122 16.7908 17.9801 16.7074C17.9154 16.5396 17.8433 16.3352 17.777 16.1406C17.7221 15.9798 17.6701 15.8226 17.628 15.6934C17.5126 15.6618 17.3801 15.6045 17.2584 15.4998C17.1424 15.4008 17.0542 15.2639 16.9984 15.17C16.9798 15.1387 16.9616 15.1066 16.9439 15.0741L13.9626 17.7428C14.0667 17.8512 14.1701 17.9874 14.2341 18.148C14.2845 18.2733 14.318 18.3848 14.34 18.4809L17.9506 20.2195L18.1045 20.2936L18.1809 20.4464L21.2146 26.5139L21.3463 26.7772L21.1803 27.0195L21.1802 27.0196L21.1801 27.0198L21.18 27.0199L21.1799 27.02L21.1798 27.0202L21.1767 27.0249L21.1621 27.0471C21.1488 27.0673 21.1292 27.0981 21.105 27.1376C21.0565 27.2168 20.991 27.3293 20.9241 27.4605C20.7836 27.7361 20.6644 28.0421 20.643 28.2849L21.6646 21.4416ZM21.6646 21.4416L21.7808 21.5855L21.9626 21.6191L26.7339 22.5026L28.2 22.9554M21.6646 21.4416L28.2 22.9554M28.2 22.9554L28.2096 22.973L28.513 23.5263C28.7749 24.0035 29.1501 24.6867 29.6037 25.5106C30.5107 27.1583 31.7312 29.369 32.9844 31.6204C34.2375 33.8714 35.5241 36.1646 36.5634 37.9769C37.0828 38.8828 37.5417 39.6705 37.9041 40.2736C38.2578 40.8621 38.5398 41.309 38.6969 41.5039C39.1446 42.0591 39.3127 42.6716 39.2911 43.1904C39.269 43.7219 39.0547 44.1058 38.8012 44.2817C38.0248 44.8202 36.7434 45.3775 35.769 45.6554C35.2734 45.7968 34.7096 45.9349 34.1935 46.0115C33.6556 46.0914 33.2493 46.0912 33.0235 46.0196L33.0227 46.0194C33.0242 46.0199 33.0233 46.0193 33.0198 46.0174C33.0047 46.0091 32.9423 45.9748 32.8207 45.8801C32.6874 45.7764 32.5215 45.6313 32.3282 45.4506C31.9427 45.0899 31.4743 44.612 30.9836 44.0965C30.5821 43.6747 30.1629 43.2247 29.767 42.7997C29.2094 42.2012 28.698 41.6523 28.3472 41.3014C27.7721 40.7264 26.6221 39.367 25.5249 38.0225C24.4292 36.6797 23.4203 35.3938 23.1271 34.9746L23.1269 34.9743C22.5068 34.0893 21.8303 32.9898 21.3366 31.8161C20.8411 30.6385 20.5441 29.4201 20.643 28.285L28.2 22.9554Z" fill="#485020" stroke="black"/>
<path id="Vector_2" d="M22.5924 27.5746L22.3631 27.6566C21.9327 27.8107 21.4323 27.9903 21.1586 28.0904C20.9339 28.1725 20.6873 28.2589 20.4762 28.3318C20.4118 28.1032 20.321 27.8082 20.1965 27.4539C19.8822 26.5598 19.3528 25.2888 18.4881 23.7578C17.6275 22.2343 16.8882 21.1676 16.3595 20.4775C16.1826 20.2466 16.0294 20.0579 15.9031 19.9084L16.6037 19.4368C16.6974 19.457 16.8133 19.4821 16.9305 19.5084C17.0663 19.5388 17.2005 19.5699 17.3035 19.5958C17.3226 19.6006 17.3399 19.6051 17.3554 19.6092C17.3601 19.6145 17.365 19.6201 17.3701 19.626C17.4313 19.696 17.5175 19.7969 17.6223 19.9219C17.8317 20.1717 18.1116 20.5126 18.4091 20.8866C19.0123 21.6447 19.6607 22.5042 19.9602 23.0207C20.2806 23.5735 21.0135 24.8416 21.6665 25.9719L22.5242 27.4566L22.5924 27.5746Z" fill="#F6AF41" stroke="black"/>
<path id="Vector_3" d="M26.688 22.4641C26.8103 22.5096 26.9121 22.5457 26.9902 22.5726C27.0162 22.6148 27.0465 22.6647 27.0798 22.7204C27.1873 22.9003 27.3222 23.1355 27.4384 23.3662C27.5585 23.6046 27.9307 24.3748 28.2537 25.1089C28.4137 25.4725 28.5575 25.818 28.6526 26.0823C28.5788 26.0927 28.4966 26.1038 28.4052 26.1161C28.339 26.1251 28.2681 26.1347 28.192 26.1451C27.6015 26.226 26.7694 26.3483 25.7829 26.5724L25.7828 26.5724C24.9873 26.7533 23.9903 27.0771 23.2043 27.3504C22.8429 27.4761 22.522 27.5925 22.28 27.6819C22.2715 27.6605 22.2627 27.6384 22.2537 27.6157C22.1233 27.2871 21.9383 26.8293 21.7198 26.3115C21.2848 25.2808 20.7098 23.995 20.1651 23.0209C19.6215 22.049 18.9072 20.9914 18.3342 20.183C18.0467 19.7774 17.7927 19.4317 17.6104 19.1872C17.5778 19.1435 17.5475 19.103 17.5197 19.066L18.6809 17.0708C18.8219 17.2036 18.9938 17.3632 19.1956 17.546C19.8321 18.1227 20.7658 18.9313 21.9596 19.864C23.1836 20.8203 24.4839 21.5105 25.4733 21.9609C25.9691 22.1866 26.3899 22.3533 26.688 22.4641Z" fill="#F7C876" stroke="black"/>
<g id="Vector_4">
<path d="M22.3164 29.1525C22.3164 29.1525 24.5327 28.0912 27.0714 27.6487C28.3672 27.4229 29.2195 27.3504 29.7634 27.3042C30.285 27.2598 30.523 27.2396 30.5964 27.1312C30.7427 26.91 28.5264 22.5225 28.5264 22.5225C28.5264 22.5225 29.9064 22.9162 32.1227 24.42C34.3389 25.9237 36.4727 28.2112 36.4727 28.2112L42.9639 35.505C42.9639 35.505 43.8752 36.4425 43.9014 37.5262C43.9277 38.61 43.3877 39.8062 42.5289 41.2425C40.4439 44.7188 36.1952 46.1587 36.0452 46.0837C35.8989 46.0087 32.7639 42.8475 30.3977 40.2375L30.3045 40.1348C27.9533 37.5414 25.0166 34.3023 23.8952 32.4037C22.3914 29.8687 22.3164 29.1525 22.3164 29.1525Z" fill="#317C31"/>
<path d="M22.3164 29.1525C22.3164 29.1525 24.5327 28.0912 27.0714 27.6487C28.3672 27.4229 29.2195 27.3504 29.7634 27.3042C30.285 27.2598 30.523 27.2396 30.5964 27.1312C30.7427 26.91 28.5264 22.5225 28.5264 22.5225C28.5264 22.5225 29.9064 22.9162 32.1227 24.42C34.3389 25.9237 36.4727 28.2112 36.4727 28.2112L42.9639 35.505C42.9639 35.505 43.8752 36.4425 43.9014 37.5262C43.9277 38.61 43.3877 39.8062 42.5289 41.2425C40.4439 44.7188 36.1952 46.1587 36.0452 46.0837C35.8989 46.0087 32.7639 42.8475 30.3977 40.2375L30.3045 40.1348C27.9533 37.5414 25.0166 34.3023 23.8952 32.4037C22.3914 29.8687 22.3164 29.1525 22.3164 29.1525Z" stroke="black"/>
</g>
<path id="Vector_5" d="M29.19 34.65C29.0925 35.1675 35.7525 42.6112 36.285 42.6337C36.9263 42.6562 39.855 41.2687 41.4525 38.4075C42.705 36.165 42.435 34.9087 42.39 34.8525C42.3 34.7362 37.215 28.9687 36.9038 28.6162C36.36 28.0012 34.935 26.7 34.935 26.7C34.935 26.7 34.68 28.29 33.3825 30.2175C31.3313 33.2437 29.2538 34.32 29.19 34.65Z" fill="#F5B03E"/>
<path id="Vector_6" d="M34.0573 30.6787C32.5011 32.5462 31.7661 35.385 34.1548 37.9725C36.5436 40.56 39.5998 39.0375 40.5373 37.2337C41.5461 35.2875 41.1223 33.3937 41.1223 33.3937C41.1223 33.3937 39.7986 31.815 39.1348 31.0762C38.4711 30.3375 37.6198 29.4262 37.6198 29.4262C37.6198 29.4262 35.4111 29.055 34.0573 30.6787Z" fill="#FFEBCA"/>
<path id="Vector_7" d="M13.6427 14.0775C12.4465 15.1012 11.869 16.7625 12.754 17.6025C13.6427 18.4387 15.229 17.7375 16.129 16.9125C17.359 15.7875 17.779 14.67 16.894 13.7325C16.009 12.795 14.6777 13.1887 13.6427 14.0775ZM13.8677 18.7237C13.8677 18.7237 15.394 19.0275 16.774 17.6212C18.154 16.215 18.004 15.2287 18.004 15.2287C18.004 15.2287 19.0352 15.1575 18.9902 16.4137C18.9415 17.7675 17.044 20.1337 14.7527 20.0587C13.7252 20.0287 13.8677 18.7237 13.8677 18.7237Z" fill="#317C31"/>
</g>
</svg>
