<svg width="17" height="16" viewBox="0 0 17 16" fill="none" xmlns="http://www.w3.org/2000/svg">
<g id="fluent:share-ios-20-filled">
<path id="Vector" d="M13.1 7.39988C13.245 7.39989 13.3851 7.4524 13.4943 7.5477C13.6036 7.643 13.6747 7.77464 13.6944 7.91828L13.7 7.99988V12.1999C13.7 12.7601 13.4863 13.2992 13.1025 13.7073C12.7186 14.1154 12.1936 14.3617 11.6344 14.3959L11.5 14.3999H5.49999C4.93976 14.3999 4.40062 14.1862 3.99255 13.8024C3.58448 13.4185 3.33821 12.8935 3.30399 12.3343L3.29999 12.1999V7.99988C3.30003 7.84786 3.35778 7.70153 3.46157 7.59045C3.56535 7.47937 3.70743 7.41182 3.85909 7.40146C4.01076 7.3911 4.1607 7.4387 4.27863 7.53463C4.39655 7.63056 4.47367 7.76768 4.49439 7.91828L4.49999 7.99988V12.1999C4.49999 12.7175 4.89359 13.1439 5.39759 13.1951L5.49999 13.1999H11.5C11.7474 13.1998 11.986 13.108 12.1697 12.9422C12.3534 12.7764 12.4691 12.5484 12.4944 12.3023L12.5 12.1999V7.99988C12.5 7.84075 12.5632 7.68814 12.6757 7.57562C12.7882 7.4631 12.9409 7.39988 13.1 7.39988ZM4.68159 5.16948L8.07599 1.77588C8.17758 1.67427 8.31226 1.61249 8.45555 1.60177C8.59884 1.59105 8.74121 1.63211 8.85679 1.71748L8.92399 1.77588L12.3184 5.16948C12.4271 5.27624 12.4912 5.42036 12.4975 5.5726C12.5039 5.72485 12.452 5.8738 12.3526 5.98924C12.2531 6.10468 12.1135 6.17796 11.962 6.1942C11.8105 6.21044 11.6585 6.16842 11.5368 6.07668L11.4696 6.01828L9.09999 3.64788V9.79988C9.09998 9.94487 9.04747 10.085 8.95217 10.1942C8.85687 10.3035 8.72523 10.3746 8.58159 10.3943L8.49999 10.3999C8.355 10.3999 8.21491 10.3474 8.10564 10.2521C7.99637 10.1568 7.92531 10.0251 7.90559 9.88148L7.89999 9.79988V3.64788L5.53039 6.01828C5.42875 6.12011 5.29391 6.18202 5.15044 6.19274C5.00697 6.20346 4.86443 6.16227 4.74879 6.07668L4.68159 6.01828C4.57976 5.91665 4.51785 5.78181 4.50713 5.63834C4.49641 5.49487 4.5376 5.35232 4.62319 5.23668L4.68159 5.16948Z" fill="white"/>
</g>
</svg>
