<svg width="49" height="48" viewBox="0 0 49 48" fill="none" xmlns="http://www.w3.org/2000/svg">
<g id="noto:label">
<path id="Vector" d="M12.2946 11.8444L12.2946 11.8444L12.2958 11.8374C12.3663 11.4282 12.5229 11.1574 12.7217 10.9733C12.9235 10.7864 13.2048 10.6559 13.5773 10.5925L23.2438 9.12998C23.528 9.14318 23.8934 9.23771 24.2575 9.39743C24.6384 9.56449 24.9678 9.78091 25.1678 9.98799C25.168 9.98814 25.1681 9.9883 25.1683 9.98846L44.7053 30.3597C44.7092 30.3676 44.7135 30.3765 44.7181 30.3863C44.7433 30.4402 44.7766 30.5195 44.806 30.6153C44.8666 30.8131 44.9 31.0464 44.8486 31.2664L44.8479 31.2695C44.7609 31.6532 44.5429 32.0967 44.2917 32.4962C44.0399 32.8966 43.7876 33.2016 43.6707 33.3129L43.6707 33.3129L43.6634 33.3201L32.2338 44.6597C31.8909 44.9823 31.3317 44.9695 31.0078 44.6316L31.0077 44.6314L11.1753 23.9516C11.1751 23.9514 11.1749 23.9512 11.1747 23.9509C10.9757 23.7415 10.7726 23.4035 10.6215 23.0172C10.4765 22.6465 10.3976 22.2781 10.3975 21.9946L12.2946 11.8444ZM15.0385 15.9771L15.0385 15.9773C15.095 17.3198 16.2259 18.3683 17.572 18.3121C18.9167 18.2597 19.9643 17.123 19.9076 15.7814C19.8511 14.439 18.7203 13.3906 17.3744 13.4467C17.0549 13.4589 16.741 13.534 16.4507 13.6677C16.16 13.8015 15.8986 13.9914 15.6814 14.2265C15.4643 14.4616 15.2957 14.7373 15.1854 15.0377C15.0751 15.3381 15.0252 15.6574 15.0385 15.9771Z" fill="url(#paint0_linear_985_6042)" stroke="black"/>
<path id="Vector_2" d="M12.1737 11.0817C11.861 11.3761 11.6985 11.6953 11.4991 12.7209C11.499 12.7211 11.499 12.7214 11.4989 12.7217L12.1737 11.0817ZM12.1737 11.0817C12.1492 11.1763 12.1308 11.2607 12.1179 11.3256C12.1096 11.3673 12.1034 11.4016 12.0992 11.4261L12.0944 11.4555L12.094 11.4581L12.1737 11.0817Z" fill="#F19534" stroke="black"/>
<path id="Vector_3" d="M17.2031 13.5975L18.1631 13.8C18.7667 12.3793 18.9852 10.8246 18.7969 9.2925L17.6044 9.4725C17.8031 10.935 17.7019 12.36 17.2031 13.5975Z" fill="#F7C272"/>
<path id="Vector_4" d="M17.4767 13.9425C18.5117 13.9425 19.3667 14.76 19.4079 15.7988C19.4529 16.8675 18.6204 17.7675 17.5517 17.8088H17.4729C16.4379 17.8088 15.5829 16.9913 15.5417 15.9525C15.5311 15.6985 15.5707 15.4449 15.6584 15.2063C15.746 14.9677 15.8799 14.7487 16.0524 14.562C16.2248 14.3752 16.4325 14.2244 16.6634 14.1181C16.8943 14.0118 17.1439 13.9521 17.3979 13.9425C17.4242 13.9463 17.4504 13.9425 17.4767 13.9425ZM17.4767 12.8438C17.4354 12.8438 17.3942 12.8438 17.3529 12.8475C15.6804 12.915 14.3754 14.3288 14.4429 16.0013C14.4732 16.7841 14.8059 17.5248 15.3709 18.0675C15.936 18.6102 16.6895 18.9126 17.4729 18.9113C17.5142 18.9113 17.5554 18.9113 17.5967 18.9075C19.2692 18.84 20.5742 17.4263 20.5067 15.7538C20.4776 14.9705 20.1453 14.2291 19.58 13.6862C19.0147 13.1432 18.2605 12.8412 17.4767 12.8438Z" fill="#82AEC0"/>
<path id="Vector_5" d="M11.488 1.5C6.59805 1.5 2.62305 5.47875 2.62305 10.365C2.62305 14.6475 5.7318 18.2625 9.7743 19.0875L10.0555 17.6363C6.70305 16.9313 4.08555 13.9238 4.08555 10.365C4.08555 6.285 7.4043 2.9625 11.488 2.9625C15.5718 2.9625 18.8905 6.28125 18.8905 10.365C18.8905 12.9075 17.5968 15.15 15.6393 16.4813C15.6393 16.4813 15.673 16.7363 16.003 17.13C16.2618 17.4413 16.603 17.6025 16.603 17.6025C18.8718 15.9938 20.3605 13.35 20.3605 10.365C20.353 5.47875 16.3743 1.5 11.488 1.5Z" fill="url(#paint1_linear_985_6042)"/>
<path id="Vector_6" d="M32.4256 44.8433L44.915 32.3355C44.7714 32.6562 44.5061 32.9394 44.1649 33.3037C44.1047 33.368 44.0421 33.4348 43.9774 33.5048L31.7886 45.7085L32.0282 45.093C32.1712 45.041 32.3049 44.96 32.4191 44.8497L32.4191 44.8498L32.4256 44.8433Z" fill="#D1762C" stroke="black"/>
</g>
<defs>
<linearGradient id="paint0_linear_985_6042" x1="45.8505" y1="47.0216" x2="15.5157" y2="13.3685" gradientUnits="userSpaceOnUse">
<stop stop-color="#FFCC80"/>
<stop offset="1" stop-color="#FFDCA6"/>
</linearGradient>
<linearGradient id="paint1_linear_985_6042" x1="11.9617" y1="13.149" x2="14.2642" y2="26.6839" gradientUnits="userSpaceOnUse">
<stop stop-color="#82AEC0"/>
<stop offset="1" stop-color="#2F7889"/>
</linearGradient>
</defs>
</svg>
