<svg width="48" height="48" viewBox="0 0 48 48" fill="none" xmlns="http://www.w3.org/2000/svg">
<g id="noto:nut-and-bolt">
<path id="Vector" d="M38.7262 46.4963C38.7262 46.4963 40.7099 46.725 43.8712 43.5675C47.0324 40.41 46.2899 38.7675 46.2899 38.7675L39.3487 31.1925L31.2637 39.645L38.7262 46.4963Z" fill="#82AEC0"/>
<path id="Vector_2" d="M39.3778 45.9269C39.1686 45.9766 39.0143 45.9933 38.9158 45.9982L32.4544 40.0651L39.7245 32.3308L40.0689 32.7106C39.2261 34.9634 38.0349 37.0707 36.5383 38.9553L36.5382 38.9555C36.2857 39.2738 36.1607 39.6748 36.1877 40.0802C36.2146 40.4855 36.3914 40.8662 36.6836 41.1482C37.3813 41.824 38.5263 41.7556 39.1207 40.971C40.4681 39.2031 41.5445 37.2462 42.3162 35.1649L42.6242 35.5008C41.7968 37.6702 40.6437 39.7016 39.2041 41.5247C38.9518 41.843 38.827 42.2437 38.8539 42.649C38.8809 43.0542 39.0577 43.4349 39.3499 43.717C39.35 43.7171 39.3502 43.7173 39.3503 43.7174L39.4659 43.8293L39.4671 43.8304C40.1648 44.5013 41.3094 44.433 41.9036 43.648L41.9038 43.6478C43.1863 41.9513 44.2256 40.0778 44.9873 38.083L45.1884 38.3022C44.2639 41.1284 43.3272 42.7891 42.6333 43.7372C42.2755 44.2261 41.9822 44.5258 41.7879 44.6987C41.6907 44.7851 41.6176 44.8405 41.5726 44.8725C41.5502 44.8884 41.5338 44.8991 41.5234 44.9058L41.5067 44.9165L41.5064 44.9166C41.5044 44.9179 41.4951 44.9239 41.485 44.931L41.4846 44.9313C41.4844 44.9314 41.4842 44.9316 41.4839 44.9318C40.5326 45.5602 39.826 45.8202 39.3778 45.9269Z" fill="#2F7889" stroke="black"/>
<path id="Vector_3" d="M24.2123 41.3929L24.2109 41.3914L20.4957 37.6763L37.8148 20.3571L41.5294 24.0717C41.5296 24.0719 41.5298 24.072 41.5299 24.0722C41.7056 24.2487 41.8372 24.4642 41.9139 24.7011C41.9906 24.9382 42.0102 25.19 41.9711 25.4361C41.9711 25.4362 41.9711 25.4363 41.971 25.4364L41.079 30.946C41.079 30.9461 41.079 30.9463 41.0789 30.9464C41.0246 31.2745 40.871 31.573 40.6375 31.8064L31.9413 40.5027C31.7089 40.7351 31.4073 40.8894 31.078 40.944C31.0777 40.9441 31.0774 40.9441 31.0771 40.9442L25.5708 41.8325C25.5707 41.8326 25.5705 41.8326 25.5704 41.8326C25.0712 41.9123 24.566 41.7494 24.2123 41.3929Z" fill="#82AEC0" stroke="black"/>
<path id="Vector_4" d="M30.8421 21.0812L30.8427 21.0811L36.973 19.825C36.9731 19.825 36.9732 19.825 36.9733 19.8249C37.3617 19.7463 37.7072 20.0897 37.6285 20.4806C37.6285 20.4807 37.6285 20.4809 37.6284 20.481L36.4587 26.1945C36.3814 26.5717 36.1952 26.9179 35.9233 27.1906C35.9233 27.1906 35.9233 27.1906 35.9233 27.1907L27.3251 35.7851L27.325 35.7852C27.0537 36.0565 26.7069 36.2423 26.3288 36.3203C26.3288 36.3203 26.3288 36.3203 26.3288 36.3203L20.6153 37.49C20.2268 37.5689 19.8812 37.2255 19.9598 36.8345C19.9598 36.8343 19.9599 36.8342 19.9599 36.834L21.2159 30.7041L21.216 30.7036C21.2369 30.6009 21.2888 30.5044 21.3683 30.4248L30.5607 21.2324C30.6419 21.1541 30.7397 21.102 30.8421 21.0812Z" fill="#B9E4EA" stroke="black"/>
<path id="Vector_5" d="M23.4336 32.265C23.4336 32.265 25.8823 33.735 29.9623 29.6587C34.0423 25.5825 32.1936 23.58 32.1936 23.58L24.2998 15.1875L14.9023 24.8475L23.4336 32.265Z" fill="#82AEC0"/>
<path id="Vector_6" d="M30.8032 22.8342L31.1646 23.2182C30.2509 25.6793 28.9776 27.9855 27.4032 30.074L27.4012 30.0767C27.1918 30.3583 27.167 30.6653 27.2291 30.9154C27.2512 31.0045 27.2843 31.0877 27.3244 31.1628C27.2691 31.1967 27.2103 31.2317 27.1485 31.2673C26.6921 31.53 26.0921 31.8113 25.4725 31.9316C24.788 32.064 24.3233 32.0235 24.0472 31.9635C23.9084 31.9333 23.8143 31.8975 23.7614 31.8738C23.7469 31.8673 23.7354 31.8617 23.7268 31.8573L15.9397 25.0893L24.6356 16.2656L25.1066 16.769C24.1696 19.3491 22.8457 21.7723 21.18 23.9555L21.1797 23.9558C20.9076 24.3131 20.7762 24.7579 20.8104 25.2057C20.8446 25.6535 21.0421 26.0731 21.3653 26.3849L21.366 26.3855C22.1592 27.148 23.4636 27.0594 24.1198 26.1535L30.8032 22.8342ZM30.8032 22.8342C29.9701 25.1344 28.8207 27.309 27.387 29.2947L30.8032 22.8342ZM24.5077 29.411C24.5075 29.4108 24.5073 29.4106 24.5071 29.4104C24.1848 29.099 23.9875 28.6804 23.9524 28.2336C23.9173 27.7865 24.047 27.342 24.317 26.9839L24.3174 26.9834C25.9266 24.8553 27.2117 22.5013 28.1316 19.998L27.6289 19.4646C26.7878 21.85 25.6063 24.103 24.1199 26.1533L24.5077 29.411ZM24.5077 29.411L24.6306 29.5302L24.6322 29.5317C25.4257 30.2945 26.7306 30.2056 27.3866 29.2952L24.5077 29.411ZM27.7451 30.8851C27.6845 30.7465 27.666 30.5585 27.8025 30.375C29.4675 28.1663 30.8025 25.7175 31.74 23.1L27.7451 30.8851Z" fill="#2F7889" stroke="black"/>
<g id="Vector_7">
<mask id="path-7-inside-1_985_6168" fill="white">
<path d="M22.1064 1.86375L26.2989 6.05625C26.6169 6.37381 26.8564 6.76121 26.9983 7.18763C27.1403 7.61405 27.1807 8.06771 27.1164 8.5125L26.2802 14.3287C26.1902 14.9475 25.9052 15.5212 25.4627 15.9637L16.0914 25.3313C15.6511 25.772 15.0803 26.0587 14.4639 26.1488L8.62516 27.0037C8.17918 27.0692 7.72406 27.0294 7.29624 26.8875C6.86841 26.7455 6.47977 26.5054 6.16141 26.1863L1.97266 21.9975L22.1064 1.86375Z"/>
</mask>
<path d="M22.1064 1.86375L26.2989 6.05625C26.6169 6.37381 26.8564 6.76121 26.9983 7.18763C27.1403 7.61405 27.1807 8.06771 27.1164 8.5125L26.2802 14.3287C26.1902 14.9475 25.9052 15.5212 25.4627 15.9637L16.0914 25.3313C15.6511 25.772 15.0803 26.0587 14.4639 26.1488L8.62516 27.0037C8.17918 27.0692 7.72406 27.0294 7.29624 26.8875C6.86841 26.7455 6.47977 26.5054 6.16141 26.1863L1.97266 21.9975L22.1064 1.86375Z" fill="#82AEC0"/>
<path d="M22.1064 1.86375L22.8135 1.15664L22.1064 0.449537L21.3993 1.15664L22.1064 1.86375ZM26.2989 6.05625L25.5918 6.76336L25.5923 6.76386L26.2989 6.05625ZM27.1164 8.5125L26.1267 8.36946L26.1266 8.37019L27.1164 8.5125ZM26.2802 14.3287L27.2697 14.4727L27.27 14.4711L26.2802 14.3287ZM25.4627 15.9637L26.1696 16.671L26.1698 16.6709L25.4627 15.9637ZM16.0914 25.3313L15.3844 24.624L15.3839 24.6245L16.0914 25.3313ZM14.4639 26.1488L14.3193 25.1593L14.319 25.1593L14.4639 26.1488ZM8.62516 27.0037L8.48027 26.0143L8.47985 26.0144L8.62516 27.0037ZM6.16141 26.1863L6.86935 25.48L6.86851 25.4791L6.16141 26.1863ZM1.97266 21.9975L1.26555 21.2904L0.558443 21.9975L1.26555 22.7046L1.97266 21.9975ZM21.3993 2.57086L25.5918 6.76336L27.006 5.34914L22.8135 1.15664L21.3993 2.57086ZM25.5923 6.76386C25.8002 6.97145 25.9567 7.22468 26.0495 7.50342L27.9472 6.87184C27.7561 6.29774 27.4336 5.77617 27.0055 5.34864L25.5923 6.76386ZM26.0495 7.50342C26.1423 7.78216 26.1687 8.07871 26.1267 8.36946L28.1061 8.65554C28.1927 8.05671 28.1382 7.44593 27.9472 6.87184L26.0495 7.50342ZM26.1266 8.37019L25.2903 14.1864L27.27 14.4711L28.1062 8.65482L26.1266 8.37019ZM25.2906 14.1848C25.2312 14.593 25.0437 14.9685 24.7555 15.2566L26.1698 16.6709C26.7666 16.074 27.1491 15.302 27.2697 14.4727L25.2906 14.1848ZM24.7557 15.2565L15.3844 24.624L16.7984 26.0385L26.1696 16.671L24.7557 15.2565ZM15.3839 24.6245C15.096 24.9128 14.7226 25.1003 14.3193 25.1593L14.6085 27.1382C15.4381 27.017 16.2063 26.6311 16.7989 26.038L15.3839 24.6245ZM14.319 25.1593L8.48027 26.0143L8.77005 27.9932L14.6088 27.1382L14.319 25.1593ZM8.47985 26.0144C8.18833 26.0572 7.89083 26.0311 7.61116 25.9384L6.98131 27.8366C7.5573 28.0277 8.17003 28.0813 8.77046 27.9931L8.47985 26.0144ZM7.61116 25.9384C7.3315 25.8456 7.07745 25.6886 6.86935 25.48L5.45346 26.8925C5.88208 27.3221 6.40532 27.6455 6.98131 27.8366L7.61116 25.9384ZM6.86851 25.4791L2.67976 21.2904L1.26555 22.7046L5.4543 26.8934L6.86851 25.4791ZM2.67976 22.7046L22.8135 2.57086L21.3993 1.15664L1.26555 21.2904L2.67976 22.7046Z" fill="black" mask="url(#path-7-inside-1_985_6168)"/>
</g>
<path id="Vector_8" d="M21.2126 2.01234L21.2126 2.01234C21.6486 1.92305 22.0317 2.30616 21.9424 2.7422L21.9424 2.74235L20.6299 9.16235L20.6296 9.16379C20.5407 9.60557 20.3228 10.0086 20.0012 10.3302L10.465 19.8664L10.4641 19.8673C10.1459 20.1871 9.74021 20.4055 9.2981 20.4949L9.29686 20.4952L2.87698 21.8114C2.44094 21.9007 2.05783 21.5176 2.14712 21.0816L2.14712 21.0815L3.41827 14.872C3.41829 14.8719 3.4183 14.8719 3.41831 14.8718C3.53746 14.2928 3.82383 13.7615 4.24196 13.3437L4.24208 13.3436L13.4783 4.10731L13.4794 4.10624C13.8951 3.68807 14.4249 3.4019 15.0026 3.28359C15.0026 3.28359 15.0026 3.28359 15.0026 3.28358L21.2126 2.01234ZM1.65732 20.9813L1.65734 20.9813L1.65732 20.9813Z" fill="#B9E4EA" stroke="black"/>
<path id="Vector_9" d="M30.7039 41.0007L25.5715 41.8287C25.5713 41.8288 25.5711 41.8288 25.5708 41.8288C25.3256 41.8678 25.0746 41.8482 24.8383 41.7716C24.6019 41.6949 24.387 41.5634 24.2112 41.3877C24.2112 41.3877 24.2111 41.3876 24.2111 41.3876L22.2055 39.382C22.446 39.1472 22.8263 38.9067 23.4365 38.7259L30.7039 41.0007ZM30.7039 41.0007L27.8809 38.2159C27.8062 38.2171 27.7126 38.2189 27.6034 38.2219C27.3008 38.2301 26.8788 38.2464 26.4015 38.2791C25.4367 38.3453 24.2851 38.4759 23.4365 38.7259L30.7039 41.0007ZM13.4068 25.7981L8.54972 26.5089C8.54964 26.5089 8.54956 26.5089 8.54948 26.509C8.18053 26.5624 7.8042 26.529 7.45037 26.4116C7.09653 26.2942 6.77493 26.096 6.51108 25.8326C6.51104 25.8325 6.51099 25.8325 6.51094 25.8324L4.71453 24.036C4.78555 23.9622 4.87063 23.879 4.96988 23.7905C5.33714 23.4628 5.89361 23.066 6.64633 22.794C7.38576 22.5268 8.29515 22.4659 9.04891 22.4801C9.42021 22.487 9.74242 22.5119 9.97112 22.5349C10.0484 22.5427 10.1147 22.5502 10.1684 22.5568L13.4068 25.7981ZM4.44528 24.3497C4.44512 24.35 4.44513 24.35 4.44534 24.3497L4.44528 24.3497Z" fill="#2F7889" stroke="black"/>
<path id="Vector_10" d="M25.7947 14.1871L22.8898 10.9122C22.8753 10.8247 22.8552 10.6972 22.8325 10.5375C22.7867 10.2141 22.7309 9.76028 22.6911 9.24029C22.6106 8.18832 22.5999 6.91293 22.8436 5.89958L25.7947 14.1871ZM25.7947 14.1871L26.6214 8.43759L26.6215 8.43691C26.6748 8.06923 26.6415 7.69416 26.5242 7.34164C26.4069 6.98911 26.2088 6.66889 25.9457 6.40654L25.9452 6.40605L23.8429 4.30377C23.7812 4.34421 23.7114 4.39585 23.6376 4.46095C23.3694 4.69773 23.0291 5.1296 22.8437 5.89944L25.7947 14.1871ZM38.6201 23.7484L38.6203 23.7476C38.8447 22.9152 39.1547 22.3903 39.4404 21.9857L41.5302 24.0723C41.5303 24.0724 41.5304 24.0725 41.5305 24.0725C41.5305 24.0725 41.5305 24.0726 41.5305 24.0726C41.8888 24.431 42.0511 24.9373 41.9713 25.436L41.1301 30.6317L38.491 27.9927C38.4852 27.9098 38.4781 27.801 38.4706 27.6717C38.4524 27.3589 38.4322 26.9274 38.4242 26.452C38.4077 25.4798 38.4441 24.397 38.6201 23.7484Z" fill="#94D1E0" stroke="black"/>
</g>
</svg>
