<svg width="49" height="49" viewBox="0 0 49 49" fill="none" xmlns="http://www.w3.org/2000/svg">
<g id="egg">
<g id="Group">
<path id="Vector" d="M15.5889 8.55109L15.5899 8.54969C17.7019 5.44038 21.2372 3.56262 25.0065 3.5625C26.8472 3.56526 28.6599 4.01366 30.2896 4.86938C31.9192 5.72506 33.3174 6.96258 34.3648 8.47618C38.7711 14.8612 40.7896 22.5934 40.0666 30.3174C40.0666 30.3177 40.0666 30.3179 40.0666 30.3181L39.9289 31.7406L39.9287 31.7431C39.2173 39.4938 32.7267 45.4069 24.9457 45.4069C17.1943 45.4069 10.7034 39.523 9.96244 31.8022L9.96224 31.8002L9.83992 30.5771C9.83989 30.5768 9.83986 30.5765 9.83983 30.5762C9.10118 22.9058 11.0644 15.2182 15.3904 8.84123C15.3906 8.84095 15.3908 8.84067 15.391 8.8404L15.5889 8.55109Z" fill="#A6704C" stroke="black"/>
<path id="Vector_2" d="M15.5889 8.55109L15.5899 8.54969C17.7019 5.44038 21.2372 3.56262 25.0065 3.5625C26.8472 3.56526 28.6599 4.01366 30.2896 4.86938C31.9192 5.72506 33.3174 6.96258 34.3648 8.47618C38.7711 14.8612 40.7896 22.5934 40.0666 30.3174C40.0666 30.3177 40.0666 30.3179 40.0666 30.3181L39.9289 31.7406L39.9287 31.7431C39.2173 39.4938 32.7267 45.4069 24.9457 45.4069C17.1943 45.4069 10.7034 39.523 9.96244 31.8022L9.96224 31.8002L9.83992 30.5771C9.83989 30.5768 9.83986 30.5765 9.83983 30.5762C9.10118 22.9058 11.0644 15.2182 15.3904 8.84123C15.3906 8.84095 15.3908 8.84067 15.391 8.8404L15.5889 8.55109Z" fill="url(#paint0_radial_985_5787)" stroke="black"/>
<path id="Vector_3" d="M15.5889 8.55109L15.5899 8.54969C17.7019 5.44038 21.2372 3.56262 25.0065 3.5625C26.8472 3.56526 28.6599 4.01366 30.2896 4.86938C31.9192 5.72506 33.3174 6.96258 34.3648 8.47618C38.7711 14.8612 40.7896 22.5934 40.0666 30.3174C40.0666 30.3177 40.0666 30.3179 40.0666 30.3181L39.9289 31.7406L39.9287 31.7431C39.2173 39.4938 32.7267 45.4069 24.9457 45.4069C17.1943 45.4069 10.7034 39.523 9.96244 31.8022L9.96224 31.8002L9.83992 30.5771C9.83989 30.5768 9.83986 30.5765 9.83983 30.5762C9.10118 22.9058 11.0644 15.2182 15.3904 8.84123C15.3906 8.84095 15.3908 8.84067 15.391 8.8404L15.5889 8.55109Z" fill="url(#paint1_radial_985_5787)" stroke="black"/>
</g>
</g>
<defs>
<radialGradient id="paint0_radial_985_5787" cx="0" cy="0" r="1" gradientUnits="userSpaceOnUse" gradientTransform="translate(34.8351 15.8858) rotate(89.708) scale(37.5161 24.9499)">
<stop offset="0.092" stop-color="#FFCA7F"/>
<stop offset="0.562" stop-color="#E5945B"/>
<stop offset="0.838" stop-color="#B87241"/>
<stop offset="1" stop-color="#9A6240"/>
</radialGradient>
<radialGradient id="paint1_radial_985_5787" cx="0" cy="0" r="1" gradientUnits="userSpaceOnUse" gradientTransform="translate(24.9496 17.2259) rotate(97.431) scale(34.5519 42.0928)">
<stop offset="0.553" stop-color="#974668" stop-opacity="0"/>
<stop offset="0.904" stop-color="#984663"/>
</radialGradient>
</defs>
</svg>
