<svg width="42" height="53" viewBox="0 0 42 53" fill="none" xmlns="http://www.w3.org/2000/svg">
<path d="M1.52051 5.06665L4.24761 51.9981C4.27834 52.527 4.71618 52.9401 5.24593 52.9401H35.7357C36.2674 52.9401 36.7061 52.5241 36.7343 51.9932L39.2125 5.32034L1.52051 5.06665Z" fill="#383838"/>
<path d="M40.0459 0H1C0.447715 0 0 0.447716 0 1V4.4451C0 4.99739 0.447716 5.4451 1 5.4451H40.0459C40.5982 5.4451 41.0459 4.99739 41.0459 4.4451V1C41.0459 0.447715 40.5982 0 40.0459 0Z" fill="#434242"/>
<path d="M19.9375 21.0437C19.4719 21.175 19.1344 21.5188 19.0031 21.9969C18.9688 22.125 18.9344 22.2312 18.9281 22.2375C18.9219 22.2437 18.3688 22.1219 17.6969 21.9688C17.0219 21.8125 16.4062 21.6875 16.3219 21.6875C15.8438 21.6906 15.3719 21.9781 15.1625 22.3938C15.0687 22.5813 14.8125 23.5875 14.8125 23.775C14.8125 23.9312 14.925 24.0312 15.1719 24.0906C15.2938 24.1219 17.1625 24.55 19.3313 25.05L23.2719 25.9531L19.2531 25.9688C16.0688 25.9812 15.2188 25.9937 15.1656 26.025C15.125 26.0469 15.0719 26.1062 15.0469 26.1562C15.0031 26.2437 15.0312 26.5906 15.4531 31.025C15.7 33.65 15.9188 35.8781 15.9344 35.975C16.0031 36.375 16.3094 36.7625 16.6781 36.9125L16.8594 36.9844H20.7344H24.6094L24.7969 36.9094C25.0594 36.8031 25.3688 36.4906 25.4688 36.2344C25.5312 36.0687 25.5906 35.5 25.9875 31.375C26.2344 28.8062 26.4344 26.7 26.4375 26.6937C26.4375 26.6906 26.4906 26.6969 26.5563 26.7063C26.6906 26.7281 26.8531 26.6625 26.9031 26.5687C26.9625 26.4531 27.1875 25.3719 27.1875 25.1937C27.1875 24.9406 27.0906 24.6438 26.9406 24.4344C26.6687 24.0531 26.5375 24 25.1094 23.6719C24.4563 23.525 23.9062 23.3969 23.8875 23.3906C23.8594 23.3812 23.8625 23.3313 23.8938 23.1969C24.0469 22.5437 23.7469 21.9219 23.15 21.6594C23.0781 21.625 22.4313 21.4625 21.7156 21.3C20.375 20.9906 20.2156 20.9688 19.9375 21.0437ZM21.5094 21.8938C22.15 22.0406 22.7313 22.175 22.8031 22.1937C22.9812 22.2375 23.2 22.4344 23.2688 22.6094C23.3063 22.7125 23.3156 22.8 23.3031 22.9312C23.2656 23.2844 23.4812 23.2969 21.4062 22.8219C20.4 22.5906 19.5719 22.3969 19.5656 22.3875C19.5312 22.3531 19.6406 22.0219 19.7219 21.9062C19.8281 21.7594 20.0781 21.625 20.2438 21.625C20.3 21.625 20.8688 21.7437 21.5094 21.8938ZM21.2313 23.4219C23.8844 24.0312 26.0969 24.5469 26.1469 24.5656C26.3656 24.6469 26.5594 24.9375 26.5625 25.1812C26.5625 25.2875 26.4219 25.9937 26.3969 26.0219C26.3906 26.0281 25.7375 25.8781 21.0156 24.7937C16.1531 23.6781 15.5188 23.5312 15.5063 23.5188C15.4906 23.5 15.6094 22.9781 15.675 22.7781C15.7563 22.525 16.0375 22.3187 16.3031 22.3125C16.3594 22.3125 18.575 22.8125 21.2313 23.4219ZM25.8 26.7562C25.7906 26.8469 25.5906 28.925 25.3594 31.375C25.1281 33.825 24.925 35.8813 24.9062 35.9438C24.8625 36.1 24.7344 36.2469 24.5781 36.3156C24.4594 36.3719 24.275 36.375 20.7344 36.375C17.1938 36.375 17.0094 36.3719 16.8906 36.3156C16.7344 36.2469 16.6063 36.0969 16.5656 35.9438C16.5281 35.8031 15.6562 26.65 15.6781 26.6156C15.6844 26.6031 17.9688 26.5938 20.7562 26.5938H25.8188L25.8 26.7562Z" fill="white"/>
<path d="M20.6656 27.2751C20.6281 27.2813 20.5625 27.3219 20.5187 27.3657L20.4375 27.4469V31.4876V35.5282L20.5094 35.6094C20.6 35.7157 20.7812 35.7469 20.8937 35.6719C21.0687 35.5563 21.0625 35.7407 21.0625 31.5094C21.0625 28.9751 21.05 27.5688 21.0312 27.4969C21.0125 27.4344 20.9781 27.3657 20.9562 27.3469C20.8969 27.2969 20.75 27.2594 20.6656 27.2751Z" fill="white"/>
<path d="M17.8 27.3781C17.7438 27.4437 17.7188 27.5094 17.7188 27.5875C17.7188 28.05 18.1031 35.4688 18.1313 35.5406C18.1688 35.6344 18.3 35.7188 18.4063 35.7188C18.5156 35.7188 18.6438 35.6344 18.6844 35.5375C18.7156 35.4656 18.6844 34.6844 18.5313 31.5125C18.4281 29.35 18.3344 27.5437 18.325 27.5062C18.2969 27.3719 18.175 27.2812 18.0188 27.2812C17.9031 27.2812 17.8688 27.2969 17.8 27.3781Z" fill="white"/>
<path d="M23.2344 27.3562C23.1937 27.3968 23.1531 27.4781 23.1437 27.5343C23.1344 27.5937 23.05 29.2781 22.9531 31.2812C22.8594 33.2843 22.7719 35.0499 22.7625 35.2093L22.7406 35.4968L22.8531 35.6093C23.0125 35.7687 23.2344 35.7437 23.3312 35.5562C23.3656 35.4906 23.4187 34.6281 23.5625 31.6499C23.6656 29.5468 23.75 27.7468 23.75 27.6499C23.75 27.5062 23.7344 27.4562 23.6687 27.3781C23.6 27.2968 23.5656 27.2812 23.45 27.2812C23.3437 27.2812 23.2906 27.2999 23.2344 27.3562Z" fill="white"/>
</svg>
