<svg width="42" height="53" viewBox="0 0 42 53" fill="none" xmlns="http://www.w3.org/2000/svg">
<path d="M1.51782 5.06665L4.24492 51.9981C4.27566 52.5269 4.71349 52.9401 5.24324 52.9401H35.7331C36.2647 52.9401 36.7034 52.524 36.7316 51.9931L39.2124 5.32034L1.51782 5.06665Z" fill="#0E6A3E"/>
<path d="M40.0458 0H1C0.447715 0 0 0.447717 0 1V4.44509C0 4.99738 0.447717 5.44509 1 5.44509H40.0458C40.5981 5.44509 41.0458 4.99737 41.0458 4.44509V1C41.0458 0.447715 40.5981 0 40.0458 0Z" fill="#377959"/>
<g clip-path="url(#clip0_603_5089)">
<path d="M26.875 21.0344C21.9969 21.2375 18.45 22.1531 16.0813 23.8219C15.4844 24.2437 14.7782 24.9031 14.3844 25.4062C13.1657 26.9687 12.7219 28.9687 13.1875 30.8125C13.3594 31.5031 13.7282 32.2281 14.1782 32.7656L14.3344 32.95L14.0594 33.4812C13.4657 34.6344 13.0688 35.7625 13.0094 36.4531C12.9875 36.7281 13.0438 36.875 13.2032 36.95C13.3313 37.0125 13.3782 37.0125 13.5157 36.9562C13.65 36.9 13.7063 36.7875 13.7344 36.5156C13.7719 36.1156 13.9438 35.5281 14.2157 34.85C14.3782 34.4469 14.8219 33.5156 14.8688 33.4875C14.8875 33.4781 14.9407 33.5031 14.9907 33.5437C15.1375 33.6656 15.6032 33.9562 15.8657 34.0875C16.7844 34.55 17.975 34.8125 19.1469 34.8125C20.7563 34.8094 21.975 34.3406 22.9875 33.3281C24.0344 32.2844 24.7063 30.8437 25.2344 28.5156C25.6063 26.8812 25.8875 26.0344 26.4188 24.975C26.975 23.8594 27.7094 22.8437 28.7032 21.8125C29.0188 21.4875 29.05 21.4094 28.95 21.2031C28.8625 21.0187 28.775 21 28.0719 21.0062C27.7313 21.0062 27.1938 21.0219 26.875 21.0344ZM27.6438 21.8812C26.375 23.3625 25.5563 24.7969 25.0032 26.5031C24.8719 26.9156 24.7688 27.3094 24.5 28.4281C23.875 31.0562 23.0782 32.5187 21.8063 33.3656C20.9594 33.9281 19.8969 34.1625 18.6407 34.0656C17.3032 33.9594 16.3125 33.6125 15.4313 32.9406C15.3313 32.8656 15.25 32.8 15.25 32.7937C15.25 32.7312 16.0157 31.5625 16.4157 31.0156C18.1688 28.625 20.2063 26.8062 22.5 25.5781C22.7844 25.425 23.0407 25.2812 23.0719 25.2562C23.1625 25.1781 23.1969 24.9906 23.1438 24.8625C23.0469 24.6281 22.8188 24.5875 22.4969 24.75C20.4188 25.8 18.4407 27.425 16.7032 29.5156C16.0469 30.3031 15.2813 31.3625 14.8625 32.0562L14.7438 32.2531L14.6563 32.1719C14.5407 32.0625 14.2094 31.5 14.0938 31.2187C13.4782 29.7281 13.6657 27.8844 14.5782 26.4094C14.9313 25.8375 15.5688 25.1344 16.1407 24.6844C17.7532 23.4187 20.0375 22.5656 23.0469 22.1094C24.3657 21.9094 26.0844 21.7656 27.2625 21.7531L27.7594 21.75L27.6438 21.8812Z" fill="white"/>
</g>
<defs>
<clipPath id="clip0_603_5089">
<rect width="16" height="16" fill="white" transform="translate(13 21)"/>
</clipPath>
</defs>
</svg>
