<svg width="42" height="42" viewBox="0 0 42 42" fill="none" xmlns="http://www.w3.org/2000/svg">
<g id="vegetable">
<path id="Vector" d="M26.25 41.5C15.1392 41.5 8.94126 37.262 5.48357 31.3416C2.07743 25.5095 1.28639 17.9725 1.25125 11H15.3889C15.4067 11.0537 15.4245 11.1078 15.4425 11.1623C16.1503 13.3099 17.0413 16.0133 18.9049 18.0332C20.9634 20.2644 24.1438 21.6079 29.3322 20.7432C33.6747 20.0194 36.6971 21.3667 38.6429 23.3526C40.6108 25.3612 41.5 28.0468 41.5 30C41.5 31.4656 41.3139 34.3253 39.3568 36.8161C37.4167 39.2854 33.6475 41.5 26.25 41.5Z" fill="#8C42B3" stroke="black"/>
<path id="Vector_2" d="M6.15194 3.88285L6.5 3.77184V3.4065V2.25C6.5 1.78587 6.68437 1.34075 7.01256 1.01256C7.34075 0.684375 7.78587 0.5 8.25 0.5C8.71413 0.5 9.15925 0.684375 9.48744 1.01256C9.81563 1.34075 10 1.78587 10 2.25V3.204V3.60478L10.3912 3.69201C12.1951 4.09431 13.8081 5.09941 14.964 6.54155C16.12 7.9837 16.75 9.77675 16.75 11.625C16.75 11.9084 16.618 12.0583 16.5392 12.1004C16.5037 12.1195 16.4788 12.1195 16.4592 12.1146C16.4388 12.1095 16.3819 12.0881 16.3079 11.9915L16.0726 11.6709C16.0722 11.6704 16.0719 11.67 16.0716 11.6695C16.062 11.6563 16.0524 11.643 16.0427 11.6296C15.5295 10.9195 14.8648 10 13.5 10C12.1235 10 11.4226 10.9357 10.8839 11.6548C10.8725 11.67 10.8612 11.685 10.85 11.7C10.2684 12.4755 9.84454 13 9 13C8.15546 13 7.73163 12.4755 7.15 11.7C7.13878 11.685 7.1275 11.67 7.11615 11.6548C6.57738 10.9357 5.87645 10 4.5 10C3.12355 10 2.42262 10.9357 1.88385 11.6548C1.8725 11.67 1.86122 11.685 1.85 11.7C1.57281 12.0696 1.33713 12.3798 1.05858 12.6117L1.05805 12.6122C0.981419 12.6762 0.931339 12.6816 0.906729 12.681C0.87632 12.6802 0.826459 12.6678 0.762895 12.617C0.627136 12.5085 0.5 12.2762 0.5 12V11.625C0.5 8.00124 2.87335 4.92861 6.15194 3.88285Z" fill="#00D26A" stroke="black"/>
<path id="Vector_3" d="M37 25.5C37 26.163 36.7366 26.7989 36.2678 27.2678C35.7989 27.7366 35.163 28 34.5 28C33.837 28 33.2011 27.7366 32.7322 27.2678C32.2634 26.7989 32 26.163 32 25.5C32 24.837 32.2634 24.2011 32.7322 23.7322C33.2011 23.2634 33.837 23 34.5 23C35.163 23 35.7989 23.2634 36.2678 23.7322C36.7366 24.2011 37 24.837 37 25.5Z" fill="#BCA4EB" stroke="black"/>
</g>
</svg>
