<svg width="32" height="32" viewBox="0 0 32 32" fill="none" xmlns="http://www.w3.org/2000/svg">
<g id="hot 1">
<g id="Group">
<path id="Vector" d="M12.7937 1.25C12.5812 1.41875 12.5812 1.54375 12.775 2.3125C13.1062 3.625 13.15 5.4375 12.8812 6.45C12.5875 7.56875 12.2375 8.2 11.5062 8.9C9.73122 10.6125 9.48747 10.9062 8.94997 11.975C8.44372 12.9812 8.01872 14.4937 7.89997 15.75L7.84997 16.2188L7.69997 15.75C7.57497 15.3687 7.53747 15.1125 7.51247 14.4062C7.49997 13.925 7.46247 13.4812 7.42497 13.4187C7.33122 13.2375 7.08747 13.175 6.84372 13.275C6.56247 13.3937 5.58122 14.3438 5.16247 14.9062C2.98122 17.8 2.12497 21.7375 3.03747 24.6375C4.31247 28.6812 8.81247 30.875 15.8125 30.875C21.6625 30.875 25.7812 29.425 27.825 26.6437C29.8062 23.9437 29.8375 19.8375 27.9062 15.9062C27.3625 14.7937 27.025 14.2687 26.2312 13.325C24.9 11.7437 24.3437 10.5938 24.2687 9.29375C24.2375 8.73125 24.2187 8.66875 24.0812 8.58125C23.7375 8.35625 22.7062 8.7125 22.075 9.28125C21.9 9.4375 21.6437 9.7375 21.5062 9.94375L21.2562 10.3188L21.1875 10.05C21.0187 9.35625 20.5937 8.16875 20.2875 7.5375C19.0312 4.95625 16.875 2.85625 14.1 1.525C13.2312 1.10625 13.0312 1.0625 12.7937 1.25ZM14.8312 2.9625C17.9562 4.80625 20.1187 8.09375 20.5 11.5625C20.5375 11.925 20.5812 12.3375 20.6 12.4875C20.6375 12.8 20.8187 13 21.0687 13C21.375 13 21.4937 12.8312 21.6187 12.2188C21.8062 11.325 22.1125 10.6687 22.6 10.125C22.8125 9.89375 23.2375 9.58125 23.275 9.63125C23.2812 9.64375 23.3625 9.95625 23.45 10.3188C23.7312 11.4875 24.4 12.6687 25.4625 13.9062C26.1687 14.7188 26.6187 15.4062 27.0687 16.3375C28.3562 19.025 28.7187 21.9437 28.025 24.125C27.3062 26.4125 25.4875 28.0625 22.65 28.9937C22.0062 29.2062 21.025 29.4375 20.1625 29.5938L19.9187 29.6313L20.3062 29.275C21.6187 28.0625 22.1625 26.025 21.6937 24.0938C21.4812 23.2188 21.0062 22.2312 20.5437 21.7063C20.1875 21.3062 19.7875 21.475 19.6375 22.0938C19.5062 22.625 19.1937 23.175 18.8062 23.575C18.6 23.7812 18.425 23.9437 18.4062 23.9313C18.3937 23.9125 18.4125 23.775 18.45 23.625C18.4937 23.4688 18.525 22.8875 18.525 22.3125C18.5187 21.4062 18.5 21.2063 18.3562 20.675C18.1687 19.9688 17.8187 19.1812 17.4375 18.625C16.8125 17.7 15.4437 16.5 15.025 16.5C14.775 16.5 14.5625 16.6812 14.5625 16.8875C14.5625 16.9688 14.6062 17.1687 14.6562 17.3375C15.0437 18.625 14.1875 20.0938 12.4687 21.1C11.6875 21.5562 11.3687 21.7688 11.0125 22.0938C10.3187 22.7188 9.75622 23.6312 9.46247 24.5938C9.31247 25.0875 9.28747 25.2625 9.28747 26C9.28747 26.75 9.30622 26.9 9.45622 27.3438C9.66872 27.975 9.99372 28.5312 10.4562 29.0375C10.6562 29.2563 10.8 29.4375 10.7687 29.4375C10.6125 29.4375 9.24372 29.0375 8.71247 28.8438C6.04997 27.8438 4.44372 26.2438 3.83122 23.9688C3.68122 23.3937 3.66247 23.2438 3.66247 22.125C3.65622 21.075 3.67497 20.8125 3.80622 20.225C4.18747 18.425 5.09997 16.4937 6.18747 15.1625C6.34372 14.975 6.48747 14.8188 6.50622 14.8125C6.52497 14.8125 6.56247 15 6.58747 15.2312C6.68122 16.1125 7.09997 17.025 7.66872 17.5687C8.15622 18.0437 8.39372 18.1125 8.65622 17.8438C8.80622 17.7 8.81247 17.6562 8.81247 16.9875C8.81247 14.9875 9.35622 12.9875 10.2625 11.625C10.625 11.0812 11.05 10.6187 11.6562 10.0938C12.95 8.975 13.55 7.98125 13.8812 6.425C14.0625 5.59375 14.075 3.9625 13.9187 3.075C13.8625 2.7625 13.8125 2.4875 13.8125 2.46875C13.8125 2.40625 14.2562 2.625 14.8312 2.9625ZM16.1812 18.5875C17.325 19.825 17.825 21.575 17.5312 23.3125C17.475 23.6687 17.3562 24.1562 17.2687 24.3875C17.0812 24.9187 17.0937 25.1625 17.3312 25.3375C17.5 25.4625 17.5062 25.4625 17.8312 25.35C18.6312 25.075 19.75 24.1312 20.125 23.4125C20.2125 23.2562 20.3 23.125 20.3187 23.125C20.3625 23.125 20.7125 24.0062 20.775 24.275C21.0562 25.4688 20.85 26.8875 20.25 27.8375C19.3062 29.3312 17.5375 30.0312 15.1 29.8687C13.3 29.75 11.95 29.2312 11.1125 28.325C10.4875 27.6437 10.2437 26.9875 10.2437 26C10.2437 25.2687 10.35 24.8312 10.725 24.0687C11.1187 23.2625 11.7562 22.6187 12.6875 22.0813C13.55 21.5813 14.025 21.225 14.5562 20.65C15.1125 20.0562 15.5187 19.2812 15.6312 18.6C15.7187 18.0625 15.7 18.0687 16.1812 18.5875Z" fill="#303033"/>
</g>
</g>
</svg>
