<svg width="48" height="48" viewBox="0 0 48 48" fill="none" xmlns="http://www.w3.org/2000/svg">
<g id="noto:peanuts">
<path id="Vector" d="M27.0458 5.96897L27.0459 5.96892C31.9704 2.66404 36.513 2.70461 39.8917 3.74234C41.5882 4.2634 42.9941 5.03731 44.0056 5.77168C44.5115 6.13895 44.9132 6.49239 45.2009 6.79379C45.5014 7.10879 45.6385 7.32684 45.6732 7.42212C45.698 7.49154 45.7242 7.68559 45.7155 8.04467C45.7073 8.38255 45.6707 8.80747 45.6119 9.29375C45.4946 10.265 45.2932 11.4451 45.0753 12.5925C44.8577 13.7382 44.6251 14.8437 44.4468 15.6633C44.3577 16.073 44.2822 16.4108 44.229 16.6461C44.2177 16.6965 44.2073 16.7421 44.198 16.7828C44.1251 16.8189 44.0346 16.8638 43.9281 16.9169C43.6186 17.0711 43.1736 17.2946 42.631 17.5716C41.5459 18.1256 40.069 18.8948 38.5027 19.755C36.9372 20.6148 35.2777 21.568 33.8291 22.4899C32.3906 23.4054 31.1251 24.3117 30.3738 25.0789C28.9259 26.5575 26.6714 29.5623 24.794 32.2339C23.8514 33.5752 22.9962 34.8436 22.3754 35.8104C22.0654 36.2931 21.811 36.705 21.6327 37.0151C21.5441 37.1693 21.4703 37.3051 21.4173 37.4153C21.391 37.4699 21.366 37.526 21.3464 37.5795C21.3422 37.5912 21.3357 37.609 21.3289 37.6315C21.2842 37.6744 21.2127 37.7356 21.11 37.8156C20.8824 37.9931 20.5483 38.2275 20.1355 38.5026C19.3127 39.0509 18.211 39.7383 17.1039 40.4134C15.9979 41.0877 14.8915 41.7467 14.0612 42.2373C13.6461 42.4825 13.3003 42.6855 13.0582 42.8272C12.9372 42.8981 12.8422 42.9536 12.7775 42.9913L12.7222 43.0235L12.7125 43.0267C12.6753 43.0389 12.6191 43.057 12.546 43.0793C12.3996 43.124 12.1857 43.1858 11.9198 43.2528C11.387 43.3871 10.6515 43.5407 9.83762 43.6202C8.17691 43.7822 6.33741 43.6211 5.15071 42.5447C2.5718 40.2054 0.0322663 35.1178 3.36316 29.2609C5.24981 25.9448 7.70901 24.2111 10.1458 22.974C11.0319 22.5241 11.9039 22.1449 12.7542 21.7751C13.0861 21.6308 13.4146 21.4879 13.7394 21.3429C14.881 20.8329 15.9683 20.2988 16.882 19.6011L16.8824 19.6008C17.1401 19.4036 17.378 19.0865 17.602 18.7365C17.8333 18.3752 18.0817 17.9266 18.3493 17.4233C18.4965 17.1467 18.6501 16.8523 18.8117 16.5428C19.244 15.7143 19.7328 14.7779 20.3035 13.7853C21.8698 11.0616 24.0029 8.01028 27.0458 5.96897ZM26.7673 5.55375C22.4829 8.42794 19.9854 13.2131 18.3641 16.3196C17.6099 17.7647 17.0452 18.8466 16.5785 19.2037L26.7673 5.55375Z" fill="#F3AE38" stroke="black"/>
<path id="Vector_2" d="M46.1238 10.4914C46.1655 11.589 46.1162 12.9692 45.8634 14.6127C45.2578 18.549 42.6099 22.0537 39.8408 23.9312C38.4475 24.8758 36.0954 26.0141 33.9848 26.9998C33.6117 27.174 33.2461 27.3435 32.8958 27.5059C32.2651 27.7983 31.6844 28.0676 31.2 28.2995C30.8228 28.48 30.496 28.6418 30.2435 28.7776C30.1175 28.8455 30.0046 28.9097 29.9109 28.9688C29.8249 29.0229 29.7265 29.0903 29.6503 29.1664L29.6491 29.1676C29.3016 29.5175 29.0732 29.9807 28.8067 30.5591C28.758 30.6648 28.7073 30.7763 28.6536 30.8944C28.4042 31.4424 28.0909 32.1311 27.6217 33.0314L27.6215 33.0317C27.515 33.2364 27.4093 33.4406 27.3039 33.644C26.0906 35.9859 24.9255 38.2349 23.2404 40.1438C21.4268 42.1983 19.0022 43.864 15.2464 44.7418C11.908 45.5212 9.38318 44.9586 7.70081 44.2172C7.10038 43.9525 6.60521 43.6641 6.21741 43.4034C6.92668 43.3733 7.86215 43.2998 8.93121 43.1324C11.3202 42.7583 14.4072 41.9103 17.125 40.0017C19.8476 38.0896 21.2904 35.9117 22.5837 33.5302C22.8774 32.9894 23.1623 32.4407 23.452 31.8829C24.4405 29.9793 25.4842 27.9693 27.1213 25.8018C27.7199 25.0109 28.6532 24.3562 29.8377 23.7546C31.0203 23.1541 32.4046 22.6298 33.8763 22.0733L33.9342 22.0514C36.8266 20.9578 40.0488 19.7395 42.3142 17.5902C44.3546 15.6578 45.4288 13.0634 45.9953 10.9874C46.0413 10.8188 46.084 10.6532 46.1238 10.4914Z" fill="#D97A08" stroke="black"/>
<path id="Vector_3" d="M5.20121 29.025C4.46996 30.1988 4.39496 31.1138 5.03621 31.4925C5.75996 31.9237 6.67496 31.065 7.12496 30.2812C7.57496 29.4975 7.88246 28.4062 7.28996 28.0275C6.62621 27.6 5.86871 27.9563 5.20121 29.025ZM9.49871 26.0813C10.05 27.0075 11.2087 26.5575 12.2287 25.8675C13.2487 25.1775 13.89 24.3262 13.485 23.6587C13.08 22.995 11.8012 23.3962 10.9687 23.9662C10.14 24.54 8.97746 25.2037 9.49871 26.0813ZM19.9875 19.2225C20.7825 19.725 21.5812 18.8662 22.245 17.7487C22.9087 16.635 23.3287 15.42 22.5487 14.9737C21.8175 14.5537 21.0525 15.0975 20.2612 16.5562C19.3612 18.2175 19.35 18.8175 19.9875 19.2225Z" fill="#F7C875"/>
<path id="Vector_4" d="M5.88755 39.8025C6.13505 40.56 7.1138 40.4513 7.77755 40.245C8.86505 39.9075 9.2813 39.24 9.14255 38.6813C9.0038 38.1225 8.0663 37.9237 7.14755 38.3137C6.5588 38.565 5.6438 39.0525 5.88755 39.8025ZM10.9426 38.16C11.4413 38.8163 12.2963 38.6775 13.6051 37.6725C14.6213 36.8925 15.0226 35.8388 14.5726 35.295C14.1226 34.7513 13.6201 35.1863 12.5251 36C11.5088 36.7538 10.5301 37.62 10.9426 38.16ZM11.9851 33.6488C12.4126 34.3125 13.4176 34.0538 14.4451 33.2288C15.4013 32.46 15.7838 31.6763 15.1988 31.0463C14.6401 30.4425 13.6726 31.305 13.1588 31.71C12.5326 32.205 11.4751 32.8575 11.9851 33.6488ZM16.8788 32.6813C15.9638 33.5475 15.3863 34.3388 16.0951 34.9463C16.8038 35.5538 17.8576 34.545 18.2926 34.1325C18.7276 33.7162 19.6801 32.6963 19.0463 31.9988C18.4163 31.305 17.3138 32.2688 16.8788 32.6813ZM19.6538 25.8337C19.0501 26.5763 18.1538 27.495 18.5813 28.0875C19.0276 28.7025 20.1301 28.485 21.0901 27.255C21.6938 26.4788 21.9038 25.3875 21.3826 24.9375C20.8651 24.4875 20.1863 25.1813 19.6538 25.8337ZM26.1376 21.0975C26.5088 21.9525 27.8288 21.51 28.8038 20.94C29.7788 20.3663 30.5701 19.6125 30.2288 18.945C29.9176 18.3338 28.8263 18.3713 27.6826 19.0538C26.5351 19.7325 25.8188 20.3663 26.1376 21.0975ZM34.0613 17.97C34.4626 18.6637 35.4076 18.4275 36.4726 17.6325C37.5188 16.8525 37.9913 16.11 37.5188 15.4387C37.0426 14.7675 36.1988 15.3675 35.2313 16.0613C34.2901 16.7288 33.6713 17.3025 34.0613 17.97ZM38.8201 15.45C39.3601 15.96 40.1963 15.4913 41.0251 14.6138C41.8951 13.695 42.1088 12.9638 41.6926 12.5138C41.2801 12.0638 40.5301 12.3638 39.5551 13.3875C38.6513 14.3363 38.3551 15.0113 38.8201 15.45ZM38.9963 9.3825C38.2351 10.3613 37.4063 11.13 38.1226 11.76C38.6588 12.2325 39.7163 11.64 40.4476 10.6688C41.1038 9.795 41.2951 8.51625 40.6801 8.24625C40.0651 7.98 39.7013 8.47875 38.9963 9.3825ZM42.7276 9.23625C42.4351 10.2713 41.8238 10.905 42.4276 11.4525C43.1401 12.105 44.1301 11.2538 44.4826 9.7125C44.8051 8.29125 44.5313 7.62 43.8301 7.64625C43.1288 7.66875 42.9676 8.39625 42.7276 9.23625Z" fill="#D97A08"/>
</g>
</svg>
