<svg width="42" height="53" viewBox="0 0 42 53" fill="none" xmlns="http://www.w3.org/2000/svg">
<path d="M1.52051 5.06665L4.21373 51.4151C4.2456 51.9634 4.26153 52.2376 4.38166 52.4441C4.4787 52.6108 4.62192 52.746 4.79403 52.8332C5.00712 52.9411 5.28174 52.9411 5.831 52.9411H35.1485C35.7003 52.9411 35.9762 52.9411 36.1898 52.8325C36.3624 52.7447 36.5057 52.6087 36.6025 52.4411C36.7224 52.2335 36.737 51.958 36.7662 51.407L39.2133 5.32034L1.52051 5.06665Z" fill="#1B61A0"/>
<path d="M40.0468 0H1C0.447715 0 0 0.447717 0 1V4.44521C0 4.9975 0.447715 5.44521 0.999999 5.44521H40.0468C40.599 5.44521 41.0468 4.9975 41.0468 4.44521V1C41.0468 0.447715 40.599 0 40.0468 0Z" fill="#3976AE"/>
<g clip-path="url(#clip0_603_5082)">
<path d="M17.75 21.3312C17.3532 21.4375 16.975 21.6875 16.7438 21.9875C16.625 22.1469 15.8875 23.3219 15.7844 23.5219C15.7344 23.6219 15.7407 23.7656 15.8063 23.8375C15.8688 23.9094 18.7282 25.7312 18.8532 25.7781C18.95 25.8156 19.0532 25.7844 19.1282 25.7C19.1563 25.6656 19.4219 25.2031 19.7188 24.6719C20.0157 24.1375 20.2657 23.6906 20.2719 23.6781C20.2875 23.6531 21.5 25.9156 21.5 25.9625C21.5 25.975 21.2375 26.1375 20.9188 26.3281C20.6 26.5156 20.325 26.6969 20.3094 26.7281C20.2907 26.7594 20.2813 26.8344 20.2875 26.8969C20.3063 27.1156 20.2407 27.1 22.4969 27.3594C24.3063 27.5656 24.55 27.5875 24.6219 27.5469C24.6907 27.5125 24.8844 27.1375 25.6813 25.4937C26.3032 24.2094 26.6563 23.4469 26.6563 23.3875C26.6563 23.2594 26.5313 23.1437 26.3969 23.1469C26.3344 23.15 26.075 23.2625 25.7125 23.45L25.1313 23.75L24.6219 22.8719C24.0657 21.9156 23.9157 21.725 23.5782 21.5281C23.1563 21.2812 23.3844 21.2969 20.5 21.2906C18.3 21.2843 17.8969 21.2906 17.75 21.3312ZM19.6407 22.4687L19.9688 23.125L19.4032 24.1406C18.8532 25.1312 18.8344 25.1562 18.7688 25.1156C18.7344 25.0906 18.1907 24.7437 17.5625 24.3469C16.9344 23.9469 16.4094 23.6094 16.3969 23.5969C16.3719 23.5719 16.9313 22.6312 17.1469 22.3375C17.2875 22.1437 17.5313 21.9687 17.7813 21.8844C17.9657 21.8219 18.0438 21.8125 18.6469 21.8125H19.3125L19.6407 22.4687ZM23.1875 21.925C23.5157 22.0812 23.6188 22.2094 24.2282 23.2562C24.5344 23.7812 24.8 24.2344 24.8219 24.2625C24.8438 24.2906 24.9063 24.325 24.9625 24.3406C25.05 24.3687 25.1032 24.35 25.4375 24.1844C25.6907 24.0625 25.8063 24.0187 25.7844 24.0562C25.7688 24.0844 25.4438 24.7562 25.0625 25.5469C24.6813 26.3375 24.3594 26.9937 24.3469 27.0062C24.325 27.0312 21.4219 26.7125 21.3938 26.6844C21.3844 26.675 21.525 26.5812 21.7032 26.475C22.0469 26.2687 22.125 26.1937 22.125 26.0656C22.125 26.0219 21.6344 25.0562 21.0313 23.9187C20.4313 22.7812 19.9375 21.8406 19.9375 21.8281C19.9375 21.8187 20.6219 21.8156 21.4625 21.8187L22.9844 21.8281L23.1875 21.925Z" fill="white"/>
<path d="M14.2656 25.6719C13.1312 25.7469 12.1781 25.8156 12.15 25.8281C12.0562 25.8656 11.9937 25.9969 12.0156 26.1125C12.0375 26.2406 12.0687 26.2625 12.8125 26.7188C13.1312 26.9125 13.4031 27.0844 13.4156 27.0938C13.4312 27.1063 13.225 27.55 12.9594 28.0813C12.6937 28.6125 12.4531 29.1219 12.425 29.2125C12.3062 29.575 12.3156 30.0813 12.4469 30.4438C12.4875 30.5563 13.0687 31.5938 13.7375 32.7531C14.8656 34.7063 14.9687 34.875 15.1719 35.0781C15.325 35.2313 15.4656 35.3375 15.6437 35.4313C16.0281 35.6281 16.1844 35.6562 17.0031 35.6562H17.7094L17.7844 35.575L17.8594 35.4938V33.525V31.5563L17.7719 31.4813L17.6844 31.4063H16.6531C16.0875 31.4063 15.625 31.3969 15.625 31.3875C15.625 31.3656 16.8594 29.2188 16.9125 29.15C16.95 29.1031 17.0031 29.1156 17.5156 29.3156C17.825 29.4344 18.1094 29.5313 18.1469 29.5313C18.2625 29.5313 18.3875 29.4 18.3875 29.2781C18.3844 29.15 16.8031 25.7094 16.6969 25.6C16.6094 25.5125 16.8 25.5094 14.2656 25.6719ZM16.9875 27.4219C17.3219 28.1438 17.5937 28.7438 17.5937 28.7531C17.5937 28.7656 17.4344 28.7125 17.2437 28.6375C16.8562 28.4875 16.7594 28.4719 16.6625 28.5531C16.625 28.5844 16.0812 29.5063 15.45 30.6C14.8187 31.6969 14.2937 32.5938 14.2844 32.5938C14.2375 32.5938 12.9875 30.3906 12.9344 30.2125C12.8531 29.9594 12.8562 29.6156 12.9375 29.3719C12.975 29.2688 13.2406 28.7063 13.5312 28.1219C13.825 27.5406 14.0625 27.0375 14.0625 27.0031C14.0625 26.8969 13.9375 26.7875 13.5437 26.5438C13.3281 26.4125 13.1594 26.2969 13.1687 26.2906C13.1906 26.2656 15.8625 26.1 16.1375 26.1063L16.3812 26.1094L16.9875 27.4219ZM17.3437 33.5344V35.1313L16.775 35.1188L16.2031 35.1094L15.9656 34.9969C15.7 34.8688 15.5375 34.7406 15.4031 34.5438C15.3281 34.4344 14.7344 33.425 14.625 33.2188C14.5969 33.1656 14.6719 33.0313 15.2094 32.1625L15.3469 31.9375H16.3469H17.3437V33.5344Z" fill="white"/>
<path d="M24.9718 27.8125C24.0875 28.3281 23.3312 28.7781 23.2906 28.8125C23.225 28.8687 23.2031 28.9437 23.2187 29.0625C23.2218 29.1031 24.1093 30.7281 24.2875 31.0219L24.35 31.125H23.1125H21.8781L21.8687 30.55C21.8593 29.9906 21.8562 29.9719 21.7843 29.8937C21.7281 29.8344 21.675 29.8125 21.5875 29.8125C21.4718 29.8125 21.45 29.8344 20.1031 31.3156C19.35 32.1406 18.7156 32.8594 18.6968 32.9062C18.6687 32.9719 18.6656 33.0219 18.6875 33.0781C18.7156 33.1562 21.2343 36.4531 21.4 36.6312C21.5093 36.75 21.6781 36.7531 21.7843 36.6375C21.8562 36.5625 21.8593 36.5344 21.8687 36.1062L21.8781 35.6562H22.95C24.1281 35.6562 24.225 35.6437 24.575 35.4594C24.6812 35.4062 24.8562 35.2687 24.9687 35.1562C25.1468 34.9781 25.2843 34.7625 26.1062 33.3437C26.6218 32.4594 27.2125 31.4594 27.4156 31.125C27.8406 30.4312 27.8937 30.3219 27.9562 30.0062C28.0656 29.4344 28.0062 29.2219 27.4031 28C27.1437 27.475 26.8968 27.0094 26.85 26.9594C26.7968 26.9031 26.7375 26.875 26.6718 26.875C26.6031 26.875 26.1343 27.1312 24.9718 27.8125ZM27.4437 29.4312C27.4718 29.5844 27.4718 29.6812 27.4437 29.8531C27.4 30.1062 27.3156 30.2812 27.0093 30.7656L26.7937 31.1094L25.8718 31.1187L24.9531 31.125L24.3968 30.1219C24.0156 29.4375 23.8468 29.1094 23.8687 29.0875C23.8875 29.0687 24.4968 28.7062 25.225 28.2812L26.5468 27.5094L26.9781 28.3719C27.3 29.0156 27.4187 29.2844 27.4437 29.4312ZM21.3437 31.1375C21.3437 31.4406 21.3531 31.5031 21.4031 31.5656L21.4625 31.6406L23.9656 31.6562L26.4656 31.6719L25.6093 33.1406C24.6812 34.7375 24.5843 34.8719 24.2593 35.025L24.0781 35.1094L22.7906 35.125L21.5062 35.1406L21.425 35.2156C21.3562 35.2812 21.3437 35.3187 21.3437 35.4812C21.3437 35.6469 21.3375 35.6625 21.2968 35.625C21.2718 35.6 20.8093 35.0031 20.2687 34.3L19.2843 33.0187L19.4 32.8844C19.7 32.5375 21.3 30.7844 21.3218 30.7844C21.3343 30.7812 21.3437 30.9406 21.3437 31.1375Z" fill="white"/>
</g>
<defs>
<clipPath id="clip0_603_5082">
<rect width="16" height="16" fill="white" transform="translate(12 21)"/>
</clipPath>
</defs>
</svg>
