<svg width="48" height="48" viewBox="0 0 48 48" fill="none" xmlns="http://www.w3.org/2000/svg">
<g id="noto:banana">
<path id="Vector" d="M43.2601 34.238C43.3843 34.3973 43.5565 34.5473 43.6925 34.6657C43.7033 34.6751 43.7141 34.6844 43.7247 34.6936C43.8631 34.8138 43.9843 34.9191 44.0871 35.0291C44.1985 35.1481 44.2526 35.2364 44.2734 35.2995C44.2877 35.3428 44.2913 35.3829 44.2579 35.4518L44.2575 35.4525L43.654 33.93M43.2601 34.238C43.2599 34.2377 43.2597 34.2375 43.2595 34.2372L43.654 33.93M43.2601 34.238C43.2603 34.2383 43.2605 34.2385 43.2607 34.2388L43.654 33.93M43.2601 34.238C43.2358 34.2071 43.2061 34.1708 43.1716 34.1286C42.9709 33.8835 42.6094 33.4418 42.2186 32.7195C41.7606 31.8729 41.2633 30.647 40.8813 28.8595L40.8812 28.8594C40.0066 24.7608 36.7178 22.7013 34.2126 22.9892M43.654 33.93C43.6266 33.8951 43.5942 33.8555 43.5576 33.8107C43.1184 33.2735 42.059 31.9775 41.3702 28.755C40.4515 24.45 36.9602 22.17 34.1552 22.4925M34.2126 22.9892C34.2127 22.9892 34.2128 22.9892 34.213 22.9892L34.1552 22.4925M34.2126 22.9892C34.2125 22.9892 34.2124 22.9892 34.2123 22.9892L34.1552 22.4925M34.2126 22.9892L28.6347 25.4784M34.1552 22.4925C31.219 22.8337 28.3277 25.0837 28.3277 25.0837M28.6347 25.4784L28.6347 25.4784L28.6348 25.4783L28.3277 25.0837M28.6347 25.4784C28.6347 25.4784 28.6348 25.4783 28.3277 25.0837M28.6347 25.4784L28.3277 25.0837M23.8851 22.7325C23.8849 22.7325 23.8848 22.7326 23.8502 22.2337L23.5818 22.6556L23.7374 22.7546C23.7402 22.7541 23.7428 22.7537 23.7455 22.7532C23.7989 22.7436 23.8379 22.7381 23.8615 22.7352C23.8733 22.7338 23.8813 22.7329 23.8852 22.7326C23.8863 22.7325 23.887 22.7324 23.8875 22.7324L23.8872 22.7324L23.8862 22.7325L23.8855 22.7325L23.8851 22.7325ZM20.8324 25.2603L20.6814 25.181L20.449 25.6237C20.8799 25.3701 20.88 25.3704 20.8802 25.3706L20.8805 25.3711L20.8809 25.3719L20.8817 25.3733L20.8826 25.3748C20.8828 25.3752 20.8824 25.3744 20.8814 25.3727C20.8795 25.3691 20.8754 25.3612 20.8698 25.3496C20.8603 25.3297 20.8468 25.2994 20.8324 25.2603ZM24.642 27.2603L24.6231 27.2522L24.4277 27.7125L24.6601 27.2698L24.642 27.2603ZM37.4177 33.225L37.8229 32.932L37.8227 32.9318L37.4177 33.225Z" fill="#FF8E00" stroke="black"/>
<path id="Vector_2" d="M27.7215 31.1574C27.6433 31.3309 27.573 31.486 27.513 31.6179L24.492 29.9994L24.3686 29.7794C24.2447 29.5584 24.0676 29.2424 23.8549 28.8623C23.4296 28.1022 22.8624 27.0862 22.2944 26.0627C21.7263 25.0389 21.1581 24.0087 20.7306 23.2196C20.5166 22.8247 20.3392 22.4924 20.2149 22.2524C20.1525 22.1318 20.1054 22.0381 20.0743 21.9728C20.068 21.9596 20.0627 21.9484 20.0584 21.9389C19.7848 19.2125 19.4683 16.8628 18.8672 13.4654C18.7525 12.8169 18.6287 12.184 18.5072 11.563C18.3021 10.5144 18.1037 9.49999 17.967 8.50271C17.7513 6.92942 17.7056 5.49104 18.0343 4.20781L18.0344 4.20731C18.2135 3.50505 18.6454 3.0048 19.0523 2.67229C19.2546 2.50692 19.4453 2.38769 19.5839 2.31057C19.6529 2.27217 19.7082 2.24464 19.7446 2.22743C19.7627 2.21883 19.776 2.21284 19.7839 2.20939L19.7915 2.2061C19.7916 2.20607 19.7916 2.20605 19.7917 2.20603L19.8347 2.18843L19.8749 2.16217C20.5862 1.69682 22.2586 1.42521 24.0562 2.67209C25.0328 3.35051 25.9001 4.73276 26.6776 6.50337C27.4464 8.25438 28.0904 10.2952 28.6663 12.2009C28.8625 12.8508 29.0439 13.9464 29.2045 15.27C29.3638 16.5831 29.4988 18.0876 29.6091 19.5361C29.8298 22.4326 29.9505 25.089 29.9691 25.5109L29.9692 25.5132C29.9692 25.5119 29.9691 25.5113 29.9691 25.5113C29.9688 25.5113 29.968 25.5389 29.9545 25.6066C29.9404 25.6772 29.9172 25.7694 29.8837 25.8834C29.8169 26.1111 29.717 26.4012 29.5922 26.7358C29.343 27.4037 29.0051 28.2214 28.6633 29.0188C28.322 29.815 27.9792 30.5855 27.7215 31.1574Z" fill="#FFE4B4" stroke="black"/>
<path id="Vector_3" d="M20.1236 22.6087C20.3551 22.6527 20.638 22.6997 20.9619 22.7406C21.886 22.8573 23.1555 22.9262 24.525 22.7287L20.1236 22.6087ZM20.1236 22.6087C20.1349 22.7489 20.1467 22.9045 20.158 23.0697C20.2017 23.7099 20.2394 24.5187 20.2057 25.1292C20.2057 25.1297 20.2056 25.1333 20.2057 25.1406C20.2059 25.1484 20.2063 25.1589 20.2072 25.1725C20.2091 25.2 20.2126 25.2356 20.2184 25.28C20.23 25.3693 20.2491 25.483 20.2757 25.6202C20.3288 25.8943 20.4084 26.2437 20.5071 26.6448C20.7043 27.4459 20.9727 28.4331 21.2439 29.3962C21.5147 30.3584 21.7873 31.2927 21.9922 31.9867C22.0774 32.2754 22.1509 32.5224 22.2076 32.7124L27.5702 31.8255C27.5929 31.8108 27.6206 31.7928 27.6526 31.7715C27.759 31.7005 27.9137 31.5927 28.101 31.4489C28.4762 31.1611 28.9784 30.7319 29.4834 30.1698C30.4962 29.0423 31.4939 27.4104 31.5479 25.3258L31.5479 25.3254C31.7125 19.1372 30.7489 15.9997 29.9415 13.3706C29.8766 13.1592 29.8127 12.951 29.7504 12.7449C29.1836 10.8789 28.2657 8.70805 27.2219 6.81519C26.1672 4.90266 25.0242 3.34881 24.0326 2.64219L24.0325 2.64218C23.4995 2.26235 22.9446 2.03461 22.4564 1.90716C22.7914 2.23876 23.1833 2.65028 23.6035 3.13748C24.8418 4.573 26.3353 6.6759 27.3405 9.33707C28.3353 11.9708 28.9465 14.7989 29.3093 16.96C29.4909 18.0425 29.6109 18.9617 29.6855 19.6112C29.7229 19.936 29.7489 20.1935 29.7656 20.3705C29.774 20.459 29.78 20.5273 29.784 20.5739L29.7884 20.6272L29.7896 20.6412L29.7899 20.645L29.7899 20.6461L29.79 20.6464C29.79 20.6465 29.79 20.6466 29.2915 20.685M20.1236 22.6087L24.5254 22.7286C26.2651 22.479 27.515 22.0807 28.3387 21.7382C28.7505 21.5671 29.0551 21.41 29.2608 21.2929C29.3636 21.2344 29.4416 21.1858 29.4959 21.1505C29.523 21.1328 29.5441 21.1185 29.5595 21.1079L29.5781 21.0947L29.5842 21.0904L29.5864 21.0887L29.5873 21.0881L29.5877 21.0878C29.5879 21.0876 29.5881 21.0875 29.2915 20.685M29.2915 20.685L29.5881 21.0875L29.8113 20.923L29.79 20.6466L29.2915 20.685Z" fill="#FFE265" stroke="black"/>
<path id="Vector_4" d="M29.1415 26.4425L29.1318 26.5749L29.1891 26.6946L31.4775 31.4751C31.4766 31.4796 31.4757 31.4841 31.4748 31.4888C31.4523 31.6004 31.4165 31.767 31.3637 31.9812C31.2581 32.4097 31.0851 33.0279 30.8171 33.7764C30.2806 35.2744 29.3656 37.2888 27.8533 39.3491L27.8532 39.3493C24.4708 43.9617 19.1041 45.4631 15.0476 45.5953C13.037 45.6608 11.6923 45.3427 10.8658 45.0246C10.4519 44.8653 10.1653 44.7049 9.9879 44.5901C9.97625 44.5825 9.96507 44.5752 9.95435 44.568L10.0594 43.862L20.2571 35.2801L20.3975 35.1619L20.4281 34.981L19.9351 34.8975C20.4281 34.981 20.4281 34.9809 20.4282 34.9808L20.4282 34.9804L20.4284 34.9791L20.4292 34.9746L20.4321 34.9574L20.4428 34.8918C20.452 34.8347 20.4653 34.7513 20.4815 34.6452C20.514 34.4331 20.5584 34.1298 20.6067 33.7638C20.703 33.0328 20.8151 32.0468 20.8763 31.0337C20.9371 30.026 20.9493 28.968 20.8376 28.102C20.7819 27.6702 20.6925 27.2609 20.5488 26.9215C20.408 26.5889 20.1866 26.2572 19.8265 26.0868C18.9509 25.6713 17.9629 25.7483 16.9739 26.2087C15.9919 26.666 14.9784 27.5119 13.9831 28.7002L13.9825 28.7009C13.4452 29.3448 12.6807 30.6372 11.9496 31.9805C11.2103 33.3388 10.4791 34.7982 10.0059 35.8108C9.36946 37.171 8.19157 38.2253 7.3087 38.5584C6.85717 38.7287 6.47544 38.5972 6.16709 38.3842C6.12661 38.3562 6.08814 38.3273 6.05182 38.298L8.84891 36.5838L9.01977 36.4791L9.07101 36.2854L11.0434 28.8288C11.0509 28.8193 11.0591 28.809 11.068 28.7978C11.1257 28.7255 11.2119 28.6189 11.324 28.4839C11.5483 28.2139 11.8763 27.8309 12.2883 27.3822C13.1036 26.4943 14.2415 25.3561 15.5516 24.3272C15.5703 24.3242 15.5971 24.3209 15.6336 24.3182C15.7476 24.3098 15.9078 24.311 16.1088 24.3227C16.5079 24.3459 17.0127 24.4067 17.5162 24.4794C18.0173 24.5517 18.5066 24.6343 18.8715 24.699C19.0537 24.7313 19.2043 24.759 19.3092 24.7786L19.4304 24.8015L19.4376 24.8029C19.4484 24.8067 19.4621 24.8116 19.4785 24.8176C19.5275 24.8355 19.6006 24.863 19.6932 24.9002C19.8787 24.9745 20.1415 25.0871 20.446 25.2382C21.0588 25.5423 21.8213 25.9933 22.4629 26.5894C23.2102 27.2862 23.6842 27.8923 23.9682 28.3161C24.1103 28.5282 24.205 28.6949 24.2628 28.8049C24.2916 28.8599 24.3112 28.9007 24.3229 28.926C24.3287 28.9386 24.3326 28.9473 24.3346 28.952L24.3356 28.9542L24.3358 28.9548L24.3361 28.9555L24.3361 28.9555L24.3363 28.9559L24.7836 30.063L25.2578 28.9648L25.2578 28.9647L25.2579 28.9646L25.2579 28.9644L25.2592 28.9615L25.2655 28.9474C25.2713 28.9343 25.2805 28.9141 25.2928 28.8875C25.3176 28.8343 25.3552 28.7555 25.405 28.657C25.5048 28.4595 25.6528 28.1841 25.8442 27.876C26.2318 27.2521 26.7766 26.5274 27.4334 26.0298L27.4336 26.0296C28.2077 25.4423 28.7365 25.1089 29.0907 24.9323C29.1529 24.9012 29.2081 24.8758 29.2568 24.8552L29.1415 26.4425ZM15.5251 24.3326C15.5222 24.3336 15.5206 24.334 15.5206 24.3339C15.5205 24.3339 15.5219 24.3334 15.5251 24.3326Z" fill="#FFA726" stroke="black"/>
<path id="Vector_5" d="M23.3431 31.8811L23.3431 31.8816C23.4248 33.7703 22.2266 36.7882 19.3056 39.3477L19.3054 39.3479C16.3995 41.8973 13.3405 42.7312 11.4708 42.8739C10.9199 42.916 10.5807 42.7956 10.3833 42.6798C10.4147 42.6506 10.4478 42.6199 10.4825 42.5877C10.7857 42.3062 11.2123 41.9088 11.7056 41.4451C12.6916 40.5182 13.947 39.324 15.0187 38.2598L15.019 38.2595C16.0795 37.2049 17.1636 35.5977 18.0376 34.0279C18.9102 32.4607 19.6062 30.8714 19.8619 29.8347C20.1097 28.8297 20.1289 27.9797 20.0812 27.366C20.4226 27.5943 20.8602 27.9371 21.3661 28.4443C22.6644 29.7462 23.3023 30.915 23.3431 31.8811Z" fill="#FFB803" stroke="black"/>
<path id="Vector_6" d="M11.0437 44.5275C10.7324 45.2513 9.66367 45.2813 9.19867 44.88C8.75992 44.5013 8.33242 43.7475 8.77492 42.9038C9.06742 42.3488 10.0274 42.195 10.5674 42.6263C11.1074 43.0575 11.3249 43.8713 11.0437 44.5275Z" fill="#875B54"/>
<path id="Vector_7" d="M8.5043 36.3976L8.50449 36.3973C8.90861 35.8375 9.33387 35.0251 9.74972 34.1402C10.0427 33.5167 10.3221 32.8771 10.5815 32.2832C10.6893 32.0364 10.7936 31.7976 10.8941 31.5711L10.8944 31.5702C11.8372 29.4548 12.8713 27.5238 14.6639 26.1088L14.664 26.1087C16.0597 25.0079 17.1985 24.4338 18.0333 24.1359C17.5365 23.9198 16.9057 23.6664 16.1566 23.4076L16.1563 23.4075C14.3156 22.77 11.779 22.0675 9.7008 24.2161L8.5043 36.3976ZM8.5043 36.3976C7.36995 37.9712 6.27432 38.1709 5.88133 38.2143L5.88133 38.2143M8.5043 36.3976L5.88133 38.2143M5.88133 38.2143L5.87773 38.2147M5.88133 38.2143L5.87773 38.2147M5.87773 38.2147C5.87841 38.2146 5.87801 38.2145 5.8766 38.2143M5.87773 38.2147L5.8766 38.2143M5.8766 38.2143C5.86529 38.2124 5.78912 38.1999 5.69059 38.0835M5.8766 38.2143L5.69059 38.0835M5.69059 38.0835C5.58746 37.9617 5.54536 37.8195 5.5558 37.722M5.69059 38.0835L5.5558 37.722M5.5558 37.722C5.55849 37.6969 5.57835 37.6282 5.66803 37.4612M5.5558 37.722L5.66803 37.4612M5.66803 37.4612C5.70233 37.3974 5.74057 37.3301 5.78493 37.252M5.66803 37.4612L5.78493 37.252M5.78493 37.252C5.79452 37.2351 5.8044 37.2177 5.81459 37.1997M5.78493 37.252L5.81459 37.1997M5.81459 37.1997C5.87037 37.1013 5.93242 36.9907 5.99553 36.8697M5.81459 37.1997L5.99553 36.8697M5.99553 36.8697C6.25184 36.3785 6.52293 35.722 6.58134 34.825M5.99553 36.8697L6.58134 34.825M6.58134 34.825C6.59295 34.6467 6.60174 34.4252 6.61198 34.1672M6.58134 34.825L6.61198 34.1672M6.61198 34.1672C6.65034 33.2005 6.70902 31.722 7.01225 30.0914M6.61198 34.1672L7.01225 30.0914M7.01225 30.0914C7.39608 28.0275 8.15913 25.8125 9.70069 24.2162L7.01225 30.0914Z" fill="#FEE4B4" stroke="black"/>
<path id="Vector_8" d="M39.7112 41.6767L39.7125 41.6768C40.1908 41.6984 40.7166 41.4649 41.0214 41.1039L37.4923 36.0929L37.4841 36.0813L37.4766 36.0692L30.5677 24.9663C30.5649 24.9661 30.562 24.9659 30.5592 24.9657C30.4016 24.956 30.1855 24.9466 29.9507 24.9477C29.7144 24.9488 29.4677 24.9605 29.2463 24.9908C29.0165 25.0222 28.8523 25.0688 28.7575 25.1183C28.5117 25.2466 28.2599 25.4101 28.043 25.5634C28.0923 25.5972 28.1436 25.6333 28.1965 25.6715C28.6559 26.0027 29.2512 26.5032 29.7845 27.1773L29.7847 27.1775C30.1962 27.6982 30.6165 28.538 31.0411 29.4969C31.3843 30.272 31.7455 31.1613 32.1192 32.0812C32.2133 32.313 32.3083 32.5467 32.4039 32.7811C33.3674 35.1417 34.3962 37.5438 35.4727 38.9338L39.7112 41.6767ZM39.7112 41.6767C38.3317 41.6177 37.0141 40.9213 35.4727 38.9338L39.7112 41.6767Z" fill="#FEB804" stroke="black"/>
<path id="Vector_9" d="M37.6461 25.6725C39.1911 27.8812 39.3936 29.82 39.6261 31.8C39.8361 33.5887 40.2674 37.35 40.9161 38.5762C41.5686 39.8025 42.2024 40.6012 41.5011 41.3475C40.7999 42.0937 38.7374 41.8275 37.2561 40.215C36.0636 38.9137 35.4036 37.4962 34.5074 35.415C33.6111 33.3337 32.2911 28.4212 30.5774 26.2012C29.4824 24.7837 28.3911 24.7425 28.3911 24.7425C28.3911 24.7425 29.8349 23.565 32.5911 23.535C35.0624 23.5087 36.3599 23.835 37.6461 25.6725Z" fill="#FFE4B4"/>
</g>
</svg>
