<svg width="48" height="48" viewBox="0 0 48 48" fill="none" xmlns="http://www.w3.org/2000/svg">
<g id="noto:cigarette">
<path id="Vector" opacity="0.5" d="M14.4076 29.5387C16.6463 28.56 25.1813 27.135 25.6238 24.33C26.3401 19.815 18.9226 19.4963 15.6413 19.3088C11.7713 19.0912 8.59132 17.8087 6.03382 15.4312C2.35882 12.2062 0.802572 4.37625 5.43007 1.43625C5.43007 1.43625 5.19382 5.3325 8.04757 6.825C15.1051 10.515 23.8951 6.615 31.2713 9.4125C35.3926 10.9275 37.8938 15.2887 36.4763 19.5187C35.6288 23.5462 30.1088 27.2212 24.8288 28.035C17.8238 29.1112 14.4076 29.5387 14.4076 29.5387Z" fill="#BDBDBD"/>
<path id="Vector_2" d="M44.4713 44.9625H6.81006V36.2925H44.4713C44.4713 36.2925 46.5001 37.0237 46.5001 40.6275C46.5001 44.2312 44.4713 44.9625 44.4713 44.9625Z" fill="#EEEEEE"/>
<path id="Vector_3" d="M44.3635 44.4625H7.31006V36.7925H44.3635C44.401 36.8118 44.4524 36.8407 44.5139 36.881C44.6655 36.9805 44.8784 37.1502 45.0954 37.4211C45.5237 37.9559 46.0001 38.9259 46.0001 40.6275C46.0001 42.3291 45.5237 43.2991 45.0954 43.8338C44.8784 44.1048 44.6655 44.2745 44.5139 44.374C44.4524 44.4143 44.401 44.4432 44.3635 44.4625Z" fill="url(#paint0_linear_985_6031)" stroke="black"/>
<path id="Vector_4" d="M44.4711 36.2925H34.7886C34.7886 36.2925 36.8173 37.0237 36.8173 40.6275C36.8173 44.2312 34.7886 44.9625 34.7886 44.9625H44.4711C44.4711 44.9625 46.4998 44.2312 46.4998 40.6275C46.4998 37.0237 44.4711 36.2925 44.4711 36.2925Z" fill="#F19534"/>
<path id="Vector_5" d="M46.3387 42.2325C46.335 42.21 46.305 42.1012 46.1212 41.9437C45.9375 41.7862 45.7162 41.6925 45.4725 41.7187C45.3975 41.7262 45.3225 41.745 45.2662 41.7937C45.1687 41.8725 45.1425 42.0075 45.1612 42.1312C45.18 42.2512 45.5137 42.8287 45.5625 44.0512C45.8662 43.635 46.1625 43.05 46.3387 42.2325ZM39.81 41.0775C39.9637 41.2275 40.1175 41.3962 40.1475 41.61C40.1812 41.85 40.05 42.0787 39.9037 42.27C39.7387 42.48 39.5512 42.6712 39.3375 42.8325C39.2587 42.8925 39.1687 42.9525 39.0712 42.9487C38.88 42.9412 38.7862 42.7125 38.745 42.525C38.5837 41.8425 38.46 41.1525 38.37 40.455C38.3625 40.3912 38.355 40.32 38.3962 40.2712C38.67 39.9225 39.6562 40.9312 39.81 41.0775ZM42.8475 40.2225C43.065 40.095 43.2712 39.945 43.4287 39.75C43.5862 39.5512 43.6837 39.3037 43.6575 39.0525C43.65 38.9812 43.6275 38.9025 43.5675 38.865C43.5037 38.8275 43.425 38.8462 43.3537 38.865C42.8775 38.9962 42.4087 39.1537 41.9512 39.3412C41.8875 39.3675 41.82 39.3975 41.7712 39.45C41.7225 39.5025 41.7 39.5775 41.6775 39.645C41.625 39.8362 41.5987 40.0312 41.5912 40.2262C41.565 41.025 42.5025 40.4287 42.8475 40.2225ZM40.2037 37.7475C40.185 37.8787 40.05 37.9612 39.93 38.0175C39.615 38.1562 39.27 38.2462 38.9287 38.2237C38.475 38.1975 37.2675 37.3387 38.1937 37.2375C38.5312 37.2 40.2562 37.3612 40.2037 37.7475ZM41.5087 42.6C41.6775 42.48 41.9587 42.5775 42.1275 42.705C42.7875 43.2075 42.9487 43.02 43.4025 42.8625C43.905 42.6862 43.8675 43.0425 43.6725 43.3312C43.4512 43.6612 42.5437 44.265 42.0412 44.1487C41.73 44.0812 41.3287 42.7312 41.5087 42.6ZM46.5 40.4625C46.4775 39.0637 46.125 38.055 45.7425 37.4775C45.6675 37.4887 45.5925 37.5187 45.5175 37.5675C45.3262 37.6987 44.97 38.565 45.0112 38.7412C45.09 39.09 46.1362 40.0875 46.5 40.4625ZM42.0187 37.02C42.4162 37.4737 42.7125 37.0912 42.7912 36.9187C42.8812 36.72 42.8925 36.5025 42.8587 36.2925H41.175C41.4225 36.48 41.6737 36.6225 42.0187 37.02ZM37.3237 44.1262C37.65 43.8975 38.13 43.8262 38.3962 44.13C38.6475 44.415 38.8725 44.7487 39.1575 44.9625H36.7725C36.975 44.565 37.1775 44.2275 37.3237 44.1262Z" fill="#FFCC80"/>
<path id="Vector_6" d="M9.20989 39.3337C8.98489 39.0262 8.56864 38.88 8.40364 38.5387C8.18989 38.1 8.48989 37.5562 8.32489 37.095C8.15614 36.615 7.58614 36.4387 7.09114 36.3262C6.78364 36.255 6.41239 36.2587 6.11239 36.3562C5.99614 36.3937 5.88364 36.4462 5.76364 36.4837C5.28364 36.6375 4.78864 36.48 4.29739 36.54C3.99364 36.5775 3.68239 36.6862 3.49489 36.9262C3.39364 37.0575 3.33364 37.2187 3.23239 37.35C3.04114 37.5862 2.72239 37.62 2.48239 37.7925C2.25364 37.9575 1.99864 38.1187 1.88239 38.3887C1.69489 38.8237 1.94989 39.3262 1.86364 39.7912C1.81489 40.05 1.66864 40.275 1.58239 40.5225C1.57114 40.5562 1.55989 40.59 1.55239 40.6237C1.44364 41.0325 1.50739 41.4862 1.72864 41.8462C1.93114 42.1687 2.24989 42.42 2.37739 42.78C2.48989 43.0987 2.36989 43.4475 2.48614 43.7625C2.59114 44.0475 2.89489 44.2012 3.17989 44.25C3.74989 44.3437 4.30864 44.4262 4.87114 44.5875C5.19364 44.6812 5.49739 44.835 5.81239 44.9437C6.47989 45.1762 7.33864 45.0525 7.96489 44.73C8.21614 44.5987 8.42614 44.355 8.43364 44.0737C8.43739 43.9912 8.42239 43.905 8.44864 43.8262C8.47864 43.7325 8.55739 43.6687 8.62114 43.5937C8.84239 43.32 8.80864 42.9187 8.72989 42.5737C8.65114 42.2287 8.54239 41.865 8.65489 41.5312C8.72239 41.325 8.86489 41.1562 8.98864 40.9762C9.16114 40.7362 9.30364 40.47 9.36364 40.1812C9.37114 40.1475 9.37489 40.1137 9.37864 40.0762C9.41239 39.8175 9.36364 39.5437 9.20989 39.3337Z" fill="#607D8B"/>
<path id="Vector_7" d="M2.90265 43.1812C2.9889 43.8525 4.38765 44.2537 4.2564 43.3162C4.1739 42.75 3.83265 42.645 3.66765 42.3187C3.5289 42.12 3.4839 41.9625 3.62265 41.7562C3.7989 41.3925 3.92265 40.8525 3.63765 40.5675C3.08265 40.0575 2.22015 40.665 2.55015 41.3587C2.6889 41.655 3.17265 41.715 3.28515 42.0262C3.4389 42.4762 2.7864 42.7012 2.90265 43.1812ZM5.37015 37.665C5.4939 37.965 5.3964 38.4225 5.4864 38.7C5.6589 39.24 6.2439 39.15 6.51765 39.9337C6.6864 40.4175 6.7614 41.1637 6.2214 41.7075C6.05265 41.8762 5.76765 41.9437 5.64765 41.8462C5.2989 41.5875 5.29515 41.1862 5.4189 40.6275C5.44515 40.5112 5.36265 40.5037 5.3289 40.4587C5.0739 40.3125 4.8714 40.095 4.9239 39.78C5.00265 39.3075 5.45265 39.105 5.31765 38.7037C5.2314 38.4412 5.05515 38.2575 4.74015 38.2687C4.50765 38.2762 4.54515 38.4825 4.2339 38.6212C4.0164 38.7187 3.7239 38.3812 3.49515 38.4712C3.2664 38.5612 3.5214 39.315 3.03015 39.5175C2.84265 39.5962 2.65515 39.4087 2.57265 39.24C2.4339 38.9775 2.5239 38.5162 2.80515 38.3662C3.0414 38.235 3.24015 38.46 3.4689 38.31C3.69765 38.16 3.64515 37.5187 3.9339 37.2525C4.50765 36.7875 5.1789 37.05 5.37015 37.665Z" fill="#F44336"/>
<path id="Vector_8" opacity="0.5" d="M6.12021 29.9137C8.75646 26.5125 13.1215 25.5713 16.9915 24.2438C18.4127 23.7563 20.7565 22.8862 20.3965 21.3525C19.8677 19.095 15.4915 19.3913 13.7777 19.0875C9.74646 18.375 6.20271 16.5525 4.12146 13.0275C2.39271 10.3163 1.27521 4.17 5.43021 1.44C5.43021 1.44 2.82771 5.17875 7.97271 9.95625C13.7252 15.3 23.2915 11.37 29.794 15.57C37.564 21.0413 30.6752 27.1275 23.6477 28.215C20.4865 28.7063 17.314 29.1225 14.1602 29.5763C10.0652 30.1613 6.90021 31.0463 4.60146 34.7063C4.38396 32.97 5.03271 31.3013 6.12021 29.9137Z" fill="#BDBDBD"/>
<path id="Vector_9" d="M7.45129 36.735C7.75879 36.9 8.05504 37.2075 7.99504 37.5488C7.96879 37.7063 7.87129 37.8375 7.81129 37.9875C7.66129 38.3588 7.77754 38.82 8.08129 39.0788C8.34754 39.3 8.74129 39.3938 8.88379 39.7088C9.02254 40.0125 8.84629 40.3688 8.62129 40.62C8.32504 40.9538 7.84129 41.3363 7.87129 41.8313C7.88629 42.075 7.99504 42.3 8.12254 42.5063C8.18254 42.6 8.24629 42.6938 8.27629 42.8025C8.30629 42.9113 8.29879 43.035 8.22379 43.1175C8.16379 43.1813 8.07379 43.2075 7.99879 43.2563C7.81504 43.38 7.76629 43.6275 7.75879 43.8488C7.75129 44.055 7.79254 44.4488 7.64629 44.6175C7.52254 44.7638 6.85879 44.9625 6.67129 44.9625C7.15879 44.9625 8.08504 45.1613 8.32879 44.5913C8.37754 44.4788 8.38879 44.355 8.43754 44.2463C8.56504 43.9463 8.90254 43.8038 9.14254 43.5863C9.36754 43.38 9.51379 43.0875 9.54754 42.7838C9.57004 42.5663 9.53629 42.345 9.54379 42.1238C9.55879 41.5125 10.035 41.445 10.3875 41.04C10.5563 40.8488 10.6538 40.6013 10.68 40.3463C10.7025 40.155 10.6875 39.96 10.635 39.7725C10.515 39.3413 10.2188 38.9738 9.86629 38.7C9.52879 38.4375 9.09004 38.19 9.05629 37.7625C9.04504 37.6275 9.08254 37.4925 9.09004 37.3538C9.12004 36.7163 8.46754 36.5925 8.07754 36.4313C7.68754 36.27 6.63379 36.2888 6.63379 36.2888C6.87004 36.4875 7.17754 36.5888 7.45129 36.735Z" fill="#424242"/>
<path id="Vector_10" d="M36.1904 44.4625C36.1913 44.4613 36.1923 44.4601 36.1932 44.459C36.7793 43.7271 37.3173 42.5297 37.3173 40.6275C37.3173 38.7253 36.7793 37.5279 36.1932 36.796C36.1923 36.7949 36.1913 36.7937 36.1904 36.7925H44.3633C44.4008 36.8118 44.4522 36.8407 44.5137 36.881C44.6652 36.9805 44.8782 37.1502 45.0952 37.4211C45.5234 37.9559 45.9998 38.9259 45.9998 40.6275C45.9998 42.3291 45.5234 43.2991 45.0952 43.8338C44.8782 44.1048 44.6652 44.2745 44.5137 44.374C44.4522 44.4143 44.4008 44.4432 44.3633 44.4625H36.1904Z" fill="url(#paint1_linear_985_6031)" stroke="black"/>
</g>
<defs>
<linearGradient id="paint0_linear_985_6031" x1="26.6551" y1="47.4694" x2="26.6551" y2="42.0952" gradientUnits="userSpaceOnUse">
<stop stop-color="#BDBDBD"/>
<stop offset="1" stop-color="#BDBDBD" stop-opacity="0"/>
</linearGradient>
<linearGradient id="paint1_linear_985_6031" x1="40.6449" y1="47.4694" x2="40.6449" y2="42.0952" gradientUnits="userSpaceOnUse">
<stop stop-color="#A15D38"/>
<stop offset="1" stop-color="#A15D38" stop-opacity="0"/>
</linearGradient>
</defs>
</svg>
