<svg width="48" height="48" viewBox="0 0 48 48" fill="none" xmlns="http://www.w3.org/2000/svg">
<g id="noto:thread">
<path id="Vector" d="M11.2857 41.6595L11.2803 41.6497L11.275 41.6411L11.2753 41.6416C11.2753 41.6416 11.2751 41.6413 11.2747 41.6406L11.2693 41.6314C11.2639 41.6222 11.2552 41.6068 11.2438 41.5858C11.2211 41.5437 11.1881 41.4796 11.151 41.3973C11.0761 41.2316 10.987 40.9985 10.928 40.7285C10.8228 40.2465 10.8203 39.687 11.1211 39.167L36.4695 38.5215C36.5013 38.546 36.5389 38.5767 36.58 38.6137C36.716 38.7362 36.884 38.9214 37.0153 39.1723C37.2629 39.6454 37.4286 40.4424 36.7839 41.6694C36.6463 41.9299 36.2906 42.2463 35.6152 42.5666C34.9552 42.8796 34.057 43.1648 32.9387 43.4049C30.7044 43.8845 27.6585 44.17 24.0375 44.17C20.427 44.17 17.3401 43.7898 15.0819 43.262C13.9516 42.9979 13.0411 42.6996 12.381 42.4001C12.0508 42.2503 11.7934 42.1047 11.6055 41.9697C11.4123 41.8308 11.3211 41.7231 11.2857 41.6595Z" fill="#E6A467" stroke="black"/>
<path id="Vector_2" d="M11.2964 38.7623C11.2963 38.7624 11.2969 38.7606 11.2985 38.757C11.2974 38.7605 11.2965 38.7623 11.2964 38.7623ZM11.3387 38.6876C11.3497 38.6707 11.3631 38.6511 11.3792 38.6288C11.4647 38.5105 11.5962 38.3563 11.768 38.1732C12.1096 37.8092 12.5717 37.3714 13.0425 36.9447C13.5114 36.5195 13.9813 36.1123 14.3345 35.8109C14.5109 35.6603 14.6579 35.5364 14.7606 35.4503C14.8076 35.4109 14.8454 35.3794 14.8724 35.3569C15.1093 35.2521 15.5137 35.146 16.0859 35.0514C16.6865 34.9522 17.4294 34.8721 18.2719 34.8108C19.956 34.6883 22.0101 34.6424 24.0643 34.6606C26.1179 34.6788 28.1629 34.761 29.8278 34.8929C30.6606 34.9588 31.3932 35.0369 31.9818 35.1246C32.5277 35.206 32.9177 35.2915 33.1469 35.3714C33.1724 35.3919 33.2055 35.4187 33.2453 35.4509C33.3478 35.534 33.4945 35.6537 33.6706 35.7997C34.0233 36.0919 34.4923 36.488 34.9601 36.9052C35.4301 37.3243 35.89 37.7567 36.2292 38.1233C36.3997 38.3075 36.5293 38.4641 36.6133 38.5865C36.6376 38.622 36.6557 38.6512 36.6689 38.6745C36.6533 38.6943 36.6279 38.7223 36.5871 38.7584C36.4616 38.8697 36.2495 39.0037 35.9349 39.1497C35.31 39.4398 34.3783 39.7331 33.1965 39.9945C30.8394 40.5158 27.5685 40.8925 23.9585 40.8925C20.3485 40.8925 17.0986 40.5167 14.7626 39.996C13.5913 39.735 12.6705 39.442 12.0539 39.1523C11.7435 39.0064 11.5349 38.8727 11.4116 38.7619C11.3776 38.7313 11.3544 38.7065 11.3387 38.6876ZM36.6962 38.7305C36.6962 38.7305 36.6958 38.7296 36.6953 38.7277C36.696 38.7296 36.6962 38.7305 36.6962 38.7305Z" fill="#F7CF92" stroke="black"/>
<path id="Vector_3" d="M15.4554 34.8423L15.454 34.8417C15.24 34.7468 15.1025 34.534 15.1025 34.2975V11.4613H32.8975V34.2968C32.8974 34.4122 32.8639 34.525 32.8012 34.6219C32.7385 34.7186 32.6493 34.7952 32.5442 34.8425C31.6 35.2647 29.2133 35.9875 24 35.9875C18.786 35.9875 16.3994 35.2645 15.4554 34.8423Z" fill="url(#paint0_linear_985_6383)" stroke="black"/>
<path id="Vector_4" d="M14.6025 11.6325V10.8487L33.3975 11.6325C33.3975 12.93 29.19 13.9837 24 13.9837C18.81 13.9837 14.6025 12.93 14.6025 11.6325Z" fill="#0D47A1"/>
<path id="Vector_5" opacity="0.32" d="M14.5314 34.9912C13.8564 36.7762 14.2989 38.6213 15.2776 40.26C16.2564 41.8988 17.7076 43.1925 19.1626 44.4337C18.2064 44.4862 17.2726 44.1075 16.4551 43.6088C14.0701 42.1425 12.5626 39.7013 12.3076 36.915" fill="url(#paint1_radial_985_6383)"/>
<path id="Vector_6" d="M27.6785 46.875C24.791 46.875 22.151 46.4962 19.8523 45.7387C15.941 44.4525 13.2335 42.135 12.2323 39.2137C10.6273 34.5337 14.141 25.875 16.031 21.225C16.5148 20.0362 16.8935 19.0987 17.0473 18.585C17.0677 18.5158 17.1016 18.4513 17.1469 18.3952C17.1923 18.3391 17.2483 18.2925 17.3116 18.258C17.375 18.2235 17.4446 18.2019 17.5163 18.1943C17.5881 18.1867 17.6606 18.1933 17.7298 18.2137C17.799 18.2342 17.8635 18.2681 17.9196 18.3134C17.9757 18.3588 18.0223 18.4147 18.0568 18.4781C18.0912 18.5415 18.1129 18.611 18.1205 18.6828C18.1281 18.7545 18.1215 18.8271 18.101 18.8962C17.9323 19.4625 17.5423 20.4225 17.051 21.6375C15.2173 26.1562 11.8048 34.5638 13.2785 38.8575C14.9098 43.6125 22.3873 47.76 35.2873 45.1612C35.5835 45.105 35.9623 45.105 36.0898 45.3787C36.2323 45.6825 35.9585 45.9675 35.6585 46.0275C32.8498 46.5937 30.1723 46.875 27.6785 46.875Z" fill="#0091EA"/>
<path id="Vector_7" d="M14.6023 10.9612C14.6023 10.9612 12.4198 9.83625 10.8223 8.18625L36.851 8.53125C35.846 10.02 33.3935 11.5725 33.3935 11.5725C33.3935 11.5725 31.6873 12.4162 23.8348 12.4162C15.9823 12.4162 14.6023 10.9612 14.6023 10.9612Z" fill="#C87D5E"/>
<path id="Vector_8" d="M11.1408 7.8008L11.1408 7.80082C11.8456 8.38323 13.2114 8.91173 15.3772 9.28686C17.5228 9.65852 20.3841 9.86875 24.0111 9.86875C27.639 9.86875 30.6673 9.66218 32.8973 9.29191C34.0134 9.10658 34.914 8.88271 35.5841 8.63044C36.2731 8.37104 36.6416 8.10941 36.7911 7.89826C37.0763 7.49264 37.2884 6.66041 37.2584 5.84346C37.2438 5.44439 37.1721 5.08992 37.051 4.82356C36.9312 4.55993 36.7812 4.41775 36.6196 4.35703C36.2123 4.2053 35.5431 4.06576 34.6471 3.947C33.7602 3.82946 32.6831 3.73613 31.4792 3.66597C29.0719 3.52568 26.1793 3.4792 23.3307 3.51262C20.482 3.54604 17.6856 3.65927 15.4711 3.83712C14.3631 3.92611 13.4076 4.03073 12.667 4.14831C12.2965 4.20713 11.9862 4.26821 11.7406 4.33045C11.4904 4.39387 11.3361 4.45158 11.2568 4.49438M11.1408 7.8008L11.2538 4.49601C11.2548 4.49547 11.2558 4.49493 11.2568 4.49438M11.1408 7.8008C10.9968 7.68183 10.8719 7.46092 10.7997 7.12094C10.7289 6.78703 10.7204 6.38847 10.7639 5.9874C10.8074 5.58717 10.9 5.20882 11.0139 4.91953C11.0709 4.77475 11.1289 4.66319 11.1813 4.58568C11.2289 4.51537 11.2571 4.49476 11.2568 4.49439C11.2568 4.49438 11.2568 4.49438 11.2568 4.49438M11.1408 7.8008L11.2568 4.49438" fill="#E6A467" stroke="black"/>
<path id="Vector_9" d="M36.6885 4.5075C36.6885 4.51065 36.6884 4.52327 36.6748 4.54992C36.6601 4.57887 36.63 4.62306 36.5715 4.68012C36.4512 4.79745 36.2469 4.93457 35.9387 5.08001C35.3249 5.36968 34.4048 5.6437 33.2278 5.87863C30.882 6.34685 27.6192 6.64 23.9998 6.64C20.3804 6.64 17.1176 6.34685 14.7718 5.87863C13.5948 5.6437 12.6747 5.36968 12.0609 5.08001C11.7527 4.93457 11.5484 4.79745 11.4281 4.68012C11.3696 4.62306 11.3395 4.57887 11.3248 4.54992C11.3112 4.52327 11.311 4.51065 11.311 4.5075C11.311 4.50435 11.3112 4.49173 11.3248 4.46508C11.3395 4.43613 11.3696 4.39194 11.4281 4.33488C11.5484 4.21755 11.7527 4.08043 12.0609 3.93499C12.6747 3.64532 13.5948 3.3713 14.7718 3.13637C17.1176 2.66815 20.3804 2.375 23.9998 2.375C27.6192 2.375 30.882 2.66815 33.2278 3.13637C34.4048 3.3713 35.3249 3.64532 35.9387 3.93499C36.2469 4.08043 36.4512 4.21755 36.5715 4.33488C36.63 4.39194 36.6601 4.43613 36.6748 4.46508C36.6884 4.49173 36.6885 4.50435 36.6885 4.5075Z" fill="#F7CF92" stroke="black"/>
<path id="Vector_10" d="M23.9998 4.96875C25.6856 4.96875 27.0523 4.55405 27.0523 4.0425C27.0523 3.53095 25.6856 3.11625 23.9998 3.11625C22.3139 3.11625 20.9473 3.53095 20.9473 4.0425C20.9473 4.55405 22.3139 4.96875 23.9998 4.96875Z" fill="#784D30"/>
<path id="Vector_11" d="M14.73 14.175V12.8962C16.4287 13.9837 18.51 14.7225 22.8225 14.7412L22.7025 15.9337C18.7162 16.0837 16.1362 15.4537 14.73 14.175Z" fill="url(#paint2_linear_985_6383)"/>
<path id="Vector_12" d="M14.7302 17.3775L14.7114 16.0612C16.3389 17.1375 18.4727 17.8912 22.8264 17.9137L22.7289 19.1062C18.6602 19.3012 16.0914 18.5512 14.7302 17.3775Z" fill="url(#paint3_linear_985_6383)"/>
<path id="Vector_13" d="M14.7263 20.58L14.6851 19.2262C16.2413 20.295 18.4276 21.06 22.8226 21.0825L22.7476 22.275C18.6001 22.5188 16.0463 21.6525 14.7263 20.58Z" fill="url(#paint4_linear_985_6383)"/>
<path id="Vector_14" d="M14.726 23.7863L14.666 22.395C16.151 23.4525 18.3935 24.2325 22.8223 24.255L22.766 25.4475C18.5398 25.7363 16.001 24.75 14.726 23.7863Z" fill="url(#paint5_linear_985_6383)"/>
<path id="Vector_15" d="M14.7262 26.9888L14.6475 25.5638C16.0612 26.61 18.3562 27.405 22.8262 27.4313L22.7925 28.6238C18.4837 28.9538 15.9562 27.8475 14.7262 26.9888Z" fill="url(#paint6_linear_985_6383)"/>
<path id="Vector_16" d="M14.7225 30.1913L14.625 28.7288C15.9675 29.7675 18.3187 30.5738 22.8263 30.6L22.815 31.7925C18.4238 32.1675 15.9075 30.945 14.7225 30.1913Z" fill="url(#paint7_linear_985_6383)"/>
<path id="Vector_17" d="M14.7225 33.3938L14.6025 31.8938C15.8738 32.9213 18.2775 33.7425 22.8225 33.7688L22.83 34.9613C18.3675 35.385 15.8625 34.0425 14.7225 33.3938Z" fill="url(#paint8_linear_985_6383)"/>
<path id="Vector_18" d="M33.3976 14.04V12.885C31.6988 13.9725 29.5726 14.7225 25.2563 14.7413L25.3763 15.9338C29.5726 16.0088 31.9238 15.5063 33.3976 14.04Z" fill="url(#paint9_linear_985_6383)"/>
<path id="Vector_19" d="M33.3901 17.265L33.3976 16.0537C31.7251 17.1075 29.6101 17.8875 25.2563 17.91L25.3763 19.1025C29.5088 19.2375 31.9651 18.615 33.3901 17.265Z" fill="url(#paint10_linear_985_6383)"/>
<path id="Vector_20" d="M33.3863 20.49L33.3976 19.2262C31.7513 20.2462 29.6476 21.06 25.2563 21.0825L25.3726 22.275C29.4451 22.47 32.0063 21.7237 33.3863 20.49Z" fill="url(#paint11_linear_985_6383)"/>
<path id="Vector_21" d="M33.3788 23.715L33.3976 22.395C31.7776 23.3813 29.6888 24.2288 25.2563 24.2513L25.3726 25.4438C29.3813 25.6988 32.0476 24.8325 33.3788 23.715Z" fill="url(#paint12_linear_985_6383)"/>
<path id="Vector_22" d="M33.3713 26.9437L33.3976 25.5713C31.8038 26.5238 29.7263 27.4012 25.2563 27.4275L25.3726 28.62C29.3176 28.9312 32.0888 27.9412 33.3713 26.9437Z" fill="url(#paint13_linear_985_6383)"/>
<path id="Vector_23" d="M33.3638 30.1687L33.3976 28.74C31.8263 29.6587 29.7638 30.57 25.2563 30.5962L25.3726 31.7887C29.2538 32.16 32.1338 31.05 33.3638 30.1687Z" fill="url(#paint14_linear_985_6383)"/>
<path id="Vector_24" d="M33.3601 33.3938L33.3976 31.9125C31.8526 32.7975 29.8013 33.7425 25.2563 33.7688L25.3726 34.9613C29.1901 35.3925 32.1751 34.1588 33.3601 33.3938Z" fill="url(#paint15_linear_985_6383)"/>
</g>
<defs>
<linearGradient id="paint0_linear_985_6383" x1="29.052" y1="23.724" x2="33.4527" y2="23.724" gradientUnits="userSpaceOnUse">
<stop offset="0.038" stop-color="#0091EA"/>
<stop offset="1" stop-color="#01579B"/>
</linearGradient>
<radialGradient id="paint1_radial_985_6383" cx="0" cy="0" r="1" gradientUnits="userSpaceOnUse" gradientTransform="translate(16.5306 39.2434) rotate(-28.4281) scale(3.31041 7.00233)">
<stop offset="0.59" stop-color="#784D30" stop-opacity="0"/>
<stop offset="0.834" stop-color="#784D30"/>
</radialGradient>
<linearGradient id="paint2_linear_985_6383" x1="14.7304" y1="14.4255" x2="22.824" y2="14.4255" gradientUnits="userSpaceOnUse">
<stop offset="0.019" stop-color="#40C4FF" stop-opacity="0"/>
<stop offset="0.49" stop-color="#40C4FF"/>
<stop offset="0.994" stop-color="#40C4FF" stop-opacity="0"/>
</linearGradient>
<linearGradient id="paint3_linear_985_6383" x1="14.7092" y1="17.5995" x2="22.8242" y2="17.5995" gradientUnits="userSpaceOnUse">
<stop offset="0.019" stop-color="#40C4FF" stop-opacity="0"/>
<stop offset="0.49" stop-color="#40C4FF"/>
<stop offset="0.994" stop-color="#40C4FF" stop-opacity="0"/>
</linearGradient>
<linearGradient id="paint4_linear_985_6383" x1="14.6877" y1="20.7731" x2="22.8241" y2="20.7731" gradientUnits="userSpaceOnUse">
<stop offset="0.019" stop-color="#40C4FF" stop-opacity="0"/>
<stop offset="0.49" stop-color="#40C4FF"/>
<stop offset="0.994" stop-color="#40C4FF" stop-opacity="0"/>
</linearGradient>
<linearGradient id="paint5_linear_985_6383" x1="14.666" y1="23.9471" x2="22.8238" y2="23.9471" gradientUnits="userSpaceOnUse">
<stop offset="0.019" stop-color="#40C4FF" stop-opacity="0"/>
<stop offset="0.49" stop-color="#40C4FF"/>
<stop offset="0.994" stop-color="#40C4FF" stop-opacity="0"/>
</linearGradient>
<linearGradient id="paint6_linear_985_6383" x1="14.6448" y1="27.1211" x2="22.824" y2="27.1211" gradientUnits="userSpaceOnUse">
<stop offset="0.019" stop-color="#40C4FF" stop-opacity="0"/>
<stop offset="0.49" stop-color="#40C4FF"/>
<stop offset="0.994" stop-color="#40C4FF" stop-opacity="0"/>
</linearGradient>
<linearGradient id="paint7_linear_985_6383" x1="14.6239" y1="30.2951" x2="22.824" y2="30.2951" gradientUnits="userSpaceOnUse">
<stop offset="0.019" stop-color="#40C4FF" stop-opacity="0"/>
<stop offset="0.49" stop-color="#40C4FF"/>
<stop offset="0.994" stop-color="#40C4FF" stop-opacity="0"/>
</linearGradient>
<linearGradient id="paint8_linear_985_6383" x1="14.6025" y1="33.4691" x2="22.833" y2="33.4691" gradientUnits="userSpaceOnUse">
<stop offset="0.019" stop-color="#40C4FF" stop-opacity="0"/>
<stop offset="0.49" stop-color="#40C4FF"/>
<stop offset="0.994" stop-color="#40C4FF" stop-opacity="0"/>
</linearGradient>
<linearGradient id="paint9_linear_985_6383" x1="25.5728" y1="14.4128" x2="33.4501" y2="14.4128" gradientUnits="userSpaceOnUse">
<stop stop-color="#01579B" stop-opacity="0"/>
<stop offset="1" stop-color="#01579B"/>
</linearGradient>
<linearGradient id="paint10_linear_985_6383" x1="25.6441" y1="17.5894" x2="33.4148" y2="17.5894" gradientUnits="userSpaceOnUse">
<stop stop-color="#01579B" stop-opacity="0"/>
<stop offset="1" stop-color="#01579B"/>
</linearGradient>
<linearGradient id="paint11_linear_985_6383" x1="25.715" y1="20.7671" x2="33.3792" y2="20.7671" gradientUnits="userSpaceOnUse">
<stop stop-color="#01579B" stop-opacity="0"/>
<stop offset="1" stop-color="#01579B"/>
</linearGradient>
<linearGradient id="paint12_linear_985_6383" x1="25.7858" y1="23.9453" x2="33.344" y2="23.9453" gradientUnits="userSpaceOnUse">
<stop stop-color="#01579B" stop-opacity="0"/>
<stop offset="1" stop-color="#01579B"/>
</linearGradient>
<linearGradient id="paint13_linear_985_6383" x1="25.8567" y1="27.1241" x2="33.3087" y2="27.1241" gradientUnits="userSpaceOnUse">
<stop stop-color="#01579B" stop-opacity="0"/>
<stop offset="1" stop-color="#01579B"/>
</linearGradient>
<linearGradient id="paint14_linear_985_6383" x1="25.928" y1="30.303" x2="33.2731" y2="30.303" gradientUnits="userSpaceOnUse">
<stop stop-color="#01579B" stop-opacity="0"/>
<stop offset="1" stop-color="#01579B"/>
</linearGradient>
<linearGradient id="paint15_linear_985_6383" x1="25.9988" y1="33.4819" x2="33.2378" y2="33.4819" gradientUnits="userSpaceOnUse">
<stop stop-color="#01579B" stop-opacity="0"/>
<stop offset="1" stop-color="#01579B"/>
</linearGradient>
</defs>
</svg>
