<svg width="16" height="17" viewBox="0 0 16 17" fill="none" xmlns="http://www.w3.org/2000/svg">
<g id="lucide:image-plus">
<g id="Group">
<path id="Vector" d="M14 8.50004V13.1667C14 13.5203 13.8595 13.8595 13.6095 14.1095C13.3594 14.3596 13.0203 14.5 12.6667 14.5H3.33333C2.97971 14.5 2.64057 14.3596 2.39052 14.1095C2.14048 13.8595 2 13.5203 2 13.1667V3.83337C2 3.47975 2.14048 3.14061 2.39052 2.89056C2.64057 2.64052 2.97971 2.50004 3.33333 2.50004H8M10.6667 3.83337H14.6667M12.6667 1.83337V5.83337" stroke="#FB5607" stroke-linecap="round" stroke-linejoin="round"/>
<path id="Vector_2" d="M6.00002 7.83341C6.7364 7.83341 7.33335 7.23646 7.33335 6.50008C7.33335 5.7637 6.7364 5.16675 6.00002 5.16675C5.26364 5.16675 4.66669 5.7637 4.66669 6.50008C4.66669 7.23646 5.26364 7.83341 6.00002 7.83341Z" stroke="#FB5607" stroke-linecap="round" stroke-linejoin="round"/>
<path id="Vector_3" d="M14 10.5001L11.9427 8.44275C11.6926 8.19279 11.3536 8.05237 11 8.05237C10.6464 8.05237 10.3074 8.19279 10.0573 8.44275L4 14.5001" stroke="#FB5607" stroke-linecap="round" stroke-linejoin="round"/>
</g>
</g>
</svg>
