<svg width="48" height="48" viewBox="0 0 48 48" fill="none" xmlns="http://www.w3.org/2000/svg">
<g id="noto:optical-disk">
<path id="Vector" d="M20.5464 2.91C8.91017 4.815 1.00142 15.8175 2.91017 27.4537C4.81892 39.09 15.8214 46.995 27.4577 45.09C39.0939 43.185 46.9989 32.1787 45.0939 20.5425C43.1852 8.91 32.1827 1.00125 20.5464 2.91ZM24.8627 29.2725C21.9452 29.7487 19.2039 27.78 18.7277 24.8625C18.2514 21.945 20.2202 19.2037 23.1377 18.7275C26.0552 18.2512 28.7964 20.22 29.2727 23.1375C29.7864 26.0475 27.8177 28.7887 24.8627 29.2725Z" fill="#B9E4EA"/>
<path id="Vector_2" d="M4.03857 16.3538L18.7686 22.8713C18.7686 22.8713 18.9073 22.3237 19.1623 21.7275C19.4173 21.1313 19.8261 20.6513 19.8261 20.6513L6.71232 11.4188C6.71232 11.4188 5.97357 12.4275 5.19732 13.83C4.42482 15.2363 4.03857 16.3538 4.03857 16.3538Z" fill="url(#paint0_linear_985_6342)"/>
<path id="Vector_3" d="M23.4487 18.6863L16.7999 3.87375C16.7999 3.87375 14.1149 4.71375 11.2574 6.84C8.47865 8.91 6.7124 11.4188 6.7124 11.4188L19.8262 20.6513C19.8262 20.6513 20.3249 19.9688 21.3449 19.3575C22.3649 18.7463 23.4487 18.6863 23.4487 18.6863Z" fill="url(#paint1_linear_985_6342)"/>
<path id="Vector_4" d="M2.75635 21.6412L18.6563 24.4575C18.6563 24.4575 18.6451 23.9962 18.6826 23.4487C18.7238 22.9012 18.8551 22.5412 18.8551 22.5412L3.77635 17.0887C3.77635 17.0887 3.43135 17.9475 3.1351 19.275C2.83885 20.6025 2.75635 21.6412 2.75635 21.6412Z" fill="url(#paint2_linear_985_6342)"/>
<path id="Vector_5" d="M19.4776 21.1462C19.8301 20.55 20.3326 20.1075 20.3326 20.1075L8.24637 9.56625C8.24637 9.56625 6.88512 11.0213 5.67012 13.0613C4.27887 15.3975 3.77637 17.0887 3.77637 17.0887L18.8551 22.5412C18.8551 22.5412 19.0501 21.8737 19.4776 21.1462Z" fill="url(#paint3_linear_985_6342)"/>
<path id="Vector_6" d="M10.6499 7.2975C9.19111 8.44125 8.04736 9.76125 8.04736 9.76125L19.7999 20.6588C19.7999 20.6588 20.2199 20.1713 20.7749 19.74C21.3299 19.3088 21.9186 19.0763 21.9186 19.0763L13.8449 5.19C13.8449 5.19 12.1049 6.15375 10.6499 7.2975Z" fill="url(#paint4_linear_985_6342)"/>
<path id="Vector_7" d="M25.9013 19.005L22.6051 2.67375C22.6051 2.67375 20.4676 2.7975 18.2663 3.40875C15.9563 4.05375 13.8413 5.19 13.8413 5.19L21.9151 19.0687C21.9151 19.0687 22.8451 18.66 23.9326 18.6525C25.0201 18.645 25.9013 19.005 25.9013 19.005Z" fill="url(#paint5_linear_985_6342)"/>
<path id="Vector_8" d="M43.02 14.2537L28.4775 20.9738C29.8538 22.9613 29.355 24.8662 29.355 24.8662L45.3225 22.5413C45.1425 19.095 43.9125 15.9937 43.02 14.2537Z" fill="url(#paint6_linear_985_6342)"/>
<path id="Vector_9" d="M38.7824 8.5725L26.7637 19.4288C27.4087 19.8188 28.0424 20.3438 28.4774 20.9738L43.0199 14.2537C42.2999 12.8775 40.8524 10.515 38.7824 8.5725Z" fill="url(#paint7_linear_985_6342)"/>
<path id="Vector_10" d="M19.8563 27.3713L5.94385 35.4375C7.14775 37.3276 8.64093 39.0169 10.3688 40.4438L21.7876 28.8675C21.0413 28.5263 20.3813 28.0125 19.8563 27.3713Z" fill="url(#paint8_linear_985_6342)"/>
<path id="Vector_11" d="M18.7274 24.8625C18.6622 24.4686 18.6433 24.0683 18.6712 23.67L2.85742 27.0787C2.87617 27.2025 2.88742 27.33 2.90992 27.4537C3.38992 30.3825 4.44742 33.0787 5.94742 35.4375L19.8599 27.3712C19.2862 26.6737 18.8849 25.8225 18.7274 24.8625Z" fill="url(#paint9_linear_985_6342)"/>
<path id="Vector_12" d="M43.9351 31.2412L29.2576 25.1362C29.2576 25.1362 29.1301 25.6837 28.8826 26.2875C28.6351 26.8912 28.2339 27.375 28.2339 27.375L41.3439 36.2175C41.3439 36.2175 42.0676 35.1975 42.8176 33.78C43.5676 32.3625 43.9351 31.2412 43.9351 31.2412Z" fill="url(#paint10_linear_985_6342)"/>
<path id="Vector_13" d="M24.645 29.4L31.38 43.9313C31.38 43.9313 34.05 43.0463 36.8738 40.8713C39.6225 38.7525 41.3475 36.2138 41.3475 36.2138L28.2375 27.3713C28.2375 27.3713 27.75 28.0613 26.7413 28.6875C25.7288 29.3175 24.645 29.4 24.645 29.4Z" fill="url(#paint11_linear_985_6342)"/>
<path id="Vector_14" d="M45.1311 25.9313L29.4261 23.5163C29.4261 23.5163 29.4448 23.9775 29.4148 24.525C29.3848 25.0725 29.2573 25.4363 29.2573 25.4363L44.1861 30.5025C44.1861 30.5025 44.5161 29.64 44.7898 28.305C45.0673 26.97 45.1311 25.9313 45.1311 25.9313Z" fill="url(#paint12_linear_985_6342)"/>
<path id="Vector_15" d="M28.6727 26.8387C28.3314 27.4425 27.8364 27.8925 27.8364 27.8925L39.8477 38.0962C39.8477 38.0962 41.1827 36.6188 42.3639 34.56C43.7177 32.2013 44.1902 30.5025 44.1902 30.5025L29.2689 25.4363C29.2689 25.4363 29.0889 26.1037 28.6727 26.8387Z" fill="url(#paint13_linear_985_6342)"/>
<path id="Vector_16" d="M37.4774 40.4063C38.9174 39.24 40.0387 37.8975 40.0387 37.8975L28.1887 27.3713C28.1887 27.3713 27.8812 27.8175 27.3337 28.26C26.7862 28.6988 26.0137 28.9538 26.0137 28.9538L34.3199 42.5625C34.3199 42.5625 36.0412 41.5725 37.4774 40.4063Z" fill="url(#paint14_linear_985_6342)"/>
<path id="Vector_17" d="M22.0312 29.0888L25.5975 45.2288C25.5975 45.2288 27.735 45.0713 29.9213 44.4188C32.22 43.7363 34.3163 42.5625 34.3163 42.5625L26.0138 28.9538C26.0138 28.9538 25.0913 29.3775 24.0038 29.4038C22.9163 29.43 22.0312 29.0888 22.0312 29.0888Z" fill="url(#paint15_linear_985_6342)"/>
<path id="Vector_18" opacity="0.4" d="M23.9999 15.45C19.2111 15.45 15.3599 19.26 15.3599 24C15.3599 28.74 19.2111 32.55 23.9999 32.55C28.7886 32.55 32.6399 28.7363 32.6399 24C32.6399 19.2638 28.7886 15.45 23.9999 15.45ZM23.9999 29.3063C21.0111 29.3063 18.5999 26.9213 18.5999 23.9625C18.5999 21.0038 21.0111 18.615 23.9999 18.6188C26.9886 18.6225 29.3999 21.0038 29.3999 23.9625C29.4336 26.9213 27.0224 29.3063 23.9999 29.3063Z" fill="#6C9EB4"/>
<path id="Vector_19" d="M24.0002 3.6975C35.1864 3.6975 44.3027 12.8175 44.3027 24C44.3027 35.1825 35.1864 44.3025 24.0002 44.3025C12.8139 44.3025 3.69766 35.1863 3.69766 24C3.69766 12.8137 12.8139 3.6975 24.0002 3.6975ZM24.0002 30.4125C27.5252 30.4125 30.4127 27.5287 30.4127 24C30.4127 20.4713 27.5252 17.5875 24.0002 17.5875C20.4752 17.5875 17.5877 20.475 17.5877 24C17.5877 27.525 20.4752 30.4125 24.0002 30.4125ZM24.0002 2.62875C12.2102 2.62875 2.62891 12.21 2.62891 24C2.62891 35.79 12.2102 45.3713 24.0002 45.3713C35.7902 45.3713 45.3714 35.79 45.3714 24C45.3714 12.21 35.7902 2.62875 24.0002 2.62875ZM24.0002 29.3438C21.0452 29.3438 18.6564 26.9587 18.6564 24C18.6564 21.0413 21.0452 18.6562 24.0002 18.6562C26.9552 18.6562 29.3439 21.045 29.3439 24C29.3777 26.955 26.9927 29.3438 24.0002 29.3438Z" fill="#0B0B0B"/>
</g>
<defs>
<linearGradient id="paint0_linear_985_6342" x1="12.9962" y1="16.6841" x2="11.6357" y2="18.882" gradientUnits="userSpaceOnUse">
<stop stop-color="#FFF9C4" stop-opacity="0.6"/>
<stop offset="0.95" stop-color="#FFF9C4" stop-opacity="0"/>
</linearGradient>
<linearGradient id="paint1_linear_985_6342" x1="14.3028" y1="15.339" x2="18.3494" y2="11.8856" gradientUnits="userSpaceOnUse">
<stop stop-color="#FFF9C4" stop-opacity="0.6"/>
<stop offset="0.989" stop-color="#FFF9C4" stop-opacity="0.01"/>
<stop offset="1" stop-color="#FFF9C4" stop-opacity="0"/>
</linearGradient>
<linearGradient id="paint2_linear_985_6342" x1="11.1862" y1="20.2863" x2="10.671" y2="23.0282" gradientUnits="userSpaceOnUse">
<stop stop-color="#FFC2C8" stop-opacity="0.8"/>
<stop offset="0.93" stop-color="#FFCDD2" stop-opacity="0"/>
</linearGradient>
<linearGradient id="paint3_linear_985_6342" x1="11.4867" y1="18.9138" x2="14.4831" y2="14.4965" gradientUnits="userSpaceOnUse">
<stop stop-color="#FFC2C8" stop-opacity="0.8"/>
<stop offset="0.93" stop-color="#FFCDD2" stop-opacity="0"/>
</linearGradient>
<linearGradient id="paint4_linear_985_6342" x1="17.0594" y1="12.5993" x2="14.7569" y2="14.3258" gradientUnits="userSpaceOnUse">
<stop stop-color="#80DEEA" stop-opacity="0.5"/>
<stop offset="0.926" stop-color="#80DEEA" stop-opacity="0"/>
</linearGradient>
<linearGradient id="paint5_linear_985_6342" x1="20.0269" y1="11.7585" x2="23.7942" y2="10.7471" gradientUnits="userSpaceOnUse">
<stop stop-color="#80DEEA" stop-opacity="0.5"/>
<stop offset="0.947" stop-color="#80DEEA" stop-opacity="0"/>
</linearGradient>
<linearGradient id="paint6_linear_985_6342" x1="36.2003" y1="18.6502" x2="37.2642" y2="22.662" gradientUnits="userSpaceOnUse">
<stop stop-color="white" stop-opacity="0.5"/>
<stop offset="0.907" stop-color="white" stop-opacity="0"/>
</linearGradient>
<linearGradient id="paint7_linear_985_6342" x1="35.0215" y1="17.0554" x2="34.1669" y2="15.5554" gradientUnits="userSpaceOnUse">
<stop stop-color="white" stop-opacity="0.5"/>
<stop offset="0.907" stop-color="white" stop-opacity="0"/>
</linearGradient>
<linearGradient id="paint8_linear_985_6342" x1="13.5537" y1="31.6455" x2="14.0071" y2="32.3779" gradientUnits="userSpaceOnUse">
<stop stop-color="white" stop-opacity="0.5"/>
<stop offset="0.907" stop-color="white" stop-opacity="0"/>
</linearGradient>
<linearGradient id="paint9_linear_985_6342" x1="12.2185" y1="30.2588" x2="10.8232" y2="26.1079" gradientUnits="userSpaceOnUse">
<stop stop-color="white" stop-opacity="0.5"/>
<stop offset="0.907" stop-color="white" stop-opacity="0"/>
</linearGradient>
<linearGradient id="paint10_linear_985_6342" x1="35.0728" y1="31.118" x2="36.3964" y2="28.8981" gradientUnits="userSpaceOnUse">
<stop stop-color="#FFF9C4" stop-opacity="0.6"/>
<stop offset="0.95" stop-color="#FFF9C4" stop-opacity="0"/>
</linearGradient>
<linearGradient id="paint11_linear_985_6342" x1="33.7698" y1="32.5147" x2="29.7818" y2="36.0352" gradientUnits="userSpaceOnUse">
<stop stop-color="#FFF9C4" stop-opacity="0.6"/>
<stop offset="0.989" stop-color="#FFF9C4" stop-opacity="0.01"/>
<stop offset="1" stop-color="#FFF9C4" stop-opacity="0"/>
</linearGradient>
<linearGradient id="paint12_linear_985_6342" x1="36.8506" y1="27.4489" x2="37.3197" y2="24.6985" gradientUnits="userSpaceOnUse">
<stop stop-color="#FFC2C8" stop-opacity="0.8"/>
<stop offset="0.93" stop-color="#FFCDD2" stop-opacity="0"/>
</linearGradient>
<linearGradient id="paint13_linear_985_6342" x1="36.5653" y1="28.8824" x2="33.643" y2="33.3486" gradientUnits="userSpaceOnUse">
<stop stop-color="#FFC2C8" stop-opacity="0.8"/>
<stop offset="0.93" stop-color="#FFCDD2" stop-opacity="0"/>
</linearGradient>
<linearGradient id="paint14_linear_985_6342" x1="31.0158" y1="35.2559" x2="33.2887" y2="33.4908" gradientUnits="userSpaceOnUse">
<stop stop-color="#80DEEA" stop-opacity="0.5"/>
<stop offset="0.926" stop-color="#80DEEA" stop-opacity="0"/>
</linearGradient>
<linearGradient id="paint15_linear_985_6342" x1="28.0483" y1="36.1658" x2="24.2984" y2="37.2403" gradientUnits="userSpaceOnUse">
<stop stop-color="#80DEEA" stop-opacity="0.5"/>
<stop offset="0.947" stop-color="#80DEEA" stop-opacity="0"/>
</linearGradient>
</defs>
</svg>
