<svg width="48" height="48" viewBox="0 0 48 48" fill="none" xmlns="http://www.w3.org/2000/svg">
<g id="meat">
<g id="Group">
<path id="Vector" d="M41.3643 24.8089L41.3624 24.8109C39.9314 26.2578 39.04 28.1665 38.8648 30.1894C38.5449 33.8826 36.9308 37.3575 34.3143 39.974C28.2692 46.0041 18.4458 46.0033 12.4164 39.974L8.04611 35.6036L10.0903 33.5722L10.2642 33.3994L10.2341 33.1561C9.66708 28.5763 11.1358 23.7817 14.6364 20.2811C17.2529 17.6646 20.7278 16.0505 24.421 15.7306C26.4423 15.5556 28.3675 14.665 29.8014 13.2311L30.0714 12.9611L30.0715 12.9611L30.0751 12.9574C30.7561 12.2622 31.524 11.7068 32.3536 11.2635L32.419 11.2285L32.4714 11.1761L37.2629 6.38461L41.6343 10.7561C45.4291 14.5508 45.4291 20.7442 41.6343 24.539L41.3643 24.8089Z" fill="url(#paint0_linear_985_5765)" stroke="black"/>
<path id="Vector_2" d="M35.6594 19.1025L35.9294 18.8325C39.0194 15.7425 39.0194 10.7325 35.9294 7.6575C32.8394 4.5675 27.8294 4.5675 24.7544 7.6575L24.4844 7.9275C22.7352 9.67596 20.4239 10.7493 17.9594 10.9575C14.6963 11.2399 11.6372 12.6633 9.31943 14.9775C3.99443 20.3025 3.99443 28.9425 9.31943 34.2675C14.6444 39.5925 23.2844 39.5925 28.6094 34.2675C30.9237 31.9498 32.347 28.8906 32.6294 25.6275C32.8394 23.1675 33.9194 20.8575 35.6594 19.1025Z" fill="url(#paint1_linear_985_5765)"/>
<path id="Vector_3" d="M34.4546 25.7794L34.4546 25.7798C34.1375 29.4769 32.5321 32.9453 29.9187 35.5795C23.873 41.6096 14.0503 41.6224 8.02175 35.5794C1.99121 29.5343 1.99182 19.7106 8.02133 13.6811C10.6376 11.0648 14.1128 9.45025 17.792 9.11554C19.8129 8.94024 21.7376 8.04973 23.1713 6.61605L23.4413 6.34605C27.2361 2.55132 33.4295 2.55132 37.2242 6.34605C41.019 10.1408 41.019 16.3342 37.2242 20.1289L36.9542 20.3989L36.9523 20.4009C35.5213 21.8478 34.6298 23.7565 34.4546 25.7794ZM17.9152 10.4593L17.9146 10.4594C15.5843 10.6613 13.3473 11.4225 11.3898 12.6654L11.3898 12.6654L11.3868 12.6673C9.92323 13.6109 10.0475 15.8153 11.6406 16.5553C11.6413 16.5556 11.6419 16.5559 11.6425 16.5562L19.0188 20.0494L19.1204 20.0975H19.1366C20.7561 20.8161 22.6578 20.5246 23.9363 19.2461L25.0463 18.1361C25.8781 17.3043 26.2011 16.0792 25.8615 14.9531C25.6425 14.2264 25.6241 13.454 25.8082 12.7176C25.9923 11.9813 26.372 11.3084 26.9072 10.7702C27.3106 10.3648 27.7933 10.0468 28.325 9.83598C28.8567 9.62519 29.4261 9.52613 29.9977 9.54498C30.5694 9.56383 31.1311 9.70017 31.6477 9.94552C32.1644 10.1909 32.625 10.54 33.0009 10.9711L33.0009 10.9711L33.0039 10.9745C34.3799 12.5241 34.3819 14.9097 33.0029 16.4766C31.8622 17.7645 30.148 18.179 28.6491 17.7244C28.0934 17.5529 27.5014 17.5368 26.9372 17.6778C26.373 17.8189 25.8582 18.1117 25.4486 18.5246C25.4483 18.5249 25.448 18.5252 25.4477 18.5255L24.3542 19.6189C23.0758 20.8974 22.7837 22.8142 23.5178 24.4351V24.4356L23.5227 24.4458C23.5268 24.4549 23.531 24.464 23.5352 24.4731C23.547 24.5048 23.5612 24.5333 23.5763 24.5586C23.5765 24.5588 23.5766 24.559 23.5767 24.5592L27.0762 31.9023C27.0763 31.9023 27.0763 31.9024 27.0764 31.9025C27.0764 31.9025 27.0764 31.9026 27.0764 31.9026C27.829 33.4843 30.0342 33.6263 30.9663 32.1333C32.1885 30.1862 32.9288 27.9758 33.1259 25.6854L33.126 25.6846C33.3243 23.3378 34.3464 21.1367 36.0114 19.471L36.2813 19.2011L36.2813 19.201C37.0705 18.4117 37.6948 17.4733 38.1178 16.4404C38.5408 15.4075 38.754 14.3008 38.7451 13.1847C38.7362 12.0685 38.5053 10.9653 38.0659 9.93933C37.6265 8.91331 36.9873 7.98497 36.1857 7.20837L36.1852 7.20795C32.8617 3.99632 27.5549 4.1483 24.3092 7.39395L24.6628 7.7475L24.3092 7.39395L24.1307 7.57243C24.1305 7.57269 24.1302 7.57294 24.13 7.5732C22.4571 9.23139 20.2565 10.2594 17.9152 10.4593ZM9.80016 16.2949L9.80018 16.2948L9.79403 16.292C8.77735 15.8316 7.55998 16.1741 6.95857 17.1428C3.55322 22.6007 4.22098 29.8777 8.96409 34.6209C13.7233 39.3953 21.0474 40.0473 26.5207 36.5647C27.4654 35.9666 27.8341 34.7505 27.35 33.7242L27.3491 33.7224L23.0741 24.7524L23.073 24.7501C22.1839 22.9084 20.6758 21.3995 18.8155 20.525L18.8152 20.5249L9.80016 16.2949Z" fill="url(#paint2_linear_985_5765)" stroke="black"/>
<path id="Vector_4" d="M17.9591 10.9575C20.4191 10.7475 22.7291 9.66749 24.4841 7.92749L24.6641 7.74749C27.7241 4.68749 32.7191 4.55249 35.8391 7.56749C36.5931 8.29794 37.1943 9.17111 37.6076 10.1362C38.0209 11.1012 38.2381 12.1388 38.2465 13.1886C38.2548 14.2384 38.0543 15.2794 37.6564 16.2509C37.2586 17.2225 36.6714 18.1051 35.9291 18.8475L35.6591 19.1175C33.9106 20.8667 32.8373 23.178 32.6291 25.6425C32.4388 27.8537 31.724 29.9877 30.5441 31.8675C29.8241 33.0225 28.1141 32.9175 27.5291 31.6875L24.0191 24.3225C24.0191 24.3075 24.0041 24.3075 24.0041 24.2925C23.3141 22.8375 23.5691 21.1125 24.7091 19.9725L25.8041 18.8775C26.1495 18.529 26.5838 18.2819 27.0598 18.1629C27.5358 18.0439 28.0353 18.0576 28.5041 18.2025C30.1841 18.7125 32.1041 18.2475 33.3791 16.8075C34.9241 15.0525 34.9241 12.3825 33.3791 10.6425C32.9581 10.1596 32.4422 9.76865 31.8635 9.49385C31.2849 9.21906 30.6558 9.06635 30.0155 9.04525C29.3753 9.02414 28.7375 9.13508 28.142 9.37117C27.5465 9.60725 27.006 9.96342 26.5541 10.4175C25.9553 11.0196 25.5304 11.7725 25.3245 12.5963C25.1185 13.4202 25.1391 14.2844 25.3841 15.0975C25.6691 16.0425 25.3991 17.0775 24.6941 17.7825L23.5841 18.8925C22.4441 20.0325 20.7341 20.2875 19.2791 19.6125C19.2641 19.6125 19.2491 19.5975 19.2341 19.5975L11.8541 16.1025C10.6241 15.5325 10.5191 13.8225 11.6591 13.0875C13.5491 11.8875 15.7091 11.1525 17.9591 10.9575ZM9.3191 34.2675C4.7441 29.6925 4.0991 22.6725 7.3841 17.4075C7.8491 16.6575 8.7941 16.3875 9.5891 16.7475L18.6041 20.9775C20.3591 21.8025 21.7841 23.2275 22.6241 24.9675L26.8991 33.9375C27.2741 34.7325 26.9891 35.6775 26.2541 36.1425C20.9741 39.5025 13.9091 38.8725 9.3191 34.2675Z" fill="url(#paint3_linear_985_5765)"/>
<path id="Vector_5" d="M27.9945 15.4575C26.9895 14.4525 26.9895 12.8325 27.9945 11.8275C28.4782 11.3448 29.1336 11.0737 29.817 11.0737C30.5003 11.0737 31.1558 11.3448 31.6395 11.8275C32.6445 12.8325 32.6445 14.4675 31.6395 15.4725C30.6345 16.4625 28.9995 16.4625 27.9945 15.4575Z" fill="url(#paint4_radial_985_5765)"/>
</g>
</g>
<defs>
<linearGradient id="paint0_linear_985_5765" x1="12.5624" y1="41.0625" x2="42.9374" y2="10.875" gradientUnits="userSpaceOnUse">
<stop stop-color="#A45E96"/>
<stop offset="0.217" stop-color="#CF8FA4"/>
<stop offset="0.384" stop-color="#F8B2B4"/>
<stop offset="0.509" stop-color="#FFBAB8"/>
<stop offset="0.67" stop-color="#FFD4C8"/>
<stop offset="0.746" stop-color="#FEB8B3"/>
<stop offset="1" stop-color="#FFE4D1"/>
</linearGradient>
<linearGradient id="paint1_linear_985_5765" x1="12.9824" y1="11.292" x2="32.2754" y2="30.5865" gradientUnits="userSpaceOnUse">
<stop stop-color="#ED1C26"/>
<stop offset="0.456" stop-color="#ED1452"/>
<stop offset="1" stop-color="#EC098C"/>
</linearGradient>
<linearGradient id="paint2_linear_985_5765" x1="11.3293" y1="9.639" x2="33.9283" y2="32.2395" gradientUnits="userSpaceOnUse">
<stop offset="0.006" stop-color="#FDEADB"/>
<stop offset="1" stop-color="#FFDEC2"/>
</linearGradient>
<linearGradient id="paint3_linear_985_5765" x1="7.3121" y1="17.8125" x2="33.5621" y2="28.875" gradientUnits="userSpaceOnUse">
<stop stop-color="#C83C62"/>
<stop offset="1" stop-color="#E94751"/>
</linearGradient>
<radialGradient id="paint4_radial_985_5765" cx="0" cy="0" r="1" gradientUnits="userSpaceOnUse" gradientTransform="translate(27.2401 13.9691) rotate(100.233) scale(9.00258 3.59394)">
<stop offset="0.096" stop-color="#FFC6BA"/>
<stop offset="0.535" stop-color="#C57C86"/>
<stop offset="0.868" stop-color="#9D504A"/>
</radialGradient>
</defs>
</svg>
