<svg width="32" height="32" viewBox="0 0 32 32" fill="none" xmlns="http://www.w3.org/2000/svg">
<g id="shovel-and-rake 1" clip-path="url(#clip0_934_5482)">
<g id="Group">
<path id="Vector" d="M5.53749 0.0874214C5.18749 0.218672 4.86874 0.49992 4.68749 0.84992C4.53749 1.14367 4.53124 1.18742 4.53124 2.49992V3.84367L4.72499 4.24992C4.86249 4.53117 5.24999 5.03742 5.99374 5.90617L7.06249 7.15617V11.7562C7.06249 14.2874 7.08124 16.7312 7.09999 17.1937L7.14374 18.0312L5.43124 18.2937C3.50624 18.5937 3.36874 18.6437 3.06249 19.1874C2.91249 19.4562 2.90624 19.5187 2.90624 20.4749C2.90624 21.3812 2.86369 24.849 2.96994 24.9677C3.05119 25.0552 3.83294 24.1499 3.83294 24.1499C3.83294 24.1499 3.81249 21.6187 3.81249 20.6437C3.81249 19.7937 3.85624 19.5437 4.02499 19.4812C4.19374 19.4124 7.13124 18.9812 7.16249 19.0187C7.18124 19.0374 7.23749 19.7374 7.28124 20.5749C7.37499 22.2187 7.55624 23.4312 7.86874 24.5937C8.09999 25.4374 8.25624 25.6249 8.74374 25.6249C9.33749 25.6249 9.48749 25.3687 9.83749 23.8124C10.0562 22.8062 10.1687 21.8624 10.2562 20.3437C10.2937 19.6187 10.3375 19.0187 10.35 19.0062C10.3875 18.9624 13.3812 19.4374 13.5062 19.5062C13.575 19.5374 13.6375 19.6312 13.6625 19.7124C13.6812 19.7937 13.6875 21.0374 13.675 22.4749C13.65 25.0749 13.65 25.0999 13.4812 25.7062C13.0812 27.1874 12.275 28.5062 11.2562 29.3499C10.3687 30.0749 8.93124 31.0624 8.75624 31.0624C8.49374 31.0624 6.40624 29.5249 5.78124 28.8687C4.52499 27.5562 3.93749 26.1187 3.83124 24.1187C3.79999 23.4374 3.77499 23.2749 3.67499 23.1749C3.51874 23.0187 3.17499 23.0249 3.02499 23.1937C2.91874 23.3124 2.90624 23.4187 2.91874 24.1499C2.94999 26.2937 3.77499 28.2374 5.28124 29.7187C5.71249 30.1437 7.68749 31.6187 8.11249 31.8374C8.42499 31.9999 8.88124 32.0312 9.21249 31.9187C9.36874 31.8624 9.89374 31.5312 10.3875 31.1812C11.9062 30.0874 12.2937 29.7499 12.9 28.9687C13.8375 27.7749 14.375 26.4812 14.5562 24.9999C14.6437 24.2999 14.6437 19.7312 14.5562 19.4187C14.475 19.1124 14.1562 18.7562 13.8437 18.6249C13.7062 18.5624 12.875 18.4062 12 18.2749L10.4062 18.0374L10.425 12.5999L10.4437 7.16867L11.3062 6.16242C13.0812 4.08742 12.9687 4.33742 12.9687 2.46867C12.9687 1.24992 12.9562 1.06867 12.85 0.874922C12.6875 0.568672 12.45 0.324921 12.1562 0.168671C11.9125 0.0311699 11.85 0.0311718 8.84374 0.018671C6.34999 0.00617027 5.73749 0.018671 5.53749 0.0874214ZM11.8875 1.11242C12.025 1.24992 12.0312 1.29992 12.05 2.40617C12.0687 3.43117 12.0562 3.58742 11.95 3.82492C11.8875 3.97492 11.3625 4.64992 10.7875 5.33117L9.73749 6.56242H8.75624H7.78124L6.71874 5.31867C5.94999 4.41242 5.62499 3.98742 5.54999 3.76867C5.42499 3.41242 5.39374 1.64992 5.50624 1.31867C5.64374 0.93742 5.60624 0.937422 8.82499 0.956171L11.7437 0.968672L11.8875 1.11242ZM9.49999 11.8437L9.46249 17.1249H8.06249L7.99999 16.1874V11.8437V7.49992H8.74999H9.49999V11.8437ZM9.46249 17.4187C9.44999 17.5874 9.39374 18.5874 9.34374 19.6562C9.23124 21.9749 9.14374 22.6687 8.81874 24.0624L8.76874 24.2812L8.69374 23.9999C8.56249 23.5374 8.38749 22.5687 8.31874 21.9062C8.25624 21.3187 8.06249 17.9062 8.06249 17.3687V17.1249H8.78124H9.46249V17.4187Z" fill="#303033"/>
<path id="Vector_2" d="M6.9375 2.3125C6.78125 2.46875 6.775 2.75625 6.93125 2.94375L7.05 3.09375H8.74375C10.4 3.09375 10.4375 3.09375 10.5687 2.95625C10.7375 2.7875 10.75 2.4875 10.5937 2.3125C10.4875 2.19375 10.4062 2.1875 8.76875 2.1875C7.14375 2.1875 7.05625 2.19375 6.9375 2.3125Z" fill="#303033"/>
<path id="Vector_3" d="M20.05 0.0874538C19.7188 0.206203 19.5375 0.337452 19.3375 0.593702C19.0438 0.981203 19.0063 1.18745 19 2.44995C19 4.19995 18.9875 4.17495 20.5875 6.0312L21.5625 7.1562L21.5438 12.8875C21.5375 16.0375 21.5125 18.6312 21.4875 18.6562C21.4625 18.6812 21.0125 18.7687 20.4875 18.85C19.9625 18.9312 19.4063 19.025 19.2563 19.0625C18.3375 19.2875 17.6125 20.0562 17.4375 20.9937C17.3563 21.4375 17.3563 27.6375 17.4375 28.525C17.5813 30.0125 17.9438 31.3937 18.275 31.725C18.6375 32.0875 19.225 32.0875 19.5813 31.725C19.9313 31.3812 20.3 29.9312 20.4313 28.4062C20.4688 27.9937 20.5 26.4187 20.5 24.9C20.5 22.3562 20.5063 22.1375 20.6125 22.0437C20.725 21.9375 21.4875 21.7812 21.5563 21.8437C21.575 21.8687 21.6 22.325 21.6125 22.8625C21.6875 27.15 21.75 28.8 21.875 29.5C22.0375 30.4187 22.2938 31.3312 22.4625 31.575C22.8375 32.125 23.6625 32.125 24.0375 31.575C24.1938 31.3437 24.5188 30.1437 24.6563 29.2812C24.725 28.825 24.775 27.7375 24.825 25.2312L24.9 21.8062L25.15 21.8437C25.75 21.9375 25.825 21.9562 25.9063 22.0875C25.975 22.1937 25.9938 22.8687 26.0188 25.5C26.0438 28.5125 26.0563 28.8375 26.1813 29.5C26.3563 30.4437 26.6125 31.3375 26.775 31.575C27.1563 32.1312 27.9813 32.125 28.3438 31.5687C28.5188 31.3062 28.775 30.375 28.95 29.4062C29.0625 28.7875 29.0813 28.3437 29.1063 25.1062C29.1375 21.2125 29.125 20.9312 28.8313 20.3312C28.625 19.9187 28.1063 19.4187 27.6688 19.2187C27.3813 19.0875 25.6813 18.75 25.2813 18.75C24.9563 18.7437 24.9688 18.9062 24.9375 15.0062L24.9063 11.3812L24.7688 11.2437C24.5813 11.0562 24.2688 11.0562 24.1125 11.2437C24.0063 11.3812 24 11.5562 24 13.9437L23.9813 17.4375H23.25H22.5188L22.5 12V7.49995H23.25H24V8.5312C24 9.4812 23.9999 12 23.9999 12L24.9086 11.6562C24.9086 11.6562 24.9125 9.4187 24.9375 8.3437L24.9688 7.13745L26.025 5.8937C26.75 5.0437 27.1375 4.5312 27.275 4.24995L27.4688 3.8437V2.49995C27.4688 1.1812 27.4688 1.14995 27.3063 0.843702C27.1313 0.493702 26.7375 0.162453 26.3875 0.0624523C26.0188 -0.0375481 20.3438 -0.018795 20.05 0.0874538ZM26.2438 1.0312C26.5375 1.1812 26.575 1.37495 26.55 2.6062C26.5375 3.4812 26.5125 3.7562 26.4313 3.89995C26.375 3.99995 25.8563 4.63745 25.2813 5.3187L24.225 6.56245H23.25H22.275L21.2563 5.37495C20.7 4.7187 20.1813 4.0812 20.1063 3.94995C19.9813 3.73745 19.9688 3.6187 19.95 2.6062C19.925 1.38745 19.9625 1.1812 20.2438 1.0312C20.4875 0.899952 25.9875 0.893702 26.2438 1.0312ZM24.0188 18.15C24.0563 18.9312 24.125 19.1312 24.4375 19.4C24.675 19.5937 24.6313 19.5875 26.05 19.8062C27.325 20.0062 27.5313 20.0937 27.875 20.5687C28.1875 21.0062 28.2 21.2 28.1688 25.05C28.15 28.025 28.125 28.6875 28.0375 29.1875C27.925 29.8312 27.725 30.6437 27.6188 30.9187C27.55 31.0875 27.5438 31.075 27.4 30.5937C27.3125 30.3187 27.1875 29.7687 27.1125 29.375C26.9938 28.7187 26.975 28.3625 26.9438 25.2812C26.9125 22.5937 26.8875 21.875 26.8188 21.75C26.6938 21.5187 26.4313 21.25 26.2313 21.1437C26.025 21.0375 25.2125 20.875 24.8813 20.875C24.575 20.875 24.2438 21.0625 24.0938 21.3187C23.9813 21.5125 23.9688 21.7312 23.8938 25.0625C23.8375 27.7375 23.7938 28.7375 23.7188 29.1875C23.6125 29.8125 23.4188 30.625 23.3063 30.9187C23.2375 31.0875 23.2375 31.0875 23.1188 30.7187C22.725 29.4625 22.6438 28.5375 22.5688 24.4562C22.5188 21.6 22.5125 21.5062 22.3813 21.2937C22.225 21.0437 21.9188 20.875 21.6063 20.875C21.2813 20.875 20.475 21.0375 20.2625 21.15C20 21.2875 19.7063 21.65 19.6313 21.9187C19.5875 22.0625 19.5563 23.4437 19.5375 25.4062C19.5188 28.3187 19.5 28.725 19.3875 29.3125C19.2438 30.075 19.0063 30.9875 18.9375 31.0312C18.875 31.0687 18.5938 30.0125 18.4563 29.2187C18.3625 28.6687 18.3438 28.1437 18.3438 24.8125V21.0312L18.4813 20.775C18.6438 20.4687 19.0625 20.0937 19.3375 20.0062C19.4438 19.9687 20 19.875 20.575 19.7812C21.7125 19.6125 21.8938 19.5625 22.1188 19.3562C22.3563 19.1375 22.4313 18.875 22.475 18.1312L22.5188 17.4375H23.25H23.9813L24.0188 18.15Z" fill="#303033"/>
<path id="Vector_4" d="M21.4063 2.3125C21.25 2.4875 21.2625 2.7875 21.4313 2.95625C21.5625 3.09375 21.6 3.09375 23.2438 3.09375C24.8063 3.09375 24.9313 3.0875 25.0563 2.975C25.225 2.81875 25.2375 2.4375 25.075 2.29375C24.975 2.2 24.75 2.1875 23.2375 2.1875C21.5938 2.1875 21.5125 2.19375 21.4063 2.3125Z" fill="#303033"/>
</g>
</g>
<defs>
<clipPath id="clip0_934_5482">
<rect width="32" height="32" fill="white"/>
</clipPath>
</defs>
</svg>
