<svg width="32" height="32" viewBox="0 0 32 32" fill="none" xmlns="http://www.w3.org/2000/svg">
<g id="recycle-bin">
<g id="Group">
<path id="Vector" d="M13.875 0.0874996C12.9438 0.35 12.2688 1.0375 12.0063 1.99375C11.9375 2.25 11.8688 2.4625 11.8562 2.475C11.8438 2.4875 10.7375 2.24375 9.39375 1.9375C8.04375 1.625 6.8125 1.375 6.64375 1.375C5.6875 1.38125 4.74375 1.95625 4.325 2.7875C4.1375 3.1625 3.625 5.175 3.625 5.55C3.625 5.8625 3.85 6.0625 4.34375 6.18125C4.5875 6.24375 8.325 7.1 12.6625 8.1L20.5438 9.90625L12.5063 9.9375C6.1375 9.9625 4.4375 9.9875 4.33125 10.05C4.25 10.0938 4.14375 10.2125 4.09375 10.3125C4.00625 10.4875 4.0625 11.1812 4.90625 20.05C5.4 25.3 5.8375 29.7562 5.86875 29.95C6.00625 30.75 6.61875 31.525 7.35625 31.825L7.71875 31.9688H15.4688H23.2188L23.5938 31.8187C24.1187 31.6062 24.7375 30.9812 24.9375 30.4688C25.0625 30.1375 25.1812 29 25.975 20.75C26.4688 15.6125 26.8687 11.4 26.875 11.3875C26.875 11.3813 26.9813 11.3937 27.1125 11.4125C27.3813 11.4562 27.7063 11.325 27.8062 11.1375C27.925 10.9062 28.375 8.74375 28.375 8.3875C28.375 7.88125 28.1812 7.2875 27.8813 6.86875C27.3375 6.10625 27.075 6 24.2188 5.34375C22.9125 5.05 21.8125 4.79375 21.775 4.78125C21.7188 4.7625 21.725 4.6625 21.7875 4.39375C22.0938 3.0875 21.4937 1.84375 20.3 1.31875C20.1562 1.25 18.8625 0.924999 17.4313 0.6C14.75 -0.0187511 14.4313 -0.0625 13.875 0.0874996ZM17.0188 1.7875C18.3 2.08125 19.4625 2.35 19.6062 2.3875C19.9625 2.475 20.4 2.86875 20.5375 3.21875C20.6125 3.425 20.6313 3.6 20.6063 3.8625C20.5312 4.56875 20.9625 4.59375 16.8125 3.64375C14.8 3.18125 13.1438 2.79375 13.1313 2.775C13.0625 2.70625 13.2812 2.04375 13.4438 1.8125C13.6562 1.51875 14.1562 1.25 14.4875 1.25C14.6 1.25 15.7375 1.4875 17.0188 1.7875ZM16.4625 4.84375C21.7688 6.0625 26.1938 7.09375 26.2938 7.13125C26.7313 7.29375 27.1187 7.875 27.125 8.3625C27.125 8.575 26.8438 9.9875 26.7938 10.0437C26.7812 10.0562 25.475 9.75625 16.0312 7.5875C6.30625 5.35625 5.0375 5.0625 5.0125 5.0375C4.98125 5 5.21875 3.95625 5.35 3.55625C5.5125 3.05 6.075 2.6375 6.60625 2.625C6.71875 2.625 11.15 3.625 16.4625 4.84375ZM25.6 11.5125C25.5813 11.6938 25.1812 15.85 24.7188 20.75C24.2563 25.65 23.85 29.7625 23.8125 29.8875C23.725 30.2 23.4688 30.4937 23.1562 30.6313C22.9188 30.7437 22.55 30.75 15.4688 30.75C8.3875 30.75 8.01875 30.7437 7.78125 30.6313C7.46875 30.4937 7.2125 30.1938 7.13125 29.8875C7.05625 29.6063 5.3125 11.3 5.35625 11.2312C5.36875 11.2062 9.9375 11.1875 15.5125 11.1875H25.6375L25.6 11.5125Z" fill="#303033"/>
<path id="Vector_2" d="M15.3312 12.55C15.2562 12.5625 15.125 12.6437 15.0375 12.7312L14.875 12.8937V20.975V29.0562L15.0187 29.2187C15.2 29.4312 15.5625 29.4937 15.7875 29.3437C16.1375 29.1125 16.125 29.4812 16.125 21.0187C16.125 15.95 16.1 13.1375 16.0625 12.9937C16.025 12.8687 15.9562 12.7312 15.9125 12.6937C15.7937 12.5937 15.5 12.5187 15.3312 12.55Z" fill="#303033"/>
<path id="Vector_3" d="M9.6 12.7563C9.4875 12.8875 9.4375 13.0187 9.4375 13.175C9.4375 14.1 10.2063 28.9375 10.2625 29.0812C10.3375 29.2687 10.6 29.4375 10.8125 29.4375C11.0313 29.4375 11.2875 29.2687 11.3688 29.075C11.4313 28.9312 11.3688 27.3687 11.0625 21.025C10.8563 16.7 10.6688 13.0875 10.65 13.0125C10.5938 12.7437 10.35 12.5625 10.0375 12.5625C9.80625 12.5625 9.7375 12.5938 9.6 12.7563Z" fill="#303033"/>
<path id="Vector_4" d="M20.4687 12.7125C20.3875 12.7938 20.3062 12.9563 20.2875 13.0688C20.2687 13.1875 20.1 16.5563 19.9062 20.5625C19.7187 24.5688 19.5437 28.1 19.525 28.4188L19.4812 28.9938L19.7062 29.2188C20.025 29.5375 20.4687 29.4875 20.6625 29.1125C20.7312 28.9813 20.8375 27.2563 21.125 21.3C21.3312 17.0938 21.5 13.4938 21.5 13.3C21.5 13.0125 21.4687 12.9125 21.3375 12.7563C21.2 12.5938 21.1312 12.5625 20.9 12.5625C20.6875 12.5625 20.5812 12.6 20.4687 12.7125Z" fill="#303033"/>
</g>
</g>
</svg>
