<svg width="131" height="148" viewBox="0 0 131 148" fill="none" xmlns="http://www.w3.org/2000/svg">
<path d="M85.2429 92.7423L88.3409 146.058C88.3717 146.587 88.8095 147 89.3393 147H124.147C124.679 147 125.118 146.584 125.146 146.053L127.961 93.0298L85.2429 92.7423Z" fill="#383838"/>
<path d="M129.039 87H84.5197C83.9674 87 83.5197 87.4477 83.5197 88V92.1713C83.5197 92.7235 83.9674 93.1713 84.5197 93.1713H129.039C129.592 93.1713 130.039 92.7235 130.039 92.1713V88C130.039 87.4477 129.592 87 129.039 87Z" fill="#434242"/>
<g clip-path="url(#clip0_814_5989)">
<path d="M106.116 110.85C105.588 110.999 105.206 111.389 105.057 111.93C105.018 112.076 104.979 112.196 104.972 112.203C104.965 112.21 104.338 112.072 103.577 111.899C102.812 111.721 102.114 111.58 102.018 111.58C101.476 111.583 100.941 111.909 100.704 112.38C100.598 112.593 100.307 113.733 100.307 113.946C100.307 114.123 100.435 114.236 100.715 114.303C100.853 114.339 102.971 114.824 105.429 115.391L109.895 116.414L105.34 116.432C101.731 116.446 100.768 116.46 100.708 116.496C100.662 116.521 100.601 116.588 100.573 116.644C100.524 116.744 100.555 117.137 101.034 122.163C101.313 125.138 101.561 127.663 101.579 127.773C101.657 128.226 102.004 128.665 102.422 128.835L102.627 128.917H107.019H111.411L111.623 128.832C111.921 128.711 112.272 128.357 112.385 128.067C112.456 127.879 112.523 127.234 112.973 122.559C113.253 119.648 113.479 117.261 113.483 117.254C113.483 117.25 113.543 117.257 113.617 117.268C113.77 117.293 113.954 117.218 114.011 117.112C114.078 116.981 114.333 115.755 114.333 115.554C114.333 115.267 114.223 114.93 114.053 114.693C113.745 114.261 113.596 114.201 111.978 113.829C111.237 113.662 110.614 113.517 110.593 113.51C110.561 113.499 110.564 113.443 110.6 113.29C110.773 112.55 110.433 111.845 109.757 111.548C109.675 111.509 108.942 111.325 108.131 111.141C106.612 110.79 106.431 110.765 106.116 110.85ZM107.897 111.814C108.624 111.98 109.282 112.132 109.364 112.154C109.566 112.203 109.814 112.426 109.891 112.625C109.934 112.741 109.945 112.841 109.93 112.989C109.888 113.39 110.132 113.404 107.781 112.865C106.64 112.603 105.702 112.384 105.694 112.373C105.656 112.334 105.779 111.959 105.872 111.828C105.992 111.661 106.275 111.509 106.463 111.509C106.527 111.509 107.171 111.644 107.897 111.814ZM107.582 113.545C110.589 114.236 113.097 114.82 113.153 114.842C113.401 114.934 113.621 115.263 113.624 115.539C113.624 115.66 113.465 116.46 113.437 116.492C113.43 116.499 112.689 116.329 107.338 115.1C101.827 113.836 101.108 113.669 101.094 113.655C101.076 113.634 101.211 113.043 101.285 112.816C101.377 112.529 101.696 112.295 101.997 112.288C102.061 112.288 104.572 112.855 107.582 113.545ZM112.76 117.324C112.75 117.427 112.523 119.782 112.261 122.559C111.999 125.336 111.769 127.666 111.747 127.737C111.698 127.914 111.553 128.081 111.375 128.159C111.241 128.222 111.032 128.226 107.019 128.226C103.006 128.226 102.797 128.222 102.663 128.159C102.486 128.081 102.34 127.911 102.294 127.737C102.252 127.578 101.264 117.204 101.289 117.165C101.296 117.151 103.885 117.14 107.044 117.14H112.782L112.76 117.324Z" fill="white"/>
<path d="M106.941 117.912C106.899 117.92 106.824 117.966 106.775 118.015L106.683 118.107V122.687V127.266L106.764 127.358C106.867 127.479 107.072 127.514 107.2 127.429C107.398 127.298 107.391 127.507 107.391 122.712C107.391 119.839 107.377 118.245 107.356 118.164C107.334 118.093 107.295 118.015 107.271 117.994C107.203 117.937 107.037 117.895 106.941 117.912Z" fill="white"/>
<path d="M103.693 118.029C103.63 118.104 103.601 118.178 103.601 118.267C103.601 118.791 104.037 127.199 104.069 127.28C104.111 127.387 104.26 127.482 104.381 127.482C104.504 127.482 104.65 127.387 104.696 127.277C104.731 127.195 104.696 126.31 104.522 122.715C104.405 120.264 104.299 118.217 104.288 118.174C104.257 118.022 104.118 117.919 103.941 117.919C103.81 117.919 103.771 117.937 103.693 118.029Z" fill="white"/>
<path d="M109.853 118.004C109.806 118.051 109.76 118.143 109.75 118.206C109.739 118.274 109.644 120.183 109.534 122.453C109.427 124.723 109.328 126.724 109.318 126.905L109.293 127.231L109.42 127.358C109.601 127.539 109.853 127.511 109.962 127.298C110.001 127.224 110.061 126.246 110.224 122.871C110.341 120.487 110.437 118.447 110.437 118.337C110.437 118.174 110.419 118.118 110.345 118.029C110.267 117.937 110.228 117.919 110.097 117.919C109.976 117.919 109.916 117.941 109.853 118.004Z" fill="white"/>
</g>
<path fill-rule="evenodd" clip-rule="evenodd" d="M21.6347 47.3287L29.2442 47.3593C23.4486 67.4457 20.3721 77.9626 20.0147 78.9101C19.2106 81.0418 20.9122 84.2884 21.6398 86.0331C19.2698 87.1676 19.5224 82.9662 16.5326 84.4541C13.8038 85.8122 11.7279 88.273 8.57513 86.192C8.18751 85.9361 7.76274 84.9728 8.78903 84.22C11.3459 82.3445 15.0305 79.0621 15.5284 77.9817C16.2073 76.5084 18.2427 66.2907 21.6347 47.3287Z" fill="#B28B67"/>
<path d="M84.932 66.8616C84.9338 66.9047 84.9446 66.947 84.9636 66.9857C84.9826 67.0244 85.0095 67.0588 85.0425 67.0865C85.7786 67.9011 87.1898 67.5469 87.971 66.7748C88.4169 66.3174 88.7464 65.7593 88.932 65.1477C89.1175 64.536 89.1536 63.8886 89.0372 63.26C89.0014 63.0611 88.9489 62.8656 88.8801 62.6756C88.8679 62.6162 88.8372 62.5631 88.816 62.508L88.8747 62.6495C89.0856 63.1584 89.2946 63.6702 89.5002 64.1777C89.8805 65.09 90.2705 66.0376 90.8962 66.8203C91.5219 67.6031 92.4184 68.2114 93.415 68.2469C93.9506 68.2657 94.5429 68.0672 94.776 67.5885C94.8573 67.4079 94.8931 67.2101 94.8803 67.0124C94.8406 66.1687 94.1637 65.5104 93.6176 64.8623C92.6918 63.7649 92.027 62.4713 91.6734 61.0793C92.0603 61.4565 92.5221 61.748 93.0288 61.935C94.5266 62.4966 96.3686 62.2049 97.5089 61.062C97.9543 60.6395 98.2514 60.0843 98.3561 59.479C98.4027 59.1794 98.3683 58.8728 98.2565 58.5909C98.1446 58.309 97.9595 58.0623 97.7202 57.8762C97.4732 57.698 97.1698 57.6159 96.8667 57.6453C96.5637 57.6747 96.2818 57.8136 96.0738 58.0361C95.9048 58.2491 95.8212 58.5163 95.6676 58.7435C95.2641 59.3439 94.4293 59.5302 93.7317 59.3367C93.0465 59.1027 92.4434 58.6754 91.9951 58.1061C91.6122 57.6746 91.2608 57.1921 90.7745 56.8711C90.5954 56.7457 90.393 56.6576 90.1793 56.6122C89.9656 56.5667 89.745 56.5648 89.5306 56.6065C89.1453 56.7055 88.8355 57.2445 88.4553 57.2235C87.7024 57.1702 87.8328 55.7938 87.0665 55.7358C86.6677 55.7087 86.3839 56.1929 86.4525 56.5874C86.5212 56.9819 86.8284 57.2977 87.1117 57.5812C86.2381 58.1444 86.066 59.3659 86.2422 60.392C86.4183 61.4182 86.8484 62.4045 86.8516 63.4439C86.8474 64.0656 86.6918 64.6769 86.3984 65.2247C86.1049 65.7725 85.6825 66.2404 85.1676 66.5879C85.0842 66.6361 85.0133 66.7032 84.9606 66.7839C84.9467 66.808 84.937 66.8343 84.932 66.8616Z" fill="#F9D04F"/>
<path fill-rule="evenodd" clip-rule="evenodd" d="M42.2091 15.7124C40.6657 13.7617 39.621 11.3712 39.7956 8.6926C40.2985 0.974709 50.2771 2.67255 52.2181 6.56788C54.1592 10.4632 53.9285 20.344 51.4199 21.0402C50.4195 21.3179 48.2883 20.6378 46.1192 19.2301L47.4807 29.6006H39.4416L42.2091 15.7124Z" fill="#B28B67"/>
<path fill-rule="evenodd" clip-rule="evenodd" d="M54.8327 3.34825C54.6836 2.82417 54.2826 2.37545 53.7421 2.24233C53.6111 2.21003 53.4757 2.19699 53.3408 2.20243C53.2925 2.20436 53.2789 2.21831 53.2563 2.18448C53.2395 2.1594 53.2392 2.09813 53.2323 2.06866C53.2108 1.977 53.1839 1.8865 53.1508 1.79833C53.0377 1.49763 52.8477 1.2315 52.6186 1.00731C52.1901 0.587905 51.6111 0.298449 51.0095 0.246083C50.6803 0.217437 50.3535 0.270926 50.0422 0.378024C49.8811 0.433464 49.7248 0.502499 49.5727 0.578823C49.5268 0.601795 49.3782 0.714311 49.3322 0.707021C49.2814 0.698983 49.1793 0.572774 49.138 0.541094C48.6276 0.149486 47.9973 -0.00448207 47.3616 0.00022661C46.644 0.00552632 45.953 0.0413833 45.3545 0.478837C45.2278 0.571454 45.1071 0.672858 44.9922 0.779621C44.9317 0.83583 44.8731 0.894146 44.8173 0.954886C44.7835 0.991531 44.7507 1.029 44.7191 1.06748C44.6655 1.13279 44.6741 1.15425 44.599 1.10868C44.311 0.933688 43.9772 0.851847 43.641 0.893161C43.4414 0.91771 43.2472 0.977642 43.0627 1.05653C43 1.08338 42.8546 1.1905 42.7877 1.19154C42.7213 1.19257 42.578 1.09327 42.5096 1.06803C42.1402 0.931678 41.7421 0.898067 41.3539 0.961073C40.9534 1.02609 40.56 1.18587 40.2207 1.40666C40.0575 1.51287 39.9151 1.63055 39.8007 1.78848C39.7513 1.85667 39.7067 1.92879 39.6507 1.99202C39.618 2.02904 39.5531 2.06702 39.5355 2.11387C39.546 2.08582 39.0975 1.91292 39.0552 1.90186C38.8297 1.84297 38.6001 1.85491 38.3793 1.92757C37.9642 2.0642 37.6071 2.3706 37.3137 2.68474C37.163 2.8461 37.0311 3.02446 36.9191 3.21448C36.8655 3.3055 36.8164 3.39912 36.7715 3.49473C36.7497 3.54105 36.7353 3.599 36.7067 3.64072C36.6697 3.69449 36.6449 3.69551 36.578 3.71896C36.2382 3.838 35.9285 4.03948 35.6926 4.31174C35.454 4.58719 35.2992 4.92639 35.2343 5.2836C35.2305 5.30464 35.2282 5.39184 35.2159 5.40323C35.199 5.41891 35.1307 5.41197 35.1048 5.41501C35.0153 5.42551 34.9264 5.44113 34.8387 5.4619C34.6771 5.50016 34.5197 5.55647 34.3709 5.63011C33.7907 5.91718 33.3758 6.45537 33.1727 7.06096C32.9596 7.69649 32.9634 8.4246 33.2181 9.04827C33.2592 9.14901 33.3081 9.24679 33.3656 9.33929C33.4009 9.39607 33.4123 9.3962 33.3894 9.45578C33.3639 9.52206 33.3172 9.58646 33.2868 9.65122C33.1879 9.86256 33.1187 10.0867 33.075 10.3156C33.0032 10.6912 32.9677 11.0858 33.0385 11.4642C33.0713 11.6399 33.1285 11.8117 33.2158 11.9681C33.2604 12.0479 33.3125 12.1236 33.3713 12.1936C33.4018 12.23 33.4342 12.2647 33.4682 12.2979C33.4876 12.3169 33.513 12.3336 33.5295 12.3548C33.5698 12.4065 33.5782 12.364 33.5575 12.4399C33.5284 12.5462 33.4626 12.6509 33.4223 12.7543C33.3808 12.8608 33.3432 12.9688 33.3089 13.0778C33.2394 13.2986 33.1806 13.5233 33.1438 13.752C33.0732 14.191 33.0856 14.6587 33.2932 15.0616C33.382 15.2339 33.5094 15.3851 33.6639 15.5027C33.7395 15.5602 33.8214 15.6098 33.9073 15.6505C33.9514 15.6715 34.0078 15.6805 34.0279 15.7231C34.0496 15.7691 34.0174 15.8602 34.0101 15.9115C33.9462 16.358 33.9142 16.8268 34.0469 17.2643C34.1692 17.6673 34.4383 18.0231 34.7877 18.2587C35.4656 18.7157 36.3794 18.6899 37.0917 18.3241C37.2773 18.2287 37.451 18.1103 37.606 17.9706C38.0006 18.5018 38.8125 18.485 39.3892 18.3336C40.1076 18.1451 40.6841 17.6455 41.0163 16.9891C41.4704 17.542 42.4236 17.3626 42.7385 16.7628C42.8156 16.616 42.8614 16.4543 42.8839 16.2905C42.8957 16.2044 42.8882 16.1176 42.8971 16.0322C42.9084 15.9234 42.9811 15.8176 43.0229 15.7123C43.1043 15.5074 43.1548 15.2958 43.157 15.0747C43.1581 14.9594 43.1435 14.8469 43.1325 14.7324C43.1226 14.6294 43.1512 14.5334 43.1675 14.4317C42.9832 14.462 42.7587 14.4123 42.5851 14.3589C42.4148 14.3065 42.2552 14.1684 42.135 14.0423C41.8558 13.7494 41.6852 13.3656 41.5686 12.9835C41.3125 12.1449 41.4175 11.1388 42.2609 10.6786C42.6539 10.4642 43.831 10.4649 44.299 10.5709C44.7911 10.6823 45.3489 11.768 45.3764 11.8701C45.3934 11.9333 45.3848 12.0114 45.4428 12.0535C45.5704 12.1461 45.7807 11.9855 45.8747 11.9062C46.037 11.7694 46.1528 11.5874 46.2531 11.4029C46.4715 11.001 46.6477 10.57 46.7721 10.13C46.868 9.79079 46.9293 9.44099 47.0547 9.11041C47.1795 8.78148 47.3761 8.48747 47.6819 8.30113C48.0145 8.09842 48.3958 7.99166 48.7609 7.86427C49.1229 7.73802 49.4786 7.58372 49.7592 7.31584C49.8209 7.25693 49.8808 7.19434 49.9304 7.12499C49.9696 7.07024 50.0084 6.96542 50.0681 6.93071C50.161 6.87671 50.2965 7.01714 50.3768 7.06813C50.7729 7.31972 51.1034 7.6706 51.3699 8.05392C51.635 8.43514 51.8525 8.80197 52.0292 9.22766C52.1603 9.54338 52.2422 9.94771 52.4727 10.2065C52.5757 10.322 53.3408 10.3919 53.5887 10.291C53.8365 10.1901 54.1143 9.92825 54.1975 9.76411C54.2826 9.59612 54.303 9.41157 54.2666 9.22766C54.2452 9.11946 54.2015 9.01839 54.1776 8.91212C54.1575 8.82285 54.1392 8.73847 54.0957 8.65669C54.0134 8.50171 53.8727 8.39032 53.703 8.34375C53.8796 8.18095 54.0259 7.9862 54.1271 7.7685C54.2323 7.54233 54.3215 7.26727 54.3468 7.01903C54.3673 6.81741 54.3356 6.60851 54.2252 6.43523C54.1094 6.25347 53.9043 6.13488 53.7268 6.0215C53.9979 5.80939 54.23 5.55144 54.4207 5.26585C54.7917 4.71046 55.0211 4.01038 54.8327 3.34825Z" fill="#191847"/>
<path fill-rule="evenodd" clip-rule="evenodd" d="M39.1178 60.9095L55.5583 105.711L66.585 143.587H70.9391L54.0818 60.9095L39.1178 60.9095Z" fill="#997659"/>
<path fill-rule="evenodd" clip-rule="evenodd" d="M35.8074 60.9095C35.6323 76.653 33.0792 97.8491 32.6713 98.8305C32.3993 99.4847 23.0117 107.805 4.5083 123.79L7.50728 127.245C29.3396 113.54 40.7608 105.773 41.7711 103.945C43.2866 101.203 48.2203 75.9711 52.1814 60.9095H35.8074Z" fill="#B28B67"/>
<path fill-rule="evenodd" clip-rule="evenodd" d="M4.1072 122.637C3.10001 123.02 2.40618 123.384 2.02574 123.727C1.56302 124.145 0.952486 124.838 0.194133 125.806C0.644546 126.384 4.69249 131.578 12.338 141.388C13.8969 140.67 14.3859 139.83 13.8052 138.868C13.2244 137.906 12.7491 137.1 12.3793 136.451L9.7337 126.499C9.68279 126.308 9.49735 126.197 9.3195 126.252C9.31645 126.253 9.31342 126.254 9.31041 126.255L7.89874 126.737C6.91933 126.246 6.23287 125.747 5.83935 125.242C5.51963 124.832 5.23197 124.127 4.97639 123.126C4.8783 122.742 4.50959 122.516 4.15284 122.621C4.13746 122.626 4.12224 122.631 4.1072 122.637Z" fill="#E4E4E4"/>
<path fill-rule="evenodd" clip-rule="evenodd" d="M64.802 141.838C64.4272 142.915 64.2399 143.721 64.2399 144.256C64.2399 144.906 64.3405 145.855 64.5417 147.103C65.2425 147.103 71.5399 147.103 83.4342 147.103C83.9251 145.355 83.6417 144.412 82.584 144.273C81.5262 144.133 80.6475 144.008 79.9479 143.895L71.1669 139.681C70.9979 139.599 70.7999 139.681 70.7245 139.863C70.7233 139.866 70.722 139.869 70.7208 139.872L70.1564 141.347C69.1772 141.839 68.3815 142.084 67.7693 142.084C67.2718 142.084 66.5849 141.868 65.7085 141.436C65.3722 141.27 64.9745 141.429 64.8203 141.791C64.8137 141.806 64.8076 141.822 64.802 141.838Z" fill="#E4E4E4"/>
<path fill-rule="evenodd" clip-rule="evenodd" d="M59.594 138.716L70.8737 137.266L55.531 60.9095H36.9889L59.594 138.716Z" fill="#444D5C"/>
<path fill-rule="evenodd" clip-rule="evenodd" d="M8.79047 118.216L16.2342 129.207C30.537 112.388 41.9634 108.228 44.3378 103.098C46.7121 97.9683 49.4767 84.4245 53.7889 60.9095H32.9138C31.8789 80.8472 31.1814 91.2799 30.8211 92.2077C30.4608 93.1355 23.1173 101.805 8.79047 118.216Z" fill="#4F5969"/>
<path fill-rule="evenodd" clip-rule="evenodd" d="M73.3716 48.9422L86.0534 55.3929C88.8957 55.6549 91.0325 56.4566 93.0821 57.2654C93.4915 57.4269 93.8681 57.7126 93.9703 58.1408C94.222 59.1955 93.5476 60.0129 92.6947 58.4519C90.7172 58.6607 89.4276 59.0671 89.3063 59.8228C89.1849 60.5785 90.5373 61.199 90.1933 62.2528C89.9639 62.9553 87.9244 61.6883 84.0746 58.4519L72.2813 55.7339L73.3716 48.9422Z" fill="#B28B67"/>
<path fill-rule="evenodd" clip-rule="evenodd" d="M37.4 33.6347L44.8194 24.9191C57.7056 38.2141 75.4741 44.2223 80.0501 49.3276C81.7283 51.1998 80.8954 53.0894 82.0048 53.3241L80.0949 57.9026C79.1141 57.5062 78.622 59.5138 75.5345 60.0347C72.447 60.5556 49.6579 50.3846 37.4 33.6347Z" fill="#1C78CD"/>
<path fill-rule="evenodd" clip-rule="evenodd" d="M49.444 26.541C49.0976 50.2391 61.9039 56.2841 59.0514 65.7908C56.6958 73.6413 34.1491 82.0805 30.2475 74.3852C28.6682 71.2702 27.9516 67.5029 27.8703 63.407C26.8732 66.5537 26.0845 69.2627 25.5044 71.5339C24.5036 75.452 20.6237 76.0748 20.6237 77.5842L15.512 76.0748C15.8587 74.0242 13.4489 73.0257 14.0951 68.4445C16.9901 47.9181 24.7685 33.0392 37.4302 23.8077L37.5641 21.7595C37.6173 20.9654 38.257 20.3666 38.9948 20.4205L48.4547 21.1281C49.193 21.182 49.7498 21.8711 49.6985 22.6659C49.6985 22.6659 49.6985 22.6668 49.6972 22.6671L49.444 26.541Z" fill="#1B87EB"/>
<defs>
<clipPath id="clip0_814_5989">
<rect width="18.1337" height="18.1337" fill="white" transform="translate(98.2533 110.801)"/>
</clipPath>
</defs>
</svg>
