<svg width="48" height="48" viewBox="0 0 48 48" fill="none" xmlns="http://www.w3.org/2000/svg">
<g id="noto:pen">
<path id="Vector" d="M8.6784 35.7371L12.4324 39.4601C9.18117 42.1194 6.64884 43.9275 4.79877 44.9764C4.54328 44.2278 3.95456 43.6265 3.193 43.3698C4.24015 41.4946 6.04549 38.9629 8.6784 35.7371Z" fill="#BDBDBD" stroke="black"/>
<path id="Vector_2" d="M1.82998 46.335C2.12623 46.6312 2.79748 46.5225 3.80248 46.0387C3.98998 45.9637 4.21123 45.8512 4.39873 45.7425C4.3822 45.2147 4.16512 44.713 3.7917 44.3395C3.41827 43.9661 2.91657 43.749 2.38873 43.7325C2.27623 43.9575 2.16373 44.1412 2.09248 44.3287C1.64623 45.3337 1.57123 46.0387 1.82998 46.335Z" fill="#616161"/>
<path id="Vector_3" d="M4.46604 42.5663C4.40604 42.6188 4.34229 42.6713 4.27854 42.7275C4.16229 42.825 4.02354 42.93 3.87354 42.8925C3.94104 42.6188 4.08729 42.3713 4.22979 42.1275C5.27229 40.365 6.03354 39.0188 7.54104 37.605C7.64229 37.5113 7.75479 37.4138 7.88979 37.3913C8.11104 37.3575 8.30604 37.5375 8.42603 37.7213C8.54979 37.9088 8.74854 38.265 8.71479 38.5013C8.68104 38.7525 8.40353 38.9025 8.21603 39.0713C6.84729 40.305 5.86854 41.355 4.46604 42.5663Z" fill="#EEEEEE"/>
<path id="Vector_4" d="M37.0594 2.47518L37.0468 2.48756C36.2993 3.2182 35.5509 3.94882 34.8026 4.67932L34.8003 4.68153L34.7991 4.68269C34.0505 5.41354 33.3019 6.14427 32.5544 6.87497L37.0594 2.47518ZM37.0594 2.47518L37.0712 2.46194M37.0594 2.47518L37.0712 2.46194M37.0712 2.46194C37.3054 2.19815 37.6484 2.02883 38.0405 2.00281M37.0712 2.46194L38.0405 2.00281M27.5302 12.8674L27.5303 12.8665C27.5333 12.8485 27.5363 12.8304 27.5393 12.8121C27.5723 12.612 27.608 12.3954 27.6851 12.1974C27.7799 11.9539 27.927 11.7544 28.1502 11.5576C28.1499 11.5579 28.1501 11.5577 28.1511 11.5568C28.1535 11.5546 28.1604 11.5483 28.1739 11.5358L28.2434 11.4715C28.3023 11.4167 28.3854 11.3394 28.4896 11.2422C28.6979 11.048 28.9899 10.7751 29.3402 10.4468C30.0408 9.79015 30.9744 8.91236 31.9378 7.99954C33.8771 6.16205 35.9023 4.2154 36.4267 3.61869L36.8023 3.94875L36.4256 3.61998C36.5523 3.47482 36.803 3.24881 37.1463 3.13484C37.5203 3.01066 37.9792 3.03137 38.4188 3.36803M27.5302 12.8674L40.2635 5.56875M27.5302 12.8674C27.429 13.481 27.0896 14.029 26.6104 14.291C26.1439 14.5441 25.5476 14.4757 25.2251 14.1662C25.2354 14.1469 25.2522 14.1199 25.2796 14.0854M27.5302 12.8674L25.2796 14.0854M38.4188 3.36803L38.1148 3.765L38.4173 3.36692C38.4178 3.36727 38.4183 3.36764 38.4188 3.36803ZM38.4188 3.36803C38.4858 3.4196 39.0352 3.88116 39.5462 4.31097C39.7865 4.51313 40.0243 4.71341 40.2118 4.87127M40.2118 4.87127L39.8884 5.23816L40.2635 5.56875M40.2118 4.87127L40.9523 4.03096M40.2118 4.87127C40.2293 4.88608 40.2465 4.90051 40.2631 4.91454L40.4973 5.11184L40.5627 5.16698L40.5799 5.18149L40.5843 5.18521L40.5854 5.18616L40.5857 5.18639L40.5858 5.18645L40.2635 5.56875M40.2635 5.56875L40.9523 4.03096M40.9523 4.03096C41.0034 4.07759 41.0438 4.11519 41.0757 4.14609C41.1197 4.18854 41.1339 4.20543 41.1341 4.20527C41.1342 4.20517 41.1292 4.19881 41.1225 4.18806C41.1047 4.15947 41.0928 4.13017 41.0849 4.10494L40.9523 4.03096ZM40.9523 4.03096L41.1972 3.75316L41.4788 4.0014L39.401 1.9725M40.9523 4.03096C40.7972 3.88946 40.5426 3.66489 40.1203 3.29253M40.1203 3.29253C40.1204 3.29256 40.1204 3.2926 40.1205 3.29263L40.451 2.9175L40.1203 3.29253ZM40.1203 3.29253C39.9284 3.12336 39.6639 2.8853 39.4487 2.69072C39.3408 2.59316 39.2447 2.50607 39.1757 2.44338L39.0942 2.36931L39.0721 2.34923L39.0677 2.34516M39.0677 2.34516C39.0686 2.34599 39.0695 2.34681 39.0705 2.34763L39.401 1.9725M39.0677 2.34516C38.7928 2.1043 38.4304 1.98065 38.0405 2.00281M39.0677 2.34516L39.0664 2.344L39.0649 2.34266L39.0645 2.34231L39.0644 2.34222L39.0644 2.3422L39.401 1.9725M39.401 1.9725L38.0405 2.00281M25.2796 14.0854C25.3416 14.0083 25.6839 13.6555 26.2382 13.0995C26.7787 12.5572 27.4906 11.8512 28.2567 11.0949C29.7886 9.58263 31.5345 7.87238 32.5543 6.87506L25.2796 14.0854Z" fill="#BDBDBD" stroke="black"/>
<path id="Vector_5" d="M24.6626 18.4695L27.1717 20.9785L27.5252 20.625L27.1717 20.9786L27.1718 20.9787L27.1722 20.9791L27.1738 20.9806L27.1799 20.9868L27.2039 21.0107L27.2948 21.1017L27.6199 21.4268L28.6088 22.4161C28.9692 22.7768 29.3308 23.1387 29.6045 23.413C29.6451 23.4537 29.6834 23.492 29.7192 23.5279C18.158 34.9318 13.7072 38.7953 12.4448 39.7741C12.4137 39.7979 12.3735 39.7949 12.3463 39.7677L12.3464 39.7676L12.3398 39.7613L8.2683 35.8359C8.24264 35.8087 8.24035 35.7694 8.26381 35.7389L7.86774 35.4337M24.6626 18.4695L24.3091 18.1159C12.9002 29.6826 8.86631 34.1456 7.86774 35.4337M24.6626 18.4695C13.2483 30.0417 9.2392 34.4807 8.2629 35.7401L7.86774 35.4337M24.6626 18.4695L30.4277 23.5312M7.86774 35.4337C7.69149 35.6625 7.71024 35.985 7.91649 36.1912L11.9927 40.1212C12.199 40.3275 12.5215 40.3462 12.7502 40.17C14.0515 39.1612 18.6002 35.2087 30.4277 23.5312M30.4277 23.5312C30.4245 23.5277 30.4002 23.5031 30.3584 23.461L30.4277 23.5312Z" fill="#1565C0" stroke="black"/>
<path id="Vector_6" d="M39.3414 3.92626C39.1089 3.56626 38.5427 3.05626 38.1527 2.88001C37.7064 2.68126 37.3764 2.87626 37.0914 3.12751C36.5889 3.57001 33.2477 7.03876 32.5164 7.95001C32.4339 8.05501 32.3477 8.17126 32.3477 8.30251C34.2564 6.49126 36.1989 4.70251 36.8177 4.16626C37.2902 3.75751 37.7477 3.39376 38.1189 3.76501C38.1564 3.80251 38.4152 4.00876 38.8839 4.40251L39.3414 3.92626Z" fill="#757575"/>
<path id="Vector_7" d="M45.7557 6.08967L45.7546 6.09125C45.3093 6.73731 39.6493 14.8275 29.8934 24.2096L29.8934 24.2095L29.8864 24.2164C29.8024 24.3005 29.6694 24.2973 29.5886 24.2164L24.0111 18.639C24.0108 18.6387 24.0106 18.6385 24.0103 18.6382C23.9557 18.5817 23.9281 18.4388 24.0261 18.3204C32.9901 8.92796 40.8011 3.35693 41.991 2.50833C42.0403 2.47313 42.0783 2.44606 42.1044 2.42717C42.1501 2.39458 42.2388 2.36007 42.4056 2.36977C42.5738 2.37955 42.7887 2.43337 43.0395 2.53942C43.5406 2.75137 44.1062 3.13832 44.5924 3.60696C45.0673 4.06641 45.4473 4.62573 45.6528 5.12844C45.7555 5.37967 45.8073 5.59886 45.8159 5.7724C45.8246 5.94687 45.7888 6.04201 45.7557 6.08967Z" fill="#1565C0" stroke="black"/>
<path id="Vector_8" d="M11.01 35.265C10.5938 35.5912 9.36004 36.1762 10.3088 34.6912C10.5338 34.3425 11.295 33.4012 11.6175 33.0225C12.8588 31.5525 19.9688 24.3637 21.2325 23.0362C22.26 21.9562 23.1675 21.6937 23.4638 22.4437C23.6663 22.9612 23.2463 23.5612 21.0563 25.8937C19.2338 27.8287 13.1663 33.5587 11.01 35.265ZM31.3988 15.3562C31.3988 15.3562 30.0825 16.9462 29.1263 16.14C28.3688 15.4987 30.1238 13.98 30.1238 13.98C30.1688 13.9312 36.1875 8.27625 37.9763 6.84C38.7113 6.2475 39.6488 5.5875 39.9075 5.81625C40.1663 6.045 39.7388 6.7725 38.61 7.89375C37.4775 9.015 31.44 15.3112 31.3988 15.3562Z" fill="#2196F3"/>
<path id="Vector_9" d="M27.1238 12.1875C26.8313 12.3788 26.9475 13.2525 26.7675 13.6988C26.6213 14.055 26.625 14.2425 26.925 14.1525C27.2438 14.055 27.6 13.575 27.6 12.8288C27.5963 12.465 27.4275 11.985 27.1238 12.1875Z" fill="#EEEEEE"/>
<path id="Vector_10" d="M39.0187 4.095L38.6812 4.3575C39.4687 4.84125 40.4624 5.5875 41.4862 6.61125C41.9399 7.065 42.5662 7.78875 42.7837 8.2275C42.9862 8.64375 43.0612 9.28125 42.8887 9.8775C42.7012 10.5263 42.4049 10.8188 42.2849 11.4788C42.8812 10.74 44.0849 9.19875 44.0849 9.19875C44.0849 9.19875 43.5637 7.86 41.7824 6.075C40.0012 4.29 39.0187 4.095 39.0187 4.095Z" fill="#0D47A1"/>
<path id="Vector_11" d="M44.9399 3.24749C44.1336 2.47124 43.1024 1.87874 42.3711 1.86749C42.3711 1.86749 43.6874 2.57249 44.4449 3.55874C45.2474 4.60124 45.7686 5.54999 45.4086 6.14624C44.8086 7.00874 39.4911 14.5575 30.1161 23.6437C30.078 23.6811 30.032 23.7095 29.9816 23.7269C29.9312 23.7444 29.8775 23.7505 29.8245 23.7447C29.7714 23.739 29.7203 23.7216 29.6747 23.6938C29.6292 23.6659 29.5904 23.6284 29.5611 23.5837C29.0286 22.7625 28.3161 21.8962 27.2511 20.835C25.7286 19.3125 24.7461 18.6262 23.6024 18.0487C23.6024 18.0487 23.3399 18.1875 23.2724 18.6487C23.2274 18.945 23.2536 19.185 23.2536 19.185L23.5761 18.8887C24.4724 19.3912 25.5636 20.2012 26.7261 21.3675C27.2249 21.8662 27.6749 22.3687 28.0649 22.8525C28.1174 22.95 28.5074 23.775 27.7086 25.0537C27.7086 25.0537 27.5886 25.2075 27.4086 25.4475C18.0224 34.6537 13.6574 38.58 12.7986 39.165C11.8986 39.7762 11.4224 39.57 11.4224 39.57C11.5349 39.6825 11.7824 39.96 12.0599 40.1775C12.3411 40.3987 12.6449 40.2487 12.7461 40.1662C13.8336 39.3225 17.1861 36.4275 25.1474 28.6987C25.1586 28.6875 25.1699 28.68 25.1774 28.6687C26.3474 27.5325 27.6186 26.2912 28.9949 24.9375C29.0024 24.9375 29.2386 24.9637 29.5311 24.9187C29.9886 24.8512 30.1611 24.6375 30.1611 24.6375V24.6337C30.1874 24.615 30.2136 24.5925 30.2399 24.57C40.0274 15.1575 45.7049 7.03874 46.1661 6.37499C46.6274 5.71124 45.9824 4.25249 44.9399 3.24749Z" fill="#0D47A1"/>
<path id="Vector_12" d="M28.905 19.1888C27.7537 18.0375 26.415 16.9838 25.2187 16.3725C25.2187 16.3725 24.9225 16.3538 24.645 16.6613C24.435 16.8938 24.3862 17.2238 24.3862 17.2238C25.2937 17.625 26.6212 18.4838 28.1175 19.9763C29.2425 21.1013 30.1575 22.2863 30.6937 23.3213C30.8025 23.5313 30.885 23.715 30.9487 23.8838C30.9487 23.8838 31.2787 23.8875 31.5562 23.6475C31.8675 23.3738 31.8037 23.0438 31.8037 23.0438C31.2112 21.8025 30.1125 20.3963 28.905 19.1888Z" fill="#FFC107"/>
<path id="Vector_13" d="M43.1812 4.91625C42.405 4.14 41.5425 3.4125 40.6987 2.83125C40.6987 2.83125 40.1212 2.61 39.5925 3.0975C39.0637 3.585 39.0225 4.09875 39.0225 4.09875C39.81 4.5825 40.7512 5.3025 41.775 6.32625C42.7312 7.2825 43.5337 8.2875 44.085 9.2025C44.085 9.2025 44.67 9.1575 45.0825 8.66625C45.495 8.175 45.3487 7.5225 45.3487 7.5225C44.7562 6.63375 43.995 5.73 43.1812 4.91625Z" fill="#BDBDBD"/>
<path id="Vector_14" d="M40.1964 3.28876C39.9976 3.33001 39.8101 3.48376 39.7989 3.68626C39.7876 3.89251 39.9526 4.05751 40.1064 4.19626C40.5864 4.63126 41.0851 5.07376 41.7001 5.28001C41.8351 5.32501 42.0114 5.35126 42.1051 5.24251C42.1651 5.17501 42.1689 5.07376 42.1614 4.98376C42.1314 4.61251 41.9439 4.27126 41.7001 3.99001C41.3176 3.55501 40.8151 3.16126 40.1964 3.28876Z" fill="#EEEEEE"/>
</g>
</svg>
