<svg width="247" height="147" viewBox="0 0 247 147" fill="none" xmlns="http://www.w3.org/2000/svg">
<g id="Group 44">
<g id="Group 39">
<g id="Group 37">
<path id="Vector" d="M241.149 6.00781H181.403V138.059H241.149V6.00781Z" fill="#D1D3D4"/>
<path id="Vector_2" d="M241.149 138.501H181.403C181.346 138.502 181.288 138.492 181.235 138.471C181.182 138.45 181.133 138.418 181.092 138.378C181.051 138.337 181.018 138.289 180.996 138.236C180.974 138.183 180.962 138.126 180.962 138.069V6.00876C180.962 5.95125 180.974 5.8943 180.996 5.84127C181.018 5.78823 181.051 5.74017 181.092 5.6999C181.133 5.65962 181.182 5.62794 181.235 5.60671C181.288 5.58548 181.346 5.57513 181.403 5.57626H241.149C241.207 5.57513 241.264 5.58548 241.317 5.60671C241.371 5.62794 241.419 5.65962 241.46 5.6999C241.501 5.74017 241.534 5.78823 241.556 5.84127C241.579 5.8943 241.59 5.95125 241.59 6.00876V138.069C241.59 138.126 241.579 138.183 241.556 138.236C241.534 138.289 241.501 138.337 241.46 138.378C241.419 138.418 241.371 138.45 241.317 138.471C241.264 138.492 241.207 138.502 241.149 138.501ZM181.844 137.653H240.708V6.44976H181.844V137.653Z" fill="#D1D3D4"/>
<path id="Vector_3" d="M241.132 3.18469H181.42C178.793 3.18469 176.663 5.31475 176.663 7.94231V18.0427C176.663 20.6703 178.793 22.8003 181.42 22.8003H241.132C243.76 22.8003 245.89 20.6703 245.89 18.0427V7.94231C245.89 5.31475 243.76 3.18469 241.132 3.18469Z" fill="white"/>
<path id="Vector_4" d="M241.132 23.2334H181.42C180.043 23.2311 178.723 22.6824 177.75 21.7077C176.777 20.733 176.23 19.412 176.23 18.0347V7.94282C176.23 6.56553 176.777 5.24452 177.75 4.26984C178.723 3.29515 180.043 2.74645 181.42 2.7442H241.132C241.817 2.74085 242.496 2.87284 243.129 3.1326C243.763 3.39235 244.339 3.77475 244.825 4.25782C245.31 4.74089 245.695 5.31511 245.958 5.9475C246.221 6.57989 246.356 7.25798 246.356 7.94282V18.0347C246.356 18.7196 246.221 19.3977 245.958 20.0301C245.695 20.6624 245.31 21.2367 244.825 21.7197C244.339 22.2028 243.763 22.5852 243.129 22.845C242.496 23.1047 241.817 23.2367 241.132 23.2334ZM181.42 3.6177C180.274 3.61995 179.177 4.07662 178.367 4.8875C177.558 5.69837 177.103 6.79719 177.103 7.94282V18.0347C177.103 19.1804 177.558 20.2792 178.367 21.0901C179.177 21.9009 180.274 22.3576 181.42 22.3598H241.132C242.278 22.3576 243.376 21.9009 244.185 21.0901C244.994 20.2792 245.449 19.1804 245.449 18.0347V7.94282C245.449 6.79719 244.994 5.69837 244.185 4.8875C243.376 4.07662 242.278 3.61995 241.132 3.6177H181.42Z" fill="#D1D3D4"/>
<path id="Vector_5" d="M184.855 15.1085C184.435 15.1085 184.026 14.9841 183.677 14.7512C183.328 14.5182 183.056 14.1871 182.896 13.7997C182.736 13.4123 182.694 12.986 182.775 12.5747C182.857 12.1634 183.059 11.7857 183.356 11.4891C183.652 11.1926 184.03 10.9907 184.441 10.9089C184.852 10.8271 185.279 10.8691 185.666 11.0296C186.054 11.19 186.385 11.4618 186.618 11.8104C186.851 12.1591 186.975 12.569 186.975 12.9883C186.973 13.5499 186.749 14.0879 186.351 14.485C185.954 14.8822 185.416 15.1062 184.855 15.1085ZM184.855 11.7162C184.603 11.7162 184.357 11.7908 184.148 11.9306C183.939 12.0704 183.776 12.2691 183.68 12.5015C183.583 12.734 183.558 12.9897 183.607 13.2365C183.656 13.4833 183.777 13.7099 183.955 13.8878C184.133 14.0657 184.36 14.1869 184.607 14.236C184.853 14.285 185.109 14.2599 185.342 14.1636C185.574 14.0673 185.773 13.9043 185.912 13.6951C186.052 13.4859 186.127 13.2399 186.127 12.9883C186.125 12.6516 185.99 12.3294 185.752 12.0913C185.514 11.8532 185.191 11.7184 184.855 11.7162Z" fill="#D1D3D4"/>
<path id="Vector_6" d="M192.012 15.1085C191.593 15.1085 191.183 14.9841 190.835 14.7512C190.486 14.5182 190.214 14.1871 190.054 13.7997C189.893 13.4123 189.851 12.986 189.933 12.5747C190.015 12.1634 190.217 11.7857 190.513 11.4891C190.81 11.1926 191.188 10.9907 191.599 10.9089C192.01 10.8271 192.436 10.8691 192.824 11.0296C193.211 11.19 193.542 11.4618 193.775 11.8104C194.008 12.1591 194.133 12.569 194.133 12.9883C194.133 13.5506 193.909 14.0899 193.512 14.4875C193.114 14.8851 192.575 15.1085 192.012 15.1085ZM192.012 11.7162C191.761 11.7162 191.515 11.7908 191.306 11.9306C191.097 12.0704 190.934 12.2691 190.837 12.5015C190.741 12.734 190.716 12.9897 190.765 13.2365C190.814 13.4833 190.935 13.7099 191.113 13.8878C191.291 14.0657 191.518 14.1869 191.764 14.236C192.011 14.285 192.267 14.2599 192.499 14.1636C192.732 14.0673 192.93 13.9043 193.07 13.6951C193.21 13.4859 193.285 13.2399 193.285 12.9883C193.285 12.6509 193.151 12.3274 192.912 12.0888C192.673 11.8503 192.35 11.7162 192.012 11.7162Z" fill="#D1D3D4"/>
<path id="Vector_7" d="M239.394 14.3875H198.263C198.15 14.3875 198.042 14.3428 197.963 14.2633C197.883 14.1838 197.839 14.076 197.839 13.9635V11.9875C197.839 11.875 197.883 11.7672 197.963 11.6877C198.042 11.6082 198.15 11.5635 198.263 11.5635H239.394C239.506 11.5635 239.614 11.6082 239.693 11.6877C239.773 11.7672 239.818 11.875 239.818 11.9875V13.9889C239.811 14.0969 239.764 14.1983 239.685 14.2724C239.606 14.3465 239.502 14.3877 239.394 14.3875ZM198.687 13.5395H238.97V12.4115H198.687V13.5395Z" fill="#D1D3D4"/>
<path id="Vector_8" d="M241.132 27.3545H181.42C178.793 27.3545 176.663 29.4846 176.663 32.1121V42.2125C176.663 44.8401 178.793 46.9701 181.42 46.9701H241.132C243.76 46.9701 245.89 44.8401 245.89 42.2125V32.1121C245.89 29.4846 243.76 27.3545 241.132 27.3545Z" fill="white"/>
<path id="Vector_9" d="M241.132 47.4023H181.42C180.043 47.4001 178.723 46.8514 177.75 45.8767C176.777 44.902 176.23 43.581 176.23 42.2037V32.1118C176.23 30.7345 176.777 29.4135 177.75 28.4388C178.723 27.4641 180.043 26.9154 181.42 26.9131H241.132C241.817 26.9098 242.496 27.0418 243.129 27.3015C243.763 27.5613 244.339 27.9437 244.825 28.4268C245.31 28.9098 245.695 29.4841 245.958 30.1164C246.221 30.7488 246.356 31.4269 246.356 32.1118V42.2037C246.356 42.8885 246.221 43.5666 245.958 44.199C245.695 44.8314 245.31 45.4056 244.825 45.8887C244.339 46.3718 243.763 46.7542 243.129 47.0139C242.496 47.2737 241.817 47.4057 241.132 47.4023ZM181.42 27.7867C180.274 27.7889 179.177 28.2456 178.367 29.0564C177.558 29.8673 177.103 30.9661 177.103 32.1118V42.2037C177.103 43.3493 177.558 44.4481 178.367 45.259C179.177 46.0699 180.274 46.5266 181.42 46.5288H241.132C242.278 46.5266 243.376 46.0699 244.185 45.259C244.994 44.4481 245.449 43.3493 245.449 42.2037V32.1118C245.449 30.9661 244.994 29.8673 244.185 29.0564C243.376 28.2456 242.278 27.7889 241.132 27.7867H181.42Z" fill="#D1D3D4"/>
<path id="Vector_10" d="M184.855 39.2774C184.435 39.2774 184.026 39.1531 183.677 38.9201C183.328 38.6871 183.056 38.356 182.896 37.9686C182.736 37.5812 182.694 37.1549 182.775 36.7436C182.857 36.3324 183.059 35.9546 183.356 35.6581C183.652 35.3616 184.03 35.1597 184.441 35.0778C184.852 34.996 185.279 35.038 185.666 35.1985C186.054 35.359 186.385 35.6307 186.618 35.9794C186.851 36.328 186.975 36.7379 186.975 37.1573C186.973 37.7189 186.749 38.2569 186.351 38.654C185.954 39.0511 185.416 39.2752 184.855 39.2774ZM184.855 35.8852C184.603 35.8852 184.357 35.9598 184.148 36.0996C183.939 36.2393 183.776 36.438 183.68 36.6705C183.583 36.9029 183.558 37.1587 183.607 37.4054C183.656 37.6522 183.777 37.8789 183.955 38.0568C184.133 38.2347 184.36 38.3558 184.607 38.4049C184.853 38.454 185.109 38.4288 185.342 38.3325C185.574 38.2362 185.773 38.0732 185.912 37.864C186.052 37.6548 186.127 37.4089 186.127 37.1573C186.125 36.8206 185.99 36.4983 185.752 36.2602C185.514 36.0221 185.191 35.8874 184.855 35.8852Z" fill="#D1D3D4"/>
<path id="Vector_11" d="M192.012 39.2774C191.593 39.2774 191.183 39.1531 190.835 38.9201C190.486 38.6871 190.214 38.356 190.054 37.9686C189.893 37.5812 189.851 37.1549 189.933 36.7436C190.015 36.3324 190.217 35.9546 190.513 35.6581C190.81 35.3616 191.188 35.1597 191.599 35.0778C192.01 34.996 192.436 35.038 192.824 35.1985C193.211 35.359 193.542 35.6307 193.775 35.9794C194.008 36.328 194.133 36.7379 194.133 37.1573C194.133 37.7196 193.909 38.2588 193.512 38.6564C193.114 39.054 192.575 39.2774 192.012 39.2774ZM192.012 35.8852C191.761 35.8852 191.515 35.9598 191.306 36.0996C191.097 36.2393 190.934 36.438 190.837 36.6705C190.741 36.9029 190.716 37.1587 190.765 37.4054C190.814 37.6522 190.935 37.8789 191.113 38.0568C191.291 38.2347 191.518 38.3558 191.764 38.4049C192.011 38.454 192.267 38.4288 192.499 38.3325C192.732 38.2362 192.93 38.0732 193.07 37.864C193.21 37.6548 193.285 37.4089 193.285 37.1573C193.285 36.8199 193.151 36.4963 192.912 36.2578C192.673 36.0192 192.35 35.8852 192.012 35.8852Z" fill="#D1D3D4"/>
<path id="Vector_12" d="M239.394 38.5839H198.263C198.15 38.5839 198.042 38.5392 197.963 38.4597C197.883 38.3801 197.839 38.2723 197.839 38.1598V36.1584C197.839 36.0459 197.883 35.9381 197.963 35.8586C198.042 35.779 198.15 35.7344 198.263 35.7344H239.394C239.506 35.7344 239.614 35.779 239.693 35.8586C239.773 35.9381 239.818 36.0459 239.818 36.1584V38.1344C239.821 38.1922 239.813 38.2501 239.793 38.3045C239.773 38.3589 239.743 38.4087 239.703 38.4508C239.663 38.4929 239.615 38.5264 239.562 38.5493C239.509 38.5722 239.451 38.584 239.394 38.5839ZM198.687 37.7358H238.97V36.5824H198.687V37.7358Z" fill="#D1D3D4"/>
<path id="Vector_13" d="M241.132 51.5234H181.42C178.793 51.5234 176.663 53.6535 176.663 56.2811V66.3815C176.663 69.009 178.793 71.1391 181.42 71.1391H241.132C243.76 71.1391 245.89 69.009 245.89 66.3815V56.2811C245.89 53.6535 243.76 51.5234 241.132 51.5234Z" fill="white"/>
<path id="Vector_14" d="M241.132 71.5723H181.42C180.043 71.5701 178.723 71.0214 177.75 70.0467C176.777 69.072 176.23 67.751 176.23 66.3737V56.2818C176.23 54.9045 176.777 53.5835 177.75 52.6088C178.723 51.6341 180.043 51.0854 181.42 51.0832H241.132C241.817 51.0798 242.496 51.2118 243.129 51.4716C243.763 51.7313 244.339 52.1137 244.825 52.5968C245.31 53.0799 245.695 53.6541 245.958 54.2865C246.221 54.9189 246.356 55.597 246.356 56.2818V66.3737C246.356 67.0586 246.221 67.7367 245.958 68.3691C245.695 69.0014 245.31 69.5757 244.825 70.0587C244.339 70.5418 243.763 70.9242 243.129 71.1839C242.496 71.4437 241.817 71.5757 241.132 71.5723ZM181.42 51.9567C180.274 51.9589 179.177 52.4156 178.367 53.2265C177.558 54.0374 177.103 55.1362 177.103 56.2818V66.3737C177.103 67.5194 177.558 68.6182 178.367 69.4291C179.177 70.2399 180.274 70.6966 181.42 70.6988H241.132C242.278 70.6966 243.376 70.2399 244.185 69.4291C244.994 68.6182 245.449 67.5194 245.449 66.3737V56.2818C245.449 55.1362 244.994 54.0374 244.185 53.2265C243.376 52.4156 242.278 51.9589 241.132 51.9567H181.42Z" fill="#D1D3D4"/>
<path id="Vector_15" d="M184.855 63.4475C184.435 63.4475 184.026 63.3231 183.677 63.0902C183.328 62.8572 183.056 62.5261 182.896 62.1387C182.736 61.7512 182.694 61.325 182.775 60.9137C182.857 60.5024 183.059 60.1246 183.356 59.8281C183.652 59.5316 184.03 59.3297 184.441 59.2479C184.852 59.1661 185.279 59.2081 185.666 59.3685C186.054 59.529 186.385 59.8008 186.618 60.1494C186.851 60.4981 186.975 60.908 186.975 61.3273C186.973 61.8889 186.749 62.4269 186.351 62.824C185.954 63.2211 185.416 63.4452 184.855 63.4475ZM184.855 60.0552C184.603 60.0552 184.357 60.1298 184.148 60.2696C183.939 60.4094 183.776 60.6081 183.68 60.8405C183.583 61.0729 183.558 61.3287 183.607 61.5755C183.656 61.8222 183.777 62.0489 183.955 62.2268C184.133 62.4047 184.36 62.5259 184.607 62.575C184.853 62.624 185.109 62.5989 185.342 62.5026C185.574 62.4063 185.773 62.2432 185.912 62.034C186.052 61.8248 186.127 61.5789 186.127 61.3273C186.125 60.9906 185.99 60.6683 185.752 60.4303C185.514 60.1922 185.191 60.0574 184.855 60.0552Z" fill="#D1D3D4"/>
<path id="Vector_16" d="M192.012 63.4475C191.593 63.4475 191.183 63.3231 190.835 63.0902C190.486 62.8572 190.214 62.5261 190.054 62.1387C189.893 61.7512 189.851 61.325 189.933 60.9137C190.015 60.5024 190.217 60.1246 190.513 59.8281C190.81 59.5316 191.188 59.3297 191.599 59.2479C192.01 59.1661 192.436 59.2081 192.824 59.3685C193.211 59.529 193.542 59.8008 193.775 60.1494C194.008 60.4981 194.133 60.908 194.133 61.3273C194.133 61.8896 193.909 62.4289 193.512 62.8265C193.114 63.2241 192.575 63.4475 192.012 63.4475ZM192.012 60.0552C191.761 60.0552 191.515 60.1298 191.306 60.2696C191.097 60.4094 190.934 60.6081 190.837 60.8405C190.741 61.0729 190.716 61.3287 190.765 61.5755C190.814 61.8222 190.935 62.0489 191.113 62.2268C191.291 62.4047 191.518 62.5259 191.764 62.575C192.011 62.624 192.267 62.5989 192.499 62.5026C192.732 62.4063 192.93 62.2432 193.07 62.034C193.21 61.8248 193.285 61.5789 193.285 61.3273C193.285 60.9899 193.151 60.6664 192.912 60.4278C192.673 60.1892 192.35 60.0552 192.012 60.0552Z" fill="#D1D3D4"/>
<path id="Vector_17" d="M239.394 62.7284H198.263C198.15 62.7284 198.042 62.6837 197.963 62.6042C197.883 62.5247 197.839 62.4168 197.839 62.3044V60.3029C197.839 60.1905 197.883 60.0826 197.963 60.0031C198.042 59.9236 198.15 59.8789 198.263 59.8789H239.394C239.506 59.8789 239.614 59.9236 239.693 60.0031C239.773 60.0826 239.818 60.1905 239.818 60.3029V62.3044C239.818 62.4168 239.773 62.5247 239.693 62.6042C239.614 62.6837 239.506 62.7284 239.394 62.7284ZM198.687 61.8803H238.97V60.727H198.687V61.8803Z" fill="#D1D3D4"/>
<path id="Vector_18" d="M241.132 75.6846H181.42C178.793 75.6846 176.663 77.8146 176.663 80.4422V90.5426C176.663 93.1702 178.793 95.3002 181.42 95.3002H241.132C243.76 95.3002 245.89 93.1702 245.89 90.5426V80.4422C245.89 77.8146 243.76 75.6846 241.132 75.6846Z" fill="white"/>
<path id="Vector_19" d="M241.132 95.7421H181.42C180.043 95.7399 178.723 95.1912 177.75 94.2165C176.777 93.2418 176.23 91.9208 176.23 90.5435V80.4516C176.23 79.0743 176.777 77.7533 177.75 76.7786C178.723 75.8039 180.043 75.2552 181.42 75.253H241.132C241.817 75.2496 242.496 75.3816 243.129 75.6414C243.763 75.9011 244.339 76.2835 244.825 76.7666C245.31 77.2497 245.695 77.8239 245.958 78.4563C246.221 79.0887 246.356 79.7668 246.356 80.4516V90.5435C246.356 91.2284 246.221 91.9065 245.958 92.5388C245.695 93.1712 245.31 93.7455 244.825 94.2285C244.339 94.7116 243.763 95.094 243.129 95.3537C242.496 95.6135 241.817 95.7455 241.132 95.7421ZM181.42 76.1265C180.274 76.1287 179.177 76.5854 178.367 77.3963C177.558 78.2072 177.103 79.306 177.103 80.4516V90.5435C177.103 91.6891 177.558 92.788 178.367 93.5988C179.177 94.4097 180.274 94.8664 181.42 94.8686H241.132C242.278 94.8664 243.376 94.4097 244.185 93.5988C244.994 92.788 245.449 91.6891 245.449 90.5435V80.4516C245.449 79.306 244.994 78.2072 244.185 77.3963C243.376 76.5854 242.278 76.1287 241.132 76.1265H181.42Z" fill="#D1D3D4"/>
<path id="Vector_20" d="M184.855 87.6182C184.435 87.6182 184.026 87.4939 183.677 87.2609C183.328 87.028 183.056 86.6968 182.896 86.3094C182.736 85.922 182.694 85.4957 182.775 85.0845C182.857 84.6732 183.059 84.2954 183.356 83.9989C183.652 83.7024 184.03 83.5005 184.441 83.4187C184.852 83.3369 185.279 83.3788 185.666 83.5393C186.054 83.6998 186.385 83.9715 186.618 84.3202C186.851 84.6688 186.975 85.0788 186.975 85.4981C186.973 86.0597 186.749 86.5977 186.351 86.9948C185.954 87.3919 185.416 87.616 184.855 87.6182ZM184.855 84.226C184.603 84.226 184.357 84.3006 184.148 84.4404C183.939 84.5802 183.776 84.7788 183.68 85.0113C183.583 85.2437 183.558 85.4995 183.607 85.7463C183.656 85.993 183.777 86.2197 183.955 86.3976C184.133 86.5755 184.36 86.6966 184.607 86.7457C184.853 86.7948 185.109 86.7696 185.342 86.6733C185.574 86.5771 185.773 86.414 185.912 86.2048C186.052 85.9956 186.127 85.7497 186.127 85.4981C186.125 85.1614 185.99 84.8391 185.752 84.601C185.514 84.3629 185.191 84.2282 184.855 84.226Z" fill="#D1D3D4"/>
<path id="Vector_21" d="M192.012 87.6182C191.593 87.6182 191.183 87.4939 190.835 87.2609C190.486 87.028 190.214 86.6968 190.054 86.3094C189.893 85.922 189.851 85.4957 189.933 85.0845C190.015 84.6732 190.217 84.2954 190.513 83.9989C190.81 83.7024 191.188 83.5005 191.599 83.4187C192.01 83.3369 192.436 83.3788 192.824 83.5393C193.211 83.6998 193.542 83.9715 193.775 84.3202C194.008 84.6688 194.133 85.0788 194.133 85.4981C194.133 86.0604 193.909 86.5996 193.512 86.9973C193.114 87.3949 192.575 87.6182 192.012 87.6182ZM192.012 84.226C191.761 84.226 191.515 84.3006 191.306 84.4404C191.097 84.5802 190.934 84.7788 190.837 85.0113C190.741 85.2437 190.716 85.4995 190.765 85.7463C190.814 85.993 190.935 86.2197 191.113 86.3976C191.291 86.5755 191.518 86.6966 191.764 86.7457C192.011 86.7948 192.267 86.7696 192.499 86.6733C192.732 86.5771 192.93 86.414 193.07 86.2048C193.21 85.9956 193.285 85.7497 193.285 85.4981C193.285 85.1607 193.151 84.8371 192.912 84.5986C192.673 84.36 192.35 84.226 192.012 84.226Z" fill="#D1D3D4"/>
<path id="Vector_22" d="M239.394 86.9227H198.263C198.15 86.9227 198.042 86.8781 197.963 86.7985C197.883 86.719 197.839 86.6112 197.839 86.4987V84.4973C197.839 84.3848 197.883 84.277 197.963 84.1974C198.042 84.1179 198.15 84.0732 198.263 84.0732H239.394C239.506 84.0732 239.614 84.1179 239.693 84.1974C239.773 84.277 239.818 84.3848 239.818 84.4973V86.4733C239.821 86.531 239.813 86.5889 239.793 86.6433C239.773 86.6978 239.743 86.7476 239.703 86.7897C239.663 86.8318 239.615 86.8653 239.562 86.8882C239.509 86.9111 239.451 86.9228 239.394 86.9227ZM198.687 86.0747H238.97V84.9213H198.687V86.0747Z" fill="#D1D3D4"/>
<path id="Vector_23" d="M241.132 99.8555H181.42C178.793 99.8555 176.663 101.986 176.663 104.613V114.714C176.663 117.341 178.793 119.471 181.42 119.471H241.132C243.76 119.471 245.89 117.341 245.89 114.714V104.613C245.89 101.986 243.76 99.8555 241.132 99.8555Z" fill="white"/>
<path id="Vector_24" d="M241.132 119.911H181.42C180.043 119.909 178.723 119.36 177.75 118.385C176.777 117.411 176.23 116.09 176.23 114.712V104.621C176.23 103.243 176.777 101.922 177.75 100.948C178.723 99.9729 180.043 99.4242 181.42 99.4219H241.132C241.817 99.4186 242.496 99.5506 243.129 99.8103C243.763 100.07 244.339 100.452 244.825 100.936C245.31 101.419 245.695 101.993 245.958 102.625C246.221 103.258 246.356 103.936 246.356 104.621V114.712C246.356 115.397 246.221 116.075 245.958 116.708C245.695 117.34 245.31 117.914 244.825 118.397C244.339 118.881 243.763 119.263 243.129 119.523C242.496 119.782 241.817 119.914 241.132 119.911ZM181.42 100.295C180.274 100.298 179.177 100.754 178.367 101.565C177.558 102.376 177.103 103.475 177.103 104.621V114.712C177.103 115.858 177.558 116.957 178.367 117.768C179.177 118.579 180.274 119.035 181.42 119.038H241.132C242.278 119.035 243.376 118.579 244.185 117.768C244.994 116.957 245.449 115.858 245.449 114.712V104.621C245.449 103.475 244.994 102.376 244.185 101.565C243.376 100.754 242.278 100.298 241.132 100.295H181.42Z" fill="#D1D3D4"/>
<path id="Vector_25" d="M184.855 111.787C184.435 111.787 184.026 111.663 183.677 111.43C183.328 111.197 183.056 110.866 182.896 110.478C182.736 110.091 182.694 109.665 182.775 109.253C182.857 108.842 183.059 108.464 183.356 108.168C183.652 107.871 184.03 107.669 184.441 107.588C184.852 107.506 185.279 107.548 185.666 107.708C186.054 107.869 186.385 108.14 186.618 108.489C186.851 108.838 186.975 109.248 186.975 109.667C186.973 110.229 186.749 110.767 186.351 111.164C185.954 111.561 185.416 111.785 184.855 111.787ZM184.855 108.395C184.603 108.395 184.357 108.47 184.148 108.609C183.939 108.749 183.776 108.948 183.68 109.18C183.583 109.413 183.558 109.668 183.607 109.915C183.656 110.162 183.777 110.389 183.955 110.567C184.133 110.744 184.36 110.866 184.607 110.915C184.853 110.964 185.109 110.939 185.342 110.842C185.574 110.746 185.773 110.583 185.912 110.374C186.052 110.165 186.127 109.919 186.127 109.667C186.125 109.33 185.99 109.008 185.752 108.77C185.514 108.532 185.191 108.397 184.855 108.395Z" fill="#D1D3D4"/>
<path id="Vector_26" d="M192.012 111.787C191.593 111.787 191.183 111.663 190.835 111.43C190.486 111.197 190.214 110.866 190.054 110.478C189.893 110.091 189.851 109.665 189.933 109.253C190.015 108.842 190.217 108.464 190.513 108.168C190.81 107.871 191.188 107.669 191.599 107.588C192.01 107.506 192.436 107.548 192.824 107.708C193.211 107.869 193.542 108.14 193.775 108.489C194.008 108.838 194.133 109.248 194.133 109.667C194.133 110.229 193.909 110.769 193.512 111.166C193.114 111.564 192.575 111.787 192.012 111.787ZM192.012 108.395C191.761 108.395 191.515 108.47 191.306 108.609C191.097 108.749 190.934 108.948 190.837 109.18C190.741 109.413 190.716 109.668 190.765 109.915C190.814 110.162 190.935 110.389 191.113 110.567C191.291 110.744 191.518 110.866 191.764 110.915C192.011 110.964 192.267 110.939 192.499 110.842C192.732 110.746 192.93 110.583 193.07 110.374C193.21 110.165 193.285 109.919 193.285 109.667C193.285 109.33 193.151 109.006 192.912 108.768C192.673 108.529 192.35 108.395 192.012 108.395Z" fill="#D1D3D4"/>
<path id="Vector_27" d="M239.394 111.067H198.263C198.15 111.067 198.042 111.022 197.963 110.943C197.883 110.863 197.839 110.755 197.839 110.643V108.642C197.839 108.529 197.883 108.421 197.963 108.342C198.042 108.262 198.15 108.218 198.263 108.218H239.394C239.506 108.218 239.614 108.262 239.693 108.342C239.773 108.421 239.818 108.529 239.818 108.642V110.643C239.818 110.755 239.773 110.863 239.693 110.943C239.614 111.022 239.506 111.067 239.394 111.067ZM198.687 110.219H238.97V109.066H198.687V110.219Z" fill="#D1D3D4"/>
<path id="Vector_28" d="M241.132 124.026H181.42C178.793 124.026 176.663 126.156 176.663 128.784V138.884C176.663 141.512 178.793 143.642 181.42 143.642H241.132C243.76 143.642 245.89 141.512 245.89 138.884V128.784C245.89 126.156 243.76 124.026 241.132 124.026Z" fill="white"/>
<path id="Vector_29" d="M241.132 144.081H181.42C180.043 144.079 178.723 143.53 177.75 142.555C176.777 141.581 176.23 140.26 176.23 138.882V128.79C176.23 127.413 176.777 126.092 177.75 125.117C178.723 124.143 180.043 123.594 181.42 123.592H241.132C241.817 123.589 242.496 123.72 243.129 123.98C243.763 124.24 244.339 124.622 244.825 125.105C245.31 125.589 245.695 126.163 245.958 126.795C246.221 127.428 246.356 128.106 246.356 128.79V138.882C246.356 139.567 246.221 140.245 245.958 140.878C245.695 141.51 245.31 142.084 244.825 142.567C244.339 143.05 243.763 143.433 243.129 143.693C242.496 143.952 241.817 144.084 241.132 144.081ZM181.42 124.465C180.274 124.468 179.177 124.924 178.367 125.735C177.558 126.546 177.103 127.645 177.103 128.79V138.882C177.103 140.028 177.558 141.127 178.367 141.938C179.177 142.749 180.274 143.205 181.42 143.207H241.132C242.278 143.205 243.376 142.749 244.185 141.938C244.994 141.127 245.449 140.028 245.449 138.882V128.79C245.449 127.645 244.994 126.546 244.185 125.735C243.376 124.924 242.278 124.468 241.132 124.465H181.42Z" fill="#D1D3D4"/>
<path id="Vector_30" d="M184.855 135.958C184.435 135.958 184.026 135.834 183.677 135.601C183.328 135.368 183.056 135.037 182.896 134.649C182.736 134.262 182.694 133.836 182.775 133.424C182.857 133.013 183.059 132.635 183.356 132.339C183.652 132.042 184.03 131.84 184.441 131.759C184.852 131.677 185.279 131.719 185.666 131.879C186.054 132.04 186.385 132.311 186.618 132.66C186.851 133.009 186.975 133.419 186.975 133.838C186.973 134.4 186.749 134.938 186.351 135.335C185.954 135.732 185.416 135.956 184.855 135.958ZM184.855 132.566C184.603 132.566 184.357 132.64 184.148 132.78C183.939 132.92 183.776 133.119 183.68 133.351C183.583 133.584 183.558 133.839 183.607 134.086C183.656 134.333 183.777 134.56 183.955 134.737C184.133 134.915 184.36 135.036 184.607 135.086C184.853 135.135 185.109 135.109 185.342 135.013C185.574 134.917 185.773 134.754 185.912 134.545C186.052 134.335 186.127 134.09 186.127 133.838C186.125 133.501 185.99 133.179 185.752 132.941C185.514 132.703 185.191 132.568 184.855 132.566Z" fill="#D1D3D4"/>
<path id="Vector_31" d="M192.012 135.958C191.593 135.958 191.183 135.834 190.835 135.601C190.486 135.368 190.214 135.037 190.054 134.649C189.893 134.262 189.851 133.836 189.933 133.424C190.015 133.013 190.217 132.635 190.513 132.339C190.81 132.042 191.188 131.84 191.599 131.759C192.01 131.677 192.436 131.719 192.824 131.879C193.211 132.04 193.542 132.311 193.775 132.66C194.008 133.009 194.133 133.419 194.133 133.838C194.133 134.4 193.909 134.939 193.512 135.337C193.114 135.735 192.575 135.958 192.012 135.958ZM192.012 132.566C191.761 132.566 191.515 132.64 191.306 132.78C191.097 132.92 190.934 133.119 190.837 133.351C190.741 133.584 190.716 133.839 190.765 134.086C190.814 134.333 190.935 134.56 191.113 134.737C191.291 134.915 191.518 135.036 191.764 135.086C192.011 135.135 192.267 135.109 192.499 135.013C192.732 134.917 192.93 134.754 193.07 134.545C193.21 134.335 193.285 134.09 193.285 133.838C193.285 133.501 193.151 133.177 192.912 132.938C192.673 132.7 192.35 132.566 192.012 132.566Z" fill="#D1D3D4"/>
<path id="Vector_32" d="M239.394 135.261H198.263C198.15 135.261 198.042 135.217 197.963 135.137C197.883 135.058 197.839 134.95 197.839 134.837V132.836C197.839 132.724 197.883 132.616 197.963 132.536C198.042 132.457 198.15 132.412 198.263 132.412H239.394C239.506 132.412 239.614 132.457 239.693 132.536C239.773 132.616 239.818 132.724 239.818 132.836V134.812C239.821 134.87 239.813 134.928 239.793 134.982C239.773 135.037 239.743 135.086 239.703 135.128C239.663 135.171 239.615 135.204 239.562 135.227C239.509 135.25 239.451 135.262 239.394 135.261ZM198.687 134.413H238.97V133.26H198.687V134.413Z" fill="#D1D3D4"/>
<path id="Vector_33" d="M190.681 143.64H183.515V146.557H190.681V143.64Z" fill="#D1D3D4"/>
<path id="Vector_34" d="M190.681 146.999H183.515C183.4 146.999 183.29 146.953 183.209 146.872C183.128 146.791 183.082 146.681 183.082 146.566V143.641C183.082 143.526 183.128 143.416 183.209 143.335C183.29 143.254 183.4 143.208 183.515 143.208H190.681C190.796 143.208 190.906 143.254 190.987 143.335C191.068 143.416 191.113 143.526 191.113 143.641V146.566C191.113 146.681 191.068 146.791 190.987 146.872C190.906 146.953 190.796 146.999 190.681 146.999ZM183.956 146.151H190.24V144.107H183.956V146.151Z" fill="#D1D3D4"/>
<path id="Vector_35" d="M239.037 143.64H231.871V146.557H239.037V143.64Z" fill="#D1D3D4"/>
<path id="Vector_36" d="M239.037 146.999H231.871C231.757 146.999 231.647 146.953 231.565 146.872C231.484 146.791 231.439 146.681 231.439 146.566V143.641C231.439 143.526 231.484 143.416 231.565 143.335C231.647 143.254 231.757 143.208 231.871 143.208H239.037C239.152 143.208 239.262 143.254 239.343 143.335C239.424 143.416 239.47 143.526 239.47 143.641V146.566C239.47 146.681 239.424 146.791 239.343 146.872C239.262 146.953 239.152 146.999 239.037 146.999ZM232.312 146.151H238.596V144.107H232.312V146.151Z" fill="#D1D3D4"/>
</g>
<g id="Group 38">
<path id="Vector_37" d="M161.296 56.1719H101.55V138.069H161.296V56.1719Z" fill="#D1D3D4"/>
<path id="Vector_38" d="M161.296 138.501H101.55C101.435 138.501 101.325 138.456 101.244 138.375C101.163 138.293 101.117 138.183 101.117 138.069V56.1715C101.116 56.1139 101.126 56.0568 101.148 56.0033C101.169 55.9499 101.201 55.9012 101.241 55.8601C101.281 55.8191 101.329 55.7864 101.382 55.7642C101.435 55.7419 101.492 55.7305 101.55 55.7305H161.296C161.413 55.7305 161.525 55.7769 161.607 55.8596C161.69 55.9423 161.737 56.0545 161.737 56.1715V138.069C161.737 138.126 161.725 138.183 161.703 138.236C161.681 138.289 161.648 138.337 161.607 138.378C161.566 138.418 161.517 138.45 161.464 138.471C161.41 138.492 161.353 138.502 161.296 138.501ZM101.991 137.653H160.863V56.6125H101.991V137.653Z" fill="#D1D3D4"/>
<path id="Vector_39" d="M161.279 51.5234H101.567C98.9391 51.5234 96.8091 53.6535 96.8091 56.2811V66.3815C96.8091 69.009 98.9391 71.1391 101.567 71.1391H161.279C163.906 71.1391 166.036 69.009 166.036 66.3815V56.2811C166.036 53.6535 163.906 51.5234 161.279 51.5234Z" fill="white"/>
<path id="Vector_40" d="M161.279 71.5722H101.575C100.197 71.5699 98.876 71.0215 97.9016 70.047C96.9271 69.0726 96.3787 67.7516 96.3765 66.3736V56.2816C96.3787 54.9036 96.9271 53.5826 97.9016 52.6081C98.876 51.6337 100.197 51.0853 101.575 51.083H161.279C162.657 51.0853 163.978 51.6337 164.952 52.6081C165.927 53.5826 166.475 54.9036 166.477 56.2816V66.3736C166.475 67.7516 165.927 69.0726 164.952 70.047C163.978 71.0215 162.657 71.5699 161.279 71.5722ZM101.575 51.9565C100.429 51.9588 99.3299 52.4152 98.5192 53.2258C97.7086 54.0364 97.2522 55.1352 97.25 56.2816V66.3736C97.2522 67.52 97.7086 68.6188 98.5192 69.4294C99.3299 70.24 100.429 70.6964 101.575 70.6987H161.279C162.425 70.6964 163.524 70.24 164.334 69.4294C165.145 68.6188 165.601 67.52 165.604 66.3736V56.2816C165.601 55.1352 165.145 54.0364 164.334 53.2258C163.524 52.4152 162.425 51.9588 161.279 51.9565H101.575Z" fill="#D1D3D4"/>
<path id="Vector_41" d="M105.001 63.4475C104.582 63.4475 104.172 63.3231 103.823 63.0902C103.475 62.8572 103.203 62.5261 103.042 62.1387C102.882 61.7512 102.84 61.325 102.922 60.9137C103.004 60.5024 103.206 60.1246 103.502 59.8281C103.799 59.5316 104.176 59.3297 104.588 59.2479C104.999 59.1661 105.425 59.2081 105.813 59.3685C106.2 59.529 106.531 59.8008 106.764 60.1494C106.997 60.4981 107.121 60.908 107.121 61.3273C107.121 61.8896 106.898 62.4289 106.5 62.8265C106.103 63.2241 105.564 63.4475 105.001 63.4475ZM105.001 60.0552C104.75 60.0552 104.504 60.1298 104.295 60.2696C104.085 60.4094 103.922 60.6081 103.826 60.8405C103.73 61.0729 103.705 61.3287 103.754 61.5755C103.803 61.8222 103.924 62.0489 104.102 62.2268C104.28 62.4047 104.506 62.5259 104.753 62.575C105 62.624 105.256 62.5989 105.488 62.5026C105.721 62.4063 105.919 62.2432 106.059 62.034C106.199 61.8248 106.273 61.5789 106.273 61.3273C106.273 60.9899 106.139 60.6664 105.901 60.4278C105.662 60.1892 105.339 60.0552 105.001 60.0552Z" fill="#D1D3D4"/>
<path id="Vector_42" d="M112.167 63.4475C111.748 63.4475 111.338 63.3231 110.989 63.0902C110.641 62.8572 110.369 62.5261 110.209 62.1387C110.048 61.7512 110.006 61.325 110.088 60.9137C110.17 60.5024 110.372 60.1246 110.668 59.8281C110.965 59.5316 111.342 59.3297 111.754 59.2479C112.165 59.1661 112.591 59.2081 112.979 59.3685C113.366 59.529 113.697 59.8008 113.93 60.1494C114.163 60.4981 114.287 60.908 114.287 61.3273C114.285 61.8889 114.061 62.4269 113.664 62.824C113.267 63.2211 112.729 63.4452 112.167 63.4475ZM112.167 60.0552C111.916 60.0552 111.67 60.1298 111.461 60.2696C111.251 60.4094 111.088 60.6081 110.992 60.8405C110.896 61.0729 110.871 61.3287 110.92 61.5755C110.969 61.8222 111.09 62.0489 111.268 62.2268C111.446 62.4047 111.672 62.5259 111.919 62.575C112.166 62.624 112.422 62.5989 112.654 62.5026C112.887 62.4063 113.085 62.2432 113.225 62.034C113.365 61.8248 113.439 61.5789 113.439 61.3273C113.437 60.9906 113.302 60.6683 113.064 60.4303C112.826 60.1922 112.504 60.0574 112.167 60.0552Z" fill="#D1D3D4"/>
<path id="Vector_43" d="M159.549 62.7284H118.409C118.297 62.7284 118.189 62.6837 118.109 62.6042C118.03 62.5247 117.985 62.4168 117.985 62.3044V60.3029C117.985 60.1905 118.03 60.0826 118.109 60.0031C118.189 59.9236 118.297 59.8789 118.409 59.8789H159.549C159.661 59.8789 159.769 59.9236 159.848 60.0031C159.928 60.0826 159.973 60.1905 159.973 60.3029V62.3044C159.97 62.4161 159.925 62.5227 159.846 62.6018C159.767 62.6809 159.66 62.7262 159.549 62.7284ZM118.842 61.8803H159.133V60.727H118.833L118.842 61.8803Z" fill="#D1D3D4"/>
<path id="Vector_44" d="M161.279 75.6846H101.567C98.9391 75.6846 96.8091 77.8146 96.8091 80.4422V90.5426C96.8091 93.1702 98.9391 95.3002 101.567 95.3002H161.279C163.906 95.3002 166.036 93.1702 166.036 90.5426V80.4422C166.036 77.8146 163.906 75.6846 161.279 75.6846Z" fill="white"/>
<path id="Vector_45" d="M161.279 95.7421H101.575C100.197 95.7398 98.876 95.1914 97.9016 94.217C96.9271 93.2425 96.3787 91.9215 96.3765 90.5435V80.4515C96.3787 79.0735 96.9271 77.7525 97.9016 76.778C98.876 75.8036 100.197 75.2552 101.575 75.2529H161.279C162.657 75.2552 163.978 75.8036 164.952 76.778C165.927 77.7525 166.475 79.0735 166.477 80.4515V90.5435C166.475 91.9215 165.927 93.2425 164.952 94.217C163.978 95.1914 162.657 95.7398 161.279 95.7421ZM101.575 76.1264C100.429 76.1287 99.3299 76.5851 98.5192 77.3957C97.7086 78.2063 97.2522 79.3051 97.25 80.4515V90.5435C97.2522 91.6899 97.7086 92.7887 98.5192 93.5993C99.3299 94.4099 100.429 94.8663 101.575 94.8686H161.279C162.425 94.8663 163.524 94.4099 164.334 93.5993C165.145 92.7887 165.601 91.6899 165.604 90.5435V80.4515C165.601 79.3051 165.145 78.2063 164.334 77.3957C163.524 76.5851 162.425 76.1287 161.279 76.1264H101.575Z" fill="#D1D3D4"/>
<path id="Vector_46" d="M105.001 87.6182C104.582 87.6182 104.172 87.4939 103.823 87.2609C103.475 87.028 103.203 86.6968 103.042 86.3094C102.882 85.922 102.84 85.4957 102.922 85.0845C103.004 84.6732 103.206 84.2954 103.502 83.9989C103.799 83.7024 104.176 83.5005 104.588 83.4187C104.999 83.3369 105.425 83.3788 105.813 83.5393C106.2 83.6998 106.531 83.9715 106.764 84.3202C106.997 84.6688 107.121 85.0788 107.121 85.4981C107.121 86.0604 106.898 86.5996 106.5 86.9973C106.103 87.3949 105.564 87.6182 105.001 87.6182ZM105.001 84.226C104.75 84.226 104.504 84.3006 104.295 84.4404C104.085 84.5802 103.922 84.7788 103.826 85.0113C103.73 85.2437 103.705 85.4995 103.754 85.7463C103.803 85.993 103.924 86.2197 104.102 86.3976C104.28 86.5755 104.506 86.6966 104.753 86.7457C105 86.7948 105.256 86.7696 105.488 86.6733C105.721 86.5771 105.919 86.414 106.059 86.2048C106.199 85.9956 106.273 85.7497 106.273 85.4981C106.273 85.1607 106.139 84.8371 105.901 84.5986C105.662 84.36 105.339 84.226 105.001 84.226Z" fill="#D1D3D4"/>
<path id="Vector_47" d="M112.167 87.6182C111.748 87.6182 111.338 87.4939 110.989 87.2609C110.641 87.028 110.369 86.6968 110.209 86.3094C110.048 85.922 110.006 85.4957 110.088 85.0845C110.17 84.6732 110.372 84.2954 110.668 83.9989C110.965 83.7024 111.342 83.5005 111.754 83.4187C112.165 83.3369 112.591 83.3788 112.979 83.5393C113.366 83.6998 113.697 83.9715 113.93 84.3202C114.163 84.6688 114.287 85.0788 114.287 85.4981C114.285 86.0597 114.061 86.5977 113.664 86.9948C113.267 87.3919 112.729 87.616 112.167 87.6182ZM112.167 84.226C111.916 84.226 111.67 84.3006 111.461 84.4404C111.251 84.5802 111.088 84.7788 110.992 85.0113C110.896 85.2437 110.871 85.4995 110.92 85.7463C110.969 85.993 111.09 86.2197 111.268 86.3976C111.446 86.5755 111.672 86.6966 111.919 86.7457C112.166 86.7948 112.422 86.7696 112.654 86.6733C112.887 86.5771 113.085 86.414 113.225 86.2048C113.365 85.9956 113.439 85.7497 113.439 85.4981C113.437 85.1614 113.302 84.8391 113.064 84.601C112.826 84.3629 112.504 84.2282 112.167 84.226Z" fill="#D1D3D4"/>
<path id="Vector_48" d="M159.549 86.9218H118.409C118.297 86.9218 118.189 86.8771 118.109 86.7976C118.03 86.718 117.985 86.6102 117.985 86.4977V84.4963C117.985 84.3838 118.03 84.276 118.109 84.1965C118.189 84.1169 118.297 84.0723 118.409 84.0723H159.549C159.661 84.0723 159.769 84.1169 159.848 84.1965C159.928 84.276 159.973 84.3838 159.973 84.4963V86.4723C159.975 86.5298 159.966 86.5872 159.945 86.641C159.925 86.6949 159.895 86.7443 159.855 86.7861C159.816 86.828 159.768 86.8615 159.715 86.8848C159.663 86.9081 159.606 86.9207 159.549 86.9218ZM118.842 86.0737H159.133V84.9203H118.833L118.842 86.0737Z" fill="#D1D3D4"/>
<path id="Vector_49" d="M161.279 99.8555H101.567C98.9391 99.8555 96.8091 101.986 96.8091 104.613V114.714C96.8091 117.341 98.9391 119.471 101.567 119.471H161.279C163.906 119.471 166.036 117.341 166.036 114.714V104.613C166.036 101.986 163.906 99.8555 161.279 99.8555Z" fill="white"/>
<path id="Vector_50" d="M161.279 119.911H101.575C100.197 119.909 98.876 119.36 97.9016 118.386C96.9271 117.411 96.3787 116.09 96.3765 114.712V104.62C96.3787 103.242 96.9271 101.921 97.9016 100.947C98.876 99.9725 100.197 99.4241 101.575 99.4219H161.279C162.657 99.4241 163.978 99.9725 164.952 100.947C165.927 101.921 166.475 103.242 166.477 104.62V114.712C166.475 116.09 165.927 117.411 164.952 118.386C163.978 119.36 162.657 119.909 161.279 119.911ZM101.575 100.295C100.429 100.298 99.3299 100.754 98.5192 101.565C97.7086 102.375 97.2522 103.474 97.25 104.62V114.712C97.2522 115.859 97.7086 116.958 98.5192 117.768C99.3299 118.579 100.429 119.035 101.575 119.038H161.279C162.425 119.035 163.524 118.579 164.334 117.768C165.145 116.958 165.601 115.859 165.604 114.712V104.62C165.601 103.474 165.145 102.375 164.334 101.565C163.524 100.754 162.425 100.298 161.279 100.295H101.575Z" fill="#D1D3D4"/>
<path id="Vector_51" d="M105.001 111.787C104.582 111.787 104.172 111.663 103.823 111.43C103.475 111.197 103.203 110.866 103.042 110.478C102.882 110.091 102.84 109.665 102.922 109.253C103.004 108.842 103.206 108.464 103.502 108.168C103.799 107.871 104.176 107.669 104.588 107.588C104.999 107.506 105.425 107.548 105.813 107.708C106.2 107.869 106.531 108.14 106.764 108.489C106.997 108.838 107.121 109.248 107.121 109.667C107.121 110.229 106.898 110.769 106.5 111.166C106.103 111.564 105.564 111.787 105.001 111.787ZM105.001 108.395C104.75 108.395 104.504 108.47 104.295 108.609C104.085 108.749 103.922 108.948 103.826 109.18C103.73 109.413 103.705 109.668 103.754 109.915C103.803 110.162 103.924 110.389 104.102 110.567C104.28 110.744 104.506 110.866 104.753 110.915C105 110.964 105.256 110.939 105.488 110.842C105.721 110.746 105.919 110.583 106.059 110.374C106.199 110.165 106.273 109.919 106.273 109.667C106.273 109.33 106.139 109.006 105.901 108.768C105.662 108.529 105.339 108.395 105.001 108.395Z" fill="#D1D3D4"/>
<path id="Vector_52" d="M112.167 111.787C111.748 111.787 111.338 111.663 110.989 111.43C110.641 111.197 110.369 110.866 110.209 110.478C110.048 110.091 110.006 109.665 110.088 109.253C110.17 108.842 110.372 108.464 110.668 108.168C110.965 107.871 111.342 107.669 111.754 107.588C112.165 107.506 112.591 107.548 112.979 107.708C113.366 107.869 113.697 108.14 113.93 108.489C114.163 108.838 114.287 109.248 114.287 109.667C114.285 110.229 114.061 110.767 113.664 111.164C113.267 111.561 112.729 111.785 112.167 111.787ZM112.167 108.395C111.916 108.395 111.67 108.47 111.461 108.609C111.251 108.749 111.088 108.948 110.992 109.18C110.896 109.413 110.871 109.668 110.92 109.915C110.969 110.162 111.09 110.389 111.268 110.567C111.446 110.744 111.672 110.866 111.919 110.915C112.166 110.964 112.422 110.939 112.654 110.842C112.887 110.746 113.085 110.583 113.225 110.374C113.365 110.165 113.439 109.919 113.439 109.667C113.437 109.33 113.302 109.008 113.064 108.77C112.826 108.532 112.504 108.397 112.167 108.395Z" fill="#D1D3D4"/>
<path id="Vector_53" d="M159.549 111.067H118.409C118.297 111.067 118.189 111.022 118.109 110.943C118.03 110.863 117.985 110.755 117.985 110.643V108.642C117.985 108.529 118.03 108.421 118.109 108.342C118.189 108.262 118.297 108.218 118.409 108.218H159.549C159.661 108.218 159.769 108.262 159.848 108.342C159.928 108.421 159.973 108.529 159.973 108.642V110.643C159.97 110.755 159.925 110.861 159.846 110.94C159.767 111.019 159.66 111.065 159.549 111.067ZM118.842 110.219H159.133V109.066H118.833L118.842 110.219Z" fill="#D1D3D4"/>
<path id="Vector_54" d="M161.279 124.024H101.567C98.9391 124.024 96.8091 126.154 96.8091 128.782V138.882C96.8091 141.51 98.9391 143.64 101.567 143.64H161.279C163.906 143.64 166.036 141.51 166.036 138.882V128.782C166.036 126.154 163.906 124.024 161.279 124.024Z" fill="white"/>
<path id="Vector_55" d="M161.279 144.081H101.575C100.197 144.079 98.876 143.53 97.9016 142.556C96.9271 141.581 96.3787 140.26 96.3765 138.882V128.79C96.3787 127.412 96.9271 126.091 97.9016 125.117C98.876 124.142 100.197 123.594 101.575 123.592H161.279C162.657 123.594 163.978 124.142 164.952 125.117C165.927 126.091 166.475 127.412 166.477 128.79V138.882C166.475 140.26 165.927 141.581 164.952 142.556C163.978 143.53 162.657 144.079 161.279 144.081ZM101.575 124.465C100.429 124.468 99.3299 124.924 98.5192 125.735C97.7086 126.545 97.2522 127.644 97.25 128.79V138.882C97.2522 140.029 97.7086 141.128 98.5192 141.938C99.3299 142.749 100.429 143.205 101.575 143.207H161.279C162.425 143.205 163.524 142.749 164.334 141.938C165.145 141.128 165.601 140.029 165.604 138.882V128.79C165.601 127.644 165.145 126.545 164.334 125.735C163.524 124.924 162.425 124.468 161.279 124.465H101.575Z" fill="#D1D3D4"/>
<path id="Vector_56" d="M105.001 135.958C104.582 135.958 104.172 135.834 103.823 135.601C103.475 135.368 103.203 135.037 103.042 134.649C102.882 134.262 102.84 133.836 102.922 133.424C103.004 133.013 103.206 132.635 103.502 132.339C103.799 132.042 104.176 131.84 104.588 131.759C104.999 131.677 105.425 131.719 105.813 131.879C106.2 132.04 106.531 132.311 106.764 132.66C106.997 133.009 107.121 133.419 107.121 133.838C107.121 134.4 106.898 134.939 106.5 135.337C106.103 135.735 105.564 135.958 105.001 135.958ZM105.001 132.566C104.75 132.566 104.504 132.64 104.295 132.78C104.085 132.92 103.922 133.119 103.826 133.351C103.73 133.584 103.705 133.839 103.754 134.086C103.803 134.333 103.924 134.56 104.102 134.737C104.28 134.915 104.506 135.036 104.753 135.086C105 135.135 105.256 135.109 105.488 135.013C105.721 134.917 105.919 134.754 106.059 134.545C106.199 134.335 106.273 134.09 106.273 133.838C106.273 133.501 106.139 133.177 105.901 132.938C105.662 132.7 105.339 132.566 105.001 132.566Z" fill="#D1D3D4"/>
<path id="Vector_57" d="M112.167 135.958C111.748 135.958 111.338 135.834 110.989 135.601C110.641 135.368 110.369 135.037 110.209 134.649C110.048 134.262 110.006 133.836 110.088 133.424C110.17 133.013 110.372 132.635 110.668 132.339C110.965 132.042 111.342 131.84 111.754 131.759C112.165 131.677 112.591 131.719 112.979 131.879C113.366 132.04 113.697 132.311 113.93 132.66C114.163 133.009 114.287 133.419 114.287 133.838C114.285 134.4 114.061 134.938 113.664 135.335C113.267 135.732 112.729 135.956 112.167 135.958ZM112.167 132.566C111.916 132.566 111.67 132.64 111.461 132.78C111.251 132.92 111.088 133.119 110.992 133.351C110.896 133.584 110.871 133.839 110.92 134.086C110.969 134.333 111.09 134.56 111.268 134.737C111.446 134.915 111.672 135.036 111.919 135.086C112.166 135.135 112.422 135.109 112.654 135.013C112.887 134.917 113.085 134.754 113.225 134.545C113.365 134.335 113.439 134.09 113.439 133.838C113.437 133.501 113.302 133.179 113.064 132.941C112.826 132.703 112.504 132.568 112.167 132.566Z" fill="#D1D3D4"/>
<path id="Vector_58" d="M159.549 135.261H118.409C118.297 135.261 118.189 135.217 118.109 135.137C118.03 135.058 117.985 134.95 117.985 134.837V132.836C117.985 132.724 118.03 132.616 118.109 132.536C118.189 132.457 118.297 132.412 118.409 132.412H159.549C159.661 132.412 159.769 132.457 159.848 132.536C159.928 132.616 159.973 132.724 159.973 132.836V134.812C159.975 134.87 159.966 134.927 159.945 134.981C159.925 135.035 159.895 135.084 159.855 135.126C159.816 135.168 159.768 135.201 159.715 135.225C159.663 135.248 159.606 135.26 159.549 135.261ZM118.842 134.413H159.133V133.26H118.833L118.842 134.413Z" fill="#D1D3D4"/>
<path id="Vector_59" d="M110.827 143.64H103.661V146.557H110.827V143.64Z" fill="#D1D3D4"/>
<path id="Vector_60" d="M110.827 146.999H103.661C103.547 146.999 103.437 146.953 103.355 146.872C103.274 146.791 103.229 146.681 103.229 146.566V143.641C103.229 143.526 103.274 143.416 103.355 143.335C103.437 143.254 103.547 143.208 103.661 143.208H110.827C110.885 143.207 110.942 143.217 110.996 143.239C111.049 143.26 111.098 143.291 111.139 143.332C111.18 143.372 111.212 143.42 111.235 143.473C111.257 143.526 111.268 143.583 111.268 143.641V146.566C111.268 146.624 111.257 146.681 111.235 146.734C111.212 146.787 111.18 146.835 111.139 146.875C111.098 146.916 111.049 146.947 110.996 146.968C110.942 146.99 110.885 147 110.827 146.999ZM104.102 146.151H110.395V144.107H104.102V146.151Z" fill="#D1D3D4"/>
<path id="Vector_61" d="M159.184 143.64H152.018V146.557H159.184V143.64Z" fill="#D1D3D4"/>
<path id="Vector_62" d="M159.184 146.999H152.018C151.903 146.999 151.793 146.953 151.712 146.872C151.631 146.791 151.585 146.681 151.585 146.566V143.641C151.585 143.526 151.631 143.416 151.712 143.335C151.793 143.254 151.903 143.208 152.018 143.208H159.184C159.241 143.207 159.298 143.217 159.352 143.239C159.405 143.26 159.454 143.291 159.495 143.332C159.536 143.372 159.569 143.42 159.591 143.473C159.613 143.526 159.625 143.583 159.625 143.641V146.566C159.625 146.624 159.613 146.681 159.591 146.734C159.569 146.787 159.536 146.835 159.495 146.875C159.454 146.916 159.405 146.947 159.352 146.968C159.298 146.99 159.241 147 159.184 146.999ZM152.459 146.151H158.751V144.107H152.459V146.151Z" fill="#D1D3D4"/>
</g>
<path id="Vector_63" d="M78.6182 36.9979C79.2228 37.7386 79.5593 38.6619 79.5732 39.6179C79.587 40.5739 79.2774 41.5065 78.6945 42.2644H78.9574" fill="white"/>
<path id="Vector_64" d="M78.6944 42.6881C78.6135 42.6913 78.5334 42.6708 78.4639 42.629C78.3945 42.5873 78.3388 42.5262 78.3037 42.4532C78.2685 42.3802 78.2555 42.2985 78.2661 42.2182C78.2768 42.1379 78.3107 42.0625 78.3637 42.0012C78.8872 41.3218 79.1655 40.4852 79.1532 39.6275C79.1409 38.7699 78.8387 37.9416 78.2958 37.2775C78.2176 37.1968 78.1738 37.0888 78.1738 36.9764C78.1738 36.8641 78.2176 36.7561 78.2958 36.6754C78.3345 36.6359 78.3807 36.6045 78.4317 36.5831C78.4826 36.5617 78.5373 36.5507 78.5926 36.5507C78.6479 36.5507 78.7026 36.5617 78.7536 36.5831C78.8046 36.6045 78.8508 36.6359 78.8895 36.6754C79.4976 37.4195 79.8634 38.3319 79.9377 39.2901C80.012 40.2482 79.7912 41.2062 79.305 42.0351C79.3146 42.0856 79.3146 42.1374 79.305 42.1878C79.3096 42.2989 79.2705 42.4073 79.1959 42.4898C79.1214 42.5723 79.0174 42.6222 78.9064 42.6288H78.6435L78.6944 42.6881Z" fill="#231F20"/>
<path id="Skin" fill-rule="evenodd" clip-rule="evenodd" d="M56.497 33.496L71.8112 32.6061C74.9715 31.1648 77.8477 30.2456 80.4397 29.8484C81.1579 29.8825 82.2781 30.2285 80.4721 31.5034C78.6661 32.7783 76.8237 34.2006 77.0688 34.9736C77.3139 35.7467 79.8375 33.8002 80.0108 34.9736C80.1263 35.7559 76.6306 37.473 71.3693 36.5476L58.6998 40.4437L56.497 33.496Z" fill="#997659"/>
<g id="Vector_65">
<path d="M143.037 22.8523H83.3248C80.6972 22.8523 78.5671 24.9823 78.5671 27.6099V37.7103C78.5671 40.3379 80.6972 42.4679 83.3248 42.4679H143.037C145.664 42.4679 147.794 40.3379 147.794 37.7103V27.6099C147.794 24.9823 145.664 22.8523 143.037 22.8523Z" fill="white"/>
<path d="M83.3248 23.3523H143.037C145.388 23.3523 147.294 25.2585 147.294 27.6099V37.7103C147.294 40.0617 145.388 41.9679 143.037 41.9679H83.3248C80.9733 41.9679 79.0671 40.0617 79.0671 37.7103V27.6099C79.0671 25.2585 80.9733 23.3523 83.3248 23.3523Z" stroke="black" stroke-opacity="0.2"/>
</g>
<path id="Vector_66" d="M86.7594 34.7826C86.3381 34.7843 85.9257 34.6609 85.5745 34.428C85.2234 34.1952 84.9492 33.8633 84.7868 33.4745C84.6244 33.0857 84.581 32.6574 84.6622 32.244C84.7434 31.8305 84.9454 31.4504 85.2428 31.1519C85.5401 30.8533 85.9194 30.6497 86.3325 30.5669C86.7457 30.4841 87.1741 30.5258 87.5636 30.6866C87.953 30.8475 88.286 31.1203 88.5202 31.4705C88.7545 31.8208 88.8796 32.2326 88.8796 32.654C88.8774 33.2164 88.6535 33.7553 88.2567 34.1537C87.8598 34.5522 87.3218 34.7782 86.7594 34.7826ZM86.7594 31.3904C86.5054 31.3887 86.2567 31.4626 86.0448 31.6027C85.8329 31.7427 85.6675 31.9426 85.5695 32.177C85.4715 32.4113 85.4455 32.6695 85.4946 32.9187C85.5437 33.1679 85.6659 33.3968 85.8455 33.5764C86.0251 33.756 86.254 33.8782 86.5032 33.9273C86.7524 33.9765 87.0106 33.9504 87.2449 33.8524C87.4793 33.7544 87.6792 33.589 87.8192 33.3771C87.9593 33.1652 88.0332 32.9165 88.0315 32.6625C88.036 32.4922 88.0065 32.3227 87.9447 32.164C87.8829 32.0052 87.7901 31.8604 87.6716 31.738C87.5532 31.6156 87.4115 31.518 87.2548 31.4511C87.0982 31.3841 86.9298 31.3491 86.7594 31.348V31.3904Z" fill="#D1D3D4"/>
<path id="Vector_67" d="M93.9171 34.7826C93.4958 34.7843 93.0834 34.6609 92.7322 34.428C92.3811 34.1952 92.1069 33.8633 91.9445 33.4745C91.7821 33.0857 91.7387 32.6574 91.8199 32.244C91.9011 31.8305 92.1031 31.4504 92.4005 31.1519C92.6978 30.8533 93.0771 30.6497 93.4902 30.5669C93.9034 30.4841 94.3318 30.5258 94.7213 30.6866C95.1107 30.8475 95.4437 31.1203 95.6779 31.4705C95.9122 31.8208 96.0373 32.2326 96.0373 32.654C96.0373 33.2171 95.8142 33.7572 95.4168 34.1562C95.0195 34.5551 94.4802 34.7804 93.9171 34.7826ZM93.9171 31.3904C93.6632 31.3887 93.4144 31.4626 93.2025 31.6027C92.9906 31.7427 92.8252 31.9426 92.7272 32.177C92.6292 32.4113 92.6032 32.6695 92.6523 32.9187C92.7014 33.1679 92.8236 33.3968 93.0032 33.5764C93.1828 33.756 93.4117 33.8782 93.6609 33.9273C93.9101 33.9765 94.1683 33.9504 94.4026 33.8524C94.637 33.7544 94.8369 33.589 94.977 33.3771C95.117 33.1652 95.1909 32.9165 95.1892 32.6625C95.1937 32.4922 95.1642 32.3227 95.1024 32.164C95.0406 32.0052 94.9478 31.8604 94.8293 31.738C94.7109 31.6156 94.5692 31.518 94.4125 31.4511C94.2559 31.3841 94.0875 31.3491 93.9171 31.348V31.3904Z" fill="#D1D3D4"/>
<path id="Vector_68" d="M141.298 34.0801H100.167C100.055 34.0801 99.9471 34.0355 99.8676 33.9559C99.7881 33.8764 99.7434 33.7686 99.7434 33.6561V31.6632C99.7434 31.5507 99.7881 31.4429 99.8676 31.3633C99.9471 31.2838 100.055 31.2391 100.167 31.2391H141.298C141.411 31.2391 141.519 31.2838 141.598 31.3633C141.678 31.4429 141.722 31.5507 141.722 31.6632V33.6561C141.722 33.7686 141.678 33.8764 141.598 33.9559C141.519 34.0355 141.411 34.0801 141.298 34.0801ZM100.591 33.2321H140.874V32.0872H100.591V33.2321Z" fill="#D1D3D4"/>
</g>
<g id="Group 43">
<path id="Sleeve" fill-rule="evenodd" clip-rule="evenodd" d="M43.761 28.5506C48.8274 30.8893 55.7204 33.2511 65.3099 31.5394C65.7926 31.4532 66.291 31.4751 66.7605 31.6167L68.2027 32.0517C68.5781 32.1649 68.8527 32.4871 68.905 32.8758L69.5202 37.4499C69.5677 37.8028 69.4239 38.1543 69.1428 38.3728L66.5716 40.3711C60.0555 44.8288 49.2109 43.1401 43.0567 40.0054C38.2068 37.5351 38.5157 30.3976 43.761 28.5506Z" fill="#E65009"/>
</g>
<g id="Group 36">
<g id="boy for 2nd screen">
<g id="humaaans/standing-5">
<g id="humaaan-10">
<g id="Head/Front/Short-1">
<g id="Head">
<path id="Vector_69" fill-rule="evenodd" clip-rule="evenodd" d="M42.4297 13.7838C40.8782 11.823 39.8281 9.42003 40.0035 6.72739C40.5091 -1.03084 50.5399 0.675874 52.491 4.59156C54.4422 8.50725 54.2104 18.4397 51.6886 19.1396C50.683 19.4187 48.5406 18.735 46.3602 17.32L47.7288 27.7447H39.6477L42.4297 13.7838Z" fill="#B28B67"/>
</g>
<path id="Hair" fill-rule="evenodd" clip-rule="evenodd" d="M48.9272 5.15948C47.8306 5.81994 47.0501 7.05751 46.1107 8.68083C45.8819 8.584 45.6327 8.53083 45.372 8.53083C44.2562 8.53083 43.3517 9.50468 43.3517 10.706C43.3517 11.3158 43.5848 11.8671 43.9603 12.262C43.4928 12.9724 42.9689 13.7145 42.3686 14.4803C40.1283 13.0332 38.2332 8.88722 40.3723 4.81564C42.2127 -3.34005 52.87 1.65043 54.8763 0.274943C55.3149 3.2345 53.9004 5.62085 48.9272 5.15948Z" fill="#191847"/>
</g>
<g id="Bottom/Standing/Baggy-Pants">
<path id="Leg" fill-rule="evenodd" clip-rule="evenodd" d="M39.3223 59.2178L55.8487 104.253L66.933 142.327H71.3099L54.3644 59.2178L39.3223 59.2178Z" fill="#997659"/>
<path id="Leg_2" fill-rule="evenodd" clip-rule="evenodd" d="M35.9945 59.2178C35.8185 75.0436 33.2521 96.3504 32.842 97.3369C32.5687 97.9946 23.1319 106.358 4.53186 122.427L7.54652 125.9C29.4929 112.123 40.9739 104.316 41.9894 102.478C43.5128 99.7219 48.4723 74.358 52.4541 59.2178H35.9945Z" fill="#B28B67"/>
<g id="Accessories/Shoe/Flat-Sneaker">
<path id="shoe" fill-rule="evenodd" clip-rule="evenodd" d="M4.12872 121.267C3.11626 121.652 2.41881 122.018 2.03638 122.363C1.57124 122.784 0.957517 123.48 0.1952 124.453C0.647968 125.034 4.71707 130.255 12.4025 140.117C13.9696 139.395 14.4612 138.55 13.8774 137.583C13.2936 136.616 12.8158 135.806 12.444 135.154L9.78463 125.15C9.73345 124.958 9.54704 124.846 9.36826 124.901C9.3652 124.902 9.36215 124.903 9.35912 124.904L7.94007 125.389C6.95555 124.895 6.2655 124.394 5.86992 123.886C5.54853 123.474 5.25937 122.765 5.00245 121.759C4.90385 121.373 4.53321 121.146 4.17459 121.252C4.15914 121.256 4.14384 121.261 4.12872 121.267Z" fill="#E4E4E4"/>
</g>
<g id="Accessories/Shoe/Flat-Sneaker_2">
<path id="shoe_2" fill-rule="evenodd" clip-rule="evenodd" d="M65.1407 140.57C64.764 141.652 64.5757 142.462 64.5757 143C64.5757 143.654 64.6768 144.608 64.8791 145.862C65.5835 145.862 71.9139 145.862 83.8703 145.862C84.3638 144.105 84.079 143.157 83.0157 143.017C81.9524 142.877 81.0691 142.75 80.3658 142.637L71.5389 138.401C71.369 138.319 71.17 138.401 71.0943 138.584C71.093 138.587 71.0917 138.59 71.0905 138.593L70.5231 140.075C69.5388 140.57 68.7389 140.817 68.1235 140.817C67.6235 140.817 66.933 140.6 66.052 140.165C65.7139 139.998 65.3142 140.158 65.1592 140.522C65.1525 140.537 65.1464 140.553 65.1407 140.57Z" fill="#E4E4E4"/>
</g>
<path id="Pant" fill-rule="evenodd" clip-rule="evenodd" d="M59.9055 137.431L71.2442 135.974L55.8213 59.2178H37.1823L59.9055 137.431Z" fill="#444D5C"/>
<path id="Pant_2" fill-rule="evenodd" clip-rule="evenodd" d="M8.83643 116.823L16.319 127.872C30.6966 110.965 42.1828 106.783 44.5695 101.627C46.9563 96.4702 49.7353 82.8556 54.07 59.2178H33.0858C32.0456 79.2596 31.3443 89.7469 30.9822 90.6795C30.62 91.6121 23.2381 100.327 8.83643 116.823Z" fill="#4F5969"/>
</g>
<g id="Body/Turtle-Neck">
<path id="Clothes-Front" fill-rule="evenodd" clip-rule="evenodd" d="M49.7022 24.6689C49.3539 48.4908 61.5 56.5002 58.5 64.5002C58 72.7631 37.9999 75.5002 30.4053 72.7631C28.8178 69.6318 28.0975 65.8448 28.0158 61.7275C30.9259 41.0938 24.8977 31.201 37.6256 21.9213L37.7602 19.8623C37.8136 19.0641 38.4567 18.4622 39.1984 18.5163L48.7077 19.2276C49.4498 19.2819 50.0096 19.9745 49.958 20.7735L49.9568 20.7747L49.7022 24.6689Z" fill="#FB5607"/>
</g>
</g>
</g>
</g>
<path id="Skin_2" fill-rule="evenodd" clip-rule="evenodd" d="M76.3777 39.0444L81.4818 35.934C82.0904 33.1067 84.4316 31.1333 85.4521 31.0698C86.4521 31.0693 82.9786 34.9424 84.4521 34.5693C85.9255 34.1962 89.2739 29.5491 89.9241 30.0691C90.8095 30.7773 90.5359 32.9705 90.075 35.4283C89.9968 35.8453 89.7832 36.2249 89.4755 36.517C87.3676 38.5184 86.4957 39.6166 83.0711 40.7397C81.1514 41.3692 79.0984 42.5503 76.9121 44.2829L76.3777 39.0444Z" fill="#B28B67"/>
<g id="Symbols">
<g id="Body/Pointing-Forward">
<path id="Clothes" fill-rule="evenodd" clip-rule="evenodd" d="M52 39.5C57.0005 40.7471 65.5 42.5 77.9148 36.5C80.8344 42.5401 80.3861 41.6423 80.1658 44.2145C71.3981 51.667 59.13 55.3448 52 55.5C52.2266 59.7307 58.7059 63.4399 56.976 67.1183C53.6998 74.0847 41.5033 72.7828 34.1281 73.6122C33.1106 73.7266 32.1177 73.13 31.8344 72.1461C28.0903 59.1446 29.4947 53.3864 29.5013 44.6533C29.5087 34.6751 38.3071 19.3164 39.4859 19.3164H46.4032C47.4476 19.3164 48.3145 20.1219 48.4057 21.1623C48.9766 27.6786 49.7548 31.8969 52 39.5Z" fill="#FB5607"/>
</g>
</g>
</g>
</g>
</svg>
