<svg width="32" height="32" viewBox="0 0 32 32" fill="none" xmlns="http://www.w3.org/2000/svg">
<g id="leaf" clip-path="url(#clip0_507_13832)">
<g id="Group">
<path id="Vector" d="M27.7499 0.068737C17.9937 0.474987 10.8999 2.30624 6.16245 5.64374C4.9687 6.48749 3.5562 7.80624 2.7687 8.81249C0.331198 11.9375 -0.556302 15.9375 0.374948 19.625C0.718698 21.0062 1.4562 22.4562 2.3562 23.5312L2.6687 23.9L2.1187 24.9625C0.931198 27.2687 0.137448 29.525 0.0186983 30.9062C-0.0250517 31.4562 0.0874483 31.75 0.406198 31.9C0.662448 32.025 0.756198 32.025 1.0312 31.9125C1.29995 31.8 1.41245 31.575 1.4687 31.0312C1.5437 30.2312 1.88745 29.0562 2.4312 27.7C2.7562 26.8937 3.6437 25.0312 3.73745 24.975C3.77495 24.9562 3.8812 25.0062 3.9812 25.0875C4.27495 25.3312 5.2062 25.9125 5.7312 26.175C7.5687 27.1 9.94995 27.625 12.2937 27.625C15.5124 27.6187 17.9499 26.6812 19.9749 24.6562C22.0687 22.5687 23.4124 19.6875 24.4687 15.0312C25.2124 11.7625 25.7749 10.0687 26.8374 7.94999C27.9499 5.71874 29.4187 3.68749 31.4062 1.62499C32.0374 0.974987 32.0999 0.818737 31.8999 0.406237C31.7249 0.037487 31.5499 -1.33514e-05 30.1437 0.0124874C29.4624 0.0124874 28.3874 0.0437374 27.7499 0.068737ZM29.2874 1.76249C26.7499 4.72499 25.1124 7.59374 24.0062 11.0062C23.7437 11.8312 23.5374 12.6187 22.9999 14.8562C21.7499 20.1125 20.1562 23.0375 17.6124 24.7312C15.9187 25.8562 13.7937 26.325 11.2812 26.1312C8.6062 25.9187 6.62495 25.225 4.86245 23.8812C4.66245 23.7312 4.49995 23.6 4.49995 23.5875C4.49995 23.4625 6.0312 21.125 6.8312 20.0312C10.3374 15.25 14.4124 11.6125 18.9999 9.15624C19.5687 8.84999 20.0812 8.56249 20.1437 8.51249C20.3249 8.35624 20.3937 7.98124 20.2874 7.72499C20.0937 7.25624 19.6374 7.17499 18.9937 7.49999C14.8374 9.59999 10.8812 12.85 7.4062 17.0312C6.0937 18.6062 4.56245 20.725 3.72495 22.1125L3.48745 22.5062L3.31245 22.3437C3.0812 22.125 2.4187 21 2.18745 20.4375C0.956198 17.4562 1.3312 13.7687 3.1562 10.8187C3.86245 9.67499 5.13745 8.26874 6.2812 7.36874C9.5062 4.83749 14.0749 3.13124 20.0937 2.21874C22.7312 1.81874 26.1687 1.53124 28.5249 1.50624L29.5187 1.49999L29.2874 1.76249Z" fill="#303033"/>
</g>
</g>
<defs>
<clipPath id="clip0_507_13832">
<rect width="32" height="32" fill="white"/>
</clipPath>
</defs>
</svg>
