<svg width="48" height="48" viewBox="0 0 48 48" fill="none" xmlns="http://www.w3.org/2000/svg">
<g id="noto:lotion-bottle">
<path id="Vector" d="M31.9216 14.9455L32.0144 15.3275H32.096C32.1675 15.5202 32.2683 15.7976 32.391 16.1508C32.6478 16.8894 33.0006 17.9591 33.3832 19.2787C34.1487 21.9196 35.0313 25.5545 35.5034 29.5376C35.9786 33.5476 36.3122 36.7402 36.2721 39.1802C36.2316 41.6437 35.8086 43.192 34.92 44.0566L34.92 44.0567C34.6601 44.3096 34.1235 44.5815 33.3196 44.837C32.5356 45.0861 31.5641 45.2996 30.5016 45.4731C28.3771 45.8201 25.9356 46 24 46C22.0643 46 19.6229 45.8201 17.4984 45.4731C16.4358 45.2996 15.4643 45.0861 14.6803 44.837C13.8764 44.5815 13.3398 44.3096 13.0799 44.0567L13.0799 44.0566C12.1913 43.192 11.7684 41.6437 11.7279 39.1802C11.6877 36.7402 12.0213 33.5476 12.4965 29.5376C12.9686 25.5545 13.8512 21.9196 14.6168 19.2787C14.9993 17.9591 15.3521 16.8894 15.6089 16.1508C15.7317 15.7976 15.8324 15.5202 15.9039 15.3275H15.9848L16.0781 14.9464C16.1271 14.7462 16.3047 14.4886 16.7059 14.207C17.0996 13.9307 17.6581 13.668 18.3614 13.4416C19.7655 12.9894 21.6694 12.7062 23.7825 12.7062C23.8125 12.7062 23.8428 12.707 23.8796 12.708L23.8833 12.7081C23.9174 12.7089 23.9582 12.71 24 12.71C24.0444 12.71 24.0868 12.7089 24.1219 12.708L24.1231 12.708C24.1605 12.707 24.1895 12.7062 24.2175 12.7062C26.3303 12.7062 28.2352 12.9903 29.6399 13.4429C30.3435 13.6696 30.9021 13.9325 31.2957 14.2087C31.6969 14.4902 31.8734 14.7471 31.9216 14.9455Z" fill="#4FE8D8" stroke="black"/>
<path id="Vector_2" d="M19.9248 13.1935V8.30524C19.9427 8.29466 19.9646 8.28282 19.9909 8.26996C20.1597 8.18757 20.4362 8.09957 20.8184 8.02059C21.5744 7.86431 22.6414 7.76375 23.8348 7.76375C25.0282 7.76375 26.0951 7.86432 26.851 8.021C27.233 8.10019 27.5093 8.18845 27.6778 8.27113C27.7046 8.28426 27.7268 8.29634 27.7448 8.3071V13.1935C27.7269 13.2041 27.705 13.2159 27.6787 13.2288C27.5099 13.3112 27.2334 13.3992 26.8513 13.4782C26.0952 13.6344 25.0282 13.735 23.8348 13.735C22.6414 13.735 21.5744 13.6344 20.8184 13.4782C20.4362 13.3992 20.1597 13.3112 19.9909 13.2288C19.9646 13.2159 19.9427 13.2041 19.9248 13.1935Z" fill="#78909C" stroke="black"/>
<path id="Vector_3" d="M24.7299 4.2725V7.57996C24.5246 7.62824 24.2089 7.67875 23.7862 7.67875C23.3649 7.67875 23.051 7.62902 22.8462 7.58117V4.2725H24.7299Z" fill="#78909C" stroke="black"/>
<path id="Vector_4" d="M23.6289 6.45C22.2827 5.925 22.3427 5.19 22.3427 5.19V4.48125H25.2264V6.69375C25.2264 6.69375 24.7877 6.9 23.6289 6.45Z" fill="#546E7A"/>
<path id="Vector_5" d="M33.233 2.77653C32.5095 2.48265 31.152 2.03 29.7264 2.03C28.3743 2.03 27.3917 2.1804 26.5195 2.32599C26.4574 2.33636 26.3956 2.34675 26.3341 2.3571C25.5366 2.49127 24.7827 2.61812 23.9251 2.58465C22.727 2.54118 21.2879 2.21055 20.5635 1.99864L33.233 2.77653ZM33.233 2.77653L32.6776 3.62218C32.6188 3.60562 32.5519 3.5856 32.4774 3.56329C31.9379 3.40185 30.9996 3.12108 29.858 3.17174L29.8802 3.67125M33.233 2.77653L33.0564 3.95625C32.9627 4.09875 32.7864 4.16625 32.6214 4.125M29.8802 3.67125C29.3479 3.6941 28.9076 3.83884 28.3713 4.01516C27.4114 4.33075 26.1438 4.7475 23.4902 4.7475C22.0502 4.7475 20.6289 4.01625 19.9052 3.43875L20.2184 3.049C20.2182 3.04884 20.218 3.04869 20.2178 3.04854C20.8829 3.57896 22.1969 4.2475 23.4902 4.2475C25.5117 4.2475 26.6908 4.00089 27.5393 3.7533C27.7547 3.69046 27.9512 3.62684 28.1404 3.56473C28.1652 3.5566 28.1899 3.54848 28.2146 3.54036C28.3763 3.4872 28.5364 3.43453 28.6929 3.38748C29.0588 3.27749 29.4296 3.19013 29.8587 3.17171L29.8802 3.67125ZM29.8802 3.67125C30.9271 3.62479 31.7694 3.87512 32.3161 4.03761C32.4313 4.07183 32.5333 4.10216 32.6214 4.125M32.6214 4.125L32.7221 3.73669M32.6214 4.125L32.719 3.73466L32.6385 3.68179L32.6387 3.68144M32.6387 3.68144L32.7191 3.73432L32.7427 3.63993C32.7041 3.63028 32.6631 3.64434 32.6387 3.68144Z" fill="#78909C" stroke="black"/>
<path id="Vector_6" opacity="0.75" d="M21.7277 9.67125L21.4765 9.6375C21.1352 9.585 20.7865 9.49875 20.494 9.315C20.2765 9.17625 20.0852 8.9775 19.9877 8.73375C19.8902 8.4975 19.9765 8.295 20.2615 8.37375C20.8652 8.53875 21.4615 8.68875 22.0765 8.7975C22.6165 8.89125 23.1715 8.86125 23.719 8.865C23.8652 8.865 24.079 8.95125 23.9852 9.13875C23.9515 9.21 23.8802 9.25875 23.8127 9.3C23.1565 9.6825 22.4552 9.75375 21.7277 9.67125Z" fill="#A7FFEB"/>
<path id="Vector_7" d="M15.3413 26.3588C14.9738 26.3663 14.8463 25.3913 14.9625 23.9175C15.165 21.2812 15.5925 19.305 16.6838 16.8938C17.385 15.3413 19.8713 15.6975 19.2038 17.3325C17.6175 21.225 17.0213 22.7663 16.5188 24.24C16.0688 25.5713 15.8025 26.3475 15.3413 26.3588Z" fill="#A7FFEB"/>
<path id="Vector_8" d="M18.9785 30.9375C18.971 28.1138 21.9635 23.73 23.3998 21.8775C23.771 21.3975 24.1798 21.3675 24.5323 21.8625C25.916 23.805 29.0248 27.9563 29.0248 30.9375C29.0248 33.7125 26.7748 35.9625 23.9998 35.9625C21.2248 35.9625 18.986 33.7088 18.9785 30.9375Z" fill="white"/>
</g>
</svg>
