<svg width="34" height="33" viewBox="0 0 34 33" fill="none" xmlns="http://www.w3.org/2000/svg">
<g id="Vector" filter="url(#filter0_d_513_16874)">
<path d="M4.66018 22.7439C4.67009 22.828 4.69741 22.9092 4.7404 22.9822C4.78339 23.0552 4.84109 23.1184 4.90985 23.1679C6.47176 24.6535 9.18206 23.7509 10.5971 22.1235C11.4023 21.1618 11.9649 20.0205 12.2375 18.7954C12.5101 17.5704 12.4848 16.2976 12.1637 15.084C12.0642 14.7 11.9323 14.3251 11.7695 13.9633C11.7368 13.8488 11.6688 13.7493 11.6192 13.6447L11.7551 13.9129C12.2434 14.878 12.7284 15.849 13.2062 16.8121C14.0859 18.542 14.9899 20.3394 16.3309 21.7791C17.672 23.2189 19.5174 24.2769 21.4738 24.1987C22.5251 24.1561 23.6555 23.6798 24.0409 22.708C24.1732 22.3424 24.2139 21.9498 24.1596 21.5647C23.9568 19.9188 22.5341 18.7302 21.3689 17.5423C19.3936 15.5309 17.9003 13.0969 17.0016 10.4239C17.8152 11.105 18.7625 11.6074 19.7822 11.8984C22.7979 12.7758 26.3609 11.9319 28.4241 9.52511C29.2334 8.63199 29.7328 7.50097 29.8481 6.30036C29.8949 5.70691 29.7822 5.11163 29.5215 4.57637C29.2608 4.04111 28.8617 3.58541 28.3657 3.25663C27.8556 2.94427 27.2494 2.82852 26.6605 2.93103C26.0716 3.03354 25.5403 3.34729 25.1659 3.81361C24.8667 4.25565 24.7426 4.7913 24.4755 5.25886C23.7745 6.49414 22.1678 6.98261 20.7733 6.70716C19.3971 6.3506 18.153 5.60326 17.1909 4.55522C16.3773 3.76724 15.6179 2.87463 14.618 2.31812C14.2489 2.09918 13.8396 1.95682 13.4145 1.89951C12.9893 1.84221 12.5571 1.87113 12.1435 1.98455C11.4038 2.23535 10.8773 3.33663 10.1298 3.35194C8.64782 3.35904 8.69904 0.645108 7.19027 0.644989C6.4055 0.651128 5.92146 1.64122 6.11433 2.40338C6.30721 3.16553 6.9555 3.73821 7.55215 4.25135C5.9253 5.48354 5.76948 7.90044 6.26638 9.88334C6.76327 11.8662 7.75154 13.7336 7.91193 15.768C7.99575 16.9859 7.78174 18.2057 7.28844 19.3218C6.79515 20.4378 6.03742 21.4165 5.0809 22.173C4.92476 22.2798 4.79587 22.4218 4.70459 22.5876C4.68094 22.6367 4.66593 22.6896 4.66018 22.7439Z" fill="#F9D04F"/>
</g>
<defs>
<filter id="filter0_d_513_16874" x="0.660156" y="0.64502" width="33.1982" height="31.5577" filterUnits="userSpaceOnUse" color-interpolation-filters="sRGB">
<feFlood flood-opacity="0" result="BackgroundImageFix"/>
<feColorMatrix in="SourceAlpha" type="matrix" values="0 0 0 0 0 0 0 0 0 0 0 0 0 0 0 0 0 0 127 0" result="hardAlpha"/>
<feOffset dy="4"/>
<feGaussianBlur stdDeviation="2"/>
<feComposite in2="hardAlpha" operator="out"/>
<feColorMatrix type="matrix" values="0 0 0 0 0 0 0 0 0 0 0 0 0 0 0 0 0 0 0.25 0"/>
<feBlend mode="normal" in2="BackgroundImageFix" result="effect1_dropShadow_513_16874"/>
<feBlend mode="normal" in="SourceGraphic" in2="effect1_dropShadow_513_16874" result="shape"/>
</filter>
</defs>
</svg>
