<svg width="31" height="53" viewBox="0 0 31 53" fill="none" xmlns="http://www.w3.org/2000/svg">
<g id="plastic cup">
<path id="Vector" d="M12.9048 52.9664L3.19745 51.5021C2.45753 51.3903 1.78471 51.0098 1.30752 50.4334C0.830339 49.857 0.58223 49.1249 0.610586 48.3771L1.66204 20.8788L23.4068 24.1607L16.2941 50.7444C16.1008 51.4665 15.6484 52.0921 15.0233 52.502C14.3981 52.9118 13.644 53.0771 12.9048 52.9664Z" fill="#F3F5FD"/>
<path id="Vector_2" d="M1.09473 18.8686C1.56407 15.7586 3.24965 12.9624 5.78064 11.0952C8.31162 9.22796 11.4807 8.44263 14.5907 8.91198C17.7007 9.38132 20.4969 11.0669 22.3641 13.5979C24.2314 16.1289 25.0167 19.298 24.5473 22.408" fill="#F3F5FD"/>
<path id="Vector_3" d="M12.9048 52.9664L3.19745 51.5021C2.45753 51.3903 1.78471 51.0098 1.30752 50.4334C0.830339 49.857 0.58223 49.1249 0.610586 48.3771L1.66204 20.8788L23.4068 24.1607L16.2941 50.7444C16.1008 51.4665 15.6484 52.0921 15.0233 52.502C14.3981 52.9118 13.644 53.0771 12.9048 52.9664Z" fill="#262626"/>
<path id="Vector_4" d="M1.09473 18.8686C1.56407 15.7586 3.24965 12.9624 5.78064 11.0952C8.31162 9.22796 11.4807 8.44263 14.5907 8.91198C17.7007 9.38132 20.4969 11.0669 22.3641 13.5979C24.2314 16.1289 25.0167 19.298 24.5473 22.408" fill="#262626"/>
<g id="Group" opacity="0.59">
<path id="Vector_5" d="M12.9788 52.4719L3.27215 51.0077C3.27211 51.0077 3.27207 51.0077 3.27203 51.0077C2.6537 50.9142 2.09145 50.5963 1.69268 50.1146C1.29391 49.6329 1.08656 49.0211 1.11022 48.3962C1.11022 48.3962 1.11023 48.3961 1.11023 48.3961L2.14031 21.4566L22.7793 24.5716L15.8111 50.6151C15.8111 50.6152 15.8111 50.6152 15.8111 50.6152C15.6496 51.2186 15.2715 51.7413 14.7492 52.0838C14.2269 52.4262 13.5969 52.5643 12.9793 52.472C12.9792 52.472 12.979 52.4719 12.9788 52.4719Z" fill="white" stroke="black"/>
</g>
<g id="Group_2" opacity="0.59">
<g id="Vector_6">
<mask id="path-6-inside-1_985_5772" fill="white">
<path d="M1.09473 18.8686C1.56407 15.7586 3.24965 12.9624 5.78064 11.0952C8.31162 9.22796 11.4807 8.44263 14.5907 8.91198C17.7007 9.38132 20.4969 11.0669 22.3641 13.5979C24.2314 16.1289 25.0167 19.298 24.5473 22.408"/>
</mask>
<path d="M1.09473 18.8686C1.56407 15.7586 3.24965 12.9624 5.78064 11.0952C8.31162 9.22796 11.4807 8.44263 14.5907 8.91198C17.7007 9.38132 20.4969 11.0669 22.3641 13.5979C24.2314 16.1289 25.0167 19.298 24.5473 22.408" fill="white"/>
<path d="M2.08353 19.0178C2.5133 16.1701 4.05674 13.6097 6.37431 11.8999L5.18697 10.2905C2.44256 12.3152 0.614847 15.3471 0.105923 18.7194L2.08353 19.0178ZM6.37431 11.8999C8.69187 10.1901 11.5937 9.47101 14.4415 9.90078L14.7399 7.92317C11.3677 7.41425 7.93137 8.2658 5.18697 10.2905L6.37431 11.8999ZM14.4415 9.90078C17.2892 10.3305 19.8496 11.874 21.5594 14.1916L23.1688 13.0042C21.1442 10.2598 18.1122 8.4321 14.7399 7.92317L14.4415 9.90078ZM21.5594 14.1916C23.2692 16.5091 23.9883 19.411 23.5585 22.2587L25.5361 22.5572C26.0451 19.1849 25.1935 15.7486 23.1688 13.0042L21.5594 14.1916Z" fill="black" mask="url(#path-6-inside-1_985_5772)"/>
</g>
</g>
<path id="Vector_7" d="M3.97051 50.9757C3.94084 50.971 3.91141 50.9649 3.88236 50.9572C3.77903 50.9299 3.68209 50.8825 3.59709 50.8177C3.51209 50.7529 3.44069 50.672 3.38699 50.5795C3.33328 50.4871 3.29832 50.3851 3.28409 50.2791C3.26987 50.1732 3.27665 50.0655 3.30408 49.9622L13.8185 10.339C13.8739 10.1304 14.0098 9.95245 14.1964 9.84415C14.383 9.73584 14.605 9.7061 14.8135 9.76146C15.022 9.81682 15.2 9.95275 15.3083 10.1394C15.4167 10.326 15.4464 10.5479 15.391 10.7565L4.8766 50.3812C4.82488 50.5742 4.70394 50.7415 4.53685 50.8512C4.36976 50.9608 4.16818 51.0051 3.97051 50.9757Z" fill="#262626"/>
<g id="Group_3" opacity="0.25">
<path id="Vector_8" d="M3.97051 50.9756C3.94084 50.9709 3.91141 50.9647 3.88236 50.957C3.77903 50.9297 3.68209 50.8823 3.59709 50.8175C3.51209 50.7527 3.44069 50.6718 3.38699 50.5794C3.33328 50.487 3.29832 50.3849 3.28409 50.279C3.26987 50.173 3.27665 50.0653 3.30408 49.962L13.8185 10.3388C13.8739 10.1303 14.0098 9.9523 14.1964 9.84399C14.383 9.73569 14.605 9.70595 14.8135 9.76131C15.022 9.81667 15.2 9.9526 15.3083 10.1392C15.4167 10.3258 15.4464 10.5478 15.391 10.7563L4.8766 50.3811C4.82488 50.5741 4.70394 50.7414 4.53685 50.851C4.36976 50.9606 4.16818 51.005 3.97051 50.9756Z" fill="white"/>
</g>
<path id="Vector_9" d="M24.9919 22.4555L0.653726 18.7821C0.452337 18.7517 0.264421 18.8903 0.234025 19.0917L0.0550677 20.2774C0.0246715 20.4788 0.163304 20.6667 0.364694 20.6971L24.7029 24.3705C24.9043 24.4009 25.0922 24.2622 25.1226 24.0609L25.3015 22.8752C25.3319 22.6738 25.1933 22.4859 24.9919 22.4555Z" fill="#262626"/>
<path id="Vector_10" d="M14.7062 10.4989C14.6765 10.4949 14.6471 10.4889 14.6181 10.4811C14.4094 10.4256 14.2313 10.2896 14.1229 10.1029C14.0145 9.91618 13.9846 9.69408 14.0398 9.48535L15.9981 2.10515C16.0399 1.94657 16.1288 1.80436 16.253 1.69727C16.3772 1.59018 16.5309 1.52322 16.6939 1.50521L29.7133 0.00535108C29.8194 -0.006883 29.9269 0.00190961 30.0297 0.0312275C30.1324 0.0605455 30.2284 0.109816 30.3121 0.176223C30.3958 0.24263 30.4656 0.324868 30.5175 0.418254C30.5695 0.511639 30.6025 0.614343 30.6147 0.72049C30.627 0.826637 30.6182 0.934151 30.5888 1.0369C30.5595 1.13965 30.5102 1.23562 30.4438 1.31932C30.3774 1.40303 30.2952 1.47284 30.2018 1.52477C30.1084 1.57669 30.0057 1.60971 29.8996 1.62195L17.4307 3.0584L15.6154 9.90284C15.5641 10.0969 15.4429 10.2651 15.275 10.3751C15.1072 10.4851 14.9046 10.5292 14.7062 10.4989Z" fill="#262626"/>
<path id="Vector_11" d="M16.1386 10.3449C16.0868 10.6867 15.2727 10.8475 14.3202 10.7037C13.3677 10.5599 12.6363 10.1664 12.6881 9.82465C12.7314 9.53782 13.3066 9.37855 14.0573 9.41875L14.0017 9.62904C13.9406 9.85247 14.2127 10.1911 14.6542 10.2761C15.3175 10.4045 15.5116 10.2228 15.575 10.0442C15.5966 9.98468 15.6407 9.79835 15.6407 9.79835C15.9716 9.96612 16.1656 10.1633 16.1386 10.3449Z" fill="#F0F6FF"/>
</g>
</svg>
