<svg width="48" height="48" viewBox="0 0 48 48" fill="none" xmlns="http://www.w3.org/2000/svg">
<g id="noto:rolled-up-newspaper">
<path id="Vector" d="M33.5624 43.8862C30.7724 41.1937 26.7637 35.0362 26.7637 35.0362C26.7637 35.0362 35.0062 27.4312 35.5574 27.36C36.1087 27.2887 45.4387 32.1975 45.4387 32.1975C45.4387 32.1975 43.9162 41.7412 41.3249 43.38C38.7262 45.0187 33.5624 43.8862 33.5624 43.8862Z" fill="#A3A3A3"/>
<path id="Vector_2" d="M34.3275 30.3488C34.3275 30.3488 32.1188 32.9475 31.1888 36.1913C30.54 38.4525 30.6638 40.53 30.6638 40.53L27.8325 36.75L29.9213 33.7238L34.3275 30.3488Z" fill="#646464"/>
<path id="Vector_3" d="M5.56859 8.76375C3.30359 14.1862 3.27734 21.1425 3.27734 21.1425L14.1073 26.1937L24.0523 42.39C24.0523 42.39 28.1923 36.375 29.1861 34.0425L5.56859 8.76375Z" fill="#A3A3A3"/>
<path id="Vector_4" d="M35.8427 33.4088L42.1277 41.9213C42.1277 41.9213 48.0714 33.0413 42.3752 29.1563C41.0927 28.2825 35.6702 27.3413 34.9614 27.5738L35.8427 33.4088Z" fill="#646464"/>
<path id="Vector_5" d="M41.8207 26.5733L41.821 26.5734C43.7792 27.7516 45.0435 29.2989 45.6254 31.1568C46.2094 33.0218 46.1221 35.2532 45.2752 37.8196C44.456 40.3008 43.1865 42.211 41.6023 43.3948C40.0289 44.5705 38.1157 45.0531 35.9356 44.64C35.2376 44.507 34.641 44.242 34.1599 43.82C33.6797 43.3988 33.2875 42.7976 33.0337 41.9487C32.52 40.2297 32.5858 37.5326 33.627 33.4498L33.627 33.4496C33.8201 32.6912 34.2193 31.8826 34.6151 31.2731C34.8128 30.9687 34.9991 30.7303 35.1445 30.58C35.1604 30.5635 35.1752 30.5488 35.1888 30.5357C35.2109 30.5515 35.2357 30.5704 35.2629 30.5929C35.3879 30.6962 35.545 30.8597 35.7033 31.1011C36.0181 31.5811 36.3416 32.3756 36.4159 33.6186L36.4159 33.6187C36.4549 34.2672 36.375 35.0187 36.266 35.8187C36.2421 35.9938 36.2168 36.1717 36.1913 36.3509C36.103 36.9706 36.0127 37.6048 35.975 38.1852C35.9269 38.9244 35.9541 39.6793 36.2411 40.278C36.3901 40.589 36.6102 40.8602 36.9204 41.0592C37.2278 41.2564 37.5965 41.3652 38.0184 41.3962C39.1103 41.4769 40.1263 41.0228 40.9621 40.2973C41.7978 39.572 42.482 38.5535 42.9342 37.427C43.8302 35.1946 43.8703 32.3665 42.1112 30.4324C41.0487 29.2641 39.6567 28.4219 37.908 28.5116C36.1792 28.6003 34.22 29.5953 31.9974 31.8218L31.9972 31.8219C29.7006 34.1243 28.4174 37.1608 27.707 39.5895C27.3504 40.8085 27.1349 41.8859 27.0084 42.6596C26.9751 42.8632 26.9479 43.046 26.9259 43.2049L24.7052 42.144L27.2177 36.43L26.3574 35.9323C25.5575 37.0187 24.2736 38.3372 23.1718 39.3978C22.6243 39.9248 22.1279 40.3824 21.7683 40.7082C21.7464 40.7281 21.725 40.7475 21.7041 40.7663C20.5664 38.1094 18.9481 34.4125 17.5577 31.2362C16.2834 28.3251 15.2005 25.8513 14.8544 25.0161L14.7881 24.856L14.637 24.7713L2.13719 17.7652L2.89308 16.0075L3.01745 15.7183L2.8104 15.4812L2.23837 14.826L4.41076 12.1951L15.4324 11.2425C17.0756 12.3659 23.2148 15.9276 29.1325 19.322C32.3448 21.1646 35.5003 22.9626 37.8669 24.3111C40.0308 25.544 41.5352 26.4012 41.8207 26.5733ZM35.3036 30.4431C35.3034 30.4435 35.2991 30.4463 35.291 30.45C35.2997 30.4445 35.3037 30.4426 35.3036 30.4431ZM36.6845 36.4344C36.8241 35.4535 36.9668 34.4513 36.915 33.5888L41.7412 30.7688C44.9062 34.2488 41.7488 41.1713 38.055 40.8975C36.0698 40.752 36.3694 38.6476 36.6845 36.4344Z" fill="#CFCFCF" stroke="black"/>
<path id="Vector_6" d="M35.1224 32.4375C35.1224 32.4375 35.8349 35.1225 34.9386 38.4825C34.4736 37.575 34.4849 36.2963 34.5786 35.28C34.7024 33.915 35.1224 32.4375 35.1224 32.4375ZM36.4461 42.39C36.8699 42.4913 37.2786 42.5925 37.6911 42.6075C38.0999 42.63 38.5011 42.5963 38.8874 42.51C39.6561 42.3188 40.3574 41.925 40.9799 41.4075C41.6099 40.9012 42.1724 40.29 42.7011 39.645C43.2299 38.9963 43.7286 38.3137 44.2274 37.6012C44.0136 38.445 43.6424 39.2437 43.1849 39.9862C42.7232 40.7446 42.1405 41.4224 41.4599 41.9925C40.7624 42.555 39.9111 42.9938 38.9849 43.0875C38.5236 43.1325 38.0624 43.0838 37.6311 42.9675C37.1961 42.8475 36.8024 42.6375 36.4461 42.39Z" fill="#A3A3A3"/>
<path id="Vector_7" d="M28.5676 15.39C28.1643 15.6855 28.1643 15.6854 28.1642 15.6854L28.1639 15.685L28.163 15.6837L28.159 15.6782L28.1432 15.6567L28.0816 15.5726L27.8469 15.2525C27.6442 14.9763 27.3538 14.5805 27.0026 14.1026C26.3002 13.1469 25.355 11.8627 24.3837 10.5488C22.429 7.90476 20.4002 5.18451 19.9989 4.72946L19.9987 4.7293C19.3021 3.9387 18.2104 3.48642 16.9053 3.30393C15.6057 3.12222 14.1518 3.217 12.8114 3.46534L28.5676 15.39ZM28.5676 15.39L28.1643 15.6855M28.5676 15.39L28.1643 15.6855M28.1643 15.6855L28.2192 15.7604M28.1643 15.6855L28.2192 15.7604M28.2192 15.7604L28.2973 15.8106M28.2192 15.7604L28.2973 15.8106M28.2973 15.8106C32.3199 18.396 35.7198 21.0824 38.1143 23.1229C39.0297 23.903 39.7976 24.5882 40.3966 25.1366M28.2973 15.8106L40.3966 25.1366M14.6166 23.2656L14.657 23.3509L21.4455 37.6775C22.7019 36.5749 23.6043 35.3514 24.589 34.0165C24.7594 33.7854 24.9323 33.551 25.1099 33.3134C26.4368 31.5377 27.9887 29.6404 30.6759 27.7849L14.6166 23.2656ZM14.6166 23.2656L14.5479 23.201M14.6166 23.2656L14.5479 23.201M40.3966 25.1366C39.9992 25.0721 39.5504 25.0243 39.0553 25.0091C36.9436 24.9445 34.0184 25.4751 30.676 27.7848L40.3966 25.1366ZM14.5479 23.201L2.16001 11.5379M14.5479 23.201L2.16001 11.5379M2.16001 11.5379C4.30133 8.23771 7.53747 4.44493 12.8112 3.46538L2.16001 11.5379Z" fill="#EEEEEE" stroke="black"/>
<path id="Vector_8" d="M30.4313 31.47C30.8175 30.9487 31.2263 30.4313 31.6875 29.9625C32.1713 29.52 32.64 29.0475 33.2063 28.6875C33.7313 28.2712 34.3463 27.99 34.9463 27.6713C35.2575 27.54 35.5838 27.4387 35.9063 27.3187C36.0638 27.255 36.2288 27.21 36.3975 27.1763L36.9 27.06C37.2338 26.9775 37.5825 26.9663 37.9275 26.9363C38.2688 26.895 38.6175 26.9138 38.9625 26.9363C39.6525 26.9888 40.3388 27.1387 40.98 27.3862C41.1413 27.4462 41.295 27.5287 41.4525 27.6C41.6063 27.6787 41.7675 27.735 41.9063 27.84C42.195 28.0275 42.4838 28.2075 42.7388 28.4363C43.245 28.8825 43.7138 29.4037 43.935 30.0375L43.8713 30.075C43.5338 29.535 43.0388 29.115 42.5138 28.7625C41.9925 28.3987 41.4 28.155 40.8 27.9525C39.585 27.585 38.28 27.5512 37.0388 27.7987L36.5738 27.8962C36.4163 27.9225 36.2625 27.9638 36.1163 28.02C35.8163 28.1213 35.5125 28.2188 35.2125 28.3237C34.635 28.59 34.0463 28.8375 33.5138 29.19C32.9513 29.4937 32.4525 29.895 31.935 30.2662C31.4288 30.6525 30.9675 31.0987 30.4838 31.5112L30.4313 31.47ZM1.58252 14.8275L9.15752 21.0225L2.14877 16.515C2.14877 16.515 2.29127 16.1775 2.35877 15.99L1.58252 14.8275Z" fill="#A3A3A3"/>
<path id="Vector_9" opacity="0.7" d="M17.2461 4.1925L21.1611 9.075C21.4011 9.06 21.6261 9.0525 21.8436 9.0525L17.9811 4.2375C17.7823 4.215 17.5311 4.2 17.2461 4.1925ZM13.8898 4.5225L18.4461 9.6825C18.6298 9.6075 18.8136 9.54 18.9973 9.48375L14.5086 4.39875C14.3061 4.43625 14.0998 4.4775 13.8898 4.5225ZM23.4786 10.815C23.2648 10.8187 23.0473 10.8262 22.8223 10.8412C24.0448 12.6525 25.7473 14.865 27.6223 16.38C27.8811 16.3387 28.1398 16.3087 28.4061 16.29C26.5273 14.9062 24.7686 12.6862 23.4786 10.815ZM20.7223 11.1712C20.5386 11.22 20.3548 11.2725 20.1711 11.3325C21.2473 12.99 22.9723 15.465 24.7611 17.2612C24.9373 17.1787 25.1173 17.1 25.2973 17.025C23.5573 15.315 21.8248 12.8587 20.7223 11.1712ZM18.3823 12.18C18.2548 12.2625 18.1311 12.345 18.0111 12.435C17.9848 12.4537 17.9586 12.4762 17.9361 12.495C18.9111 13.9762 20.7486 16.65 22.4998 18.6037C22.6461 18.4987 22.7961 18.3937 22.9498 18.2887C21.2248 16.3725 19.3611 13.6612 18.3823 12.18ZM16.0873 14.2762C17.0811 15.7125 18.9448 18.3487 20.5461 20.2462C20.6736 20.1225 20.8086 19.9987 20.9436 19.875C19.4473 18.0937 17.6286 15.5512 16.4623 13.8637C16.3386 13.995 16.2111 14.1337 16.0873 14.2762ZM14.4486 16.3462C15.5923 17.9287 17.4261 20.43 18.8061 22.1362C18.9186 21.9975 19.0386 21.855 19.1623 21.7125C17.9961 20.2537 16.3686 18.075 14.7898 15.885C14.6698 16.0425 14.5573 16.1962 14.4486 16.3462ZM12.9448 18.5812L17.2461 24.2887C17.3173 24.1725 17.4223 24.0112 17.5611 23.8012L13.2561 18.0862C13.1173 18.3037 13.0123 18.4725 12.9448 18.5812Z" fill="#A3A3A3"/>
<path id="Vector_10" d="M25.3311 19.6125L24.1611 20.5238L28.4961 26.6625C28.4961 26.6625 29.4524 25.7325 30.1424 25.4775L25.3311 19.6125Z" fill="#A3A3A3"/>
<path id="Vector_11" d="M16.7286 10.4775C12.6223 13.6125 11.0361 17.1412 11.0361 17.1412L4.89355 11.385C4.89355 11.385 8.1148 6.1275 11.9436 5.1L16.7286 10.4775Z" fill="#C2C2C2"/>
<path id="Vector_12" d="M3.01104 13.05L2.56104 13.6275L8.98479 18.6638L3.01104 13.05ZM4.89354 11.385L11.036 17.1413C11.036 17.1413 11.9285 15.1575 14.1073 12.8438L14.0848 10.1738L8.98104 11.2538L8.98479 9.3525L6.25104 9.53625C5.41104 10.5788 4.89354 11.385 4.89354 11.385Z" fill="#A3A3A3"/>
<path id="Vector_13" opacity="0.7" d="M26.9177 18.8475L32.1789 24.645C32.4302 24.5475 32.6814 24.465 32.9252 24.3975L27.6864 18.63L26.9177 18.8475ZM30.4652 18.3412C30.1652 18.3225 29.8239 18.3225 29.4564 18.345L35.4639 23.8237C35.4639 23.8237 36.0752 23.625 36.4502 23.7525L30.4652 18.3412ZM22.3427 22.41L26.2652 28.9162C26.4302 28.7137 26.5952 28.515 26.7639 28.32L22.8752 21.8737C22.6989 22.0462 22.5189 22.2262 22.3427 22.41ZM20.3702 24.5175L24.0302 31.6837C24.2139 31.4662 24.3864 31.2562 24.5402 31.0687L20.8989 23.9362C20.7189 24.1312 20.5427 24.3262 20.3702 24.5175ZM18.3677 26.82L21.6527 34.5075C21.8064 34.3237 21.9864 34.11 22.1814 33.8812L18.8964 26.1975C18.6714 26.4562 18.4914 26.67 18.3677 26.82Z" fill="#A3A3A3"/>
<path id="Vector_14" d="M14.3213 26.97L13.7663 26.1412C13.717 26.0702 13.6956 25.9834 13.7063 25.8975C13.7888 25.0987 14.4826 20.9512 20.1676 17.19C24.4688 14.3437 27.4388 14.5725 28.1401 14.6512C28.2376 14.6625 28.3276 14.7112 28.3951 14.7825L29.0963 15.5625C29.1676 15.6412 29.1151 15.7687 29.0063 15.7687C28.0351 15.765 24.6938 15.9375 20.9738 18.4012C15.8851 21.7687 14.7038 25.965 14.4901 26.94C14.4676 27.0187 14.3663 27.0337 14.3213 26.97Z" fill="#DEA076"/>
<path id="Vector_15" d="M29.0024 15.7688C28.1924 15.78 27.3861 15.9 26.6024 16.0875C25.8186 16.2675 25.0461 16.515 24.3036 16.8225C22.8144 17.4339 21.4114 18.2369 20.1299 19.2113C18.8299 20.1607 17.6709 21.2894 16.6874 22.5638C16.1961 23.2013 15.7574 23.8763 15.3861 24.5925C15.0074 25.305 14.6961 26.055 14.5049 26.8425C14.7599 25.23 15.5249 23.73 16.4661 22.395C17.4186 21.06 18.6111 19.9088 19.9161 18.9188C21.2324 17.9513 22.6686 17.1263 24.2061 16.56C25.7361 16.0013 27.3749 15.6525 29.0024 15.7688Z" fill="#C17E52"/>
</g>
</svg>
