<svg width="40" height="40" viewBox="0 0 40 40" fill="none" xmlns="http://www.w3.org/2000/svg">
<g id="ph:image-light">
<path id="Vector" d="M33.75 6.5625H6.25C5.66984 6.5625 5.11344 6.79297 4.7032 7.2032C4.29297 7.61344 4.0625 8.16984 4.0625 8.75V31.25C4.0625 31.8302 4.29297 32.3866 4.7032 32.7968C5.11344 33.207 5.66984 33.4375 6.25 33.4375H33.75C34.3302 33.4375 34.8866 33.207 35.2968 32.7968C35.707 32.3866 35.9375 31.8302 35.9375 31.25V8.75C35.9375 8.16984 35.707 7.61344 35.2968 7.2032C34.8866 6.79297 34.3302 6.5625 33.75 6.5625ZM6.25 8.4375H33.75C33.8329 8.4375 33.9124 8.47042 33.971 8.52903C34.0296 8.58763 34.0625 8.66712 34.0625 8.75V25.5578L29.4578 20.9531C29.2547 20.75 29.0135 20.5888 28.7481 20.4789C28.4827 20.3689 28.1982 20.3123 27.9109 20.3123C27.6237 20.3123 27.3392 20.3689 27.0738 20.4789C26.8083 20.5888 26.5672 20.75 26.3641 20.9531L23.0172 24.3L15.9219 17.2031C15.7187 17 15.4776 16.8388 15.2122 16.7289C14.9468 16.6189 14.6623 16.5623 14.375 16.5623C14.0877 16.5623 13.8032 16.6189 13.5378 16.7289C13.2724 16.8388 13.0313 17 12.8281 17.2031L5.9375 24.0938V8.75C5.9375 8.66712 5.97042 8.58763 6.02903 8.52903C6.08763 8.47042 6.16712 8.4375 6.25 8.4375ZM5.9375 31.25V26.7453L14.1531 18.5297C14.1822 18.5004 14.2167 18.4771 14.2548 18.4613C14.2929 18.4454 14.3337 18.4373 14.375 18.4373C14.4163 18.4373 14.4571 18.4454 14.4952 18.4613C14.5333 18.4771 14.5678 18.5004 14.5969 18.5297L27.6297 31.5625H6.25C6.16712 31.5625 6.08763 31.5296 6.02903 31.471C5.97042 31.4124 5.9375 31.3329 5.9375 31.25ZM33.75 31.5625H30.2812L24.3438 25.625L27.6891 22.2781C27.7181 22.2491 27.7526 22.226 27.7905 22.2103C27.8284 22.1946 27.8691 22.1865 27.9102 22.1865C27.9512 22.1865 27.9919 22.1946 28.0298 22.2103C28.0678 22.226 28.1022 22.2491 28.1312 22.2781L34.0687 28.2156V31.25C34.0688 31.2916 34.0605 31.3327 34.0444 31.371C34.0283 31.4094 34.0047 31.4441 33.975 31.4732C33.9453 31.5023 33.9101 31.5252 33.8715 31.5405C33.8329 31.5559 33.7916 31.5633 33.75 31.5625ZM22.8125 15.625C22.8125 15.316 22.9041 15.0139 23.0758 14.7569C23.2475 14.5 23.4915 14.2997 23.7771 14.1814C24.0626 14.0632 24.3767 14.0322 24.6798 14.0925C24.9829 14.1528 25.2613 14.3016 25.4799 14.5201C25.6984 14.7387 25.8472 15.0171 25.9075 15.3202C25.9678 15.6233 25.9368 15.9374 25.8186 16.2229C25.7003 16.5085 25.5 16.7525 25.2431 16.9242C24.9861 17.0959 24.684 17.1875 24.375 17.1875C23.9606 17.1875 23.5632 17.0229 23.2701 16.7299C22.9771 16.4368 22.8125 16.0394 22.8125 15.625Z" fill="#303033"/>
</g>
</svg>
