<svg width="48" height="48" viewBox="0 0 48 48" fill="none" xmlns="http://www.w3.org/2000/svg">
<g id="shopping-bags">
<path id="Vector" d="M10.1098 14.7937C9.82852 12.6637 9.35227 8.91 9.66727 6.84375C9.98227 4.7775 10.8073 2.8725 12.5285 2.11875C14.0173 1.47 15.8735 2.15625 16.946 3.76125C17.5573 4.67625 17.906 5.805 18.2023 6.9225C18.7085 8.8425 19.1923 11.4675 19.436 13.4437" stroke="#00796B" stroke-width="2.25" stroke-miterlimit="10"/>
<path id="Vector_2" d="M4.61594 9.98737L26.5414 7.41339V8.85376V9.29451L26.9787 9.34981L31.6663 9.94261L11.3139 43.114L3.0333 39.664L5.04401 30.7968L5.05758 30.737L5.05627 30.6756L4.61594 9.98737Z" fill="#26A69A" stroke="black"/>
<path id="Vector_3" d="M10.0625 13.4426L31.9975 10.1251V28.1475V28.1873L32.0038 28.2266L33.8702 39.8711L11.9276 43.1939L10.0625 31.5801V13.4426Z" fill="#61DE9F" stroke="black"/>
<path id="Vector_4" d="M9.5627 13.0125V10.92L4.10645 9.54374L27.0864 6.99374L27.8214 8.62124L32.4977 9.54374L9.5627 13.0125Z" fill="#263238"/>
<path id="Vector_5" d="M2.45264 39.9637C2.61014 39.9637 7.88264 35.7825 7.88264 35.7825L11.5126 43.7625L10.7326 31.0387L9.55139 13.0125L8.01764 32.4937L2.45264 39.9637Z" fill="#00796B"/>
<g id="Vector_6">
<mask id="path-6-inside-1_985_5836" fill="white">
<path d="M27.0186 7.23375L27.5736 8.51625L27.6449 8.685L27.8211 8.73L30.6149 9.44625L9.93736 12.5775V10.6275L9.65236 10.5563L6.17236 9.67875L27.0186 7.23375ZM27.2549 6.82875L4.10986 9.54375L9.56611 10.92V13.0163L32.4974 9.54375L27.9186 8.36625L27.2549 6.82875Z"/>
</mask>
<path d="M27.0186 7.23375L27.5736 8.51625L27.6449 8.685L27.8211 8.73L30.6149 9.44625L9.93736 12.5775V10.6275L9.65236 10.5563L6.17236 9.67875L27.0186 7.23375ZM27.2549 6.82875L4.10986 9.54375L9.56611 10.92V13.0163L32.4974 9.54375L27.9186 8.36625L27.2549 6.82875Z" fill="#26A69A"/>
<path d="M27.0186 7.23375L27.9364 6.8366L27.6409 6.15391L26.9021 6.24056L27.0186 7.23375ZM27.5736 8.51625L28.4949 8.12726L28.4914 8.1191L27.5736 8.51625ZM27.6449 8.685L26.7236 9.07398L26.9166 9.53115L27.3975 9.65392L27.6449 8.685ZM27.8211 8.73L28.0695 7.76133L28.0685 7.76108L27.8211 8.73ZM30.6149 9.44625L30.7646 10.435L30.8632 8.47758L30.6149 9.44625ZM9.93736 12.5775H8.93736V13.7403L10.0871 13.5662L9.93736 12.5775ZM9.93736 10.6275H10.9374V9.84672L10.1799 9.65736L9.93736 10.6275ZM9.65236 10.5563L9.40786 11.5259L9.40983 11.5264L9.65236 10.5563ZM6.17236 9.67875L6.05587 8.68556L5.92786 10.6484L6.17236 9.67875ZM27.2549 6.82875L28.173 6.4324L27.8779 5.74881L27.1384 5.83556L27.2549 6.82875ZM4.10986 9.54375L3.99336 8.55056L3.86529 10.5134L4.10986 9.54375ZM9.56611 10.92H10.5661V10.1409L9.81069 9.95037L9.56611 10.92ZM9.56611 13.0163H8.56611V14.1791L9.71584 14.005L9.56611 13.0163ZM32.4974 9.54375L32.6471 10.5325L32.7464 8.57526L32.4974 9.54375ZM27.9186 8.36625L27.0005 8.7626L27.1948 9.21265L27.6695 9.33474L27.9186 8.36625ZM26.1009 7.63091L26.6559 8.91341L28.4914 8.1191L27.9364 6.8366L26.1009 7.63091ZM26.6524 8.90523L26.7236 9.07398L28.5661 8.29603L28.4949 8.12727L26.6524 8.90523ZM27.3975 9.65392L27.5737 9.69892L28.0685 7.76108L27.8922 7.71608L27.3975 9.65392ZM27.5728 9.69867L30.3665 10.4149L30.8632 8.47758L28.0695 7.76133L27.5728 9.69867ZM30.4651 8.45752L9.78764 11.5888L10.0871 13.5662L30.7646 10.435L30.4651 8.45752ZM10.9374 12.5775V10.6275H8.93736V12.5775H10.9374ZM10.1799 9.65736L9.8949 9.58611L9.40983 11.5264L9.69483 11.5976L10.1799 9.65736ZM9.89687 9.5866L6.41686 8.7091L5.92786 10.6484L9.40786 11.5259L9.89687 9.5866ZM6.28885 10.6719L27.1351 8.22694L26.9021 6.24056L6.05587 8.68556L6.28885 10.6719ZM27.1384 5.83556L3.99336 8.55056L4.22637 10.5369L27.3714 7.82194L27.1384 5.83556ZM3.86529 10.5134L9.32154 11.8896L9.81069 9.95037L4.35444 8.57412L3.86529 10.5134ZM8.56611 10.92V13.0163H10.5661V10.92H8.56611ZM9.71584 14.005L32.6471 10.5325L32.3476 8.55502L9.41639 12.0275L9.71584 14.005ZM32.7464 8.57526L28.1677 7.39776L27.6695 9.33474L32.2483 10.5122L32.7464 8.57526ZM28.8367 7.9699L28.173 6.4324L26.3368 7.2251L27.0005 8.7626L28.8367 7.9699Z" fill="black" mask="url(#path-6-inside-1_985_5836)"/>
</g>
<path id="Vector_7" d="M16.4814 14.4187C16.2001 12.2925 13.2714 4.12499 18.8776 3.08249C23.1151 2.29499 24.9864 11.3212 25.2339 13.3012" stroke="#61DE9F" stroke-width="2.25" stroke-miterlimit="10"/>
<path id="Vector_8" d="M18.516 42.2L21.1479 37.6412L21.2288 37.501L21.2122 37.3398L19.7555 23.2485L31.0693 21.0477L24.6673 41.2816L18.516 42.2ZM17.5419 14.4347C17.3524 13.6602 17.1701 12.6206 17.0697 12.0135L17.2034 11.9932C17.2473 12.2187 17.3055 12.5059 17.3742 12.8184C17.4827 13.3124 17.622 13.8908 17.7774 14.3906L17.5419 14.4347ZM26.5475 13.0584L26.2874 13.1057C26.0978 12.3309 25.9152 11.2899 25.8147 10.6823L25.9578 10.6605C26.0072 10.8921 26.0721 11.1882 26.1462 11.5074C26.2608 12.001 26.4022 12.572 26.5475 13.0584Z" fill="#26A69A" stroke="black"/>
<path id="Vector_9" d="M27.4012 21.3938C27.4012 21.3938 25.9837 13.8675 30.7049 14.3663C33.2737 14.6363 33.1687 20.61 33.1687 20.61" stroke="#D7578A" stroke-width="2.25" stroke-miterlimit="10"/>
<path id="Vector_10" d="M22.7435 20.6411L39.359 18.6897V19.6688V20.1097L39.7964 20.1648L43.2202 20.5966L27.7205 45.8696L21.5396 43.2835L23.0666 36.5607L23.0802 36.5008L23.0789 36.4394L22.7435 20.6411Z" fill="#D7578A" stroke="black"/>
<path id="Vector_11" d="M26.9263 23.2975L43.5513 20.7789V34.5V34.5398L43.5576 34.5792L44.974 43.4112L28.3378 45.9314L26.9263 37.1264V23.2975Z" fill="#FF9F9F" stroke="black"/>
<path id="Vector_12" d="M41.2706 19.599L42.187 19.9742L26.5617 22.3413L25.3204 21.3906L25.2937 21.3701L25.2645 21.3534L23.8007 20.5169L39.7418 18.6447L41.1936 19.5593L41.2304 19.5825L41.2706 19.599Z" fill="#263238" stroke="black"/>
<path id="Vector_13" d="M39.7914 18.5138L42.8101 20.0025L26.5051 22.47L23.3214 20.445L39.7914 18.5138ZM39.8589 18.1275L22.2339 20.1975L26.4264 22.8675L44.0514 20.1975L39.8589 18.1275Z" fill="#D7578A"/>
<path id="Vector_14" d="M32.385 24.3037C32.1338 23.4637 31.875 21.7575 31.8638 21.6863L32.8538 21.5588C32.8575 21.5775 33.1088 23.295 33.3413 24.0863L32.385 24.3037ZM39.0938 23.2725C38.8425 22.4325 38.5838 20.7263 38.5725 20.655L39.5513 20.5312C39.555 20.55 39.7575 22.32 39.99 23.1113L39.0938 23.2725Z" fill="#D7578A"/>
<path id="Vector_15" d="M31.83 24.3412C31.6125 22.7062 29.385 15.8137 33.585 15.2325C36.8663 14.7787 38.28 21.5662 38.4713 23.085" stroke="#FF9F9F" stroke-width="2.25" stroke-miterlimit="10"/>
<path id="Vector_16" d="M20.959 43.5825L24.5177 40.5675L27.9227 46.5L26.434 37.2225L26.449 22.9125L26.029 22.74L24.7015 37.2863L20.959 43.5825Z" fill="#AB2C5E"/>
</g>
</svg>
