<svg width="144" height="80" viewBox="0 0 144 80" fill="none" xmlns="http://www.w3.org/2000/svg">
<g id="logo 1">
<path id="Vector" d="M2.80054 59.2793V20.4914H19.6187C22.5733 20.4914 25.0543 20.8891 27.0619 21.6846C29.0821 22.48 30.6036 23.6038 31.6263 25.0558C32.6617 26.5078 33.1793 28.2187 33.1793 30.1884C33.1793 31.6151 32.8637 32.9156 32.2324 34.0899C31.6137 35.2641 30.7425 36.249 29.6187 37.0443C28.495 37.8274 27.1818 38.3701 25.6793 38.6732V39.0519C27.346 39.1153 28.8612 39.538 30.2248 40.3211C31.5884 41.0912 32.6743 42.1582 33.4823 43.5218C34.2905 44.8728 34.6945 46.4638 34.6945 48.2944C34.6945 50.4155 34.1389 52.3034 33.0278 53.9575C31.9293 55.6112 30.3637 56.9117 28.3309 57.8587C26.298 58.8058 23.8738 59.2793 21.0581 59.2793H2.80054ZM13.3309 50.8703H18.2551C20.0228 50.8703 21.3485 50.542 22.2324 49.8854C23.1162 49.2162 23.5581 48.2314 23.5581 46.9308C23.5581 46.0216 23.3498 45.2515 22.9331 44.6202C22.5164 43.9888 21.923 43.5092 21.1528 43.1809C20.3952 42.8526 19.4798 42.6883 18.4066 42.6883H13.3309V50.8703ZM13.3309 36.1733H17.649C18.5707 36.1733 19.3851 36.028 20.0922 35.7376C20.7993 35.4472 21.3485 35.0306 21.7399 34.4876C22.144 33.9321 22.346 33.2565 22.346 32.4611C22.346 31.2616 21.9167 30.3462 21.0581 29.7149C20.1995 29.071 19.1137 28.749 17.8005 28.749H13.3309V36.1733ZM38.5769 59.2793V30.1884H49.0317V59.2793H38.5769ZM43.8043 27.1581C42.3903 27.1581 41.178 26.6909 40.1679 25.7565C39.1578 24.8222 38.653 23.6985 38.653 22.3853C38.653 21.0722 39.1578 19.9485 40.1679 19.0141C41.178 18.0798 42.3903 17.6126 43.8043 17.6126C45.231 17.6126 46.4432 18.0798 47.4407 19.0141C48.4508 19.9485 48.9557 21.0722 48.9557 22.3853C48.9557 23.6985 48.4508 24.8222 47.4407 25.7565C46.4432 26.6909 45.231 27.1581 43.8043 27.1581ZM64.813 42.9157V59.2793H54.3582V30.1884H64.2825V35.7187H64.5856C65.2169 33.8752 66.3279 32.4295 67.9189 31.3815C69.5225 30.3336 71.391 29.8096 73.525 29.8096C75.5831 29.8096 77.3697 30.2831 78.8847 31.23C80.4126 32.1644 81.5932 33.4523 82.4263 35.0937C83.2724 36.7351 83.689 38.6101 83.6764 40.7186V59.2793H73.222V42.9157C73.2346 41.4764 72.8685 40.3463 72.1236 39.5254C71.391 38.7049 70.3683 38.2944 69.0551 38.2944C68.1968 38.2944 67.4454 38.484 66.8014 38.8627C66.1701 39.2288 65.684 39.7589 65.3431 40.4537C65.0022 41.1355 64.8256 41.956 64.813 42.9157Z" fill="#FB5607"/>
<path id="Vector_2" d="M93.6299 29.6389L92.7492 29.4496L92.5149 30.5398H93.6299V29.6389ZM95.0166 23.1856V22.2847H94.2886L94.1358 22.9963L95.0166 23.1856ZM104.35 23.1856L105.231 23.3748L105.465 22.2847H104.35V23.1856ZM102.963 29.6389V30.5398H103.691L103.844 29.8282L102.963 29.6389ZM88.1366 58.9189L87.2551 58.7326L87.0256 59.8198H88.1366V58.9189ZM92.1366 39.9856L93.018 40.1719L93.2476 39.0847H92.1366V39.9856ZM88.4032 39.9856L87.547 39.7048L87.16 40.8865H88.4032V39.9856ZM90.4832 33.6389V32.738H89.8306L89.627 33.3583L90.4832 33.6389ZM102.057 33.6389L102.938 33.8249L103.168 32.738H102.057V33.6389ZM96.7232 58.9189V59.8198H97.454L97.6047 59.1049L96.7232 58.9189ZM94.5106 29.8282L95.8973 23.3748L94.1358 22.9963L92.7492 29.4496L94.5106 29.8282ZM95.0166 24.0865H104.35V22.2847H95.0166V24.0865ZM103.469 22.9963L102.083 29.4496L103.844 29.8282L105.231 23.3748L103.469 22.9963ZM102.963 28.738H93.6299V30.5398H102.963V28.738ZM89.018 59.1052L93.018 40.1719L91.2551 39.7993L87.2551 58.7326L89.018 59.1052ZM92.1366 39.0847H88.4032V40.8865H92.1366V39.0847ZM89.2594 40.2663L91.3394 33.9195L89.627 33.3583L87.547 39.7048L89.2594 40.2663ZM90.4832 34.5398H102.057V32.738H90.4832V34.5398ZM101.175 33.4529L95.8418 58.733L97.6047 59.1049L102.938 33.8249L101.175 33.4529ZM96.7232 58.018H88.1366V59.8198H96.7232V58.018ZM105.288 50.4389L104.407 50.2519L104.406 50.2558L104.405 50.2602L105.288 50.4389ZM107.475 40.1456L108.356 40.3326L108.587 39.2447H107.475V40.1456ZM104.062 40.1456L103.181 39.9578L102.948 41.0465H104.062V40.1456ZM105.448 33.6389V32.738H104.719L104.567 33.4511L105.448 33.6389ZM108.862 33.6389V34.5398H109.591L109.743 33.8259L108.862 33.6389ZM109.982 28.3589L109.761 27.4855L109.217 27.6231L109.1 28.1719L109.982 28.3589ZM119.048 26.0656L119.93 26.2518L120.228 24.8378L118.827 25.1922L119.048 26.0656ZM117.448 33.6389L116.567 33.4527L116.337 34.5398H117.448V33.6389ZM123.582 33.6389L124.451 33.8741L124.759 32.738H123.582V33.6389ZM121.822 40.1456V41.0465H122.511L122.691 40.3809L121.822 40.1456ZM116.062 40.1456V39.2447H115.329L115.18 39.9614L116.062 40.1456ZM114.035 49.8522L113.153 49.6681L113.152 49.6706L114.035 49.8522ZM114.142 52.4122L113.384 52.8994L113.404 52.9315L113.427 52.9614L114.142 52.4122ZM120.222 52.5722L121.103 52.7582L121.417 51.2685L119.96 51.7099L120.222 52.5722ZM118.995 58.3856L119.324 59.2241L119.776 59.0468L119.876 58.5715L118.995 58.3856ZM112.488 58.5513C109.763 58.5513 108.023 57.7982 107.013 56.4991L105.591 57.6054C107.069 59.5063 109.453 60.3531 112.488 60.3531V58.5513ZM107.013 56.4991C105.988 55.1812 105.632 53.2796 106.171 50.6176L104.405 50.2602C103.806 53.2158 104.126 55.7232 105.591 57.6054L107.013 56.4991ZM106.169 50.6259L108.356 40.3326L106.594 39.9585L104.407 50.2519L106.169 50.6259ZM107.475 39.2447H104.062V41.0465H107.475V39.2447ZM104.943 40.3333L106.329 33.8267L104.567 33.4511L103.181 39.9578L104.943 40.3333ZM105.448 34.5398H108.862V32.738H105.448V34.5398ZM109.743 33.8259L110.863 28.5459L109.1 28.1719L107.98 33.4519L109.743 33.8259ZM110.203 29.2323L119.269 26.939L118.827 25.1922L109.761 27.4855L110.203 29.2323ZM118.167 25.8793L116.567 33.4527L118.33 33.8251L119.93 26.2518L118.167 25.8793ZM117.448 34.5398H123.582V32.738H117.448V34.5398ZM122.712 33.4037L120.952 39.9103L122.691 40.3809L124.451 33.8741L122.712 33.4037ZM121.822 39.2447H116.062V41.0465H121.822V39.2447ZM115.18 39.9614L113.153 49.6681L114.917 50.0364L116.943 40.3297L115.18 39.9614ZM113.152 49.6706C113.019 50.3182 112.953 50.9117 112.975 51.4364C112.996 51.9564 113.107 52.4692 113.384 52.8994L114.899 51.925C114.856 51.8576 114.789 51.6948 114.775 51.3614C114.761 51.0328 114.802 50.5953 114.917 50.0339L113.152 49.6706ZM113.427 52.9614C113.78 53.4198 114.314 53.6652 114.848 53.8043C115.396 53.9463 116.058 54.0065 116.808 54.0065V52.2047C116.137 52.2047 115.643 52.1492 115.302 52.0602C114.947 51.9679 114.859 51.867 114.856 51.863L113.427 52.9614ZM116.808 54.0065C118.008 54.0065 119.234 53.813 120.483 53.4346L119.96 51.7099C118.862 52.0429 117.813 52.2047 116.808 52.2047V54.0065ZM119.34 52.3863L118.114 58.1996L119.876 58.5715L121.103 52.7582L119.34 52.3863ZM118.666 57.547C116.983 58.2068 114.932 58.5513 112.488 58.5513V60.3531C115.094 60.3531 117.38 59.9867 119.324 59.2241L118.666 57.547ZM124.755 49.5322L123.87 49.3636L123.666 50.4331H124.755V49.5322ZM127.795 33.5856L126.914 33.3979L126.912 33.4073L126.91 33.4168L127.795 33.5856ZM129.715 24.5722V23.6713H128.986L128.834 24.3845L129.715 24.5722ZM138.302 24.5722L139.183 24.7599L139.415 23.6713H138.302V24.5722ZM136.382 33.5856L137.259 33.7881L137.261 33.7807L137.263 33.7733L136.382 33.5856ZM132.702 49.5322V50.4331H133.418L133.579 49.7348L132.702 49.5322ZM122.248 58.9189L121.366 58.7362L121.142 59.8198H122.248V58.9189ZM123.528 52.7322V51.8313H122.795L122.646 52.5495L123.528 52.7322ZM132.542 52.7322L133.424 52.9149L133.648 51.8313H132.542V52.7322ZM131.262 58.9189V59.8198H131.995L132.144 59.1016L131.262 58.9189ZM125.64 49.7009L128.68 33.7543L126.91 33.4168L123.87 49.3636L125.64 49.7009ZM128.676 33.7733L130.596 24.7599L128.834 24.3845L126.914 33.3979L128.676 33.7733ZM129.715 25.4731H138.302V23.6713H129.715V25.4731ZM137.421 24.3845L135.501 33.3979L137.263 33.7733L139.183 24.7599L137.421 24.3845ZM135.504 33.383L131.824 49.3297L133.579 49.7348L137.259 33.7881L135.504 33.383ZM132.702 48.6313H124.755V50.4331H132.702V48.6313ZM123.13 59.1016L124.41 52.9149L122.646 52.5495L121.366 58.7362L123.13 59.1016ZM123.528 53.6331H132.542V51.8313H123.528V53.6331ZM131.659 52.5495L130.379 58.7362L132.144 59.1016L133.424 52.9149L131.659 52.5495ZM131.262 58.018H122.248V59.8198H131.262V58.018Z" fill="#FB5607"/>
</g>
</svg>
