<svg width="49" height="48" viewBox="0 0 49 48" fill="none" xmlns="http://www.w3.org/2000/svg">
<g id="noto:receipt">
<path id="Vector" d="M39.8868 5.3775L37.453 2.415L35.0193 5.3775L32.5855 2.415L30.1518 5.3775L27.718 2.415L25.2843 5.3775L22.8505 2.415L20.4168 5.3775L17.983 2.415L15.5493 5.3775L13.1155 2.415L10.6818 5.3775L8.13553 2.28H7.88428L7.92553 45.795L37.5805 45.84C43.8355 45.84 42.583 32.7863 42.583 32.7863L42.5905 2.27625H42.448L39.8868 5.3775Z" fill="white"/>
<path id="Vector_2" d="M25.0806 13C26.1851 13 27.0806 12.1046 27.0806 11C27.0806 9.89543 26.1851 9 25.0806 9C23.976 9 23.0806 9.89543 23.0806 11C23.0806 12.1046 23.976 13 25.0806 13Z" fill="#464646"/>
<path id="Vector_3" d="M12.2344 17.8575H26.6644M33.2456 17.8575H37.6294M33.2456 22.785H37.6294M22.3256 22.785H26.2894M12.2344 22.785H18.8419M30.8756 36.7275H37.6294M33.2456 27.7125H37.6294M12.2344 27.7125H23.9194" stroke="#464646" stroke-width="2" stroke-miterlimit="10" stroke-linecap="round"/>
<g id="Group">
<path id="Vector_4" d="M15.3506 32.64H35.6268" stroke="#303435" stroke-width="2" stroke-miterlimit="10" stroke-linecap="round"/>
<path id="Vector_5" d="M37.0366 32.64H37.1866" stroke="#303435" stroke-width="2" stroke-miterlimit="10" stroke-linecap="round"/>
</g>
<path id="Vector_6" d="M43.2504 1.14H43.1566C43.1266 1.14 42.5979 1.15125 41.7691 2.04L39.8904 4.3275L37.4529 1.365L35.0191 4.3275L32.5816 1.365L30.1479 4.3275L27.7104 1.365L25.2766 4.3275L22.8429 1.365L20.4091 4.3275L17.9754 1.365L15.5416 4.3275L13.1079 1.365L10.6741 4.32375L9.40662 2.69625C8.11662 1.1475 7.31037 1.29375 7.27662 1.2975L7.20162 1.3125L7.23912 39.9675L5.21787 42.1687L3.05787 39.5775C3.05787 39.5775 1.75287 41.4637 3.43662 44.0137C4.78287 46.0575 9.08037 45.8475 10.8354 45.8475L36.3241 45.87C40.6554 45.8438 41.8366 44.9287 42.6766 41.0475C43.2541 38.3737 43.2504 34.4325 43.2504 32.9475V1.14ZM26.5891 39.5812L24.2154 42.1725L21.8416 39.5812L19.4679 42.1725L17.0941 39.5812L14.7204 42.1725L12.3466 39.5812L9.97287 42.1725L8.58912 40.6612L8.55537 3.8475L10.6779 6.4275L13.1116 3.465L15.5454 6.4275L17.9791 3.465L20.4129 6.4275L22.8466 3.465L25.2804 6.4275L27.7141 3.465L30.1516 6.4275L32.5854 3.465L35.0229 6.4275L37.4566 3.465L39.8941 6.4275L41.9079 3.975L41.9004 32.76V33.0975C41.9041 34.665 41.9191 38.34 41.3566 40.7625C40.7791 43.2712 39.8679 44.2837 38.0004 44.5012C37.4454 44.565 34.5316 44.6362 31.8316 39.5887C31.7866 39.5025 31.7154 39.5212 31.7004 39.525C31.6966 39.525 31.6929 39.5288 31.6891 39.5288C31.6629 39.4163 31.6479 39.3487 31.6479 39.3487L28.9666 42.1687L26.5891 39.5812Z" fill="black"/>
</g>
</svg>
