<svg width="48" height="48" viewBox="0 0 48 48" fill="none" xmlns="http://www.w3.org/2000/svg">
<g id="twemoji:canned-food" clip-path="url(#clip0_985_6512)">
<path id="Vector" d="M39.5 43.3333C39.5 43.7287 39.2221 44.2118 38.4587 44.7382C37.7109 45.2539 36.5961 45.7383 35.1735 46.1532C32.335 46.981 28.3844 47.5 24 47.5C19.6156 47.5 15.665 46.981 12.8265 46.1532C11.4039 45.7383 10.2891 45.2539 9.54127 44.7382C8.77794 44.2118 8.5 43.7287 8.5 43.3333C8.5 42.9383 8.77781 42.4554 9.54109 41.929C10.2888 41.4134 11.4036 40.929 12.826 40.514C15.6643 39.686 19.615 39.1667 24 39.1667C28.3844 39.1667 32.335 39.6856 35.1735 40.5135C36.5961 40.9284 37.7109 41.4128 38.4587 41.9285C39.2221 42.4548 39.5 42.9379 39.5 43.3333Z" fill="#99AAB5" stroke="black"/>
<path id="Vector_2" d="M8 42H40V43.3333H8V42Z" fill="#99AAB5"/>
<path id="Vector_3" d="M39.5 42C39.5 42.3954 39.2221 42.8785 38.4587 43.4048C37.7109 43.9205 36.5961 44.4049 35.1735 44.8198C32.335 45.6477 28.3844 46.1667 24 46.1667C19.6156 46.1667 15.665 45.6477 12.8265 44.8198C11.4039 44.4049 10.2891 43.9205 9.54127 43.4048C8.77794 42.8785 8.5 42.3954 8.5 42C8.5 41.6046 8.77791 41.1215 9.54111 40.5951C10.2888 40.0795 11.4035 39.5951 12.826 39.1802C15.6643 38.3523 19.6149 37.8333 24 37.8333C28.3844 37.8333 32.335 38.3523 35.1735 39.1802C36.5961 39.5951 37.7109 40.0795 38.4587 40.5951C39.2221 41.1215 39.5 41.6046 39.5 42Z" fill="#E6E7E8" stroke="black"/>
<path id="Vector_4" d="M38.6668 41.3333C38.6668 43.5413 32.0988 45.3333 24.0002 45.3333C15.9002 45.3333 9.3335 43.5427 9.3335 41.3333C9.3335 39.124 15.8988 37.3333 24.0002 37.3333C32.1002 37.3333 38.6668 39.124 38.6668 41.3333Z" fill="#5C913B"/>
<path id="Vector_5" d="M9.3335 10.6667H38.6668V41.3333H9.3335V10.6667Z" fill="#5C913B"/>
<path id="Vector_6" d="M38.6668 30.6667C38.6668 33.2427 32.0988 35.3333 24.0002 35.3333C15.9002 35.3333 9.3335 33.244 9.3335 30.6667C9.3335 28.0893 15.8988 26 24.0002 26C32.0988 26 38.6668 28.0893 38.6668 30.6667Z" fill="#A6D388"/>
<path id="Vector_7" d="M9.3335 13.3333H38.6668V30.6667H9.3335V13.3333Z" fill="#A6D388"/>
<path id="Vector_8" d="M38.6665 18.6667C38.6665 21.2427 32.0985 23.3333 23.9998 23.3333C15.8998 23.3333 9.33447 21.244 9.33447 18.6667C9.33447 16.0893 15.8998 14 23.9998 14C32.0985 14 38.6665 16.0893 38.6665 18.6667Z" fill="#5C913B"/>
<path id="Vector_9" d="M9.3335 5.33333H38.6668V18.6667H9.3335V5.33333Z" fill="#5C913B"/>
<path id="Vector_10" d="M39.5 6C39.5 6.39539 39.2221 6.8785 38.4587 7.40485C37.7109 7.92052 36.5961 8.40493 35.1735 8.81983C32.335 9.6477 28.3844 10.1667 24 10.1667C19.6156 10.1667 15.665 9.6477 12.8265 8.81983C11.4039 8.40493 10.2891 7.92052 9.54127 7.40485C8.77794 6.8785 8.5 6.39539 8.5 6C8.5 5.60461 8.77794 5.1215 9.54127 4.59515C10.2891 4.07948 11.4039 3.59507 12.8265 3.18017C15.665 2.3523 19.6156 1.83333 24 1.83333C28.3844 1.83333 32.335 2.3523 35.1735 3.18017C36.5961 3.59507 37.7109 4.07948 38.4587 4.59515C39.2221 5.1215 39.5 5.60461 39.5 6Z" fill="#99AAB5" stroke="black"/>
<path id="Vector_11" d="M8 4.66667H40V6H8V4.66667Z" fill="#99AAB5"/>
<path id="Vector_12" d="M39.5 4.66667C39.5 5.06206 39.2221 5.54517 38.4587 6.07152C37.7109 6.58719 36.5961 7.0716 35.1735 7.4865C32.335 8.31437 28.3844 8.83333 24 8.83333C19.6156 8.83333 15.665 8.31437 12.8265 7.4865C11.4039 7.0716 10.2891 6.58719 9.54127 6.07152C8.77794 5.54517 8.5 5.06206 8.5 4.66667C8.5 4.27127 8.77794 3.78816 9.54127 3.26182C10.2891 2.74615 11.4039 2.26173 12.8265 1.84683C15.665 1.01897 19.6156 0.5 24 0.5C28.3844 0.5 32.335 1.01897 35.1735 1.84683C36.5961 2.26173 37.7109 2.74615 38.4587 3.26182C39.2221 3.78816 39.5 4.27127 39.5 4.66667Z" fill="#E6E7E8" stroke="black"/>
<path id="Vector_13" d="M37.6668 4.66667C37.6668 6.508 31.5495 8 24.0002 8C16.4508 8 10.3335 6.508 10.3335 4.66667C10.3335 2.82533 16.4508 1.33333 24.0002 1.33333C31.5495 1.33333 37.6668 2.82533 37.6668 4.66667Z" fill="#CCD6DD"/>
<path id="Vector_14" d="M36.3332 4.66667C36.3332 6.14 30.8132 7.33333 23.9998 7.33333C17.1865 7.33333 11.6665 6.14 11.6665 4.66667C11.6665 3.19333 17.1878 2 23.9998 2C30.8132 2 36.3332 3.19333 36.3332 4.66667Z" fill="#E6E7E8"/>
<path id="Vector_15" d="M32 4.66667C32 5.58667 28.4187 6.33333 24 6.33333C19.5813 6.33333 16 5.58667 16 4.66667C16 3.74667 19.5813 3 24 3C28.4187 3 32 3.74667 32 4.66667Z" fill="#CCD6DD"/>
<path id="Vector_16" d="M23.9998 5.66667C27.4976 5.66667 30.3332 5.21895 30.3332 4.66667C30.3332 4.11438 27.4976 3.66667 23.9998 3.66667C20.502 3.66667 17.6665 4.11438 17.6665 4.66667C17.6665 5.21895 20.502 5.66667 23.9998 5.66667Z" fill="#E6E7E8"/>
<path id="Vector_17" d="M33.3332 28C33.3332 33.5227 29.1545 38 23.9998 38C18.8452 38 14.6665 33.5227 14.6665 28C14.6665 22.4773 18.8452 18 23.9998 18C29.1545 18 33.3332 22.4773 33.3332 28Z" fill="#FFCC4D"/>
<path id="Vector_18" d="M30.6668 28C30.6668 32.208 27.6815 35.62 24.0002 35.62C20.3188 35.62 17.3335 32.2067 17.3335 28C17.3335 23.7933 20.3175 20.3813 24.0002 20.3813C27.6828 20.3813 30.6668 23.792 30.6668 28Z" fill="#FFAC33"/>
</g>
<defs>
<clipPath id="clip0_985_6512">
<rect width="48" height="48" fill="white"/>
</clipPath>
</defs>
</svg>
