<svg width="150" height="157" viewBox="0 0 150 157" fill="none" xmlns="http://www.w3.org/2000/svg">
<g id="Group 42">
<g id="#321_travel_plans_flatline">
<path id="Vector" d="M149.502 0.241211H29.5291V78.804H149.502V0.241211Z" fill="white"/>
<path id="Vector_2" d="M149.502 79.0443H29.5291C29.4652 79.0443 29.404 79.019 29.3588 78.9738C29.3137 78.9287 29.2883 78.8674 29.2883 78.8036V0.240754C29.2896 0.177288 29.3153 0.116765 29.3602 0.0718798C29.4051 0.0269941 29.4656 0.0012327 29.5291 0H149.502C149.565 0.0012327 149.626 0.0269941 149.67 0.0718798C149.715 0.116765 149.741 0.177288 149.742 0.240754V78.8036C149.742 78.8674 149.717 78.9287 149.672 78.9738C149.627 79.019 149.565 79.0443 149.502 79.0443ZM29.7698 78.5628H149.261V0.481508H29.7698V78.5628Z" fill="#303033" fill-opacity="0.5"/>
<path id="Vector_3" d="M145.293 74.4452H33.7373C33.6735 74.4452 33.6122 74.4198 33.5671 74.3747C33.5219 74.3295 33.4966 74.2683 33.4966 74.2044V4.83841C33.4978 4.77494 33.5236 4.71442 33.5685 4.66954C33.6133 4.62465 33.6739 4.59889 33.7373 4.59766H145.293C145.357 4.59889 145.417 4.62465 145.462 4.66954C145.507 4.71442 145.533 4.77494 145.534 4.83841V74.2044C145.534 74.2683 145.508 74.3295 145.463 74.3747C145.418 74.4198 145.357 74.4452 145.293 74.4452ZM33.9781 73.9637H145.052V5.07916H33.9781V73.9637Z" fill="#D1D3D4"/>
<path id="Vector_4" d="M90.7577 26.0594C90.8226 26.203 90.8431 26.3627 90.8165 26.518C90.7899 26.6733 90.7174 26.8171 90.6084 26.9309C90.5651 26.9791 90.6084 27.1909 90.6854 27.2487C90.8147 27.3772 90.9853 27.4556 91.167 27.4702C91.427 27.4702 91.7062 27.2246 91.8603 27.6195C92.3418 27.5809 92.7367 27.0754 93.3049 27.3498C93.4397 27.4124 93.7093 27.1957 93.9308 27.0994C93.9158 26.9393 93.9158 26.7781 93.9308 26.6179C94.056 25.9342 94.1764 25.8908 94.7157 26.329C94.9275 26.1412 95.0094 25.9727 94.7494 25.7319C94.4894 25.4912 94.5905 25.3564 94.8746 25.2938C95.0829 25.2549 95.2937 25.2308 95.5053 25.2215L96.3047 25.1445V24.9615C96.1631 24.9067 96.0134 24.8758 95.8617 24.87C95.565 24.9626 95.2603 25.0271 94.9516 25.0627C94.6107 25.0343 94.2811 24.9271 93.9886 24.7497C93.8249 24.6534 94.0319 23.8107 94.2101 23.6663L95.2598 22.8381C95.0479 22.7659 94.8505 22.631 94.706 22.6696C94.4497 22.7542 94.2125 22.8883 94.0079 23.0644C93.8297 23.204 93.7238 23.4352 93.5552 23.5892C93.3867 23.7433 93.1267 23.8444 92.963 24.0226C92.6596 24.35 92.6982 24.5811 93.0545 24.8412C93.1185 24.872 93.1719 24.9212 93.2078 24.9826C93.2436 25.044 93.2602 25.1147 93.2556 25.1856C93.2509 25.2566 93.2252 25.3245 93.1816 25.3806C93.138 25.4368 93.0787 25.4787 93.0111 25.5008C92.8933 25.5579 92.7931 25.6458 92.721 25.7551C92.649 25.8644 92.6078 25.9912 92.6019 26.122C92.573 26.382 92.573 26.7576 92.1203 26.6613C91.5474 27.4028 91.5666 26.6613 91.4173 26.3772C91.3914 26.3195 91.3624 26.2633 91.3307 26.2086C91.1718 25.9486 91.061 25.5779 90.8251 25.4719C90.671 25.3997 90.3436 25.7079 90.0884 25.8379C89.9451 25.8877 89.7881 25.8811 89.6495 25.8194C89.5109 25.7577 89.4009 25.6455 89.342 25.5056C89.235 25.2492 89.159 24.9808 89.1157 24.7063C89.109 24.6121 89.1213 24.5175 89.1519 24.4282C89.1825 24.3388 89.2308 24.2566 89.2939 24.1863C89.6307 23.8747 90.0342 23.6442 90.4736 23.5122C90.7914 23.4255 91.0562 23.074 91.3066 22.7996C91.6629 22.4047 91.9807 21.9714 92.2696 21.6054L91.61 21.7643C91.7582 21.6227 91.9194 21.4953 92.0915 21.3839C92.2802 21.3189 92.4756 21.2752 92.6741 21.2539C92.8571 21.1384 93.1845 20.7724 93.4252 20.8206C93.8538 20.9072 94.1716 20.5846 94.5905 20.6761C94.7783 20.7195 95.0287 20.4931 95.3416 20.3439L95.1779 20.7002C95.3481 20.6069 95.5343 20.5464 95.7268 20.522C96.0443 20.5642 96.3582 20.6302 96.6658 20.7195L96.555 20.888C97.234 21.0469 97.9033 21.1721 98.5581 21.3695C98.9313 21.4974 99.2923 21.6585 99.6367 21.851C99.9256 21.9954 99.94 22.2073 99.6367 22.3325C99.0758 22.5397 98.4593 22.5397 97.8984 22.3325C97.721 22.2699 97.532 22.2469 97.3447 22.2651L97.8696 22.5444C97.8696 23.1703 98.2548 23.5074 98.8711 23.31L98.4714 23.0355L98.51 22.9392L99.5837 23.1125L99.3863 22.7129C99.5979 22.6097 99.8149 22.5181 100.036 22.4384C100.268 22.3897 100.503 22.3544 100.739 22.3325C100.667 22.228 100.612 22.1126 100.576 21.9906C100.569 21.7988 100.582 21.6068 100.614 21.4176L101.418 21.591V21.7499L101.019 21.8847C101.322 22.3662 101.442 22.3132 101.832 22.0003C102.183 21.7751 102.562 21.597 102.959 21.4706C103.104 21.4279 103.252 21.3957 103.402 21.3743C103.725 21.8895 104.187 21.3743 104.611 21.4176C104.798 21.4176 105.005 21.148 105.164 21.4899C105.329 21.4506 105.489 21.3991 105.646 21.3358L104.789 20.7195C105.37 20.7959 105.947 20.9036 106.517 21.0421C106.999 21.1865 107.418 21.5236 107.962 21.485C107.783 21.3865 107.635 21.2413 107.532 21.0649C107.429 20.8885 107.377 20.6876 107.379 20.4835C107.547 20.2356 107.746 20.0106 107.972 19.8142C108.191 19.7052 108.435 19.6539 108.679 19.6649C108.865 19.6829 109.048 19.725 109.224 19.7901L108.954 20.1802L109.161 21.5284L109.354 21.591L108.501 22.3662C108.645 22.4019 108.796 22.4038 108.941 22.3717C109.086 22.3396 109.222 22.2743 109.337 22.1811C109.453 22.0878 109.545 21.9691 109.608 21.8341C109.67 21.6992 109.7 21.5517 109.695 21.4032C109.97 21.4032 110.321 21.2636 110.345 21.7547C110.663 21.4802 110.596 21.2347 110.201 21.2154C109.951 21.2154 109.719 21.2154 109.426 21.2154L109.329 20.1753L109.878 19.8142V20.2957L110.36 20.3631L109.994 20.0502L110.567 20.132L110.615 20.0357L110.331 19.8383L110.365 19.7372C110.731 19.8479 111.097 19.9635 111.463 20.0694C111.603 20.1048 111.747 20.1306 111.891 20.1465C111.908 20.1084 111.918 20.0676 111.92 20.0261C111.795 19.9635 111.665 19.9153 111.467 19.8335L111.333 19.4146L113.21 19.2557L112.931 18.9571C113.793 18.5411 114.751 18.3648 115.705 18.4467C116.04 18.4372 116.373 18.387 116.697 18.2975C116.73 18.2975 116.754 18.2541 116.783 18.2541C117.083 18.2226 117.367 18.1056 117.602 17.9171C117.948 17.6667 118.377 17.3682 118.762 17.946C118.834 18.0519 119.07 18.0471 119.215 18.0904C119.72 18.0519 120.227 18.0519 120.732 18.0904C120.915 18.1193 121.054 18.4419 121.213 18.6442L119.104 19.3953V19.482C119.244 19.482 119.388 19.482 119.528 19.482C119.667 19.482 119.879 19.5253 119.98 19.4483C120.462 19.1016 120.943 19.3086 121.425 19.3616C121.618 19.3616 121.834 19.2509 122.017 19.2846C122.245 19.3412 122.46 19.4426 122.648 19.5831C122.85 19.7025 123.089 19.7439 123.319 19.6995C123.55 19.6552 123.756 19.5282 123.9 19.3423C124.001 19.2717 124.125 19.2424 124.247 19.2605C124.728 19.3183 125.176 19.4049 125.667 19.482C125.609 20.0261 125.633 20.4883 126.346 20.498L126.534 20.185H128.787L128.556 19.7998C129.094 19.6838 129.646 19.6545 130.193 19.7131C130.732 19.8624 131.325 19.742 131.854 20.1465C132.206 20.4161 132.817 20.3776 133.333 20.392C133.848 20.4065 134.358 20.3054 134.719 20.8446C134.801 20.9602 135.109 20.9458 135.316 20.9602C135.637 20.9776 135.959 20.9776 136.279 20.9602C136.511 20.9602 136.761 20.8687 136.973 20.8398C137.115 20.8302 137.259 20.8302 137.401 20.8398L137.493 20.9891L137.209 21.071L137.238 21.1673L138.008 21.3984L137.859 20.8013C138.671 20.8271 139.478 20.9401 140.266 21.1384C140.974 21.3984 141.846 21.5043 142.293 22.2747C142.534 21.9377 142.775 21.9714 143.632 22.5155C143.348 22.7562 142.881 22.7707 142.789 23.2088C142.481 23.1174 142.173 23.0307 141.87 22.9296C141.711 22.8814 141.562 22.814 141.388 22.7562C141.267 22.7197 141.15 22.673 141.037 22.6166C140.964 22.5575 140.902 22.4857 140.854 22.4047C140.825 22.4962 140.801 22.5877 140.777 22.684C140.753 22.7803 140.777 22.7707 140.743 22.8333L139.905 23.1222C140.053 23.2183 140.171 23.353 140.248 23.5118C140.324 23.6705 140.356 23.8472 140.339 24.0226C139.197 23.8155 138.441 24.456 137.608 24.9856C137.552 24.9158 137.481 24.858 137.402 24.8155C137.323 24.7731 137.236 24.7468 137.146 24.7383C137.056 24.7298 136.966 24.7392 136.88 24.7659C136.794 24.7927 136.714 24.8363 136.645 24.8941C136.524 24.9511 136.388 24.9695 136.255 24.9471C135.644 24.8989 135.552 25.4767 135.153 25.7994L135.528 25.8764L135.615 26.5794C135.196 26.6131 135.061 26.8057 135.312 27.1765C135.095 27.4028 134.498 27.2294 134.71 27.8361C134.012 27.735 134.228 28.6066 133.694 28.751C133.525 27.788 132.981 26.825 133.723 25.992C134.609 25.3853 135.466 24.8749 136 23.9937L135.923 23.883C135.827 23.9118 135.649 23.9504 135.649 23.9744C135.673 24.2971 135.418 24.3452 135.21 24.4222C135.003 24.4993 134.7 25.0001 134.575 24.3163C134.289 24.2887 134 24.3132 133.723 24.3885C133.506 24.5018 133.32 24.6672 133.183 24.87C133.111 24.9615 133.13 25.1252 133.097 25.3227L132.023 25.4719L132.235 25.1445C131.738 25.2353 131.232 25.2644 130.728 25.2312C129.673 25.0097 129.076 25.7127 128.402 26.252C128.075 26.5264 127.747 26.8105 127.468 27.0513C127.599 27.2171 127.748 27.3688 127.911 27.5039C128.033 27.5505 128.169 27.5505 128.291 27.5039C128.445 27.4654 128.643 27.2824 128.725 27.3306C128.898 27.4269 129.153 27.6676 129.124 27.8121C128.956 28.5488 129.076 29.3529 128.614 30.0222C128.152 30.6915 127.786 31.2308 127.372 31.8278C127.261 31.9778 127.096 32.0795 126.913 32.1117C126.729 32.144 126.54 32.1044 126.384 32.0012C126.182 32.3093 125.763 32.4201 125.73 32.9257C125.73 33.1375 125.306 33.3205 125.248 33.5227C125.426 33.9515 125.579 34.3905 125.706 34.8373C125.86 35.5403 125.185 35.5017 124.743 35.7762C124.776 35.3236 124.82 34.9191 124.829 34.5098C124.829 34.4039 124.709 34.2017 124.665 34.2065C124.107 34.2691 124.381 33.9417 124.43 33.725C124.449 33.6609 124.477 33.5995 124.511 33.542C124.432 33.4785 124.34 33.4333 124.241 33.4096C124.142 33.386 124.04 33.3845 123.94 33.4052C123.841 33.4259 123.747 33.4683 123.666 33.5294C123.585 33.5905 123.519 33.6688 123.471 33.7587L123.332 33.6624L123.534 32.9642C123.105 32.8727 122.98 33.3013 122.715 33.4794C122.643 33.5276 122.605 33.619 122.532 33.6624C122.444 33.6992 122.352 33.7282 122.258 33.7491C122.321 33.855 122.388 33.9609 122.455 34.062C122.523 34.1632 122.624 34.298 122.648 34.3317H123.808L122.759 35.2369L123.486 37.0185L123.144 37.3363L123.702 37.4807C123.476 37.9285 123.25 38.3763 123.019 38.8193C122.876 39.1724 122.692 39.507 122.47 39.8161C122.191 40.1435 121.988 40.572 121.435 40.625C121.072 40.6983 120.727 40.8405 120.419 41.0439C120.259 41.1714 120.118 41.3205 120 41.4869L119.937 41.0632C119.686 41.0331 119.434 41.0952 119.225 41.2378C119.017 41.3804 118.868 41.5939 118.806 41.8384C118.661 42.551 119.22 42.9699 119.61 43.3985L120.25 43.2396L120.327 43.3455C120.202 43.5044 120.067 43.6585 119.951 43.827C119.878 43.909 119.831 44.0114 119.817 44.1207C119.86 44.7659 119.903 45.3775 119.123 45.7001C118.907 45.7868 118.806 46.1816 118.55 46.3838V45.9023L117.241 44.3615C117.18 44.4292 117.13 44.5054 117.091 44.5878C117.08 44.7716 117.051 44.9538 117.005 45.1319C116.692 45.7819 117.12 46.3309 117.241 46.9135C117.289 47.1542 117.669 47.3083 117.814 47.5491C117.947 47.8134 118.041 48.0956 118.093 48.3869C118.191 48.7394 118.238 49.1043 118.233 49.4703C117.95 49.2724 117.699 49.0339 117.486 48.7625C117.352 48.4367 117.26 48.0953 117.212 47.7465C117.182 47.5331 117.104 47.3291 116.985 47.1494C116.804 46.9244 116.68 46.6586 116.625 46.375C116.57 46.0914 116.584 45.7986 116.668 45.5219C116.822 44.6022 116.393 43.7885 116.268 42.8688C115.96 43.1288 115.873 43.5911 115.363 43.3166C115.685 42.5895 115.271 42.0406 114.881 41.4676C114.761 41.2346 114.676 40.9845 114.631 40.7261C114.279 40.8031 113.933 40.8609 113.596 40.9476C113.475 40.9813 113.287 41.0632 113.273 41.1498C113.148 41.8239 112.493 42.1128 112.166 42.5944C111.949 42.9266 111.588 43.1625 111.361 43.49C111.27 43.7004 111.241 43.9329 111.28 44.1593C111.343 45.085 111.042 45.9989 110.442 46.7064C110.023 45.7689 109.7 44.7913 109.479 43.7885C109.228 42.8255 109.089 41.7902 108.93 40.8994L108.573 41.3376L107.875 40.7357L108.179 40.6105L107.124 39.4068C106.546 39.4068 105.901 39.4405 105.261 39.4068C104.62 39.3731 104.587 39.296 104.365 38.7471C104.214 38.8255 104.049 38.8703 103.879 38.8784C103.709 38.8865 103.54 38.8578 103.383 38.7942C103.225 38.7306 103.083 38.6336 102.967 38.5099C102.851 38.3862 102.763 38.2388 102.709 38.0778C102.677 37.9907 102.64 37.9055 102.598 37.8226C102.299 37.2448 102.208 37.2352 101.784 37.7119L102.584 39.4116L102.762 38.983C102.815 39.219 102.844 39.3249 102.863 39.4308C102.882 39.5368 102.921 39.7583 102.945 39.9124C103.209 39.8642 103.532 40.105 103.73 39.7101C103.881 39.4669 104.057 39.2394 104.254 39.0312C104.253 39.237 104.275 39.4422 104.322 39.6427C104.371 39.7993 104.475 39.9327 104.615 40.0183C105.309 40.3602 105.415 40.8657 104.895 41.4387C104.812 41.5477 104.74 41.6637 104.678 41.7854C104.606 41.901 104.548 42.0262 104.471 42.1321C104.175 42.4994 103.804 42.7997 103.383 43.0133C102.935 43.2781 102.559 43.6729 102.121 43.9763C101.703 44.2304 101.271 44.4603 100.826 44.6648C100.58 44.79 100.465 44.6889 100.417 44.4241C100.287 43.6681 100.296 42.8736 99.8341 42.2043C99.6714 41.9805 99.5219 41.7473 99.3863 41.5061C99.301 41.2837 99.227 41.0571 99.1648 40.8272C99.0492 40.5191 98.9241 40.2157 98.794 39.9124C98.664 39.609 98.457 39.1708 98.274 38.8001C98.1681 38.5882 98.0381 38.3812 97.9466 38.2174L97.2725 38.4197L97.2243 38.2849L97.571 38.02L96.868 37.2785C96.9547 37.2304 97.1232 37.0378 97.2966 37.0378C97.7492 37.0378 97.884 36.7537 97.9659 36.3973C98.0959 35.8388 98.221 35.2851 98.3751 34.5821L97.6095 34.9336C97.6095 34.9336 97.5806 34.9336 97.5662 34.9336C97.2628 34.8613 96.8199 34.6254 96.6899 34.741C96.2661 35.1165 96.0591 34.688 95.8183 34.5772C95.5776 34.4665 95.515 34.1728 95.3753 33.9705L95.4427 33.1086C95.1346 32.9305 95.149 32.9401 94.7927 33.2579C94.7205 33.3205 94.5327 33.2579 94.3112 33.2579C94.4458 33.4472 94.5681 33.6451 94.6772 33.8502C94.741 33.9836 94.7564 34.1352 94.7205 34.2787C94.6166 34.5036 94.4942 34.7194 94.3545 34.9239C94.0367 34.2017 93.3915 33.6479 93.3915 32.7331C93.3915 32.5357 93.1074 32.2805 92.91 32.1504C92.5633 31.9434 92.1781 31.8086 92.0626 31.356C92.0626 31.3078 91.894 31.3126 91.8411 31.2597C91.7789 31.1695 91.7272 31.0726 91.687 30.9708C91.2392 31.0911 91.1766 31.303 91.504 31.7026C91.6388 31.8664 91.7207 32.0686 91.8507 32.2371C91.9807 32.4056 92.0385 32.4779 92.154 32.5068C92.5874 32.6031 92.7848 32.9883 93.1171 33.2098C93.1411 33.2098 93.1171 33.2916 93.1508 33.3831L92.5922 33.1424L92.7511 33.7105L92.4092 34.192C92.6211 33.3976 92.0385 33.1375 91.5474 32.7812C91.2707 32.5404 91.0205 32.2709 90.801 31.9771C90.6614 31.8134 90.5362 31.64 90.4062 31.4956C90.2204 31.6019 90.0433 31.7227 89.8765 31.8567C89.7911 31.953 89.6758 32.0176 89.5491 32.0403C89.4225 32.0631 89.2919 32.0425 89.1783 31.9819C88.9135 31.8712 88.6198 31.8471 88.6487 32.3334C88.6487 32.4875 88.4368 32.6608 88.3068 32.8149C88.1094 33.0412 87.8783 33.2338 87.7049 33.4746C87.6375 33.5709 87.7049 33.7539 87.7049 34.0091C87.4786 34.6591 86.7419 34.765 85.9956 34.9432L85.7018 34.5532L85.2203 34.611C84.7388 33.7876 85.4178 32.916 85.0037 32.0734C85.7307 31.6352 86.4819 31.9819 87.2379 31.9241C87.2908 31.5052 87.5845 31.0671 87.2379 30.6578C86.9372 30.3714 86.6572 30.0641 86.4 29.7381L87.2956 29.7766L87.2427 29.3529C87.3338 29.3972 87.433 29.4221 87.5342 29.4263C87.6354 29.4305 87.7364 29.4138 87.8308 29.3772C87.9253 29.3406 88.0112 29.2849 88.0831 29.2136C88.1551 29.1423 88.2115 29.057 88.249 28.9629C88.302 28.8666 88.4224 28.8184 88.509 28.7366L89.2939 27.9565L90.3051 27.552C90.3094 27.407 90.2998 27.2619 90.2762 27.1187C90.0788 26.435 90.0739 26.4349 90.7577 26.0594Z" fill="#D1D3D4"/>
<path id="Vector_5" d="M51.3848 31.7892H51.9096C51.8203 31.5937 51.6924 31.4182 51.5335 31.2734C51.3746 31.1286 51.1881 31.0174 50.9851 30.9466C50.3762 30.6347 49.9132 30.0974 49.6947 29.4491C49.6273 29.2902 49.3769 29.2035 49.2132 29.0976L49.0976 29.425C48.9146 29.0109 48.3898 28.8376 48.7894 28.332C48.7894 28.3031 48.5294 27.9131 48.4331 27.9323C48.035 27.9603 47.641 27.8364 47.3305 27.5857C47.1179 27.4844 46.8928 27.4115 46.6612 27.369C46.1026 27.2534 45.5393 27.1619 44.947 27.056L45 27.316L43.8058 27.6242L43.8925 26.9934L43.1943 27.5857C43.334 27.8553 42.1976 28.8183 41.4802 29.0302L41.7257 29.2565V29.4009C41.1768 28.9194 40.7242 29.4009 40.1897 29.4009L40.9457 28.9917C41.229 28.873 41.5013 28.7296 41.7594 28.5631C41.9886 28.3444 42.1981 28.106 42.3854 27.8505H41.0083L40.9072 27.2919C40.1608 27.8264 40.209 26.9356 39.8286 26.8104C40.026 26.0545 40.7194 26.1652 41.2731 25.9822L41.1864 25.573C40.3823 25.6452 40.1945 25.8956 39.323 25.2215C39.5108 25.1589 39.6841 25.1155 39.8478 25.0433C40.0126 24.9718 40.1733 24.8914 40.3293 24.8025C40.6231 25.1685 40.859 25.1781 41.2924 24.8892L39.5493 24.1959C39.8093 24.0947 39.9682 24.0418 40.1223 23.9695C40.2764 23.8973 40.5075 23.7529 40.7146 23.671C41.1046 23.5121 41.5042 23.358 41.9039 23.228C42.5554 23.0775 43.2354 23.1041 43.8732 23.3051C44.3971 23.399 44.9261 23.4617 45.4574 23.4928C46.2767 23.5376 47.0863 23.6914 47.8649 23.9503C48.043 23.9954 48.2254 24.0213 48.409 24.0273C48.409 23.4014 48.8906 23.9021 49.1024 23.7288C49.3779 23.5748 49.6934 23.5076 50.0077 23.5362L49.0446 23.931L49.1072 24.0658L50.5132 23.334L50.9947 23.7818L51.3462 23.4977L51.534 23.8106C51.7603 23.4254 52.0781 23.5554 52.4104 23.6373C52.863 23.748 53.3301 23.8058 53.7875 23.8925C53.9319 23.9214 54.0716 23.9695 54.269 24.0273L53.9753 24.2536L53.9994 24.3692C54.3597 24.318 54.7236 24.2954 55.0876 24.3018C55.4153 24.3543 55.7377 24.4365 56.0506 24.5473L55.9976 24.1959C56.3491 24.1959 56.6669 24.1959 56.9606 24.1959C57.5481 24.2344 58.1307 24.4896 58.7229 24.1188C58.8385 24.0466 59.1515 24.2825 59.4211 24.3981L59.9556 23.9744L59.1804 23.3773C59.113 23.0643 59.2671 22.8091 59.6619 22.7706C59.9941 22.7417 60.413 23.2521 60.3697 23.5891L60.8753 23.6806L60.8175 24.1959L61.2557 23.6806L61.7372 24.6774L62.5028 23.5891L63.3117 23.7384V24.5233L63.4177 24.6436L62.6472 24.8122L62.9024 25.2118L62.0213 24.7303C62.1176 25.154 61.9105 25.2455 61.6409 25.2118C61.3874 25.147 61.1273 25.1114 60.8657 25.1059L61.9057 25.4141C61.5879 25.5633 61.3616 25.6644 61.1353 25.78C61.0227 25.824 60.9196 25.8894 60.8319 25.9726C60.4419 26.4541 59.6378 26.6515 59.6811 27.4701C59.6811 27.5905 59.7871 27.7831 59.8786 27.8072C60.2638 27.8938 60.2975 28.1587 60.2734 28.5053C60.779 28.2261 61.1497 28.5053 61.5735 28.7413C62.0754 28.9704 62.5917 29.1666 63.1191 29.3287C63.1576 29.6513 63.095 30.1617 63.5717 30.4603C63.668 30.518 63.8318 30.6336 63.8558 30.6095C63.9762 30.494 64.1544 30.3351 64.1495 30.1954C64.1124 29.9207 64.0446 29.651 63.9473 29.3913C64.217 29.1554 64.6503 28.9628 64.7129 28.6787C64.7755 28.3946 64.4577 28.0527 64.2844 27.6868C64.7225 27.3738 64.2844 26.8971 64.3373 26.4156C65.1944 26.1797 65.9311 26.613 66.6871 27.0079C66.6461 27.0958 66.6265 27.1922 66.6299 27.2892C66.6333 27.3862 66.6595 27.481 66.7064 27.566C66.7533 27.6509 66.8196 27.7236 66.9 27.778C66.9803 27.8325 67.0723 27.8672 67.1686 27.8794C67.7368 28.0238 67.7994 27.4364 68.0353 27.1042C68.2761 27.446 68.5168 27.7494 68.7287 28.0672C68.8442 28.2694 68.7961 28.6016 68.9454 28.7413C69.2574 28.9816 69.5929 29.1897 69.9469 29.3624L69.6773 29.5358C69.8856 29.5564 70.0899 29.6066 70.284 29.685C70.3515 29.7353 70.408 29.7988 70.4503 29.8717C70.4925 29.9445 70.5194 30.0252 70.5295 30.1088C70.5209 30.1794 70.4948 30.2467 70.4536 30.3047C70.4124 30.3627 70.3574 30.4096 70.2936 30.441C69.6002 30.7781 68.955 31.2162 68.0883 31.0188C67.5297 30.8888 67.159 31.3944 66.7738 31.7603C66.9997 31.6521 67.2312 31.5557 67.4671 31.4714C67.6445 31.4249 67.829 31.4119 68.0112 31.4329C68.0546 31.4329 68.1364 31.6737 68.1075 31.7026C67.7608 32.0348 67.8764 32.2996 68.2038 32.5356C68.642 32.8485 68.7961 32.8148 69.0898 32.3767C69.109 32.3476 69.1346 32.3234 69.1647 32.3058C69.1947 32.2883 69.2284 32.2779 69.2632 32.2756L69.1524 32.6559L69.3546 32.5404L69.4269 32.6656L67.8042 33.5323L67.6886 33.5034L68.0209 32.7859C67.4943 33.0183 66.9829 33.2837 66.4897 33.5804C66.3693 33.6623 66.4271 34.0186 66.403 34.2449L66.533 34.3075C66.3762 34.3569 66.2149 34.3908 66.0515 34.4086C65.6615 34.4086 65.4304 34.5194 65.387 34.9816C65.387 35.2465 65.1222 35.4872 64.9537 35.7809L64.7755 35.102C64.7484 35.3677 64.7484 35.6356 64.7755 35.9013C64.9537 36.7199 64.9151 36.8402 64.2073 37.2495C63.7836 37.4903 63.2973 38.2125 63.3695 38.54C63.4802 38.9781 63.6295 39.4067 63.7114 39.8497C63.7295 40.0863 63.7166 40.3242 63.6729 40.5575L63.4417 40.5864L62.7146 38.7181L62.3198 38.8915C61.9779 38.2944 61.4627 38.67 61.0101 38.6507L61.2075 39.0841C60.7934 39.0022 60.4708 38.9492 60.153 38.8626C59.9075 38.8 59.7197 38.7952 59.5704 39.0504C59.4982 39.1756 59.3297 39.243 59.2141 39.3489C59.0985 39.4548 58.9444 39.5511 58.9444 39.6571C58.9204 40.4419 58.9059 41.2268 58.9444 42.0116C58.9633 42.2772 59.0624 42.5307 59.2285 42.7387C59.3826 42.9313 59.6715 43.1817 59.8593 43.1528C60.2108 43.0902 60.7068 43.1865 60.8223 42.5943C60.9379 42.002 61.1401 41.8913 61.8431 41.9876L61.3616 44.1158C61.5927 44.1158 61.8431 44.1158 62.0502 44.0821C62.6424 44.0051 62.888 44.2795 62.8061 44.8622C62.7002 45.5892 62.5846 46.3404 63.4177 46.7882C64.0966 46.456 64.0918 46.4608 64.6407 47.0289C64.789 47.1496 64.9505 47.253 65.1222 47.3371C65.2859 46.3982 66.0852 46.1574 66.7641 45.7337C66.7064 46.1189 66.4704 46.48 66.7064 46.8508L67.053 45.8878C67.4238 46.0611 67.732 46.2152 68.0498 46.3693C68.3852 46.4849 68.7496 46.4849 69.085 46.3693C69.4124 46.3019 69.5906 46.663 69.8362 46.8508C69.9201 46.9244 69.9959 47.0067 70.0625 47.0964C70.2069 47.2722 70.3682 47.4334 70.544 47.5779C70.7524 47.7513 71.0005 47.8704 71.2662 47.9246C72.1522 47.9727 72.5711 48.2135 72.7878 49.0609C72.8748 49.402 73.063 49.7088 73.3278 49.9409C73.5925 50.1729 73.9213 50.3194 74.2708 50.361C74.579 50.4284 74.7283 50.5247 74.6657 50.8184C75.3735 50.8184 76.1102 50.6788 76.5917 51.3577C76.6331 51.4255 76.6984 51.4753 76.7747 51.4973C76.8839 51.5025 76.991 51.5301 77.0891 51.5786C77.1871 51.627 77.2742 51.6952 77.3447 51.7788C77.4152 51.8624 77.4677 51.9597 77.4989 52.0646C77.53 52.1694 77.5392 52.2796 77.5258 52.3881C77.432 52.7889 77.242 53.1608 76.9721 53.4715C76.7747 53.7797 76.5147 54.0445 76.2932 54.3382C76.2674 54.3941 76.2543 54.4549 76.2547 54.5164C76.2249 55.0848 76.1605 55.6508 76.062 56.2113C75.9333 56.6121 75.7554 56.9954 75.5324 57.3525C75.4647 57.4349 75.3715 57.4925 75.2676 57.5162C74.8294 57.6847 74.3768 57.8147 73.953 57.9977C73.7857 58.0795 73.6457 58.2082 73.55 58.368C73.4542 58.5278 73.4069 58.7119 73.4138 58.8981C73.3166 59.3083 73.154 59.7001 72.9322 60.0586C72.8696 60.1982 72.7926 60.333 72.6963 60.5401L72.6144 60.0923C72.1329 61.0023 71.7863 62.0183 70.5006 61.1468C70.6643 61.4405 70.7895 61.6283 70.8858 61.8305C70.9326 61.9087 70.9595 61.9972 70.9642 62.0883C70.9689 62.1793 70.9512 62.2701 70.9127 62.3527C70.8743 62.4353 70.8162 62.5073 70.7435 62.5623C70.6708 62.6173 70.5858 62.6537 70.4958 62.6683C70.1539 62.7598 69.7976 62.8031 69.4413 62.8706C69.4846 63.5206 69.3354 63.641 68.5746 63.4147C68.9213 64.2573 68.4735 64.7581 67.7897 65.1433C67.8843 65.2421 67.9874 65.3324 68.0979 65.4129C68.4735 65.6103 68.4687 65.6681 68.1364 65.957C67.9005 66.1593 67.5731 66.3759 67.5201 66.6311C67.487 66.9703 67.572 67.3105 67.7609 67.5941C67.9005 67.8156 68.2424 67.9119 68.5409 68.0757C68.0684 68.1897 67.5807 68.2271 67.0964 68.1864C66.6114 68.0557 66.1716 67.7942 65.8252 67.4304C65.6302 67.1142 65.5223 66.7521 65.5122 66.3807C65.4544 66.0293 65.3966 65.644 65.8589 65.4177L65.517 65.3744L65.9215 64.3584H66.013L66.09 64.7773H66.1478L66.3308 63.718C65.8926 63.6699 65.8926 63.4147 66.0467 63.0969C66.0756 63.0439 66.1574 62.9765 66.143 62.9428C65.8348 62.2735 66.4367 61.8161 66.5282 61.2431C66.6197 60.6701 66.6438 60.1308 66.716 59.5722C66.8123 58.8548 66.9423 58.1277 67.029 57.4151C67.1129 57.0044 67.1227 56.5821 67.0578 56.168C67.0073 56.0083 66.9237 55.8611 66.8126 55.7358C66.7014 55.6105 66.5652 55.5101 66.4126 55.4409C65.4833 55.1183 65.2378 54.2853 64.8766 53.5486C64.5925 52.9708 64.4529 52.3304 63.9136 51.8585C63.8628 51.8079 63.8232 51.7473 63.7971 51.6805C63.7711 51.6137 63.7593 51.5422 63.7625 51.4706C63.7657 51.399 63.7837 51.3289 63.8156 51.2647C63.8474 51.2005 63.8923 51.1436 63.9473 51.0977C64.0475 50.9947 64.1348 50.8799 64.2073 50.7558C63.8751 50.6451 63.7836 50.4139 63.9425 50.1347C64.1494 49.7482 64.3877 49.3794 64.6551 49.032C65.074 48.5264 65.05 48.122 64.5781 47.7223C64.4112 47.5256 64.2778 47.3027 64.1832 47.0627C64.1207 46.9519 64.0677 46.8412 64.0099 46.7256H63.8703L63.6006 47.3804C63.5621 47.3516 63.4562 47.2697 63.3454 47.1975C63.263 47.1241 63.1685 47.0655 63.0662 47.0241C62.8639 46.9808 62.6569 46.976 62.6713 46.6919C62.6703 46.6835 62.6671 46.6755 62.662 46.6688C62.657 46.662 62.6502 46.6567 62.6424 46.6534C62.1609 46.5282 62.132 46.1093 61.9779 45.7481C61.8949 45.5493 61.7631 45.3745 61.5948 45.2399C61.4266 45.1053 61.2271 45.0151 61.0149 44.9777C60.619 44.8686 60.2765 44.6186 60.0519 44.2747C59.8545 44.0388 59.6619 43.8847 59.3345 44.111C59.2581 44.1458 59.1746 44.1617 59.0908 44.1575C59.007 44.1533 58.9255 44.1291 58.853 44.0869C58.1644 43.6969 57.4903 43.2876 56.8306 42.8495C56.7553 42.7942 56.6945 42.7216 56.6534 42.6377C56.6123 42.5539 56.5922 42.4613 56.5947 42.368C56.6296 42.1456 56.6145 41.9182 56.5503 41.7025C56.4862 41.4867 56.3747 41.288 56.2239 41.1208C55.8869 40.6393 55.5306 40.1578 55.2176 39.6763C54.9046 39.1948 54.7361 38.7807 54.4953 38.3522C54.4038 38.2029 54.1968 38.1259 54.0427 38.0151L53.9031 38.1114C54.0523 38.4148 54.1968 38.7229 54.3509 39.0215L55.1598 40.6008C55.2176 40.7116 55.2946 40.8175 55.3476 40.9331C55.4005 41.0486 55.4583 41.2268 55.5113 41.376L55.3187 41.4579C55.1364 41.0364 54.9257 40.6278 54.6879 40.2349C54.5111 40.032 54.305 39.8568 54.0764 39.7148C54.0764 39.4356 54.1679 39.2333 54.1005 39.1563C53.619 38.7229 53.5419 38.0922 53.2771 37.5577C53.2097 37.4277 53.1038 37.2495 52.9834 37.2206C52.2707 37.0425 52.1696 36.378 51.8663 35.8724C51.7218 35.6596 51.6038 35.43 51.5148 35.1887C51.336 34.578 51.2884 33.9364 51.3751 33.306C51.4179 32.8014 51.4211 32.2943 51.3848 31.7892Z" fill="#D1D3D4"/>
<path id="Vector_6" d="M93.4973 61.4162C93.3408 61.3433 93.2129 61.2206 93.1336 61.0672C93.0543 60.9139 93.0281 60.7385 93.0591 60.5687C93.0374 60.1733 92.8651 59.8011 92.5776 59.5287C92.1829 59.0759 91.9717 58.492 91.9854 57.8915C91.9235 57.3229 91.7144 56.7801 91.3787 56.317C90.8972 55.5081 91.2246 54.8051 91.5617 54.1213C91.7109 53.8083 91.8506 53.5869 91.6243 53.2787C91.5715 53.2009 91.546 53.1077 91.552 53.0139C91.5795 52.6699 91.535 52.324 91.4214 51.9982C91.3079 51.6724 91.1277 51.3739 90.8924 51.1215C90.6539 50.8869 90.4925 50.5853 90.4297 50.2567C90.3669 49.9281 90.4057 49.5882 90.5409 49.2822C90.582 49.0513 90.5375 48.8133 90.4157 48.6129C90.3531 48.5504 90.2775 48.5024 90.1943 48.4725C90.111 48.4425 90.0222 48.4313 89.9342 48.4395C89.5971 48.4684 89.3563 48.4877 89.2263 48.064C89.0963 47.6402 88.6534 47.7895 88.3452 47.8569C88.0348 47.9503 87.7294 48.0596 87.4303 48.1843C87.2841 48.2236 87.1338 48.2462 86.9825 48.2517C86.5881 48.2532 86.1947 48.2919 85.8076 48.3673C85.69 48.4221 85.559 48.4412 85.4307 48.4224C85.3023 48.4036 85.1823 48.3476 85.0854 48.2614C84.7078 47.9835 84.3476 47.6828 84.0068 47.361C83.7137 46.986 83.4436 46.5937 83.1979 46.1861C83.1401 46.0994 83.0341 46.0513 82.9667 45.9694C82.8993 45.8875 82.7934 45.7768 82.7838 45.6757C82.7263 45.191 82.7672 44.6997 82.9041 44.2312C83.034 43.8793 83.0219 43.4908 82.8704 43.1478C82.5767 42.6663 82.8704 42.4062 83.0293 42.0884C83.2556 41.6358 83.5108 41.1977 83.7901 40.7643C83.86 40.6686 83.9601 40.599 84.0742 40.5669C84.5268 40.4272 84.835 40.2298 84.8302 39.6568C84.8298 39.4782 84.8792 39.3029 84.9727 39.1507C85.0663 38.9985 85.2003 38.8753 85.3598 38.7949C85.6373 38.5829 85.8822 38.3315 86.0869 38.0486C86.5973 38.4531 87.1414 38.246 87.7048 38.0149C88.0611 37.8739 88.4328 37.7753 88.8122 37.7212C89.3419 37.6538 89.8812 37.6345 90.4157 37.6152C90.6235 37.6231 90.83 37.6521 91.032 37.7019L90.7046 38.6649C90.9501 39.1464 91.552 38.8912 91.995 39.0838C92.0432 39.0838 92.1539 39.0838 92.1587 39.0838C92.2598 39.6328 92.8184 39.4979 93.1217 39.7339C93.4251 39.9698 93.5455 39.782 93.5695 39.4787C93.5714 39.3866 93.5973 39.2967 93.6445 39.2176C93.6918 39.1386 93.7588 39.0733 93.839 39.0281C93.9192 38.9829 94.0098 38.9594 94.1019 38.9599C94.194 38.9603 94.2843 38.9848 94.364 39.0309C94.8353 39.2207 95.3177 39.3815 95.8086 39.5124C96.0547 39.5569 96.308 39.5387 96.5453 39.4594C96.8679 39.3727 97.099 39.3342 97.2338 39.7435C97.4208 40.2965 97.6395 40.8383 97.8887 41.3662C98.0813 41.7947 98.4809 42.1799 98.5243 42.6085C98.5965 43.3067 99.0587 43.7978 99.2561 44.4141C99.3307 44.5956 99.4422 44.7596 99.5836 44.8956C99.834 45.1508 100.128 45.3771 100.349 45.6323C100.47 45.7816 100.455 46.032 100.556 46.2005C100.596 46.2531 100.648 46.2953 100.707 46.3238C100.767 46.3523 100.832 46.3661 100.898 46.3642C101.505 46.2294 102.107 46.0657 102.786 45.8827C102.77 46.1883 102.71 46.4899 102.607 46.7783C102.126 47.7413 101.678 48.6755 100.787 49.3977C100.113 49.9418 99.6895 50.7941 99.1647 51.5212C99.1165 51.5838 99.0972 51.7523 99.1647 51.786C99.4873 52.0508 99.2802 52.4023 99.338 52.7057C99.3958 53.009 99.5739 53.2354 99.6173 53.5146C99.7119 53.9184 99.7331 54.336 99.6799 54.7473C99.6221 55.0169 99.3284 55.2529 99.1021 55.4647C98.7554 55.7922 98.375 56.0762 98.0235 56.3989C97.9705 56.447 97.985 56.5963 98.0235 56.6878C98.062 56.8515 98.139 57.0104 98.1872 57.1693C98.2254 57.258 98.2447 57.3536 98.2437 57.4502C98.2428 57.5468 98.2217 57.6421 98.1818 57.73C98.142 57.8179 98.0841 57.8966 98.0121 57.9609C97.94 58.0252 97.8554 58.0737 97.7635 58.1034C97.6094 58.1756 97.4698 58.2671 97.4072 58.3008C97.4072 58.5993 97.4505 58.8594 97.3542 59.0183C96.8197 59.8657 96.2997 60.7709 95.25 61.0743C94.8303 61.1511 94.4053 61.1962 93.9788 61.2091C93.8107 61.2589 93.6491 61.3284 93.4973 61.4162Z" fill="#D1D3D4"/>
<path id="Vector_7" d="M71.218 23.9364L70.7076 23.5175L71.8199 22.9541V22.4726L70.8906 22.126L70.9147 21.9815L71.8777 22.1211L71.1217 21.5915C70.6691 21.8563 70.5295 21.7552 70.515 21.0763H70.828C70.6258 20.7825 70.4524 20.5033 70.2502 20.2481C70.0026 19.8839 69.6462 19.6073 69.232 19.4577C68.8178 19.3081 68.3669 19.2932 67.9438 19.4151C67.7712 19.4776 67.5876 19.5038 67.4045 19.4921C67.2119 19.4584 66.8652 19.6703 66.8459 19.208C66.8459 19.155 66.4704 19.1117 66.2729 19.0636V18.9047L67.2359 18.8517L65.647 18.4039C65.7556 18.3252 65.8737 18.2604 65.9985 18.2113C66.48 18.1343 66.9278 18.0909 67.3852 17.9994C67.6597 17.9465 68.0112 17.9416 68.0064 17.489H67.3371L67.3082 17.3253L68.849 16.9305L68.8731 16.6464C68.9116 16.6464 68.9453 16.6127 68.9694 16.6175C69.4124 16.7812 69.7783 16.4393 70.1972 16.4345C70.32 16.4305 70.4422 16.4524 70.5559 16.4988C70.6696 16.5453 70.7721 16.6153 70.8569 16.7042C70.9773 16.8101 71.2276 16.3238 71.531 16.5982C71.5888 16.6512 71.7429 16.5982 71.8873 16.5982L71.7043 16.2949L73.3174 16.6994L73.3559 16.5597C73.2212 16.5446 73.0887 16.5139 72.9611 16.4682C72.9165 16.4465 72.8771 16.4155 72.8456 16.3773C72.814 16.3391 72.791 16.2946 72.7781 16.2467C72.7781 16.189 72.8985 16.0734 72.9755 16.0638C73.38 16.0252 73.7893 16.0156 74.1937 15.9819C74.4826 15.9819 74.7667 15.876 75.0556 15.876C76.1824 15.876 77.3139 15.876 78.4262 15.9675C78.9392 16.0522 79.4436 16.1827 79.9333 16.3575L78.7151 16.5645V16.7571C78.8258 16.7571 78.9366 16.7571 79.0473 16.7571C79.2448 16.7571 79.447 16.7186 79.6444 16.6945L79.4085 17.0749C79.927 17.0125 80.4403 16.9127 80.9445 16.7764C81.2209 16.6694 81.5173 16.6235 81.8132 16.6418C82.109 16.6601 82.3974 16.7421 82.6586 16.8823C81.6956 17.3638 80.6267 17.6479 80.0007 18.5821C80.2249 18.5601 80.4513 18.5764 80.67 18.6302C80.8097 18.6928 80.8771 18.9143 81.0023 19.1117L80.3281 19.155C80.2848 19.4343 80.9974 19.6366 80.4533 19.9832L80.7615 20.3059L80.0681 20.4022L80.3811 20.7537H79.2977C79.0907 21.0377 79.1292 21.2352 79.5337 21.4085C79.6227 21.4312 79.7063 21.4717 79.7792 21.5277C79.8522 21.5836 79.913 21.6538 79.958 21.7339C80.003 21.814 80.0313 21.9025 80.0412 21.9939C80.051 22.0853 80.0421 22.1777 80.0152 22.2656L79.081 21.8708L78.7632 22.256L79.9429 22.3811C79.1345 22.9215 78.2113 23.266 77.2465 23.3875C77.0828 23.3875 76.895 23.5897 76.765 23.7438C76.605 24.0305 76.3663 24.2654 76.077 24.4207C75.7877 24.576 75.46 24.6452 75.1327 24.6202C75.0268 24.6202 74.8053 24.8609 74.8053 24.9909C74.8344 25.1722 74.8065 25.3581 74.7254 25.5229C74.6444 25.6876 74.5141 25.8231 74.3526 25.9106C74.3093 25.9347 74.2852 26.0213 74.2708 26.0839C74.1889 26.4258 74.0926 26.7629 74.0348 27.1096C73.9771 27.4562 73.7748 27.3696 73.5533 27.2781C73.2769 27.1718 73.0068 27.0496 72.7444 26.9121C72.5622 26.8078 72.4098 26.6586 72.3014 26.4788C71.921 25.7758 71.5599 25.0343 71.2132 24.3361C71.1747 24.2398 71.218 24.0953 71.218 23.9364Z" fill="#D1D3D4"/>
<path id="Vector_8" d="M129.962 54.5063C130.145 54.6845 130.304 54.776 130.381 54.9156C130.512 55.1054 130.592 55.3261 130.612 55.556C130.583 56.076 130.978 56.2638 131.276 56.519C131.336 56.5582 131.388 56.607 131.431 56.6635C131.546 56.9232 131.725 57.1499 131.951 57.3231C132.313 57.6513 132.58 58.0702 132.726 58.5365C132.844 58.858 132.887 59.2023 132.851 59.5429C132.815 59.8836 132.702 60.2114 132.519 60.5011C132.178 61.0256 131.928 61.6034 131.777 62.2104C131.39 62.4679 130.937 62.6099 130.472 62.6197C130.39 62.5812 130.313 62.533 130.232 62.4849C130.103 62.5646 129.958 62.6142 129.808 62.63C129.657 62.6457 129.505 62.6272 129.363 62.5757C129.221 62.5243 129.092 62.4413 128.986 62.333C128.881 62.2247 128.801 62.0939 128.753 61.9504C128.617 61.7157 128.455 61.4961 128.272 61.2956L128.099 61.416L128.229 60.7274L127.603 61.4304C127.405 61.1078 127.29 60.713 127.03 60.5492C126.698 60.3598 126.316 60.279 125.937 60.3181C125.417 60.3677 124.91 60.5079 124.439 60.7322C124.118 60.9681 123.73 61.0947 123.332 61.0933C123.04 61.1055 122.759 61.2026 122.523 61.3726C122.395 61.4642 122.239 61.505 122.083 61.4872C121.927 61.4694 121.783 61.3942 121.68 61.2763C121.614 61.1754 121.588 61.0534 121.608 60.9344C121.608 60.7226 121.728 60.5059 121.685 60.3181C121.584 59.9136 121.415 59.5333 121.276 59.1432C121.199 58.9362 121.054 58.7436 121.276 58.5221C121.309 58.4884 121.208 58.3391 121.199 58.238C121.165 57.9154 121.006 57.4917 121.155 57.275C121.304 57.0583 121.781 56.8946 122.118 56.7068C122.6 56.4323 123.332 56.6394 123.563 55.9219C123.596 55.8256 123.587 55.7101 123.63 55.6138C123.682 55.5227 123.744 55.4372 123.813 55.3586L123.982 55.4934C124.213 55.1845 124.468 54.8932 124.742 54.6219C125.065 54.3378 125.262 54.5159 125.378 55.0119C125.538 54.7645 125.717 54.5296 125.912 54.3089C126.104 54.1577 126.305 54.0194 126.514 53.8948C126.589 53.8315 126.657 53.7605 126.717 53.6829L127.935 53.9815C127.453 54.6893 127.453 54.6893 128.176 55.2189C128.306 55.3201 128.44 55.4067 128.58 55.4982L129.09 55.8208C129.172 55.3393 129.245 54.9734 129.307 54.593C129.37 54.2126 129.427 53.8178 129.49 53.4277H129.649L129.962 54.5063Z" fill="#D1D3D4"/>
<path id="Vector_9" d="M64.8814 23.0357C64.9296 22.5013 64.3999 22.5205 64.1784 22.2605C64.058 22.5446 63.981 22.8431 63.6343 22.5253C63.5621 22.4628 63.3984 22.5253 63.278 22.4965C62.705 22.429 62.132 22.3713 61.5638 22.2894C61.4531 22.2894 61.3568 22.1642 61.222 22.0824L61.7372 21.9138C61.2557 21.8272 60.8367 21.7935 61.0486 21.2542C61.1251 21.0112 61.2946 20.8084 61.5202 20.6902C61.7458 20.572 62.0091 20.548 62.2524 20.6234C62.1561 20.8401 61.9635 21.0712 61.9779 21.2782C61.9924 21.4853 62.2187 21.6972 62.3776 21.8898C62.2187 20.9267 62.3053 20.7341 63.0083 20.6378C63.3791 20.5849 63.5332 20.7967 63.5717 21.4082C63.8625 21.2378 64.1975 21.1582 64.5339 21.1797C64.8702 21.2011 65.1925 21.3227 65.4592 21.5286C65.6098 21.602 65.7735 21.6446 65.9407 21.6538C65.9841 21.6538 66.0418 21.6538 66.0804 21.6538C66.4023 21.7896 66.7131 21.9506 67.0097 22.1353C67.2271 22.3353 67.4225 22.5581 67.5923 22.7998L67.1782 22.8817L67.1252 22.9924L69.0031 24.0036L68.2809 24.8992L67.3467 24.0854L67.1782 24.538C67.5297 24.8655 68.1894 25.1014 68.0449 25.9296L67.5104 25.8766L67.7416 26.4256C67.0819 26.1511 66.427 26.1318 66.0081 25.5444C65.8907 25.3738 65.7215 25.2456 65.5254 25.1788C65.3294 25.112 65.1171 25.1102 64.9199 25.1736C64.7428 25.1762 64.5666 25.1469 64.3999 25.087C64.4288 24.9425 64.4529 24.7981 64.4866 24.6536C64.5033 24.5628 64.5377 24.4761 64.5877 24.3984C64.6688 24.284 64.774 24.1887 64.8959 24.1191C64.944 24.1191 65.0596 24.2203 65.1462 24.278L64.8333 24.6777L65.5074 24.6055V24.4803L65.2811 24.3984C65.3918 24.0517 66.0611 24.018 65.83 23.4932C65.7466 23.3211 65.6076 23.1823 65.4354 23.0992C65.2632 23.0162 65.0679 22.9938 64.8814 23.0357Z" fill="#D1D3D4"/>
<path id="Vector_10" d="M61.8671 17.1801C61.4386 17.4353 61.0389 17.0019 60.5623 16.6552C61.2236 16.5349 61.8933 16.4657 62.5653 16.4482C63.1735 16.4334 63.7758 16.3262 64.3517 16.1304C64.7967 16.0524 65.2502 16.0345 65.6999 16.0774C66.5233 16.0774 67.3515 16.1352 68.1701 16.193C68.4314 16.2487 68.6863 16.331 68.9309 16.4386C68.7748 16.5318 68.6141 16.617 68.4494 16.6938C67.7271 17.0148 67.0016 17.3197 66.2729 17.6086C66.1177 17.6718 65.9564 17.7186 65.7914 17.7483C65.5973 17.7665 65.4151 17.8503 65.275 17.986C65.135 18.1217 65.0454 18.3011 65.021 18.4946L63.9858 18.9183L64.4336 19.1832C64.0436 19.2313 63.7402 19.5876 63.3839 19.2121C63.3454 19.1735 63.2105 19.2121 63.1191 19.2506C62.4138 19.3865 61.6865 19.3552 60.9956 19.1591L61.7179 18.9472L61.6312 18.7161L62.2764 18.7691L62.3198 18.6583L61.7612 18.3887C62.0886 17.8783 62.5605 18.3116 62.9794 18.2105L61.9731 17.6086L62.0935 17.5027C62.7002 17.7386 63.2491 17.3775 63.8943 17.3727C63.2731 16.9441 62.5894 17.469 61.8671 17.1801Z" fill="#D1D3D4"/>
<path id="Vector_11" d="M53.4022 22.3469L54.6974 22.265V22.1784C54.4278 22.1784 54.1629 22.1254 53.8981 22.111C53.6333 22.0965 53.3685 22.111 53.1036 22.111V21.9569L53.6429 21.7595L52.9207 21.5909C53.1759 20.9987 53.7055 20.9168 54.293 20.835L54.2592 21.1528C54.3315 21.1528 54.3893 21.1528 54.4133 21.1528C54.6589 20.9168 54.8611 21.0035 55.0874 21.1961C55.3137 21.3887 55.4052 20.8398 55.6315 21.1239C55.7622 21.3117 55.9252 21.4747 56.1131 21.6054L55.9397 20.859H56.6283C56.7357 21.24 56.8979 21.6033 57.1098 21.9376C57.3313 22.2024 57.7261 22.318 58.0054 22.5925L57.572 22.631L57.7646 22.9873C57.5142 23.0271 57.2591 23.0271 57.0087 22.9873C56.426 22.7706 55.9301 22.9873 55.3908 23.1558C55.1019 23.2377 54.6685 23.3966 54.4518 22.9199C54.423 22.8573 54.2641 22.8525 54.1678 22.8236L53.3733 22.5539L53.4022 22.3469Z" fill="#D1D3D4"/>
<path id="Vector_12" d="M131.161 52.0164L130.809 52.2716L131.888 53.3694C131.65 53.3648 131.417 53.3028 131.208 53.1888C131 53.0748 130.821 52.9121 130.689 52.7146C130.647 52.6332 130.583 52.5655 130.504 52.5194C130.425 52.4733 130.334 52.4507 130.243 52.4543C130.151 52.4578 130.063 52.4873 129.987 52.5394C129.912 52.5915 129.853 52.6639 129.818 52.7483C129.796 52.8101 129.759 52.8654 129.71 52.9091C129.661 52.9528 129.602 52.9835 129.538 52.9984C129.474 53.0133 129.408 53.0118 129.345 52.9942C129.282 52.9766 129.224 52.9433 129.177 52.8975C128.893 52.5653 128.585 52.5797 128.089 52.7242L128.474 52.1897C128.444 52.0165 128.364 51.8559 128.243 51.7283C128.122 51.6006 127.967 51.5115 127.795 51.4723C127.457 51.3944 127.126 51.2914 126.803 51.1641C126.693 51.1208 126.635 50.9619 126.543 50.8415L126.904 50.6826L126.009 50.2541C126.193 50.164 126.385 50.0899 126.582 50.0326C126.639 50.0137 126.7 50.0075 126.76 50.0145C126.82 50.0216 126.877 50.0416 126.929 50.0733C126.98 50.1049 127.024 50.1474 127.057 50.1977C127.09 50.2481 127.112 50.3051 127.121 50.3648C127.183 50.5805 127.257 50.7927 127.343 51.0004H127.492C127.555 50.8947 127.629 50.7962 127.713 50.7067C127.997 50.4707 128.229 50.2252 128.676 50.5815C129.013 50.8367 129.543 50.8222 129.928 51.0341C130.361 51.3337 130.772 51.6618 131.161 52.0164Z" fill="#D1D3D4"/>
<path id="Vector_13" d="M119.807 49.2242L120.245 49.3735L122.138 47.5919L122.701 48.1553C122.147 48.6753 122.123 49.0364 122.633 49.5661C122.229 49.7298 121.902 50.4473 121.916 51.2129L120.125 50.8662C120.057 50.3606 119.571 49.9032 119.807 49.2242Z" fill="#D1D3D4"/>
<path id="Vector_14" d="M100.715 55.234C101.65 55.2726 101.702 54.4203 102.227 54.0303C102.375 54.1589 102.471 54.337 102.496 54.5311C102.522 54.7253 102.476 54.9222 102.367 55.0848C102.333 55.1377 102.343 55.2244 102.324 55.2966C102.073 56.1874 101.842 57.0879 101.568 57.9786C101.538 58.0596 101.489 58.1322 101.426 58.1901C101.362 58.2479 101.285 58.2893 101.201 58.3107C101.118 58.332 101.03 58.3327 100.946 58.3126C100.863 58.2925 100.785 58.2522 100.72 58.1953C100.584 58.0155 100.497 57.8031 100.468 57.5792C100.439 57.3553 100.47 57.1277 100.556 56.9193C100.655 56.6557 100.707 56.3772 100.711 56.0959C100.735 55.8167 100.715 55.5374 100.715 55.234Z" fill="#D1D3D4"/>
<path id="Vector_15" d="M86.7516 28.617L86.3664 28.5015C86.3664 28.2896 86.3664 28.1163 86.3664 27.9477C86.3664 27.8803 86.4676 27.7648 86.482 27.7744C86.7228 27.8707 86.8576 27.707 86.8142 27.5529C86.7709 27.3988 86.5542 27.3122 86.4098 27.2062C86.3761 27.2062 86.3231 27.2062 86.2412 27.2062L86.299 26.9125C85.8946 26.5321 85.7405 26.2432 85.8464 26.0891C86.0775 25.7617 86.5928 25.5547 86.8094 25.6991C87.1754 25.9399 87.185 26.118 86.9105 26.6043L87.9265 28.0007C87.9265 28.0007 88.1047 28.0007 88.1721 28.1163C88.2395 28.2318 88.1047 28.3281 88.0613 28.4437C88.018 28.5593 87.9891 28.6411 87.9073 28.8722L86.0535 29.166L86.7516 28.617Z" fill="#D1D3D4"/>
<path id="Vector_16" d="M118.791 51.8438L118.266 51.8004C117.862 51.2226 117.409 50.5678 116.952 49.9225C116.494 49.2773 116.075 48.6995 115.594 48.0254C116.557 48.1361 116.923 48.9017 117.52 49.3351C117.921 49.663 118.249 50.0715 118.483 50.534C118.555 50.6544 118.772 50.6881 118.902 50.7555L118.762 51.8582L118.791 51.8438Z" fill="#D1D3D4"/>
<path id="Vector_17" d="M104.659 20.6674C103.888 20.6963 103.253 20.6289 102.762 20.1522C103.159 19.8263 103.532 19.4723 103.879 19.0928C104.278 18.6988 104.796 18.4481 105.352 18.3802C105.906 18.2358 106.493 18.2261 107.062 18.1346C107.322 18.0765 107.579 18.0042 107.832 17.918L107.914 18.0961C107.79 18.1926 107.652 18.269 107.505 18.3224C106.965 18.3884 106.43 18.4946 105.906 18.6402C105.212 18.8788 104.594 19.2976 104.115 19.8536C104.047 19.9403 104.115 20.1907 104.192 20.3351C104.269 20.4796 104.442 20.5181 104.659 20.6674Z" fill="#D1D3D4"/>
<path id="Vector_18" d="M80.0394 25.4431L79.3749 25.2505L79.9719 24.9375H79.3075L79.2449 24.8557L79.8853 24.4801L79.8323 24.326L80.179 24.8075L81.5898 24.4705L81.6283 24.3164C81.8803 24.4977 82.1042 24.7151 82.2928 24.9616C82.4902 25.2987 82.081 25.4431 81.9028 25.5683C81.6615 25.7454 81.3886 25.8745 81.0987 25.9487C80.9169 25.9944 80.7267 25.9944 80.5449 25.9487C80.2657 25.8909 80.0008 25.785 79.7216 25.6983L80.0394 25.4431Z" fill="#D1D3D4"/>
<path id="Vector_19" d="M127.362 35.5545L126.23 35.8386C126.562 35.2801 126.745 35.1934 127.603 35.1934C127.67 35.073 127.752 34.943 127.814 34.8082C127.853 34.7266 127.886 34.643 127.916 34.5578C128.103 34.5578 128.315 34.5578 128.344 34.5193C128.513 34.1726 128.643 33.8066 128.777 33.4455C128.864 33.2192 128.777 32.8677 129.216 32.8821C129.336 33.0598 129.4 33.2695 129.4 33.484C129.4 33.6986 129.336 33.9082 129.216 34.0859C129.078 34.3611 129.027 34.672 129.071 34.9767C129.124 35.4582 128.681 35.4582 128.474 35.5256C128.094 35.6267 127.776 35.7327 127.651 36.1757H127.511L127.362 35.5545Z" fill="#D1D3D4"/>
<path id="Vector_20" d="M51.3221 20.2231C52.1827 20.1966 53.041 20.3271 53.8548 20.6083C53.4022 20.8924 53.0459 21.0898 52.704 21.3306C52.3622 21.5713 52.107 21.7495 51.8662 21.9228L51.0669 21.398C51.1439 21.1091 51.6158 20.7961 51.3221 20.2231Z" fill="#D1D3D4"/>
<path id="Vector_21" d="M59.9458 18.1522L60.1962 17.9403L59.1802 17.7381C59.368 17.2277 59.6039 16.9388 60.0902 17.011C60.2175 17.0452 60.3415 17.0903 60.461 17.1458C60.5959 17.2019 60.739 17.2361 60.8847 17.2469C61.0821 17.4443 61.2458 17.7284 61.5636 17.4684L61.997 17.844C61.5059 18.5374 60.8847 18.6385 59.9458 18.1522Z" fill="#D1D3D4"/>
<path id="Vector_22" d="M90.9599 16.8435L92.4766 16.9735L92.3177 16.6268L94.8601 17.6428V17.8113H93.9548C93.9019 17.6813 93.8826 17.5417 93.8056 17.4887C93.7563 17.4638 93.7019 17.4508 93.6467 17.4508C93.5915 17.4508 93.537 17.4638 93.4878 17.4887C93.2181 17.6717 92.9726 17.8836 92.6692 18.1291L91.9229 17.9413L92.231 17.7824L91.7495 17.7439V17.6621L92.3273 17.455V17.3395C92.0896 17.4162 91.8402 17.4505 91.5906 17.4406C91.35 17.331 91.1289 17.183 90.9358 17.0024L90.9599 16.8435Z" fill="#D1D3D4"/>
<path id="Vector_23" d="M60.2829 19.2885L60.6248 19.1826V19.4378C61.6649 20.1504 62.806 19.4378 63.8894 19.7797C63.8583 19.8736 63.8074 19.9598 63.7402 20.0324C63.673 20.105 63.591 20.1624 63.4998 20.2007C63.4086 20.239 63.3102 20.2574 63.2113 20.2545C63.1124 20.2516 63.0153 20.2277 62.9264 20.1842C62.7792 20.1677 62.6306 20.1677 62.4834 20.1842C61.8527 20.1842 61.2171 20.1842 60.5574 20.1264C60.4563 20.1264 60.3359 19.9097 60.2878 19.7749C60.2665 19.6136 60.2649 19.4503 60.2829 19.2885Z" fill="#D1D3D4"/>
<path id="Vector_24" d="M53.773 19.6935L53.6333 19.7273C53.5916 19.7297 53.5498 19.7297 53.5081 19.7273C53.5081 19.6887 53.5081 19.6502 53.5081 19.6358C53.9607 19.0483 54.4711 19.3998 54.9527 19.5732C55.1645 19.6454 55.3668 19.7273 55.6845 19.8476L55.4101 19.2794L55.7086 19.082C55.7471 19.1157 55.7953 19.135 55.8097 19.1687C55.9109 19.4239 55.9831 19.7032 56.3683 19.4913C56.4213 19.4624 56.6235 19.5732 56.6476 19.6502C56.6716 19.7273 56.5705 19.9295 56.4983 19.9391C55.7953 20.0739 55.0827 20.1847 54.37 20.2906C54.3411 20.2906 54.3026 20.2376 54.2063 20.1558L54.9238 19.9728V19.8669L53.3396 19.9969V19.9247L53.8211 19.7513L53.773 19.6935Z" fill="#D1D3D4"/>
<path id="Vector_25" d="M136.549 65.0806L138.509 63.3809C138.594 63.42 138.675 63.4685 138.749 63.5253C138.812 63.5831 138.889 63.7468 138.865 63.7709C138.653 63.9972 138.639 64.392 138.253 64.4691C138.165 64.4931 138.088 64.5477 138.037 64.6232C137.483 65.408 137.488 65.408 136.549 65.0806Z" fill="#D1D3D4"/>
<path id="Vector_26" d="M123.452 50.5442L123.803 51.3001L123.505 51.5216L123.153 50.7994C123.153 51.5794 123.153 51.6276 122.889 51.8009L122.696 50.9342L122.604 50.9583L123.047 49.4704C123.529 49.3982 124.049 49.9134 124.492 49.2489C124.343 49.7304 124.285 49.7786 123.895 49.7304C123.683 49.6941 123.466 49.6941 123.255 49.7304C122.831 49.8652 123.105 50.0915 123.192 50.2697L123.943 50.0193L123.986 50.1204L123.452 50.5442Z" fill="#D1D3D4"/>
<path id="Vector_27" d="M84.7821 28.3322V27.6003C84.9651 27.4269 85.124 27.3017 85.2636 27.1477C85.5092 26.8684 85.7451 27.061 85.9714 27.1477C86.1977 27.2343 86.1496 27.4366 85.9377 27.5714C85.8992 27.5714 85.8896 27.6677 85.8848 27.7207C85.8848 27.894 85.9329 28.2022 85.8511 28.2022C85.5448 28.3576 85.2217 28.4771 84.888 28.5585C84.8303 28.5585 84.734 28.4381 84.6521 28.3707L84.7821 28.3322Z" fill="#D1D3D4"/>
<path id="Vector_28" d="M59.0456 20.6624L58.7374 20.9176L59.1804 21.1102C59.3152 21.5918 58.8385 21.5918 58.6315 21.7699C58.5978 21.7988 58.3763 21.6255 58.2415 21.5484L57.4614 21.1102L57.5048 20.9706L58.1837 21.0862L57.8226 20.7058C57.9845 20.5478 58.1996 20.4558 58.4257 20.4478C58.6518 20.4398 58.8728 20.5163 59.0456 20.6624Z" fill="#D1D3D4"/>
<path id="Vector_29" d="M130.049 29.531H129.664L129.789 30.6914H129.403C129.654 29.6273 129.066 28.4765 129.673 27.292C129.808 28.0913 129.928 28.8136 130.049 29.531Z" fill="#D1D3D4"/>
<path id="Vector_30" d="M118.777 51.8574C119.043 51.9466 119.315 52.0174 119.59 52.0693C120.033 52.1174 120.481 52.1174 120.929 52.1415C121.039 52.1314 121.149 52.1623 121.237 52.2282L120.972 52.363L121.666 52.6471V52.7482C121.319 52.7482 120.972 52.7482 120.63 52.6808C120.094 52.6039 119.564 52.4929 119.041 52.3486C118.993 52.3348 118.948 52.3109 118.909 52.2783C118.87 52.2458 118.839 52.2054 118.817 52.1599C118.795 52.1144 118.784 52.0647 118.782 52.0142C118.781 51.9637 118.791 51.9136 118.81 51.8671L118.777 51.8574Z" fill="#D1D3D4"/>
<path id="Vector_31" d="M129.143 32.3386L128.931 32.8201C128.744 32.2375 128.83 32.0497 129.225 32.0353L129.36 31.0723C129.702 31.2841 129.803 31.8619 130.323 31.6742L130.415 32.0882L129.659 32.5216L129.143 32.3386Z" fill="#D1D3D4"/>
<path id="Vector_32" d="M128.937 18.9097C128.693 18.9004 128.45 18.8747 128.209 18.8326C128.162 18.8111 128.121 18.7775 128.091 18.7353C128.06 18.6931 128.042 18.6436 128.036 18.5919C128.036 18.4956 128.181 18.4234 128.272 18.3559C128.297 18.3372 128.326 18.3241 128.357 18.3175C128.388 18.3109 128.419 18.3108 128.45 18.3174C128.98 18.5197 129.514 18.3174 130.049 18.3608C130.15 18.3608 130.241 18.4908 130.338 18.5582C130.251 18.64 130.174 18.7797 130.078 18.7941C129.702 18.8519 129.327 18.876 128.937 18.9097Z" fill="#D1D3D4"/>
<path id="Vector_33" d="M140.18 62.3746C140.131 62.4985 140.071 62.6177 140.001 62.7309C139.78 63.0295 139.549 63.3232 139.308 63.6073C139.279 63.6458 139.168 63.6073 139.197 63.5254L138.865 62.8706L139.159 62.0857C139.462 61.9461 139.688 62.8176 140.165 62.2109L140.18 62.3746Z" fill="#D1D3D4"/>
<path id="Vector_34" d="M57.6732 19.5348L57.6395 19.2459L58.1788 19.5348L58.0488 19.2219C58.2597 19.1932 58.4735 19.1932 58.6844 19.2219C58.7662 19.2219 58.8577 19.4626 58.8385 19.5734C58.8192 19.6841 58.7181 19.9923 58.617 20.0115C58.5159 20.0308 58.2607 19.9008 58.0777 19.8478C57.8947 19.7949 57.8273 19.79 57.7021 19.7563C57.5684 19.727 57.4378 19.6851 57.3121 19.6311C57.1917 19.5551 57.0774 19.4698 56.9702 19.376C57.028 19.3134 57.1147 19.1882 57.1339 19.1978C57.2682 19.2755 57.3969 19.3624 57.5191 19.4578C57.55 19.4872 57.5761 19.5213 57.5962 19.5589L57.6732 19.5348Z" fill="#D1D3D4"/>
<path id="Vector_35" d="M62.7627 42.8055C62.8988 42.5583 63.123 42.3714 63.3908 42.2822C63.6585 42.1929 63.95 42.2079 64.2072 42.324C64.7706 42.6033 65.3147 42.9211 65.9358 43.2581L65.0787 43.3544C64.891 43.1329 64.7754 42.9018 64.5972 42.8103C64.2608 42.6267 63.8936 42.506 63.5138 42.454C63.2827 42.4396 63.0323 42.6659 62.7627 42.8055Z" fill="#D1D3D4"/>
<path id="Vector_36" d="M123.048 43.7118C123.683 43.8996 123.789 44.1933 123.529 44.5544C123.269 44.9156 123.375 45.0889 123.823 45.1804C123.957 45.2157 124.089 45.2591 124.218 45.3104L124.064 45.6426C123.77 45.3634 123.283 45.426 123.009 45.0359C122.686 44.5448 123.361 44.2222 123.048 43.7118Z" fill="#D1D3D4"/>
<path id="Vector_37" d="M60.8368 20.5412C60.8233 20.7052 60.7452 20.8572 60.6198 20.9638C60.4943 21.0703 60.3316 21.1226 60.1675 21.1093C60.1049 21.1093 59.9942 21.1093 59.9942 21.1527C59.9364 21.5331 59.6668 21.3934 59.5945 21.2538C59.5223 21.1141 59.4356 20.7241 59.5367 20.6037C59.6379 20.4834 59.9749 20.4304 60.206 20.4208C60.42 20.4386 60.6314 20.4789 60.8368 20.5412Z" fill="#D1D3D4"/>
<path id="Vector_38" d="M124.569 47.6255L124.632 47.9625L124.507 48.0396L124.001 47.3847L123.616 47.4618L123.553 47.3606L124.757 46.6865L124.839 47.6255H124.569Z" fill="#D1D3D4"/>
<path id="Vector_39" d="M116.446 16.5444L114.458 17.0259C114.482 16.8959 114.458 16.7226 114.525 16.6792C114.789 16.4545 115.118 16.3202 115.463 16.296C115.809 16.2717 116.153 16.3588 116.446 16.5444Z" fill="#D1D3D4"/>
<path id="Vector_40" d="M51.8806 19.4051C52.1872 19.2172 52.5094 19.0561 52.8436 18.9235C53.1594 18.8424 53.4816 18.7893 53.8066 18.7646L53.8837 18.9235C53.7324 19.0765 53.5716 19.2196 53.4022 19.3521C53.3733 19.3521 53.2385 19.2317 53.1518 19.1691C52.834 19.564 52.0347 19.6988 51.8806 19.4051Z" fill="#D1D3D4"/>
<path id="Vector_41" d="M65.8396 43.7407L66.5426 43.8081L66.1863 43.394C66.8604 43.2111 67.6067 43.4759 67.5682 43.8755C66.9952 43.8515 66.403 44.1356 65.8396 43.7407Z" fill="#D1D3D4"/>
<path id="Vector_42" d="M63.7835 25.9246C63.5283 25.9246 63.3019 26.0161 63.2153 25.9246C62.9601 25.7079 62.8012 25.8861 62.5749 25.9583C62.3369 25.9925 62.0953 25.9925 61.8574 25.9583C62.3389 25.1927 62.4738 25.1445 63.066 25.4768L63.1912 25.5442L63.7835 25.9246Z" fill="#D1D3D4"/>
<path id="Vector_43" d="M117.106 16.7032L116.981 17.1848C116.018 17.334 115.748 17.3003 115.257 16.8862L117.106 16.7032Z" fill="#D1D3D4"/>
<path id="Vector_44" d="M95.6063 16.9201C95.1426 16.9697 94.6762 16.9906 94.2099 16.9827C93.8641 16.9265 93.5294 16.816 93.218 16.6553H95.6256L95.6063 16.9201Z" fill="#D1D3D4"/>
<path id="Vector_45" d="M58.4291 18.6446L56.8642 18.3317L57.2061 18.1776L56.686 18.0379V17.8887C56.8979 17.8887 57.1098 17.9224 57.3168 17.9657C57.5246 18.005 57.7267 18.0697 57.9187 18.1583C58.1123 18.2668 58.2989 18.3874 58.4772 18.5194L58.4291 18.6446Z" fill="#D1D3D4"/>
<path id="Vector_46" d="M118.685 17.4445L116.937 17.5841L116.87 17.5119C117.154 17.3434 117.428 17.0737 117.727 17.0304C118.072 17.0567 118.41 17.1447 118.724 17.2904L118.685 17.4445Z" fill="#D1D3D4"/>
<path id="Vector_47" d="M111.313 46.6289C111.499 46.8965 111.66 47.1801 111.795 47.4764C111.828 47.5727 111.646 47.8279 111.516 47.8808C111.255 47.9819 111.169 47.799 111.178 47.5534C111.188 47.3078 111.178 46.9804 111.178 46.6963L111.313 46.6289Z" fill="#D1D3D4"/>
<path id="Vector_48" d="M130.713 64.4102L130.256 63.4087C130.527 63.3846 130.799 63.3846 131.07 63.4087C131.125 63.4531 131.168 63.5109 131.195 63.5766C131.222 63.6423 131.232 63.7138 131.224 63.7843C131.08 64.013 130.908 64.2233 130.713 64.4102Z" fill="#D1D3D4"/>
<path id="Vector_49" d="M126.033 35.8965C126.539 36.3058 126.514 36.7969 125.966 37.1003L125.999 36.3973L125.787 36.2769L126.033 35.8965Z" fill="#D1D3D4"/>
<path id="Vector_50" d="M103.898 16.2952L105.083 15.9004L105.14 15.9871C105.034 16.1363 104.948 16.3915 104.813 16.4204C104.493 16.4528 104.17 16.4528 103.85 16.4204L103.898 16.2952Z" fill="#D1D3D4"/>
<path id="Vector_51" d="M90.1943 33.0264L90.5025 32.9012C90.5362 32.9879 90.6132 33.089 90.5844 33.142C90.4784 33.3683 90.724 33.7969 90.1943 33.8257V33.0264Z" fill="#D1D3D4"/>
<path id="Vector_52" d="M92.1203 34.7692L91.3499 34.2877L91.3739 34.1914H92.2166L92.1203 34.7692Z" fill="#D1D3D4"/>
<path id="Vector_53" d="M63.5571 20.5693L64.7176 20.7908L64.679 20.9642C64.3179 20.839 63.8027 21.3638 63.5571 20.5693Z" fill="#D1D3D4"/>
<path id="Vector_54" d="M58.6025 18.0948C58.9829 18.1671 59.2381 18.2104 59.4933 18.2682C59.5158 18.2866 59.5334 18.3103 59.5443 18.3372C59.5553 18.3642 59.5592 18.3934 59.5559 18.4223C59.5436 18.4545 59.5249 18.484 59.5009 18.5088C59.4769 18.5337 59.4481 18.5534 59.4163 18.5667C59.0744 18.6727 58.8337 18.5475 58.6025 18.0948Z" fill="#D1D3D4"/>
<path id="Vector_55" d="M123.596 41.5156L123.221 42.6472C122.903 42.1464 122.985 41.8431 123.596 41.5156Z" fill="#D1D3D4"/>
<path id="Vector_56" d="M131.406 51.7098C131.599 51.744 131.796 51.744 131.989 51.7098C132.148 51.6472 132.254 51.4546 132.471 51.3632C132.403 51.5111 132.317 51.6502 132.215 51.7773C132.163 51.8355 132.097 51.8809 132.024 51.9098C131.951 51.9387 131.873 51.9503 131.794 51.9438C131.716 51.9373 131.64 51.9127 131.573 51.8722C131.506 51.8316 131.449 51.776 131.406 51.7098Z" fill="#D1D3D4"/>
<path id="Vector_57" d="M59.1802 19.8958L59.941 19.6406L60.0132 20.1221C59.8528 20.1322 59.692 20.1322 59.5317 20.1221C59.4127 20.0969 59.2965 20.0598 59.185 20.0114L59.1802 19.8958Z" fill="#D1D3D4"/>
<path id="Vector_58" d="M125.065 52.7054L123.881 53.5096C123.934 53.2476 124.088 53.0169 124.309 52.8666C124.531 52.7164 124.802 52.6586 125.065 52.7054Z" fill="#D1D3D4"/>
<path id="Vector_59" d="M58.8096 23.5176L59.4549 23.9028V23.9991L58.4148 23.9124L58.8096 23.5176Z" fill="#D1D3D4"/>
<path id="Vector_60" d="M59.1033 19.0205L60.0663 19.1072C59.7244 19.5309 59.4163 19.2661 59.1033 19.1409V19.0205Z" fill="#D1D3D4"/>
<path id="Vector_61" d="M54.4473 18.6386L55.4103 18.4941C55.2369 18.9227 54.9095 18.9901 54.4473 18.6386Z" fill="#D1D3D4"/>
<path id="Vector_62" d="M127.16 35.6991C127.424 36.3106 126.712 36.0602 126.707 36.378C126.461 35.8917 126.962 35.9447 127.16 35.6991Z" fill="#D1D3D4"/>
<path id="Vector_63" d="M126.153 51.1023H125.258C125.301 51.006 125.335 50.8423 125.378 50.8375C125.672 50.8182 125.999 50.7508 126.153 51.1023Z" fill="#D1D3D4"/>
<path id="Vector_64" d="M105.155 16.3761L105.887 16.3184V16.535L105.174 16.6265L105.155 16.3761Z" fill="#D1D3D4"/>
<path id="Vector_65" d="M59.9073 74.4452C59.8434 74.4452 59.7822 74.4198 59.737 74.3747C59.6919 74.3295 59.6665 74.2683 59.6665 74.2044V4.83841C59.6677 4.77494 59.6935 4.71442 59.7384 4.66954C59.7833 4.62465 59.8438 4.59889 59.9073 4.59766C59.9711 4.59766 60.0324 4.62302 60.0775 4.66817C60.1227 4.71332 60.148 4.77456 60.148 4.83841V74.2044C60.148 74.2683 60.1227 74.3295 60.0775 74.3747C60.0324 74.4198 59.9711 74.4452 59.9073 74.4452Z" fill="#D1D3D4"/>
<path id="Vector_66" d="M89.5152 74.4452C89.4513 74.4452 89.3901 74.4198 89.3449 74.3747C89.2998 74.3295 89.2744 74.2683 89.2744 74.2044V4.83841C89.2744 4.77456 89.2998 4.71332 89.3449 4.66817C89.3901 4.62302 89.4513 4.59766 89.5152 4.59766C89.579 4.59766 89.6403 4.62302 89.6854 4.66817C89.7306 4.71332 89.7559 4.77456 89.7559 4.83841V74.2044C89.7559 74.2683 89.7306 74.3295 89.6854 74.3747C89.6403 74.4198 89.579 74.4452 89.5152 74.4452Z" fill="#D1D3D4"/>
<path id="Vector_67" d="M119.123 74.4452C119.059 74.4452 118.998 74.4198 118.953 74.3747C118.908 74.3295 118.882 74.2683 118.882 74.2044V4.83841C118.882 4.77456 118.908 4.71332 118.953 4.66817C118.998 4.62302 119.059 4.59766 119.123 4.59766C119.187 4.59889 119.247 4.62465 119.292 4.66954C119.337 4.71442 119.363 4.77494 119.364 4.83841V74.2044C119.364 74.2683 119.338 74.3295 119.293 74.3747C119.248 74.4198 119.187 74.4452 119.123 74.4452Z" fill="#D1D3D4"/>
<path id="Vector_68" d="M89.2362 40.9755L90.6229 41.1536L91.0755 40.5132V40.4266C90.204 40.3158 89.3325 40.2147 88.4658 40.0991L87.6761 39.998C87.634 39.9847 87.5898 39.9798 87.5458 39.9837C87.5019 39.9877 87.4592 40.0003 87.4202 40.0209C87.3812 40.0416 87.3467 40.0697 87.3187 40.1038C87.2907 40.1379 87.2698 40.1772 87.2572 40.2195C87.1994 40.388 87.1994 40.6288 87.4064 40.701C87.6792 40.7663 87.9558 40.8146 88.2346 40.8455C88.5139 40.8888 88.798 40.937 89.0821 40.9658L89.2362 40.9755Z" fill="#303033" fill-opacity="0.5"/>
<path id="Vector_69" d="M88.7503 40.5902C88.9098 39.372 88.6116 38.3285 88.0843 38.2595C87.5569 38.1904 87.0001 39.122 86.8406 40.3402C86.6811 41.5584 86.9793 42.6019 87.5066 42.6709C88.034 42.74 88.5908 41.8084 88.7503 40.5902Z" fill="white"/>
<path id="Vector_70" d="M87.5556 42.9127H87.469C87.1127 42.8646 86.8334 42.5419 86.6793 42.0075C86.5406 41.4534 86.5128 40.8774 86.5974 40.3126C86.7804 38.921 87.4256 37.9339 88.1094 38.0254C88.4657 38.0687 88.745 38.3914 88.8991 38.9306C89.0378 39.4847 89.0656 40.0607 88.9809 40.6255C88.8076 41.9545 88.2057 42.9127 87.5556 42.9127ZM88.0372 38.4973C87.7434 38.4973 87.2427 39.2003 87.0741 40.3703C86.9983 40.8691 87.0212 41.3779 87.1416 41.8678C87.2379 42.1953 87.3871 42.4119 87.5316 42.4312C87.8205 42.4697 88.3501 41.7571 88.4946 40.5581C88.5699 40.0577 88.547 39.5475 88.4272 39.0558C88.3357 38.7332 88.1864 38.5165 88.0372 38.4973Z" fill="#303033" fill-opacity="0.5"/>
<path id="Vector_71" d="M87.7481 39.069C88.0105 39.4535 88.1156 39.9239 88.0418 40.3835C88.0273 40.6109 87.9649 40.8327 87.8587 41.0344C87.7524 41.236 87.6048 41.4129 87.4255 41.5535L84.0934 40.7976C83.9344 40.7617 83.7944 40.6678 83.7009 40.5343C83.6074 40.4007 83.5671 40.237 83.5879 40.0753L83.6649 39.5071C83.6864 39.3455 83.7673 39.1977 83.892 39.0926C84.0167 38.9875 84.1761 38.9327 84.339 38.939L87.7481 39.069Z" fill="white"/>
<path id="Vector_72" d="M87.4257 41.8141H87.3727L84.0407 41.0581C83.8274 41.0108 83.639 40.8862 83.512 40.7085C83.3849 40.5307 83.3279 40.3123 83.3521 40.0951L83.4244 39.5269C83.4509 39.3048 83.5604 39.101 83.731 38.9563C83.9016 38.8116 84.1206 38.7368 84.344 38.7469L87.7579 38.8769C87.7919 38.8787 87.8252 38.8873 87.8558 38.9022C87.8864 38.9171 87.9137 38.938 87.9361 38.9636C88.2392 39.3998 88.3617 39.9365 88.278 40.461C88.263 40.7246 88.19 40.9817 88.0644 41.2139C87.9387 41.4461 87.7634 41.6477 87.5509 41.8044C87.5107 41.8187 87.4675 41.822 87.4257 41.8141ZM84.3103 39.1995C84.2099 39.1998 84.1131 39.2366 84.0378 39.3031C83.9625 39.3695 83.9139 39.461 83.901 39.5606L83.8288 40.1288C83.8144 40.2305 83.8393 40.3339 83.8983 40.4179C83.9573 40.502 84.0461 40.5604 84.1466 40.5814L87.3679 41.3133C87.6196 41.0639 87.7734 40.7324 87.8013 40.3792C87.8534 40.0172 87.7893 39.648 87.6183 39.3247L84.3296 39.1995H84.3103Z" fill="#303033" fill-opacity="0.5"/>
<path id="Vector_73" d="M47.2342 32.5985C47.2342 32.5985 49.9451 36.5613 49.4106 37.4136C48.8761 38.2659 47.0464 37.7314 47.0464 37.7314" fill="white"/>
<path id="Vector_74" d="M42.1686 34.2064C42.0825 33.5414 41.8142 32.9131 41.3933 32.3911C41.1326 31.948 40.8081 31.5457 40.4303 31.197C40.2357 31.0246 40.0049 30.8979 39.755 30.8263C39.505 30.7546 39.2422 30.7398 38.9858 30.7829C38.7642 30.8425 38.5578 30.9484 38.3802 31.0937C38.2026 31.2389 38.0578 31.4202 37.9554 31.6255C37.7529 32.0378 37.6459 32.4904 37.6424 32.9497C37.6143 33.948 37.8485 34.9363 38.3216 35.8158C38.7948 36.6953 39.4903 37.4354 40.3388 37.9622L40.1896 37.8033" fill="white"/>
<path id="Vector_75" d="M122.335 40.0762H111.593V50.8186H122.335V40.0762Z" fill="white"/>
<path id="Vector_76" d="M122.335 51.0599H111.592C111.528 51.0599 111.467 51.0345 111.422 50.9894C111.377 50.9442 111.352 50.883 111.352 50.8191V40.0767C111.352 40.0128 111.377 39.9516 111.422 39.9065C111.467 39.8613 111.528 39.8359 111.592 39.8359H122.335C122.398 39.8372 122.459 39.8629 122.504 39.9078C122.549 39.9527 122.574 40.0132 122.576 40.0767V50.8191C122.576 50.883 122.55 50.9442 122.505 50.9894C122.46 51.0345 122.399 51.0599 122.335 51.0599ZM111.833 50.5784H122.094V40.3174H111.833V50.5784Z" fill="#D1D3D4"/>
<path id="Vector_77" d="M120.375 42.6182H113.547C113.484 42.6182 113.422 42.5929 113.377 42.5477C113.332 42.5026 113.307 42.4413 113.307 42.3775C113.308 42.314 113.334 42.2535 113.379 42.2086C113.423 42.1637 113.484 42.138 113.547 42.1367H120.375C120.439 42.1367 120.5 42.1621 120.545 42.2072C120.591 42.2524 120.616 42.3136 120.616 42.3775C120.616 42.4091 120.61 42.4404 120.598 42.4696C120.586 42.4988 120.568 42.5254 120.545 42.5477C120.523 42.5701 120.497 42.5878 120.467 42.5999C120.438 42.612 120.407 42.6182 120.375 42.6182Z" fill="#D1D3D4"/>
<path id="Vector_78" d="M120.375 44.6262H113.547C113.484 44.6262 113.422 44.6008 113.377 44.5556C113.332 44.5105 113.307 44.4493 113.307 44.3854C113.308 44.3219 113.334 44.2614 113.379 44.2165C113.423 44.1716 113.484 44.1459 113.547 44.1447H120.375C120.439 44.1447 120.5 44.17 120.545 44.2152C120.591 44.2603 120.616 44.3216 120.616 44.3854C120.616 44.417 120.61 44.4483 120.598 44.4775C120.586 44.5068 120.568 44.5333 120.545 44.5556C120.523 44.578 120.497 44.5957 120.467 44.6078C120.438 44.6199 120.407 44.6262 120.375 44.6262Z" fill="#D1D3D4"/>
<path id="Vector_79" d="M120.375 46.629H113.547C113.484 46.629 113.422 46.6036 113.377 46.5585C113.332 46.5133 113.307 46.4521 113.307 46.3882C113.308 46.3247 113.334 46.2642 113.379 46.2193C113.423 46.1745 113.484 46.1487 113.547 46.1475H120.375C120.439 46.1475 120.5 46.1728 120.545 46.218C120.591 46.2631 120.616 46.3244 120.616 46.3882C120.616 46.4198 120.61 46.4511 120.598 46.4803C120.586 46.5096 120.568 46.5361 120.545 46.5585C120.523 46.5808 120.497 46.5985 120.467 46.6106C120.438 46.6227 120.407 46.629 120.375 46.629Z" fill="#D1D3D4"/>
<path id="Vector_80" d="M117.693 48.6426H113.547C113.484 48.6426 113.422 48.6173 113.377 48.5721C113.332 48.527 113.307 48.4657 113.307 48.4019C113.308 48.3384 113.334 48.2779 113.379 48.233C113.423 48.1881 113.484 48.1624 113.547 48.1611H117.693C117.757 48.1624 117.817 48.1881 117.862 48.233C117.907 48.2779 117.933 48.3384 117.934 48.4019C117.934 48.4657 117.909 48.527 117.863 48.5721C117.818 48.6173 117.757 48.6426 117.693 48.6426Z" fill="#D1D3D4"/>
<path id="Vector_81" d="M67.9832 27.1084H57.2407V37.8508H67.9832V27.1084Z" fill="white"/>
<path id="Vector_82" d="M67.9832 38.0921H57.2408C57.1769 38.0921 57.1157 38.0667 57.0705 38.0216C57.0254 37.9764 57 37.9152 57 37.8514V27.1089C57 27.0451 57.0254 26.9838 57.0705 26.9387C57.1157 26.8935 57.1769 26.8682 57.2408 26.8682H67.9832C68.047 26.8682 68.1083 26.8935 68.1534 26.9387C68.1986 26.9838 68.2239 27.0451 68.2239 27.1089V37.8514C68.2239 37.883 68.2177 37.9143 68.2056 37.9435C68.1935 37.9727 68.1758 37.9992 68.1534 38.0216C68.1311 38.044 68.1045 38.0617 68.0753 38.0738C68.0461 38.0859 68.0148 38.0921 67.9832 38.0921ZM57.4815 37.6106H67.7424V27.3497H57.4815V37.6106Z" fill="#D1D3D4"/>
<path id="Vector_83" d="M66.0279 29.6505H59.1953C59.1315 29.6505 59.0703 29.6251 59.0251 29.5799C58.98 29.5348 58.9546 29.4736 58.9546 29.4097C58.9558 29.3462 58.9816 29.2857 59.0265 29.2408C59.0714 29.1959 59.1319 29.1702 59.1953 29.1689H66.0279C66.0914 29.1702 66.1519 29.1959 66.1968 29.2408C66.2417 29.2857 66.2675 29.3462 66.2687 29.4097C66.2687 29.4736 66.2433 29.5348 66.1982 29.5799C66.153 29.6251 66.0918 29.6505 66.0279 29.6505Z" fill="#D1D3D4"/>
<path id="Vector_84" d="M66.0282 31.6592H59.1956C59.1317 31.6592 59.0705 31.6339 59.0254 31.5887C58.9802 31.5436 58.9548 31.4823 58.9548 31.4185C58.9561 31.355 58.9818 31.2945 59.0267 31.2496C59.0716 31.2047 59.1321 31.179 59.1956 31.1777H66.0282C66.0917 31.179 66.1522 31.2047 66.1971 31.2496C66.2419 31.2945 66.2677 31.355 66.2689 31.4185C66.2689 31.4823 66.2436 31.5436 66.1984 31.5887C66.1533 31.6339 66.092 31.6592 66.0282 31.6592Z" fill="#D1D3D4"/>
<path id="Vector_85" d="M66.0282 33.6669H59.1956C59.1317 33.6669 59.0705 33.6416 59.0254 33.5964C58.9802 33.5513 58.9548 33.49 58.9548 33.4262C58.9561 33.3627 58.9818 33.3022 59.0267 33.2573C59.0716 33.2124 59.1321 33.1867 59.1956 33.1854H66.0282C66.0917 33.1867 66.1522 33.2124 66.1971 33.2573C66.2419 33.3022 66.2677 33.3627 66.2689 33.4262C66.2689 33.49 66.2436 33.5513 66.1984 33.5964C66.1533 33.6416 66.092 33.6669 66.0282 33.6669Z" fill="#D1D3D4"/>
<path id="Vector_86" d="M61.8966 35.6758H59.1953C59.1315 35.6758 59.0703 35.6505 59.0251 35.6053C58.98 35.5602 58.9546 35.4989 58.9546 35.4351C58.9558 35.3716 58.9816 35.3111 59.0265 35.2662C59.0714 35.2213 59.1319 35.1956 59.1953 35.1943H61.8966C61.9605 35.1943 62.0217 35.2197 62.0668 35.2649C62.112 35.31 62.1374 35.3712 62.1374 35.4351C62.1374 35.4989 62.112 35.5602 62.0668 35.6053C62.0217 35.6505 61.9605 35.6758 61.8966 35.6758Z" fill="#D1D3D4"/>
<path id="Vector_87" d="M108.983 27.9502H98.2407V38.6926H108.983V27.9502Z" fill="white"/>
<path id="Vector_88" d="M108.983 38.9329H98.2408C98.1769 38.9329 98.1157 38.9076 98.0705 38.8624C98.0254 38.8173 98 38.756 98 38.6922V27.9497C98 27.8859 98.0254 27.8246 98.0705 27.7795C98.1157 27.7343 98.1769 27.709 98.2408 27.709H108.983C109.047 27.7102 109.107 27.736 109.152 27.7809C109.197 27.8257 109.223 27.8863 109.224 27.9497V38.6922C109.224 38.756 109.199 38.8173 109.153 38.8624C109.108 38.9076 109.047 38.9329 108.983 38.9329ZM98.4815 38.4514H108.742V28.1905H98.4815V38.4514Z" fill="#D1D3D4"/>
<path id="Vector_89" d="M107.024 30.4971H100.196C100.132 30.4971 100.071 30.4718 100.026 30.4266C99.9804 30.3815 99.9551 30.3202 99.9551 30.2564C99.9551 30.1925 99.9804 30.1313 100.026 30.0861C100.071 30.041 100.132 30.0156 100.196 30.0156H107.024C107.087 30.0156 107.149 30.041 107.194 30.0861C107.239 30.1313 107.264 30.1925 107.264 30.2564C107.264 30.3202 107.239 30.3815 107.194 30.4266C107.149 30.4718 107.087 30.4971 107.024 30.4971Z" fill="#D1D3D4"/>
<path id="Vector_90" d="M107.024 32.5001H100.196C100.132 32.5001 100.071 32.4747 100.026 32.4295C99.9804 32.3844 99.9551 32.3232 99.9551 32.2593C99.9551 32.1955 99.9804 32.1342 100.026 32.0891C100.071 32.0439 100.132 32.0186 100.196 32.0186H107.024C107.087 32.0186 107.149 32.0439 107.194 32.0891C107.239 32.1342 107.264 32.1955 107.264 32.2593C107.264 32.3232 107.239 32.3844 107.194 32.4295C107.149 32.4747 107.087 32.5001 107.024 32.5001Z" fill="#D1D3D4"/>
<path id="Vector_91" d="M104.476 34.5079H100.196C100.132 34.5079 100.071 34.4825 100.025 34.4374C99.9802 34.3922 99.9548 34.331 99.9548 34.2671C99.9548 34.2033 99.9802 34.142 100.025 34.0969C100.071 34.0517 100.132 34.0264 100.196 34.0264H104.476C104.54 34.0264 104.601 34.0517 104.646 34.0969C104.692 34.142 104.717 34.2033 104.717 34.2671C104.717 34.331 104.692 34.3922 104.646 34.4374C104.601 34.4825 104.54 34.5079 104.476 34.5079Z" fill="#D1D3D4"/>
<path id="Vector_92" d="M131.768 23.2089H121.025V33.9513H131.768V23.2089Z" fill="white"/>
<path id="Vector_93" d="M131.768 34.1918H121.025C120.961 34.1918 120.9 34.1665 120.855 34.1213C120.81 34.0762 120.784 34.0149 120.784 33.9511V23.2086C120.784 23.1448 120.81 23.0836 120.855 23.0384C120.9 22.9933 120.961 22.9679 121.025 22.9679H131.768C131.831 22.9679 131.893 22.9933 131.938 23.0384C131.983 23.0836 132.008 23.1448 132.008 23.2086V33.9511C132.007 34.0146 131.981 34.0751 131.936 34.12C131.892 34.1648 131.831 34.1906 131.768 34.1918ZM121.266 33.7103H131.527V23.4494H121.266V33.7103Z" fill="#D1D3D4"/>
<path id="Vector_94" d="M129.813 25.752H122.98C122.916 25.752 122.855 25.7267 122.81 25.6815C122.765 25.6364 122.739 25.5751 122.739 25.5113C122.739 25.4474 122.765 25.3862 122.81 25.341C122.855 25.2959 122.916 25.2705 122.98 25.2705H129.813C129.876 25.2705 129.938 25.2959 129.983 25.341C130.028 25.3862 130.053 25.4474 130.053 25.5113C130.053 25.5751 130.028 25.6364 129.983 25.6815C129.938 25.7267 129.876 25.752 129.813 25.752Z" fill="#D1D3D4"/>
<path id="Vector_95" d="M129.813 27.7589H122.98C122.916 27.7589 122.855 27.7335 122.81 27.6883C122.765 27.6432 122.739 27.5819 122.739 27.5181C122.739 27.4542 122.765 27.393 122.81 27.3479C122.855 27.3027 122.916 27.2773 122.98 27.2773H129.813C129.876 27.2773 129.938 27.3027 129.983 27.3479C130.028 27.393 130.053 27.4542 130.053 27.5181C130.053 27.5819 130.028 27.6432 129.983 27.6883C129.938 27.7335 129.876 27.7589 129.813 27.7589Z" fill="#D1D3D4"/>
<path id="Vector_96" d="M129.668 29.7764H122.98C122.917 29.7752 122.856 29.7494 122.811 29.7046C122.766 29.6597 122.74 29.5991 122.739 29.5357C122.739 29.4718 122.765 29.4106 122.81 29.3654C122.855 29.3203 122.916 29.2949 122.98 29.2949H129.668C129.732 29.2949 129.793 29.3203 129.838 29.3654C129.884 29.4106 129.909 29.4718 129.909 29.5357C129.909 29.5995 129.884 29.6608 129.838 29.7059C129.793 29.7511 129.732 29.7764 129.668 29.7764Z" fill="#D1D3D4"/>
<path id="Vector_97" d="M116.292 40.3113L116.942 41.5536H117.727L117.804 41.5102C117.399 40.735 116.976 39.9646 116.571 39.1894C116.446 38.9534 116.321 38.7079 116.2 38.4864C116.173 38.4026 116.113 38.3331 116.035 38.2926C115.957 38.2521 115.866 38.2438 115.781 38.2697C115.603 38.3227 115.411 38.4623 115.478 38.6645C115.58 38.9256 115.699 39.1798 115.834 39.4253C115.96 39.6805 116.085 39.9357 116.224 40.1861C116.244 40.2294 116.268 40.268 116.292 40.3113Z" fill="#303033" fill-opacity="0.5"/>
<path id="Vector_98" d="M102.107 27.7146L102.757 28.9569H103.542L103.619 28.9136C103.214 28.1383 102.791 27.3679 102.386 26.5927C102.261 26.3568 102.136 26.1112 102.015 25.8897C101.988 25.806 101.928 25.7364 101.85 25.6959C101.772 25.6554 101.681 25.6472 101.596 25.673C101.418 25.726 101.226 25.8656 101.293 26.0678C101.395 26.3289 101.514 26.5831 101.649 26.8286C101.775 27.0838 101.9 27.339 102.039 27.5894C102.059 27.6327 102.083 27.6713 102.107 27.7146Z" fill="#303033" fill-opacity="0.5"/>
<path id="Vector_99" d="M116.324 39.6776C117.412 39.1067 118.094 38.2621 117.847 37.7911C117.599 37.3202 116.517 37.4012 115.429 37.9721C114.341 38.543 113.66 39.3876 113.907 39.8586C114.154 40.3295 115.236 40.2485 116.324 39.6776Z" fill="white"/>
<path id="Vector_100" d="M102.139 27.0809C103.227 26.51 103.908 25.6654 103.661 25.1945C103.414 24.7235 102.332 24.8045 101.244 25.3755C100.156 25.9464 99.4745 26.791 99.7217 27.2619C99.9688 27.7329 101.051 27.6518 102.139 27.0809Z" fill="white"/>
<path id="Vector_101" d="M114.641 40.4174C114.455 40.4421 114.266 40.4141 114.096 40.3367C113.926 40.2592 113.781 40.1353 113.677 39.9792C113.606 39.7781 113.595 39.5604 113.647 39.3532C113.698 39.146 113.809 38.9585 113.966 38.814C114.341 38.3822 114.795 38.0273 115.305 37.7691C115.807 37.5029 116.357 37.3393 116.923 37.2876C117.481 37.2443 117.886 37.3935 118.045 37.7162C118.119 37.9166 118.131 38.1346 118.081 38.3421C118.03 38.5497 117.919 38.7375 117.761 38.8814C116.996 39.7398 115.945 40.2908 114.804 40.4319L114.641 40.4174ZM117.111 37.7354H116.961C116.455 37.7927 115.964 37.9481 115.517 38.1929C115.065 38.4174 114.662 38.7301 114.332 39.1125C114.116 39.3774 114.029 39.6229 114.096 39.7529C114.164 39.8829 114.419 39.9504 114.756 39.9215C115.263 39.8698 115.755 39.7158 116.201 39.4688C116.654 39.2442 117.058 38.9316 117.39 38.5492C117.602 38.2843 117.693 38.0388 117.626 37.9088C117.573 37.8028 117.38 37.7354 117.111 37.7354Z" fill="#303033" fill-opacity="0.5"/>
<path id="Vector_102" d="M100.455 27.8207C100.27 27.8455 100.081 27.8175 99.9108 27.74C99.7405 27.6625 99.5954 27.5386 99.4922 27.3826C99.4208 27.1814 99.4101 26.9637 99.4614 26.7565C99.5128 26.5493 99.624 26.3618 99.7811 26.2173C100.155 25.7855 100.61 25.4306 101.12 25.1724C101.622 24.9063 102.172 24.7426 102.738 24.6909C103.296 24.6476 103.701 24.7969 103.859 25.1195C103.933 25.3199 103.946 25.5379 103.895 25.7455C103.845 25.953 103.733 26.1408 103.575 26.2847C102.811 27.1431 101.76 27.6942 100.619 27.8352L100.455 27.8207ZM102.925 25.1387H102.776C102.269 25.196 101.779 25.3514 101.332 25.5962C100.879 25.8208 100.477 26.1334 100.147 26.5158C99.9304 26.7807 99.8437 27.0262 99.9111 27.1563C99.9785 27.2863 100.234 27.3537 100.571 27.3248C101.078 27.2731 101.569 27.1191 102.015 26.8722C102.469 26.6476 102.873 26.3349 103.205 25.9525C103.416 25.6877 103.508 25.4421 103.441 25.3121C103.388 25.2061 103.195 25.1387 102.925 25.1387Z" fill="#303033" fill-opacity="0.5"/>
<path id="Vector_103" d="M116.995 38.0004C116.829 38.4349 116.504 38.7897 116.085 38.9923C115.892 39.1132 115.675 39.1912 115.449 39.2211C115.223 39.251 114.993 39.2321 114.775 39.1657L113.475 36.007C113.413 35.8565 113.409 35.6883 113.465 35.5352C113.52 35.3821 113.63 35.255 113.774 35.1788L114.284 34.914C114.427 34.8375 114.594 34.8178 114.751 34.8589C114.908 34.8999 115.044 34.9987 115.132 35.1354L116.995 38.0004Z" fill="white"/>
<path id="Vector_104" d="M102.81 25.4037C102.644 25.8383 102.318 26.1931 101.9 26.3956C101.706 26.5165 101.49 26.5945 101.264 26.6244C101.038 26.6543 100.808 26.6354 100.59 26.569L99.2899 23.4103C99.2279 23.2598 99.2241 23.0917 99.2793 22.9385C99.3345 22.7854 99.4447 22.6584 99.5885 22.5821L100.099 22.3173C100.242 22.2408 100.409 22.2211 100.566 22.2622C100.723 22.3032 100.859 22.402 100.946 22.5388L102.81 25.4037Z" fill="white"/>
<path id="Vector_105" d="M115.209 39.4737C115.03 39.4768 114.852 39.4474 114.684 39.387C114.625 39.3622 114.579 39.3156 114.554 39.257L113.254 36.0983C113.168 35.8927 113.163 35.6625 113.238 35.453C113.314 35.2435 113.466 35.0701 113.663 34.9668L114.169 34.702C114.365 34.5964 114.595 34.569 114.811 34.6253C115.027 34.6815 115.214 34.8172 115.334 35.0053L117.192 37.8943C117.211 37.9225 117.223 37.9541 117.229 37.9872C117.235 38.0203 117.234 38.0542 117.226 38.087C117.043 38.5844 116.676 38.9927 116.201 39.2281C115.896 39.3929 115.555 39.4775 115.209 39.4737ZM114.953 38.9922C115.303 39.054 115.663 38.9891 115.969 38.8092C116.295 38.6429 116.559 38.3784 116.725 38.0532L114.934 35.2894C114.878 35.2032 114.791 35.1412 114.692 35.1153C114.592 35.0895 114.486 35.1018 114.395 35.1498L113.889 35.4146C113.797 35.4622 113.727 35.5425 113.691 35.6396C113.655 35.7367 113.657 35.8437 113.697 35.9394L114.953 38.9922Z" fill="#303033" fill-opacity="0.5"/>
<path id="Vector_106" d="M101.023 26.877C100.845 26.8801 100.667 26.8507 100.498 26.7903C100.44 26.7655 100.393 26.7189 100.368 26.6603L99.0684 23.5016C98.9828 23.296 98.9774 23.0658 99.0531 22.8563C99.1289 22.6469 99.2803 22.4734 99.4777 22.3701L99.9833 22.1053C100.18 21.9997 100.409 21.9723 100.625 22.0286C100.841 22.0848 101.028 22.2206 101.149 22.4086L103.007 25.2977C103.025 25.3259 103.038 25.3575 103.044 25.3905C103.049 25.4236 103.048 25.4575 103.041 25.4903C102.857 25.9877 102.49 26.396 102.015 26.6314C101.711 26.7963 101.369 26.8808 101.023 26.877ZM100.768 26.3955C101.118 26.4573 101.478 26.3924 101.784 26.2125C102.109 26.0462 102.374 25.7817 102.54 25.4566L100.749 22.6927C100.692 22.6065 100.606 22.5445 100.506 22.5187C100.406 22.4928 100.301 22.5051 100.21 22.5531L99.704 22.8179C99.6121 22.8655 99.5414 22.9458 99.5058 23.0429C99.4701 23.1401 99.4721 23.247 99.5114 23.3427L100.768 26.3955Z" fill="#303033" fill-opacity="0.5"/>
<path id="Vector_107" d="M106.002 21.7284C107.089 21.1575 107.771 20.3129 107.524 19.8419C107.277 19.371 106.194 19.452 105.107 20.0229C104.019 20.5938 103.337 21.4384 103.584 21.9094C103.831 22.3803 104.914 22.2993 106.002 21.7284Z" fill="white"/>
<path id="Vector_108" d="M106.667 20.0442C106.505 20.481 106.181 20.8383 105.761 21.0409C105.568 21.1607 105.351 21.2377 105.125 21.2668C104.899 21.2958 104.669 21.2763 104.452 21.2095L103.152 18.0508C103.089 17.9003 103.086 17.7321 103.141 17.579C103.196 17.4259 103.306 17.2989 103.45 17.2226L103.956 16.9578C104.1 16.8821 104.267 16.8629 104.425 16.9039C104.582 16.9448 104.719 17.043 104.808 17.1793L106.667 20.0442Z" fill="white"/>
<path id="Vector_109" d="M61.4054 26.7144L62.0554 27.9567H62.8451L62.9222 27.9182C62.5129 27.1381 62.0891 26.3677 61.6847 25.5925C61.5595 25.3614 61.4391 25.111 61.3139 24.8895C61.2864 24.8059 61.2268 24.7366 61.1483 24.6969C61.0697 24.6572 60.9787 24.6502 60.895 24.6776C60.7217 24.7258 60.5243 24.8654 60.5917 25.0676C60.6974 25.3279 60.8179 25.582 60.9528 25.8284C61.078 26.0836 61.1984 26.3436 61.338 26.5892L61.4054 26.7144Z" fill="#303033" fill-opacity="0.5"/>
<path id="Vector_110" d="M61.4415 26.0897C62.5293 25.5188 63.2109 24.6742 62.9638 24.2032C62.7166 23.7323 61.6343 23.8133 60.5465 24.3842C59.4586 24.9552 58.777 25.7997 59.0242 26.2707C59.2713 26.7416 60.3536 26.6606 61.4415 26.0897Z" fill="white"/>
<path id="Vector_111" d="M59.7685 26.8199C59.5836 26.8434 59.3958 26.8154 59.2259 26.7389C59.056 26.6625 58.9105 26.5405 58.8055 26.3865C58.4877 25.7798 59.1859 24.8265 60.4281 24.1764C60.9285 23.9014 61.4784 23.7279 62.046 23.666C62.249 23.5974 62.4698 23.6029 62.669 23.6817C62.8683 23.7605 63.0331 23.9075 63.1342 24.0964C63.2353 24.2853 63.2661 24.504 63.2212 24.7135C63.1762 24.923 63.0584 25.1098 62.8887 25.2406C62.5168 25.6748 62.0616 26.0301 61.5501 26.2854C61.0063 26.6007 60.396 26.7838 59.7685 26.8199ZM62.2434 24.1427H62.1038C61.5968 24.195 61.1055 24.349 60.6593 24.5953C59.5855 25.1587 59.0992 25.8954 59.2148 26.1554C59.3303 26.4154 60.2355 26.4347 61.3093 25.8713C61.7602 25.6467 62.1626 25.3359 62.4938 24.9565C62.7105 24.6916 62.7972 24.4413 62.7298 24.3112C62.6912 24.2053 62.4938 24.1427 62.2434 24.1427Z" fill="#303033" fill-opacity="0.5"/>
<path id="Vector_112" d="M62.1085 24.4026C61.9424 24.8382 61.6172 25.1944 61.1985 25.3993C61.0056 25.519 60.7894 25.5959 60.5643 25.625C60.3392 25.6541 60.1105 25.6346 59.8936 25.5679L58.5887 22.4092C58.5266 22.2603 58.5212 22.0938 58.5735 21.9412C58.6259 21.7885 58.7323 21.6604 58.8728 21.581L59.3784 21.3162C59.5225 21.2405 59.6897 21.2213 59.8473 21.2623C60.0049 21.3032 60.1415 21.4014 60.2306 21.5377L62.1085 24.4026Z" fill="white"/>
<path id="Vector_113" d="M60.3174 25.8755C60.1387 25.8786 59.9609 25.8492 59.7926 25.7888C59.7341 25.764 59.6874 25.7174 59.6626 25.6588L58.3914 22.5001C58.305 22.2941 58.2997 22.063 58.3765 21.8531C58.4533 21.6433 58.6065 21.4702 58.8055 21.3686L59.3111 21.1038C59.508 20.9993 59.737 20.9726 59.9527 21.0287C60.1685 21.0849 60.3553 21.2199 60.4763 21.4071L62.3109 24.2769C62.3298 24.3057 62.3422 24.3383 62.3472 24.3724C62.3522 24.4065 62.3497 24.4413 62.3398 24.4743C62.1747 24.8787 61.8957 25.2265 61.5367 25.4752C61.1777 25.724 60.7541 25.8631 60.3174 25.8755ZM60.067 25.394C60.4151 25.4559 60.7739 25.391 61.0782 25.211C61.4046 25.0463 61.6695 24.7814 61.8342 24.455L60.043 21.696C59.9873 21.609 59.9011 21.546 59.8013 21.5192C59.7016 21.4925 59.5954 21.504 59.5037 21.5516L59.0222 21.8212C58.9315 21.8687 58.862 21.9484 58.8272 22.0447C58.7924 22.141 58.795 22.2468 58.8344 22.3412L60.067 25.394Z" fill="#303033" fill-opacity="0.5"/>
<path id="Vector_114" d="M125.436 23.2176L126.11 24.4791H126.9L126.972 24.4406C126.568 23.6606 126.144 22.8902 125.739 22.1149L125.369 21.4119C125.341 21.3283 125.282 21.2591 125.203 21.2194C125.124 21.1796 125.033 21.1727 124.95 21.2001C124.776 21.2482 124.579 21.3879 124.646 21.5901C124.75 21.8513 124.871 22.1054 125.007 22.3509C125.128 22.6061 125.253 22.8661 125.393 23.1117L125.436 23.2176Z" fill="#303033" fill-opacity="0.5"/>
<path id="Vector_115" d="M125.47 22.5877C126.558 22.0168 127.239 21.1722 126.992 20.7013C126.745 20.2303 125.663 20.3114 124.575 20.8823C123.487 21.4532 122.805 22.2978 123.052 22.7687C123.3 23.2397 124.382 23.1587 125.47 22.5877Z" fill="white"/>
<path id="Vector_116" d="M123.789 23.3237C123.604 23.349 123.415 23.3213 123.244 23.2438C123.074 23.1662 122.929 23.042 122.826 22.8856C122.753 22.685 122.741 22.4672 122.791 22.2598C122.842 22.0524 122.953 21.8646 123.11 21.7203C123.875 20.8619 124.926 20.3109 126.067 20.1699C126.274 20.087 126.506 20.084 126.715 20.1615C126.925 20.239 127.099 20.3915 127.203 20.5895C127.307 20.7875 127.334 21.0171 127.279 21.2339C127.224 21.4507 127.091 21.6395 126.904 21.7637C126.531 22.1968 126.077 22.5519 125.566 22.8085C125.064 23.0747 124.514 23.2384 123.948 23.29L123.789 23.3237ZM126.259 20.6273H126.11C125.603 20.679 125.111 20.8329 124.665 21.0799C124.212 21.3045 123.808 21.6171 123.476 21.9996C123.264 22.2644 123.173 22.51 123.24 22.64C123.308 22.77 123.563 22.8374 123.905 22.8133C124.91 22.6761 125.835 22.1905 126.519 21.441C126.736 21.1762 126.823 20.9258 126.755 20.7958C126.721 20.7091 126.524 20.6273 126.259 20.6273Z" fill="#303033" fill-opacity="0.5"/>
<path id="Vector_117" d="M126.139 20.9075C125.973 21.3431 125.648 21.6993 125.229 21.9042C125.035 22.024 124.818 22.101 124.592 22.13C124.366 22.1591 124.137 22.1396 123.919 22.0728L122.619 18.9141C122.559 18.7629 122.556 18.5947 122.612 18.4418C122.668 18.2889 122.779 18.1621 122.922 18.0859L123.428 17.821C123.572 17.7454 123.739 17.7262 123.897 17.7671C124.055 17.8081 124.191 17.9063 124.28 18.0425L126.139 20.9075Z" fill="white"/>
<path id="Vector_118" d="M124.352 22.3804C124.174 22.3835 123.996 22.3541 123.828 22.2937C123.769 22.2688 123.722 22.2222 123.698 22.1637L122.398 19.005C122.312 18.7994 122.306 18.5691 122.382 18.3597C122.458 18.1502 122.609 17.9768 122.807 17.8735L123.317 17.6086C123.514 17.5042 123.743 17.4775 123.959 17.5336C124.175 17.5898 124.361 17.7248 124.482 17.912L126.341 20.801C126.36 20.8298 126.372 20.8624 126.377 20.8965C126.382 20.9306 126.38 20.9654 126.37 20.9984C126.206 21.403 125.928 21.7513 125.57 22.0009C125.212 22.2505 124.789 22.3907 124.352 22.4044V22.3804ZM124.102 21.8989C124.45 21.9603 124.809 21.8954 125.113 21.7159C125.438 21.5496 125.703 21.2851 125.869 20.9599L124.078 18.2009C124.022 18.1139 123.936 18.0508 123.836 18.0241C123.737 17.9974 123.63 18.0089 123.539 18.0564L123.033 18.3261C122.941 18.3719 122.869 18.4512 122.834 18.5479C122.798 18.6445 122.8 18.7512 122.84 18.8461L124.102 21.8989Z" fill="#303033" fill-opacity="0.5"/>
</g>
<g id="Group 36">
<g id="boy for 2nd screen">
<g id="humaaans/standing-5">
<path id="Sleeve" fill-rule="evenodd" clip-rule="evenodd" d="M40.8785 44.9802C38.3069 49.9324 35.6273 56.7082 36.8915 66.3669C36.9552 66.8531 36.9102 67.3499 36.7469 67.8123L36.1765 69.4276C36.0837 69.6905 35.8854 69.9027 35.6294 70.013L34.9296 70.3147C34.6573 70.432 34.3469 70.4225 34.0823 70.2886L28.2684 67.3471C28.0975 67.2607 27.9383 67.1516 27.805 67.014C23.0854 62.1442 26.0994 49.6622 29.4688 43.7443C32.1619 39.0145 39.2773 39.6547 40.8785 44.9802Z" fill="#E65009"/>
<g id="humaaan-10">
<g id="Head/Front/Short-1">
<g id="Head">
<path id="Vector_119" fill-rule="evenodd" clip-rule="evenodd" d="M42.4297 24.7838C40.8782 22.823 39.8281 20.42 40.0035 17.7274C40.5091 9.96916 50.5399 11.6759 52.491 15.5916C54.4422 19.5072 54.2104 29.4397 51.6886 30.1396C50.683 30.4187 48.5406 29.735 46.3602 28.32L47.7288 38.7447H39.6477L42.4297 24.7838Z" fill="#B28B67"/>
</g>
<path id="Hair" fill-rule="evenodd" clip-rule="evenodd" d="M48.9273 16.1595C47.8307 16.8199 47.0503 18.0575 46.1108 19.6808C45.882 19.584 45.6328 19.5308 45.3721 19.5308C44.2563 19.5308 43.3518 20.5047 43.3518 21.706C43.3518 22.3158 43.5849 22.8671 43.9604 23.262C43.493 23.9724 42.9691 24.7145 42.3687 25.4803C40.1285 24.0332 38.2334 19.8872 40.3724 15.8156C42.2128 7.65995 52.8701 12.6504 54.8765 11.2749C55.315 14.2345 53.9005 16.6209 48.9273 16.1595Z" fill="#191847"/>
</g>
<g id="Bottom/Standing/Baggy-Pants">
<path id="Leg" fill-rule="evenodd" clip-rule="evenodd" d="M39.3223 70.2178L55.8487 115.253L66.933 153.327H71.3099L54.3644 70.2178L39.3223 70.2178Z" fill="#997659"/>
<path id="Leg_2" fill-rule="evenodd" clip-rule="evenodd" d="M35.9944 70.2178C35.8184 86.0436 33.2519 107.35 32.8419 108.337C32.5685 108.995 23.1318 117.358 4.53174 133.427L7.5464 136.9C29.4928 123.123 40.9737 115.316 41.9893 113.478C43.5127 110.722 48.4722 85.358 52.454 70.2178H35.9944Z" fill="#B28B67"/>
<g id="Accessories/Shoe/Flat-Sneaker">
<path id="shoe" fill-rule="evenodd" clip-rule="evenodd" d="M4.1286 132.267C3.11614 132.652 2.41869 133.018 2.03625 133.363C1.57112 133.784 0.957395 134.48 0.195078 135.453C0.647846 136.034 4.71694 141.255 12.4024 151.117C13.9694 150.395 14.4611 149.55 13.8772 148.583C13.2934 147.616 12.8156 146.806 12.4439 146.154L9.7845 136.15C9.73333 135.958 9.54692 135.846 9.36814 135.901C9.36508 135.902 9.36203 135.903 9.359 135.904L7.93995 136.389C6.95543 135.895 6.26538 135.394 5.8698 134.886C5.54841 134.474 5.25925 133.765 5.00233 132.759C4.90373 132.373 4.53309 132.146 4.17447 132.252C4.15902 132.256 4.14372 132.261 4.1286 132.267Z" fill="#E4E4E4"/>
</g>
<g id="Accessories/Shoe/Flat-Sneaker_2">
<path id="shoe_2" fill-rule="evenodd" clip-rule="evenodd" d="M65.1407 151.57C64.764 152.652 64.5757 153.462 64.5757 154C64.5757 154.654 64.6768 155.608 64.8791 156.862C65.5835 156.862 71.9139 156.862 83.8703 156.862C84.3638 155.105 84.079 154.157 83.0157 154.017C81.9524 153.877 81.0691 153.75 80.3658 153.637L71.5389 149.401C71.369 149.319 71.17 149.401 71.0943 149.584C71.093 149.587 71.0917 149.59 71.0905 149.593L70.5231 151.075C69.5388 151.57 68.7389 151.817 68.1235 151.817C67.6235 151.817 66.933 151.6 66.052 151.165C65.7139 150.998 65.3142 151.158 65.1592 151.522C65.1525 151.537 65.1464 151.553 65.1407 151.57Z" fill="#E4E4E4"/>
</g>
<path id="Pant" fill-rule="evenodd" clip-rule="evenodd" d="M59.9053 148.431L71.2441 146.974L55.8211 70.2178H37.1821L59.9053 148.431Z" fill="#444D5C"/>
<path id="Pant_2" fill-rule="evenodd" clip-rule="evenodd" d="M8.83618 127.823L16.3188 138.872C30.6964 121.965 42.1825 117.783 44.5693 112.627C46.956 107.47 49.7351 93.8556 54.0698 70.2178H33.0856C32.0453 90.2596 31.3441 100.747 30.9819 101.68C30.6198 102.612 23.2379 111.327 8.83618 127.823Z" fill="#4F5969"/>
</g>
<g id="Body/Turtle-Neck">
<path id="Clothes-Front" fill-rule="evenodd" clip-rule="evenodd" d="M49.7023 35.6689C49.3541 59.4908 61.5001 67.5002 58.5001 75.5002C58.0001 83.7631 38.0001 86.5002 30.4055 83.7631C28.8179 80.6318 28.0976 76.8448 28.0159 72.7275C30.926 52.0938 24.8978 42.201 37.6258 32.9213L37.7604 30.8623C37.8138 30.0641 38.4569 29.4622 39.1985 29.5163L48.7078 30.2276C49.45 30.2819 50.0097 30.9745 49.9582 31.7735L49.9569 31.7747L49.7023 35.6689Z" fill="#FB5607"/>
</g>
</g>
</g>
</g>
<path id="Skin" fill-rule="evenodd" clip-rule="evenodd" d="M76.3777 50.0444L81.4818 46.934C82.0904 44.1067 84.4316 42.1333 85.4521 42.0698C86.4521 42.0693 82.9786 45.9424 84.4521 45.5693C85.9255 45.1962 89.2739 40.5491 89.9241 41.0691C90.8095 41.7773 90.5359 43.9705 90.075 46.4283C89.9968 46.8453 89.7832 47.2249 89.4755 47.517C87.3676 49.5184 86.4957 50.6166 83.0711 51.7397C81.1514 52.3692 79.0984 53.5503 76.9121 55.2829L76.3777 50.0444Z" fill="#B28B67"/>
<g id="Symbols">
<g id="Body/Pointing-Forward">
<path id="Clothes" fill-rule="evenodd" clip-rule="evenodd" d="M52.0001 50.5C57.0006 51.7471 65.5001 53.5 77.9149 47.5C80.8345 53.5401 80.3862 52.6423 80.166 55.2145C71.3982 62.667 59.1302 66.3448 52.0001 66.5C52.2267 70.7307 58.706 74.4399 56.9761 78.1183C53.6999 85.0847 41.5034 83.7828 34.1282 84.6122C33.1107 84.7266 32.1179 84.13 31.8345 83.1461C28.0905 70.1446 29.4948 64.3864 29.5014 55.6533C29.5089 45.6751 38.3072 30.3164 39.486 30.3164H46.4034C47.4477 30.3164 48.3147 31.1219 48.4058 32.1623C48.9767 38.6786 49.7549 42.8969 52.0001 50.5Z" fill="#FB5607"/>
</g>
</g>
</g>
</g>
</svg>
