<svg width="59" height="50" viewBox="0 0 59 50" fill="none" xmlns="http://www.w3.org/2000/svg">
<path d="M24.932 31.2873C30.0618 31.2873 34.2204 25.1589 34.2204 17.5991C34.2204 10.0393 30.0618 3.91091 24.932 3.91091C19.8021 3.91091 15.6436 10.0393 15.6436 17.5991C15.6436 25.1589 19.8021 31.2873 24.932 31.2873Z" fill="#A57939"/>
<path fill-rule="evenodd" clip-rule="evenodd" d="M24.9318 31.2873C24.9245 31.2873 24.9226 31.2765 24.9299 31.2746C29.0681 29.8891 32.1631 24.3034 32.1631 17.624C32.1631 10.9408 29.0642 5.35257 24.923 3.97104C24.8888 3.96028 24.8962 3.91091 24.9318 3.91091C30.0615 3.91091 34.2203 10.0393 34.2203 17.5991C34.2203 25.1589 30.0615 31.2873 24.9318 31.2873Z" fill="#6A462F"/>
<path d="M31.6743 17.6235C31.6743 20.8906 30.9166 23.8761 29.6676 26.2031C28.4161 28.5345 26.6914 30.1688 24.7745 30.8101L25.085 31.738C27.3063 30.994 29.1987 29.1426 30.5289 26.6651C31.8621 24.1826 32.6521 21.0358 32.6521 17.6235H31.6743ZM24.7682 4.43399C26.6865 5.0744 28.4122 6.70818 29.6656 9.04006C30.9161 11.3671 31.6743 14.354 31.6743 17.6235H32.6521C32.6521 14.2093 31.8611 11.0605 30.527 8.5776C29.1953 6.09906 27.301 4.24871 25.0776 3.50711L24.7682 4.43448V4.43399ZM24.9319 4.39977C27.2868 4.39977 29.4745 5.80623 31.0955 8.19433C32.7142 10.5805 33.7315 13.9043 33.7315 17.5991H34.7092C34.7092 13.7346 33.6469 10.2138 31.9046 7.64583C30.1628 5.07978 27.7072 3.42204 24.9319 3.42204V4.39977ZM33.7315 17.5991C33.7315 21.2944 32.7146 24.6177 31.0955 27.0034C29.4745 29.3919 27.2868 30.7984 24.9319 30.7984V31.7761C27.7072 31.7761 30.1633 30.1179 31.9046 27.5524C33.6469 24.9848 34.7092 21.4645 34.7092 17.5991H33.7315ZM25.0776 3.50759C25.18 3.54278 25.2665 3.61303 25.3221 3.70591C25.3776 3.79879 25.3985 3.90832 25.3811 4.01513C25.3636 4.12193 25.309 4.21912 25.2268 4.28952C25.1446 4.35991 25.0402 4.39896 24.9319 4.39977V3.42204C24.8075 3.42188 24.6872 3.46649 24.5929 3.54772C24.4987 3.62895 24.4368 3.74138 24.4186 3.86446C24.3864 4.07761 24.4939 4.34306 24.7682 4.43448L25.0776 3.50759ZM24.7745 30.8106C24.2246 30.9949 24.3883 31.7761 24.9319 31.7761V30.7984C25.4599 30.7984 25.6207 31.5586 25.085 31.738L24.7745 30.8106Z" fill="#6A462F"/>
<path fill-rule="evenodd" clip-rule="evenodd" d="M24.9322 29.8207C24.9322 29.8207 21.999 24.3488 21.999 17.5991C21.999 10.8723 24.9127 5.41466 24.9322 5.3775C24.918 5.4039 23.4656 8.12981 23.4656 11.4883C23.4656 14.8629 24.9322 17.5991 24.9322 17.5991C24.9322 17.5991 26.3988 20.3348 26.3988 23.7099C26.3988 27.0845 24.9322 29.8207 24.9322 29.8207Z" fill="#6A462F"/>
<path d="M24.9323 29.8207L24.5016 30.0514C24.5434 30.1293 24.6055 30.1943 24.6814 30.2397C24.7572 30.2851 24.8439 30.309 24.9323 30.309C25.0207 30.309 25.1074 30.2851 25.1832 30.2397C25.2591 30.1943 25.3212 30.1293 25.363 30.0514L24.9323 29.8207ZM24.9323 5.3775L25.3635 5.60776C25.4246 5.4934 25.4378 5.35945 25.4002 5.23536C25.3625 5.11127 25.2772 5.00721 25.1628 4.94608C25.0484 4.88495 24.9145 4.87175 24.7904 4.90938C24.6663 4.94702 24.5623 5.0324 24.5011 5.14676L24.9323 5.3775ZM21.5103 17.5991C21.5103 21.0417 22.2577 24.1508 23.0013 26.3947C23.2999 27.299 23.6423 28.1881 24.0274 29.059C24.1656 29.3699 24.3115 29.6774 24.4649 29.981L24.4913 30.0319L24.4982 30.0456L24.5006 30.0495V30.0509L24.9323 29.8207C25.363 29.5895 25.3635 29.5895 25.3635 29.5899L25.362 29.5875L25.3566 29.5772L25.3341 29.5332C25.3037 29.4745 25.2739 29.4156 25.2447 29.3563C25.1322 29.1268 25.0241 28.8952 24.9206 28.6616C24.5487 27.8201 24.218 26.9609 23.9296 26.0872C23.2071 23.9074 22.488 20.9058 22.488 17.5991H21.5103ZM24.5011 5.14676C24.4698 5.20542 21.5103 10.7491 21.5103 17.5991H22.488C22.488 10.9945 25.3547 5.62438 25.3635 5.60825L24.5011 5.14676ZM23.9546 11.4883C23.9546 9.87651 24.3036 8.40895 24.658 7.33638C25.0115 6.26577 25.3654 5.60385 25.3635 5.60776L24.5011 5.14725C24.4757 5.19418 22.9768 8.0071 22.9768 11.4878L23.9546 11.4883ZM24.9323 17.5991C25.363 17.3679 25.3635 17.3679 25.3635 17.3684L25.361 17.3635C25.3427 17.3289 25.3249 17.294 25.3077 17.2588C25.2701 17.1826 25.2158 17.0682 25.1498 16.9201C24.9671 16.5066 24.8046 16.0846 24.6629 15.6554C24.307 14.5813 23.9546 13.1074 23.9546 11.4883L22.9768 11.4878C22.9768 13.2428 23.3577 14.8248 23.7346 15.9629C23.8865 16.4225 24.0608 16.8744 24.2567 17.317C24.3277 17.4769 24.4027 17.635 24.4816 17.7912L24.4953 17.8186C24.4972 17.8215 24.4982 17.8245 24.4997 17.8259L24.5006 17.8284L24.5011 17.8293L24.9323 17.5991ZM24.9323 17.5991L24.5011 17.8293L24.5036 17.8347C24.5219 17.8693 24.5397 17.9042 24.5569 17.9393C24.5945 18.0151 24.6488 18.1295 24.7148 18.2776C24.8467 18.5749 25.0242 19.007 25.2017 19.5423C25.5576 20.6164 25.91 22.0908 25.91 23.7099H26.8878C26.8878 21.9544 26.5069 20.3729 26.13 19.2348C25.9781 18.7752 25.8038 18.3233 25.6079 17.8807C25.5328 17.7116 25.4532 17.5445 25.3693 17.3796L25.3649 17.3718L25.364 17.3693L25.3635 17.3684L24.9323 17.5991ZM25.91 23.7099C25.91 25.329 25.5576 26.8029 25.2012 27.877C25.0596 28.3062 24.8973 28.7282 24.7148 29.1417C24.6482 29.2912 24.5777 29.4391 24.5036 29.5851L24.5016 29.5895L24.9323 29.8207L25.363 30.0514L25.3635 30.05C25.3645 30.0495 25.3645 30.0485 25.3649 30.0475C25.3664 30.0461 25.3674 30.0431 25.3693 30.0402L25.3835 30.0128C25.3953 29.9893 25.4129 29.9556 25.4339 29.9126C25.4764 29.8256 25.5365 29.6999 25.6079 29.5391C25.8037 29.0965 25.9778 28.6445 26.1295 28.1849C26.5069 27.0459 26.8878 25.4649 26.8878 23.7099H25.91Z" fill="#6A462F"/>
<path d="M24.932 31.2873C30.0618 31.2873 34.2204 25.1589 34.2204 17.5991C34.2204 10.0393 30.0618 3.91091 24.932 3.91091C19.8021 3.91091 15.6436 10.0393 15.6436 17.5991C15.6436 25.1589 19.8021 31.2873 24.932 31.2873Z" stroke="black" stroke-width="2.66667"/>
<path d="M24.9319 5.3775C24.9319 5.3775 23.4653 8.11318 23.4653 11.4883C23.4653 14.8634 24.9319 17.5991 24.9319 17.5991C24.9319 17.5991 26.3985 20.3348 26.3985 23.7099C26.3985 27.085 24.9319 29.8207 24.9319 29.8207" stroke="black" stroke-width="2.66667" stroke-linecap="round" stroke-linejoin="round"/>
<g clip-path="url(#clip0_1001_6564)">
<path d="M41.0342 30.1935C42.2621 32.3229 45.8014 32.5822 48.9395 30.7727C52.0775 28.9632 53.626 25.7701 52.3981 23.6407C51.1702 21.5113 47.6309 21.252 44.4929 23.0615C41.3548 24.871 39.8063 28.0642 41.0342 30.1935Z" fill="#A57939"/>
<path fill-rule="evenodd" clip-rule="evenodd" d="M41.0347 30.1935C41.0329 30.1905 41.0369 30.1871 41.0395 30.1897C42.6051 31.5758 45.6646 31.5235 48.4371 29.9248C51.2113 28.325 52.7892 25.7011 52.3715 23.6514C52.3677 23.6346 52.39 23.6259 52.3985 23.6407C53.6264 25.77 52.0779 28.9632 48.9399 30.7727C45.8018 32.5822 42.2625 32.3228 41.0347 30.1935Z" fill="#6A462F"/>
<path d="M48.3201 29.7217C46.964 30.5037 45.5433 30.9038 44.2784 30.9423C43.0111 30.9809 41.9199 30.6561 41.1948 30.014L40.884 30.365C41.7245 31.1089 42.946 31.4513 44.2928 31.4105C45.6424 31.3696 47.1377 30.9443 48.5541 30.1276L48.3201 29.7217ZM52.142 23.6979C52.3353 24.6475 52.0702 25.7549 51.4023 26.8333C50.7357 27.9094 49.6773 28.9391 48.3201 29.7217L48.5541 30.1276C49.9714 29.3103 51.0891 28.2283 51.8004 27.0802C52.5105 25.9342 52.8252 24.7049 52.6008 23.6045L52.1418 23.698L52.142 23.6979ZM52.1954 23.7577C52.7591 24.7352 52.6989 25.9799 52.0956 27.2245C51.4926 28.4675 50.3564 29.6854 48.8227 30.5698L49.0567 30.9756C50.6608 30.0506 51.868 28.7669 52.517 27.429C53.1652 26.0918 53.2655 24.6757 52.6012 23.5237L52.1954 23.7577ZM48.8227 30.5698C47.2887 31.4543 45.6659 31.8277 44.288 31.7266C42.9085 31.6255 41.801 31.054 41.2374 30.0765L40.8315 30.3106C41.4958 31.4626 42.772 32.0852 44.2538 32.1939C45.7366 32.3025 47.4522 31.9009 49.0567 30.9756L48.8227 30.5698ZM52.6006 23.6046C52.6105 23.6555 52.6021 23.7083 52.5768 23.7536C52.5515 23.7988 52.5111 23.8337 52.4626 23.8521C52.4141 23.8704 52.3606 23.871 52.3117 23.8537C52.2628 23.8364 52.2216 23.8024 52.1954 23.7577L52.6012 23.5237C52.5715 23.472 52.5242 23.4327 52.4679 23.413C52.4117 23.3933 52.3502 23.3946 52.2947 23.4165C52.1985 23.4541 52.1141 23.5623 52.1418 23.698L52.6006 23.6046ZM41.1946 30.0141C40.9865 29.8299 40.7014 30.0849 40.8315 30.3106L41.2374 30.0765C41.3637 30.2957 41.0867 30.5444 40.884 30.365L41.1946 30.0141Z" fill="#6A462F"/>
<path fill-rule="evenodd" clip-rule="evenodd" d="M41.6432 29.8425C41.6432 29.8425 43.2124 27.3152 46.0142 25.6996C48.8065 24.0894 51.7694 23.9925 51.7895 23.9917C51.7751 23.9922 50.296 24.0417 48.9019 24.8456C47.5011 25.6534 46.7163 26.9171 46.7163 26.9171C46.7163 26.9171 45.9318 28.1807 44.5308 28.9886C43.13 29.7963 41.6432 29.8425 41.6432 29.8425Z" fill="#6A462F"/>
<path d="M41.6431 29.8425L41.4442 29.719C41.4219 29.7549 41.4098 29.7963 41.4091 29.8386C41.4084 29.881 41.4192 29.9227 41.4404 29.9594C41.4615 29.9961 41.4922 30.0263 41.5292 30.047C41.5662 30.0676 41.6081 30.0778 41.6504 30.0765L41.6431 29.8425ZM51.7894 23.9917L51.797 24.2258C51.8591 24.2238 51.9179 24.1972 51.9604 24.1519C52.0029 24.1066 52.0256 24.0462 52.0237 23.9841C52.0217 23.922 51.9951 23.8633 51.9497 23.8208C51.9044 23.7783 51.8441 23.7555 51.782 23.7575L51.7894 23.9917ZM45.8971 25.4966C44.4681 26.3207 43.3564 27.3751 42.603 28.2209C42.2991 28.5613 42.012 28.9163 41.7426 29.2846C41.6467 29.4164 41.554 29.5505 41.4647 29.6869L41.4499 29.71L41.4458 29.7161L41.4448 29.7181L41.4442 29.7184L41.6431 29.8425C41.8422 29.9659 41.8423 29.9661 41.8421 29.9663L41.8427 29.9651L41.8457 29.9604L41.8586 29.9405C41.8757 29.9138 41.893 29.8873 41.9106 29.861C41.9789 29.7594 42.0492 29.6591 42.1214 29.5602C42.3817 29.2044 42.6592 28.8615 42.9528 28.5327C43.6847 27.711 44.7586 26.694 46.1312 25.9025L45.8971 25.4966ZM51.782 23.7575C51.7501 23.7586 48.7405 23.857 45.8971 25.4966L46.1312 25.9025C48.8727 24.3216 51.788 24.2261 51.7968 24.2259L51.782 23.7575ZM49.0188 25.0486C49.6878 24.6628 50.3806 24.4564 50.9106 24.3468C51.4396 24.2372 51.7991 24.2257 51.797 24.2258L51.7818 23.7576C51.7562 23.7583 50.2298 23.8094 48.785 24.6426L49.0188 25.0486ZM46.7162 26.9171C46.9153 27.0405 46.9154 27.0407 46.9152 27.0409L46.9167 27.0387C46.9266 27.0228 46.9369 27.0071 46.9473 26.9915C46.97 26.9576 47.0045 26.9077 47.0502 26.8449C47.178 26.6701 47.3144 26.5016 47.4586 26.34C47.8192 25.9352 48.3467 25.4361 49.0188 25.0486L48.785 24.6426C48.0565 25.0627 47.4909 25.5994 47.1087 26.0283C46.9543 26.2014 46.8085 26.3819 46.6716 26.5691C46.6222 26.6369 46.5746 26.7059 46.5286 26.776L46.5205 26.7882C46.5198 26.7897 46.5188 26.7909 46.5185 26.7918L46.5177 26.7928L46.5175 26.7932L46.7162 26.9171ZM46.7162 26.9171L46.5175 26.7932L46.5158 26.7955C46.5058 26.8114 46.4956 26.8272 46.4851 26.8427C46.4627 26.8765 46.4282 26.9264 46.3825 26.9892C46.2907 27.1152 46.1538 27.2923 45.9741 27.4941C45.6134 27.8989 45.0858 28.3981 44.4137 28.7857L44.6477 29.1915C45.3764 28.7713 45.9417 28.2347 46.3239 27.8058C46.4783 27.6327 46.6242 27.4522 46.7611 27.265C46.8133 27.1933 46.8636 27.1203 46.912 27.046L46.9142 27.0423L46.9149 27.0413L46.9152 27.0409L46.7162 26.9171ZM44.4137 28.7857C43.7416 29.1732 43.0454 29.3797 42.5143 29.4889C42.3022 29.5328 42.0882 29.5665 41.8729 29.5897C41.7948 29.5978 41.7166 29.604 41.6383 29.6081L41.636 29.6084L41.6431 29.8425L41.6504 30.0765L41.6511 30.0764C41.6516 30.0767 41.652 30.0764 41.6525 30.0764C41.6534 30.0766 41.6549 30.0763 41.6566 30.0765L41.6713 30.0758C41.6839 30.075 41.7021 30.0743 41.725 30.0727C41.7713 30.0695 41.8378 30.0644 41.9217 30.0555C42.1523 30.0309 42.3815 29.9949 42.6086 29.9479C43.1718 29.8319 43.9192 29.6116 44.6477 29.1915L44.4137 28.7857Z" fill="#6A462F"/>
<path d="M41.0342 30.1935C42.2621 32.3229 45.8014 32.5822 48.9395 30.7727C52.0775 28.9632 53.626 25.7701 52.3981 23.6407C51.1702 21.5113 47.6309 21.252 44.4929 23.0615C41.3548 24.871 39.8063 28.0642 41.0342 30.1935Z" stroke="black" stroke-width="2.66667"/>
<path d="M51.7895 23.9917C51.7895 23.9917 50.3029 24.0378 48.9019 24.8456C47.5009 25.6535 46.7164 26.9171 46.7164 26.9171C46.7164 26.9171 45.9318 28.1807 44.5308 28.9886C43.1298 29.7965 41.6432 29.8425 41.6432 29.8425" stroke="black" stroke-width="2.66667" stroke-linecap="round" stroke-linejoin="round"/>
</g>
<g clip-path="url(#clip1_1001_6564)">
<path d="M13.6438 44.9644C15.9043 43.999 16.5834 40.5158 15.1606 37.1845C13.7379 33.8532 10.752 31.9353 8.49146 32.9008C6.23095 33.8662 5.55182 37.3494 6.97458 40.6807C8.39735 44.012 11.3832 45.9299 13.6438 44.9644Z" fill="#A57939"/>
<path fill-rule="evenodd" clip-rule="evenodd" d="M13.6435 44.9644C13.6402 44.9658 13.6374 44.9614 13.6402 44.9592C15.203 43.5699 15.5156 40.526 14.2585 37.5827C13.0007 34.6376 10.5835 32.7584 8.49862 32.9289C8.48152 32.9306 8.47546 32.9075 8.49118 32.9008C10.7516 31.9354 13.7376 33.8532 15.1604 37.1845C16.5831 40.5158 15.9039 43.999 13.6435 44.9644Z" fill="#6A462F"/>
<path d="M14.0429 37.6744C14.6578 39.1141 14.8857 40.5723 14.7733 41.8328C14.6606 43.0957 14.2081 44.1404 13.4842 44.7838L13.7956 45.1343C14.6344 44.3883 15.1199 43.2164 15.2398 41.8743C15.3601 40.5294 15.1159 38.9941 14.4737 37.4904L14.0429 37.6744ZM8.51733 33.1621C9.48317 33.0833 10.5511 33.4784 11.5423 34.2701C12.5313 35.0602 13.4276 36.2337 14.0429 37.6744L14.4737 37.4904C13.8312 35.9859 12.89 34.7473 11.8348 33.9042C10.7816 33.0626 9.59856 32.6038 8.47925 32.6954L8.51742 33.1623L8.51733 33.1621ZM8.58306 33.1162C9.62075 32.673 10.8495 32.8811 12.0132 33.6283C13.1756 34.3752 14.2494 35.6484 14.9448 37.2765L15.3756 37.0925C14.6483 35.3896 13.5176 34.0381 12.2665 33.2343C11.0161 32.4314 9.622 32.1631 8.39905 32.6854L8.58306 33.1162ZM14.9448 37.2765C15.6403 38.9049 15.8176 40.5607 15.5531 41.9167C15.2883 43.2743 14.589 44.3058 13.5513 44.749L13.7353 45.1799C14.9583 44.6575 15.7285 43.4646 16.013 42.0063C16.2975 40.547 16.1031 38.7959 15.3756 37.0925L14.9448 37.2765ZM8.47934 32.6956C8.53106 32.6919 8.58244 32.7066 8.62439 32.737C8.66634 32.7675 8.69617 32.8118 8.70858 32.8622C8.721 32.9125 8.71521 32.9656 8.69224 33.0121C8.66926 33.0586 8.63059 33.0955 8.58306 33.1162L8.39905 32.6854C8.34419 32.7087 8.29956 32.751 8.27332 32.8045C8.24707 32.8581 8.24097 32.9193 8.25612 32.9769C8.28201 33.0769 8.37937 33.1737 8.51742 33.1623L8.47934 32.6956ZM13.4843 44.784C13.2766 44.9687 13.4958 45.2822 13.7353 45.1799L13.5513 44.749C13.784 44.6496 13.9979 44.9544 13.7956 45.1343L13.4843 44.784Z" fill="#6A462F"/>
<path fill-rule="evenodd" clip-rule="evenodd" d="M13.3679 44.3182C13.3679 44.3182 11.0455 42.459 9.77523 39.4846C8.50924 36.5204 8.76601 33.5671 8.76763 33.5471C8.76635 33.5614 8.63935 35.0359 9.27143 36.5158C9.90654 38.0029 11.0678 38.9326 11.0678 38.9326C11.0678 38.9326 12.2289 39.8621 12.8641 41.3494C13.4992 42.8364 13.3679 44.3182 13.3679 44.3182Z" fill="#6A462F"/>
<path d="M13.3678 44.3182L13.2214 44.5009C13.2545 44.5273 13.2941 44.5443 13.336 44.55C13.378 44.5557 13.4207 44.55 13.4597 44.5334C13.4986 44.5167 13.5323 44.4898 13.5572 44.4556C13.5821 44.4213 13.5972 44.381 13.601 44.3388L13.3678 44.3182ZM8.7675 33.5471L9.00084 33.5674C9.00625 33.5055 8.98686 33.444 8.94692 33.3964C8.90698 33.3488 8.84977 33.319 8.78788 33.3136C8.72598 33.3081 8.66447 33.3275 8.61687 33.3675C8.56927 33.4074 8.53949 33.4646 8.53407 33.5265L8.7675 33.5471ZM9.55967 39.5766C10.2076 41.0937 11.1221 42.3231 11.8721 43.1719C12.1738 43.5142 12.4921 43.8415 12.8257 44.1528C12.9451 44.2638 13.0672 44.3718 13.192 44.4768L13.2132 44.4942L13.2188 44.499L13.2206 44.5002L13.2209 44.5009L13.3678 44.3182C13.514 44.1352 13.5142 44.1351 13.5143 44.1353L13.5132 44.1345L13.5089 44.131L13.4907 44.1159C13.4663 44.0957 13.442 44.0754 13.418 44.0547C13.3252 43.9748 13.234 43.8931 13.1444 43.8096C12.8222 43.5088 12.5148 43.1924 12.2233 42.8617C11.4946 42.0371 10.6128 40.8498 9.99052 39.3926L9.55967 39.5766ZM8.53407 33.5265C8.53132 33.5583 8.2705 36.5581 9.55967 39.5766L9.99052 39.3926C8.74753 36.4823 9.00009 33.5763 9.00093 33.5676L8.53407 33.5265ZM9.48672 36.4238C9.18338 35.7136 9.06099 35.0012 9.01531 34.4619C8.96957 33.9236 9.00096 33.5653 9.00084 33.5674L8.53416 33.5267C8.53179 33.5522 8.40071 35.0738 9.05578 36.6076L9.48672 36.4238ZM11.0676 38.9326C11.2139 38.7497 11.2141 38.7496 11.2142 38.7498L11.2122 38.7481C11.1976 38.7363 11.1832 38.7243 11.169 38.712C11.1381 38.6855 11.0927 38.6453 11.0357 38.5924C10.8774 38.4447 10.7263 38.2893 10.5831 38.1268C10.2242 37.7205 9.79144 37.1373 9.48672 36.4238L9.05578 36.6076C9.38608 37.381 9.85162 38.0064 10.2319 38.437C10.3854 38.6109 10.5472 38.7773 10.7168 38.9355C10.7782 38.9926 10.841 39.0481 10.9052 39.1021L10.9164 39.1116C10.9178 39.1125 10.9187 39.1136 10.9197 39.114L10.9206 39.1149L10.921 39.1152L11.0676 38.9326ZM11.0676 38.9326L10.921 39.1152L10.923 39.1171C10.9376 39.1289 10.952 39.1409 10.9662 39.1532C10.9971 39.1795 11.0425 39.2197 11.0995 39.2726C11.2136 39.3787 11.3731 39.5357 11.552 39.7382C11.911 40.1445 12.3438 40.7279 12.6485 41.4414L13.0794 41.2574C12.749 40.4838 12.2835 39.8586 11.9033 39.428C11.7498 39.2541 11.588 39.0877 11.4183 38.9295C11.3534 38.8692 11.2869 38.8105 11.2189 38.7536L11.2155 38.751L11.2146 38.7501L11.2142 38.7498L11.0676 38.9326ZM12.6485 41.4414C12.9533 42.1549 13.0753 42.8707 13.1204 43.411C13.1388 43.6268 13.1467 43.8434 13.1441 44.0599C13.1429 44.1383 13.1397 44.2167 13.1345 44.295L13.1345 44.2973L13.3678 44.3182L13.601 44.3388L13.6009 44.3381C13.6012 44.3377 13.6011 44.3372 13.6011 44.3367C13.6015 44.3358 13.6013 44.3343 13.6017 44.3326L13.6027 44.3179C13.6035 44.3054 13.6049 44.2872 13.6061 44.2643C13.6084 44.2179 13.6113 44.1512 13.6125 44.0669C13.6154 43.835 13.6071 43.6031 13.5875 43.372C13.5394 42.7991 13.4097 42.0307 13.0794 41.2574L12.6485 41.4414Z" fill="#6A462F"/>
<path d="M13.6438 44.9644C15.9043 43.999 16.5834 40.5158 15.1606 37.1845C13.7379 33.8532 10.752 31.9353 8.49146 32.9008C6.23095 33.8662 5.55182 37.3494 6.97458 40.6807C8.39735 44.012 11.3832 45.9299 13.6438 44.9644Z" stroke="black" stroke-width="2.66667"/>
<path d="M8.76736 33.5471C8.76736 33.5471 8.63595 35.0286 9.27116 36.5159C9.90636 38.0031 11.0675 38.9326 11.0675 38.9326C11.0675 38.9326 12.2286 39.8621 12.8638 41.3494C13.499 42.8367 13.3676 44.3182 13.3676 44.3182" stroke="black" stroke-width="2.66667" stroke-linecap="round" stroke-linejoin="round"/>
</g>
<defs>
<clipPath id="clip0_1001_6564">
<rect width="16.8658" height="16.8658" fill="white" transform="translate(49.8091 15.3992) rotate(60.0305)"/>
</clipPath>
<clipPath id="clip1_1001_6564">
<rect width="16.8658" height="16.8658" fill="white" transform="translate(0 34.4896) rotate(-23.1269)"/>
</clipPath>
</defs>
</svg>
