<svg width="23" height="28" viewBox="0 0 23 28" fill="none" xmlns="http://www.w3.org/2000/svg">
<g id="simple-line-icons:location-pin">
<path id="Vector" d="M11.2725 2C6.3529 2 2.18665 6.18988 2.18665 11.1534C2.18665 16.3509 7.01552 21.6661 10.2638 25.4019C10.2761 25.4169 10.8012 26 11.448 26H11.5054C12.1523 26 12.6735 25.4169 12.6866 25.4019C15.735 21.8975 20.1866 16.1195 20.1866 11.1534C20.1866 6.18988 16.9369 2 11.2725 2ZM11.5733 24.3958C11.547 24.422 11.5087 24.4513 11.475 24.4756C11.4405 24.452 11.403 24.422 11.3753 24.3958L10.983 23.9446C7.90352 20.4117 3.68665 15.5739 3.68665 11.1534C3.68665 7.00475 7.16065 3.49962 11.2725 3.49962C16.3943 3.49962 18.6866 7.34338 18.6866 11.1534C18.6866 14.5093 16.293 18.965 11.5733 24.3958ZM11.2129 6.54163C8.72775 6.54163 6.71287 8.5565 6.71287 11.0416C6.71287 13.5268 8.72775 15.5416 11.2129 15.5416C13.698 15.5416 15.7129 13.5268 15.7129 11.0416C15.7129 8.5565 13.698 6.54163 11.2129 6.54163ZM11.2129 14.0416C9.55875 14.0416 8.17835 12.6631 8.17835 11.0086C8.17835 9.3545 9.52422 8.00863 11.1783 8.00863C12.8336 8.00863 14.1783 9.3545 14.1783 11.0086C14.1791 12.6631 12.8681 14.0416 11.2129 14.0416Z" fill="#6C7072"/>
</g>
</svg>
