<svg width="48" height="48" viewBox="0 0 48 48" fill="none" xmlns="http://www.w3.org/2000/svg">
<g id="noto:pencil">
<path id="Vector" d="M46.4515 44.55L44.134 38.3662L42.5402 34.11C42.1802 33.0112 42.1127 32.5575 41.5015 31.9462L37.069 27.5137L27.5215 37.0612L31.9577 41.4975C32.3215 41.8612 33.019 42.1725 34.1177 42.5325L38.374 44.1262L44.5577 46.4437C45.724 46.8225 46.8302 45.7162 46.4515 44.55Z" fill="#FFECB3"/>
<path id="Vector_2" d="M41.1824 44.6447C41.8669 44.4015 42.6628 43.9981 43.3324 43.3285C44.0034 42.6575 44.4077 41.859 44.6515 41.1727L45.9788 44.714C46.2212 45.4851 45.4926 46.2137 44.7216 45.9713L41.1824 44.6447Z" fill="#616161" stroke="black"/>
<path id="Vector_3" d="M11.5978 2.7498L15.6322 6.78779L13.7561 13.4772L6.78946 15.6187L2.7574 11.5902C2.26437 11.0972 1.90071 10.3635 1.98816 9.41185C2.0766 8.44954 2.63347 7.19374 4.13365 5.69355L6.0049 3.8223C7.28257 2.54464 8.45815 2.05551 9.4042 1.98698C10.351 1.91839 11.114 2.26602 11.5978 2.7498Z" fill="#EF5350" stroke="black"/>
<path id="Vector_4" d="M12.8511 16.74L16.7398 12.8513L39.3261 35.4375C39.3261 35.4375 39.7873 37.3575 38.6136 38.5313C37.4398 39.705 35.4373 39.3263 35.4373 39.3263L12.8511 16.74Z" fill="#FFC107"/>
<path id="Vector_5" d="M32.239 41.0755L10.731 19.5675L12.8514 17.4471L34.8802 39.4759C34.8763 39.5291 34.8698 39.5918 34.8593 39.6612C34.8244 39.8932 34.7484 40.1778 34.5921 40.4331C34.4407 40.6806 34.212 40.9054 33.8478 41.0376C33.4979 41.1645 32.9854 41.2193 32.239 41.0755Z" fill="#FFA000" stroke="black"/>
<path id="Vector_6" d="M39.4747 34.8714L17.4508 12.8475L19.5712 10.7271L41.072 32.2279C41.4728 32.9963 41.5087 33.4937 41.4323 33.8049C41.3564 34.1134 41.1449 34.3394 40.8325 34.5118C40.5141 34.6875 40.13 34.7834 39.8065 34.8331C39.678 34.8528 39.564 34.8645 39.4747 34.8714Z" fill="#FDD835" stroke="black"/>
<path id="Vector_7" d="M35.3513 39.765L12.6226 17.0363L13.1513 16.5075L36.0263 39.3825L35.4376 39.3225L35.3513 39.765Z" fill="#D1762C"/>
<path id="Vector_8" d="M39.4162 36.0562L15.0562 11.6962L15.5887 11.1675L39.7649 35.3437L39.3262 35.4337L39.4162 36.0562Z" fill="#F19534"/>
<path id="Vector_9" opacity="0.2" d="M19.5714 10.02C19.5714 10.02 17.5202 13.0538 15.8214 14.7713C12.5702 18.0488 10.0239 19.5675 10.0239 19.5675L10.6802 20.2238C11.6139 19.86 14.0027 18.7688 16.3877 16.3875C18.7877 13.9875 19.9202 11.6438 20.2989 10.7475L19.5714 10.02Z" fill="#4E342E"/>
<path id="Vector_10" d="M8.80877 19.4625C9.01877 19.6725 9.31502 19.7662 9.60752 19.7175C9.60752 19.7175 12.6788 18.78 15.7313 15.7275C18.7838 12.675 19.7925 9.70125 19.7925 9.70125C19.8413 9.40875 19.7475 9.10875 19.5375 8.89875L16.32 5.68125C16.185 5.54625 15.9975 5.475 15.81 5.4975C15.7463 5.505 15.6825 5.5125 15.615 5.52375C15.36 5.56125 15.1575 5.74875 15.0863 5.99625C15.0863 5.99625 13.6163 8.84625 11.1938 11.265C8.77127 13.6837 5.81627 15.0937 5.81627 15.0937C5.56877 15.1612 5.37752 15.36 5.34002 15.615V15.6225C5.31002 15.825 5.37752 16.0275 5.52002 16.17L8.80877 19.4625Z" fill="#94D1E0"/>
<path id="Vector_11" d="M6.82291 6.82131C9.02396 4.62018 10.28 2.30752 9.62827 1.65585C8.97657 1.00417 6.66395 2.26025 4.4629 4.46138C2.26185 6.66251 1.00585 8.97517 1.65754 9.62685C2.30924 10.2785 4.62186 9.02244 6.82291 6.82131Z" fill="#FF8383"/>
<path id="Vector_12" d="M15.604 8.1525C14.3702 10.515 12.3415 12.4538 9.92649 13.575C9.76899 13.6463 9.54774 13.6988 9.45399 13.5563C9.38274 13.4438 9.44649 13.3013 9.51774 13.1888C9.83274 12.7013 10.2677 12.3075 10.6877 11.9063C11.7827 10.8563 12.7877 9.71625 13.6915 8.50125C14.1527 7.8825 14.584 7.245 14.989 6.58875C15.214 6.22875 15.6152 5.4675 16.129 6.00375C16.5752 6.465 15.8402 7.69875 15.604 8.1525ZM14.2052 12.5513C14.1077 12.6525 14.0065 12.7538 13.9577 12.885C13.909 13.0163 13.9277 13.185 14.0402 13.2675C14.134 13.3388 14.2615 13.3313 14.3777 13.3125C15.0265 13.2113 15.6002 12.8438 16.1065 12.4313C17.2127 11.535 18.1502 10.29 18.2402 8.86875C18.2515 8.7 18.2477 8.52375 18.1727 8.37375C17.6965 7.4325 16.6877 9.53625 16.489 9.8325C15.8252 10.8188 15.034 11.7038 14.2052 12.5513Z" fill="#B9E4EA"/>
</g>
</svg>
