<svg width="46" height="40" viewBox="0 0 46 40" fill="none" xmlns="http://www.w3.org/2000/svg">
<path id="cup" d="M30.7959 33.2203V39.5H0.5V0.5H30.7959V5.61573V5.61704V6.11704H31.2959C34.8237 6.11704 38.207 7.51843 40.7015 10.013C43.1961 12.5075 44.5975 15.8908 44.5975 19.4186C44.5975 22.9464 43.1961 26.3298 40.7015 28.8243C38.207 31.3188 34.8237 32.7203 31.2959 32.7203H30.7959V33.2203ZM31.2895 10.8213L30.7959 10.8276V11.3213V27.52V27.5252V28.0189L31.2895 28.0251C32.4283 28.0396 33.5586 27.8277 34.6149 27.4019C35.6712 26.9761 36.6325 26.3448 37.4429 25.5446C38.2533 24.7444 38.8967 23.7913 39.3359 22.7405C39.775 21.6896 40.0012 20.5621 40.0012 19.4232C40.0012 18.2843 39.775 17.1568 39.3359 16.1059C38.8967 15.0551 38.2533 14.102 37.4429 13.3018C36.6324 12.5016 35.6712 11.8703 34.6149 11.4445C33.5586 11.0187 32.4283 10.8069 31.2895 10.8213Z" fill="#0CBC8B" stroke="black"/>
</svg>
