<svg width="49" height="48" viewBox="0 0 49 48" fill="none" xmlns="http://www.w3.org/2000/svg">
<g id="noto:key">
<path id="Vector" d="M40.4945 5.685C35.057 1.38 27.0207 3.345 22.9745 6.885C18.4445 10.845 18.317 17.1038 20.6757 22.215L4.33323 38.2537C3.66948 38.9062 2.98698 43.575 3.02073 44.4937L5.23323 46.0387C5.23323 46.0387 8.97948 47.16 10.6107 45.885C12.242 44.61 13.6745 42.3 13.5057 41.2612C13.4082 40.665 13.5357 40.11 13.922 39.7312C14.402 39.2587 15.167 39.18 15.9432 39.4387C16.5395 39.6375 17.2032 39.4688 17.6495 39.03L17.807 38.8762C18.4407 38.2837 18.512 37.5937 18.3882 37.0162C18.197 36.12 18.5232 35.3775 19.0257 34.7212C19.4607 34.1512 20.2857 33.9112 21.0057 33.9C22.3032 33.8812 23.1432 33.6037 24.062 32.7037L26.4545 30.3637C31.8395 32.7637 38.4432 31.68 42.7295 27.1087C48.227 21.2437 46.8207 10.695 40.4945 5.685ZM37.2545 18.1912C35.7545 19.6612 33.3245 19.6612 31.8245 18.1912C30.3245 16.7212 30.3245 14.3325 31.8245 12.8625C33.3245 11.3925 35.7545 11.3925 37.2545 12.8625C38.7545 14.3325 38.7545 16.7212 37.2545 18.1912Z" fill="#9E740B"/>
<path id="Vector_2" d="M17.8801 21.5904L17.6381 21.8309L3.37008 36.0089L17.8801 21.5904ZM17.8801 21.5904L17.7444 21.2773M17.8801 21.5904L17.7444 21.2773M17.7444 21.2773C15.5582 16.2352 16.5219 10.1596 20.643 6.03855C26.0277 0.653815 34.7561 0.653815 40.1409 6.03855C45.5255 11.4231 45.5257 20.1516 40.1484 25.5402C35.9222 29.7664 29.6402 30.6757 24.5261 28.2688L24.209 28.1196L23.9605 28.3668L21.718 30.5981L21.7171 30.5989C21.2921 31.024 20.9049 31.2821 20.4914 31.4412C20.074 31.6018 19.5984 31.6737 18.9773 31.6826L18.9766 31.6826C18.1854 31.6949 17.1584 31.9577 16.5847 32.7275L16.5846 32.7277C16.0369 33.4635 15.6233 34.3697 15.8548 35.4865L15.855 35.4872C15.9524 35.9536 15.8979 36.4712 15.4107 36.9356L15.4106 36.9355L15.4021 36.9439L15.2423 37.1038C15.242 37.1041 15.2417 37.1044 15.2414 37.1046C14.9171 37.4257 14.4275 37.5296 13.9478 37.3792L13.9464 37.3787M17.7444 21.2773L13.9464 37.3787M16.9857 33.0262C16.4832 33.7012 16.1532 34.4625 16.3444 35.385L16.9857 33.0262ZM16.9857 33.0262C17.4244 32.4375 18.2607 32.1938 18.9844 32.1825L16.9857 33.0262ZM13.9464 37.3787C13.0796 37.1097 12.1216 37.1794 11.4721 37.8289C10.9232 38.3779 10.7847 39.154 10.9212 39.8994C11.0701 40.7275 10.7349 41.6075 10.0921 42.2502L8.91461 43.4277C8.34754 43.9948 7.56699 44.3056 6.7597 44.2831L3.47805 44.0311C3.45888 43.9015 3.43087 43.7515 3.38985 43.5931C3.29123 43.2122 3.09246 42.6851 2.67107 42.3306L2.51537 38.1729C2.51537 38.1727 2.51536 38.1724 2.51535 38.1721C2.50179 37.7724 2.57062 37.3741 2.71757 37.002C2.86449 36.63 3.08635 36.2923 3.36935 36.0097L13.9464 37.3787ZM29.5584 10.4314C27.8477 12.1383 27.8485 14.9112 29.5584 16.6211C31.2652 18.3317 34.0381 18.3309 35.748 16.6211C37.4577 14.9113 37.4586 12.1388 35.7484 10.4319C34.0415 8.7208 31.2684 8.72143 29.5584 10.4314Z" fill="#FFCA28" stroke="black"/>
<path id="Vector_3" d="M2.18066 42.5962C2.18066 42.5962 2.64566 42.9112 3.02066 44.4975L20.8257 26.3962C21.4069 25.7587 18.8007 26.0887 18.0207 26.865L2.18066 42.5962Z" fill="#DBA010"/>
<path id="Vector_4" d="M22.7418 7.47C21.2793 8.265 19.6293 10.395 19.1755 13.47C18.763 16.26 18.9393 18.1987 19.8768 19.83C20.938 21.6712 22.3818 20.6962 21.8005 18.9037C21.418 17.7225 21.3205 17.2762 21.268 16.0237C21.2268 15.045 21.328 14.0587 21.6055 13.1212C22.2955 10.7962 23.8968 9.27 24.3655 8.51625C24.9618 7.5525 24.0205 6.76875 22.7418 7.47ZM12.4743 29.895C11.4093 30.8025 12.5118 27.9787 13.3293 27.0262C14.4055 25.7662 16.9555 23.0925 17.4055 22.8637C18.0205 22.5525 17.983 24.27 17.7318 24.585C16.8393 25.6875 13.543 28.9875 12.4743 29.895Z" fill="#FFF59D"/>
</g>
</svg>
