<svg width="30" height="28" viewBox="0 0 30 28" fill="none" xmlns="http://www.w3.org/2000/svg">
<g id="fluent:calendar-ltr-28-regular">
<path id="Vector" d="M23.328 2C24.2683 2 25.1701 2.37354 25.835 3.03844C26.4999 3.70334 26.8734 4.60514 26.8734 5.54545V22.4545C26.8734 23.3949 26.4999 24.2967 25.835 24.9616C25.1701 25.6265 24.2683 26 23.328 26H6.41887C5.47855 26 4.57675 25.6265 3.91185 24.9616C3.24695 24.2967 2.87341 23.3949 2.87341 22.4545V5.54545C2.87341 4.60514 3.24695 3.70334 3.91185 3.03844C4.57675 2.37354 5.47855 2 6.41887 2H23.328ZM25.2371 9.09418H4.50978V22.4545C4.50978 23.5084 5.36505 24.3636 6.41887 24.3636H23.328C23.8343 24.3636 24.3199 24.1625 24.6779 23.8045C25.0359 23.4465 25.2371 22.9609 25.2371 22.4545V9.09418ZM9.14505 17.8193C9.50671 17.8193 9.85355 17.9629 10.1093 18.2187C10.365 18.4744 10.5087 18.8213 10.5087 19.1829C10.5087 19.5446 10.365 19.8914 10.1093 20.1471C9.85355 20.4029 9.50671 20.5465 9.14505 20.5465C8.78339 20.5465 8.43654 20.4029 8.18081 20.1471C7.92508 19.8914 7.78141 19.5446 7.78141 19.1829C7.78141 18.8213 7.92508 18.4744 8.18081 18.2187C8.43654 17.9629 8.78339 17.8193 9.14505 17.8193ZM14.8767 17.8193C15.2383 17.8193 15.5852 17.9629 15.8409 18.2187C16.0967 18.4744 16.2403 18.8213 16.2403 19.1829C16.2403 19.5446 16.0967 19.8914 15.8409 20.1471C15.5852 20.4029 15.2383 20.5465 14.8767 20.5465C14.515 20.5465 14.1682 20.4029 13.9124 20.1471C13.6567 19.8914 13.5131 19.5446 13.5131 19.1829C13.5131 18.8213 13.6567 18.4744 13.9124 18.2187C14.1682 17.9629 14.515 17.8193 14.8767 17.8193ZM9.14505 12.3647C9.50671 12.3647 9.85355 12.5084 10.1093 12.7641C10.365 13.0199 10.5087 13.3667 10.5087 13.7284C10.5087 14.09 10.365 14.4369 10.1093 14.6926C9.85355 14.9483 9.50671 15.092 9.14505 15.092C8.78339 15.092 8.43654 14.9483 8.18081 14.6926C7.92508 14.4369 7.78141 14.09 7.78141 13.7284C7.78141 13.3667 7.92508 13.0199 8.18081 12.7641C8.43654 12.5084 8.78339 12.3647 9.14505 12.3647ZM14.8767 12.3647C15.2383 12.3647 15.5852 12.5084 15.8409 12.7641C16.0967 13.0199 16.2403 13.3667 16.2403 13.7284C16.2403 14.09 16.0967 14.4369 15.8409 14.6926C15.5852 14.9483 15.2383 15.092 14.8767 15.092C14.515 15.092 14.1682 14.9483 13.9124 14.6926C13.6567 14.4369 13.5131 14.09 13.5131 13.7284C13.5131 13.3667 13.6567 13.0199 13.9124 12.7641C14.1682 12.5084 14.515 12.3647 14.8767 12.3647ZM20.6094 12.3647C20.9711 12.3647 21.3179 12.5084 21.5737 12.7641C21.8294 13.0199 21.973 13.3667 21.973 13.7284C21.973 14.09 21.8294 14.4369 21.5737 14.6926C21.3179 14.9483 20.9711 15.092 20.6094 15.092C20.2478 15.092 19.9009 14.9483 19.6452 14.6926C19.3894 14.4369 19.2458 14.09 19.2458 13.7284C19.2458 13.3667 19.3894 13.0199 19.6452 12.7641C19.9009 12.5084 20.2478 12.3647 20.6094 12.3647ZM23.328 3.63636H6.41887C5.91255 3.63636 5.42696 3.8375 5.06894 4.19552C4.71091 4.55355 4.50978 5.03913 4.50978 5.54545V7.45782H25.2371V5.54545C25.2371 5.03913 25.0359 4.55355 24.6779 4.19552C24.3199 3.8375 23.8343 3.63636 23.328 3.63636Z" fill="#FB5607"/>
</g>
</svg>
