<svg width="50" height="50" viewBox="0 0 50 50" fill="none" xmlns="http://www.w3.org/2000/svg">
<g id="Group 26">
<path id="Vector" d="M25 46.4325C36.8369 46.4325 46.4326 36.8368 46.4326 24.9999C46.4326 13.163 36.8369 3.56725 25 3.56725C13.1631 3.56725 3.56738 13.163 3.56738 24.9999C3.56738 36.8368 13.1631 46.4325 25 46.4325Z" fill="white"/>
<path id="Vector_2" d="M25 49C38.2548 49 49 38.2548 49 25C49 11.7452 38.2548 1 25 1C11.7452 1 1 11.7452 1 25C1 38.2548 11.7452 49 25 49Z" stroke="#DE9428" stroke-width="2" stroke-linecap="round" stroke-linejoin="round"/>
<path id="Vector_3" d="M29.5648 21.0368C29.8357 21.3471 30.074 21.6843 30.2759 22.0433C30.5662 22.5728 31.0143 22.9985 31.5579 23.2612C32.1016 23.5239 32.7136 23.6105 33.3088 23.5089L40.6007 22.2076C41.0147 22.1339 41.4075 21.9702 41.7513 21.7281C42.0951 21.486 42.3816 21.1713 42.5905 20.8064C42.7994 20.4414 42.9256 20.0351 42.9603 19.616C42.9949 19.1969 42.9372 18.7754 42.7911 18.381C41.6521 15.3154 39.7372 12.5977 37.2336 10.4936C36.9119 10.2231 36.5348 10.0265 36.1288 9.91765C35.7228 9.80879 35.2979 9.79034 34.8841 9.86359C34.4702 9.93684 34.0774 10.1 33.7335 10.3416C33.3895 10.5832 33.1028 10.8973 32.8934 11.2617L29.2045 17.6791C28.9065 18.2063 28.781 18.8136 28.8457 19.4158C28.9103 20.018 29.1618 20.5848 29.5648 21.0368Z" fill="#FFCE43"/>
<path id="Vector_4" d="M15.9217 33.6329C17.1243 33.8242 18.2563 34.3254 19.2064 35.0872L20.7965 32.3209C21.0945 31.7935 21.2199 31.1861 21.1552 30.5838C21.0904 29.9816 20.8388 29.4147 20.4355 28.9627C20.1646 28.6525 19.9262 28.3154 19.7242 27.9565C19.434 27.427 18.9859 27.0012 18.4423 26.7385C17.8988 26.4757 17.2867 26.3891 16.6916 26.4906L12.0454 27.32C12.3882 32.2329 13.4612 33.2815 15.9217 33.6329Z" fill="#FFCE43"/>
<path id="Vector_5" d="M20.7565 17.7017C21.0647 18.2232 21.5283 18.6352 22.0825 18.8799C22.6366 19.1246 23.2534 19.1897 23.8464 19.066C24.2504 18.9861 24.6615 18.948 25.0733 18.9524C25.6769 18.9652 26.2694 18.7895 26.7684 18.4497C27.2674 18.1099 27.648 17.623 27.8572 17.0567L30.3711 10.0893C30.5139 9.69378 30.5682 9.27176 30.5301 8.853C30.492 8.43424 30.3624 8.02895 30.1505 7.66575C29.9386 7.30255 29.6496 6.99028 29.3038 6.751C28.958 6.51173 28.5639 6.35127 28.1494 6.28096C24.9244 5.7368 21.6133 6.03868 18.5399 7.1571C18.1449 7.30076 17.7863 7.52933 17.4892 7.82671C17.1922 8.12408 16.964 8.48302 16.8208 8.87818C16.6776 9.27335 16.6229 9.69512 16.6604 10.1138C16.698 10.5324 16.8269 10.9377 17.0382 11.301L20.7565 17.7017Z" fill="#FFCE43"/>
<path id="Vector_6" d="M29.2435 32.298C28.9354 31.7764 28.4718 31.3644 27.9176 31.1197C27.3635 30.875 26.7466 30.81 26.1537 30.9337C25.7496 31.0134 25.3385 31.0514 24.9267 31.0473C24.3232 31.0344 23.7306 31.2101 23.2316 31.5499C22.7326 31.8897 22.352 32.3766 22.1429 32.9429L20.8345 36.5691C21.182 36.9457 21.5492 37.3038 21.9344 37.6417C23.048 38.5325 27.2794 38.9779 27.2794 39.646C27.2794 40.1184 28.0589 42.3716 28.5153 43.6515C29.5168 43.4615 30.5014 43.191 31.4595 42.8426C31.8545 42.6989 32.2131 42.4704 32.5102 42.173C32.8072 41.8757 33.0354 41.5168 33.1786 41.1216C33.3218 40.7265 33.3766 40.3048 33.3391 39.8861C33.3015 39.4675 33.1726 39.0622 32.9614 38.6989L29.2435 32.298Z" fill="#FFCE43"/>
<path id="Vector_7" d="M11.9126 22.4976C11.9126 23.4138 11.9221 24.2505 11.9413 25.0209L16.5576 25.0149C17.1633 25.0096 17.7522 24.8148 18.2416 24.4579C18.731 24.101 19.0965 23.5999 19.2867 23.0248C19.42 22.6352 19.5931 22.2603 19.8031 21.9061C20.1169 21.3902 20.2619 20.7893 20.218 20.1871C20.1741 19.5849 19.9434 19.0114 19.5582 18.5465L14.7886 12.8795C14.518 12.5575 14.1799 12.299 13.7984 12.122C13.4169 11.945 13.0011 11.854 12.5806 11.8553C12.16 11.8566 11.7448 11.9503 11.3644 12.1296C10.984 12.309 10.6476 12.5697 10.379 12.8933C9.43348 14.0349 8.62565 15.2838 7.97217 16.6143C10.0529 17.0023 11.9126 18.4739 11.9126 22.4976Z" fill="#FFCE43"/>
<path id="Vector_8" d="M40.8449 24.9751L33.4425 24.9847C32.8367 24.99 32.2479 25.1848 31.7585 25.5418C31.2691 25.8987 30.9037 26.3999 30.7136 26.9751C30.5801 27.3646 30.407 27.7395 30.1969 28.0937C29.8832 28.6096 29.7382 29.2104 29.7821 29.8126C29.826 30.4147 30.0567 30.9882 30.4419 31.4531L35.2114 37.1203C35.4821 37.4423 35.8201 37.7008 36.2017 37.8778C36.5832 38.0548 36.9989 38.1458 37.4195 38.1445C37.8401 38.1432 38.2552 38.0495 38.6356 37.8702C39.0161 37.6908 39.3525 37.4301 39.6211 37.1065C41.7081 34.5883 43.1061 31.5718 43.6784 28.3516C43.7521 27.9378 43.734 27.5128 43.6256 27.1067C43.5171 26.7006 43.3208 26.3232 43.0506 26.0013C42.7804 25.6793 42.4428 25.4205 42.0617 25.2432C41.6806 25.0659 41.2652 24.9744 40.8449 24.9751Z" fill="#FFCE43"/>
<path id="Vector_9" d="M7.20931 31.6188C8.34835 34.6847 10.2634 37.4025 12.7672 39.5067C13.0889 39.7772 13.4661 39.9738 13.872 40.0827C14.278 40.1915 14.7029 40.21 15.1168 40.1367C15.5307 40.0635 15.9234 39.9003 16.2674 39.6587C16.6113 39.4172 16.8981 39.1031 17.1074 38.7386L19.2064 35.0873C18.2563 34.3256 17.1243 33.8244 15.9217 33.633C13.4612 33.2816 12.3882 32.2331 12.0448 27.3201L9.39965 27.792C8.98563 27.8657 8.59284 28.0294 8.24901 28.2716C7.90519 28.5137 7.61871 28.8284 7.40981 29.1933C7.20091 29.5583 7.07469 29.9647 7.04004 30.3838C7.0054 30.8029 7.06318 31.2245 7.20931 31.6188Z" fill="#FFB345"/>
<path id="Vector_10" d="M21.9348 37.6416C21.5493 37.3037 21.182 36.9457 20.8344 36.569L19.6288 39.9097C19.486 40.3052 19.4317 40.7272 19.4698 41.1459C19.5079 41.5646 19.6375 41.9699 19.8494 42.3331C20.0612 42.6963 20.3502 43.0086 20.696 43.2479C21.0417 43.4872 21.4358 43.6477 21.8503 43.718C24.0585 44.0911 26.3154 44.0685 28.5156 43.6512C28.0581 42.3715 23.0483 38.5324 21.9348 37.6416Z" fill="#FFB345"/>
<path id="Vector_11" d="M9.15569 25.0241L11.9416 25.0206C11.9224 24.2502 11.9128 23.4135 11.9128 22.4973C11.9128 18.4736 10.0532 17.0019 7.97288 16.614C7.18955 18.2061 6.63394 19.9004 6.32238 21.6472C6.24864 22.061 6.26661 22.486 6.37504 22.8922C6.48346 23.2983 6.67969 23.6757 6.94988 23.9978C7.22007 24.3198 7.55765 24.5786 7.93878 24.756C8.31991 24.9333 8.73532 25.0249 9.15569 25.0241Z" fill="#FFB345"/>
</g>
</svg>
