<svg width="48" height="48" viewBox="0 0 48 48" fill="none" xmlns="http://www.w3.org/2000/svg">
<g id="fluent-emoji:toothbrush">
<g id="Group">
<path id="Vector" d="M15.7378 4.1595L23.9993 12.421L18.2972 18.1231L10.0357 9.86161L15.7378 4.1595Z" fill="url(#paint0_linear_985_6258)"/>
<g id="Group_2">
<path id="Vector_2" d="M14.2485 3.489C14.511 3.22644 14.8671 3.07893 15.2385 3.07893C15.6098 3.07893 15.9659 3.22644 16.2285 3.489C16.491 3.75156 16.6385 4.10768 16.6385 4.479C16.6385 4.85032 16.491 5.20643 16.2285 5.469L9.93597 11.757C9.67341 12.0196 9.31729 12.1671 8.94597 12.1671C8.57465 12.1671 8.21853 12.0196 7.95597 11.757C7.69341 11.4944 7.5459 11.1383 7.5459 10.767C7.5459 10.3957 7.69341 10.0396 7.95597 9.777L14.247 3.4875L14.2485 3.489Z" fill="#E2D1E3"/>
<path id="Vector_3" d="M14.2485 3.489C14.511 3.22644 14.8671 3.07893 15.2385 3.07893C15.6098 3.07893 15.9659 3.22644 16.2285 3.489C16.491 3.75156 16.6385 4.10768 16.6385 4.479C16.6385 4.85032 16.491 5.20643 16.2285 5.469L9.93597 11.757C9.67341 12.0196 9.31729 12.1671 8.94597 12.1671C8.57465 12.1671 8.21853 12.0196 7.95597 11.757C7.69341 11.4944 7.5459 11.1383 7.5459 10.767C7.5459 10.3957 7.69341 10.0396 7.95597 9.777L14.247 3.4875L14.2485 3.489Z" fill="url(#paint1_radial_985_6258)"/>
</g>
<g id="Group_3">
<path id="Vector_4" d="M16.4487 5.655C16.5787 5.52499 16.7331 5.42186 16.9029 5.3515C17.0728 5.28114 17.2548 5.24493 17.4387 5.24493C17.6226 5.24493 17.8046 5.28114 17.9745 5.3515C18.1443 5.42186 18.2987 5.52499 18.4287 5.655C18.5587 5.78501 18.6618 5.93935 18.7322 6.10922C18.8026 6.27908 18.8388 6.46114 18.8388 6.645C18.8388 6.82886 18.8026 7.01092 18.7322 7.18078C18.6618 7.35065 18.5587 7.50499 18.4287 7.635L12.1347 13.926C11.8721 14.1886 11.516 14.3361 11.1447 14.3361C10.7734 14.3361 10.4173 14.1886 10.1547 13.926C9.89214 13.6634 9.74463 13.3073 9.74463 12.936C9.74463 12.5647 9.89214 12.2086 10.1547 11.946L16.4487 5.655Z" fill="#E2D1E3"/>
<path id="Vector_5" d="M16.4487 5.655C16.5787 5.52499 16.7331 5.42186 16.9029 5.3515C17.0728 5.28114 17.2548 5.24493 17.4387 5.24493C17.6226 5.24493 17.8046 5.28114 17.9745 5.3515C18.1443 5.42186 18.2987 5.52499 18.4287 5.655C18.5587 5.78501 18.6618 5.93935 18.7322 6.10922C18.8026 6.27908 18.8388 6.46114 18.8388 6.645C18.8388 6.82886 18.8026 7.01092 18.7322 7.18078C18.6618 7.35065 18.5587 7.50499 18.4287 7.635L12.1347 13.926C11.8721 14.1886 11.516 14.3361 11.1447 14.3361C10.7734 14.3361 10.4173 14.1886 10.1547 13.926C9.89214 13.6634 9.74463 13.3073 9.74463 12.936C9.74463 12.5647 9.89214 12.2086 10.1547 11.946L16.4487 5.655Z" fill="url(#paint2_radial_985_6258)"/>
</g>
<g id="Group_4">
<path id="Vector_6" d="M18.5337 7.755C18.7962 7.49244 19.1523 7.34493 19.5237 7.34493C19.895 7.34493 20.2511 7.49244 20.5137 7.755C20.7762 8.01756 20.9237 8.37368 20.9237 8.745C20.9237 9.11632 20.7762 9.47243 20.5137 9.735L14.2197 16.023C13.9571 16.2856 13.601 16.4331 13.2297 16.4331C12.8583 16.4331 12.5022 16.2856 12.2397 16.023C11.9771 15.7604 11.8296 15.4043 11.8296 15.033C11.8296 14.6617 11.9771 14.3056 12.2397 14.043L18.5322 7.7535L18.5337 7.755Z" fill="#E2D1E3"/>
<path id="Vector_7" d="M18.5337 7.755C18.7962 7.49244 19.1523 7.34493 19.5237 7.34493C19.895 7.34493 20.2511 7.49244 20.5137 7.755C20.7762 8.01756 20.9237 8.37368 20.9237 8.745C20.9237 9.11632 20.7762 9.47243 20.5137 9.735L14.2197 16.023C13.9571 16.2856 13.601 16.4331 13.2297 16.4331C12.8583 16.4331 12.5022 16.2856 12.2397 16.023C11.9771 15.7604 11.8296 15.4043 11.8296 15.033C11.8296 14.6617 11.9771 14.3056 12.2397 14.043L18.5322 7.7535L18.5337 7.755Z" fill="url(#paint3_radial_985_6258)"/>
</g>
<g id="Group_5">
<path id="Vector_8" d="M20.6474 9.87C20.91 9.60744 21.2661 9.45993 21.6374 9.45993C22.0087 9.45993 22.3648 9.60744 22.6274 9.87C22.89 10.1326 23.0375 10.4887 23.0375 10.86C23.0375 11.2313 22.89 11.5874 22.6274 11.85L16.3349 18.141C16.0723 18.4036 15.7162 18.5511 15.3449 18.5511C14.9736 18.5511 14.6175 18.4036 14.3549 18.141C14.0923 17.8784 13.9448 17.5223 13.9448 17.151C13.9448 16.7797 14.0923 16.4236 14.3549 16.161L20.6474 9.87Z" fill="#E2D1E3"/>
<path id="Vector_9" d="M20.6474 9.87C20.91 9.60744 21.2661 9.45993 21.6374 9.45993C22.0087 9.45993 22.3648 9.60744 22.6274 9.87C22.89 10.1326 23.0375 10.4887 23.0375 10.86C23.0375 11.2313 22.89 11.5874 22.6274 11.85L16.3349 18.141C16.0723 18.4036 15.7162 18.5511 15.3449 18.5511C14.9736 18.5511 14.6175 18.4036 14.3549 18.141C14.0923 17.8784 13.9448 17.5223 13.9448 17.151C13.9448 16.7797 14.0923 16.4236 14.3549 16.161L20.6474 9.87Z" fill="url(#paint4_radial_985_6258)"/>
</g>
<g id="Group_6">
<path id="Vector_10" d="M22.8656 11.928C23.1282 11.6654 23.4843 11.5179 23.8556 11.5179C24.2269 11.5179 24.5831 11.6654 24.8456 11.928C25.1082 12.1906 25.2557 12.5467 25.2557 12.918C25.2557 13.2893 25.1082 13.6454 24.8456 13.908L18.5546 20.1975C18.2921 20.4601 17.9359 20.6076 17.5646 20.6076C17.1933 20.6076 16.8372 20.4601 16.5746 20.1975C16.3121 19.9349 16.1646 19.5788 16.1646 19.2075C16.1646 18.8362 16.3121 18.4801 16.5746 18.2175L22.8656 11.928Z" fill="#E2D1E3"/>
<path id="Vector_11" d="M22.8656 11.928C23.1282 11.6654 23.4843 11.5179 23.8556 11.5179C24.2269 11.5179 24.5831 11.6654 24.8456 11.928C25.1082 12.1906 25.2557 12.5467 25.2557 12.918C25.2557 13.2893 25.1082 13.6454 24.8456 13.908L18.5546 20.1975C18.2921 20.4601 17.9359 20.6076 17.5646 20.6076C17.1933 20.6076 16.8372 20.4601 16.5746 20.1975C16.3121 19.9349 16.1646 19.5788 16.1646 19.2075C16.1646 18.8362 16.3121 18.4801 16.5746 18.2175L22.8656 11.928Z" fill="url(#paint5_radial_985_6258)"/>
</g>
<g id="Group_7">
<path id="Vector_12" d="M5.64236 12.7144L5.64247 12.7145L36.118 43.2005L36.1203 43.2028C36.4978 43.5855 36.9473 43.8895 37.443 44.0974C37.9386 44.3053 38.4706 44.4129 39.0081 44.4141C39.5456 44.4152 40.078 44.3099 40.5745 44.1041C41.0711 43.8984 41.5219 43.5963 41.9011 43.2153C42.2802 42.8343 42.5801 42.382 42.7834 41.8844C42.9868 41.3869 43.0895 40.854 43.0857 40.3165C43.082 39.779 42.9717 39.2476 42.7614 38.753C42.5511 38.2583 42.2449 37.8103 41.8604 37.4346L41.858 37.4322L29.5431 25.2343C28.9415 24.6388 28.2544 24.1365 27.5045 23.744L27.5043 23.7439L24.0888 21.9544L24.3209 21.5115L24.0888 21.9544C21.7815 20.7455 20.3853 19.6849 17.9592 17.3119L17.9551 17.3079L17.9551 17.3079L9.50587 8.84963C9.50581 8.84957 9.50575 8.84951 9.50569 8.84945C9.50567 8.84942 9.50564 8.84939 9.50561 8.84936C8.99322 8.33733 8.29849 8.0497 7.5741 8.0497C6.84961 8.0497 6.15477 8.33742 5.64236 8.8496V12.7144ZM5.64236 12.7144C5.38856 12.4607 5.18722 12.1594 5.04986 11.8278C4.9125 11.4963 4.8418 11.1409 4.8418 10.782C4.8418 10.4231 4.9125 10.0677 5.04986 9.73616C5.18722 9.40461 5.38854 9.10336 5.64233 8.84963L5.64236 12.7144Z" fill="url(#paint6_linear_985_6258)" stroke="black"/>
</g>
<g id="Group_8" filter="url(#filter0_f_985_6258)">
<path id="Vector_13" d="M9.16797 9.4695L19.6815 20.025C20.2944 20.6404 20.9931 21.1638 21.756 21.579L26.5275 24.177C27.513 24.7125 28.4175 25.3845 29.2155 26.172L41.2305 38.016C41.73 38.64 42.5805 40.182 41.9805 41.343" stroke="url(#paint7_linear_985_6258)" stroke-width="0.6" stroke-linecap="round"/>
</g>
</g>
</g>
<defs>
<filter id="filter0_f_985_6258" x="8.11816" y="8.4195" width="35.1187" height="33.9736" filterUnits="userSpaceOnUse" color-interpolation-filters="sRGB">
<feFlood flood-opacity="0" result="BackgroundImageFix"/>
<feBlend mode="normal" in="SourceGraphic" in2="BackgroundImageFix" result="shape"/>
<feGaussianBlur stdDeviation="0.375" result="effect1_foregroundBlur_985_6258"/>
</filter>
<linearGradient id="paint0_linear_985_6258" x1="19.8691" y1="8.29077" x2="14.167" y2="13.9929" gradientUnits="userSpaceOnUse">
<stop stop-color="#ECE6F5"/>
<stop offset="0.479" stop-color="#D8C6D5"/>
</linearGradient>
<radialGradient id="paint1_radial_985_6258" cx="0" cy="0" r="1" gradientUnits="userSpaceOnUse" gradientTransform="translate(16.6391 4.12425) rotate(138.827) scale(1.21044 1.56855)">
<stop stop-color="#F2EDFB"/>
<stop offset="1" stop-color="#F2EDFB" stop-opacity="0"/>
</radialGradient>
<radialGradient id="paint2_radial_985_6258" cx="0" cy="0" r="1" gradientUnits="userSpaceOnUse" gradientTransform="translate(18.839 6.29185) rotate(138.827) scale(1.21044 1.56855)">
<stop stop-color="#F2EDFB"/>
<stop offset="1" stop-color="#F2EDFB" stop-opacity="0"/>
</radialGradient>
<radialGradient id="paint3_radial_985_6258" cx="0" cy="0" r="1" gradientUnits="userSpaceOnUse" gradientTransform="translate(20.9237 8.3918) rotate(138.827) scale(1.21044 1.56855)">
<stop stop-color="#F2EDFB"/>
<stop offset="1" stop-color="#F2EDFB" stop-opacity="0"/>
</radialGradient>
<radialGradient id="paint4_radial_985_6258" cx="0" cy="0" r="1" gradientUnits="userSpaceOnUse" gradientTransform="translate(23.036 10.5085) rotate(138.827) scale(1.21044 1.56855)">
<stop stop-color="#F2EDFB"/>
<stop offset="1" stop-color="#F2EDFB" stop-opacity="0"/>
</radialGradient>
<radialGradient id="paint5_radial_985_6258" cx="0" cy="0" r="1" gradientUnits="userSpaceOnUse" gradientTransform="translate(25.2539 12.5643) rotate(138.827) scale(1.21044 1.56855)">
<stop stop-color="#F2EDFB"/>
<stop offset="1" stop-color="#F2EDFB" stop-opacity="0"/>
</radialGradient>
<linearGradient id="paint6_linear_985_6258" x1="23.9534" y1="7.5495" x2="29.3669" y2="41.532" gradientUnits="userSpaceOnUse">
<stop stop-color="#FF2539"/>
<stop offset="1" stop-color="#EC2D97"/>
</linearGradient>
<linearGradient id="paint7_linear_985_6258" x1="43.4805" y1="40.1715" x2="-10.9455" y2="-14.0625" gradientUnits="userSpaceOnUse">
<stop stop-color="#F95EAA"/>
<stop offset="1" stop-color="#F95EAA" stop-opacity="0"/>
</linearGradient>
</defs>
</svg>
