<svg width="48" height="48" viewBox="0 0 48 48" fill="none" xmlns="http://www.w3.org/2000/svg">
<g id="kiwi-fruit">
<path id="Vector" d="M1.59756 25.8375L2.09645 25.8042L1.59756 25.8375ZM1.59756 25.8375L2.09644 25.8041L1.59756 25.8375ZM13.4912 5.32088C24.9793 -1.44221 35.6252 2.20175 40.1248 8.42659L13.4912 5.32088Z" fill="#95683D" stroke="black"/>
<path id="Vector_2" d="M4.92407 29.5887L4.92405 29.5887C3.08511 26.2065 3.0824 22.0503 4.51449 18.0451C5.94597 14.0416 8.79848 10.2324 12.5932 7.5877C16.4651 4.89082 21.5761 3.24905 26.3944 3.3059C31.2076 3.3627 35.6682 5.10884 38.3598 9.11385C43.0145 16.0418 41.0804 26.0651 32.3216 33.0095L32.6323 33.4013L32.3216 33.0095C28.3817 36.1334 22.7527 37.5588 17.4765 37.0441C12.2016 36.5294 7.37012 34.0884 4.92407 29.5887Z" fill="#B7D118" stroke="black"/>
<path id="Vector_3" d="M14.7 18.5775C14.4037 19.47 15.5812 20.2125 15.4012 21.945C15.1387 24.4387 13.425 25.875 13.9125 26.3625C14.5237 26.9737 16.3462 25.8262 18.6825 25.3987C21.3075 24.9187 21.7462 26.115 22.4437 25.7475C23.2762 25.3087 22.8487 23.37 24.5437 21.855C26.205 20.3662 27.825 20.325 28.1325 19.8412C28.44 19.3612 27.87 17.9587 28.2637 16.2525C28.6575 14.5462 30.0712 12.9975 29.5912 12.3412C29.1112 11.685 27.1425 13.5675 24.8962 13.4512C23.4112 13.3762 22.62 12.6637 22.0087 12.9712C21.3975 13.2787 21.1237 15.1837 19.3837 16.6912C17.1037 18.6675 14.9175 17.9212 14.7 18.5775Z" fill="#E5DDA0"/>
<path id="Vector_4" d="M29.906 5.31375C28.6498 4.75125 27.7723 7.48125 27.2848 8.46C26.7973 9.43875 25.796 11.3587 26.831 11.8837C27.7123 12.3337 29.0323 9.3675 29.486 8.46C29.9435 7.5525 30.9785 5.79375 29.906 5.31375ZM31.271 10.2787C31.706 10.785 32.6023 10.2 33.3185 9.58875C34.016 8.99625 34.2448 8.2425 33.926 7.83C33.4385 7.2 32.8085 7.3425 31.9348 8.17875C31.2936 8.7975 30.641 9.54375 31.271 10.2787ZM30.6073 13.4925C30.8473 14.5125 33.4648 13.875 35.3736 13.4925C37.646 13.0387 39.266 12.8212 39.0298 11.535C38.7673 10.1175 36.506 10.8937 34.8035 11.3212C31.901 12.045 30.3111 12.2287 30.6073 13.4925ZM29.606 17.1487C29.7898 18.465 33.1348 17.8462 35.966 17.8125C38.4486 17.7825 40.1135 17.5762 39.986 16.485C39.851 15.345 37.736 15.5662 35.3623 15.7425C32.9811 15.915 29.3923 15.6487 29.606 17.1487ZM30.5585 20.2312C30.1648 21.3187 31.1285 21.5962 33.3898 22.605C35.0623 23.3475 36.446 24.2175 36.896 23.07C37.301 22.0387 35.8123 21.4537 34.5223 20.8537C32.426 19.8712 30.9598 19.1287 30.5585 20.2312ZM27.7123 21.4725C26.5835 22.9237 29.3811 24.3637 31.4098 25.935C33.4498 27.5175 35.0398 28.6575 35.6923 27.6637C36.3635 26.6362 34.3798 25.4475 32.6323 24.1875C30.8848 22.9312 28.331 20.6737 27.7123 21.4725ZM24.9148 24.6487C24.1985 25.1925 24.476 25.8262 25.5448 27.195C26.6623 28.6275 27.5135 29.7112 27.8623 30.1312C28.211 30.5512 29.396 32.19 30.2998 31.5375C31.2748 30.8325 30.0523 29.3662 29.7035 28.875C29.3548 28.3875 27.0785 25.56 26.4823 24.93C25.886 24.3 25.406 24.2737 24.9148 24.6487ZM21.6935 27.3675C21.0148 27.6112 20.8723 28.38 21.326 30.5812C21.731 32.5425 22.0085 33.0637 22.2898 33.9712C22.3948 34.3125 22.811 35.8462 23.8948 35.535C24.7873 35.2762 24.1423 33.3262 23.9698 32.4712C23.7148 31.2187 22.5673 27.0525 21.6935 27.3675ZM18.8285 26.5987C17.816 26.355 17.5123 28.1887 17.3285 30.3525C17.1898 31.995 16.9873 33.8062 18.0898 33.8362C19.3985 33.87 19.3423 31.875 19.451 30.3675C19.5898 28.4812 19.6798 26.805 18.8285 26.5987ZM12.3748 35.2162C13.6498 35.73 14.351 33.6187 14.8873 32.28C15.5848 30.5325 16.1473 29.3362 16.3573 28.8112C16.5448 28.3462 16.436 27.465 15.6335 27.1837C14.831 26.9025 14.336 28.3162 13.7398 29.6062C13.1435 30.8962 11.0923 34.7025 12.3748 35.2162ZM8.6248 32.76C9.58105 33.45 10.1435 32.4262 11.2273 31.0612C12.311 29.7 13.8448 28.0537 12.9073 27.4162C12.0748 26.85 10.9685 28.4512 10.0573 29.5725C9.14605 30.69 7.57855 32.0025 8.6248 32.76ZM5.2423 28.1062C5.58355 29.1075 7.0498 28.5225 8.72605 27.93C10.4023 27.3375 13.4435 26.5575 12.9898 25.3837C12.7123 24.6675 10.451 25.425 8.3548 26.0212C7.3123 26.3137 4.7848 26.76 5.2423 28.1062ZM5.2273 22.3012C5.3248 23.5575 7.2898 23.295 9.5248 23.4C13.4098 23.58 14.3135 23.4262 14.336 22.5525C14.3698 21.225 11.9623 21.4912 9.40105 21.2962C7.35355 21.1387 5.10355 20.7262 5.2273 22.3012ZM7.4098 16.5C7.0348 17.385 7.6798 18.0187 9.82855 18.7687C12.1835 19.59 13.1585 20.0062 13.601 19.0725C14.0435 18.1387 12.3223 17.58 10.556 16.8487C9.74605 16.515 7.85605 15.45 7.4098 16.5ZM9.04855 12.3787C8.2948 13.41 9.50605 14.2462 11.4598 15.45C13.3985 16.6425 15.1948 17.9887 15.9485 16.8562C16.6198 15.8475 13.811 14.2462 12.5885 13.4962C11.366 12.7462 9.66355 11.5312 9.04855 12.3787ZM14.2498 7.84875C13.6123 8.26125 13.7998 9.34875 15.191 11.4375C16.5823 13.5262 17.426 15.1237 18.476 14.6625C19.4248 14.2462 17.9848 11.7487 17.1823 10.3987C16.3985 9.07125 15.2923 7.17375 14.2498 7.84875ZM19.6985 5.49375C18.8698 5.625 18.716 6.8925 19.121 8.81625C19.556 10.89 20.0098 12.7875 20.9548 12.5362C21.9035 12.285 21.611 10.3087 21.2923 8.1675C21.1123 6.975 20.756 5.32875 19.6985 5.49375ZM25.466 4.30875C24.476 4.17 24.0935 5.04375 23.7335 7.245C23.3698 9.44625 22.8148 11.3775 23.8385 11.8275C24.9223 12.3037 25.5373 8.79375 25.856 7.2975C26.096 6.16125 26.5985 4.47 25.466 4.30875Z" fill="#7FB240"/>
<path id="Vector_5" d="M24.6115 9.46124C23.6102 9.20999 23.1077 9.97874 22.9652 10.9762C22.8227 11.9737 23.1752 12.4837 23.734 12.5887C24.4052 12.7125 24.8815 12.3225 25.1327 11.43C25.3877 10.5375 25.2715 9.62999 24.6115 9.46124ZM26.5277 12.2362C27.0827 12.525 27.7127 12.2025 27.9977 11.5275C28.1627 11.1337 28.2715 10.2075 27.6452 9.93374C26.9552 9.63374 26.4415 9.96749 26.1752 10.6762C25.9615 11.2462 25.9802 11.9512 26.5277 12.2362ZM30.8815 10.6425C31.369 11.0512 32.014 10.8187 32.3515 10.485C32.6177 10.2187 32.8277 9.59999 32.404 9.13874C31.9802 8.67749 31.2902 8.85749 30.9902 9.17249C30.6865 9.49499 30.3302 10.185 30.8815 10.6425ZM33.0752 12.8362C33.2215 13.53 32.6665 14.04 31.7852 14.1975C30.9002 14.355 30.4577 14.055 30.334 13.5075C30.2102 12.96 30.6152 12.3937 31.2527 12.1987C31.8902 12.0037 32.899 12.0037 33.0752 12.8362ZM29.509 17.1487C29.5427 17.9625 30.394 18.1612 31.0315 18.105C31.8452 18.0337 32.4827 17.6625 32.464 17.025C32.4452 16.3875 31.8527 15.9975 30.9415 16.0162C30.1615 16.035 29.4677 16.2637 29.509 17.1487ZM30.244 20.055C29.9702 20.625 30.2777 21.1687 30.934 21.4537C31.5902 21.735 32.4715 21.5437 32.5952 20.9925C32.719 20.445 32.419 19.8262 31.6765 19.6312C30.934 19.4362 30.4727 19.5787 30.244 20.055ZM27.199 21.3112C26.734 21.87 26.9702 22.5337 27.694 23.1862C28.4177 23.8387 29.2765 23.9025 29.7115 23.4C30.259 22.7625 29.6402 21.8775 29.0215 21.3825C28.4027 20.8875 27.5552 20.8875 27.199 21.3112ZM24.139 23.8237C23.4415 24.4237 23.8727 25.2937 24.3865 25.9275C24.9002 26.565 25.7477 26.8125 26.2802 26.3512C26.8127 25.89 26.7415 24.99 25.9277 24.1912C25.2715 23.5537 24.634 23.4 24.139 23.8237ZM21.3077 26.4412C20.5277 26.6662 20.599 27.4837 20.7602 28.14C20.9177 28.7962 21.544 29.3362 22.1215 29.13C22.7215 28.9162 22.8827 28.4212 22.7065 27.5737C22.5302 26.7262 21.859 26.2837 21.3077 26.4412ZM19.009 25.875C18.3677 25.815 17.9665 26.2837 17.7715 27.0787C17.5765 27.8737 17.9665 28.5825 18.619 28.6537C19.2715 28.725 19.7702 28.1062 19.8227 27.255C19.8752 26.4037 19.5752 25.9275 19.009 25.875ZM16.2152 26.7975C15.3152 26.3587 14.7302 27.24 14.5165 27.7012C14.3027 28.1625 14.1077 29.2387 14.8352 29.5575C15.559 29.8762 16.204 29.1487 16.4627 28.5675C16.744 27.93 16.834 27.0975 16.2152 26.7975ZM11.809 28.6875C12.3752 29.2537 13.114 28.59 13.279 28.3875C13.5452 28.05 13.549 27.4987 13.279 27.2025C12.9265 26.8125 12.3602 26.9737 12.004 27.255C11.6477 27.54 11.3665 28.245 11.809 28.6875ZM12.0902 24.99C11.6177 25.0725 11.0627 25.4325 11.1865 26.0325C11.3102 26.6325 11.824 26.8125 12.4427 26.6887C13.0615 26.565 13.399 25.9987 13.3277 25.5562C13.2602 25.1137 12.5852 24.9037 12.0902 24.99ZM11.3477 22.5337C11.3177 23.2237 11.9515 23.535 12.904 23.6137C14.194 23.7187 14.7302 23.22 14.7452 22.4287C14.7602 21.7012 14.089 21.3487 13.0465 21.3675C12.004 21.3862 11.3852 21.72 11.3477 22.5337ZM12.0002 18.3225C11.6702 18.8362 12.019 19.7212 12.7652 19.8075C13.5152 19.8937 14.0627 19.2112 13.8152 18.48C13.5677 17.745 12.4765 17.5837 12.0002 18.3225ZM13.4177 15.2775C12.9415 16.0575 13.489 16.7812 14.479 17.2425C15.3415 17.6437 16.0015 17.5612 16.3352 17.0475C16.6727 16.5337 16.4065 15.7387 15.6265 15.2437C14.7302 14.67 13.8752 14.535 13.4177 15.2775ZM17.434 12.765C16.9877 13.0125 16.5827 13.7212 17.329 14.745C17.8427 15.4537 18.6377 15.5775 19.0465 15.345C19.399 15.1462 19.594 14.2125 19.1365 13.5037C18.7465 12.915 18.0377 12.4312 17.434 12.765ZM20.5652 10.3762C19.9615 10.4587 19.699 11.3137 19.909 11.9325C20.104 12.4987 20.5277 12.8887 21.1315 12.765C21.7315 12.6412 21.7877 11.7937 21.7315 11.475C21.679 11.1562 21.3602 10.2712 20.5652 10.3762Z" fill="#303030"/>
</g>
</svg>
