<svg width="49" height="48" viewBox="0 0 49 48" fill="none" xmlns="http://www.w3.org/2000/svg">
<g id="noto:jar">
<path id="Vector" opacity="0.8" d="M38.6765 14.3194L38.6768 14.32C39.5287 16.059 39.5708 17.5929 39.5708 19.6125C39.5708 20.3106 39.5701 21.9049 39.5693 23.9254C39.5666 30.2583 39.5622 40.7792 39.5711 41.0243L39.5712 41.0265C39.6007 41.757 39.0968 42.4179 37.9525 43.1501L37.9521 43.1503C36.1743 44.2903 33.5716 45.0094 30.9614 45.4395C28.3641 45.8674 25.8193 46 24.2008 46C22.5823 46 20.0375 45.8674 17.4402 45.4395C14.83 45.0094 12.2273 44.2903 10.4494 43.1503C9.30762 42.4174 8.80083 41.7566 8.83036 41.0265H8.83035C8.84259 40.676 8.83813 29.3581 8.83568 23.1735C8.83503 21.5119 8.83452 20.2209 8.83452 19.6125C8.83452 17.5926 8.87668 16.0554 9.72836 14.3203L9.7288 14.3194C9.98462 13.7956 10.6503 12.7733 11.3265 11.8101C11.6606 11.3344 11.9899 10.8834 12.2614 10.5293C12.4445 10.2904 12.5878 10.1137 12.6843 10.0025H35.721C35.8175 10.1137 35.9608 10.2904 36.1439 10.5293C36.4154 10.8834 36.7447 11.3344 37.0788 11.8101C37.755 12.7733 38.4207 13.7956 38.6765 14.3194Z" fill="#9FE1EA" stroke="black"/>
<path id="Vector_2" opacity="0.6" d="M24.0808 44.595C31.5077 44.595 37.5283 43.1729 37.5283 41.4187C37.5283 39.6646 31.5077 38.2425 24.0808 38.2425C16.654 38.2425 10.6333 39.6646 10.6333 41.4187C10.6333 43.1729 16.654 44.595 24.0808 44.595Z" fill="#1492C4"/>
<path id="Vector_3" opacity="0.6" d="M12.4741 9.40875L11.3491 10.92C11.3491 10.92 18.0991 15.8925 31.1304 13.8862C38.4729 12.7575 36.6354 10.5675 36.6354 10.5675L35.5779 8.94375L12.4741 9.40875Z" fill="#1492C4"/>
<path id="Vector_4" opacity="0.8" d="M15.4518 34.35C15.6918 37.4175 12.1706 38.67 11.1993 35.595C10.8768 34.5713 11.0381 33.4688 11.1393 32.4C11.3831 29.8913 11.3231 27.3563 10.9668 24.8625C10.6293 22.6688 10.2131 17.5613 12.4218 16.4475C13.3893 15.96 14.1543 16.1963 14.8856 16.5675C15.9543 17.19 16.0781 18.66 16.0481 19.8938C15.9918 22.0163 15.7631 24.1313 15.5981 26.2463C15.4181 28.5825 14.8893 30.315 15.1593 32.1863C15.2606 32.9063 15.4181 33.63 15.4518 34.35Z" fill="white"/>
<path id="Vector_5" d="M10.8558 6.74479L10.8558 6.74328C10.8469 6.08388 10.9152 5.56547 10.9837 5.21716C10.9967 5.15107 11.0098 5.09111 11.0222 5.0375H37.1095C37.1196 5.08803 37.13 5.14385 37.1404 5.2048C37.2006 5.55692 37.2605 6.07998 37.2533 6.74462L37.2533 6.74479C37.2405 7.97887 37.0592 8.53228 36.8561 8.82382C36.6716 9.08847 36.4393 9.19731 36.012 9.39753C35.9777 9.41361 35.9421 9.43028 35.9052 9.44767L35.9049 9.44783C33.7994 10.4416 29.6798 11.155 24.0546 11.155C18.4299 11.155 14.3097 10.438 12.2036 9.44754C12.1668 9.4302 12.1313 9.41357 12.0971 9.39753C11.6698 9.19731 11.4375 9.08847 11.2531 8.82382C11.0499 8.53228 10.8686 7.97887 10.8558 6.74479Z" fill="#E2A610" stroke="black"/>
<path id="Vector_6" d="M37.0283 4.67625C37.0283 4.81484 36.8922 5.105 36.2278 5.47605C35.6054 5.82361 34.6716 6.15288 33.4747 6.43559C31.0888 6.99913 27.7673 7.3525 24.0808 7.3525C20.3943 7.3525 17.0728 6.99913 14.6869 6.43559C13.49 6.15288 12.5562 5.82361 11.9339 5.47605C11.2694 5.105 11.1333 4.81484 11.1333 4.67625C11.1333 4.53766 11.2694 4.2475 11.9339 3.87645C12.5562 3.5289 13.49 3.19962 14.6869 2.91691C17.0728 2.35337 20.3943 2 24.0808 2C27.7673 2 31.0888 2.35337 33.4747 2.91691C34.6716 3.19962 35.6054 3.5289 36.2278 3.87645C36.8922 4.2475 37.0283 4.53766 37.0283 4.67625Z" fill="#9E740B" stroke="black"/>
<path id="Vector_7" d="M15.433 7.8525C17.4392 8.09625 17.7692 8.09625 17.953 8.70375C18.0355 8.985 17.9717 9.315 17.7542 9.50625C16.708 10.4288 14.203 9.98625 13.168 9.20625C12.8005 8.92875 12.3317 8.17875 12.9017 7.6725C13.438 7.2 14.5892 7.75125 15.433 7.8525Z" fill="#FFE36C"/>
</g>
</svg>
