<svg width="82" height="81" viewBox="0 0 82 81" fill="none" xmlns="http://www.w3.org/2000/svg">
<g id="heroicons:check-circle">
<path id="Vector" d="M30.875 43.0312L38.4688 50.625L51.125 32.9062M71.375 40.5C71.375 44.4889 70.5893 48.4387 69.0628 52.124C67.5364 55.8093 65.2989 59.1578 62.4784 61.9784C59.6578 64.7989 56.3093 67.0364 52.624 68.5628C48.9387 70.0893 44.9889 70.875 41 70.875C37.0111 70.875 33.0613 70.0893 29.376 68.5628C25.6907 67.0364 22.3422 64.7989 19.5216 61.9784C16.7011 59.1578 14.4636 55.8093 12.9372 52.124C11.4107 48.4387 10.625 44.4889 10.625 40.5C10.625 32.444 13.8252 24.718 19.5216 19.0216C25.218 13.3252 32.944 10.125 41 10.125C49.056 10.125 56.7819 13.3252 62.4784 19.0216C68.1748 24.718 71.375 32.444 71.375 40.5Z" stroke="#FB5607" stroke-width="4" stroke-linecap="round" stroke-linejoin="round"/>
</g>
</svg>
