<svg width="46" height="48" viewBox="0 0 46 48" fill="none" xmlns="http://www.w3.org/2000/svg">
<g id="Group 23">
<path id="Vector" opacity="0.65" d="M43.6912 34.2519L43.6868 34.2459C43.4037 33.8592 43.0782 33.5091 42.7295 33.134C42.6938 33.0956 42.6579 33.057 42.6218 33.018C42.2408 32.6073 41.839 32.1639 41.5045 31.6505C40.7037 30.4313 40.3636 29.0575 40.1684 27.6862C40.0743 27.0247 40.0127 26.3524 39.9523 25.6944L39.9456 25.6219C39.8828 24.9371 39.82 24.2678 39.7224 23.6145C39.3223 21.1253 38.3642 18.7589 36.9198 16.6925C35.4755 14.6263 33.5826 12.9136 31.3827 11.6827C30.9118 11.4275 30.4341 11.194 29.9451 10.9551C29.7454 10.8575 29.5437 10.7589 29.3399 10.6576C28.6454 10.3124 27.9408 9.942 27.2712 9.49281L27.2687 9.4911C25.8045 8.49571 24.5368 7.23831 23.5296 5.78227C23.2601 5.4189 23.0125 5.06116 22.7657 4.6828C22.0756 3.64746 21.447 2.59777 20.8299 1.55839L20.8167 1.53625L20.8059 1.51287C20.622 1.115 20.3241 0.781048 19.9502 0.55323C19.6806 0.447168 19.3489 0.499549 19.0215 0.722768C18.6823 0.954003 18.4217 1.32451 18.3405 1.6968C18.1584 2.53201 18.5014 3.47733 18.95 4.44013C18.9928 4.53217 19.0375 4.6264 19.0832 4.72269C19.4868 5.57346 19.9668 6.58533 19.9447 7.67371L19.9447 7.6747C19.9194 8.80949 19.3817 9.75055 18.6739 10.5238C17.9696 11.2932 17.0656 11.9311 16.2382 12.4663L16.2381 12.4664C13.8048 14.0392 11.3157 15.5254 8.77085 16.9251C8.56428 17.0664 8.32494 17.1527 8.0755 17.1757C7.55653 17.246 7.16843 16.9676 6.91959 16.6862C6.67114 16.4052 6.49162 16.0479 6.36709 15.7767L6.35874 15.7585L6.35186 15.7397C5.85664 14.3849 5.15105 13.1166 4.26104 11.9814L43.6912 34.2519ZM43.6912 34.2519L43.6958 34.2578M43.6912 34.2519L43.6958 34.2578M43.6958 34.2578C44.3539 35.1025 44.7473 36.1306 44.5111 36.9098C44.261 37.7344 43.4857 38.3575 42.5974 38.9355L42.0086 39.3017H41.9928L41.8723 39.3759C35.9588 43.0158 29.1411 44.9062 22.3498 46.7894L22.2876 46.8066L22.2856 46.8072L22.2061 46.8289C20.6667 47.2489 19.2452 47.6367 17.7615 47.4537L17.7596 47.4535C16.0767 47.2524 14.6369 46.3324 13.4617 45.0087C12.2848 43.683 11.3946 41.974 10.8227 40.261C10.4556 39.1613 10.1637 38.0504 9.86739 36.9227C9.69143 36.253 9.51392 35.5775 9.31819 34.8949C8.80117 33.0918 8.1704 31.299 7.13447 29.6776L7.133 29.6753C3.18518 23.5697 0.0717919 17.8053 0.548254 10.3937L0.54903 10.3816L0.549221 10.3695C0.549965 10.3227 0.557188 10.2763 0.570571 10.2317C0.583852 10.2243 0.597763 10.218 0.612172 10.2128C0.650375 10.1992 0.691119 10.1942 0.731476 10.1982L0.746948 10.1997M43.6958 34.2578L0.746948 10.1997M0.746948 10.1997L0.762485 10.2003M0.746948 10.1997L0.762485 10.2003M0.762485 10.2003C1.44006 10.225 2.1041 10.3971 2.70833 10.7047C3.31249 11.0123 3.84232 11.4479 4.26089 11.9812L0.762485 10.2003ZM1.52249 17.3404L1.52245 17.3404L1.52424 17.3467C1.5551 17.4549 1.59089 17.5902 1.63196 17.7454C1.78251 18.3144 2.00389 19.1511 2.31229 19.9053C2.50994 20.3886 2.75654 20.8739 3.06797 21.2583C3.37818 21.6412 3.794 21.9732 4.33276 22.04C5.40174 22.1741 6.02479 21.3284 6.31008 20.5887C6.46077 20.198 6.54804 19.7746 6.57811 19.3834C6.60767 18.999 6.58481 18.6085 6.4856 18.2943L6.48573 18.2943L6.48197 18.2833C6.31793 17.803 6.07928 17.3516 5.77485 16.9456C5.05313 15.8198 4.326 14.6725 3.62008 13.5517L3.62012 13.5516L3.61642 13.5459C3.43943 13.2732 3.1931 12.9476 2.88691 12.7112C2.57729 12.4723 2.13956 12.278 1.63846 12.4293L1.6115 12.4374L1.58562 12.4485C1.34214 12.5531 1.1319 12.7223 0.97761 12.9377C0.823319 13.1531 0.730847 13.4066 0.710203 13.6708L0.710188 13.6708L0.70992 13.6746C0.680872 14.0867 0.731689 14.5005 0.859522 14.8933L1.52249 17.3404ZM20.585 4.02677L20.5849 4.02668L20.579 4.03931C20.437 4.34428 20.4384 4.69147 20.4774 4.9885C20.5179 5.29656 20.6089 5.62086 20.7121 5.92338C20.8524 6.33468 21.0406 6.77047 21.1791 7.09138C21.2372 7.22588 21.2866 7.34021 21.32 7.42409C21.7148 8.44025 22.2006 9.41852 22.7717 10.3469L22.7991 10.4028C22.965 10.7414 23.2342 11.0185 23.5678 11.1941L23.6771 11.2517H23.7395C23.8043 11.2741 23.872 11.2882 23.9409 11.2935L23.9601 11.295L23.9793 11.295C24.1497 11.2951 24.3185 11.261 24.4755 11.1947C24.6325 11.1284 24.7747 11.0313 24.8935 10.9091C25.0124 10.7869 25.1055 10.6422 25.1674 10.4834C25.2293 10.3246 25.2588 10.155 25.254 9.98463L25.2541 9.98462L25.2537 9.97575C25.2299 9.45659 25.0522 8.9564 24.7434 8.53877C24.5125 8.1777 24.2505 7.82731 23.9935 7.48374C23.9453 7.41925 23.8972 7.35499 23.8496 7.29096C23.7093 7.08788 23.5659 6.88684 23.4257 6.69037C23.1742 6.33787 22.9332 6.00006 22.74 5.69155L22.3162 5.95697L22.74 5.69155C22.5512 5.39014 22.4174 5.09193 22.2664 4.75553C22.1836 4.57093 22.0956 4.37483 21.9905 4.1604L21.9905 4.16037L21.9873 4.15406C21.9773 4.13426 21.9657 4.11094 21.9533 4.08592C21.9232 4.02525 21.8881 3.95464 21.858 3.90028L21.8575 3.89943C21.8229 3.83714 21.7375 3.68326 21.5877 3.58388C21.4943 3.52189 21.3612 3.47071 21.2024 3.487C21.0515 3.50246 20.9389 3.57267 20.8669 3.63348C20.7382 3.74215 20.6497 3.8975 20.585 4.02677ZM41.8723 39.3905C41.8715 39.3912 41.8722 39.3906 41.8735 39.3896L41.8723 39.3905Z" fill="#4D69FD" stroke="black"/>
</g>
</svg>
