<svg width="16" height="16" viewBox="0 0 16 16" fill="none" xmlns="http://www.w3.org/2000/svg">
<path id="Vector" d="M8 16C6.41775 16 4.87103 15.5308 3.55544 14.6518C2.23985 13.7727 1.21447 12.5233 0.608967 11.0615C0.00346614 9.59966 -0.15496 7.99113 0.153721 6.43928C0.462403 4.88743 1.22433 3.46197 2.34315 2.34315C3.46197 1.22433 4.88743 0.462403 6.43928 0.153722C7.99113 -0.154961 9.59966 0.00346661 11.0615 0.608967C12.5233 1.21447 13.7727 2.23985 14.6518 3.55544C15.5308 4.87103 16 6.41775 16 8C15.9975 10.121 15.1539 12.1544 13.6541 13.6541C12.1544 15.1539 10.121 15.9975 8 16ZM8 0.94118C6.6039 0.94118 5.23915 1.35517 4.07833 2.13081C2.91751 2.90644 2.01277 4.00888 1.4785 5.29871C0.944235 6.58854 0.804447 8.00783 1.07681 9.37711C1.34918 10.7464 2.02147 12.0041 3.00866 12.9913C3.99585 13.9785 5.25362 14.6508 6.62289 14.9232C7.99217 15.1956 9.41146 15.0558 10.7013 14.5215C11.9911 13.9872 13.0936 13.0825 13.8692 11.9217C14.6448 10.7609 15.0588 9.3961 15.0588 8C15.0567 6.12852 14.3124 4.33429 12.989 3.01095C11.6657 1.68762 9.87148 0.943256 8 0.94118ZM10.8424 10.8424C10.9305 10.7541 10.98 10.6345 10.98 10.5098C10.98 10.3851 10.9305 10.2655 10.8424 10.1773L6.62667 5.96079H9.2549C9.37971 5.96079 9.49941 5.91121 9.58766 5.82296C9.67591 5.7347 9.72549 5.61501 9.72549 5.4902C9.72549 5.36539 9.67591 5.2457 9.58766 5.15744C9.49941 5.06919 9.37971 5.01961 9.2549 5.01961H5.4902C5.36539 5.01961 5.2457 5.06919 5.15744 5.15744C5.06919 5.2457 5.01961 5.36539 5.01961 5.4902V9.2549C5.01961 9.37971 5.06919 9.49941 5.15744 9.58766C5.2457 9.67591 5.36539 9.72549 5.4902 9.72549C5.61501 9.72549 5.7347 9.67591 5.82295 9.58766C5.91121 9.49941 5.96079 9.37971 5.96079 9.2549V6.62667L10.1773 10.8424C10.2655 10.9305 10.3851 10.98 10.5098 10.98C10.6345 10.98 10.7541 10.9305 10.8424 10.8424Z" fill="#303033"/>
</svg>
