<svg width="48" height="48" viewBox="0 0 48 48" fill="none" xmlns="http://www.w3.org/2000/svg">
<g id="fluent-emoji:wood">
<g id="Group">
<path id="Vector" d="M35.88 8.9625C35.565 6.4725 30.366 4.4925 24 4.4925C17.634 4.4925 12.435 6.4725 12.12 8.9625L12.105 9.1965V38.7975C12.105 41.3985 17.43 43.5075 24 43.5075C30.57 43.5075 35.895 41.3985 35.895 38.7975V9.255L35.88 8.9625Z" fill="url(#paint0_radial_985_6280)"/>
<path id="Vector_2" d="M35.88 8.9625C35.565 6.4725 30.366 4.4925 24 4.4925C17.634 4.4925 12.435 6.4725 12.12 8.9625L12.105 9.1965V38.7975C12.105 41.3985 17.43 43.5075 24 43.5075C30.57 43.5075 35.895 41.3985 35.895 38.7975V9.255L35.88 8.9625Z" fill="url(#paint1_linear_985_6280)"/>
<path id="Vector_3" d="M35.88 8.9625C35.565 6.4725 30.366 4.4925 24 4.4925C17.634 4.4925 12.435 6.4725 12.12 8.9625L12.105 9.1965V38.7975C12.105 41.3985 17.43 43.5075 24 43.5075C30.57 43.5075 35.895 41.3985 35.895 38.7975V9.255L35.88 8.9625Z" fill="url(#paint2_radial_985_6280)"/>
<path id="Vector_4" d="M24 4.9925C27.137 4.9925 29.9661 5.48113 32.0325 6.26151C33.0666 6.65206 33.8889 7.10788 34.4625 7.59478C35.0309 8.07725 35.3191 8.55795 35.3817 9.00815L35.395 9.26781V38.7975C35.395 39.264 35.1582 39.7605 34.6186 40.2657C34.0781 40.7718 33.2689 41.2505 32.2271 41.663C30.1466 42.4869 27.2382 43.0075 24 43.0075C20.7618 43.0075 17.8533 42.4869 15.7728 41.663C14.7311 41.2505 13.9219 40.7718 13.3814 40.2657C12.8417 39.7605 12.605 39.264 12.605 38.7975V9.21251L12.6179 9.01109C12.6796 8.56004 12.9679 8.0783 13.5375 7.59478C14.1111 7.10788 14.9333 6.65206 15.9675 6.26151C18.0339 5.48113 20.8629 4.9925 24 4.9925Z" fill="url(#paint3_radial_985_6280)" stroke="black"/>
<path id="Vector_5" d="M34.54 40.3374C33.9584 40.8556 33.0971 41.3396 32 41.7512V21.0635H34.54V40.3374Z" fill="url(#paint4_linear_985_6280)" stroke="black"/>
<path id="Vector_6" d="M12.6064 33.167L16.0464 33.8003V41.7687C15.0313 41.3921 14.2115 40.9517 13.6257 40.4777C12.9159 39.9033 12.6064 39.3298 12.6064 38.7975V33.167Z" fill="url(#paint5_linear_985_6280)" stroke="black"/>
<path id="Vector_7" d="M15.036 11.148C15.036 10.7172 14.6872 10.368 14.2568 10.368C13.8264 10.368 13.4775 10.7172 13.4775 11.148V21.7995C13.4775 22.2303 13.8264 22.5795 14.2568 22.5795C14.6872 22.5795 15.036 22.2303 15.036 21.7995V11.148Z" fill="url(#paint6_linear_985_6280)"/>
<path id="Vector_8" d="M19.5346 23.3595C19.5346 22.9287 19.1857 22.5795 18.7553 22.5795C18.325 22.5795 17.9761 22.9287 17.9761 23.3595V29.286C17.9761 29.7168 18.325 30.066 18.7553 30.066C19.1857 30.066 19.5346 29.7168 19.5346 29.286V23.3595Z" fill="url(#paint7_linear_985_6280)"/>
<path id="Vector_9" d="M32.997 41.88V35.925C32.997 35.7265 32.9181 35.5361 32.7778 35.3957C32.6374 35.2554 32.447 35.1765 32.2485 35.1765C32.05 35.1765 31.8596 35.2554 31.7192 35.3957C31.5789 35.5361 31.5 35.7265 31.5 35.925V42.4545C32.04 42.2805 32.541 42.0885 32.997 41.88Z" fill="url(#paint8_linear_985_6280)"/>
<path id="Vector_10" d="M40.1595 12.855C40.0225 12.7119 39.8586 12.5974 39.6772 12.518C39.4957 12.4386 39.3003 12.3959 39.1023 12.3925C38.9043 12.389 38.7075 12.4247 38.5234 12.4977C38.3393 12.5706 38.1714 12.6793 38.0295 12.8175L32.4075 18.2865C31.8705 18.7335 31.5 19.698 31.5 20.8155C31.5 22.3605 32.208 23.61 33.0825 23.61C33.4125 23.61 33.72 23.43 33.975 23.124L41.052 15.8865C41.324 15.6084 41.4773 15.2354 41.4795 14.8464C41.4817 14.4574 41.3328 14.0828 41.064 13.8015L40.1595 12.8565V12.855Z" fill="url(#paint9_radial_985_6280)"/>
<path id="Vector_11" d="M40.1595 12.855C40.0225 12.7119 39.8586 12.5974 39.6772 12.518C39.4957 12.4386 39.3003 12.3959 39.1023 12.3925C38.9043 12.389 38.7075 12.4247 38.5234 12.4977C38.3393 12.5706 38.1714 12.6793 38.0295 12.8175L32.4075 18.2865C31.8705 18.7335 31.5 19.698 31.5 20.8155C31.5 22.3605 32.208 23.61 33.0825 23.61C33.4125 23.61 33.72 23.43 33.975 23.124L41.052 15.8865C41.324 15.6084 41.4773 15.2354 41.4795 14.8464C41.4817 14.4574 41.3328 14.0828 41.064 13.8015L40.1595 12.8565V12.855Z" fill="url(#paint10_radial_985_6280)"/>
<path id="Vector_12" d="M40.1595 12.855C40.0225 12.7119 39.8586 12.5974 39.6772 12.518C39.4957 12.4386 39.3003 12.3959 39.1023 12.3925C38.9043 12.389 38.7075 12.4247 38.5234 12.4977C38.3393 12.5706 38.1714 12.6793 38.0295 12.8175L32.4075 18.2865C31.8705 18.7335 31.5 19.698 31.5 20.8155C31.5 22.3605 32.208 23.61 33.0825 23.61C33.4125 23.61 33.72 23.43 33.975 23.124L41.052 15.8865C41.324 15.6084 41.4773 15.2354 41.4795 14.8464C41.4817 14.4574 41.3328 14.0828 41.064 13.8015L40.1595 12.8565V12.855Z" fill="url(#paint11_linear_985_6280)"/>
<path id="Vector_13" d="M40.1595 12.855C40.0225 12.7119 39.8586 12.5974 39.6772 12.518C39.4957 12.4386 39.3003 12.3959 39.1023 12.3925C38.9043 12.389 38.7075 12.4247 38.5234 12.4977C38.3393 12.5706 38.1714 12.6793 38.0295 12.8175L32.4075 18.2865C31.8705 18.7335 31.5 19.698 31.5 20.8155C31.5 22.3605 32.208 23.61 33.0825 23.61C33.4125 23.61 33.72 23.43 33.975 23.124L41.052 15.8865C41.324 15.6084 41.4773 15.2354 41.4795 14.8464C41.4817 14.4574 41.3328 14.0828 41.064 13.8015L40.1595 12.8565V12.855Z" fill="url(#paint12_radial_985_6280)"/>
<path id="Vector_14" d="M7.88691 25.653C8.02377 25.5098 8.18762 25.3952 8.36902 25.3157C8.55041 25.2361 8.74576 25.1933 8.94379 25.1897C9.14182 25.1861 9.3386 25.2217 9.52279 25.2945C9.70697 25.3673 9.87491 25.4759 10.0169 25.614L15.6389 31.083C16.1759 31.53 16.5464 32.4945 16.5464 33.612C16.5464 35.157 15.8384 36.4065 14.9639 36.4065C14.6339 36.4065 14.3264 36.2265 14.0729 35.9205L6.99441 28.683C6.72244 28.4049 6.56916 28.0319 6.56692 27.6429C6.56468 27.2539 6.71366 26.8793 6.98242 26.598L7.88691 25.653Z" fill="url(#paint13_linear_985_6280)"/>
<path id="Vector_15" d="M7.88691 25.653C8.02377 25.5098 8.18762 25.3952 8.36902 25.3157C8.55041 25.2361 8.74576 25.1933 8.94379 25.1897C9.14182 25.1861 9.3386 25.2217 9.52279 25.2945C9.70697 25.3673 9.87491 25.4759 10.0169 25.614L15.6389 31.083C16.1759 31.53 16.5464 32.4945 16.5464 33.612C16.5464 35.157 15.8384 36.4065 14.9639 36.4065C14.6339 36.4065 14.3264 36.2265 14.0729 35.9205L6.99441 28.683C6.72244 28.4049 6.56916 28.0319 6.56692 27.6429C6.56468 27.2539 6.71366 26.8793 6.98242 26.598L7.88691 25.653Z" fill="url(#paint14_linear_985_6280)"/>
<path id="Vector_16" d="M7.88691 25.653C8.02377 25.5098 8.18762 25.3952 8.36902 25.3157C8.55041 25.2361 8.74576 25.1933 8.94379 25.1897C9.14182 25.1861 9.3386 25.2217 9.52279 25.2945C9.70697 25.3673 9.87491 25.4759 10.0169 25.614L15.6389 31.083C16.1759 31.53 16.5464 32.4945 16.5464 33.612C16.5464 35.157 15.8384 36.4065 14.9639 36.4065C14.6339 36.4065 14.3264 36.2265 14.0729 35.9205L6.99441 28.683C6.72244 28.4049 6.56916 28.0319 6.56692 27.6429C6.56468 27.2539 6.71366 26.8793 6.98242 26.598L7.88691 25.653Z" fill="url(#paint15_linear_985_6280)"/>
<path id="Vector_17" d="M7.88691 25.653C8.02377 25.5098 8.18762 25.3952 8.36902 25.3157C8.55041 25.2361 8.74576 25.1933 8.94379 25.1897C9.14182 25.1861 9.3386 25.2217 9.52279 25.2945C9.70697 25.3673 9.87491 25.4759 10.0169 25.614L15.6389 31.083C16.1759 31.53 16.5464 32.4945 16.5464 33.612C16.5464 35.157 15.8384 36.4065 14.9639 36.4065C14.6339 36.4065 14.3264 36.2265 14.0729 35.9205L6.99441 28.683C6.72244 28.4049 6.56916 28.0319 6.56692 27.6429C6.56468 27.2539 6.71366 26.8793 6.98242 26.598L7.88691 25.653Z" fill="url(#paint16_radial_985_6280)"/>
<path id="Vector_18" d="M7.88691 25.653C8.02377 25.5098 8.18762 25.3952 8.36902 25.3157C8.55041 25.2361 8.74576 25.1933 8.94379 25.1897C9.14182 25.1861 9.3386 25.2217 9.52279 25.2945C9.70697 25.3673 9.87491 25.4759 10.0169 25.614L15.6389 31.083C16.1759 31.53 16.5464 32.4945 16.5464 33.612C16.5464 35.157 15.8384 36.4065 14.9639 36.4065C14.6339 36.4065 14.3264 36.2265 14.0729 35.9205L6.99441 28.683C6.72244 28.4049 6.56916 28.0319 6.56692 27.6429C6.56468 27.2539 6.71366 26.8793 6.98242 26.598L7.88691 25.653Z" fill="url(#paint17_linear_985_6280)"/>
<path id="Vector_19" d="M7.88691 25.653C8.02377 25.5098 8.18762 25.3952 8.36902 25.3157C8.55041 25.2361 8.74576 25.1933 8.94379 25.1897C9.14182 25.1861 9.3386 25.2217 9.52279 25.2945C9.70697 25.3673 9.87491 25.4759 10.0169 25.614L15.6389 31.083C16.1759 31.53 16.5464 32.4945 16.5464 33.612C16.5464 35.157 15.8384 36.4065 14.9639 36.4065C14.6339 36.4065 14.3264 36.2265 14.0729 35.9205L6.99441 28.683C6.72244 28.4049 6.56916 28.0319 6.56692 27.6429C6.56468 27.2539 6.71366 26.8793 6.98242 26.598L7.88691 25.653Z" fill="url(#paint18_linear_985_6280)"/>
<path id="Vector_20" d="M7.88691 25.653C8.02377 25.5098 8.18762 25.3952 8.36902 25.3157C8.55041 25.2361 8.74576 25.1933 8.94379 25.1897C9.14182 25.1861 9.3386 25.2217 9.52279 25.2945C9.70697 25.3673 9.87491 25.4759 10.0169 25.614L15.6389 31.083C16.1759 31.53 16.5464 32.4945 16.5464 33.612C16.5464 35.157 15.8384 36.4065 14.9639 36.4065C14.6339 36.4065 14.3264 36.2265 14.0729 35.9205L6.99441 28.683C6.72244 28.4049 6.56916 28.0319 6.56692 27.6429C6.56468 27.2539 6.71366 26.8793 6.98242 26.598L7.88691 25.653Z" fill="url(#paint19_linear_985_6280)"/>
<path id="Vector_21" d="M7.88691 25.653C8.02377 25.5098 8.18762 25.3952 8.36902 25.3157C8.55041 25.2361 8.74576 25.1933 8.94379 25.1897C9.14182 25.1861 9.3386 25.2217 9.52279 25.2945C9.70697 25.3673 9.87491 25.4759 10.0169 25.614L15.6389 31.083C16.1759 31.53 16.5464 32.4945 16.5464 33.612C16.5464 35.157 15.8384 36.4065 14.9639 36.4065C14.6339 36.4065 14.3264 36.2265 14.0729 35.9205L6.99441 28.683C6.72244 28.4049 6.56916 28.0319 6.56692 27.6429C6.56468 27.2539 6.71366 26.8793 6.98242 26.598L7.88691 25.653Z" fill="url(#paint20_linear_985_6280)"/>
<path id="Vector_22" d="M7.88691 25.653C8.02377 25.5098 8.18762 25.3952 8.36902 25.3157C8.55041 25.2361 8.74576 25.1933 8.94379 25.1897C9.14182 25.1861 9.3386 25.2217 9.52279 25.2945C9.70697 25.3673 9.87491 25.4759 10.0169 25.614L15.6389 31.083C16.1759 31.53 16.5464 32.4945 16.5464 33.612C16.5464 35.157 15.8384 36.4065 14.9639 36.4065C14.6339 36.4065 14.3264 36.2265 14.0729 35.9205L6.99441 28.683C6.72244 28.4049 6.56916 28.0319 6.56692 27.6429C6.56468 27.2539 6.71366 26.8793 6.98242 26.598L7.88691 25.653Z" fill="url(#paint21_radial_985_6280)"/>
<g id="Group_2" filter="url(#filter0_d_985_6280)">
<path id="Vector_23" d="M35.395 9.2025C35.395 9.66937 35.1581 10.1661 34.6184 10.6715C34.0779 11.1777 33.2686 11.6566 32.2269 12.0692C30.1463 12.8933 27.2379 13.414 24 13.414C20.7621 13.414 17.8536 12.8933 15.7731 12.0692C14.7313 11.6566 13.9221 11.1777 13.3815 10.6715C12.8418 10.1661 12.605 9.66937 12.605 9.2025C12.605 8.73563 12.8418 8.23893 13.3815 7.73353C13.9221 7.22733 14.7313 6.74845 15.7731 6.33583C17.8536 5.51174 20.7621 4.991 24 4.991C27.2379 4.991 30.1463 5.51174 32.2269 6.33583C33.2686 6.74845 34.0779 7.22733 34.6184 7.73353C35.1581 8.23893 35.395 8.73563 35.395 9.2025Z" fill="url(#paint22_linear_985_6280)" stroke="black"/>
</g>
<path id="Vector_24" d="M24 12.78C29.8115 12.78 34.5225 11.0769 34.5225 8.976C34.5225 6.87511 29.8115 5.172 24 5.172C18.1886 5.172 13.4775 6.87511 13.4775 8.976C13.4775 11.0769 18.1886 12.78 24 12.78Z" fill="url(#paint23_linear_985_6280)"/>
<path id="Vector_25" d="M24 11.0085C28.0386 11.0085 31.3125 9.90847 31.3125 8.5515C31.3125 7.19454 28.0386 6.0945 24 6.0945C19.9614 6.0945 16.6875 7.19454 16.6875 8.5515C16.6875 9.90847 19.9614 11.0085 24 11.0085Z" fill="url(#paint24_linear_985_6280)"/>
<path id="Vector_26" d="M23.9997 9.375C21.7837 9.375 19.9872 8.90289 19.9872 8.3205C19.9872 7.73812 21.7837 7.266 23.9997 7.266C26.2157 7.266 28.0122 7.73812 28.0122 8.3205C28.0122 8.90289 26.2157 9.375 23.9997 9.375Z" fill="#E1A161"/>
<g id="Group_3" filter="url(#filter1_f_985_6280)">
<path id="Vector_27" d="M8.99854 26.7195L16.2075 34.0365" stroke="url(#paint25_linear_985_6280)" stroke-linecap="round"/>
</g>
</g>
</g>
<defs>
<filter id="filter0_d_985_6280" x="11.905" y="4.291" width="23.99" height="9.623" filterUnits="userSpaceOnUse" color-interpolation-filters="sRGB">
<feFlood flood-opacity="0" result="BackgroundImageFix"/>
<feColorMatrix in="SourceAlpha" type="matrix" values="0 0 0 0 0 0 0 0 0 0 0 0 0 0 0 0 0 0 127 0" result="hardAlpha"/>
<feOffset dx="-0.1" dy="-0.1"/>
<feGaussianBlur stdDeviation="0.05"/>
<feComposite in2="hardAlpha" operator="out"/>
<feColorMatrix type="matrix" values="0 0 0 0 0.8 0 0 0 0 0.576471 0 0 0 0 0.490196 0 0 0 1 0"/>
<feBlend mode="normal" in2="BackgroundImageFix" result="effect1_dropShadow_985_6280"/>
<feBlend mode="normal" in="SourceGraphic" in2="effect1_dropShadow_985_6280" result="shape"/>
</filter>
<filter id="filter1_f_985_6280" x="7.49854" y="25.2195" width="10.209" height="10.317" filterUnits="userSpaceOnUse" color-interpolation-filters="sRGB">
<feFlood flood-opacity="0" result="BackgroundImageFix"/>
<feBlend mode="normal" in="SourceGraphic" in2="BackgroundImageFix" result="shape"/>
<feGaussianBlur stdDeviation="0.5" result="effect1_foregroundBlur_985_6280"/>
</filter>
<radialGradient id="paint0_radial_985_6280" cx="0" cy="0" r="1" gradientUnits="userSpaceOnUse" gradientTransform="translate(30.75 15.4545) rotate(180) scale(12.0938 30.3862)">
<stop stop-color="#956860"/>
<stop offset="1" stop-color="#734544"/>
</radialGradient>
<linearGradient id="paint1_linear_985_6280" x1="10.716" y1="21.8445" x2="21.5775" y2="21.8445" gradientUnits="userSpaceOnUse">
<stop stop-color="#503C39"/>
<stop offset="1" stop-color="#503C39" stop-opacity="0"/>
</linearGradient>
<radialGradient id="paint2_radial_985_6280" cx="0" cy="0" r="1" gradientUnits="userSpaceOnUse" gradientTransform="translate(13.8285 31.626) rotate(-108.566) scale(6.47774 2.17625)">
<stop offset="0.239" stop-color="#42211C"/>
<stop offset="1" stop-color="#42211C" stop-opacity="0"/>
</radialGradient>
<radialGradient id="paint3_radial_985_6280" cx="0" cy="0" r="1" gradientUnits="userSpaceOnUse" gradientTransform="translate(34.0665 18.9975) rotate(-73.0907) scale(5.10662 2.4987)">
<stop offset="0.24" stop-color="#5B322A"/>
<stop offset="1" stop-color="#5B322A" stop-opacity="0"/>
</radialGradient>
<linearGradient id="paint4_linear_985_6280" x1="33.27" y1="22.935" x2="33.27" y2="42.4545" gradientUnits="userSpaceOnUse">
<stop stop-color="#775B52"/>
<stop offset="1" stop-color="#866861"/>
</linearGradient>
<linearGradient id="paint5_linear_985_6280" x1="11.5094" y1="36.3315" x2="16.1804" y2="36.3315" gradientUnits="userSpaceOnUse">
<stop stop-color="#584341"/>
<stop offset="1" stop-color="#644240"/>
</linearGradient>
<linearGradient id="paint6_linear_985_6280" x1="14.2575" y1="10.368" x2="14.2575" y2="22.5795" gradientUnits="userSpaceOnUse">
<stop stop-color="#A26651"/>
<stop offset="1" stop-color="#8B564A"/>
</linearGradient>
<linearGradient id="paint7_linear_985_6280" x1="18.7561" y1="22.5795" x2="18.7561" y2="31.7205" gradientUnits="userSpaceOnUse">
<stop stop-color="#AB695C"/>
<stop offset="1" stop-color="#AB685D"/>
</linearGradient>
<linearGradient id="paint8_linear_985_6280" x1="32.2485" y1="35.1765" x2="32.2485" y2="42.9705" gradientUnits="userSpaceOnUse">
<stop stop-color="#DB947E"/>
<stop offset="1" stop-color="#C9897C"/>
</linearGradient>
<radialGradient id="paint9_radial_985_6280" cx="0" cy="0" r="1" gradientUnits="userSpaceOnUse" gradientTransform="translate(38.3918 15.8759) rotate(135.588) scale(12.9275 4.36612)">
<stop stop-color="#704C4B"/>
<stop offset="1" stop-color="#643F3F"/>
</radialGradient>
<radialGradient id="paint10_radial_985_6280" cx="0" cy="0" r="1" gradientUnits="userSpaceOnUse" gradientTransform="translate(40.8825 13.2825) rotate(138.366) scale(1.95723 2.82688)">
<stop offset="0.283" stop-color="#876C62"/>
<stop offset="1" stop-color="#876C62" stop-opacity="0"/>
</radialGradient>
<linearGradient id="paint11_linear_985_6280" x1="34.2195" y1="15.4545" x2="35.6955" y2="17.0475" gradientUnits="userSpaceOnUse">
<stop stop-color="#4C2B22"/>
<stop offset="1" stop-color="#4C2B22" stop-opacity="0"/>
</linearGradient>
<radialGradient id="paint12_radial_985_6280" cx="0" cy="0" r="1" gradientUnits="userSpaceOnUse" gradientTransform="translate(37.6875 16.86) rotate(133.095) scale(8.47339 4.50414)">
<stop offset="0.869" stop-color="#785C53" stop-opacity="0"/>
<stop offset="0.961" stop-color="#785C53"/>
</radialGradient>
<linearGradient id="paint13_linear_985_6280" x1="9.91191" y1="32.2875" x2="13.5074" y2="28.4565" gradientUnits="userSpaceOnUse">
<stop stop-color="#5C3846"/>
<stop offset="1" stop-color="#654335"/>
</linearGradient>
<linearGradient id="paint14_linear_985_6280" x1="13.9334" y1="36.783" x2="12.7739" y2="34.6365" gradientUnits="userSpaceOnUse">
<stop stop-color="#5F4341"/>
<stop offset="1" stop-color="#5F4341" stop-opacity="0"/>
</linearGradient>
<linearGradient id="paint15_linear_985_6280" x1="13.8899" y1="28.3275" x2="12.1739" y2="30.474" gradientUnits="userSpaceOnUse">
<stop stop-color="#84645A"/>
<stop offset="1" stop-color="#84645A" stop-opacity="0"/>
</linearGradient>
<radialGradient id="paint16_radial_985_6280" cx="0" cy="0" r="1" gradientUnits="userSpaceOnUse" gradientTransform="translate(7.54641 26.112) rotate(43.7458) scale(1.89369 4.50883)">
<stop offset="0.057" stop-color="#634E48"/>
<stop offset="1" stop-color="#634E48" stop-opacity="0"/>
</radialGradient>
<linearGradient id="paint17_linear_985_6280" x1="9.91191" y1="32.2875" x2="13.5074" y2="28.4565" gradientUnits="userSpaceOnUse">
<stop stop-color="#5C3846"/>
<stop offset="1" stop-color="#654335"/>
</linearGradient>
<linearGradient id="paint18_linear_985_6280" x1="13.9334" y1="36.783" x2="12.7739" y2="34.6365" gradientUnits="userSpaceOnUse">
<stop stop-color="#5F4341"/>
<stop offset="1" stop-color="#5F4341" stop-opacity="0"/>
</linearGradient>
<linearGradient id="paint19_linear_985_6280" x1="13.8899" y1="28.3275" x2="12.1739" y2="30.474" gradientUnits="userSpaceOnUse">
<stop stop-color="#84645A"/>
<stop offset="1" stop-color="#84645A" stop-opacity="0"/>
</linearGradient>
<linearGradient id="paint20_linear_985_6280" x1="13.5194" y1="28.911" x2="13.1984" y2="29.217" gradientUnits="userSpaceOnUse">
<stop stop-color="#664336"/>
<stop offset="1" stop-color="#664336" stop-opacity="0"/>
</linearGradient>
<radialGradient id="paint21_radial_985_6280" cx="0" cy="0" r="1" gradientUnits="userSpaceOnUse" gradientTransform="translate(7.54641 26.112) rotate(43.7458) scale(1.89369 4.50883)">
<stop offset="0.057" stop-color="#634E48"/>
<stop offset="1" stop-color="#634E48" stop-opacity="0"/>
</radialGradient>
<linearGradient id="paint22_linear_985_6280" x1="10.0545" y1="9.2025" x2="31.9155" y2="9.2025" gradientUnits="userSpaceOnUse">
<stop stop-color="#A77562"/>
<stop offset="1" stop-color="#C08067"/>
</linearGradient>
<linearGradient id="paint23_linear_985_6280" x1="32.3805" y1="8.52" x2="15.093" y2="8.52" gradientUnits="userSpaceOnUse">
<stop stop-color="#E4A261"/>
<stop offset="1" stop-color="#DAA061"/>
</linearGradient>
<linearGradient id="paint24_linear_985_6280" x1="18.9375" y1="6.642" x2="31.3125" y2="11.517" gradientUnits="userSpaceOnUse">
<stop stop-color="#B77E65"/>
<stop offset="1" stop-color="#BB7E65"/>
</linearGradient>
<linearGradient id="paint25_linear_985_6280" x1="8.93404" y1="26.526" x2="16.911" y2="34.617" gradientUnits="userSpaceOnUse">
<stop stop-color="#87685F"/>
<stop offset="1" stop-color="#87685F" stop-opacity="0"/>
</linearGradient>
</defs>
</svg>
