<svg width="49" height="48" viewBox="0 0 49 48" fill="none" xmlns="http://www.w3.org/2000/svg">
<g id="noto:sponge">
<path id="Vector" d="M3.94532 37.2201L3.94545 37.2202C4.61285 38.0658 5.4944 38.7574 6.4454 39.3477L6.44613 39.3481C6.53899 39.406 6.64299 39.4721 6.75624 39.544C7.25978 39.8639 7.94634 40.3 8.65138 40.6485C9.08184 40.8612 9.49665 41.0295 9.8594 41.1168C10.2338 41.207 10.4821 41.1936 10.6281 41.1313L10.6297 41.1306C10.6629 41.1166 10.7042 41.0923 10.767 41.0469C10.7769 41.0397 10.799 41.0231 10.8264 41.0025C10.8799 40.9623 10.9534 40.907 10.9945 40.8782C11.3566 40.6235 11.8237 40.4242 12.3331 40.4389C12.8396 40.4499 13.381 40.6888 13.6883 41.1611L13.689 41.162C13.7517 41.2589 13.8076 41.3466 13.8585 41.4265C14.0656 41.751 14.1903 41.9464 14.3528 42.1065C14.5231 42.2743 14.753 42.4141 15.2599 42.5429L15.2609 42.5432C16.3921 42.8332 17.6018 42.9841 18.7962 43.0998C20.6315 43.2771 22.4911 43.2772 24.251 42.8633L24.2511 42.8633C26.643 42.3011 28.6593 40.8676 29.3499 38.5426L29.35 38.5424C30.0332 36.2465 32.0267 34.6805 34.0803 33.6401C36.1473 32.5928 38.3754 32.0264 39.6998 31.7775M3.94532 37.2201L39.793 32.2687M3.94532 37.2201C3.63582 36.8283 3.18563 36.1704 2.9204 35.5114C2.63725 34.8079 2.65162 34.3339 2.88259 34.0765L3.94532 37.2201ZM39.6998 31.7775C39.7001 31.7775 39.7004 31.7774 39.7007 31.7773L39.793 32.2687M39.6998 31.7775C39.6997 31.7775 39.6996 31.7775 39.6996 31.7775L39.793 32.2687M39.6998 31.7775C40.2271 31.6772 40.7464 31.5704 41.2596 31.4458M39.793 32.2687C40.3255 32.1675 40.8542 32.0587 41.3792 31.9312M41.2596 31.4458C41.2591 31.4459 41.2585 31.446 41.2579 31.4462L41.3792 31.9312M41.2596 31.4458C41.3576 31.4214 41.4929 31.3979 41.6197 31.3758L41.6455 31.3713C41.7908 31.346 41.9442 31.319 42.0916 31.2867C42.2414 31.2539 42.3668 31.2194 42.4581 31.1836C42.4807 31.1748 42.4979 31.1671 42.5105 31.161M41.2596 31.4458C41.2602 31.4456 41.2607 31.4455 41.2612 31.4454L41.3792 31.9312M41.3792 31.9312L42.5105 31.161M42.5105 31.161C42.5324 31.1504 42.541 31.1444 42.5411 31.1446C42.5413 31.1448 42.5254 31.1568 42.5058 31.1851L42.9167 31.47L42.503 31.1892C42.5007 31.1926 42.4996 31.1947 42.4996 31.1947C42.4996 31.1947 42.5035 31.1866 42.5096 31.1645C42.5099 31.1634 42.5102 31.1622 42.5105 31.161ZM45.3271 29.7465C45.2849 29.7076 45.241 29.6719 45.1957 29.6394C45.1512 29.6822 45.1152 29.7113 45.0896 29.7275C45.0859 29.7299 45.0827 29.7318 45.0801 29.7333C45.1085 29.7215 45.1952 29.6971 45.3075 29.7497L45.2978 29.7705M45.3271 29.7465C45.3257 29.7452 45.3242 29.7439 45.3226 29.7425L45.2978 29.7705M45.3271 29.7465C45.3285 29.7478 45.3298 29.749 45.3312 29.7503L45.283 29.802M45.3271 29.7465C45.3331 29.7519 45.3386 29.757 45.3433 29.7613L45.3583 29.7754L45.368 29.7845L45.3723 29.7885C45.3736 29.7896 45.3714 29.7875 45.3666 29.7839L45.3648 29.7825C45.3585 29.7779 45.3484 29.7709 45.3349 29.7635L45.0955 30.2025L45.283 29.802M45.2978 29.7705L44.9905 30.1162L45.283 29.802M45.2978 29.7705L45.283 29.802M46.0855 17.5762L45.587 17.6156L45.587 17.6158L45.5871 17.6167L45.5874 17.6204L45.5886 17.6352L45.5931 17.6936L45.6103 17.9188C45.6109 17.9263 45.6114 17.9339 45.612 17.9417L45.9222 18.0488L46.0855 17.5762ZM30.4334 12.6982L30.6135 12.6182L30.4105 12.1612L30.2472 12.6338L30.4334 12.6982ZM2.0831 25.2926C2.08497 25.182 2.08771 25.0783 2.09135 24.9828L1.59172 24.9637L1.79471 25.4207L2.0831 25.2926ZM2.43857 30.7757C2.43249 30.7677 2.42698 30.7601 2.42202 30.753L2.01172 31.0387L2.42295 30.7543C2.4351 30.7719 2.44152 30.7849 2.44349 30.7892C2.44263 30.7871 2.44095 30.7827 2.43857 30.7757Z" fill="#EEBD1C" stroke="black"/>
<path id="Vector_2" d="M21.4827 10.6721C21.8608 10.7844 22.2967 10.8302 22.7526 10.7961L22.7541 10.796C23.3528 10.7495 23.8923 10.5764 24.2962 10.3319C24.4978 10.2099 24.68 10.0612 24.8164 9.88719C24.9515 9.71486 25.0625 9.48943 25.0603 9.22837L25.0603 9.22044L25.0599 9.21252C25.0586 9.17793 25.0561 9.1439 25.0526 9.11047C28.0856 8.54354 32.3773 8.94555 38.4077 11.4055C41.8495 12.8096 43.815 14.3063 44.8102 15.714C45.787 17.0959 45.8484 18.4168 45.4212 19.5862C44.9841 20.7826 44.0195 21.8565 42.8908 22.6471C41.7576 23.4409 40.5279 23.9013 39.6219 23.9392L39.6217 23.9392C37.1527 24.0436 35.6311 24.3377 34.6994 24.6126C34.232 24.7506 33.9158 24.8829 33.7052 24.9819C33.656 25.005 33.6108 25.0273 33.5731 25.0461C33.467 25.0214 33.3128 24.9872 33.1348 24.9533C32.7855 24.8868 32.3129 24.8139 31.8147 24.7892C31.322 24.7648 30.773 24.7855 30.2846 24.9256C29.7946 25.0661 29.3034 25.347 29.0475 25.8854C28.7957 26.4147 29.0893 26.8645 29.3452 27.1062C29.3737 27.1331 29.4034 27.1593 29.4338 27.1845C28.9822 27.5491 28.5305 28.025 28.0707 28.5453C27.76 28.8969 27.4341 29.2828 27.0934 29.6863C27.0368 29.7533 26.9797 29.8209 26.9222 29.8889C26.5174 30.3678 26.089 30.8708 25.6285 31.3833L25.6283 31.3835C23.5077 33.7458 21.2238 34.6137 18.4712 34.4955C15.6689 34.3751 12.3675 33.2324 8.24765 31.4895L8.24714 31.4893C6.85708 30.903 5.25637 30.0579 4.03266 28.9338C2.81275 27.8132 2.01108 26.4591 2.09095 24.8315C2.11455 24.3796 2.20967 23.9798 2.3194 23.6851C2.37441 23.5373 2.43012 23.4239 2.47675 23.3474C2.50094 23.3077 2.51757 23.2864 2.52506 23.2772C2.61615 23.2226 2.71845 23.1709 2.8367 23.1138C2.86249 23.1013 2.88948 23.0884 2.91733 23.0751C3.02115 23.0254 3.13686 22.97 3.24622 22.9117C3.5256 22.7627 3.85492 22.5495 4.07014 22.1834L4.07015 22.1834L4.07161 22.1809C4.15188 22.0425 4.20307 21.9027 4.24089 21.7882C4.25957 21.7317 4.27333 21.6874 4.28562 21.6478C4.30272 21.5926 4.31699 21.5467 4.33774 21.4896C4.37295 21.3928 4.52998 21.0766 5.36667 20.5535C6.19992 20.0325 7.654 19.3392 10.1883 18.4652L10.1885 18.4651C10.6387 18.3097 11.1012 18.1593 11.5695 18.007C13.0309 17.5318 14.55 17.0378 15.938 16.3132L15.9383 16.3131C16.8756 15.8231 17.8586 15.1251 18.3746 14.0367L18.3747 14.0365C18.8825 12.9642 19.7293 11.7393 21.0877 10.7556C21.2187 10.6617 21.368 10.6387 21.4827 10.6721Z" fill="#FFEB3B" stroke="black"/>
<path id="Vector_3" d="M10.652 33.0038C10.7195 33.9075 10.1608 34.545 9.40326 34.4325C8.64576 34.3163 7.97451 33.4913 7.90701 32.5913C7.88762 32.3831 7.90799 32.1731 7.96701 31.9725C7.96701 31.9725 9.90951 31.0125 11.237 31.665C12.5645 32.3175 10.652 33.0038 10.652 33.0038Z" fill="#D19600"/>
<path id="Vector_4" d="M10.652 32.9925C10.1908 33.1425 9.68827 33.1613 9.22702 33.0113C8.96827 32.9288 8.72827 32.7975 8.51077 32.6325C8.39827 32.5463 7.93702 32.2013 7.95202 32.0475C7.96702 31.8863 8.41327 31.785 8.55577 31.7363C9.39202 31.4513 10.412 31.26 11.237 31.665C11.897 31.9875 11.7283 32.43 11.1845 32.7525C11.0158 32.8537 10.8358 32.9325 10.652 32.9925Z" fill="#EEBD1C"/>
<path id="Vector_5" d="M7.29186 37.4663C7.35186 38.2875 6.84561 38.8612 6.15936 38.76C5.47311 38.655 4.86561 37.9088 4.80561 37.0913C4.74561 36.2738 5.25186 35.6962 5.93811 35.7975C6.62436 35.8987 7.23186 36.6525 7.29186 37.4663ZM16.1456 38.1C16.2169 39.0337 15.7031 39.7087 14.9944 39.6038C14.2894 39.4988 13.6631 38.6625 13.5919 37.7325C13.5206 36.8025 14.0344 36.1237 14.7431 36.2287C15.4481 36.33 16.0744 37.1662 16.1456 38.1ZM20.0794 41.1413C20.1206 41.7075 19.8056 42.12 19.3781 42.06C18.9506 42 18.5644 41.4862 18.5231 40.9163C18.4819 40.35 18.7969 39.9375 19.2244 39.9975C19.6519 40.0575 20.0381 40.5675 20.0794 41.1413ZM26.2744 35.0362C26.2894 36.0187 25.7831 37.0388 25.1456 37.3163C24.5081 37.5938 23.9756 37.0237 23.9606 36.0375C23.9456 35.055 24.4519 34.035 25.0894 33.7575C25.7269 33.4837 26.2556 34.0575 26.2744 35.0362ZM41.5931 29.7225C41.5744 30.4763 41.1544 31.2412 40.6594 31.4325C40.1606 31.6237 39.7706 31.1737 39.7894 30.4162C39.8081 29.6625 40.2281 28.8975 40.7231 28.7063C41.2219 28.515 41.6119 28.9725 41.5931 29.7225ZM45.1631 25.5863C45.1444 26.34 44.7244 27.105 44.2294 27.2962C43.7344 27.4875 43.3406 27.0375 43.3594 26.28C43.3781 25.5263 43.7981 24.7612 44.2931 24.57C44.7919 24.3787 45.1819 24.8363 45.1631 25.5863ZM37.6631 27.7875C37.6369 28.8937 36.9731 30.0338 36.1856 30.3375C35.3981 30.6412 34.7794 30 34.8056 28.8938C34.8319 27.7875 35.4956 26.6475 36.2831 26.3437C37.0706 26.04 37.6931 26.685 37.6631 27.7875Z" fill="#D19600"/>
<path id="Vector_6" d="M9.0986 23.7706C10.5277 23.6627 11.6382 22.9391 11.5789 22.1543C11.5197 21.3695 10.3131 20.8208 8.88402 20.9287C7.45491 21.0366 6.34442 21.7603 6.40368 22.545C6.46293 23.3298 7.66949 23.8785 9.0986 23.7706Z" fill="#EEBD1C"/>
<path id="Vector_7" d="M19.5019 25.2013C21.6765 25.0371 23.3742 24.0401 23.2937 22.9745C23.2133 21.9088 21.3851 21.1781 19.2105 21.3423C17.0358 21.5065 15.3382 22.5035 15.4186 23.5691C15.4991 24.6347 17.3272 25.3655 19.5019 25.2013Z" fill="#EEBD1C"/>
<path id="Vector_8" d="M23.656 15.0512C25.1863 14.9356 26.3754 14.1606 26.3119 13.3201C26.2484 12.4795 24.9564 11.8918 23.4261 12.0074C21.8958 12.1229 20.7067 12.898 20.7702 13.7385C20.8337 14.579 22.1257 15.1667 23.656 15.0512Z" fill="#EEBD1C"/>
<path id="Vector_9" d="M15.9516 20.1196C16.8086 20.0549 17.4746 19.6207 17.439 19.1499C17.4035 18.679 16.6799 18.3498 15.8228 18.4145C14.9658 18.4792 14.2998 18.9134 14.3354 19.3842C14.3709 19.8551 15.0945 20.1843 15.9516 20.1196Z" fill="#EEBD1C"/>
<path id="Vector_10" d="M14.6283 28.2384C15.4854 28.1737 16.1513 27.7395 16.1158 27.2686C16.0802 26.7978 15.3566 26.4685 14.4996 26.5332C13.6425 26.598 12.9766 27.0321 13.0121 27.503C13.0477 27.9739 13.7713 28.3031 14.6283 28.2384Z" fill="#EEBD1C"/>
<path id="Vector_11" d="M19.2675 31.3047C20.4797 31.2132 21.4218 30.5999 21.3715 29.9349C21.3213 29.2699 20.2979 28.805 19.0856 28.8966C17.8734 28.9881 16.9313 29.6014 16.9815 30.2664C17.0318 30.9314 18.0552 31.3963 19.2675 31.3047Z" fill="#EEBD1C"/>
<path id="Vector_12" d="M23.7014 18.8219C24.4882 18.7625 25.0997 18.3644 25.0671 17.9328C25.0345 17.5012 24.3702 17.1994 23.5834 17.2589C22.7965 17.3183 22.1851 17.7163 22.2177 18.148C22.2503 18.5796 22.9146 18.8813 23.7014 18.8219Z" fill="#EEBD1C"/>
<path id="Vector_13" d="M22.9216 27.597C23.7085 27.5376 24.3199 27.1395 24.2873 26.7079C24.2547 26.2763 23.5904 25.9745 22.8036 26.0339C22.0168 26.0933 21.4053 26.4914 21.4379 26.923C21.4705 27.3547 22.1348 27.6564 22.9216 27.597Z" fill="#EEBD1C"/>
<path id="Vector_14" d="M29.386 12.2819C30.1728 12.2225 30.7843 11.8244 30.7517 11.3928C30.7191 10.9611 30.0548 10.6594 29.268 10.7188C28.4811 10.7782 27.8697 11.1763 27.9023 11.6079C27.9349 12.0395 28.5991 12.3413 29.386 12.2819Z" fill="#EEBD1C"/>
<path id="Vector_15" d="M40.5965 21.1999C42.0081 21.1509 43.1307 20.4837 43.1039 19.7096C43.077 18.9355 41.9109 18.3476 40.4993 18.3965C39.0877 18.4455 37.9651 19.1127 37.9919 19.8868C38.0188 20.6609 39.1849 21.2488 40.5965 21.1999Z" fill="#EEBD1C"/>
<path id="Vector_16" d="M37.3388 17.8666C38.0074 17.8435 38.539 17.526 38.5262 17.1576C38.5134 16.7891 37.9611 16.5093 37.2926 16.5324C36.624 16.5556 36.0924 16.8731 36.1052 17.2415C36.1179 17.6099 36.6702 17.8898 37.3388 17.8666Z" fill="#EEBD1C"/>
<path id="Vector_17" d="M31.3576 15.0459C32.0247 14.9955 32.543 14.6567 32.5152 14.2891C32.4874 13.9215 31.9242 13.6643 31.2571 13.7147C30.5901 13.7651 30.0718 14.1039 30.0996 14.4715C30.1273 14.8391 30.6906 15.0963 31.3576 15.0459Z" fill="#EEBD1C"/>
<path id="Vector_18" d="M30.53 21.5384C32.0603 21.4228 33.2494 20.6477 33.1859 19.8072C33.1225 18.9667 31.8305 18.379 30.3002 18.4945C28.7699 18.6101 27.5807 19.3851 27.6442 20.2257C27.7077 21.0662 28.9997 21.6539 30.53 21.5384Z" fill="#EEBD1C"/>
<path id="Vector_19" d="M31.558 26.0962C32.1805 26.085 32.788 25.8975 33.358 25.65C33.3993 26.0063 33.2455 26.3513 33.0955 26.6775C32.9493 26.9888 32.7955 27.3112 32.5218 27.5175C32.1918 27.765 31.738 27.795 31.3368 27.6938C30.9355 27.5925 30.5793 27.3713 30.2305 27.1463C29.8968 26.9325 29.0455 26.1375 29.7318 25.7588C29.9493 25.6388 30.1893 25.7963 30.3918 25.8713C30.7743 26.0138 31.1455 26.1037 31.558 26.0962Z" fill="#D19600"/>
<path id="Vector_20" d="M12.7331 22.5413C16.1483 22.5413 18.9168 19.7727 18.9168 16.3575C18.9168 12.9423 16.1483 10.1738 12.7331 10.1738C9.31788 10.1738 6.54932 12.9423 6.54932 16.3575C6.54932 19.7727 9.31788 22.5413 12.7331 22.5413Z" fill="url(#paint0_radial_985_6049)"/>
<path id="Vector_21" d="M13.3818 7.86C14.7736 7.86 15.9018 6.73176 15.9018 5.34C15.9018 3.94824 14.7736 2.82 13.3818 2.82C11.9901 2.82 10.8618 3.94824 10.8618 5.34C10.8618 6.73176 11.9901 7.86 13.3818 7.86Z" fill="url(#paint1_radial_985_6049)"/>
<path id="Vector_22" d="M6.82289 14.9062C8.47146 14.9062 9.80789 13.5698 9.80789 11.9212C9.80789 10.2727 8.47146 8.93625 6.82289 8.93625C5.17432 8.93625 3.83789 10.2727 3.83789 11.9212C3.83789 13.5698 5.17432 14.9062 6.82289 14.9062Z" fill="url(#paint2_radial_985_6049)"/>
<path id="Vector_23" opacity="0.8" d="M10.4343 12.1162C10.4418 12.3037 10.6405 12.4312 10.8243 12.4687C11.4093 12.585 12.2118 12.3862 12.8118 12.4275C13.4455 12.4725 13.8318 12.5175 14.5218 12.7387C14.923 12.8662 15.7293 12.8887 15.5718 12.2512C15.4368 11.7 14.4805 11.2912 14.008 11.175C12.9093 10.8975 11.7918 10.95 10.9968 11.3437C10.4718 11.6025 10.4305 12.015 10.4343 12.1162Z" fill="white"/>
<path id="Vector_24" d="M33.0094 38.9287C35.2731 38.9287 37.1081 37.0937 37.1081 34.83C37.1081 32.5663 35.2731 30.7312 33.0094 30.7312C30.7457 30.7312 28.9106 32.5663 28.9106 34.83C28.9106 37.0937 30.7457 38.9287 33.0094 38.9287Z" fill="url(#paint3_radial_985_6049)"/>
<path id="Vector_25" opacity="0.7" d="M39.973 40.4925C41.0748 40.4925 41.968 39.5993 41.968 38.4975C41.968 37.3957 41.0748 36.5025 39.973 36.5025C38.8712 36.5025 37.978 37.3957 37.978 38.4975C37.978 39.5993 38.8712 40.4925 39.973 40.4925Z" fill="url(#paint4_radial_985_6049)"/>
<path id="Vector_26" opacity="0.8" d="M36.1067 34.305C36.1592 34.575 36.1704 34.8713 36.0429 35.1188C35.9154 35.3663 35.6229 35.5425 35.3604 35.4563C35.1392 35.385 35.0042 35.1675 34.8729 34.9725C34.4379 34.3463 33.8079 33.885 33.0917 33.6338C32.6492 33.4763 31.6367 33.27 31.7979 32.5688C32.0379 31.5413 33.9617 31.875 34.7529 32.3925C35.4279 32.835 35.9529 33.5138 36.1067 34.305ZM11.5779 5.02875C11.7879 5.02125 11.9604 4.7025 12.3392 4.41375C12.6804 4.15125 13.1829 4.0275 13.4867 4.00875C13.6517 3.9975 13.8954 3.945 13.9929 3.76875C14.0454 3.67125 13.9592 3.1725 13.2579 3.26625C12.4254 3.37875 11.6979 3.92625 11.5142 4.42125C11.3904 4.75875 11.3792 5.03625 11.5779 5.02875Z" fill="white"/>
</g>
<defs>
<radialGradient id="paint0_radial_985_6049" cx="0" cy="0" r="1" gradientUnits="userSpaceOnUse" gradientTransform="translate(12.8306 16.9686) rotate(11.5785) scale(6.24718 6.30329)">
<stop offset="0.376" stop-color="#80DEEA" stop-opacity="0"/>
<stop offset="1" stop-color="#80DEEA" stop-opacity="0.8"/>
</radialGradient>
<radialGradient id="paint1_radial_985_6049" cx="0" cy="0" r="1" gradientUnits="userSpaceOnUse" gradientTransform="translate(13.7244 5.71289) rotate(5.315) scale(2.6085)">
<stop offset="0.376" stop-color="#80DEEA" stop-opacity="0"/>
<stop offset="1" stop-color="#80DEEA" stop-opacity="0.8"/>
</radialGradient>
<radialGradient id="paint2_radial_985_6049" cx="0" cy="0" r="1" gradientUnits="userSpaceOnUse" gradientTransform="translate(6.90586 11.9681) rotate(5.315) scale(3.31275)">
<stop offset="0.376" stop-color="#80DEEA" stop-opacity="0"/>
<stop offset="1" stop-color="#80DEEA" stop-opacity="0.8"/>
</radialGradient>
<radialGradient id="paint3_radial_985_6049" cx="0" cy="0" r="1" gradientUnits="userSpaceOnUse" gradientTransform="translate(33.6562 35.9308) rotate(11.579) scale(4.27313)">
<stop offset="0.2" stop-color="#80DEEA" stop-opacity="0"/>
<stop offset="1" stop-color="#80DEEA" stop-opacity="0.8"/>
</radialGradient>
<radialGradient id="paint4_radial_985_6049" cx="0" cy="0" r="1" gradientUnits="userSpaceOnUse" gradientTransform="translate(40.1293 38.3867) rotate(11.579) scale(2.26012 2.26013)">
<stop offset="0.312" stop-color="#80DEEA" stop-opacity="0"/>
<stop offset="1" stop-color="#80DEEA"/>
</radialGradient>
</defs>
</svg>
