<svg width="48" height="48" viewBox="0 0 48 48" fill="none" xmlns="http://www.w3.org/2000/svg">
<g id="fluent-emoji:pizza">
<g id="Group">
<path id="Vector" d="M35.5014 43.6729L35.5013 43.6729L12.0062 30.1196L9.62277 24.2075L37.4236 7.3807L41.5 11.4571V40.209C41.5 43.2876 38.1681 45.2116 35.5014 43.6729Z" fill="url(#paint0_radial_985_6184)" stroke="black"/>
<path id="Vector_2" d="M35.5014 43.6729L35.5013 43.6729L12.0062 30.1196L9.62277 24.2075L37.4236 7.3807L41.5 11.4571V40.209C41.5 43.2876 38.1681 45.2116 35.5014 43.6729Z" fill="url(#paint1_linear_985_6184)" stroke="black"/>
<path id="Vector_3" d="M35.5014 43.6729L35.5013 43.6729L12.0062 30.1196L9.62277 24.2075L37.4236 7.3807L41.5 11.4571V40.209C41.5 43.2876 38.1681 45.2116 35.5014 43.6729Z" fill="url(#paint2_linear_985_6184)" stroke="black"/>
<path id="Vector_4" d="M37.4953 3.27691L37.4953 3.2769C39.652 2.90948 41.4998 4.61631 41.4998 6.885V11.5532C28.7392 12.2436 17.7227 19.4867 11.7555 29.9738L7.21427 27.3544C5.26593 26.23 4.64434 23.745 5.94404 21.9892C15.8666 8.60138 30.2316 4.51381 37.4953 3.27691Z" fill="url(#paint3_radial_985_6184)" stroke="black"/>
<path id="Vector_5" d="M37.4953 3.27691L37.4953 3.2769C39.652 2.90948 41.4998 4.61631 41.4998 6.885V11.5532C28.7392 12.2436 17.7227 19.4867 11.7555 29.9738L7.21427 27.3544C5.26593 26.23 4.64434 23.745 5.94404 21.9892C15.8666 8.60138 30.2316 4.51381 37.4953 3.27691Z" fill="url(#paint4_linear_985_6184)" stroke="black"/>
<path id="Vector_6" d="M37.4953 3.27691L37.4953 3.2769C39.652 2.90948 41.4998 4.61631 41.4998 6.885V11.5532C28.7392 12.2436 17.7227 19.4867 11.7555 29.9738L7.21427 27.3544C5.26593 26.23 4.64434 23.745 5.94404 21.9892C15.8666 8.60138 30.2316 4.51381 37.4953 3.27691Z" fill="url(#paint5_radial_985_6184)" stroke="black"/>
<path id="Vector_7" d="M38.5 21.75C38.5 23.0098 37.9996 24.218 37.1088 25.1088C36.218 25.9996 35.0098 26.5 33.75 26.5C32.4902 26.5 31.282 25.9996 30.3912 25.1088C29.5004 24.218 29 23.0098 29 21.75C29 20.4902 29.5004 19.282 30.3912 18.3912C31.282 17.5004 32.4902 17 33.75 17C35.0098 17 36.218 17.5004 37.1088 18.3912C37.9996 19.282 38.5 20.4902 38.5 21.75Z" fill="url(#paint6_radial_985_6184)" stroke="black"/>
<path id="Vector_8" d="M38.5 21.75C38.5 23.0098 37.9996 24.218 37.1088 25.1088C36.218 25.9996 35.0098 26.5 33.75 26.5C32.4902 26.5 31.282 25.9996 30.3912 25.1088C29.5004 24.218 29 23.0098 29 21.75C29 20.4902 29.5004 19.282 30.3912 18.3912C31.282 17.5004 32.4902 17 33.75 17C35.0098 17 36.218 17.5004 37.1088 18.3912C37.9996 19.282 38.5 20.4902 38.5 21.75Z" fill="url(#paint7_radial_985_6184)" stroke="black"/>
<path id="Vector_9" d="M36.2678 36.2678C35.7989 36.7366 35.163 37 34.5 37C33.837 37 33.2011 36.7366 32.7322 36.2678C32.2634 35.7989 32 35.163 32 34.5C32 33.837 32.2634 33.2011 32.7322 32.7322C33.2011 32.2634 33.837 32 34.5 32C35.163 32 35.7989 32.2634 36.2678 32.7322C36.7366 33.2011 37 33.837 37 34.5C37 35.163 36.7366 35.7989 36.2678 36.2678Z" fill="url(#paint8_radial_985_6184)" stroke="black"/>
<path id="Vector_10" d="M36.2678 36.2678C35.7989 36.7366 35.163 37 34.5 37C33.837 37 33.2011 36.7366 32.7322 36.2678C32.2634 35.7989 32 35.163 32 34.5C32 33.837 32.2634 33.2011 32.7322 32.7322C33.2011 32.2634 33.837 32 34.5 32C35.163 32 35.7989 32.2634 36.2678 32.7322C36.7366 33.2011 37 33.837 37 34.5C37 35.163 36.7366 35.7989 36.2678 36.2678Z" fill="url(#paint9_radial_985_6184)" stroke="black"/>
<path id="Vector_11" d="M26.5 30.75C26.5 31.612 26.1576 32.4386 25.5481 33.0481C24.9386 33.6576 24.112 34 23.25 34C22.388 34 21.5614 33.6576 20.9519 33.0481C20.3424 32.4386 20 31.612 20 30.75C20 29.888 20.3424 29.0614 20.9519 28.4519C21.5614 27.8424 22.388 27.5 23.25 27.5C24.112 27.5 24.9386 27.8424 25.5481 28.4519C26.1576 29.0614 26.5 29.888 26.5 30.75Z" fill="#FF3478" stroke="black"/>
<path id="Vector_12" d="M26.5 30.75C26.5 31.612 26.1576 32.4386 25.5481 33.0481C24.9386 33.6576 24.112 34 23.25 34C22.388 34 21.5614 33.6576 20.9519 33.0481C20.3424 32.4386 20 31.612 20 30.75C20 29.888 20.3424 29.0614 20.9519 28.4519C21.5614 27.8424 22.388 27.5 23.25 27.5C24.112 27.5 24.9386 27.8424 25.5481 28.4519C26.1576 29.0614 26.5 29.888 26.5 30.75Z" fill="url(#paint10_radial_985_6184)" stroke="black"/>
<path id="Vector_13" d="M26.5 30.75C26.5 31.612 26.1576 32.4386 25.5481 33.0481C24.9386 33.6576 24.112 34 23.25 34C22.388 34 21.5614 33.6576 20.9519 33.0481C20.3424 32.4386 20 31.612 20 30.75C20 29.888 20.3424 29.0614 20.9519 28.4519C21.5614 27.8424 22.388 27.5 23.25 27.5C24.112 27.5 24.9386 27.8424 25.5481 28.4519C26.1576 29.0614 26.5 29.888 26.5 30.75Z" fill="url(#paint11_radial_985_6184)" stroke="black"/>
</g>
</g>
<defs>
<radialGradient id="paint0_radial_985_6184" cx="0" cy="0" r="1" gradientUnits="userSpaceOnUse" gradientTransform="translate(37.9695 23.625) rotate(128.873) scale(23.6019 20.5152)">
<stop stop-color="#FFE657"/>
<stop offset="1" stop-color="#FFC547"/>
</radialGradient>
<linearGradient id="paint1_linear_985_6184" x1="19.5" y1="36.5625" x2="23.157" y2="30.75" gradientUnits="userSpaceOnUse">
<stop offset="0.231" stop-color="#EA9352"/>
<stop offset="0.787" stop-color="#EA9353" stop-opacity="0"/>
</linearGradient>
<linearGradient id="paint2_linear_985_6184" x1="42" y1="22.9695" x2="40.032" y2="22.9695" gradientUnits="userSpaceOnUse">
<stop offset="0.238" stop-color="#F5C344"/>
<stop offset="0.81" stop-color="#FFD059" stop-opacity="0"/>
</linearGradient>
<radialGradient id="paint3_radial_985_6184" cx="0" cy="0" r="1" gradientUnits="userSpaceOnUse" gradientTransform="translate(29.8123 22.6878) rotate(145.566) scale(52.0596 27.4506)">
<stop offset="0.278" stop-color="#FFA060"/>
<stop offset="0.39" stop-color="#FFC48A"/>
<stop offset="0.455" stop-color="#FFC888"/>
<stop offset="0.623" stop-color="#E4AF7C"/>
</radialGradient>
<linearGradient id="paint4_linear_985_6184" x1="7.49984" y1="28.5" x2="12.1873" y2="22.125" gradientUnits="userSpaceOnUse">
<stop stop-color="#E79786"/>
<stop offset="0.783" stop-color="#EA8F85" stop-opacity="0"/>
</linearGradient>
<radialGradient id="paint5_radial_985_6184" cx="0" cy="0" r="1" gradientUnits="userSpaceOnUse" gradientTransform="translate(40.3123 6.657) rotate(81.0851) scale(4.83972 9.43123)">
<stop stop-color="#FFE498"/>
<stop offset="1" stop-color="#FFE398" stop-opacity="0"/>
</radialGradient>
<radialGradient id="paint6_radial_985_6184" cx="0" cy="0" r="1" gradientUnits="userSpaceOnUse" gradientTransform="translate(36.3747 20.5327) rotate(137.626) scale(7.23334)">
<stop stop-color="#FF8DA2"/>
<stop offset="1" stop-color="#FF2B43"/>
</radialGradient>
<radialGradient id="paint7_radial_985_6184" cx="0" cy="0" r="1" gradientUnits="userSpaceOnUse" gradientTransform="translate(32.9995 25.2195) rotate(101.611) scale(6.98673)">
<stop offset="0.393" stop-color="#F63080"/>
<stop offset="1" stop-color="#F73184" stop-opacity="0"/>
</radialGradient>
<radialGradient id="paint8_radial_985_6184" cx="0" cy="0" r="1" gradientUnits="userSpaceOnUse" gradientTransform="translate(35.9997 33.806) rotate(137.626) scale(4.13334)">
<stop stop-color="#FF8DA2"/>
<stop offset="1" stop-color="#FF2B43"/>
</radialGradient>
<radialGradient id="paint9_radial_985_6184" cx="0" cy="0" r="1" gradientUnits="userSpaceOnUse" gradientTransform="translate(34.072 36.483) rotate(101.611) scale(3.99241)">
<stop offset="0.393" stop-color="#F63080"/>
<stop offset="1" stop-color="#F73184" stop-opacity="0"/>
</radialGradient>
<radialGradient id="paint10_radial_985_6184" cx="0" cy="0" r="1" gradientUnits="userSpaceOnUse" gradientTransform="translate(25.1238 29.8797) rotate(137.626) scale(5.16667)">
<stop stop-color="#FF8DA2"/>
<stop offset="1" stop-color="#FF2B43"/>
</radialGradient>
<radialGradient id="paint11_radial_985_6184" cx="0" cy="0" r="1" gradientUnits="userSpaceOnUse" gradientTransform="translate(22.7147 33.2279) rotate(101.611) scale(4.99053)">
<stop offset="0.393" stop-color="#F63080"/>
<stop offset="1" stop-color="#F73184" stop-opacity="0"/>
</radialGradient>
</defs>
</svg>
