<svg width="24" height="24" viewBox="0 0 24 24" fill="none" xmlns="http://www.w3.org/2000/svg">
<path id="Vector" d="M23.0601 22.7189C23.0601 23.0587 22.9251 23.3845 22.6848 23.6248C22.4446 23.865 22.1187 24 21.7789 24H1.28111C0.941342 24 0.615485 23.865 0.37523 23.6248C0.134974 23.3845 3.08378e-07 23.0587 3.08378e-07 22.7189V9.2531C-0.000135137 9.05787 0.0443485 8.8652 0.130054 8.68979C0.215759 8.51438 0.340418 8.36088 0.49451 8.24102L10.7434 0.269923C10.9683 0.0949811 11.2451 0 11.53 0C11.8149 0 12.0917 0.0949811 12.3166 0.269923L22.5655 8.24102C22.7196 8.36088 22.8443 8.51438 22.93 8.68979C23.0157 8.8652 23.0602 9.05787 23.0601 9.2531V22.7189ZM20.3519 22.206C20.9042 22.206 21.3519 21.7583 21.3519 21.206V10.3091C21.3519 10.0016 21.2104 9.71113 20.9682 9.52159L12.1463 2.61752C11.7843 2.33419 11.2757 2.33419 10.9137 2.61752L2.09184 9.52159C1.84966 9.71113 1.70815 10.0016 1.70815 10.3091V21.206C1.70815 21.7583 2.15587 22.206 2.70815 22.206H11.53H20.3519Z" fill="#6C7072"/>
</svg>
