<svg width="48" height="48" viewBox="0 0 48 48" fill="none" xmlns="http://www.w3.org/2000/svg">
<g id="lemon">
<path id="Vector" d="M12.716 24.9712L12.2161 24.9647L12.2161 24.9649L12.2161 24.9657L12.216 24.9687L12.2159 24.9809L12.2152 25.0287L12.2125 25.2112C12.2101 25.3689 12.2064 25.5952 12.2014 25.8693C12.1914 26.4176 12.1761 27.1565 12.1548 27.9198C12.1335 28.6838 12.1064 29.4694 12.0728 30.112C12.0378 30.7798 11.9981 31.2322 11.9636 31.3755L11.9631 31.3777C11.9534 31.4191 11.9182 31.5148 11.8382 31.6773C11.7623 31.8314 11.6592 32.0195 11.5333 32.2361C11.2816 32.6693 10.9514 33.1948 10.5938 33.7538C10.4477 33.9821 10.2969 34.2163 10.1454 34.4515C9.5629 35.3559 8.97 36.2764 8.60078 36.9374C8.28754 37.4981 8.04746 37.866 7.86968 38.1024C7.81652 37.9448 7.75581 37.7619 7.68917 37.5588C7.46081 36.8626 7.16638 35.9404 6.87494 35.0191C6.58363 34.098 6.29578 33.1793 6.08072 32.4908C5.9732 32.1465 5.8839 31.8598 5.82148 31.6593L5.74911 31.4265L5.74373 31.4092L5.40802 20.4047L9.26615 11.6885L12.7333 12.9861L12.2165 24.9497L12.2162 24.9572L12.2161 24.9647L12.716 24.9712Z" fill="#757F3E" stroke="black"/>
<path id="Vector_2" d="M9.25673 11.8897C9.20513 11.9412 9.13478 12.012 9.04804 12.1011C8.8478 12.3069 8.56042 12.6097 8.21493 12.9951C7.52347 13.7665 6.60184 14.8658 5.68099 16.177C3.82579 18.8187 2.03167 22.2397 2.02979 25.5412L9.25673 11.8897ZM9.25673 11.8897L9.25777 11.8895M9.25673 11.8897L9.25777 11.8895M9.25777 11.8895C9.25105 11.899 9.24431 11.9085 9.23754 11.9181C8.70822 12.6689 8.00076 13.7977 7.27337 15.325L7.2733 15.3252C6.59257 16.7557 6.18207 18.6193 5.93956 20.5645C5.69612 22.5173 5.6179 24.5881 5.61979 26.453V26.4531C5.6217 28.1766 5.83308 30.3346 6.07986 32.1717C6.32457 33.9935 6.61231 35.5617 6.77984 36.085L6.78002 36.0855C6.85305 36.3127 6.92803 36.6382 6.99371 36.9898C6.61101 36.4411 5.41287 34.5901 4.87963 33.7025C4.7944 33.5606 4.67652 33.3889 4.5369 33.1854C3.68657 31.9463 2.02986 29.5321 2.02979 25.5415L9.25777 11.8895Z" fill="#94A61D" stroke="black"/>
<path id="Vector_3" d="M11.7286 12.8298L11.7285 12.8298L11.7284 12.8299L11.7255 12.8314L11.7106 12.839C11.6969 12.8461 11.6757 12.8572 11.6483 12.8721C11.5933 12.9018 11.5131 12.9465 11.4161 13.0044C11.221 13.1207 10.9626 13.2874 10.7044 13.4907C10.4442 13.6955 10.198 13.9268 10.0164 14.1693C9.83317 14.414 9.73929 14.6384 9.72807 14.837C9.69551 15.4133 9.82651 16.0174 10.0211 16.7522C10.0515 16.8668 10.0833 16.9844 10.116 17.105C10.2875 17.7384 10.4811 18.4534 10.5973 19.2476C10.8083 20.6884 10.8565 22.4516 10.884 23.4592C10.8918 23.7436 10.8979 23.9678 10.9056 24.1076L10.9057 24.1098C10.9057 24.1098 10.9062 24.1164 10.9086 24.1311C10.9113 24.1476 10.9155 24.1699 10.922 24.1985C10.9349 24.2562 10.9543 24.3301 10.9806 24.4202C11.0332 24.6002 11.1083 24.8279 11.2 25.0892C11.3832 25.611 11.6256 26.2472 11.8688 26.8665C12.1116 27.4849 12.3536 28.0824 12.535 28.5256C12.6256 28.7471 12.7011 28.9299 12.7538 29.0572L12.7932 29.152L24.5952 39.7245L39.4689 40.1727L39.4819 40.1731L39.4819 40.1733L39.482 40.1733L39.4825 40.1733L39.4847 40.1734L39.4942 40.174L39.5327 40.176C39.5666 40.1777 39.6168 40.1801 39.6812 40.183C39.8099 40.1888 39.9949 40.1963 40.2191 40.2031C40.668 40.2166 41.2708 40.2272 41.8905 40.2157C42.5134 40.2041 43.1388 40.1704 43.6383 40.0985C43.8889 40.0624 44.0922 40.0188 44.2412 39.9699C44.3797 39.9244 44.4228 39.8897 44.4237 39.8908C44.4238 39.891 44.4222 39.8928 44.4192 39.8963C44.708 39.5541 45.1311 38.9911 45.4968 38.3871C45.8721 37.7673 46.1464 37.1694 46.2032 36.7406L46.2032 36.7406C46.3252 35.8193 46.2248 35.1175 46.0182 34.2267C45.9663 34.0029 45.9071 33.7654 45.8434 33.5096C45.6529 32.7448 45.4214 31.8154 45.2193 30.5915L45.2192 30.5909C45.1715 30.3001 45.1305 29.8469 45.0808 29.2992C45.068 29.1576 45.0546 29.0097 45.0404 28.8567C44.9697 28.0965 44.8757 27.1728 44.7258 26.1606C44.4252 24.1312 43.9029 21.7711 42.91 19.689L43.3614 19.4738L42.91 19.6889C40.6746 15.0007 36.2375 10.848 27.1042 9.6533L11.7286 12.8298ZM11.7286 12.8298L11.7287 12.8297L11.7288 12.8297L11.9869 12.7009L12.0042 12.4134L12.0042 12.4134L12.0042 12.4133L12.0042 12.4131L12.0042 12.4128L12.0043 12.4111L12.0054 12.3976C12.0064 12.3846 12.0082 12.364 12.0111 12.3367C12.0168 12.2821 12.0266 12.2011 12.0427 12.1008C12.0751 11.899 12.1319 11.6254 12.2291 11.3351C12.4302 10.7345 12.7679 10.1667 13.3098 9.91458L13.3105 9.91427C13.7748 9.6974 14.1567 9.68194 14.5462 9.73776C14.7514 9.76716 14.9563 9.81596 15.1908 9.87246L15.2044 9.87574C15.4285 9.92974 15.6787 9.99002 15.9441 10.0304C16.1349 10.06 16.3495 10.0483 16.5603 10.0249C16.7779 10.0009 17.032 9.95922 17.3133 9.91075C17.3924 9.89713 17.4742 9.88286 17.559 9.86807C18.0845 9.77641 18.7221 9.66522 19.4928 9.57032C21.2765 9.35069 23.7744 9.21884 27.104 9.65328L11.7286 12.8298Z" fill="#FCC219" stroke="black"/>
<path id="Vector_4" d="M42.9904 40.3731C42.2264 40.3343 41.3437 40.2177 40.519 40.0991C40.3274 40.0716 40.1395 40.044 39.9567 40.0172C39.3405 39.9269 38.7825 39.845 38.3398 39.8013C38.0999 39.7776 37.6979 39.8022 37.0968 39.8502C37.0192 39.8564 36.939 39.8629 36.8562 39.8696C36.3202 39.9131 35.6785 39.9651 34.9583 39.9964C33.2926 40.0688 31.1892 40.0314 28.8771 39.526C24.2863 38.5223 19.2179 35.9885 15.8534 32.6816L15.8534 32.6816C13.6044 30.4706 12.1176 28.1311 11.1903 26.3362C11.2136 26.4545 11.2384 26.5751 11.265 26.698C11.7305 28.8516 12.7136 31.6757 14.7819 34.3719C16.873 37.0979 18.966 38.9243 21.1696 40.1405C23.3729 41.3565 25.7124 41.9768 28.3173 42.2566C31.2685 42.572 33.5662 42.3945 35.2295 42.1355C36.0621 42.0058 36.7385 41.8553 37.266 41.7334C37.3247 41.7199 37.3821 41.7065 37.438 41.6935C37.6303 41.6489 37.8048 41.6083 37.9544 41.5767C38.142 41.537 38.3257 41.5034 38.4799 41.4967L38.4822 41.4966C39.1361 41.4715 39.8955 41.505 40.6716 41.5392C40.9655 41.5522 41.2618 41.5653 41.5557 41.5753C43.1158 41.6276 43.9243 40.7621 44.2779 40.3735C44.3234 40.3235 44.3797 40.2493 44.443 40.158M42.9904 40.3731C42.9902 40.3731 42.99 40.3731 42.9898 40.373L43.0164 39.8738L42.9911 40.3731C42.9909 40.3731 42.9907 40.3731 42.9904 40.3731ZM42.9904 40.3731C43.5156 40.401 44.0117 40.3029 44.443 40.158M44.443 40.158C44.7207 40.0647 44.9715 39.9521 45.1859 39.8411C45.2104 39.8284 45.2344 39.8158 45.258 39.8031L44.8999 39.4257C44.7398 39.7003 44.5759 39.9666 44.443 40.158Z" fill="#F7932A" stroke="black"/>
<path id="Vector_5" d="M19.8861 13.2525C19.7736 14.43 20.4936 15.3 21.3636 15.4537C22.3011 15.615 23.7149 15.3787 25.7999 16.5525C27.8849 17.73 30.8136 20.6625 32.5499 19.095C34.1436 17.655 31.5636 15 30.6524 14.2012C29.7411 13.4062 27.4686 11.3587 23.1824 11.28C20.7186 11.2387 19.9611 12.4575 19.8861 13.2525Z" fill="#FFEBC9"/>
<path id="Vector_6" d="M6.81056 5.47074C6.2287 5.7526 5.88848 6.07089 5.72547 6.3785C5.5703 6.67132 5.54603 7.00899 5.71023 7.41886L6.81056 5.47074ZM6.81056 5.47074C6.84278 5.50812 6.89107 5.58158 6.94326 5.70677C7.07706 6.02774 7.13282 6.43031 7.1351 6.51584C7.13882 6.65543 7.18754 6.77458 7.22375 6.84964C7.26406 6.9332 7.31565 7.01557 7.36909 7.09242C7.47616 7.2464 7.61949 7.419 7.777 7.59653C8.06049 7.91605 8.4251 8.29046 8.78514 8.66018C8.82612 8.70226 8.86705 8.74429 8.90778 8.78616L8.90817 8.78656C10.0405 9.94794 10.577 10.439 11.0772 10.8969C11.2906 11.0922 11.4973 11.2815 11.7408 11.5141C11.8526 11.6208 11.9604 11.717 12.0575 11.8029C12.0725 11.8162 12.0872 11.8292 12.1015 11.8418C12.1821 11.9131 12.2523 11.9751 12.3168 12.0353C12.4742 12.1822 12.5436 12.2706 12.5742 12.336C12.5746 12.3368 12.575 12.3376 12.5754 12.3385C12.5955 12.3805 12.6721 12.541 12.209 13.1368L6.81056 5.47074ZM7.99385 10.4407L7.99459 10.4414C8.14315 10.5953 8.31767 10.7773 8.50606 10.9737C9.27825 11.779 10.2835 12.8274 10.69 13.1763C10.971 13.4158 11.1998 13.5844 11.4206 13.6214C11.563 13.6452 11.8222 13.6336 12.2089 13.1369L7.99385 10.4407ZM7.99385 10.4407C7.93566 10.3807 7.87806 10.3214 7.82109 10.2629M7.99385 10.4407L7.82109 10.2629M7.82109 10.2629C6.91689 9.33313 6.17014 8.56529 5.7103 7.41903L7.82109 10.2629Z" fill="#757F3E" stroke="black"/>
</g>
</svg>
