<svg width="48" height="48" viewBox="0 0 48 48" fill="none" xmlns="http://www.w3.org/2000/svg">
<g id="noto:takeout-box">
<path id="Vector" d="M32.411 4.88625L32.2053 5.34196L32.2054 5.342L32.2057 5.34217L32.2071 5.34279L32.2125 5.34521L32.2332 5.35454L32.3115 5.38975C32.379 5.42002 32.4754 5.46319 32.5916 5.51488C32.8239 5.6182 33.1356 5.75586 33.4526 5.89277C33.7687 6.02928 34.0939 6.16671 34.3517 6.26874C34.4797 6.31939 34.5974 6.36387 34.6916 6.39541C34.7378 6.41089 34.787 6.42616 34.833 6.43739C34.8556 6.44292 34.8859 6.44956 34.9195 6.45401C34.9393 6.45662 34.9992 6.46445 35.0735 6.4542C35.0846 6.45392 35.1026 6.45384 35.1287 6.45427C35.186 6.45523 35.2654 6.45836 35.3631 6.46355C35.5576 6.47389 35.8094 6.49156 36.0694 6.51246C36.5892 6.55422 37.0944 6.60513 37.2496 6.63184C37.2516 6.63279 37.2729 6.63918 37.3243 6.65776C37.3895 6.6813 37.4794 6.71554 37.5923 6.75992C37.8175 6.8484 38.1235 6.973 38.4846 7.12314C39.2061 7.4232 40.14 7.82228 41.0709 8.23188C42.0025 8.6418 42.927 9.06043 43.6311 9.39994C43.9586 9.55782 44.2331 9.69604 44.4367 9.80681C44.3306 9.94849 44.1912 10.1268 44.0199 10.3396C43.5507 10.9226 42.8644 11.7382 42.0299 12.7106C40.3622 14.6543 38.1149 17.2106 35.8585 19.7567C33.6026 22.3022 31.339 24.8357 29.6394 26.7329C28.7896 27.6814 28.0808 28.4709 27.5845 29.0231C27.3364 29.2993 27.1413 29.5161 27.0084 29.6639L26.8565 29.8326L26.8511 29.8386C26.8357 29.8512 26.8233 29.8628 26.8139 29.8721C26.7439 29.9415 26.7095 30.0165 26.6999 30.0374L26.6996 30.0381C26.6726 30.0968 26.654 30.1606 26.6419 30.2054C26.6147 30.3058 26.585 30.4451 26.5535 30.6086C26.4896 30.9403 26.4087 31.4211 26.3143 32.006C26.2312 32.5209 26.1389 33.108 26.0379 33.7505C25.9053 34.5939 25.7578 35.5327 25.5964 36.5284C25.0301 40.0214 24.3332 43.9531 23.6951 45.8403C23.6498 45.9728 23.5973 46.0443 23.5579 46.0838C23.5189 46.1229 23.4775 46.146 23.4326 46.1611C23.3453 46.1904 23.2763 46.1885 23.1769 46.1857C23.1439 46.1848 23.1075 46.1838 23.066 46.1838C23.0688 46.1838 23.0676 46.1835 23.0619 46.1824C23.0439 46.1791 22.9818 46.1674 22.8566 46.1282C22.71 46.0822 22.5175 46.012 22.2818 45.9181C21.8114 45.7307 21.1948 45.4591 20.478 45.1265C19.0457 44.462 17.2343 43.5638 15.4343 42.6331C13.6343 41.7023 11.8512 40.7419 10.4754 39.9534C9.78678 39.5588 9.20527 39.2102 8.77631 38.9317C8.56139 38.7921 8.39048 38.6738 8.26573 38.5787C8.15784 38.4964 8.10909 38.4497 8.09375 38.4344C8.08998 38.4262 8.08354 38.4116 8.07471 38.3889C8.05435 38.3365 8.0293 38.262 7.9999 38.1626C7.94124 37.9644 7.87264 37.6926 7.79532 37.3524C7.641 36.6736 7.45791 35.7493 7.25609 34.6535C6.85271 32.4634 6.37825 29.609 5.91459 26.7087C5.17297 22.0697 4.46073 17.3246 4.11282 15.0067C4.0257 14.4263 3.96143 13.9981 3.92526 13.7618C3.84969 13.2683 3.7555 12.7585 3.66451 12.2659C3.64538 12.1624 3.6264 12.0597 3.60776 11.958C3.49931 11.3664 3.40243 10.811 3.34813 10.3212C3.29294 9.82328 3.28734 9.4367 3.33838 9.16934C3.38892 8.90456 3.46701 8.87658 3.48364 8.87062L3.48413 8.87045L3.48517 8.87007C3.77295 8.76575 8.95356 7.06107 14.2854 5.38384C16.9486 4.54609 19.6428 3.7173 21.7757 3.10064C22.8426 2.79216 23.7648 2.53799 24.4707 2.36252C24.824 2.27469 25.1182 2.20778 25.3469 2.16371C25.5877 2.11729 25.7181 2.10399 25.7654 2.10486C26.0054 2.1114 26.4814 2.23076 27.1259 2.44964C27.7491 2.66127 28.4692 2.944 29.164 3.2333C29.8576 3.52213 30.5201 3.81508 31.0266 4.04555C31.2798 4.16076 31.4932 4.26 31.6513 4.33495C31.7304 4.37246 31.7948 4.40351 31.843 4.42719C31.8522 4.43168 31.8606 4.43585 31.8684 4.43969C31.8795 4.47272 31.8907 4.52125 31.899 4.58366C31.9085 4.65513 31.9118 4.72632 31.9125 4.78128C31.9129 4.80815 31.9126 4.8297 31.9122 4.84369L31.9118 4.85839L31.9117 4.85941L31.9117 4.8596L31.9117 4.85978L31.9117 4.8601L31.9117 4.86054L31.9117 4.86073L31.8934 5.2011L32.2052 5.34194L32.411 4.88625ZM31.8546 4.40684C31.8546 4.40675 31.8553 4.40782 31.8566 4.4103C31.8552 4.40817 31.8545 4.40693 31.8546 4.40684ZM37.2669 6.63495C37.2651 6.63462 37.2633 6.63433 37.2617 6.63403L37.2669 6.63495ZM35.0621 6.45471C35.0619 6.45468 35.0634 6.45456 35.0667 6.45442C35.0638 6.45466 35.0622 6.45473 35.0621 6.45471Z" fill="#E0E0E0" stroke="black"/>
<path id="Vector_2" d="M4.68018 9.5475C7.24893 8.89125 19.4102 4.9275 21.1427 4.32375C22.9989 3.67875 24.4389 3.04125 26.4002 3.345C27.0189 3.43875 28.6239 4.0875 30.9077 5.055C31.2564 5.205 30.3527 5.75625 30.7202 5.91375C31.1514 6.0975 32.8502 5.89125 33.2927 6.0825C37.8152 8.0625 42.7464 10.35 42.7464 10.35L23.7639 18.9113L23.0102 18.7088L7.14768 11.4075L4.68018 9.5475Z" fill="white"/>
<path id="Vector_3" d="M30.3411 6.6225C30.1647 6.15467 30.1646 6.15469 30.1645 6.15473L30.1641 6.1549L30.1623 6.15556L30.1554 6.15816L30.1282 6.16843L30.0223 6.20847L29.6204 6.36072C29.2741 6.49208 28.7793 6.68023 28.1849 6.90746C26.9962 7.36186 25.4088 7.97274 23.8149 8.59831C22.2217 9.22355 20.6186 9.86481 19.3998 10.3796C18.7914 10.6366 18.2728 10.8646 17.8973 11.0446C17.7108 11.134 17.5506 11.216 17.4296 11.2866C17.37 11.3214 17.3092 11.3597 17.2562 11.4001C17.2297 11.4202 17.197 11.4471 17.1649 11.4801C17.1379 11.5078 17.0833 11.5679 17.0451 11.6572L17.0447 11.6582C17.0104 11.7389 17.0042 11.8113 17.0023 11.8358C16.9996 11.8708 16.9999 11.9028 17.0008 11.9272C17.0025 11.9767 17.008 12.0297 17.0145 12.0802C17.0278 12.183 17.0504 12.3116 17.0792 12.4538C17.1373 12.74 17.226 13.1071 17.3342 13.4831C17.4421 13.8579 17.5726 14.2528 17.716 14.5905C17.7876 14.7592 17.8659 14.9218 17.9504 15.0638C18.0312 15.1997 18.1348 15.3462 18.266 15.457L18.269 15.4595C18.3438 15.5217 18.4983 15.6174 18.6549 15.7121C18.8301 15.8181 19.0609 15.9538 19.3263 16.1077C19.8577 16.4158 20.5356 16.8017 21.2024 17.1786C21.8695 17.5556 22.5268 17.9245 23.0171 18.1991C23.2623 18.3364 23.4659 18.4502 23.6081 18.5296L23.7731 18.6217L23.8165 18.6459L23.8277 18.6522L23.8305 18.6537L23.8312 18.6541L23.8314 18.6542L24.0749 18.2175L23.8315 18.6543L24.0491 18.7755L24.277 18.6748L31.7731 15.3615L31.7735 15.3613L31.7752 15.3606L31.777 15.3598L31.7816 15.3579L31.8071 15.3468L31.907 15.3038L32.287 15.1402C32.6149 14.9991 33.0846 14.7973 33.6513 14.5546C34.7848 14.069 36.3065 13.4197 37.8593 12.7644C39.4125 12.1089 40.9952 11.4482 42.2514 10.9394C42.8799 10.6849 43.424 10.4695 43.8409 10.3121C44.2778 10.1472 44.5286 10.0643 44.6035 10.0497C44.7217 10.0268 44.7706 10.0403 44.7832 10.0457C44.7876 10.05 44.8116 10.0766 44.8324 10.1635C44.8877 10.3937 44.8513 10.7449 44.7935 11.0527C44.7274 11.4043 42.9082 19.4423 41.3222 26.4499C40.1408 31.6696 39.0889 36.3176 38.9872 36.7914C38.7668 37.8187 38.5022 38.2871 37.9613 38.6477C37.8114 38.7476 37.1235 39.1297 36.1033 39.6827C35.0988 40.2271 33.8048 40.92 32.4737 41.629C29.8113 43.0472 27.005 44.5276 26.0788 45.0104C25.1473 45.4959 24.5063 45.8121 24.0718 45.981C23.9863 46.0143 23.9136 46.0399 23.8522 46.0593C23.8438 45.8724 23.8365 45.6274 23.8302 45.329C23.8146 44.5889 23.8056 43.5402 23.8011 42.2823C23.7921 39.7722 23.8009 36.4405 23.8098 33.0932L23.8099 33.074C23.8188 29.7213 23.8277 26.3545 23.8187 23.7884C23.8141 22.5057 23.8051 21.4204 23.7893 20.6359C23.7814 20.2443 23.7718 19.9236 23.7599 19.6895C23.754 19.573 23.7472 19.4725 23.7393 19.393C23.7353 19.3536 23.7305 19.3136 23.7244 19.2767C23.7201 19.2512 23.709 19.1861 23.6811 19.1194C23.6341 19.0071 23.5573 18.9355 23.5349 18.9146L23.5343 18.914C23.4986 18.8807 23.4608 18.8517 23.4284 18.8284C23.3626 18.7809 23.2809 18.7298 23.1931 18.678C23.0154 18.5731 22.7748 18.4434 22.4972 18.2994C21.9401 18.0105 21.2065 17.6499 20.4672 17.2902C20.1989 17.1597 19.93 17.0293 19.6679 16.9023C19.2049 16.6779 18.7632 16.4637 18.3838 16.2772C18.087 16.1313 17.8319 16.0039 17.6374 15.9033C17.5401 15.8529 17.4604 15.8105 17.3996 15.7766C17.3692 15.7596 17.3452 15.7458 17.3271 15.7348C17.3249 15.7335 17.3229 15.7323 17.3211 15.7312C17.3129 15.7195 17.2946 15.692 17.2676 15.6404C17.2177 15.545 17.1607 15.4111 17.0989 15.2426C16.9759 14.9073 16.8504 14.4807 16.7365 14.0529C16.6232 13.6275 16.5241 13.2111 16.4532 12.9003C16.4178 12.7452 16.3895 12.6169 16.3702 12.5276L16.348 12.4245L16.3424 12.3979L16.341 12.3913L16.3407 12.3897L16.3406 12.3894L16.3406 12.3893L16.3406 12.3893L16.2487 11.9476L15.7999 11.9939L15.8511 12.4913L15.7998 11.9939L15.7997 11.9939L15.7991 11.994L15.7965 11.9942L15.7861 11.9953L15.7452 11.9995L15.5883 12.0153C15.4526 12.0288 15.2574 12.0481 15.02 12.0709C14.5449 12.1165 13.9015 12.176 13.2269 12.232C12.5517 12.2881 11.8484 12.3404 11.2528 12.3716C10.6414 12.4037 10.1866 12.4109 9.98133 12.3881C9.92146 12.3814 9.77902 12.3444 9.53949 12.2552C9.31266 12.1708 9.03363 12.053 8.71731 11.9099C8.08542 11.6239 7.32596 11.2467 6.57718 10.8578C5.82918 10.4694 5.09685 10.072 4.52056 9.74729C4.39144 9.67453 4.27219 9.60654 4.16365 9.54393C4.2537 9.58302 4.35002 9.6249 4.45183 9.66917L4.49439 9.68768C5.06413 9.93543 5.79348 10.2526 6.53735 10.568C7.29903 10.8909 8.08066 11.214 8.72488 11.4599C9.04654 11.5826 9.33928 11.6881 9.58083 11.7651C9.80391 11.8362 10.0361 11.9008 10.2096 11.9105C10.4557 11.9242 10.9031 11.8939 11.4068 11.8475C11.9253 11.7998 12.545 11.7307 13.1605 11.6564C14.3871 11.5082 15.6196 11.3362 16.0168 11.2661L16.0173 11.2661C16.1192 11.248 16.2665 11.1967 16.4055 11.1458C16.5621 11.0885 16.7637 11.0103 17.0011 10.9156C17.4764 10.7262 18.1087 10.4656 18.8392 10.1626C19.1043 10.0527 19.3826 9.9371 19.6714 9.81712C20.9766 9.27485 22.4966 8.64337 23.988 8.04253L23.9884 8.04236C25.6078 7.38825 26.9921 6.8908 27.9708 6.55716C28.46 6.39036 28.8476 6.26457 29.1123 6.18067C29.2446 6.13872 29.3462 6.10725 29.4143 6.08637L29.4911 6.06301L29.5101 6.05731L29.5146 6.05596L29.5156 6.05566L29.5158 6.05561L29.5158 6.0556L29.5158 6.0556L29.5854 6.03498L29.6462 5.99541L29.3736 5.57625L29.6462 5.99539L29.6463 5.99535L29.6465 5.99523L29.6472 5.99478L29.6498 5.99307L29.6598 5.98655L29.6979 5.96167C29.7309 5.94009 29.7785 5.90885 29.8374 5.86997C29.9553 5.79224 30.1187 5.68382 30.3009 5.56102C30.5486 5.39403 30.8363 5.19701 31.0923 5.01327C31.0903 5.0164 31.0883 5.01953 31.0863 5.02266C31.0493 5.08092 30.9838 5.19333 30.9661 5.33564C30.9562 5.41499 30.9592 5.5196 31.005 5.6296C31.0517 5.74181 31.1288 5.82564 31.2131 5.88222C31.2143 5.88306 31.2156 5.8839 31.2168 5.88474C31.3066 5.944 31.407 5.96884 31.4376 5.9764L31.4412 5.9773C31.4936 5.99041 31.5536 6.00208 31.6151 6.01264C31.7394 6.03401 31.9009 6.05605 32.0859 6.07834C32.2832 6.10213 32.5142 6.12702 32.7669 6.15235C32.2459 6.14614 31.7592 6.14019 31.3609 6.13526L30.6252 6.12607L30.42 6.12347L30.366 6.12278L30.3522 6.1226L30.3487 6.12256L30.3478 6.12255L30.3476 6.12254L30.3411 6.6225ZM30.3411 6.6225L30.1647 6.15467L30.2531 6.12133L30.3475 6.12254L30.3411 6.6225ZM44.7866 10.0476C44.7865 10.0476 44.7855 10.0472 44.7836 10.0459C44.7857 10.0468 44.7867 10.0475 44.7866 10.0476ZM23.6039 46.1128C23.6039 46.1127 23.6055 46.1127 23.6083 46.113C23.6052 46.113 23.6038 46.1128 23.6039 46.1128ZM31.6689 5.00288C31.6692 5.00282 31.6732 5.00386 31.68 5.0062C31.672 5.00412 31.6686 5.00294 31.6689 5.00288ZM31.9265 5.56552C31.9264 5.56559 31.9274 5.56371 31.9298 5.55975C31.9279 5.56349 31.9267 5.56545 31.9265 5.56552ZM37.4823 6.66107C37.4822 6.66107 37.4814 6.66048 37.4799 6.65929C37.4816 6.66046 37.4823 6.66106 37.4823 6.66107ZM37.5144 6.13969C37.5143 6.13972 37.5142 6.13975 37.5142 6.13977L37.5167 6.13841C37.5167 6.13843 37.516 6.13887 37.5144 6.13969Z" fill="#B0B0B0" stroke="black"/>
<path id="Vector_4" d="M30.9974 21.3263C31.0424 20.7225 37.5637 13.485 38.0287 13.1925C38.4937 12.9 43.9349 10.095 44.2499 9.9C44.5687 9.705 44.7374 9.24 43.9087 9.46125C43.0799 9.6825 37.0724 12.4538 36.8062 12.6713C36.5399 12.8888 34.6387 14.8275 34.6387 14.8275C34.6387 14.8275 33.0749 14.3063 32.8912 14.3213C32.4299 14.3588 24.5137 17.8275 24.1949 17.9513C23.8762 18.075 23.5837 18.7088 24.4874 18.5138C25.3912 18.3188 32.4412 15.6113 32.7112 15.5625C32.9812 15.5138 34.0087 15.9638 34.0087 15.9638C34.0087 15.9638 29.7337 20.6775 29.7562 21.3413C29.7937 22.3538 33.1874 28.9313 33.0899 29.3925C32.9924 29.8575 24.3299 44.3213 23.4299 45.855C23.0137 46.5638 23.6849 46.9913 24.1949 46.3575C24.7049 45.7238 33.5549 31.605 34.0312 31.5413C34.5074 31.4813 38.1074 38.4412 38.3024 38.6737C38.4974 38.9025 39.2099 38.4975 38.9212 37.9688C38.5274 37.2488 35.9174 32.2275 34.6312 29.5538C32.1299 24.36 30.9337 22.1813 30.9974 21.3263Z" fill="black"/>
<path id="Vector_5" d="M9.2623 33.6412C9.3598 33.9375 19.7698 38.5875 20.0398 38.49C20.3098 38.3925 20.0773 37.3612 19.8148 36.9412C19.4923 36.4275 18.836 36.03 18.836 36.03L18.8135 34.17C18.8135 34.17 19.8073 34.95 20.3473 34.9987C20.8873 35.0475 21.086 34.395 20.7373 34.155C20.426 33.9375 20.1635 34.0612 20.1635 34.0612C20.1635 34.0612 19.5673 33.6375 19.0535 33.1762C18.5398 32.715 18.131 32.1 18.131 32.1L18.0898 30.1987C18.0898 30.1987 18.9335 30.8887 19.4248 30.9375C19.916 30.9862 20.261 30.3487 19.7923 30.0525C19.5223 29.88 19.241 30.0637 19.241 30.0637C19.241 30.0637 18.7123 29.76 18.3223 29.3175C17.8573 28.7925 17.5873 28.1512 17.5873 28.1512L17.5535 26.8087C17.5535 26.8087 18.2248 27.3225 18.716 27.3975C19.2073 27.4725 19.331 26.97 19.0573 26.7225C18.7873 26.475 18.5623 26.6812 18.5623 26.6812C18.5623 26.6812 17.1223 25.23 16.0048 23.73C15.1985 22.65 14.6248 21.9337 14.6248 21.9337L14.5985 20.1937C14.5985 20.1937 14.621 19.74 14.2048 19.6425C13.7848 19.545 13.8373 20.01 13.8373 20.01V21.8062C13.8373 21.8062 12.2885 23.1825 11.4523 23.3062C10.616 23.43 10.4923 23.3062 10.4923 23.3062C10.4923 23.3062 10.4098 22.7925 9.94855 22.9612C9.58105 23.0962 9.69355 23.6775 10.0235 23.8987C10.7323 24.3712 11.621 24.1462 11.621 24.1462V25.695C11.621 25.695 10.8823 26.385 10.466 26.3362L10.046 26.2875C10.046 26.2875 10.0085 25.7812 9.52855 25.9687C9.07105 26.1487 9.4423 26.9925 10.1923 27.075C10.8335 27.1462 11.0773 27.1012 11.0773 27.1012V29.145C11.0773 29.145 10.5373 29.4412 10.166 29.4637C9.79855 29.49 9.47605 29.34 9.47605 29.34C9.47605 29.34 9.2623 28.7475 8.8873 29.0925C8.5348 29.415 8.93605 29.9775 9.47605 30.1987C10.016 30.42 10.5823 30.2962 10.5823 30.2962V32.7337C10.5823 32.7337 9.91855 32.7075 9.57355 33.0037C9.23605 33.2962 9.2623 33.6412 9.2623 33.6412Z" fill="#FE2A28"/>
<path id="Vector_6" d="M13.1025 33.345L16.1775 34.6725C16.1775 34.6725 16.0238 32.5612 14.595 32.2162C13.17 31.875 13.1025 33.345 13.1025 33.345ZM13.2225 29.4712L15.6 30.3937C15.6 30.3937 15.5138 28.725 14.4038 28.4587C13.2975 28.1925 13.2225 29.4712 13.2225 29.4712ZM13.4138 25.9837L15.3825 26.7712C15.3825 26.7712 15.48 25.245 14.325 25.0012C13.35 24.7912 13.4138 25.9837 13.4138 25.9837Z" fill="#E0E0E0"/>
</g>
</svg>
