<svg width="27" height="82" viewBox="0 0 27 82" fill="none" xmlns="http://www.w3.org/2000/svg">
<g id="Group 47">
<g id="Group">
<path id="Vector" d="M8.38479 0.639343L8.38435 0.639542C7.97185 0.829079 7.61193 1.20716 7.45125 1.63026C7.43038 1.68477 7.42211 1.73384 7.41939 1.74993L7.41931 1.75045C7.41492 1.77646 7.41175 1.80273 7.40932 1.8262C7.40441 1.87371 7.40034 1.93169 7.39675 1.99696C7.38953 2.12867 7.38317 2.31148 7.37748 2.54424C7.36608 3.01088 7.35701 3.69389 7.34998 4.60389C7.3359 6.42468 7.32988 9.16394 7.32988 12.9199V23.4504C6.74687 23.6686 5.78278 24.2003 5.26945 24.5751L5.26754 24.5765C2.90103 26.3216 1.53627 28.8644 0.86251 32.5863C0.500966 34.5666 0.500966 34.6788 0.500984 57.4L0.500984 57.8862C0.500984 59.7725 0.500694 61.5013 0.500428 63.0858C0.498977 71.7339 0.498247 76.0846 0.549321 78.2961C0.564447 78.951 0.584264 79.4266 0.610693 79.7742C0.636498 80.1136 0.67051 80.3624 0.725239 80.5458C0.787301 80.7536 0.889733 80.9222 1.0689 81.0392C1.12319 81.0747 1.18573 81.1042 1.20522 81.1134C1.20756 81.1145 1.20929 81.1153 1.2103 81.1158C1.22145 81.1213 1.22617 81.1238 1.22879 81.1253L1.23021 81.1262L1.52004 81.3534L1.65542 81.4595L1.82742 81.4598L13.1554 81.4839L13.1557 81.4839L24.4836 81.5L24.6188 81.5002L24.7357 81.4323L25.0811 81.2314L25.0847 81.2293L25.0847 81.2293C25.3645 81.0635 25.6414 80.7985 25.7899 80.5031C25.8242 80.4361 25.8608 80.3549 25.8874 80.2212C25.9099 80.1082 25.9245 79.962 25.9361 79.7562C25.9595 79.3406 25.9745 78.5951 25.9846 77.1914C26.0047 74.3778 26.0047 68.8734 26.0047 57.9567V57.9505C26.0047 43.6774 25.973 35.5636 25.923 34.8729L25.9228 34.8694C25.7183 32.2929 25.1927 30.1722 24.3074 28.3515L24.3059 28.3486C23.2093 26.1302 21.6754 24.5678 19.6178 23.6543L19.615 23.6531L19.2147 23.4782L19.1758 12.8538L19.1752 12.6982C19.1555 7.42059 19.1454 4.71512 19.1205 3.29745C19.108 2.58656 19.0916 2.1803 19.0658 1.93212C19.0527 1.80672 19.0354 1.70036 19.0071 1.6057C18.9759 1.50138 18.9369 1.4301 18.9051 1.37732C18.7804 1.16384 18.5615 0.927727 18.4017 0.799858L18.3955 0.794975L18.3893 0.790283C18.2966 0.720787 18.1854 0.648529 17.987 0.604416C17.8304 0.569588 17.6207 0.552567 17.3201 0.541023C16.7117 0.517662 15.5822 0.51358 13.3981 0.505669L13.3514 0.505516L13.351 0.505508M8.38479 0.639343L8.59311 1.09388C8.78593 1.00551 9.70984 0.989441 13.3492 1.00551L13.351 0.505508M8.38479 0.639343C8.52488 0.575134 8.70529 0.555008 8.86583 0.54213C9.05234 0.527176 9.31218 0.517181 9.66951 0.510612C10.3862 0.497437 11.5328 0.497475 13.351 0.505508M8.38479 0.639343L13.351 0.505508M4.07186 66.9225H13.2127H22.3535V54.3673V41.8121H13.2127H4.07186V54.3673V66.9225Z" fill="#145212" stroke="black"/>
<path id="Vector 20" d="M7.83184 2.91674L7.76465 4.52941H18.647V2.76471C18.5639 1.76724 17.73 1 16.7291 1H9.83011C8.75793 1 7.87648 1.84549 7.83184 2.91674Z" fill="#53381F"/>
</g>
<path id="Vector 19" d="M7.76465 4.82344H18.647" stroke="black"/>
<rect id="Rectangle 21" x="4.23535" y="41.8824" width="17.9412" height="25" fill="#719BAF"/>
</g>
</svg>
