<svg width="61" height="48" viewBox="0 0 61 48" fill="none" xmlns="http://www.w3.org/2000/svg">
<path id="Vector" d="M60.1787 44.6115C60.245 44.9532 60.2988 45.2326 60.3391 45.4428L52.9087 47.3919L46.0153 23.0006L45.5221 21.2557L45.0513 23.0067C44.5355 24.9248 44.149 28.7545 43.8911 32.0555C43.7613 33.7166 43.663 35.2603 43.5971 36.3886C43.5642 36.9528 43.5394 37.4134 43.5227 37.733C43.5224 37.7406 43.522 37.7482 43.5216 37.7557H36.2064H24.7115H17.1901C17.19 37.7512 17.1898 37.7467 17.1897 37.7422C17.179 37.4225 17.1625 36.9618 17.1397 36.3975C17.094 35.269 17.0226 33.725 16.9198 32.0636C16.7155 28.7636 16.3837 24.9295 15.8666 23.0067L15.3958 21.2557L14.9026 23.0006L8.00923 47.3919L0.578785 45.4428C0.619138 45.2326 0.67295 44.9532 0.739186 44.6115C0.899676 43.7837 1.1331 42.5904 1.42473 41.1288C2.00803 38.2057 2.82403 34.2103 3.75499 29.9213C5.62076 21.3253 7.93677 11.6048 9.7613 6.93886L9.76131 6.93881C10.226 5.75013 11.2463 4.74098 13.0014 3.7686C14.7587 2.79491 17.1926 1.89087 20.3958 0.883988C20.5776 0.827019 21.1859 0.677593 21.834 0.523223L21.8341 0.52319C21.9564 0.494027 22.0836 0.492348 22.2066 0.518276C22.3296 0.544201 22.4454 0.597084 22.5455 0.673123C22.6456 0.749165 22.7276 0.84646 22.7855 0.95799C22.8435 1.06952 22.876 1.19254 22.8807 1.31817L22.8829 1.37558L22.898 1.431L23.3804 1.29943C22.898 1.431 22.8981 1.43145 22.8983 1.43192L22.8985 1.43291L22.8992 1.43514L22.9007 1.44052L22.905 1.45498C22.9084 1.46622 22.913 1.48066 22.9189 1.49806C22.9307 1.53287 22.9478 1.57961 22.9715 1.63655C23.0187 1.75041 23.0923 1.9052 23.2023 2.08691C23.4227 2.45111 23.788 2.92067 24.3762 3.38372C25.5579 4.3138 27.5928 5.18222 31.0531 5.18222C34.0132 5.18222 35.7627 4.30154 36.7769 3.35666C37.2791 2.88872 37.588 2.41689 37.7727 2.05548C37.8649 1.8749 37.9262 1.72176 37.9654 1.61005C37.9849 1.55416 37.999 1.50853 38.0086 1.47488C38.0134 1.45805 38.0171 1.4442 38.0199 1.43355L38.0233 1.41998L38.0245 1.41505L38.0249 1.41305L38.0251 1.41216C38.0252 1.41176 38.0253 1.41136 37.538 1.29943L38.0253 1.41136L38.0359 1.36535L38.0377 1.31817C38.0424 1.19253 38.0749 1.06952 38.1328 0.957994C38.1908 0.846442 38.2728 0.749153 38.3729 0.673123C38.473 0.59709 38.5887 0.544203 38.7118 0.518276L38.6087 0.0292219L38.7118 0.518275C38.8348 0.492349 38.962 0.494027 39.0843 0.52319L39.0843 0.523203C39.732 0.677593 40.3403 0.827008 40.5221 0.883988C43.7254 1.89087 46.1593 2.79492 47.9168 3.76861C49.672 4.741 50.6924 5.75015 51.1571 6.93881L51.6228 6.75677L51.1571 6.93883C52.9814 11.6048 55.2973 21.3253 57.163 29.9212C58.0939 34.2103 58.9099 38.2057 59.4932 41.1288C59.7848 42.5904 60.0182 43.7837 60.1787 44.6115ZM39.2002 0.036862L39.2002 0.0368467L39.2002 0.036862Z" fill="#E41E1E" stroke="black"/>
</svg>
