<svg width="48" height="48" viewBox="0 0 48 48" fill="none" xmlns="http://www.w3.org/2000/svg">
<g id="bagel">
<g id="Group">
<path id="Vector" d="M39.653 35.0294C41.0828 33.8248 42.2212 32.3292 42.9722 30.5795C42.9743 30.6549 42.9744 30.734 42.9744 30.825C42.9744 38.3597 36.8484 44.5 29.3009 44.5H29.1359C21.6027 44.5 15.4609 38.3739 15.4609 30.8265C15.4609 30.7586 15.464 30.6919 15.4679 30.6116L15.4681 30.6078C15.4687 30.5948 15.4693 30.5813 15.4699 30.5676C16.2496 32.4058 17.4533 33.9594 18.9714 35.1906C21.6296 37.3463 25.2266 38.495 29.1509 38.495H29.3144C33.3174 38.495 36.9811 37.2804 39.653 35.0294Z" fill="#E19747" stroke="black"/>
<path id="Vector_2" d="M29.2259 12.575H29.2402L29.2546 12.5742L31.8331 12.4257L31.8354 12.4255C32.9155 12.3585 33.9832 12.7059 34.825 13.401L34.8276 13.4032L36.8226 15.0277L36.8226 15.0277L36.826 15.0304C36.9805 15.1541 37.1343 15.2612 37.272 15.357C37.2817 15.3638 37.2914 15.3705 37.301 15.3772L37.3088 15.3827L37.3168 15.3878L39.4767 16.7737C39.4767 16.7737 39.4768 16.7738 39.4768 16.7738C40.3879 17.359 41.0461 18.2648 41.3213 19.3121L41.3213 19.3123L41.9755 21.7972C41.9757 21.7981 41.976 21.799 41.9762 21.7998C42.0271 22.0013 42.0933 22.197 42.156 22.3678L42.1559 22.3678L42.1596 22.3774L43.0959 24.7742C43.0961 24.7748 43.0963 24.7753 43.0965 24.7758C43.4851 25.7923 43.4851 26.9012 43.0965 27.9176C43.0963 27.9182 43.0961 27.9187 43.0959 27.9193L42.1582 30.3158L42.1536 30.3277L42.1495 30.3399C42.14 30.3685 42.1301 30.3978 42.12 30.4277C42.0715 30.5711 42.0183 30.7288 41.9762 30.8952C41.976 30.896 41.9757 30.8969 41.9755 30.8978L41.3219 33.3804C41.3219 33.3808 41.3218 33.3811 41.3217 33.3814C41.0411 34.4263 40.3841 35.3306 39.4771 35.9205C39.4767 35.9207 39.4763 35.921 39.4759 35.9212L37.317 37.3056L37.3084 37.3111L37.3001 37.3169C37.15 37.422 36.99 37.5349 36.828 37.6642L36.828 37.6642L36.8244 37.6671L34.8278 39.2905C34.8275 39.2907 34.8273 39.2909 34.827 39.2911C33.9819 39.973 32.9157 40.3206 31.8311 40.2677C31.8304 40.2677 31.8297 40.2676 31.8289 40.2676L29.2589 40.1182C29.0527 40.1018 28.8456 40.1018 28.6394 40.1182L26.0663 40.2678L26.0644 40.268C24.9842 40.3351 23.9163 39.9876 23.0744 39.2937L23.0719 39.2917L21.0754 37.6672L21.0754 37.6672L21.0722 37.6646C20.9083 37.5335 20.7482 37.4204 20.5988 37.3163L20.5909 37.3108L20.5829 37.3057L18.4231 35.9198C17.5119 35.3346 16.8537 34.4287 16.5784 33.3814L16.5784 33.3812L15.923 30.8917C15.923 30.8916 15.923 30.8916 15.923 30.8915C15.8725 30.6991 15.8124 30.5094 15.7428 30.3231L15.7428 30.323L15.7396 30.3148L14.8022 27.934C14.802 27.9334 14.8017 27.9327 14.8015 27.932C14.4144 26.9208 14.4145 25.8022 14.8016 24.791C14.8018 24.7905 14.802 24.79 14.8022 24.7895L15.74 22.3927L15.7444 22.3813L15.7483 22.3698C15.7587 22.3389 15.7696 22.3069 15.7809 22.274C15.8286 22.1348 15.8822 21.9783 15.9235 21.8149L16.5778 19.3293C16.5779 19.329 16.578 19.3287 16.5781 19.3283C16.8583 18.2829 17.5153 17.3781 18.4226 16.788L20.5814 15.4028L20.5899 15.3974L20.5981 15.3916C20.6111 15.3825 20.6243 15.3733 20.6376 15.364C20.773 15.2694 20.9229 15.1646 21.0717 15.0458L21.0717 15.0458L21.0754 15.0428L23.0706 13.4194C23.0709 13.4192 23.0711 13.419 23.0713 13.4188C23.9166 12.7361 24.9834 12.388 26.0686 12.4408L28.6463 12.5907L28.682 12.5927L28.7176 12.5897C28.8713 12.5767 29.0322 12.575 29.2259 12.575Z" fill="#FFE5D9" stroke="black"/>
<path id="Vector_3" d="M30.0749 31.512H28.5704C27.6137 31.5116 26.6964 31.1314 26.0199 30.4549C25.3435 29.7785 24.9633 28.8611 24.9629 27.9045C24.9633 26.9479 25.3435 26.0305 26.0199 25.354C26.6964 24.6776 27.6137 24.2974 28.5704 24.297H30.0749C31.0315 24.2974 31.9489 24.6776 32.6253 25.354C33.3018 26.0305 33.682 26.9479 33.6824 27.9045C33.6834 28.3785 33.5907 28.8481 33.4098 29.2862C33.2289 29.7243 32.9632 30.1224 32.628 30.4576C32.2928 30.7928 31.8947 31.0585 31.4566 31.2394C31.0185 31.4204 30.5489 31.513 30.0749 31.512Z" fill="#6D4534"/>
<path id="Vector_4" d="M12.8081 4.89374L12.7826 4.76142L12.8399 4.87899C19.626 1.57271 27.8375 4.41921 31.131 11.1907C34.4234 17.9781 31.5903 26.1896 24.8046 29.4811L24.8046 29.4811L24.7975 29.4847L24.6526 29.5578C18.0101 32.7761 10.0017 30.1159 6.58161 23.6317L6.58177 23.6317L6.57528 23.6201C6.4992 23.4847 6.43897 23.3749 6.39228 23.2605L6.38606 23.2453L6.37885 23.2305C3.07542 16.4502 5.91406 8.25899 12.6753 4.94683L12.8081 4.89374Z" fill="#F3AD61" stroke="black"/>
<path id="Vector_5" d="M26.8559 9.95999C26.8559 10.1577 26.7773 10.3473 26.6375 10.4871C26.4977 10.6269 26.3081 10.7055 26.1104 10.7055C25.9127 10.7055 25.7231 10.6269 25.5832 10.4871C25.4434 10.3473 25.3649 10.1577 25.3649 9.95999C25.3649 9.76227 25.4434 9.57265 25.5832 9.43284C25.7231 9.29304 25.9127 9.21449 26.1104 9.21449C26.3081 9.21449 26.4977 9.29304 26.6375 9.43284C26.7773 9.57265 26.8559 9.76227 26.8559 9.95999ZM8.34439 18.0675C8.44501 18.072 8.54549 18.0561 8.63978 18.0207C8.73408 17.9853 8.82022 17.9312 8.89302 17.8616C8.96581 17.792 9.02375 17.7083 9.06333 17.6157C9.10292 17.5231 9.12332 17.4235 9.12332 17.3227C9.12332 17.222 9.10292 17.1224 9.06333 17.0297C9.02375 16.9371 8.96581 16.8535 8.89302 16.7839C8.82022 16.7143 8.73408 16.6602 8.63978 16.6248C8.54549 16.5894 8.44501 16.5735 8.34439 16.578C8.15265 16.5866 7.97162 16.6688 7.83899 16.8075C7.70635 16.9463 7.63232 17.1308 7.63232 17.3227C7.63232 17.5147 7.70635 17.6992 7.83899 17.8379C7.97162 17.9767 8.15265 18.0589 8.34439 18.0675ZM18.7484 28.485C18.849 28.4895 18.9495 28.4736 19.0438 28.4382C19.1381 28.4028 19.2242 28.3487 19.297 28.2791C19.3698 28.2095 19.4278 28.1259 19.4673 28.0332C19.5069 27.9406 19.5273 27.841 19.5273 27.7402C19.5273 27.6395 19.5069 27.5399 19.4673 27.4472C19.4278 27.3546 19.3698 27.271 19.297 27.2014C19.2242 27.1318 19.1381 27.0777 19.0438 27.0423C18.9495 27.0069 18.849 26.991 18.7484 26.9955C18.5507 26.9955 18.3611 27.074 18.2212 27.2138C18.0814 27.3537 18.0029 27.5433 18.0029 27.741C18.0029 27.9387 18.0814 28.1283 18.2212 28.2681C18.3611 28.4079 18.5507 28.485 18.7484 28.485ZM16.3034 11.883C16.5011 11.883 16.6907 11.8044 16.8305 11.6646C16.9703 11.5248 17.0489 11.3352 17.0489 11.1375C17.0489 10.9398 16.9703 10.7502 16.8305 10.6103C16.6907 10.4705 16.5011 10.392 16.3034 10.392C16.1057 10.392 15.9161 10.4705 15.7762 10.6103C15.6364 10.7502 15.5579 10.9398 15.5579 11.1375C15.5579 11.3352 15.6364 11.5248 15.7762 11.6646C15.9161 11.8044 16.1057 11.883 16.3034 11.883ZM21.9524 23.523C21.9524 23.7207 21.8738 23.9103 21.734 24.0501C21.5942 24.1899 21.4046 24.2685 21.2069 24.2685C21.0092 24.2685 20.8196 24.1899 20.6797 24.0501C20.5399 23.9103 20.4614 23.7207 20.4614 23.523C20.4614 23.3253 20.5399 23.1357 20.6797 22.9958C20.8196 22.856 21.0092 22.7775 21.2069 22.7775C21.4046 22.7775 21.5942 22.856 21.734 22.9958C21.8738 23.1357 21.9524 23.3253 21.9524 23.523ZM12.5474 20.5275C12.7451 20.5275 12.9347 20.4489 13.0745 20.3091C13.2143 20.1693 13.2929 19.9797 13.2929 19.782C13.2929 19.5843 13.2143 19.3947 13.0745 19.2548C12.9347 19.115 12.7451 19.0365 12.5474 19.0365C12.3497 19.0365 12.1601 19.115 12.0202 19.2548C11.8804 19.3947 11.8019 19.5843 11.8019 19.782C11.8019 19.9797 11.8804 20.1693 12.0202 20.3091C12.1601 20.4489 12.3497 20.5275 12.5474 20.5275ZM25.6934 14.8785C25.6934 15.0762 25.6149 15.2658 25.475 15.4056C25.3352 15.5454 25.1456 15.624 24.9479 15.624C24.7502 15.624 24.5606 15.5454 24.4207 15.4056C24.2809 15.2658 24.2024 15.0762 24.2024 14.8785C24.2024 14.6808 24.2809 14.4912 24.4207 14.3513C24.5606 14.2115 24.7502 14.133 24.9479 14.133C25.1456 14.133 25.3352 14.2115 25.475 14.3513C25.6149 14.4912 25.6934 14.6808 25.6934 14.8785Z" fill="#402A32"/>
<path id="Vector_6" d="M18.7482 7.665C18.9459 7.665 19.1355 7.58645 19.2753 7.44664C19.4151 7.30684 19.4937 7.11721 19.4937 6.9195C19.4937 6.72178 19.4151 6.53216 19.2753 6.39235C19.1355 6.25254 18.9459 6.174 18.7482 6.174C18.5504 6.174 18.3608 6.25254 18.221 6.39235C18.0812 6.53216 18.0027 6.72178 18.0027 6.9195C18.0027 7.11721 18.0812 7.30684 18.221 7.44664C18.3608 7.58645 18.5504 7.665 18.7482 7.665ZM11.3847 10.7055C11.5824 10.7055 11.772 10.627 11.9118 10.4871C12.0516 10.3473 12.1302 10.1577 12.1302 9.96C12.1302 9.76228 12.0516 9.57266 11.9118 9.43285C11.772 9.29304 11.5824 9.2145 11.3847 9.2145C11.1869 9.2145 10.9973 9.29304 10.8575 9.43285C10.7177 9.57266 10.6392 9.76228 10.6392 9.96C10.6392 10.1577 10.7177 10.3473 10.8575 10.4871C10.9973 10.627 11.1869 10.7055 11.3847 10.7055ZM26.8557 24.6855C26.8557 24.8832 26.7771 25.0728 26.6373 25.2126C26.4975 25.3525 26.3079 25.431 26.1102 25.431C25.9124 25.431 25.7228 25.3525 25.583 25.2126C25.4432 25.0728 25.3647 24.8832 25.3647 24.6855C25.3647 24.4878 25.4432 24.2982 25.583 24.1583C25.7228 24.0185 25.9124 23.94 26.1102 23.94C26.3079 23.94 26.4975 24.0185 26.6373 24.1583C26.7771 24.2982 26.8557 24.4878 26.8557 24.6855ZM29.1657 18.0675C29.3634 18.0675 29.553 17.989 29.6928 17.8491C29.8326 17.7093 29.9112 17.5197 29.9112 17.322C29.9112 17.1243 29.8326 16.9347 29.6928 16.7948C29.553 16.655 29.3634 16.5765 29.1657 16.5765C28.9679 16.5765 28.7783 16.655 28.6385 16.7948C28.4987 16.9347 28.4202 17.1243 28.4202 17.322C28.4202 17.5197 28.4987 17.7093 28.6385 17.8491C28.7783 17.989 28.9679 18.0675 29.1657 18.0675ZM12.1302 24.6855C12.1302 24.7834 12.1109 24.8803 12.0734 24.9708C12.0359 25.0612 11.981 25.1434 11.9118 25.2126C11.8426 25.2819 11.7604 25.3368 11.67 25.3742C11.5795 25.4117 11.4826 25.431 11.3847 25.431C11.2868 25.431 11.1898 25.4117 11.0994 25.3742C11.0089 25.3368 10.9267 25.2819 10.8575 25.2126C10.7883 25.1434 10.7334 25.0612 10.6959 24.9708C10.6584 24.8803 10.6392 24.7834 10.6392 24.6855C10.6392 24.4878 10.7177 24.2982 10.8575 24.1583C10.9973 24.0185 11.1869 23.94 11.3847 23.94C11.5824 23.94 11.772 24.0185 11.9118 24.1583C12.0516 24.2982 12.1302 24.4878 12.1302 24.6855ZM12.6372 15.429C12.7378 15.4335 12.8383 15.4176 12.9326 15.3822C13.0268 15.3468 13.113 15.2927 13.1858 15.2231C13.2586 15.1535 13.3165 15.0699 13.3561 14.9772C13.3957 14.8846 13.4161 14.785 13.4161 14.6842C13.4161 14.5835 13.3957 14.4839 13.3561 14.3912C13.3165 14.2986 13.2586 14.215 13.1858 14.1454C13.113 14.0758 13.0268 14.0217 12.9326 13.9863C12.8383 13.9509 12.7378 13.935 12.6372 13.9395C12.4454 13.9481 12.2644 14.0303 12.1318 14.1691C11.9991 14.3078 11.9251 14.4923 11.9251 14.6842C11.9251 14.8762 11.9991 15.0607 12.1318 15.1994C12.2644 15.3382 12.4454 15.4204 12.6372 15.429ZM25.6197 19.9755C25.6197 20.1734 25.541 20.3632 25.4011 20.5032C25.2611 20.6431 25.0713 20.7217 24.8734 20.7217C24.6755 20.7217 24.4857 20.6431 24.3457 20.5032C24.2058 20.3632 24.1272 20.1734 24.1272 19.9755C24.1272 19.7778 24.2057 19.5882 24.3455 19.4483C24.4853 19.3085 24.6749 19.23 24.8727 19.23C25.0704 19.23 25.26 19.3085 25.3998 19.4483C25.5396 19.5882 25.6197 19.7778 25.6197 19.9755ZM16.0947 24.1935C16.2924 24.1935 16.482 24.115 16.6218 23.9751C16.7616 23.8353 16.8402 23.6457 16.8402 23.448C16.8402 23.2503 16.7616 23.0607 16.6218 22.9208C16.482 22.781 16.2924 22.7025 16.0947 22.7025C15.8969 22.7025 15.7073 22.781 15.5675 22.9208C15.4277 23.0607 15.3492 23.2503 15.3492 23.448C15.3492 23.6457 15.4277 23.8353 15.5675 23.9751C15.7073 24.115 15.8969 24.1935 16.0947 24.1935ZM22.1457 11.211C22.1457 11.3089 22.1264 11.4058 22.0889 11.4963C22.0514 11.5867 21.9965 11.6689 21.9273 11.7381C21.8581 11.8074 21.7759 11.8623 21.6855 11.8997C21.595 11.9372 21.4981 11.9565 21.4002 11.9565C21.3023 11.9565 21.2053 11.9372 21.1149 11.8997C21.0244 11.8623 20.9422 11.8074 20.873 11.7381C20.8038 11.6689 20.7489 11.5867 20.7114 11.4963C20.6739 11.4058 20.6547 11.3089 20.6547 11.211C20.6547 11.0133 20.7332 10.8237 20.873 10.6838C21.0128 10.544 21.2024 10.4655 21.4002 10.4655C21.5979 10.4655 21.7875 10.544 21.9273 10.6838C22.0671 10.8237 22.1457 11.0133 22.1457 11.211Z" fill="#FFF3D7"/>
<path id="Vector_7" d="M19.6423 20.9445H18.1348C17.1784 20.9437 16.2615 20.5633 15.5853 19.8869C14.9092 19.2105 14.5292 18.2934 14.5288 17.337C14.53 16.381 14.9103 15.4645 15.5863 14.7885C16.2623 14.1125 17.1788 13.7322 18.1348 13.731H19.6408C20.5969 13.7318 21.5137 14.112 22.1898 14.7881C22.8658 15.4641 23.246 16.3809 23.2468 17.337C23.2478 17.8109 23.1552 18.2803 22.9744 18.7184C22.7935 19.1564 22.528 19.5544 22.1929 19.8896C21.8579 20.2247 21.46 20.4904 21.022 20.6715C20.5841 20.8525 20.1147 20.9453 19.6408 20.9445H19.6423Z" fill="#6D4534"/>
</g>
</g>
</svg>
