<svg width="53" height="60" viewBox="0 0 53 60" fill="none" xmlns="http://www.w3.org/2000/svg">
<g id="Group">
<path id="Vector" d="M14.7403 17.3697L14.7398 17.3701C14.3296 17.7376 14.0135 18.0483 13.8545 18.3597C13.765 18.5349 13.7184 18.7203 13.729 18.9201C13.7391 19.1101 13.7995 19.2785 13.8668 19.423L13.8694 19.4286L13.8695 19.4286C13.947 19.5897 14.0608 19.7781 14.2689 19.9175C14.4728 20.0542 14.7086 20.105 14.9548 20.1206C15.4222 20.1501 16.1506 20.0594 17.307 19.8952C17.8998 19.8117 18.4372 19.7397 18.8263 19.6916C18.8351 19.6906 18.8438 19.6895 18.8524 19.6884C18.8482 19.7273 18.8438 19.7677 18.8391 19.8097C18.7911 20.2472 18.7218 20.8467 18.6415 21.5043L18.6413 21.5059C18.4949 22.7377 18.4159 23.4772 18.4429 23.9325C18.4569 24.1697 18.5017 24.3996 18.6318 24.5982C18.7662 24.8031 18.9492 24.9089 19.0875 24.9779L19.0892 24.9788C19.1718 25.0199 19.2865 25.0772 19.4467 25.1075C19.5971 25.136 19.761 25.1365 19.9589 25.1232C20.3491 25.097 21.0184 25.0044 22.2765 24.8285L22.2768 24.8284C22.8859 24.7429 23.4397 24.6688 23.841 24.6192C23.8534 24.6177 23.8657 24.6162 23.8777 24.6147C23.8739 24.6483 23.8699 24.6831 23.8658 24.719C23.816 25.1507 23.7467 25.741 23.6683 26.3849L23.6682 26.3852C23.5124 27.6724 23.4272 28.4512 23.4688 28.925C23.4909 29.1764 23.5533 29.4254 23.7274 29.6279C23.897 29.8253 24.1164 29.9095 24.2711 29.9617L24.2732 29.9624C24.4067 30.0067 24.5564 30.0194 24.6982 30.0219C24.848 30.0245 25.0294 30.016 25.2454 29.9982C25.6776 29.9626 26.2875 29.8862 27.1342 29.7656L27.136 29.7654C27.7631 29.6738 28.3402 29.5936 28.7645 29.539C28.8096 29.5331 28.8529 29.5276 28.8942 29.5224C28.8907 29.5603 28.887 29.5999 28.883 29.6411C28.8413 30.0734 28.7754 30.6695 28.6951 31.3259L28.695 31.3271C28.616 31.9864 28.5509 32.609 28.5106 33.0818C28.4906 33.3174 28.4762 33.5203 28.4697 33.6737C28.4664 33.7495 28.4647 33.8199 28.4658 33.8787C28.4664 33.9078 28.4677 33.941 28.4711 33.9743L28.4712 33.9753C28.4733 33.9956 28.4799 34.0612 28.5074 34.1331M14.7403 17.3697L28.9746 33.9549M14.7403 17.3697C16.3167 15.9614 19.2456 14.0258 21.7567 12.7286M14.7403 17.3697L21.7567 12.7286M28.5074 34.1331C28.5084 34.1357 28.5094 34.1384 28.5105 34.141L28.9746 33.9549M28.5074 34.1331C28.5073 34.1328 28.5072 34.1325 28.5071 34.1323L28.9746 33.9549M28.5074 34.1331C28.7019 34.6448 29.2006 34.9506 29.7349 34.9651M28.9746 33.9549C29.0884 34.255 29.3929 34.4576 29.7539 34.4654M29.7349 34.9651C29.7304 34.9649 29.7261 34.9647 29.7218 34.9644L29.7539 34.4654M29.7349 34.9651C29.8285 34.9694 29.969 34.9586 30.1028 34.9464C30.2605 34.9321 30.4623 34.9102 30.6931 34.8825C31.1555 34.8272 31.7445 34.748 32.3509 34.6576C33.0438 34.5543 33.5711 34.4872 33.9268 34.4544M29.7349 34.9651C29.7376 34.9652 29.7404 34.9653 29.7431 34.9653L29.7539 34.4654M29.7539 34.4654L33.9268 34.4544M33.9268 34.4544C33.9197 34.5198 33.9119 34.5903 33.9036 34.6654C33.8555 35.098 33.7883 35.6782 33.7139 36.3038C33.6347 36.9336 33.5717 37.5319 33.5324 37.9898C33.5128 38.2184 33.4988 38.4157 33.4919 38.5659C33.4884 38.6405 33.4864 38.7086 33.4868 38.7654L33.4868 38.7691C33.487 38.8047 33.4875 38.8987 33.5114 38.9849L33.5116 38.9858C33.6907 39.6285 34.2808 39.9355 34.9071 39.889L34.9088 39.8889C35.2729 39.8606 36.4852 39.6939 37.6054 39.5293C38.1708 39.4463 38.7215 39.3624 39.1429 39.2945C39.3533 39.2607 39.5337 39.2304 39.6684 39.2061C39.7353 39.194 39.7941 39.1828 39.841 39.1728L39.8449 39.172C39.8745 39.1658 39.9458 39.1508 40.0047 39.1266L40.0158 39.1221L40.0158 39.1219C40.1428 39.0662 40.241 38.9714 40.2971 38.9137C40.3653 38.8435 40.4359 38.7584 40.5066 38.6663C40.6487 38.4813 40.8151 38.2363 40.9963 37.9515C41.3601 37.3799 41.8033 36.6167 42.2625 35.7793C43.1798 34.1068 44.179 32.1055 44.754 30.6945C44.754 30.6944 44.7541 30.6943 44.7541 30.6942L33.9268 34.4544ZM21.7567 12.7286C25.5328 10.7629 30.0121 9.20119 33.4375 8.64857L21.7567 12.7286ZM44.4783 10.8411C47.1182 13.3113 47.9244 17.3792 47.0661 22.6601L33.4377 8.64853C36.2016 8.19996 38.8175 8.26636 40.8979 8.84903C41.4782 9.01081 42.1653 9.31855 42.7997 9.67174C43.4336 10.0246 44.0495 10.4422 44.4773 10.8401L44.4783 10.8411Z" fill="#D4A181" stroke="#18181B"/>
<path id="Vector_2" d="M16.8804 53.0333C19.2991 53.794 21.5631 54.0111 24.0457 53.7088C28.5364 53.1613 32.4942 50.8576 35.2052 47.212C36.3156 45.7181 37.2836 43.778 37.9836 41.6028C38.368 40.4056 38.3801 40.2799 38.1526 39.9636C37.7545 39.4203 37.499 39.4652 35.3334 40.534C34.5791 40.9079 33.9262 41.2006 33.8937 41.1844C33.8613 41.1682 33.6413 40.1663 33.405 38.9534C33.1686 37.7405 32.9161 36.621 32.843 36.4628C32.5341 35.8018 32.2055 35.8711 29.7561 37.0821C29.0821 37.4187 28.4711 37.7131 28.0765 37.8964C28.0703 37.8753 28.0605 37.8386 28.0469 37.7838C28.0237 37.6904 27.9936 37.5605 27.958 37.4M16.8804 53.0333L16.733 53.5111C16.7326 53.511 16.7321 53.5108 16.7317 53.5107M16.8804 53.0333C15.9754 52.7541 13.4265 51.4824 12.6593 50.9272L9.60647 27.7114M16.8804 53.0333L16.7304 53.5103C16.7308 53.5104 16.7312 53.5105 16.7317 53.5107M16.7317 53.5107C19.2161 54.2919 21.5515 54.5162 24.1062 54.2051L24.1063 54.2051C28.7334 53.641 32.8141 51.2653 35.6065 47.5104L35.6065 47.5103C36.7552 45.9648 37.7459 43.9735 38.4596 41.756L38.4597 41.7557C38.6448 41.1789 38.7657 40.7891 38.7949 40.5039C38.8115 40.342 38.8031 40.1854 38.7508 40.0275C38.7013 39.878 38.6224 39.7606 38.5585 39.6717L38.5559 39.6681C38.4476 39.5203 38.2971 39.3357 38.0679 39.2238C37.8223 39.104 37.5641 39.1027 37.3077 39.154C37.0608 39.2034 36.773 39.3103 36.4316 39.4593C36.085 39.6105 35.6535 39.8184 35.1121 40.0856L35.1114 40.086C34.7842 40.2482 34.4775 40.3943 34.2351 40.5053M16.7317 53.5107C16.2352 53.3573 15.3393 52.9525 14.495 52.5312C13.6508 52.11 12.7888 51.6378 12.3676 51.3334C9.30097 49.1465 7.21771 46.3612 6.0284 42.8658L6.02802 42.8647C4.62475 38.7085 4.81579 34.5762 6.60881 30.4397L6.60923 30.4388C6.61959 30.415 6.62983 30.3915 6.63995 30.3682C6.92654 29.7102 7.12545 29.2534 7.55171 28.8704C7.94967 28.5128 8.5393 28.2276 9.50939 27.7583C9.54134 27.7429 9.5737 27.7272 9.60647 27.7114M34.2351 40.5053C34.2698 40.6614 34.2992 40.7875 34.3219 40.8779C34.3357 40.933 34.3454 40.9684 34.3512 40.9873C34.3546 40.9983 34.3537 40.9941 34.3489 40.9823L34.3489 40.9822C34.347 40.9776 34.3389 40.9575 34.3243 40.9319C34.317 40.9193 34.3022 40.8946 34.2791 40.8663C34.2613 40.8445 34.2085 40.7827 34.1169 40.737C34.0026 40.6799 33.8991 40.6845 33.8797 40.6853L33.8782 40.6854C33.8441 40.6868 33.8187 40.6916 33.8093 40.6935C33.7888 40.6976 33.7771 40.7016 33.7815 40.7002C33.7872 40.6984 33.8055 40.6919 33.8407 40.6779C33.9085 40.6508 34.0092 40.6074 34.1375 40.5496C34.1687 40.5355 34.2013 40.5207 34.2351 40.5053ZM34.2351 40.5053C34.2283 40.4748 34.2214 40.4432 34.2142 40.4106C34.1267 40.0112 34.0134 39.4615 33.8957 38.8578C33.7768 38.2474 33.6536 37.6594 33.5505 37.2026C33.4991 36.9745 33.452 36.7764 33.4126 36.6234C33.3787 36.4919 33.3382 36.3426 33.2968 36.2529L33.296 36.2512C33.211 36.0693 33.08 35.8305 32.8321 35.6817C32.568 35.5232 32.276 35.5253 32.0034 35.5803C31.7347 35.6345 31.4135 35.7545 31.0277 35.9235C30.636 36.0951 30.1469 36.3311 29.5345 36.6339L29.5327 36.6348C28.9618 36.9199 28.4369 37.1743 28.053 37.3554C28.0202 37.3708 27.9885 37.3857 27.958 37.4M27.958 37.4C27.8092 37.4697 27.6876 37.5254 27.5992 37.5646C27.5501 37.5863 27.515 37.6013 27.4927 37.6103C27.3943 37.1748 27.2508 36.4863 27.1016 35.7172C26.8449 34.4232 26.5843 33.2793 26.5193 33.1861C26.3324 32.9306 25.8658 32.8296 25.5008 32.9719M27.958 37.4C27.9499 37.3635 27.9415 37.3253 27.9328 37.2857C27.8396 36.8593 27.7182 36.27 27.5924 35.6219L27.592 35.6199C27.463 34.9694 27.3326 34.355 27.2259 33.8896C27.1727 33.6575 27.1244 33.4587 27.0846 33.3098C27.0649 33.2359 27.0458 33.1691 27.0281 33.1144C27.0193 33.0873 27.0092 33.0579 26.9978 33.0295C26.9904 33.0111 26.9683 32.9558 26.9295 32.9002L26.923 32.8908L26.9228 32.8909C26.7349 32.6339 26.4447 32.4968 26.1806 32.4407C25.9107 32.3835 25.6039 32.3958 25.3222 32.5049M28.0759 37.8967C27.799 38.0254 27.6289 38.0992 27.6189 38.0942C27.6073 38.0925 27.5609 37.9126 27.493 37.6116L28.0759 37.8967ZM28.0759 37.8967C28.0758 37.8963 28.0756 37.8959 28.0754 37.8955C28.0738 37.8916 28.0643 37.8672 28.0463 37.8368C28.038 37.8227 28.0171 37.7885 27.9821 37.7512C27.9673 37.7354 27.9204 37.686 27.8421 37.6468C27.8345 37.643 27.8267 37.6394 27.8186 37.6358L28.0759 37.8967ZM25.3222 32.5049C25.3235 32.5044 25.3248 32.5039 25.326 32.5035L25.5008 32.9719M25.3222 32.5049C25.3212 32.5053 25.3202 32.5057 25.3192 32.5061L25.5008 32.9719M25.3222 32.5049C25.1095 32.5856 24.0862 33.0745 23.0511 33.5792L23.0491 33.5803C22.5202 33.8412 22.0372 34.0731 21.6853 34.2367C21.6743 34.2418 21.6634 34.2469 21.6527 34.2518M25.5008 32.9719C25.3264 33.037 24.3288 33.5125 23.2703 34.0287C22.6707 34.3245 22.1278 34.5842 21.765 34.7506C21.7594 34.7294 21.7514 34.6969 21.7407 34.6516C21.7183 34.5561 21.6885 34.4204 21.6527 34.2518M21.6527 34.2518C21.4913 34.3266 21.3625 34.3846 21.273 34.4229C21.2309 34.441 21.2024 34.4525 21.1856 34.4589C21.1001 34.0616 20.9777 33.4572 20.8472 32.7893M21.6527 34.2518C21.6488 34.2338 21.6449 34.2153 21.641 34.1965C21.5592 33.8091 21.4519 33.2768 21.3381 32.6945M21.7637 34.7512C21.4845 34.8793 21.3122 34.952 21.3034 34.9432C21.293 34.938 21.2497 34.7567 21.1858 34.4596L21.7637 34.7512ZM21.7637 34.7512C21.7605 34.7431 21.7555 34.7312 21.7486 34.7173C21.7431 34.7062 21.7303 34.6812 21.7094 34.6518L21.7088 34.651C21.7026 34.6422 21.6855 34.6182 21.6566 34.5894C21.6314 34.5643 21.5974 34.5356 21.5538 34.5104L21.7637 34.7512ZM21.3381 32.6945C21.3382 32.6948 21.3382 32.6951 21.3383 32.6954L20.8472 32.7893M21.3381 32.6945C21.338 32.6941 21.338 32.6938 21.3379 32.6934L20.8472 32.7893M21.3381 32.6945C21.2028 31.9868 21.0936 31.4327 20.9955 31.0033C20.8987 30.5796 20.8064 30.248 20.6986 29.9997C20.5901 29.7499 20.4374 29.5167 20.1799 29.3813C19.9363 29.2532 19.6821 29.26 19.503 29.2729M20.8472 32.7893C20.3052 29.9538 20.2076 29.7227 19.5342 29.7719M19.5342 29.7719L19.5206 29.2721C19.5147 29.2723 19.5088 29.2725 19.503 29.2729M19.5342 29.7719C19.38 29.7761 18.3134 30.2476 17.1698 30.8125C16.4984 31.1442 15.8885 31.4366 15.4944 31.6191C15.4882 31.598 15.4783 31.5612 15.4647 31.5061C15.4415 31.4128 15.4114 31.2831 15.3759 31.1228M19.5342 29.7719L19.4977 29.2733C19.4994 29.2731 19.5012 29.273 19.503 29.2729M19.503 29.2729C19.4117 29.2783 19.3251 29.3053 19.2863 29.3174C19.2257 29.3363 19.1558 29.3615 19.0812 29.3901C18.931 29.4478 18.7392 29.5284 18.5214 29.6244C18.0845 29.817 17.5252 30.0793 16.9484 30.3643C16.3789 30.6455 15.8547 30.8981 15.471 31.0783C15.4381 31.0937 15.4064 31.1086 15.3759 31.1228M15.3759 31.1228C15.2272 31.1922 15.1057 31.2477 15.0172 31.2869C14.968 31.3086 14.9329 31.3236 14.9104 31.3326C14.8121 30.8971 14.6686 30.2086 14.5194 29.4395C14.2627 28.1455 14.0061 27.0138 13.9411 26.9205C13.8111 26.734 13.6082 26.6328 13.3161 26.6087C13.0929 26.5886 12.6995 26.7674 9.82426 28.1614M15.3759 31.1228C15.3677 31.0861 15.3593 31.0478 15.3506 31.008C15.2574 30.5816 15.136 29.9923 15.0102 29.3442L15.0098 29.3422C14.8808 28.6919 14.7515 28.0806 14.6458 27.6183C14.593 27.3877 14.5453 27.1904 14.5059 27.0426C14.4863 26.9693 14.4674 26.9028 14.4497 26.8483C14.441 26.8214 14.4309 26.792 14.4195 26.7637L14.4195 26.7636C14.412 26.745 14.3899 26.69 14.3513 26.6346C14.1127 26.2922 13.7515 26.1429 13.3572 26.1104M15.4938 31.6194C15.2169 31.7476 15.0467 31.8215 15.0366 31.8165C15.025 31.8148 14.9787 31.6349 14.9107 31.3339L15.4938 31.6194ZM15.4938 31.6194C15.4936 31.6189 15.4934 31.6183 15.4932 31.6178C15.4916 31.6138 15.482 31.5895 15.4641 31.5591C15.4558 31.545 15.4349 31.5108 15.3999 31.4735C15.385 31.4576 15.3381 31.4083 15.2598 31.3691C15.2523 31.3653 15.2445 31.3616 15.2363 31.3581L15.4938 31.6194ZM13.3572 26.1104C13.3584 26.1105 13.3597 26.1106 13.3609 26.1107L13.3161 26.6086L13.3572 26.1104ZM13.3572 26.1104C13.2116 26.0979 13.0753 26.1241 12.9302 26.17C12.7884 26.2147 12.6068 26.2886 12.3612 26.3981C11.8664 26.6186 11.0405 27.0161 9.60647 27.7114M9.60647 27.7114L9.82426 28.1614M9.82426 28.1614C8.57341 28.7667 8.05885 29.0157 7.71834 29.4136C7.48037 29.6917 7.32742 30.0425 7.06757 30.6386L9.82426 28.1614Z" fill="#D4A181" stroke="#18181B"/>
</g>
</svg>
