<svg width="115" height="60" viewBox="0 0 115 60" fill="none" xmlns="http://www.w3.org/2000/svg">
<path d="M50.5947 14V3.81818H51.4846V7.82031H51.5642C51.6636 7.59162 51.8061 7.3563 51.9917 7.11435C52.1806 6.8724 52.4276 6.67022 52.7325 6.50781C53.0407 6.34209 53.4285 6.25923 53.8958 6.25923C54.5223 6.25923 55.0725 6.42495 55.5464 6.75639C56.0204 7.08452 56.3899 7.54522 56.6551 8.13849C56.9202 8.72846 57.0528 9.41619 57.0528 10.2017C57.0528 10.9905 56.9202 11.6816 56.6551 12.2749C56.3932 12.8681 56.0253 13.3305 55.5514 13.6619C55.0807 13.9934 54.5339 14.1591 53.9108 14.1591C53.4467 14.1591 53.059 14.0762 52.7474 13.9105C52.4392 13.7448 52.1906 13.541 52.0017 13.299C51.8127 13.0537 51.6669 12.8151 51.5642 12.5831H51.4548V14H50.5947ZM51.4697 10.1868C51.4697 10.8033 51.5609 11.3501 51.7431 11.8274C51.9287 12.3014 52.1939 12.6742 52.5386 12.946C52.8866 13.2145 53.3075 13.3487 53.8014 13.3487C54.3085 13.3487 54.7377 13.2095 55.089 12.9311C55.4403 12.6494 55.7072 12.2699 55.8894 11.7926C56.0717 11.3153 56.1629 10.7801 56.1629 10.1868C56.1629 9.60014 56.0717 9.0715 55.8894 8.60085C55.7105 8.13021 55.4453 7.75734 55.094 7.48224C54.7427 7.20384 54.3118 7.06463 53.8014 7.06463C53.3042 7.06463 52.8816 7.19886 52.5336 7.46733C52.1889 7.73248 51.9254 8.10038 51.7431 8.57102C51.5609 9.03835 51.4697 9.57694 51.4697 10.1868ZM59.3397 16.8636C59.1641 16.8636 59 16.8471 58.8475 16.8139C58.6951 16.7808 58.5741 16.7443 58.4846 16.7045L58.7233 15.924C59.0249 16.0168 59.2933 16.05 59.5287 16.0234C59.764 16.0002 59.9728 15.8942 60.1551 15.7053C60.3374 15.5196 60.4998 15.2346 60.6423 14.8501L60.9207 14.0746L58.1117 6.36364H59.0713L61.3383 12.8317H61.4079L63.675 6.36364H64.6345L61.4029 15.2081C61.2671 15.576 61.0997 15.8826 60.9008 16.1278C60.7019 16.3764 60.4716 16.5604 60.2098 16.6797C59.9512 16.8023 59.6612 16.8636 59.3397 16.8636Z" fill="#67788A"/>
<path d="M24.2434 44.2562L20.9593 32.6198H23.2264L25.323 41.1709H25.4309L27.6696 32.6198H29.7321L31.9764 41.1766H32.0786L34.1752 32.6198H36.4423L33.1582 44.2562H31.0786L28.7491 36.0914H28.6582L26.323 44.2562H24.2434ZM39.8698 39.1425V44.2562H37.813V32.6198H39.8244V37.0118H39.9267C40.1312 36.5194 40.4475 36.1312 40.8755 35.8471C41.3073 35.5592 41.8566 35.4153 42.5232 35.4153C43.1293 35.4153 43.6577 35.5421 44.1085 35.7959C44.5592 36.0497 44.9077 36.4209 45.1539 36.9096C45.4039 37.3982 45.5289 37.9948 45.5289 38.6993V44.2562H43.4721V39.0175C43.4721 38.4304 43.3206 37.974 43.0176 37.6482C42.7183 37.3187 42.2979 37.1539 41.7562 37.1539C41.3926 37.1539 41.0668 37.2334 40.7789 37.3925C40.4948 37.5478 40.2714 37.7732 40.1085 38.0687C39.9494 38.3641 39.8698 38.7221 39.8698 39.1425ZM50.1369 44.4323C49.5839 44.4323 49.0857 44.3338 48.6426 44.1368C48.2032 43.9361 47.8547 43.6406 47.5971 43.2505C47.3433 42.8603 47.2164 42.3793 47.2164 41.8073C47.2164 41.3149 47.3073 40.9077 47.4892 40.5857C47.671 40.2637 47.9191 40.0062 48.2335 39.813C48.5479 39.6198 48.902 39.474 49.296 39.3755C49.6937 39.2732 50.1047 39.1993 50.5289 39.1539C51.0403 39.1009 51.4551 39.0535 51.7732 39.0118C52.0914 38.9664 52.3225 38.8982 52.4664 38.8073C52.6142 38.7126 52.688 38.5668 52.688 38.3698V38.3357C52.688 37.9077 52.5611 37.5762 52.3073 37.3414C52.0535 37.1065 51.688 36.9891 51.2107 36.9891C50.707 36.9891 50.3073 37.099 50.0119 37.3187C49.7202 37.5384 49.5232 37.7978 49.421 38.0971L47.5005 37.8243C47.652 37.294 47.902 36.8509 48.2505 36.4948C48.599 36.135 49.0251 35.866 49.5289 35.688C50.0327 35.5062 50.5895 35.4153 51.1994 35.4153C51.6198 35.4153 52.0384 35.4645 52.4551 35.563C52.8717 35.6615 53.2524 35.8243 53.5971 36.0516C53.9418 36.2751 54.2183 36.58 54.4267 36.9664C54.6388 37.3528 54.7448 37.8357 54.7448 38.4153V44.2562H52.7676V43.0573H52.6994C52.5744 43.2997 52.3982 43.527 52.171 43.7391C51.9475 43.9475 51.6653 44.116 51.3244 44.2448C50.9873 44.3698 50.5914 44.4323 50.1369 44.4323ZM50.671 42.9209C51.0839 42.9209 51.4418 42.8395 51.7448 42.6766C52.0479 42.51 52.2808 42.2903 52.4437 42.0175C52.6104 41.7448 52.6937 41.4475 52.6937 41.1255V40.0971C52.6293 40.1501 52.5195 40.1993 52.3642 40.2448C52.2126 40.2903 52.0422 40.33 51.8528 40.3641C51.6634 40.3982 51.4759 40.4285 51.2903 40.455C51.1047 40.4815 50.9437 40.5043 50.8073 40.5232C50.5005 40.5649 50.2259 40.6331 49.9835 40.7278C49.741 40.8225 49.5498 40.955 49.4096 41.1255C49.2695 41.2921 49.1994 41.5081 49.1994 41.7732C49.1994 42.152 49.3376 42.438 49.6142 42.6312C49.8907 42.8243 50.2429 42.9209 50.671 42.9209ZM58.8698 32.6198V44.2562H56.813V32.6198H58.8698ZM64.8485 44.4266C63.9735 44.4266 63.2178 44.2448 62.5815 43.8812C61.9489 43.5137 61.4622 42.9948 61.1213 42.3243C60.7803 41.6501 60.6099 40.8565 60.6099 39.9437C60.6099 39.0459 60.7803 38.2581 61.1213 37.58C61.466 36.8982 61.947 36.3679 62.5644 35.9891C63.1819 35.6065 63.9072 35.4153 64.7406 35.4153C65.2785 35.4153 65.786 35.5024 66.2633 35.6766C66.7444 35.8471 67.1686 36.1122 67.536 36.4721C67.9072 36.8319 68.1989 37.2903 68.411 37.8471C68.6232 38.4001 68.7292 39.0592 68.7292 39.8243V40.455H61.5758V39.0687H66.7576C66.7538 38.6747 66.6686 38.3243 66.5019 38.0175C66.3353 37.7069 66.1023 37.4626 65.8031 37.2846C65.5076 37.1065 65.1629 37.0175 64.769 37.0175C64.3485 37.0175 63.9792 37.1198 63.661 37.3243C63.3428 37.5251 63.0947 37.7903 62.9167 38.1198C62.7425 38.4456 62.6535 38.8035 62.6497 39.1937V40.4039C62.6497 40.9115 62.7425 41.3471 62.9281 41.7107C63.1137 42.0706 63.3731 42.3471 63.7065 42.5403C64.0398 42.7296 64.43 42.8243 64.8769 42.8243C65.1762 42.8243 65.447 42.7827 65.6894 42.6993C65.9319 42.6122 66.1421 42.4853 66.3201 42.3187C66.4981 42.152 66.6326 41.9456 66.7235 41.6993L68.644 41.9153C68.5228 42.4228 68.2917 42.866 67.9508 43.2448C67.6137 43.6198 67.1819 43.9115 66.6553 44.1198C66.1288 44.3243 65.5266 44.4266 64.8485 44.4266ZM76.884 35.8187C76.831 35.3225 76.6075 34.9361 76.2136 34.6596C75.8234 34.3831 75.3159 34.2448 74.6909 34.2448C74.2515 34.2448 73.8746 34.3111 73.5602 34.4437C73.2458 34.5762 73.0053 34.7562 72.8386 34.9834C72.6719 35.2107 72.5867 35.4702 72.5829 35.7618C72.5829 36.0043 72.6378 36.2145 72.7477 36.3925C72.8613 36.5706 73.0147 36.7221 73.2079 36.8471C73.4011 36.9683 73.6151 37.0706 73.8499 37.1539C74.0848 37.2372 74.3215 37.3073 74.5602 37.3641L75.6511 37.6368C76.0905 37.7391 76.5128 37.8774 76.9181 38.0516C77.3272 38.2259 77.6928 38.4456 78.0147 38.7107C78.3405 38.9759 78.5981 39.2959 78.7874 39.6709C78.9768 40.0459 79.0715 40.4853 79.0715 40.9891C79.0715 41.6709 78.8973 42.2713 78.5488 42.7903C78.2003 43.3054 77.6965 43.7088 77.0374 44.0005C76.3821 44.2884 75.5886 44.4323 74.6568 44.4323C73.7515 44.4323 72.9655 44.2921 72.2988 44.0118C71.6359 43.7315 71.117 43.3225 70.742 42.7846C70.3708 42.2467 70.17 41.5914 70.1397 40.8187H72.2136C72.2439 41.224 72.3689 41.5611 72.5886 41.83C72.8083 42.099 73.0943 42.2997 73.4465 42.4323C73.8026 42.5649 74.2003 42.6312 74.6397 42.6312C75.0981 42.6312 75.4996 42.563 75.8443 42.4266C76.1928 42.2865 76.4655 42.0933 76.6624 41.8471C76.8594 41.5971 76.9598 41.3054 76.9636 40.9721C76.9598 40.669 76.8708 40.419 76.6965 40.2221C76.5223 40.0213 76.278 39.8546 75.9636 39.7221C75.653 39.5857 75.2893 39.4645 74.8727 39.3584L73.5488 39.0175C72.5905 38.7713 71.8329 38.3982 71.2761 37.8982C70.7231 37.3944 70.4465 36.7259 70.4465 35.8925C70.4465 35.2069 70.6321 34.6065 71.0034 34.0914C71.3784 33.5762 71.8878 33.1766 72.5318 32.8925C73.1757 32.6046 73.9049 32.4607 74.7193 32.4607C75.545 32.4607 76.2685 32.6046 76.8897 32.8925C77.5147 33.1766 78.0053 33.5725 78.3613 34.08C78.7174 34.5838 78.9011 35.1634 78.9124 35.8187H76.884ZM84.6667 44.4266C83.7955 44.4266 83.0474 44.2353 82.4224 43.8528C81.8012 43.4702 81.322 42.9418 80.9849 42.2675C80.6516 41.5895 80.4849 40.8092 80.4849 39.9266C80.4849 39.0403 80.6553 38.2581 80.9963 37.58C81.3372 36.8982 81.8182 36.3679 82.4394 35.9891C83.0644 35.6065 83.8031 35.4153 84.6553 35.4153C85.3637 35.4153 85.9906 35.5459 86.536 35.8073C87.0853 36.0649 87.5228 36.4304 87.8485 36.9039C88.1743 37.3736 88.3599 37.9228 88.4053 38.5516H86.4394C86.3599 38.1312 86.1705 37.7808 85.8713 37.5005C85.5758 37.2164 85.18 37.0743 84.6838 37.0743C84.2633 37.0743 83.894 37.188 83.5758 37.4153C83.2576 37.6387 83.0095 37.9607 82.8315 38.3812C82.6572 38.8016 82.5701 39.3054 82.5701 39.8925C82.5701 40.4872 82.6572 40.9986 82.8315 41.4266C83.0057 41.8509 83.25 42.1785 83.5644 42.4096C83.8826 42.6368 84.2557 42.7505 84.6838 42.7505C84.9868 42.7505 85.2576 42.6937 85.4963 42.58C85.7387 42.4626 85.9413 42.294 86.1042 42.0743C86.2671 41.8546 86.3788 41.5876 86.4394 41.2732H88.4053C88.3561 41.8906 88.1743 42.438 87.8599 42.9153C87.5455 43.3887 87.1175 43.76 86.5758 44.0289C86.0341 44.294 85.3978 44.4266 84.6667 44.4266ZM92.6056 44.4323C92.0526 44.4323 91.5545 44.3338 91.1113 44.1368C90.6719 43.9361 90.3234 43.6406 90.0659 43.2505C89.8121 42.8603 89.6852 42.3793 89.6852 41.8073C89.6852 41.3149 89.7761 40.9077 89.9579 40.5857C90.1397 40.2637 90.3878 40.0062 90.7022 39.813C91.0166 39.6198 91.3708 39.474 91.7647 39.3755C92.1624 39.2732 92.5734 39.1993 92.9977 39.1539C93.509 39.1009 93.9238 39.0535 94.242 39.0118C94.5602 38.9664 94.7912 38.8982 94.9352 38.8073C95.0829 38.7126 95.1568 38.5668 95.1568 38.3698V38.3357C95.1568 37.9077 95.0299 37.5762 94.7761 37.3414C94.5223 37.1065 94.1568 36.9891 93.6795 36.9891C93.1757 36.9891 92.7761 37.099 92.4806 37.3187C92.189 37.5384 91.992 37.7978 91.8897 38.0971L89.9693 37.8243C90.1208 37.294 90.3708 36.8509 90.7193 36.4948C91.0677 36.135 91.4939 35.866 91.9977 35.688C92.5015 35.5062 93.0583 35.4153 93.6681 35.4153C94.0886 35.4153 94.5071 35.4645 94.9238 35.563C95.3405 35.6615 95.7212 35.8243 96.0659 36.0516C96.4106 36.2751 96.6871 36.58 96.8954 36.9664C97.1075 37.3528 97.2136 37.8357 97.2136 38.4153V44.2562H95.2363V43.0573H95.1681C95.0431 43.2997 94.867 43.527 94.6397 43.7391C94.4162 43.9475 94.134 44.116 93.7931 44.2448C93.456 44.3698 93.0602 44.4323 92.6056 44.4323ZM93.1397 42.9209C93.5526 42.9209 93.9106 42.8395 94.2136 42.6766C94.5166 42.51 94.7496 42.2903 94.9124 42.0175C95.0791 41.7448 95.1624 41.4475 95.1624 41.1255V40.0971C95.0981 40.1501 94.9882 40.1993 94.8329 40.2448C94.6814 40.2903 94.5109 40.33 94.3215 40.3641C94.1321 40.3982 93.9446 40.4285 93.759 40.455C93.5734 40.4815 93.4124 40.5043 93.2761 40.5232C92.9693 40.5649 92.6946 40.6331 92.4522 40.7278C92.2098 40.8225 92.0185 40.955 91.8784 41.1255C91.7382 41.2921 91.6681 41.5081 91.6681 41.7732C91.6681 42.152 91.8064 42.438 92.0829 42.6312C92.3594 42.8243 92.7117 42.9209 93.1397 42.9209ZM101.339 32.6198V44.2562H99.2818V32.6198H101.339ZM107.317 44.4266C106.442 44.4266 105.687 44.2448 105.05 43.8812C104.418 43.5137 103.931 42.9948 103.59 42.3243C103.249 41.6501 103.079 40.8565 103.079 39.9437C103.079 39.0459 103.249 38.2581 103.59 37.58C103.935 36.8982 104.416 36.3679 105.033 35.9891C105.651 35.6065 106.376 35.4153 107.209 35.4153C107.747 35.4153 108.255 35.5024 108.732 35.6766C109.213 35.8471 109.637 36.1122 110.005 36.4721C110.376 36.8319 110.668 37.2903 110.88 37.8471C111.092 38.4001 111.198 39.0592 111.198 39.8243V40.455H104.045V39.0687H109.226C109.223 38.6747 109.137 38.3243 108.971 38.0175C108.804 37.7069 108.571 37.4626 108.272 37.2846C107.976 37.1065 107.632 37.0175 107.238 37.0175C106.817 37.0175 106.448 37.1198 106.13 37.3243C105.812 37.5251 105.563 37.7903 105.385 38.1198C105.211 38.4456 105.122 38.8035 105.118 39.1937V40.4039C105.118 40.9115 105.211 41.3471 105.397 41.7107C105.582 42.0706 105.842 42.3471 106.175 42.5403C106.509 42.7296 106.899 42.8243 107.346 42.8243C107.645 42.8243 107.916 42.7827 108.158 42.6993C108.401 42.6122 108.611 42.4853 108.789 42.3187C108.967 42.152 109.101 41.9456 109.192 41.6993L111.113 41.9153C110.992 42.4228 110.76 42.866 110.42 43.2448C110.082 43.6198 109.651 43.9115 109.124 44.1198C108.598 44.3243 107.995 44.4266 107.317 44.4266Z" fill="#67788A"/>
<path d="M1.07369 30.006L0.0622144 29.708C0.0324259 29.6992 0.00319628 29.7233 0.00613258 29.7542C0.0847377 30.5818 0.495491 31.3422 1.14456 31.8617L1.54103 32.179C1.57538 32.2065 1.61259 32.2302 1.65202 32.2497L2.91059 32.8715L2.9106 32.8715C3.24281 33.0356 3.40891 33.1176 3.57886 33.1907C3.72372 33.253 3.87064 33.3104 4.01937 33.3627C4.19386 33.4241 4.37163 33.4763 4.72716 33.5807L7.40055 34.3657C7.421 34.3717 7.43122 34.3747 7.44124 34.3779C7.58498 34.4234 7.71658 34.5009 7.82617 34.6044C7.83381 34.6116 7.8414 34.6191 7.85658 34.6341L7.85659 34.6341C7.89096 34.6679 7.90815 34.6849 7.92349 34.7014C8.14696 34.9425 8.23772 35.2779 8.16626 35.5987C8.16135 35.6207 8.15505 35.644 8.14246 35.6906L8.14244 35.6906L7.44705 38.2604L6.37088 42.5024L5.55424 46.1238C5.53894 46.1916 5.53129 46.2255 5.54024 46.2521C5.54776 46.2744 5.56291 46.2934 5.58302 46.3056C5.60697 46.3202 5.64175 46.3202 5.7113 46.3202H13.0339C13.1105 46.3202 13.1487 46.3202 13.1736 46.3039C13.1945 46.2903 13.2096 46.2693 13.2158 46.2452C13.2232 46.2163 13.211 46.1801 13.1864 46.1076L11.967 42.5024L10.8908 38.2604L10.1939 35.6851L10.1939 35.685C10.1827 35.6439 10.1772 35.6232 10.1727 35.6038C10.0988 35.2798 10.1907 34.9402 10.4179 34.6976C10.4315 34.6831 10.4467 34.6681 10.4772 34.6381C10.491 34.6244 10.4979 34.6176 10.5049 34.611C10.6187 34.5031 10.7563 34.4234 10.9066 34.3785C10.9158 34.3758 10.9251 34.3732 10.9438 34.368L10.9439 34.368L13.7439 33.589C14.1304 33.4815 14.3237 33.4277 14.5132 33.3631C14.6748 33.3081 14.8343 33.2471 14.9914 33.1804C15.1757 33.1021 15.3555 33.0132 15.7152 32.8355L16.9079 32.2463C16.9428 32.2291 16.9757 32.2081 17.0061 32.1838L17.4015 31.8673C18.0478 31.3501 18.424 30.5672 18.424 29.7394C18.424 29.7141 18.4003 29.6955 18.3757 29.7016L17.0763 30.0226C17.0324 30.0334 17.0105 30.0388 16.9883 30.0432C16.9695 30.047 16.9505 30.0502 16.9315 30.0529C16.9091 30.056 16.8866 30.0581 16.8417 30.0624L12.1956 30.5015C11.3461 30.5818 10.5414 30.9199 9.8895 31.4706C9.59329 31.7208 9.164 31.7347 8.85218 31.5042L8.76395 31.439C8.04344 30.9065 7.19019 30.5827 6.29779 30.5032L1.38585 30.0653C1.32566 30.06 1.29556 30.0573 1.26575 30.0528C1.24033 30.049 1.21507 30.0442 1.19003 30.0384C1.16064 30.0317 1.13166 30.0231 1.0737 30.006L1.07369 30.006Z" fill="#67788A"/>
</svg>
