<svg width="42" height="53" viewBox="0 0 42 53" fill="none" xmlns="http://www.w3.org/2000/svg">
<path d="M1.52051 5.06665L4.24761 51.9981C4.27834 52.527 4.71618 52.9401 5.24593 52.9401H35.7357C36.2674 52.9401 36.7061 52.5241 36.7343 51.9932L39.2125 5.32034L1.52051 5.06665Z" fill="#DACB44"/>
<path d="M40.0459 0H1C0.447715 0 0 0.447716 0 1V4.4451C0 4.99739 0.447716 5.4451 1 5.4451H40.0459C40.5982 5.4451 41.0459 4.99739 41.0459 4.4451V1C41.0459 0.447715 40.5982 0 40.0459 0Z" fill="#E3D33D"/>
<g clip-path="url(#clip0_603_5106)">
<path d="M20.4813 21.0312C19.3969 21.1468 18.3594 21.6281 17.5657 22.3906C16.8657 23.0625 16.4032 23.85 16.1751 24.7687C16.0501 25.2781 16.0219 25.5625 16.0407 26.1437C16.0657 26.9812 16.1251 27.2031 16.6001 28.3125C17.5063 30.4156 17.9251 31.6937 18.1876 33.1437C18.2376 33.4218 18.2969 33.6968 18.3251 33.7593C18.3844 33.9031 18.6001 34.1375 18.7188 34.1875L18.8126 34.225V35.1593C18.8126 35.7812 18.8251 36.1406 18.8501 36.2312C18.9376 36.5562 19.2344 36.8531 19.5719 36.9531C19.8063 37.0218 22.1938 37.0218 22.4282 36.9531C22.7657 36.8531 23.0626 36.5562 23.1501 36.2312C23.1751 36.1406 23.1876 35.7812 23.1876 35.1593V34.225L23.2813 34.1875C23.4001 34.1375 23.6157 33.9031 23.6751 33.7593C23.7032 33.6968 23.7626 33.4218 23.8126 33.1437C24.0751 31.6937 24.4876 30.4343 25.4001 28.3093C25.7751 27.4406 25.8501 27.2093 25.9219 26.7343C25.9813 26.3437 25.9813 25.6 25.9251 25.25C25.7344 24.1031 25.2532 23.175 24.4344 22.3906C23.3782 21.3781 21.9282 20.8781 20.4813 21.0312ZM21.5938 21.5125C22.5407 21.6406 23.3938 22.0468 24.0813 22.6968C24.8282 23.4031 25.2907 24.2718 25.4563 25.2812C25.5376 25.7875 25.5032 26.625 25.3782 27.0843C25.3344 27.2406 25.3563 27.2343 24.6876 27.2812C23.2751 27.3781 22.8438 27.3906 21.0001 27.3906C19.1563 27.3906 18.7251 27.3781 17.3126 27.2812C16.6532 27.2343 16.6657 27.2375 16.6251 27.1C16.5313 26.7625 16.4938 26.3562 16.5094 25.8312C16.5344 25.0625 16.6532 24.5906 16.9938 23.9218C17.8563 22.2312 19.7094 21.2625 21.5938 21.5125ZM17.6251 27.7656C19.7594 27.9125 22.2407 27.9125 24.4032 27.7625C24.7876 27.7375 25.1094 27.7218 25.1157 27.7312C25.1251 27.7406 25.0001 28.0625 24.8344 28.4437C24.0282 30.325 23.6344 31.5593 23.3438 33.1218C23.2438 33.6406 23.2094 33.7156 23.0094 33.8C22.8594 33.8656 19.1407 33.8656 18.9907 33.8C18.7907 33.7156 18.7563 33.6406 18.6563 33.1218C18.3657 31.5562 17.9563 30.275 17.1438 28.3906C16.9969 28.05 16.8751 27.7562 16.8751 27.7437C16.8751 27.7125 16.8376 27.7093 17.6251 27.7656ZM22.7188 34.5V34.6875H21.7813H20.8407L20.7657 34.7656C20.6438 34.8843 20.6657 35.0343 20.8157 35.1093C20.8876 35.1468 21.0751 35.1562 21.8126 35.1562H22.7188V35.4062V35.6562H21.7813H20.8407L20.7657 35.7343C20.6657 35.8312 20.6657 35.95 20.7657 36.0468L20.8407 36.125H21.7657C22.2719 36.125 22.6876 36.1375 22.6876 36.1531C22.6876 36.225 22.5313 36.4 22.4063 36.4593C22.2688 36.5312 22.2532 36.5312 21.0001 36.5312C19.7469 36.5312 19.7313 36.5312 19.5938 36.4593C19.4688 36.4 19.3126 36.225 19.3126 36.1531C19.3126 36.1375 19.4438 36.125 19.6063 36.125C19.8532 36.125 19.9094 36.1156 19.9813 36.0593C20.0938 35.9718 20.0938 35.8093 19.9813 35.7218C19.9094 35.6656 19.8532 35.6562 19.5907 35.6562H19.2813V35.4093V35.1625L19.6126 35.15C19.9157 35.1406 19.9469 35.1343 20.0032 35.0656C20.0813 34.9687 20.0782 34.85 19.9938 34.7593C19.9313 34.6937 19.9001 34.6875 19.6032 34.6875H19.2813V34.5V34.3125H21.0001H22.7188V34.5Z" fill="white"/>
<path d="M18.5781 29.203C18.5344 29.2436 18.5 29.3124 18.5 29.3499C18.5 29.5124 19.1531 32.3499 19.2031 32.4061C19.275 32.4843 19.35 32.4999 19.4625 32.4499C19.525 32.4249 19.5688 32.3811 19.5813 32.3249C19.5969 32.2655 19.5031 31.778 19.2781 30.7655C18.9844 29.4343 18.9469 29.2874 18.8688 29.2093C18.7656 29.103 18.675 29.103 18.5781 29.203Z" fill="white"/>
<path d="M20.1313 29.1563C19.9876 29.2156 19.9876 29.2438 20.1063 30.825C20.1688 31.6438 20.2313 32.3406 20.2501 32.3719C20.2938 32.4594 20.4438 32.5031 20.5344 32.4563C20.6907 32.3813 20.6907 32.3688 20.5751 30.8125C20.5157 30.0125 20.4532 29.3219 20.4344 29.2781C20.4157 29.2313 20.3657 29.1813 20.3251 29.1594C20.2344 29.1188 20.2282 29.1188 20.1313 29.1563Z" fill="white"/>
<path d="M21.6345 29.1625C21.597 29.1813 21.5532 29.2313 21.5345 29.2781C21.5157 29.3219 21.4532 30.0125 21.3939 30.8125C21.2782 32.3688 21.2782 32.3813 21.4345 32.4563C21.5251 32.5031 21.6751 32.4594 21.7189 32.3719C21.7439 32.3281 21.9689 29.5969 21.9689 29.3469C21.9689 29.2031 21.772 29.0938 21.6345 29.1625Z" fill="white"/>
<path d="M23.1 29.2093C23.0219 29.2874 22.9844 29.4343 22.6907 30.7655C22.4657 31.778 22.3719 32.2655 22.3875 32.3249C22.4 32.3811 22.4438 32.4249 22.5063 32.4499C22.6188 32.4999 22.6938 32.4843 22.7657 32.4061C22.8157 32.3499 23.4688 29.5124 23.4688 29.3499C23.4688 29.2593 23.3375 29.1249 23.25 29.1249C23.2125 29.1249 23.1438 29.1624 23.1 29.2093Z" fill="white"/>
</g>
<defs>
<clipPath id="clip0_603_5106">
<rect width="16" height="16" fill="white" transform="translate(13 21)"/>
</clipPath>
</defs>
</svg>
