<svg width="30" height="28" viewBox="0 0 30 28" fill="none" xmlns="http://www.w3.org/2000/svg">
<path id="Vector" d="M15.4695 23.2431L15.3405 23.1654L15.2115 23.2431L8.1058 27.5237L8.10576 27.5236L8.10058 27.5269C7.82872 27.6999 7.55444 27.7691 7.27104 27.7455C6.97408 27.7208 6.72121 27.6231 6.50486 27.4549C6.2794 27.2795 6.10414 27.0611 5.97789 26.7967C5.86287 26.5547 5.83522 26.2778 5.91008 25.9534L7.79341 17.8637L7.82766 17.7166L7.71336 17.6178L1.42296 12.1833C1.17204 11.9569 1.02577 11.7093 0.967735 11.4397L0.967519 11.4388C0.905721 11.1572 0.923751 10.8847 1.02163 10.6155C1.12286 10.3371 1.27153 10.117 1.46497 9.94775C1.64552 9.78977 1.90718 9.67566 2.27082 9.62279L10.5681 8.89571L10.7182 8.88256L10.7767 8.74374L13.9871 1.1244L13.9875 1.12348C14.1105 0.828092 14.2963 0.615744 14.5449 0.473995L14.5452 0.473791C14.8103 0.322045 15.0743 0.25 15.3405 0.25C15.6066 0.25 15.8713 0.322025 16.1376 0.473873C16.3849 0.615532 16.5703 0.827867 16.6935 1.12348L16.6939 1.1244L19.9043 8.74374L19.9628 8.88256L20.1128 8.89571L28.4101 9.62279C28.7738 9.67566 29.0354 9.78977 29.216 9.94775C29.4094 10.117 29.5581 10.3371 29.6593 10.6155C29.7573 10.885 29.7758 11.1578 29.715 11.4396C29.6558 11.7093 29.5089 11.9569 29.258 12.1833L22.9676 17.6178L22.8533 17.7166L22.8875 17.8637L24.7709 25.9534C24.7709 25.9535 24.7709 25.9536 24.7709 25.9537C24.8457 26.278 24.8181 26.5547 24.7031 26.7967C24.5768 27.0611 24.4016 27.2795 24.1761 27.4549C23.9597 27.6231 23.7069 27.7208 23.4099 27.7455C23.1265 27.7691 22.8522 27.6999 22.5804 27.5269L22.5804 27.5268L22.5752 27.5237L15.4695 23.2431Z" fill="#FFD600" stroke="#4F5969" stroke-width="0.5"/>
</svg>
