<svg width="27" height="28" viewBox="0 0 27 28" fill="none" xmlns="http://www.w3.org/2000/svg">
<g id="solar:settings-outline">
<g id="Group">
<path id="Vector" fill-rule="evenodd" clip-rule="evenodd" d="M13.3619 9.8139C12.2517 9.8139 11.187 10.2549 10.402 11.04C9.61693 11.825 9.1759 12.8897 9.1759 14C9.1759 15.1102 9.61693 16.1749 10.402 16.9599C11.187 17.745 12.2517 18.186 13.3619 18.186C14.4722 18.186 15.5369 17.745 16.3219 16.9599C17.107 16.1749 17.548 15.1102 17.548 14C17.548 12.8897 17.107 11.825 16.3219 11.04C15.5369 10.2549 14.4722 9.8139 13.3619 9.8139ZM10.8503 14C10.8503 13.3338 11.1149 12.695 11.586 12.224C12.057 11.7529 12.6958 11.4883 13.3619 11.4883C14.0281 11.4883 14.6669 11.7529 15.1379 12.224C15.609 12.695 15.8736 13.3338 15.8736 14C15.8736 14.6661 15.609 15.3049 15.1379 15.7759C14.6669 16.247 14.0281 16.5116 13.3619 16.5116C12.6958 16.5116 12.057 16.247 11.586 15.7759C11.1149 15.3049 10.8503 14.6661 10.8503 14Z" fill="#FB5607"/>
<path id="Vector_2" fill-rule="evenodd" clip-rule="evenodd" d="M13.3341 2C12.8374 2 12.4232 2 12.0839 2.02233C11.737 2.03677 11.3949 2.10843 11.0714 2.23442C10.6989 2.38857 10.3603 2.61459 10.0751 2.89959C9.78994 3.1846 9.56368 3.52299 9.40929 3.89544C9.24743 4.28614 9.20389 4.69916 9.18603 5.14791C9.18424 5.31202 9.1408 5.473 9.05977 5.61573C8.97874 5.75845 8.86278 5.87826 8.72277 5.96391C8.57864 6.04261 8.41687 6.08338 8.25266 6.08241C8.08844 6.08143 7.92717 6.03873 7.78398 5.95833C7.38659 5.74847 7.00705 5.57991 6.58733 5.52409C6.18764 5.47152 5.78151 5.49819 5.39213 5.60257C5.00274 5.70696 4.63773 5.88701 4.31794 6.13247C4.04755 6.35001 3.81485 6.61061 3.62919 6.90381C3.43943 7.18735 3.2318 7.54567 2.98398 7.97544L2.95608 8.02456C2.70715 8.45433 2.50064 8.81265 2.35105 9.11851C2.19477 9.43777 2.07198 9.75256 2.02733 10.1008C1.92084 10.9079 2.13927 11.7242 2.63459 12.3702C2.89245 12.7062 3.22845 12.9507 3.60798 13.1896C3.74948 13.2732 3.86737 13.3915 3.95056 13.5333C4.03375 13.6751 4.07951 13.8357 4.08352 14C4.07951 14.1643 4.03375 14.3249 3.95056 14.4667C3.86737 14.6085 3.74948 14.7268 3.60798 14.8104C3.22845 15.0493 2.89357 15.2938 2.63459 15.6298C2.38914 15.9496 2.20908 16.3146 2.10469 16.704C2.00031 17.0933 1.97364 17.4995 2.02622 17.8992C2.07198 18.2474 2.19366 18.5622 2.34994 18.8815C2.50064 19.1873 2.70715 19.5457 2.95608 19.9754L2.98398 20.0246C3.2318 20.4543 3.43943 20.8127 3.62919 21.0962C3.82677 21.3898 4.03887 21.6543 4.31794 21.8664C4.63765 22.1121 5.00262 22.2923 5.39201 22.3969C5.7814 22.5015 6.18757 22.5283 6.58733 22.4759C7.00705 22.4201 7.38659 22.2527 7.78398 22.0417C7.927 21.9614 8.08808 21.9187 8.2521 21.9177C8.41612 21.9168 8.5777 21.9575 8.72166 22.0361C8.86244 22.1211 8.97913 22.2407 9.06061 22.3835C9.14209 22.5263 9.18565 22.6877 9.18715 22.8521C9.20389 23.3008 9.24743 23.7139 9.4104 24.1046C9.56455 24.4771 9.79058 24.8157 10.0756 25.1009C10.3606 25.386 10.699 25.6123 11.0714 25.7667C11.3951 25.9007 11.73 25.9531 12.0839 25.9766C12.4232 26 12.8374 26 13.3341 26H13.3899C13.8867 26 14.3008 26 14.6402 25.9777C14.9951 25.9531 15.3289 25.9007 15.6526 25.7656C16.0252 25.6114 16.3637 25.3854 16.6489 25.1004C16.9341 24.8154 17.1604 24.477 17.3148 24.1046C17.4766 23.7139 17.5202 23.3008 17.538 22.8521C17.5396 22.6878 17.583 22.5266 17.664 22.3836C17.7451 22.2407 17.8611 22.1207 18.0013 22.035C18.1455 21.9564 18.3073 21.9159 18.4715 21.917C18.6358 21.9182 18.797 21.9611 18.9401 22.0417C19.3375 22.2515 19.717 22.4201 20.1367 22.4748C20.9438 22.5813 21.7601 22.3629 22.4061 21.8675C22.6852 21.6532 22.8973 21.3898 23.0949 21.0962C23.2846 20.8127 23.4923 20.4543 23.7401 20.0246L23.768 19.9754C24.0169 19.5457 24.2234 19.1873 24.373 18.8815C24.5293 18.5622 24.6521 18.2463 24.6967 17.8992C24.8032 17.0921 24.5848 16.2758 24.0895 15.6298C23.8316 15.2938 23.4956 15.0493 23.1161 14.8104C22.9746 14.7268 22.8567 14.6085 22.7735 14.4667C22.6903 14.3249 22.6446 14.1643 22.6405 14C22.6405 13.6897 22.8102 13.3816 23.1161 13.1896C23.4956 12.9507 23.8305 12.7062 24.0895 12.3702C24.3349 12.0504 24.515 11.6854 24.6194 11.296C24.7238 10.9067 24.7504 10.5005 24.6978 10.1008C24.6447 9.75782 24.5353 9.42591 24.3741 9.11851C24.1835 8.74762 23.9814 8.3828 23.768 8.02456L23.7401 7.97544C23.5362 7.61163 23.321 7.25425 23.0949 6.90381C22.9092 6.61092 22.6765 6.35068 22.4061 6.13358C22.0864 5.88794 21.7214 5.70768 21.3321 5.6031C20.9427 5.49852 20.5365 5.47168 20.1367 5.52409C19.717 5.57991 19.3375 5.74735 18.9401 5.95833C18.797 6.03854 18.636 6.08112 18.472 6.0821C18.308 6.08308 18.1464 6.04241 18.0024 5.96391C17.862 5.87853 17.7456 5.75884 17.6642 5.61609C17.5827 5.47335 17.5389 5.31223 17.5369 5.14791C17.5202 4.69916 17.4766 4.28614 17.3137 3.89544C17.1595 3.52288 16.9335 3.18434 16.6485 2.89915C16.3635 2.61395 16.0251 2.3877 15.6526 2.2333C15.3289 2.09935 14.994 2.04688 14.6402 2.02344C14.3008 2 13.8867 2 13.3899 2H13.3341ZM11.7122 3.78047C11.7981 3.74474 11.9287 3.71237 12.1978 3.6934C12.4735 3.67442 12.8307 3.67442 13.362 3.67442C13.8934 3.67442 14.2506 3.67442 14.5263 3.6934C14.7953 3.71237 14.9259 3.74474 15.0119 3.78047C15.3546 3.92223 15.6258 4.19349 15.7676 4.53619C15.8123 4.64335 15.8491 4.81191 15.8636 5.21042C15.8971 6.09451 16.3537 6.94623 17.1641 7.41395C17.9745 7.88279 18.9401 7.85154 19.7226 7.43851C20.0753 7.25209 20.2394 7.19963 20.3555 7.18512C20.7223 7.13665 21.0933 7.23583 21.387 7.46084C21.4606 7.51777 21.5544 7.61488 21.7051 7.83814C21.8603 8.06809 22.0389 8.3773 22.3045 8.83721C22.5702 9.29712 22.7477 9.60744 22.8694 9.85526C22.9888 10.0975 23.0257 10.227 23.0368 10.3196C23.0853 10.6864 22.9861 11.0574 22.7611 11.3511C22.6897 11.4437 22.5624 11.5598 22.2253 11.7719C21.4751 12.243 20.9661 13.0646 20.9661 14C20.9661 14.9354 21.4751 15.757 22.2253 16.2281C22.5624 16.4402 22.6897 16.5563 22.7611 16.6489C22.9866 16.9425 23.0848 17.3131 23.0368 17.6804C23.0257 17.773 22.9877 17.9036 22.8694 18.1447C22.7477 18.3937 22.5702 18.7029 22.3045 19.1628C22.0389 19.6227 21.8591 19.9319 21.7051 20.1619C21.5544 20.3851 21.4606 20.4822 21.387 20.5392C21.0933 20.7642 20.7223 20.8633 20.3555 20.8149C20.2394 20.8004 20.0764 20.7479 19.7226 20.5615C18.9412 20.1485 17.9745 20.1172 17.1641 20.5849C16.3537 21.0538 15.8971 21.9055 15.8636 22.7896C15.8491 23.1881 15.8123 23.3567 15.7676 23.4638C15.6975 23.6333 15.5946 23.7872 15.465 23.9169C15.3353 24.0466 15.1813 24.1494 15.0119 24.2195C14.9259 24.2553 14.7953 24.2876 14.5263 24.3066C14.2506 24.3256 13.8934 24.3256 13.362 24.3256C12.8307 24.3256 12.4735 24.3256 12.1978 24.3066C11.9287 24.2876 11.7981 24.2553 11.7122 24.2195C11.5427 24.1494 11.3888 24.0466 11.2591 23.9169C11.1294 23.7872 11.0266 23.6333 10.9564 23.4638C10.9118 23.3567 10.875 23.1881 10.8604 22.7896C10.827 21.9055 10.3704 21.0538 9.55998 20.586C8.74957 20.1172 7.78398 20.1485 7.00147 20.5615C6.64873 20.7479 6.48464 20.8004 6.36854 20.8149C6.00177 20.8633 5.63077 20.7642 5.3371 20.5392C5.26343 20.4822 5.16966 20.3851 5.01896 20.1619C4.809 19.835 4.60909 19.5019 4.41952 19.1628C4.15384 18.7029 3.97636 18.3926 3.85468 18.1447C3.73524 17.9025 3.6984 17.773 3.68724 17.6804C3.63878 17.3136 3.73795 16.9426 3.96296 16.6489C4.0344 16.5563 4.16166 16.4402 4.49878 16.2281C5.24891 15.757 5.75794 14.9354 5.75794 14C5.75794 13.0646 5.24891 12.243 4.49878 11.7719C4.16166 11.5598 4.0344 11.4437 3.96296 11.3511C3.73795 11.0574 3.63878 10.6864 3.68724 10.3196C3.6984 10.227 3.73636 10.0964 3.85468 9.85526C3.97636 9.60633 4.15384 9.29712 4.41952 8.83721C4.68519 8.3773 4.86491 8.06809 5.01896 7.83814C5.16966 7.61488 5.26343 7.51777 5.3371 7.46084C5.63077 7.23583 6.00177 7.13665 6.36854 7.18512C6.48464 7.19963 6.64761 7.25209 7.00147 7.43851C7.78287 7.85154 8.74957 7.88279 9.55998 7.41395C10.3704 6.94623 10.827 6.09451 10.8604 5.21042C10.875 4.81191 10.9118 4.64335 10.9564 4.53619C11.0982 4.19349 11.3695 3.92223 11.7122 3.78047Z" fill="#FB5607"/>
</g>
</g>
</svg>
