<svg width="71" height="48" viewBox="0 0 71 48" fill="none" xmlns="http://www.w3.org/2000/svg">
<g id="credit card">
<g id="Group">
<path id="Vector" d="M69.7799 16.9424L69.7798 16.9425L60.7434 44.2318L60.7434 44.2318C60.5911 44.6919 60.3497 45.1175 60.033 45.4843C59.7162 45.8511 59.3303 46.1519 58.8973 46.3695C58.4642 46.5871 57.9926 46.7173 57.5092 46.7526C57.0259 46.7879 56.5403 46.7277 56.0802 46.5754L35.7092 39.8303L34.5698 34.9471L41.3924 30.8033L41.7435 30.5901L41.6024 30.2042L38.8467 22.6709L39.2477 22.1453L40.1673 20.9401L40.1674 20.9401L43.234 16.9199L43.3968 16.7066L43.309 16.4531L40.4624 8.23098L43.7882 4.44855L67.4372 12.2793L67.594 11.8059L67.4373 12.2793C67.8973 12.4316 68.3228 12.6731 68.6895 12.9899C69.0563 13.3067 69.357 13.6926 69.5745 14.1256C69.7921 14.5586 69.9222 15.0303 69.9574 15.5136C69.9926 15.9969 69.9323 16.4824 69.7799 16.9424Z" fill="#367CFF" stroke="black"/>
<path id="Vector_2" d="M57.8899 39.9332L57.8899 39.9332L57.8883 39.9381C57.6902 40.5468 57.3231 41.0866 56.8297 41.4944C56.3363 41.9022 55.7371 42.1612 55.102 42.2412C54.467 42.3211 53.8222 42.2187 53.2432 41.946C52.6648 41.6735 52.1757 41.2422 51.833 40.7025C51.3 39.8445 51.117 38.7984 51.4467 37.8027C51.606 37.3235 51.8713 36.8863 52.2231 36.5239C52.5748 36.1614 53.0039 35.883 53.4783 35.7095L53.4783 35.7095L53.4856 35.7068C54.0832 35.4776 54.7337 35.4232 55.3611 35.5499C55.9886 35.6766 56.567 35.9793 57.0288 36.4224C57.4907 36.8656 57.8169 37.4311 57.9693 38.0527C58.1218 38.6744 58.0943 39.3266 57.8899 39.9332Z" fill="white" stroke="black"/>
<path id="Vector_3" d="M49.2938 40.2C48.8566 40.2864 48.4047 40.2861 47.9642 40.197C47.335 40.0699 46.7548 39.7668 46.291 39.3231C45.8271 38.8794 45.4986 38.3133 45.3436 37.6904C45.1886 37.0675 45.2134 36.4134 45.4152 35.8041C45.6171 35.1947 45.9876 34.6551 46.4838 34.2479C46.9799 33.8407 47.5815 33.5825 48.2185 33.5035C48.8555 33.4244 49.5018 33.5276 50.0825 33.8011C50.4926 33.9943 50.8581 34.2668 51.1588 34.601C50.2512 35.1497 49.6417 36.0409 49.2947 37.0889C48.9533 38.1197 48.8908 39.2291 49.2938 40.2Z" fill="#262626" stroke="black"/>
<path id="Vector_4" d="M39.9237 21.4426L39.9237 21.4427C39.9094 21.486 39.8818 21.5236 39.8449 21.5503C39.8083 21.5768 39.7644 21.5911 39.7192 21.5914C39.7038 21.5913 39.6885 21.5895 39.6735 21.5863L39.9106 21.2755C39.911 21.2761 39.9113 21.2768 39.9117 21.2775C39.9374 21.3288 39.9418 21.3881 39.9237 21.4426Z" fill="white" stroke="black"/>
<path id="Vector_5" d="M43.2713 22.3235L50.6412 24.7638C50.7546 24.8014 50.8161 24.9237 50.7785 25.0371C50.741 25.1504 50.6187 25.2119 50.5053 25.1744L43.1353 22.734C43.022 22.6965 42.9605 22.5741 42.998 22.4608C43.0356 22.3474 43.1579 22.2859 43.2713 22.3235Z" fill="white" stroke="black"/>
<path id="Vector_6" d="M54.1253 25.9172L61.4952 28.3576C61.6086 28.3951 61.6701 28.5175 61.6325 28.6308C61.595 28.7442 61.4727 28.8057 61.3593 28.7681L53.9894 26.3278C53.876 26.2902 53.8145 26.1679 53.8521 26.0545C53.8896 25.9412 54.0119 25.8797 54.1253 25.9172Z" fill="white" stroke="black"/>
</g>
<g id="Group_2">
<path id="Vector_7" d="M26.9635 40.0232L26.773 40.3315L27.0066 40.6085L30.0789 44.2507L9.08947 47.4575L9.08942 47.4575C8.61038 47.5308 8.1216 47.5089 7.65099 47.3933C7.18039 47.2776 6.73718 47.0704 6.34667 46.7834C5.95616 46.4964 5.626 46.1353 5.37504 45.7208C5.12408 45.3062 4.95724 44.8463 4.88404 44.3672L0.542315 15.9493C0.542315 15.9493 0.542314 15.9493 0.542314 15.9493C0.469142 15.4703 0.491031 14.9816 0.606731 14.5111C0.722432 14.0406 0.92968 13.5974 1.21664 13.207C1.5036 12.8166 1.86465 12.4865 2.27918 12.2356C2.69371 11.9847 3.15359 11.818 3.63258 11.7448L3.6326 11.7448L21.2936 9.04682L20.0816 13.7977L20.0096 14.0798L20.2194 14.2816L26.5059 20.3296L25.647 25.0402L25.647 25.0402L25.375 26.5309L25.375 26.5311L25.2075 27.4507L25.1584 27.7201L25.359 27.9065L31.1343 33.2742L26.9635 40.0232Z" fill="#367CFF" stroke="black"/>
<path id="Vector_8" d="M6.60018 16.5231L12.0145 15.6959C12.6774 15.5946 13.2969 16.0499 13.3982 16.7128L13.88 19.8661C13.9813 20.529 13.526 21.1486 12.863 21.2498L7.44877 22.0771C6.78585 22.1784 6.16633 21.7231 6.06505 21.0602L5.58326 17.9069C5.48197 17.2439 5.93726 16.6244 6.60018 16.5231Z" fill="white" stroke="black"/>
<path id="Vector_9" d="M7.41879 28.4956L15.0932 27.3231C15.2112 27.305 15.3216 27.3861 15.3396 27.5042C15.3576 27.6222 15.2766 27.7325 15.1585 27.7506L7.48411 28.9231C7.36606 28.9412 7.25573 28.8601 7.2377 28.7421C7.21966 28.624 7.30074 28.5137 7.41879 28.4956Z" fill="white" stroke="black"/>
<path id="Vector_10" d="M18.6455 26.2749C18.4764 26.3006 18.3222 26.386 18.2106 26.5156C18.0991 26.6453 18.0377 26.8106 18.0376 26.9816C18.0376 27.0182 18.0406 27.0548 18.0463 27.091C18.0604 27.1839 18.0928 27.2732 18.1415 27.3537M18.6455 26.2749L18.8623 27.6902C18.7694 27.7045 18.6746 27.7004 18.5832 27.678C18.4919 27.6556 18.4058 27.6155 18.33 27.5598C18.2542 27.5042 18.1902 27.4341 18.1415 27.3537M18.6455 26.2749L25.6161 25.2097L18.6455 26.2749ZM18.1415 27.3537L18.5692 27.0948C18.5839 27.119 18.6032 27.1401 18.626 27.1568L18.3329 27.5559L18.626 27.1568C18.6488 27.1736 18.6746 27.1856 18.7021 27.1924C18.7296 27.1991 18.7581 27.2003 18.7861 27.196L18.7869 27.1959L25.439 26.18L25.5211 25.73L18.721 26.7692L18.7206 26.7693C18.6697 26.777 18.6232 26.8027 18.5897 26.8417C18.5562 26.8806 18.5378 26.9301 18.5376 26.9814C18.5376 26.9918 18.5385 27.0022 18.5401 27.0125L18.5406 27.0158L18.5406 27.0158C18.5449 27.0438 18.5546 27.0706 18.5692 27.0948L18.1415 27.3537Z" fill="white" stroke="black"/>
</g>
<path id="Vector_11" d="M22.4642 0.76509L22.707 3.34911L20.6835 1.63061L22.4642 0.76509Z" fill="#367CFF" stroke="black"/>
<path id="Vector_12" d="M32.6201 5.11195L31.7807 5.04589L32.5526 4.39378L32.6201 5.11195Z" fill="#367CFF" stroke="black"/>
</g>
</svg>
