<svg width="48" height="48" viewBox="0 0 48 48" fill="none" xmlns="http://www.w3.org/2000/svg">
<g id="noto-v1:notebook">
<path id="Vector" d="M19.3125 42.165C23.7038 37.8938 30.5325 31.14 31.995 29.6138C33.8138 27.72 33.27 26.175 32.4975 24.4725C32.2463 23.9138 28.1213 14.5988 25.47 8.5875C25.5787 8.535 26.5875 7.8225 26.835 7.71375C27.6225 7.36125 28.14 7.95375 28.4888 8.68875C28.7438 9.2325 34.68 26.3063 36.1275 30.1838C36.3638 30.8138 36.93 31.6388 36.6112 32.3325C36.255 33.1088 34.815 33.5925 34.125 34.0163C33.2513 34.5488 32.355 35.0438 31.4513 35.52C29.6663 36.4613 27.8475 37.3425 26.1 38.3513C24 39.5625 21.8738 40.71 19.7625 41.895C19.6163 41.9813 19.4663 42.075 19.3125 42.165Z" fill="white"/>
<path id="Vector_2" d="M41.5948 37.9125C41.3061 38.0362 40.9911 38.1225 40.7961 38.1975C36.7573 39.7462 32.5461 40.7625 28.3798 41.91C26.0511 42.5512 23.7298 43.2337 21.4161 43.9237C21.0861 44.025 20.6548 44.1637 20.1748 44.3212C22.1586 43.2225 24.1536 42.1462 26.1148 41.01C27.5998 40.1512 29.1186 39.3637 30.6336 38.5612C32.4486 37.6012 34.2561 36.6225 35.9773 35.5012C36.7836 34.9725 37.8711 34.7137 38.4898 33.93C39.1273 33.1275 39.0898 31.9612 38.8048 31.0275C37.4436 26.6325 36.0748 22.2337 34.3573 17.9662C33.5436 15.9375 32.7261 13.9087 32.1036 11.8125C32.0061 11.49 31.9048 11.13 31.8036 10.755C33.4723 9.80625 33.2661 10.4437 34.0273 12.1837C35.3061 15.105 36.4873 18 37.4473 21.0412C37.7361 21.945 38.0136 22.845 38.2948 23.7487C39.0598 26.2012 39.8286 28.6537 40.5936 31.1062C40.9461 32.2425 41.3023 33.3825 41.6623 34.5187C41.9698 35.535 42.9898 37.32 41.5948 37.9125Z" fill="white"/>
<path id="Vector_3" d="M6.4538 15.06C5.79755 15.8512 4.3238 17.625 4.1738 17.805C3.0413 19.1475 2.98505 20.6775 3.17255 21.7012C3.51755 23.5987 7.92755 40.1212 10.455 45.4762C10.725 46.0537 11.0438 46.4475 11.3963 46.7062C13.4101 49.35 19.8 46.7662 22.0425 46.1625C25.3163 45.2775 28.6238 44.49 31.8825 43.5337C35.1525 42.5737 38.3475 41.4712 41.5876 40.425C42.6113 40.095 43.8 39.6937 44.4263 38.7525C45.1988 37.5937 44.9213 35.9812 44.5463 34.6125C43.7588 31.7587 42.6525 29.01 41.6625 26.2237C40.3688 22.5825 39.2925 18.8625 37.8113 15.2887C37.3463 14.1637 36.8663 13.05 36.3675 11.94C35.9701 11.055 35.7413 10.0875 35.2725 9.23625C34.545 7.93125 33.8738 7.725 32.46 8.24625C32.1113 8.3775 31.5075 8.65125 31.1475 8.43375C30.8738 8.26875 30.8251 7.8 30.7276 7.5225C30.5363 6.97875 30.3076 6.32625 29.9776 5.84625C29.8538 5.66625 29.7188 5.45625 29.58 5.29125C29.3925 5.07 28.2525 4.5375 26.3663 5.33625C25.9088 5.53125 20.3251 8.89125 20.3251 8.89125L6.4538 15.06ZM19.3125 42.165C13.7888 33.42 15.8588 18.5137 25.4738 8.5875C25.5826 8.535 26.5913 7.8225 26.8388 7.71375C27.6263 7.36125 28.1438 7.95375 28.4925 8.68875C28.7476 9.2325 34.6838 26.3062 36.1313 30.1837C36.3675 30.8137 36.9338 31.6387 36.6151 32.3325C36.2588 33.1087 34.8188 33.5925 34.1288 34.0162C33.2551 34.5487 32.3588 35.0437 31.455 35.52C29.67 36.4612 27.8513 37.3425 26.1038 38.3512C24.0038 39.5625 21.8776 40.71 19.7663 41.895C19.6163 41.9812 19.4663 42.075 19.3125 42.165ZM41.595 37.9125C41.3063 38.0362 40.9913 38.1225 40.7963 38.1975C36.7575 39.7463 32.5463 40.7625 28.3801 41.91C26.0513 42.5513 23.73 43.2337 21.4163 43.9237C21.0863 44.025 20.655 44.1637 20.175 44.3213C22.1588 43.2225 24.1538 42.1462 26.115 41.01C27.6 40.1512 29.1188 39.3638 30.6338 38.5612C32.4488 37.6012 34.2563 36.6225 35.9776 35.5012C36.7838 34.9725 37.8713 34.7137 38.4901 33.93C39.1275 33.1275 39.09 31.9612 38.805 31.0275C37.4438 26.6325 36.0751 22.2337 34.3576 17.9662C33.5438 15.9375 32.7263 13.9087 32.1038 11.8125C32.0063 11.49 31.905 11.13 31.8038 10.755C33.4725 9.80625 33.2663 10.4437 34.0275 12.1837C35.3063 15.105 36.4875 18 37.4475 21.0412C37.7363 21.945 38.0138 22.845 38.2951 23.7487C39.0601 26.2012 39.8288 28.6537 40.5938 31.1062C40.9463 32.2425 41.3025 33.3825 41.6625 34.5187C41.9701 35.535 42.99 37.32 41.595 37.9125Z" fill="#2F2F2F"/>
<path id="Vector_4" d="M16.9011 44.3512L20.5836 40.9275C24.9186 36.6937 30.6674 31.0013 31.9949 29.6175C33.8136 27.7238 33.2699 26.1787 32.4974 24.4762C32.3324 24.1087 22.8674 2.565 22.6386 2.08125C21.9299 0.596251 20.9849 -0.0824987 20.0699 0.187501C19.7624 0.277501 19.4774 0.408751 19.2074 0.570001C18.7649 0.836251 17.8386 1.6725 16.9949 2.4825C16.4436 3.0075 10.0124 10.7663 6.45361 15.06C6.45361 15.06 15.5061 42.96 15.8136 44.01C16.1211 45.0638 16.9011 44.3512 16.9011 44.3512Z" fill="#FCC21B"/>
<path id="Vector_5" d="M18.8626 13.2263C19.0651 13.0575 19.2901 12.8925 19.4813 12.7088C19.7738 12.4238 20.3288 11.94 20.2763 11.4975C20.2501 11.25 20.1226 11.055 19.9276 10.9538C19.8413 10.9088 19.7363 10.8825 19.6201 10.8788C18.9226 10.8675 18.1651 11.49 17.6776 11.9175C17.3401 12.21 16.9576 12.4575 16.6088 12.7313C15.8701 13.3125 15.2513 14.0475 14.5538 14.6813C13.9126 15.27 13.4138 15.9863 12.8438 16.635C12.2813 17.2725 11.6513 17.8388 11.1151 18.5025C10.9201 18.7425 10.7176 18.9375 10.7588 19.2638C10.8001 19.5863 11.0513 19.9763 11.3513 20.1113C11.8276 20.325 12.2476 19.71 12.5401 19.4438C14.7526 17.4525 16.5676 15.1388 18.8626 13.2263ZM20.8201 14.4413C20.1938 14.7375 19.5226 15.4725 19.2563 15.735C18.3526 16.6238 17.2313 17.4 16.3988 18.3338C15.8963 18.8963 15.3863 19.455 14.8238 19.9575C14.1826 20.5275 13.3538 21.0938 12.9038 21.8363C12.6188 22.3013 12.5251 23.1938 13.2001 23.385C14.0476 23.6288 14.4901 22.3875 15.0076 21.9375C15.7726 21.27 16.6313 20.7075 17.3588 19.9913C18.2176 19.14 19.0088 18.225 19.8676 17.37C20.3401 16.9013 22.0351 15.9075 22.0313 15.225C22.0313 14.9363 21.9413 14.7563 21.7538 14.535C21.5176 14.25 21.1763 14.2763 20.8201 14.4413Z" fill="#2F2F2F"/>
</g>
</svg>
