<svg width="32" height="32" viewBox="0 0 32 32" fill="none" xmlns="http://www.w3.org/2000/svg">
<g id="led-lamp 1" clip-path="url(#clip0_934_5550)">
<g id="Group">
<path id="Vector" d="M14.9625 0.0625267C12.7937 0.293776 10.7187 1.25628 9.13123 2.78128C7.73123 4.12503 6.80623 5.70003 6.34998 7.53753C6.09998 8.55628 6.04373 9.12503 6.08123 10.2875C6.13123 11.9625 6.24998 12.4063 7.19998 14.625C9.01248 18.8313 9.84998 21.3875 10.375 24.2875C10.475 24.8438 10.5937 25.3938 10.65 25.5188C10.7687 25.8063 11.2 26.275 11.4375 26.375L11.625 26.45V28.3188C11.625 29.5625 11.65 30.2813 11.7 30.4625C11.875 31.1125 12.4687 31.7063 13.1437 31.9063C13.6125 32.0438 18.3875 32.0438 18.8562 31.9063C19.5312 31.7063 20.125 31.1125 20.3 30.4625C20.35 30.2813 20.375 29.5625 20.375 28.3188V26.45L20.5625 26.375C20.8 26.275 21.2312 25.8063 21.35 25.5188C21.4062 25.3938 21.525 24.8438 21.625 24.2875C22.15 21.3875 22.975 18.8688 24.8 14.6188C25.55 12.8813 25.7 12.4188 25.8437 11.4688C25.9625 10.6875 25.9625 9.20003 25.85 8.50003C25.4687 6.20628 24.5062 4.35003 22.8687 2.78128C20.7562 0.756277 17.8562 -0.243725 14.9625 0.0625267ZM17.1875 1.02503C19.0812 1.28128 20.7875 2.09378 22.1625 3.39378C23.6562 4.80628 24.5812 6.54378 24.9125 8.56253C25.075 9.57503 25.0062 11.25 24.7562 12.1688C24.6687 12.4813 24.7125 12.4688 23.375 12.5625C20.55 12.7563 19.6875 12.7813 16 12.7813C12.3125 12.7813 11.45 12.7563 8.62498 12.5625C7.30623 12.4688 7.33123 12.475 7.24998 12.2C7.06248 11.525 6.98748 10.7125 7.01873 9.66253C7.06873 8.12503 7.30623 7.18128 7.98748 5.84378C9.71248 2.46253 13.4187 0.525026 17.1875 1.02503ZM9.24998 13.5313C13.5187 13.825 18.4812 13.825 22.8062 13.525C23.575 13.475 24.2187 13.4438 24.2312 13.4625C24.25 13.4813 24 14.125 23.6687 14.8875C22.0562 18.65 21.2687 21.1188 20.6875 24.2438C20.4875 25.2813 20.4187 25.4313 20.0187 25.6C19.7187 25.7313 12.2812 25.7313 11.9812 25.6C11.5812 25.4313 11.5125 25.2813 11.3125 24.2438C10.7312 21.1125 9.91248 18.55 8.28748 14.7813C7.99373 14.1 7.74998 13.5125 7.74998 13.4875C7.74998 13.425 7.67498 13.4188 9.24998 13.5313ZM19.4375 27V27.375H17.5625H15.6812L15.5312 27.5313C15.2875 27.7688 15.3312 28.0688 15.6312 28.2188C15.775 28.2938 16.15 28.3125 17.625 28.3125H19.4375V28.8125V29.3125H17.5625H15.6812L15.5312 29.4688C15.3312 29.6625 15.3312 29.9 15.5312 30.0938L15.6812 30.25H17.5312C18.5437 30.25 19.375 30.275 19.375 30.3063C19.375 30.45 19.0625 30.8 18.8125 30.9188C18.5375 31.0625 18.5062 31.0625 16 31.0625C13.4937 31.0625 13.4625 31.0625 13.1875 30.9188C12.9375 30.8 12.625 30.45 12.625 30.3063C12.625 30.275 12.8875 30.25 13.2125 30.25C13.7062 30.25 13.8187 30.2313 13.9625 30.1188C14.1875 29.9438 14.1875 29.6188 13.9625 29.4438C13.8187 29.3313 13.7062 29.3125 13.1812 29.3125H12.5625V28.8188V28.325L13.225 28.3C13.8312 28.2813 13.8937 28.2688 14.0062 28.1313C14.1625 27.9375 14.1562 27.7 13.9875 27.5188C13.8625 27.3875 13.8 27.375 13.2062 27.375H12.5625V27V26.625H16H19.4375V27Z" fill="#303033"/>
<path id="Vector_2" d="M11.1562 16.4063C11.0688 16.4875 11 16.625 11 16.7C11 17.025 12.3062 22.7 12.4062 22.8125C12.55 22.9688 12.7 23 12.925 22.9C13.05 22.85 13.1375 22.7625 13.1625 22.65C13.1938 22.5313 13.0063 21.5563 12.5562 19.5313C11.9688 16.8688 11.8938 16.575 11.7375 16.4188C11.5312 16.2063 11.35 16.2063 11.1562 16.4063Z" fill="#303033"/>
<path id="Vector_3" d="M14.2625 16.3125C13.975 16.4313 13.975 16.4875 14.2125 19.65C14.3375 21.2875 14.4625 22.6813 14.5 22.7438C14.5875 22.9188 14.8875 23.0063 15.0687 22.9125C15.3812 22.7625 15.3812 22.7375 15.15 19.625C15.0312 18.025 14.9062 16.6438 14.8687 16.5563C14.8312 16.4625 14.7312 16.3625 14.65 16.3188C14.4687 16.2375 14.4562 16.2375 14.2625 16.3125Z" fill="#303033"/>
<path id="Vector_4" d="M17.2687 16.325C17.1937 16.3625 17.1062 16.4625 17.0687 16.5563C17.0312 16.6438 16.9062 18.025 16.7875 19.625C16.5562 22.7375 16.5562 22.7625 16.8687 22.9125C17.05 23.0063 17.35 22.9188 17.4375 22.7438C17.4875 22.6563 17.9375 17.1938 17.9375 16.6938C17.9375 16.4063 17.5437 16.1875 17.2687 16.325Z" fill="#303033"/>
<path id="Vector_5" d="M20.1999 16.4188C20.0437 16.575 19.9687 16.8688 19.3812 19.5313C18.9312 21.5563 18.7437 22.5313 18.7749 22.65C18.7999 22.7625 18.8874 22.85 19.0124 22.9C19.2374 23 19.3874 22.9688 19.5312 22.8125C19.6312 22.7 20.9374 17.025 20.9374 16.7C20.9374 16.5188 20.6749 16.25 20.4999 16.25C20.4249 16.25 20.2874 16.325 20.1999 16.4188Z" fill="#303033"/>
</g>
</g>
<defs>
<clipPath id="clip0_934_5550">
<rect width="32" height="32" fill="white"/>
</clipPath>
</defs>
</svg>
