<svg width="48" height="48" viewBox="0 0 48 48" fill="none" xmlns="http://www.w3.org/2000/svg">
<g id="noto:balloon">
<path id="Vector" d="M28.4512 38.2875C29.5762 40.125 27.5587 42.0825 29.1449 43.5038C32.0849 46.1288 35.6849 38.985 40.2037 46.3125" stroke="#64B5F6" stroke-width="3" stroke-miterlimit="10"/>
<path id="Vector_2" d="M27.9376 40.08L30.0488 39.705C30.2138 39.6765 30.3698 39.6098 30.5043 39.5102C30.6389 39.4106 30.7483 39.2809 30.8237 39.1315C30.8992 38.9821 30.9386 38.8171 30.9388 38.6497C30.939 38.4823 30.9001 38.3171 30.8251 38.1675C30.1421 36.8169 29.2284 35.596 28.1251 34.56C27.9601 35.6437 27.3151 37.3275 26.7676 38.61C26.6924 38.7871 26.6664 38.9812 26.6924 39.1719C26.7184 39.3625 26.7953 39.5426 26.9152 39.6932C27.035 39.8437 27.1932 39.9591 27.3732 40.0272C27.5531 40.0953 27.7481 40.1135 27.9376 40.08Z" fill="#F44336"/>
<path id="Vector_3" d="M10.0716 19.2114L10.0689 19.2117C8.27636 11.695 12.91 4.14864 20.4266 2.35003C27.9469 0.55052 35.4995 5.18501 37.299 12.7051C38.5807 18.0792 37.3402 23.4583 35.235 27.6337C34.1834 29.7194 32.923 31.4903 31.6718 32.7967C30.4081 34.1162 29.2 34.9141 28.2636 35.1388C27.3152 35.3664 25.8822 35.2481 24.1806 34.7116C22.4927 34.1794 20.5909 33.2512 18.7274 31.9221C15.0008 29.2644 11.4598 25.0283 10.0716 19.2114Z" fill="#F44336" stroke="black"/>
<path id="Vector_4" d="M27.5364 36.7913L29.4714 36.33C30.0826 36.1837 30.4614 35.5725 30.3151 34.9613C30.1689 34.35 29.5576 33.9713 28.9464 34.1175L27.0001 34.5787C26.3889 34.725 26.0101 35.3363 26.1564 35.9475C26.3026 36.5588 26.9139 36.9375 27.5251 36.7913H27.5364Z" fill="#C62828"/>
<path id="Vector_5" d="M29.355 5.04C27.8287 4.11 25.6425 3.49125 24.405 5.24625C23.745 6.18 24.3675 7.9275 25.7287 8.32125C28.0312 8.9925 28.4325 9.82125 28.9012 10.4925C29.4675 11.28 30.0037 12.2662 30.96 12.42C31.9162 12.5737 32.46 11.8537 32.4187 10.4662C32.4112 8.24625 31.2525 6.19125 29.355 5.04Z" fill="#FF847A"/>
</g>
</svg>
