<svg width="48" height="48" viewBox="0 0 48 48" fill="none" xmlns="http://www.w3.org/2000/svg">
<g id="noto:soap">
<path id="Vector" opacity="0.7" d="M19.9914 5.385C23.6364 5.385 27.3339 7.86 27.3339 11.505C27.3339 15.15 23.6327 18.5775 19.9914 18.5775C18.0302 18.5775 15.5964 17.9812 14.3852 16.62C14.3852 16.62 13.2939 15.18 13.3914 11.9813C13.5077 8.34 16.3502 5.385 19.9914 5.385Z" fill="url(#paint0_radial_985_6362)"/>
<path id="Vector_2" opacity="0.7" d="M12.8589 20.2313C15.2986 20.2313 17.2764 18.2535 17.2764 15.8137C17.2764 13.374 15.2986 11.3962 12.8589 11.3962C10.4192 11.3962 8.44141 13.374 8.44141 15.8137C8.44141 18.2535 10.4192 20.2313 12.8589 20.2313Z" fill="url(#paint1_radial_985_6362)"/>
<path id="Vector_3" d="M25.6386 40.5562C29.4107 38.4533 33.7678 35.5723 38.0202 32.7605C38.5829 32.3885 39.1437 32.0177 39.7011 31.65C40.7886 30.9338 42.5961 29.5463 43.5636 28.6725L25.6386 40.5562ZM25.6386 40.5562C21.6111 42.8025 18.1536 43.395 14.7786 41.3962L25.6386 40.5562ZM4.81957 20.7236L4.81968 20.7235C5.40308 20.1522 6.39929 19.5812 7.75461 19.0334C9.09935 18.4899 10.7545 17.986 12.6168 17.5293C16.3405 16.616 20.8527 15.9004 25.2811 15.4273C29.7094 14.9543 34.0382 14.7254 37.3931 14.7812C39.0724 14.8091 40.4937 14.9081 41.5562 15.0795C42.0881 15.1653 42.5156 15.267 42.8346 15.3805C43.1681 15.4992 43.3217 15.6099 43.3759 15.6743L43.3761 15.6745C43.9959 16.4107 44.6408 17.4048 45.137 18.4437C45.6365 19.4897 45.9641 20.5374 45.9926 21.388C46.0926 24.4377 44.9055 26.7827 43.2285 28.3014C42.281 29.1571 40.4938 30.5292 39.4261 31.2324L39.4258 31.2326C38.8678 31.6007 38.3067 31.9717 37.7442 32.3436C33.489 35.1572 29.1494 38.0265 25.3951 40.1195L25.3951 40.1196C21.4401 42.3254 18.1882 42.8344 15.0334 40.966L15.0333 40.966C14.9882 40.9393 14.9353 40.908 14.8752 40.8725C13.5364 40.0819 8.60703 37.1706 5.59237 34.6596L5.59181 34.6591C4.45513 33.7151 3.53459 32.3035 2.90759 30.7931C2.28043 29.2824 1.96661 27.7203 2.00339 26.5051L2.00341 26.5044C2.05158 24.8285 3.14474 22.3626 4.81957 20.7236Z" fill="#F47FAC" stroke="black"/>
<path id="Vector_4" d="M39.4986 22.7925C39.5908 22.7318 39.6893 22.6673 39.7928 22.5995C40.9109 21.8674 42.6198 20.7485 43.3611 19.815C45.7723 16.7888 43.3948 14.3738 40.7473 12.2775L39.4986 22.7925ZM39.4986 22.7925C38.9412 23.1601 38.3804 23.531 37.8177 23.903C33.5653 26.7148 29.2082 29.5958 25.4361 31.6987L39.4986 22.7925ZM6.06734 19.7084C12.1848 15.71 24.1987 8.91874 26.3646 7.92444C27.2193 7.53226 28.169 7.26521 29.3754 7.3221C30.5897 7.37937 32.0966 7.76654 34.057 8.73572L34.0597 8.73703L34.0597 8.73705L6.06734 19.7084Z" fill="#F47FAC" stroke="black"/>
<path id="Vector_5" d="M6.83606 19.3275C12.5698 15.5813 23.9436 9.23625 26.0023 8.295C27.7086 7.515 29.8573 7.2075 33.6036 9.06C33.6036 9.06 37.0761 10.7513 39.6561 12.7913C42.1348 14.7525 44.3586 17.01 42.1011 19.845C41.3436 20.8013 39.5023 21.96 38.4861 22.6313C34.0236 25.575 29.3248 28.7362 25.3273 30.9638C21.5586 33.0638 18.3223 33.6187 15.1648 31.7512C14.1936 31.1737 9.41231 28.08 6.26981 25.8075C2.73731 23.2575 4.94981 20.5575 6.83606 19.3275Z" fill="#FFB6C1"/>
<path id="Vector_6" d="M3.01854 26.6813C2.72604 27.1125 2.63979 27.7088 2.62854 28.2563C2.53854 32.685 7.97979 35.835 11.2085 38.0925C12.8135 39.2175 14.4485 40.1588 16.4773 40.1213C17.2423 40.1063 18.0373 39.8588 18.5548 39.2925C19.2673 38.5088 19.2973 37.335 19.2485 36.2738C19.226 35.8088 19.181 35.3025 18.8585 34.9688C18.6485 34.755 18.3523 34.6463 18.071 34.5413C15.3223 33.5138 9.43854 29.4863 6.67479 27.4725C5.69229 26.76 4.15104 25.0088 3.01854 26.6813ZM43.0685 20.1038C42.7573 20.5538 42.3448 20.9625 42.221 21.495C42.0523 22.23 42.4873 22.9538 42.671 23.685C42.9073 24.6375 42.7235 25.6763 43.0835 26.5875C43.1473 26.7488 43.2448 26.9175 43.406 26.9812C43.6648 27.0787 43.931 26.865 44.1073 26.6513C44.9735 25.6088 45.6823 23.8125 45.7048 22.4588C45.7198 21.4538 45.356 19.5713 44.7035 18.75C43.9123 17.7563 43.4623 19.53 43.0685 20.1038Z" fill="#FF97AB"/>
<path id="Vector_7" d="M8.03642 31.9613C7.87142 31.56 7.52266 31.2563 7.15141 31.035C7.06141 30.9825 6.96766 30.93 6.90391 30.8475C6.74641 30.6488 6.81016 30.3675 6.80266 30.1163C6.78391 29.5763 6.35641 29.0813 5.82391 28.9838C5.56891 28.9388 5.27266 28.9838 5.10766 29.1863C4.68766 29.7113 5.06266 30.4313 5.34016 30.675C5.50891 30.8213 5.95891 30.9075 5.87642 31.305C5.86142 31.3763 5.82766 31.44 5.79766 31.5038C5.66213 31.7936 5.6368 32.1229 5.72642 32.43C5.89517 32.9963 6.42391 33.3113 6.99016 33.3638C7.27141 33.39 7.57517 33.3375 7.79267 33.1613C8.13767 32.88 8.20142 32.3625 8.03642 31.9613Z" fill="#FFB6C1"/>
<path id="Vector_8" d="M20.7038 38.7862C21.0751 38.8612 21.4276 39.1575 21.4463 39.5362C21.4613 39.8212 21.2888 40.095 21.0601 40.2637C20.8313 40.4362 19.7663 41.1825 18.6938 40.47C18.5251 40.3575 18.4351 40.155 18.3038 39.9975C18.1726 39.84 17.9926 39.7012 17.7901 39.705C16.8526 39.7162 17.3663 38.55 18.1763 38.9062C18.4876 39.045 18.7276 39.1725 19.0801 39.1012C19.6351 38.9925 20.1113 38.6662 20.7038 38.7862ZM24.1613 35.0587C23.8126 35.3587 23.5463 35.7562 23.4038 36.1912C23.3401 36.3862 23.3063 36.6225 23.4413 36.7762C23.5538 36.9075 23.7488 36.9337 23.9213 36.9225C24.4276 36.8962 24.9076 36.6525 25.2976 36.33C25.6688 36.0225 26.3063 35.1675 25.7063 34.7587C25.2676 34.4625 24.5063 34.7625 24.1613 35.0587Z" fill="#FF97AB"/>
<path id="Vector_9" d="M19.9914 5.385C23.6364 5.385 27.3339 7.86 27.3339 11.505C27.3339 15.15 23.6327 18.5775 19.9914 18.5775C18.0302 18.5775 15.5964 17.9812 14.3852 16.62C14.3852 16.62 13.2939 15.18 13.3914 11.9813C13.5077 8.34 16.3502 5.385 19.9914 5.385Z" fill="url(#paint2_radial_985_6362)"/>
<path id="Vector_10" d="M28.6389 35.715C29.5652 33.06 32.2352 33.5775 32.2352 33.5775C34.7064 33.8138 35.7827 37.8225 35.7827 37.8225C35.7827 37.8225 33.6377 40.7663 30.2664 39.6413C28.5714 39.0713 28.0089 37.5225 28.6389 35.715Z" fill="url(#paint3_radial_985_6362)"/>
<path id="Vector_11" d="M32.2652 33.5775C32.9364 29.6738 35.9027 27.57 39.4614 27.96C41.3289 28.1662 43.3502 31.1962 42.2477 34.59C41.3027 37.4962 37.8902 38.3025 35.7864 37.8187C32.0814 36.975 32.2652 33.5775 32.2652 33.5775Z" fill="url(#paint4_radial_985_6362)"/>
<path id="Vector_12" d="M37.9688 25.9425C39.6505 25.9425 41.0138 24.5792 41.0138 22.8975C41.0138 21.2158 39.6505 19.8525 37.9688 19.8525C36.2871 19.8525 34.9238 21.2158 34.9238 22.8975C34.9238 24.5792 36.2871 25.9425 37.9688 25.9425Z" fill="url(#paint5_radial_985_6362)"/>
<path id="Vector_13" opacity="0.9" d="M21.615 6.825C22.5938 7.19625 23.4488 7.9575 23.805 8.94375C24.0113 9.5175 23.9925 10.2675 23.49 10.6125C23.175 10.8262 22.56 10.965 21.3225 10.05C19.3763 8.61 18.8325 9.8625 17.0963 9.43875C15.75 9.1125 16.3613 8.01 16.6013 7.7325C17.775 6.37125 20.04 6.225 21.615 6.825ZM9.71627 15.2625C9.87752 15.36 10.0913 15.3075 10.2525 15.2063C10.62 14.9812 10.4963 14.3625 11.2313 13.6875C11.3663 13.5637 11.865 13.0763 11.5425 12.75C11.1188 12.3225 10.3313 12.6412 9.83252 13.305C9.27377 14.055 9.20252 14.955 9.71627 15.2625Z" fill="white"/>
<path id="Vector_14" d="M25.8827 15.405C25.8827 15.405 24.7914 14.235 25.0014 11.3962C25.1552 9.32625 26.3702 8.385 26.3702 8.385C26.3702 8.385 29.7977 7.84875 31.4927 9.69C32.8502 11.1637 32.5502 13.0763 30.9002 14.2987C28.3802 16.1625 25.8827 15.405 25.8827 15.405Z" fill="url(#paint6_radial_985_6362)"/>
<path id="Vector_15" d="M20.3251 18.2287C20.5539 19.4662 19.7701 21.1387 18.3226 21.975C16.5864 22.9762 13.4439 22.455 12.6376 20.9587C11.9964 19.7662 11.7864 16.1325 14.8501 14.9925C18.9864 13.4437 20.2764 17.9812 20.3251 18.2287Z" fill="url(#paint7_radial_985_6362)"/>
<path id="Vector_16" d="M23.7148 20.7263C21.9636 22.6088 19.3123 21.165 19.3123 21.165C17.7711 18.7612 19.2448 16.0875 19.2448 16.0875C19.2448 16.0875 22.9873 15.0713 24.2698 17.0438C24.2736 17.0475 25.5298 18.78 23.7148 20.7263Z" fill="url(#paint8_radial_985_6362)"/>
<path id="Vector_17" opacity="0.9" d="M16.0049 16.7587C15.9936 16.9987 15.8511 17.2087 15.7161 17.4037L14.8199 18.6825C14.6811 18.8812 14.2649 19.575 13.6611 19.3387C13.4624 19.26 13.3349 19.065 13.2636 18.8625C12.9899 18.0937 13.3649 16.8375 14.0774 16.2262C14.7786 15.6225 16.0461 15.8325 16.0049 16.7587ZM37.9724 20.7825C38.1861 20.8875 38.3436 21.1275 38.2949 21.3637C38.2386 21.645 37.9386 21.795 37.7024 21.96C37.4774 22.1137 37.2824 22.305 37.1286 22.53C37.0274 22.6762 36.9411 22.8375 36.8211 22.9725C36.7011 23.1075 36.5361 23.2162 36.3561 23.2125C36.1874 23.2087 36.0299 23.1075 35.9361 22.9725C35.2161 21.915 36.9149 20.2612 37.9724 20.7825Z" fill="white"/>
<path id="Vector_18" opacity="0.43" d="M32.2649 33.5775C32.2649 33.5775 33.6299 33.6487 34.6049 35.2575C35.4599 36.6637 35.7824 37.8225 35.7824 37.8225C35.7824 37.8225 34.0237 37.5112 33.0487 36.1162C32.1974 34.8937 32.2649 33.5775 32.2649 33.5775Z" fill="#80DEEA"/>
<path id="Vector_19" opacity="0.5" d="M13.5898 14.505C13.5898 14.505 13.2636 12.945 13.4361 11.4338C13.4361 11.4338 14.3211 11.52 15.0598 11.9813C15.9261 12.525 16.2336 12.96 16.2336 12.96L13.5898 14.505Z" fill="#80DEEA"/>
<path id="Vector_20" opacity="0.8" d="M26.6286 9.49875C26.0848 9.9 25.6873 10.3762 25.6461 11.0512C25.6311 11.2762 25.6686 11.5275 25.8373 11.6737C26.4636 12.2025 27.0336 11.1075 28.0423 10.965C29.8161 10.7175 29.5348 9.64875 28.6573 9.28125C28.0723 9.03375 27.3373 8.9775 26.6286 9.49875ZM38.1298 29.04C39.2061 29.4938 38.7823 30.435 38.4186 30.5363C37.1736 30.8888 36.9673 31.4513 36.6523 31.695C36.3373 31.9425 35.9848 32.1638 35.5911 32.2275C35.1973 32.2913 34.7473 32.16 34.5298 31.8263C34.0536 31.095 34.8336 30.135 35.3661 29.655C36.1048 28.9875 37.1886 28.6425 38.1298 29.04ZM31.8448 34.29C33.4423 34.29 33.6748 35.2275 33.6186 35.4225C33.4423 36.0375 32.7373 35.8088 32.5236 35.79C32.1898 35.7638 31.8523 35.79 31.5261 35.8687C31.2823 35.9287 31.0423 36.0187 30.7911 36.0337C30.2511 36.0712 29.7748 35.5875 30.0786 35.0662C30.3561 34.59 31.3536 34.29 31.8448 34.29Z" fill="white"/>
</g>
<defs>
<radialGradient id="paint0_radial_985_6362" cx="0" cy="0" r="1" gradientUnits="userSpaceOnUse" gradientTransform="translate(20.7062 13.1592) scale(8.39363 8.46833)">
<stop offset="0.522" stop-color="#80DEEA" stop-opacity="0"/>
<stop offset="1" stop-color="#80DEEA"/>
</radialGradient>
<radialGradient id="paint1_radial_985_6362" cx="0" cy="0" r="1" gradientUnits="userSpaceOnUse" gradientTransform="translate(13.4285 16.4087) scale(4.33688 4.37547)">
<stop offset="0.545" stop-color="#80DEEA" stop-opacity="0"/>
<stop offset="1" stop-color="#80DEEA"/>
</radialGradient>
<radialGradient id="paint2_radial_985_6362" cx="0" cy="0" r="1" gradientUnits="userSpaceOnUse" gradientTransform="translate(18.8882 9.84134) scale(8.01263 8.08394)">
<stop offset="0.601" stop-color="white" stop-opacity="0"/>
<stop offset="1" stop-color="white" stop-opacity="0.8"/>
</radialGradient>
<radialGradient id="paint3_radial_985_6362" cx="0" cy="0" r="1" gradientUnits="userSpaceOnUse" gradientTransform="translate(32.0867 36.7151) scale(3.44812)">
<stop offset="0.376" stop-color="#80DEEA" stop-opacity="0"/>
<stop offset="1" stop-color="#80DEEA" stop-opacity="0.8"/>
</radialGradient>
<radialGradient id="paint4_radial_985_6362" cx="0" cy="0" r="1" gradientUnits="userSpaceOnUse" gradientTransform="translate(37.1687 32.637) scale(5.59913)">
<stop offset="0.376" stop-color="#80DEEA" stop-opacity="0"/>
<stop offset="1" stop-color="#80DEEA" stop-opacity="0.8"/>
</radialGradient>
<radialGradient id="paint5_radial_985_6362" cx="0" cy="0" r="1" gradientUnits="userSpaceOnUse" gradientTransform="translate(38.0195 22.9076) scale(2.91938)">
<stop offset="0.557" stop-color="white" stop-opacity="0"/>
<stop offset="1" stop-color="white" stop-opacity="0.8"/>
</radialGradient>
<radialGradient id="paint6_radial_985_6362" cx="0" cy="0" r="1" gradientUnits="userSpaceOnUse" gradientTransform="translate(28.4417 11.5637) scale(3.5835 3.61539)">
<stop offset="0.557" stop-color="white" stop-opacity="0"/>
<stop offset="1" stop-color="white" stop-opacity="0.8"/>
</radialGradient>
<radialGradient id="paint7_radial_985_6362" cx="0" cy="0" r="1" gradientUnits="userSpaceOnUse" gradientTransform="translate(16.2227 18.5972) rotate(-30.0016) scale(4.43035 3.59732)">
<stop offset="0.557" stop-color="white" stop-opacity="0"/>
<stop offset="1" stop-color="white" stop-opacity="0.8"/>
</radialGradient>
<radialGradient id="paint8_radial_985_6362" cx="0" cy="0" r="1" gradientUnits="userSpaceOnUse" gradientTransform="translate(21.5773 18.7451) scale(2.93438 2.96049)">
<stop offset="0.557" stop-color="white" stop-opacity="0"/>
<stop offset="1" stop-color="white" stop-opacity="0.8"/>
</radialGradient>
</defs>
</svg>
