<svg width="48" height="48" viewBox="0 0 48 48" fill="none" xmlns="http://www.w3.org/2000/svg">
<g id="noto:paintbrush">
<path id="Vector" d="M15.2196 32.0444L15.22 32.0442C15.8851 31.603 16.2449 31.6569 16.445 31.7641C16.6981 31.8997 16.9295 32.2359 17.1104 32.7563C17.2841 33.2564 17.3772 33.8275 17.4259 34.2864C17.4475 34.4904 17.46 34.6677 17.4672 34.8008C16.1799 35.7954 15.8351 37.092 15.4917 38.3836L15.4827 38.4173L15.4827 38.4174C15.1161 39.7958 14.7268 41.2596 13.3189 42.7945C10.892 45.4398 7.27529 45.2084 4.59836 44.6276L4.59758 44.6274C3.78189 44.4518 2.89634 43.8887 2.18303 43.3263C1.91827 43.1175 1.6853 42.9153 1.49817 42.7449C1.68998 42.6345 1.91101 42.4982 2.13948 42.3387C2.78028 41.8914 3.58928 41.1876 3.85457 40.2847L3.85476 40.284C4.40468 38.4029 4.80982 37.207 5.23407 36.5537C6.59346 34.4622 8.23113 33.8446 9.94664 33.5055C10.3661 33.4226 10.7874 33.3571 11.2166 33.2903L11.2682 33.2822C11.7115 33.2132 12.1636 33.1421 12.6086 33.0499C13.5001 32.8652 14.3953 32.5902 15.2196 32.0444Z" fill="#F09300" stroke="black"/>
<path id="Vector_2" d="M12.7201 32.5575C12.4201 32.82 12.3413 33.255 12.3526 33.6525C12.4013 35.1637 13.6088 36.5587 15.0976 36.8175C15.7013 36.9225 16.4063 36.8212 16.7776 36.3337C17.1938 35.79 17.0363 35.0025 16.7438 34.3837C16.4213 33.705 15.9601 33.0937 15.3901 32.6062" fill="#C67100"/>
<path id="Vector_3" d="M26.1351 27.7692L24.6494 29.2975C24.6384 29.2939 24.6272 29.2901 24.6156 29.2862C24.4152 29.2185 24.1209 29.1055 23.7606 28.928C23.0405 28.5733 22.0566 27.9607 21.0311 26.9352C19.9929 25.897 19.663 25.2223 19.5665 24.8592C19.5193 24.6815 19.528 24.5797 19.5344 24.5417C19.5349 24.5387 19.5354 24.5359 19.5359 24.5335C19.5394 24.5284 19.5433 24.5227 19.5476 24.5165C19.5741 24.4786 19.6154 24.4203 19.6724 24.3425C19.7865 24.1869 19.9634 23.9531 20.2107 23.6464C20.7054 23.0331 21.4818 22.1287 22.6 20.9771L22.6 20.977C32.6136 10.6602 40.9406 4.46927 43.4712 2.98909L43.4715 2.98893C44.3391 2.4807 44.8638 2.49693 45.1277 2.5656C45.266 2.60161 45.3587 2.65833 45.4126 2.69965C45.4399 2.72054 45.4574 2.73764 45.4656 2.74623C45.4667 2.74741 45.4677 2.74841 45.4685 2.74924L45.5057 2.79927L45.5507 2.83257C45.5561 2.8381 45.5667 2.8497 45.5802 2.86804C45.6116 2.91091 45.6623 2.99535 45.6975 3.13442C45.7668 3.40837 45.7899 3.95444 45.3755 4.88965C44.8305 6.11027 43.063 8.70363 39.8813 12.5839C36.7135 16.4473 32.1764 21.548 26.1351 27.7692Z" fill="#1565C0" stroke="black"/>
<path id="Vector_4" d="M21.4316 27.606L21.4319 27.6064C22.5246 28.6665 23.3652 29.2838 23.9454 29.6397C24.0639 29.7124 24.1717 29.7742 24.2685 29.8266C24.137 29.9908 23.9838 30.1602 23.8275 30.2899C23.4985 30.5617 23.2227 30.7082 23.0402 30.7855C22.9486 30.8242 22.8798 30.8459 22.8386 30.8571C22.8179 30.8628 22.8042 30.8658 22.798 30.8671C22.7973 30.8672 22.7967 30.8674 22.7962 30.8675L22.661 30.8873L22.552 30.9796L16.7395 35.9008C16.7254 35.9055 16.7071 35.911 16.6845 35.9165C16.6042 35.9359 16.4666 35.9555 16.2754 35.9325C15.8984 35.8871 15.2573 35.6681 14.4034 34.8388L14.4031 34.8385C13.5473 34.009 13.31 33.3755 13.2539 33.0014C13.2255 32.8116 13.2413 32.6742 13.2584 32.5939C13.2632 32.5712 13.2683 32.5528 13.2726 32.5387L18.027 26.5845L18.1161 26.4729L18.1321 26.3373C18.1322 26.3368 18.1323 26.3361 18.1325 26.3354C18.1336 26.329 18.1363 26.3151 18.1413 26.2942C18.1515 26.2525 18.1711 26.1829 18.2073 26.0902C18.2793 25.9052 18.4177 25.6255 18.6793 25.29C18.8041 25.1302 18.9688 24.9721 19.1291 24.8359C19.1842 24.9309 19.249 25.0365 19.3249 25.1526C19.6973 25.722 20.3389 26.544 21.4316 27.606Z" fill="#BDBDBD" stroke="black"/>
<path id="Vector_5" d="M20.6736 27.285C20.6661 27.2925 20.6624 27.3 20.6549 27.3075C20.5236 27.4575 20.2948 27.4612 20.0961 27.4237C19.3761 27.285 18.8774 26.805 18.6186 26.145C18.4986 25.8337 18.4761 25.4737 18.6223 25.1737C18.8886 24.6337 19.2786 24.9975 19.5786 25.2975C19.9583 25.6797 20.2918 26.1051 20.5724 26.565C20.6398 26.6775 20.7074 26.7975 20.7336 26.9287C20.7599 27.0525 20.7486 27.1875 20.6736 27.285Z" fill="#EEEEEE"/>
<path id="Vector_6" d="M23.0965 22.335C23.7715 23.8387 29.4715 17.9175 30.9152 16.38C31.6352 15.615 36.6115 11.1375 35.4865 10.95C34.3615 10.7625 31.8002 12.9675 30.9527 13.6425C29.2577 14.9887 27.0865 17.115 25.4102 18.8625C24.589 19.7137 22.8415 21.7688 23.0965 22.335Z" fill="#2196F3"/>
<path id="Vector_7" d="M16.3989 28.8525C16.5527 28.6912 16.7364 28.515 16.9764 28.515C17.2014 28.515 17.3889 28.6725 17.5427 28.8225C18.0489 29.3175 18.5177 30.0038 18.2439 30.6225C18.1314 30.8738 17.9139 31.0687 17.7002 31.2562L15.1952 33.4687C14.6927 33.9112 14.2164 33.3337 14.0289 32.8912C13.8602 32.4862 13.9877 32.1637 14.2052 31.8075C14.8314 30.7612 15.5514 29.7562 16.3989 28.8525Z" fill="#EEEEEE"/>
<path id="Vector_8" d="M22.3052 30.9825C22.3915 31.0425 22.4852 31.125 22.474 31.2262C22.4672 31.2649 22.4504 31.3011 22.4252 31.3312C22.2265 31.605 21.8252 31.6612 21.5027 31.5525C21.184 31.4437 20.9252 31.2075 20.6777 30.9787C19.7365 30.0937 18.8065 29.175 18.1315 28.0725C18.0265 27.9037 17.4827 26.925 17.8577 26.8312C18.0977 26.7712 18.6377 27.6412 18.7915 27.8212C19.4603 28.5863 20.1861 29.2996 20.9627 29.955C21.3977 30.315 21.844 30.66 22.3052 30.9825Z" fill="#9E9E9E"/>
<path id="Vector_9" d="M13.6839 43.1325C13.6839 43.1325 10.0877 45.15 6.26268 44.58C6.26268 44.58 9.28893 44.0288 10.5714 39.93C10.5714 39.93 7.65768 42.9638 5.02518 43.17C5.02518 43.17 7.53768 41.8613 7.69893 37.8938C6.35643 40.2863 5.47518 41.4825 3.33768 42.2063C5.63643 39.735 4.80018 36.3 4.80018 36.3C4.33143 37.0313 3.91143 38.295 3.37143 40.14C2.94393 41.595 0.648926 42.6188 0.648926 42.6188C0.648926 42.6188 2.62518 44.7113 4.48893 45.1125C7.18518 45.7013 11.0627 45.99 13.6839 43.1325Z" fill="#C67100"/>
</g>
</svg>
