<svg width="48" height="48" viewBox="0 0 48 48" fill="none" xmlns="http://www.w3.org/2000/svg">
<g id="noto:package" clip-path="url(#clip0_985_6408)">
<path id="Vector" d="M23.6814 2.25942L23.6915 2.25421L23.7014 2.24855C23.8484 2.1641 24.0317 2.15267 24.445 2.30463L24.4504 2.30703L24.5104 2.33388C24.5638 2.35784 24.6438 2.39392 24.7497 2.44208C24.9614 2.5384 25.2764 2.68302 25.6881 2.87559C26.5116 3.26072 27.7218 3.83763 29.2663 4.60343C32.3553 6.13505 36.7806 8.42209 42.1212 11.4415L42.1221 11.442C42.8395 11.8458 43.2536 12.1506 43.6706 12.4963C43.7473 12.5609 43.8339 12.6373 43.9125 12.7214C43.994 12.8087 44.0496 12.8862 44.0786 12.9479L44.0809 12.9526C44.0808 12.9523 44.0818 12.9544 44.0837 12.9594C44.0856 12.9643 44.088 12.9711 44.0907 12.9799C44.0964 12.9979 44.1025 13.0209 44.1087 13.0488C44.1212 13.1051 44.1314 13.1699 44.1393 13.2346C44.1471 13.2985 44.1521 13.3572 44.1552 13.3999C44.1559 13.4101 44.1565 13.4193 44.157 13.4273C44.1575 13.436 44.1579 13.4433 44.1582 13.449L44.1585 13.4552C44.1585 13.5096 44.1579 13.5571 44.1569 13.5983L24.0351 23.7764L3.86572 13.4335L3.84474 13.0537C3.84406 12.821 3.87178 12.6738 3.91543 12.5733C3.95278 12.4873 4.01225 12.4106 4.13506 12.3361L23.6814 2.25942Z" fill="#DEA66C" stroke="black"/>
<path id="Vector_2" d="M3.92832 35.6429L3.92834 35.6429L3.92382 35.64C3.88446 35.6146 3.86144 35.589 3.85032 35.5717C3.84108 35.5572 3.84127 35.5512 3.84131 35.5501L3.84131 35.55V13.125C3.84131 13.1025 3.84648 13.0936 3.84811 13.091C3.85056 13.0869 3.85606 13.0802 3.86825 13.0735C3.89381 13.0595 3.94206 13.0505 3.99857 13.077C5.07533 13.6016 6.11724 14.1839 7.19834 14.7978C7.33879 14.8775 7.47992 14.9578 7.62184 15.0385C8.57002 15.578 9.55391 16.1377 10.6089 16.6915L10.6091 16.6916C13.1432 18.0206 15.6787 19.3155 17.5802 20.278C18.5311 20.7593 19.3236 21.1576 19.8786 21.4356C20.156 21.5746 20.3741 21.6835 20.5229 21.7577L20.6928 21.8424L20.7364 21.8641L20.7475 21.8696L20.7503 21.871L20.751 21.8714L20.7512 21.8715L20.9738 21.4238L20.7513 21.8715L20.7578 21.8747L20.7644 21.8778L20.7644 21.8778L20.7646 21.8779L20.7652 21.8782L20.7681 21.8795L20.7798 21.8849L20.8258 21.9063C20.8659 21.9251 20.9242 21.9524 20.9963 21.9866C21.1406 22.0549 21.3398 22.1505 21.5593 22.2591C22.0047 22.4795 22.5099 22.7419 22.8179 22.939C23.0153 23.0672 23.1701 23.1857 23.2898 23.3697C23.4077 23.5511 23.5191 23.8409 23.534 24.348C23.5509 24.9384 23.7027 30.4074 23.8504 35.7293L24.0513 42.9729L24.1168 45.3335L24.1308 45.8403C24.1135 45.8427 24.1041 45.8431 24.1018 45.8431C24.1011 45.8432 24.101 45.8432 24.1013 45.8432L24.101 45.8432C23.904 45.8329 23.7244 45.7807 23.314 45.6106L23.3126 45.61C20.2667 44.3582 14.1107 41.1543 9.21578 38.5041C8.46572 38.0977 7.71606 37.7089 7.0153 37.3455C6.72943 37.1973 6.45169 37.0533 6.18539 36.914C5.25703 36.4284 4.47381 36.0036 3.92832 35.6429Z" fill="#B38251" stroke="black"/>
<path id="Vector_3" d="M24.5337 24.342V24.3413C24.5337 24.2021 24.5137 24.0091 24.4885 23.8383C24.4644 23.6752 24.4277 23.4783 24.3793 23.3394C24.3571 23.2723 24.3608 23.241 24.3616 23.2354C24.3622 23.2309 24.3628 23.2288 24.3671 23.223C24.3734 23.2144 24.3874 23.1997 24.4143 23.181C24.4412 23.1621 24.4714 23.1458 24.5085 23.1272L24.5086 23.1272L24.5139 23.1245L43.7663 13.2096C43.945 13.1176 44.1587 13.2496 44.1587 13.4475V35.2688C44.1587 35.4658 44.0476 35.6517 43.8633 35.7469C43.8632 35.7469 43.8632 35.7469 43.8631 35.7469L24.5 45.7315L24.5337 24.342Z" fill="#966239" stroke="black"/>
<path id="Vector_4" opacity="0.5" d="M35.4227 17.8462C35.4227 17.8462 24.784 23.2875 24.6115 23.7487C24.439 24.2062 32.959 20.1112 33.9565 19.5975C35.0852 19.0162 43.9502 14.2762 43.9502 13.755C43.954 13.3275 35.4227 17.8462 35.4227 17.8462Z" fill="#212121"/>
<g id="Group" opacity="0.5">
<path id="Vector_5" d="M4.80371 34.8187C6.18746 35.5162 7.55996 36.2362 9.26996 37.11V36.4425C7.56746 35.5725 6.19121 34.8562 4.80371 34.1512V34.8187ZM7.71746 35.1225C8.10746 35.3212 8.30246 35.4225 8.66996 35.61C8.67371 34.4475 8.67371 33.8662 8.67746 32.7037C8.30996 32.5162 8.11871 32.4187 7.73246 32.22C7.72496 33.3825 7.72121 33.96 7.71746 35.1225ZM5.29496 33.8775C5.61746 34.0425 5.79746 34.1362 6.16496 34.3237L6.18371 31.4287C5.81246 31.2375 5.63246 31.1475 5.30621 30.975C5.30246 32.1375 5.29871 32.7187 5.29496 33.8775Z" fill="#212121"/>
<path id="Vector_6" d="M7.10621 32.2462C7.99496 32.7 8.46746 32.9437 9.25121 33.3412C8.86121 32.6325 8.64746 32.2725 8.21996 31.545C7.78121 31.83 7.55246 31.9687 7.10621 32.2462ZM4.80371 31.065C5.46746 31.41 5.91371 31.6387 6.79121 32.0887C6.35621 31.3575 6.13871 30.9937 5.73746 30.2775C5.32871 30.5737 5.13746 30.7275 4.80371 31.065Z" fill="#212121"/>
</g>
<g id="Group_2" opacity="0.5">
<path id="Vector_7" d="M11.9286 38.025C12.2398 38.1863 12.4011 38.2725 12.7123 38.4337C12.6898 37.0537 12.6786 36.3638 12.6523 34.9838C12.3523 34.8263 12.2023 34.7475 11.9023 34.5938C11.9136 35.9663 11.9173 36.6525 11.9286 38.025Z" fill="#212121"/>
<path id="Vector_8" d="M10.7848 37.7813C11.9248 38.3813 12.8098 38.8313 13.9048 39.4163C13.8973 39.0225 13.5936 38.5463 13.1811 38.325C12.5361 37.9838 12.1686 37.7963 11.5161 37.455C11.0961 37.2413 10.7848 37.395 10.7848 37.7813ZM12.9561 33.885L13.4361 34.9013C13.2861 35.22 13.2073 35.3813 13.0498 35.6963C13.1848 35.685 13.2523 35.6813 13.3873 35.67C13.5673 35.43 13.6573 35.31 13.8298 35.07C13.6723 34.6988 13.5898 34.5113 13.4248 34.14C13.8823 34.3913 14.1073 34.5188 14.5236 34.7625C14.5236 36.105 13.6461 36.6975 12.3261 36.0075C11.0061 35.3213 10.1323 33.7875 10.1323 32.4413C11.1148 32.9325 11.7748 33.255 12.9561 33.885Z" fill="#212121"/>
</g>
<path id="Vector_9" d="M37.7777 15.5587C37.5902 15.42 17.4565 4.90125 17.4565 4.90125L11.209 8.13L31.8527 18.7762L31.864 18.7875L37.9052 15.6937C37.9052 15.6937 37.894 15.6637 37.8602 15.6262C37.834 15.6037 37.789 15.57 37.7777 15.5587Z" fill="#FFE0B2"/>
<path id="Vector_10" d="M37.8749 15.6487C34.4549 17.3325 31.8524 18.7762 31.8524 18.7762C31.9386 18.8625 31.9424 18.975 31.9424 19.0312C31.9311 19.4662 31.9236 19.8112 31.9124 20.2425C31.8599 22.4737 31.8299 24.7087 31.7549 26.94C32.0061 26.79 32.3099 27.12 32.5386 26.94C32.8911 26.6625 33.6411 25.44 33.7536 25.4025C33.9036 25.3537 34.0649 25.3912 34.2186 25.3837C34.8936 25.3462 36.4049 23.97 36.7274 23.9062C37.0386 23.8462 38.0661 24.045 38.0661 24.045C38.0661 24.045 37.9949 17.2387 37.9686 16.095C37.9611 15.69 37.8749 15.6487 37.8749 15.6487Z" fill="#BF9F85"/>
</g>
<defs>
<clipPath id="clip0_985_6408">
<rect width="48" height="48" fill="white"/>
</clipPath>
</defs>
</svg>
