<svg width="48" height="48" viewBox="0 0 48 48" fill="none" xmlns="http://www.w3.org/2000/svg">
<g id="baby-bottle">
<path id="Vector" d="M23.5122 11.6764C23.6404 11.6904 23.7453 11.7048 23.8221 11.7164L34.8373 22.8312C34.8559 22.8836 34.8819 22.9631 34.9094 23.0683C34.9679 23.2917 35.0337 23.6304 35.0529 24.0701C35.0911 24.9461 34.9449 26.2372 34.1671 27.8305C33.5204 29.1541 32.6456 30.2432 31.55 31.366C30.8954 32.0368 30.1824 32.7004 29.3983 33.4302C28.8495 33.941 28.2658 34.4843 27.6429 35.0851C26.5022 36.1856 25.5035 37.6242 24.5471 39.0019C24.2233 39.4683 23.9044 39.9278 23.5864 40.3647C22.2905 42.1457 21.0096 43.5632 19.4095 44.0409C17.7714 44.5299 15.6066 44.3334 13.3526 43.4936C11.1076 42.6573 8.82393 41.2003 6.9667 39.241C3.18001 35.2437 1.51481 31.3978 2.37237 27.2167C2.57263 26.2404 3.14728 25.3302 3.97238 24.4753C4.79691 23.621 5.84651 22.8478 6.94955 22.1444C7.89008 21.5446 8.85257 21.0058 9.73344 20.5127C9.88568 20.4274 10.0355 20.3436 10.1823 20.261C11.1562 19.7133 12.0389 19.2017 12.565 18.7335C13.2789 18.0982 14.105 17.235 14.9538 16.3482C15.2611 16.0273 15.5712 15.7032 15.8802 15.3857C17.0654 14.1675 18.2337 13.0436 19.2365 12.4164C20.1876 11.8215 21.3561 11.6422 22.3233 11.6233C22.8013 11.614 23.217 11.6441 23.5122 11.6764Z" fill="#BBCED4" stroke="black"/>
<path id="Vector_2" d="M28.1512 17.1412C27.3562 16.3463 25.6612 13.4138 24.3862 13.1475C23.1112 12.8813 20.3324 13.2113 18.0674 15.4425C16.2224 17.2613 14.2987 19.3687 12.4949 20.6962C10.6912 22.0237 7.25242 23.85 6.23242 24.6225C5.48992 25.1888 3.76867 26.5125 3.61867 29.175C3.49867 31.2713 4.25617 34.2188 7.87867 38.1C11.5687 42.0562 15.4162 42.75 17.7112 42.5813C20.9287 42.3488 22.3612 39.5213 22.9499 38.6513C23.6962 37.5525 26.0249 34.2788 27.2474 33.3225C28.4662 32.3663 31.4924 29.7413 32.6062 27.54C34.2412 24.3113 33.5549 22.5 33.5549 22.5L28.1512 17.1412Z" fill="#F5F3E7"/>
<path id="Vector_3" d="M15.3525 22.02C15.8288 22.6913 16.9088 22.7513 18.285 21.5925C19.6575 20.4338 21.0638 19.365 22.0088 18.8438C22.9538 18.3263 24.9113 17.1038 23.535 15.4238C22.1625 13.7438 20.4188 15.3 19.6275 16.095C18.8325 16.89 17.865 18.4238 16.9388 19.515C16.0838 20.5238 14.6813 21.075 15.3525 22.02Z" fill="white"/>
<path id="Vector_4" d="M41.0363 18.8292L41.0363 18.8294C41.0288 18.9304 40.9649 19.1211 40.8075 19.4004C40.6581 19.6654 40.4533 19.9607 40.2261 20.2569C39.7721 20.8486 39.2577 21.406 38.9991 21.67C38.8924 21.7788 38.7894 21.8847 38.6893 21.9875C38.1699 22.521 37.7304 22.9724 37.2817 23.3326C36.7597 23.7516 36.2594 24.017 35.6708 24.1099C35.4419 24.146 35.0597 24.1011 34.5211 23.9081C33.9945 23.7194 33.3644 23.4059 32.6612 22.9633C31.2556 22.0785 29.5934 20.7 27.9305 18.8507C26.2718 17.006 25.2412 15.3432 24.6386 14.038C24.0254 12.71 23.8791 11.8055 23.9125 11.4609C23.9877 10.7269 24.4763 9.87584 26.687 8.02223C27.8861 7.02111 28.8901 6.31253 30.0729 6.39746L30.0732 6.39749C30.7104 6.44279 33.6391 7.02877 37.3968 11.3386L37.3971 11.3389C38.9593 13.1279 39.886 14.8274 40.4136 16.1738C40.9482 17.538 41.0604 18.5051 41.0363 18.8292Z" fill="#37B4E5" stroke="black"/>
<path id="Vector_5" d="M29.28 7.61251C29.2313 9.34126 30.615 12.2175 33.195 15.0263C36.3525 18.4613 38.295 19.44 39.7875 19.785C40.5488 19.9613 41.2463 19.7138 41.2163 19.2563C41.1863 18.7988 40.785 19.0088 39.1838 18.4238C38.445 18.1538 36.435 17.0888 33.9975 14.34C31.56 11.5875 30.5775 9.46876 30.4313 8.01376C30.2813 6.53251 30.705 6.31501 30.1575 6.11626C29.6138 5.91001 29.31 6.58126 29.28 7.61251ZM28.65 7.84126C28.9088 8.38126 27.9038 9.24751 27.045 10.0763C26.01 11.0775 25.2713 11.7863 24.9225 11.31C24.5513 10.7925 25.7813 9.84751 26.385 9.24751C27.3038 8.32876 28.365 7.24126 28.65 7.84126ZM27.6113 12.8775C26.2875 14.0888 25.6838 14.4863 26.1338 14.9738C26.5875 15.4613 27.7013 14.2838 28.1813 13.8263C28.665 13.365 30.2288 12.1875 29.8388 11.67C29.3475 11.0175 28.395 12.1575 27.6113 12.8775ZM30.2063 16.3763C29.1075 17.4563 28.0988 18.2963 28.6463 18.78C29.13 19.2038 30.2663 17.91 30.9675 17.22C31.6688 16.53 32.79 15.6413 32.3438 15.15C31.8263 14.5763 31.0613 15.5363 30.2063 16.3763ZM31.8525 21.6675C32.3513 22.1475 33.1163 21.3075 33.9975 20.3775C34.8075 19.5225 35.9138 18.795 35.3775 18.2475C34.8788 17.7375 33.9338 18.78 33.1725 19.5075C32.2913 20.3513 31.38 21.2213 31.8525 21.6675ZM36.6488 21.6075C35.43 22.8263 34.8938 23.2688 35.4075 23.6663C35.9213 24.0638 36.93 22.8 37.6313 22.1925C38.3325 21.585 39.1275 20.8838 38.685 20.46C38.2425 20.04 37.47 20.7863 36.6488 21.6075Z" fill="#1E88FE"/>
<path id="Vector_6" d="M45.207 7.06581L45.2068 7.06604C44.6897 7.56742 44.2172 7.74737 43.7318 7.93223C43.7124 7.93962 43.693 7.94702 43.6735 7.95445C43.1549 8.15248 42.5751 8.38555 42.1538 9.10288C41.936 9.47245 41.9583 9.84576 42.0347 10.171C42.0799 10.3639 42.1606 10.5954 42.2402 10.8239C42.2795 10.9365 42.3185 11.0484 42.3529 11.1546C42.5772 11.8474 42.7943 12.7923 42.5245 14.241L42.5245 14.2411C42.3 15.4489 41.5314 16.4453 40.8301 17.1235C40.7208 17.1195 40.5384 17.095 40.2757 17.0194C39.9066 16.9133 39.4337 16.7224 38.8881 16.4241C37.7984 15.8283 36.4408 14.8163 35.0679 13.2425L35.0678 13.2425C33.4745 11.4165 32.7403 9.95747 32.3872 8.91834C32.2104 8.3983 32.1269 7.97671 32.0803 7.6577C32.0579 7.50385 32.0439 7.3732 32.0318 7.25918L32.0301 7.24359C32.0296 7.23894 32.0291 7.23424 32.0286 7.2295C32.0276 7.22008 32.0266 7.21048 32.0255 7.20073C32.6703 6.5439 33.4538 5.96224 34.2363 5.82077L34.2366 5.82071C35.546 5.58311 36.4842 5.78961 37.2566 6.03576C37.3988 6.08107 37.5509 6.13342 37.7035 6.18593C37.9378 6.26656 38.1733 6.34759 38.3755 6.40409C38.7371 6.5051 39.1288 6.57323 39.5397 6.4949L39.5403 6.49478C39.8963 6.42647 40.1815 6.28989 40.4171 6.08592C40.6443 5.88922 40.8009 5.65033 40.9303 5.42176C41.0002 5.29825 41.0641 5.17573 41.1285 5.05238C41.313 4.69894 41.5011 4.33865 41.8433 3.92833C42.7069 2.89888 44.3216 2.64749 45.3466 3.55763L45.3472 3.55812C45.9591 4.09983 46.1225 4.75815 46.0405 5.3952C45.9557 6.05416 45.6058 6.67966 45.207 7.06581Z" fill="#FFA828" stroke="black"/>
<path id="Vector_7" d="M41.8127 5.51625C42.3039 6.165 43.0464 5.6625 43.6202 5.0475C44.0814 4.54875 44.7152 4.0125 44.3777 3.6075C43.8977 3.03 43.0614 3.28125 42.5439 3.67875C42.0227 4.07625 41.4489 5.03625 41.8127 5.51625ZM33.8327 7.21875C33.6302 8.2725 35.0814 8.44125 35.6814 8.51625C36.2814 8.59125 37.6502 8.64375 37.7027 7.69125C37.7514 6.8175 36.7502 6.4425 35.8802 6.345C35.0064 6.2475 33.9827 6.44625 33.8327 7.21875Z" fill="#FFCC8A"/>
</g>
</svg>
