<svg width="48" height="48" viewBox="0 0 48 48" fill="none" xmlns="http://www.w3.org/2000/svg">
<g id="lotion-bottle" clip-path="url(#clip0_985_5807)">
<path id="Vector" d="M23.1665 4.5H24.8332V10.1667H23.1665V4.5Z" fill="#66757F" stroke="black"/>
<path id="Vector_2" d="M16.5 15.5V12C16.5 10.8095 17.4761 9.83333 18.6667 9.83333H29.3333C30.5239 9.83333 31.5 10.8095 31.5 12V15.5H16.5Z" fill="#99AAB5" stroke="black"/>
<path id="Vector_3" d="M39.4996 42.6711L39.5 42.6786C39.4935 45.3304 37.3199 47.5 34.6667 47.5H13.3333C10.6801 47.5 8.50649 45.3303 8.50001 42.6786L8.50038 42.6711L8.50337 42.612C8.50606 42.5597 8.51017 42.4818 8.51583 42.38C8.52715 42.1763 8.54464 41.877 8.56927 41.4958C8.61855 40.7333 8.6964 39.6434 8.81061 38.3352C9.03913 35.7176 9.41276 32.2315 9.9932 28.7489C10.5748 25.2593 11.3594 21.8026 12.401 19.2293C12.9225 17.9408 13.496 16.9056 14.1174 16.2003C14.7362 15.4979 15.3605 15.1667 16 15.1667H32C32.6395 15.1667 33.2638 15.4979 33.8826 16.2003C34.504 16.9056 35.0775 17.9408 35.599 19.2293C36.6406 21.8026 37.4252 25.2593 38.0068 28.7489C38.5872 32.2315 38.9609 35.7176 39.1894 38.3352C39.3036 39.6434 39.3815 40.7333 39.4307 41.4958C39.4554 41.877 39.4729 42.1763 39.4842 42.38C39.4898 42.4818 39.4939 42.5597 39.4966 42.612L39.4996 42.6711Z" fill="#FFAC33" stroke="black"/>
<path id="Vector_4" d="M12.0729 6.01939C12.07 6.02095 12.0672 6.02251 12.0643 6.02407L11.2901 5.24979C11.3663 5.12575 11.4677 4.96918 11.5953 4.78901C11.9322 4.31348 12.4492 3.67695 13.1654 3.04037C14.5935 1.77095 16.8129 0.5 19.9998 0.5H27.9998C28.4726 0.5 28.8273 0.725922 29.0838 1.11068C29.3502 1.51026 29.4998 2.07417 29.4998 2.66667C29.4998 3.25916 29.3502 3.82307 29.0838 4.22265C28.8273 4.60741 28.4726 4.83333 27.9998 4.83333H19.9998C16.636 4.83333 14.587 5.16939 13.3625 5.51924C12.7492 5.69445 12.3392 5.87416 12.0729 6.01939Z" fill="#CCD6DD" stroke="black"/>
<path id="Vector_5" d="M29.4439 3.26823C29.3766 3.64655 29.2456 3.98871 29.0619 4.25338C28.8086 4.61831 28.4619 4.83334 27.9998 4.83334H19.9998C16.636 4.83334 14.5869 5.16939 13.3625 5.51924C12.7492 5.69445 12.3392 5.87416 12.0729 6.01939C12.07 6.02096 12.0672 6.02252 12.0643 6.02408L11.9867 5.94645C12.5908 5.34707 13.3563 4.72349 14.4337 4.21859C15.7229 3.61438 17.4882 3.16667 19.9998 3.16667C23.0126 3.16667 25.0097 3.19264 26.5025 3.2186C26.903 3.22556 27.2681 3.23254 27.6073 3.23903C28.3 3.25229 28.8849 3.26348 29.4439 3.26823Z" fill="#99AAB5" stroke="black"/>
<path id="Vector_6" d="M31.3333 17.3333H16.6667C16.3 17.3333 16 17.0333 16 16.6667C16 16.3 16.3 16 16.6667 16H31.3333C31.7 16 32 16.3 32 16.6667C32 17.0333 31.7 17.3333 31.3333 17.3333Z" fill="#FFCC4D"/>
<path id="Vector_7" d="M23.9998 24C23.9998 24 18.6665 30.388 18.6665 33.3333C18.6665 34.7478 19.2284 36.1044 20.2286 37.1046C21.2288 38.1048 22.5853 38.6667 23.9998 38.6667C25.4143 38.6667 26.7709 38.1048 27.7711 37.1046C28.7713 36.1044 29.3332 34.7478 29.3332 33.3333C29.3332 30.388 23.9998 24 23.9998 24Z" fill="#FFE8B6"/>
</g>
<defs>
<clipPath id="clip0_985_5807">
<rect width="48" height="48" fill="white"/>
</clipPath>
</defs>
</svg>
