<svg width="48" height="48" viewBox="0 0 48 48" fill="none" xmlns="http://www.w3.org/2000/svg">
<g id="noto:baguette-bread">
<path id="Vector" d="M37.2316 15.2657L37.2564 15.2386L37.277 15.2081L45.5622 2.90792C45.5889 2.92397 45.6163 2.94179 45.644 2.96152C45.8469 3.10602 46.0799 3.36034 46.1609 3.82785C46.2429 4.30163 46.0877 5.02007 45.7687 5.89139C45.5008 6.62302 45.1481 7.38627 44.8209 8.09412C44.7683 8.20805 44.7163 8.32053 44.6654 8.43122C43.9519 9.98393 42.4043 13.0619 39.7214 16.7258C39.4305 17.1228 39.16 17.4926 38.9061 17.8397C36.1386 21.6233 35.3517 22.699 31.7502 26.711C29.6918 29.0039 24.3275 34.313 19.9427 38.3979C15.5819 42.4605 13.1535 43.8323 11.9347 44.4006C11.3435 44.6762 10.5568 44.9056 9.80073 45.0637C9.04084 45.2226 8.35972 45.2995 7.98343 45.2914C7.59393 45.2822 7.22265 45.2425 6.8552 45.2031C6.71604 45.1883 6.57743 45.1734 6.43858 45.1603C5.97663 45.1168 5.45473 45.0842 5.03604 45.2343C4.75056 45.3367 4.31274 45.4755 3.8483 45.4981C3.38808 45.5205 2.94779 45.4274 2.59577 45.1165L2.59488 45.1157C2.14344 44.7189 2.04158 44.2995 2.03817 43.9826C2.03666 43.8415 2.05508 43.7171 2.07655 43.6217L16.2475 38.1881L16.3581 38.1457L16.4379 38.0582L37.2316 15.2657ZM45.2695 2.78005L45.2694 2.78L45.2695 2.78005ZM2.13003 43.4424L2.12969 43.4433C2.13031 43.4417 2.13064 43.441 2.13064 43.441L2.1306 43.441L2.13003 43.4424Z" fill="#E38413" stroke="black"/>
<path id="Vector_2" d="M31.3013 6.92625C28.425 8.985 24.03 13.3162 18.8138 18.9263C12.4688 25.7475 5.88753 33.6412 4.60503 35.9625C2.65503 39.4912 3.04878 40.245 2.54253 41.31C2.03628 42.375 1.07253 43.2975 1.75878 44.535C2.30628 45.5288 3.81753 45.045 4.66128 44.7262C5.33253 44.4712 6.37878 44.625 7.70253 44.6963C9.99378 44.8162 12.7575 43.785 15.9713 41.1937C19.185 38.6025 27.6075 30.1163 33.4125 23.8013C39.2175 17.4862 44.5575 8.0775 45.525 6.08625C46.4925 4.095 46.6575 3.77625 46.6575 3.43125C46.6575 3.0825 46.0463 1.425 42.1725 1.965C38.2988 2.505 34.1288 4.90125 31.3013 6.92625Z" fill="url(#paint0_radial_985_5971)"/>
<path id="Vector_3" d="M38.3249 3.195C37.2637 3.28875 34.9649 4.76625 34.4249 5.355C32.7037 7.23 33.8962 9.11625 35.3624 9.165C38.1299 9.255 40.3537 7.44375 40.8337 5.74125C41.4374 3.58875 39.8324 3.06 38.3249 3.195Z" fill="url(#paint1_radial_985_5971)"/>
<path id="Vector_4" d="M28.1815 10.545C26.929 11.0025 24.7877 13.1325 24.1577 13.7325C22.654 15.1725 21.5965 19.5113 26.3252 19.77C30.184 19.98 34.8602 16.2338 34.0765 12.6863C33.5215 10.1513 30.8177 9.585 28.1815 10.545Z" fill="url(#paint2_radial_985_5971)"/>
<path id="Vector_5" d="M18.6599 22.7512C16.8524 22.9162 15.3337 23.2987 13.6912 25.7812C11.5199 29.0625 13.7549 32.16 16.7774 32.2987C19.6499 32.43 22.5974 30.7387 23.3399 27.8512C24.1649 24.6262 21.3712 22.5037 18.6599 22.7512Z" fill="url(#paint3_radial_985_5971)"/>
<path id="Vector_6" d="M10.515 32.475C8.06252 33.0825 5.94377 34.65 4.55252 36.915C2.49752 40.26 3.07502 42.375 4.91252 43.0387C6.75002 43.7062 12.2813 41.0362 14.3213 37.41C16.74 33.105 13.5638 31.7175 10.515 32.475Z" fill="url(#paint4_radial_985_5971)"/>
<path id="Vector_7" d="M24.7313 14.2387C24.5063 13.7887 25.6613 12.6787 27.12 11.4225C28.5788 10.1625 31.53 8.2125 34.1138 7.60875C36.9638 6.945 40.5788 6.88125 40.6463 7.575C40.6988 8.1075 38.0288 9.73125 38.0288 9.73125L26.7525 14.07C26.7525 14.07 24.93 14.6362 24.7313 14.2387Z" fill="#CE701B"/>
<path id="Vector_8" d="M32.3252 10.125C28.1402 11.9437 25.8452 14.2875 25.8452 14.2875C25.8452 14.2875 29.6065 14.355 34.729 12.3975C37.4965 11.34 40.1927 8.20125 40.1927 8.20125C40.1927 8.20125 36.3677 8.37 32.3252 10.125Z" fill="#FDCE8C"/>
<path id="Vector_9" d="M16.6274 25.0425C16.6274 25.0425 14.9362 25.92 14.5124 25.7663C14.0887 25.6163 14.5124 24.9488 14.9962 24.195C15.3449 23.6513 17.4862 21.045 19.8562 19.62C22.3649 18.1088 24.8549 17.5538 27.2699 17.3663C29.4562 17.1938 32.1337 17.37 31.6237 18C31.0612 18.69 30.4574 19.3688 30.4574 19.3688L16.6274 25.0425Z" fill="#CE701B"/>
<path id="Vector_10" d="M21.9188 20.4488C25.3201 19.05 26.6626 18.9675 28.2376 18.6975C29.8088 18.4238 31.2001 18.5175 31.2001 18.5175C31.2001 18.5175 30.3751 19.5338 29.3776 20.4713C28.3801 21.4088 27.1238 22.3688 26.5201 22.5488C25.9163 22.7288 22.4363 23.73 20.0738 24.2738C18.0788 24.7313 15.3301 25.6238 15.3301 25.6238C15.3301 25.6238 18.3226 21.93 21.9188 20.4488Z" fill="#FDCE8C"/>
<path id="Vector_11" d="M5.93273 36.0637C5.86148 35.6325 8.20523 32.0662 11.5877 30.2437C14.9702 28.4212 19.0315 28.515 20.0515 28.5375C21.0715 28.56 22.024 28.6687 21.9602 29.1225C21.8965 29.5762 21.4165 29.8162 21.4165 29.8162L6.69398 36.2175C6.69398 36.2175 6.00023 36.4575 5.93273 36.0637Z" fill="#CE701B"/>
<path id="Vector_12" d="M10.4249 32.7037C13.1587 30.75 16.1062 30.21 18.1874 29.9512C20.3399 29.6812 21.4199 29.8012 21.4199 29.8012C21.4199 29.8012 19.9387 31.4512 19.1399 32.1C18.4124 32.6925 16.9874 33.8025 16.3237 34.0725C15.8662 34.26 13.0274 34.92 11.7899 35.2012C10.5524 35.4825 6.60742 36.2437 6.60742 36.2437C6.60742 36.2437 7.33117 34.9125 10.4249 32.7037Z" fill="#FDCE8C"/>
</g>
<defs>
<radialGradient id="paint0_radial_985_5971" cx="0" cy="0" r="1" gradientUnits="userSpaceOnUse" gradientTransform="translate(17.8206 18.7202) rotate(45.1945) scale(16.4122 40.9411)">
<stop offset="0.445" stop-color="#DB8316"/>
<stop offset="0.539" stop-color="#DF8A1B"/>
<stop offset="0.671" stop-color="#E99C2A"/>
<stop offset="0.79" stop-color="#F6B23B"/>
</radialGradient>
<radialGradient id="paint1_radial_985_5971" cx="0" cy="0" r="1" gradientUnits="userSpaceOnUse" gradientTransform="translate(37.2193 6.32364) rotate(-36.8699) scale(3.71962 2.34388)">
<stop offset="0.029" stop-color="#FBD8A9"/>
<stop offset="1" stop-color="#FBD8A9" stop-opacity="0"/>
</radialGradient>
<radialGradient id="paint2_radial_985_5971" cx="0" cy="0" r="1" gradientUnits="userSpaceOnUse" gradientTransform="translate(28.6567 15.0909) rotate(-28) scale(5.66035 3.97769)">
<stop offset="0.097" stop-color="#FDE5BF"/>
<stop offset="0.37" stop-color="#FCE1B9" stop-opacity="0.742"/>
<stop offset="0.716" stop-color="#FAD8A9" stop-opacity="0.416"/>
<stop offset="0.843" stop-color="#FCE0B6" stop-opacity="0.211"/>
<stop offset="0.974" stop-color="#FDE5BF" stop-opacity="0"/>
</radialGradient>
<radialGradient id="paint3_radial_985_5971" cx="0" cy="0" r="1" gradientUnits="userSpaceOnUse" gradientTransform="translate(18.2685 27.4199) rotate(-43.0363) scale(5.10928 4.49602)">
<stop offset="0.188" stop-color="#FBD8A9"/>
<stop offset="0.977" stop-color="#FBD8A9" stop-opacity="0"/>
</radialGradient>
<radialGradient id="paint4_radial_985_5971" cx="0" cy="0" r="1" gradientUnits="userSpaceOnUse" gradientTransform="translate(9.11607 37.5428) rotate(-42.327) scale(6.34291 3.55153)">
<stop stop-color="#FDE5BF"/>
<stop offset="1" stop-color="#FDE5BF" stop-opacity="0"/>
</radialGradient>
</defs>
</svg>
